<?xml version="1.0" encoding="utf-8"?>
<!-- Generator: Adobe Illustrator 26.0.3, SVG Export Plug-In . SVG Version: 6.00 Build 0)  -->
<!DOCTYPE svg PUBLIC "-//W3C//DTD SVG 1.1//EN" "http://www.w3.org/Graphics/SVG/1.1/DTD/svg11.dtd" [
	<!ENTITY ns_extend "http://ns.adobe.com/Extensibility/1.0/">
	<!ENTITY ns_ai "http://ns.adobe.com/AdobeIllustrator/10.0/">
	<!ENTITY ns_graphs "http://ns.adobe.com/Graphs/1.0/">
	<!ENTITY ns_vars "http://ns.adobe.com/Variables/1.0/">
	<!ENTITY ns_imrep "http://ns.adobe.com/ImageReplacement/1.0/">
	<!ENTITY ns_sfw "http://ns.adobe.com/SaveForWeb/1.0/">
	<!ENTITY ns_custom "http://ns.adobe.com/GenericCustomNamespace/1.0/">
	<!ENTITY ns_adobe_xpath "http://ns.adobe.com/XPath/1.0/">
]>
<svg version="1.1" id="Слой_1" xmlns:x="&ns_extend;" xmlns:i="&ns_ai;" xmlns:graph="&ns_graphs;"
	 xmlns="http://www.w3.org/2000/svg" xmlns:xlink="http://www.w3.org/1999/xlink" x="0px" y="0px" width="328.4px" height="389.5px"
	 viewBox="0 0 328.4 389.5" style="enable-background:new 0 0 328.4 389.5;" xml:space="preserve">
<style type="text/css">
	.st0{fill:#FFFFFF;}
	.st1{fill:#FFDB1F;}
	.st2{fill:none;stroke:#2D1F04;stroke-width:2.8223;stroke-linecap:round;stroke-linejoin:round;stroke-miterlimit:10;}
	.st3{fill:#CAA77A;}
	.st4{fill:#FFDBAF;}
	.st5{fill:#9D7B51;}
	.st6{fill:none;stroke:#9D7B51;stroke-width:4.1689;stroke-linecap:round;stroke-linejoin:round;stroke-miterlimit:10;}
	.st7{opacity:0.23;fill:#3F2719;}
	.st8{fill:none;stroke:#2D1F04;stroke-width:8.187;stroke-linecap:round;stroke-linejoin:round;stroke-miterlimit:10;}
	.st9{fill:none;stroke:#2D1F04;stroke-width:3.2856;stroke-linecap:round;stroke-linejoin:round;stroke-miterlimit:10;}
	.st10{fill:#251707;}
	.st11{fill:#2D1F04;}
	.st12{fill:#E7E7E7;}
	.st13{fill:#D2D2D2;}
	.st14{fill:#222222;}
	.st15{fill:#FAFAFA;}
	.st16{fill:none;stroke:#D2D2D2;stroke-width:1.6266;stroke-linecap:round;stroke-linejoin:round;stroke-miterlimit:10;}
	.st17{fill:#F0F0F0;}
	.st18{fill:#281D07;}
	.st19{fill:none;stroke:#2D1F04;stroke-width:2.8008;stroke-linecap:round;stroke-linejoin:round;stroke-miterlimit:10;}
	.st20{fill:none;stroke:#9D7B51;stroke-width:4.0719;stroke-linecap:round;stroke-linejoin:round;stroke-miterlimit:10;}
	.st21{fill:#4285F4;}
	.st22{fill:#EA4335;}
	.st23{fill:#FBBC05;}
	.st24{fill:#34A853;}
	.st25{fill:none;stroke:#777777;stroke-width:0.5386;stroke-miterlimit:10;}
	.st26{fill:#E5E5E5;}
	.st27{fill:none;stroke:#727272;stroke-width:0.2693;stroke-miterlimit:10;}
</style>
<metadata>
	<sfw  xmlns="&ns_sfw;">
		<slices></slices>
		<sliceSourceBounds  bottomLeftOrigin="true" height="389.5" width="328.4" x="796.4" y="-741.9"></sliceSourceBounds>
	</sfw>
</metadata>
<g>
	<g>
		<path class="st0" d="M8.9,321.2l192,67.2c2.2,0.8,4.8,1.2,7.5,1.2c4.9,0,9.8-1.3,13.4-3.6l96-61.3c3.7-2.4,6-6.4,6.4-11.1
			c0,0,0-0.1,0-0.1c1.6-3.2,1.5-6,1-7.9c-0.2-0.6-0.4-1.2-0.6-1.7l3.9-144.4c0-0.1,0-0.1,0-0.2c0-0.7,0-1.4-0.1-2.1
			c-1-10-9.1-18.4-19-19.7l-10.9-1.4c0.8-1.9,0.9-4,0.3-5.9c2.2-0.9,4-2.4,5.2-4.5c1.5-2.5,1.9-5.4,1.2-8.2
			c-0.7-2.6-2.3-4.9-4.5-6.3c1.3-2.4,1.6-5.1,0.9-7.7c-0.7-2.8-2.5-5.2-5-6.6c-0.2-0.1-0.4-0.2-0.6-0.3c1.2-2.6,1.3-5.5,0.2-8.3
			c-0.6-1.6-1.6-3-2.9-4.1c0-0.4,0-0.8,0-1.3c-0.1-1.5-0.4-2.9-1.1-4.2l-2.3-4.8c-0.9-1.8-2.1-3.4-3.6-4.7c-0.2-0.2-0.4-0.3-0.5-0.4
			c0-0.6,0-1.3-0.1-1.9c-0.2-1.5-0.7-2.8-1.5-4c-1.6-2.6-3.8-3.9-5.4-4.5c0-0.3,0-0.5,0-0.8c0-2.1-0.5-4.2-1.6-6
			c-0.8-1.2-1.7-2.3-2.9-3.1c0,0-0.1,0-0.1-0.1c-0.4-1.3-1-2.6-1.9-3.7l-3.2-4.2c-1.2-1.6-2.7-2.9-4.5-3.8c-1.3-0.7-2.6-1.2-4-1.5
			c-0.6-3.8-2.3-7.3-5.1-10.2c-3.2-3.2-7.1-5.2-11.5-5.6c-0.3-1.8-1-3.5-1.8-5.2c-1.1-2.1-2.7-4-4.6-5.5c-1.1-0.9-2.3-1.6-3.5-2.2
			c-0.6-0.9-1.3-1.6-2.2-2.3c-1.9-1.5-4.3-2.4-6.7-2.4c-0.4,0-0.9,0-1.3,0.1c-1.2,0.1-2.3,0.5-3.4,1c-1.6-1.6-3.7-2.6-6.1-2.7
			c-0.1,0-0.3,0-0.4,0c-2.8,0-5.5,1.3-7.2,3.6l-17.7,23.6c-1.9-0.8-3.9-1.5-5.8-2.1c-0.5-0.2-1-0.3-1.6-0.4
			c-8.9-4.2-18.3-7.7-25.3-9.4c-0.8-0.2-1.6-0.3-2.4-0.3c-1-0.3-1.9-0.4-2.9-0.4c-1.4,0-2.8,0.3-4.1,1c-1,0.5-1.9,1.2-2.7,2
			c-3.2-0.8-6.5-1.8-9.8-2.8c-1.4-0.4-2.8-0.9-4.3-1.3c-0.6-0.4-1.4-0.9-2-1.4c-0.6-0.4-1.2-0.8-1.7-1.2c-0.7-0.7-1.7-1.5-2.9-2.1
			c-1.3-0.6-2.7-1-4.1-1c-2.6,0-4.5,1-5.8,2c-2.6,1.5-5,4.3-5.3,8.6c-3,0.3-5.4,1.4-7.2,2.3c-1.7,0.3-3.4,0.6-4.9,1
			c-3.5,0.8-7.2,2.1-10.5,3.8c-4.1,1.4-5.5,4.8-5.9,6.2c-0.4,1.5-0.4,3.1-0.1,4.6c-0.5,0.3-2,1.2-3.3,2.2c-2.4,1.7-6.1,4.3-6.4,9.1
			C70,49,70.3,50.6,71,52c-4.2,2.9-7,6-7,10.5c0,4.3,2.9,7.9,6.9,8.9c-0.1,0.2-0.2,0.5-0.3,0.7c-1.5,3.1-2.8,6.4-3.9,9.8
			c-1.7,4.4-3,9.2-3.9,14.4h-3.4c-5.3,0-9.6,4.3-9.6,9.6c0,5.3,4.3,9.6,9.6,9.6h1.5c-0.7,23.6,4.7,46.7,9.2,65.8
			c2.3,9.7,4.2,18.1,5,24.8l-0.6,8.2c-1.4,1.2-2.5,2.6-3.2,3.6c-4.5,4.7-5.9,8.2-6.2,10.6c-1.2,0.6-2.4,1.2-2.9,1.5
			c-8,3.7-34.9,17.7-44.1,42.7c-0.1,0.3-0.2,0.6-0.3,0.9c-2.9,7.3-4.6,15.3-5,23.8l-4.5,1.9c-0.9,0.4-1.7,0.8-2.5,1.3
			c-3.8,2.4-5.9,6-5.7,10C0.1,312.3,0.9,318.4,8.9,321.2z M319.3,157.9c0,0.4,0.1,0.8,0.1,1.2C319.4,158.7,319.3,158.3,319.3,157.9
			c0-0.5-0.1-0.9-0.2-1.3C319.2,157,319.3,157.4,319.3,157.9z M294.6,118.3C294.6,118.3,294.6,118.3,294.6,118.3
			C294.6,118.3,294.6,118.3,294.6,118.3C294.6,118.3,294.6,118.3,294.6,118.3z M291,104.2C291,104.2,291.1,104.2,291,104.2
			C291,104.2,291,104.2,291,104.2C291,104.2,291,104.2,291,104.2z M294.1,118.3L294.1,118.3l-8.3,2.1L294.1,118.3z M275.2,105.7
			l12.2-12.6L275.2,105.7c-0.1,0.1-0.2,0.2-0.3,0.2C275,105.9,275.1,105.8,275.2,105.7z M274.1,106.2c-0.1,0-0.1,0-0.2,0
			c0,0-0.1,0-0.1,0C273.9,106.3,274,106.2,274.1,106.2z M263.9,140.7c-0.2-1.1-0.5-2.1-0.7-3.2c1.4-0.3,2.8-0.5,4.1-0.8
			c-1.3,0.2-2.7,0.5-4.1,0.8C263.5,138.6,263.7,139.6,263.9,140.7z M267.2,61.5L267.2,61.5l-5.1,7.1h0L267.2,61.5z M242.1,28.2
			c0.1,0,0.1,0,0.2,0c-0.2,0-0.4,0-0.6,0C241.8,28.2,241.9,28.2,242.1,28.2z M235.3,31c0.2-0.2,0.5-0.4,0.7-0.7
			C235.8,30.5,235.6,30.7,235.3,31c-0.2,0.2-0.5,0.5-0.7,0.7C234.9,31.4,235.1,31.2,235.3,31z M233.4,28.4c0.4-0.5,0.7-1,1-1.5
			C234.1,27.4,233.8,27.9,233.4,28.4l-4.2,5.3L233.4,28.4z M225.2,10.7C225.2,10.7,225.2,10.7,225.2,10.7c0,0-0.1,0-0.2,0
			C225,10.7,225.1,10.7,225.2,10.7z M214,9l5,8.2l0,0L214,9L214,9z M208.6,380.5c-0.1,0-0.1,0-0.2,0c-0.1,0-0.1,0-0.2,0
			C208.3,380.5,208.4,380.5,208.6,380.5z M153.9,23.9C153.9,23.9,153.9,23.9,153.9,23.9C153.9,23.9,153.9,23.9,153.9,23.9
			C153.9,23.9,153.9,23.9,153.9,23.9z M151.2,23.5C151.2,23.5,151.2,23.5,151.2,23.5C151.2,23.5,151.1,23.5,151.2,23.5
			C151.1,23.5,151.2,23.5,151.2,23.5z M119.6,16.7C119.6,16.7,119.6,16.7,119.6,16.7C119.6,16.7,119.5,16.7,119.6,16.7
			C119.5,16.7,119.5,16.7,119.6,16.7z M118.6,17.3C118.6,17.3,118.6,17.3,118.6,17.3C118.6,17.3,118.6,17.3,118.6,17.3
			C118.5,17.3,118.6,17.3,118.6,17.3z M110.3,27.1c0.2,0,0.3,0,0.5,0c-0.3,0-0.5,0-0.8,0C110.1,27.2,110.2,27.1,110.3,27.1z
			 M108.6,27.3c-0.6,0.1-1.2,0.3-1.8,0.5C107.4,27.6,108,27.4,108.6,27.3z M96.4,38c0.1,0,0.3,0,0.4,0c0.1,0,0.1,0,0.2,0
			C96.9,38,96.7,38,96.4,38z M100.3,36.9C100.3,36.9,100.3,36.9,100.3,36.9c0,0-0.1,0-0.1,0C100.2,36.9,100.3,36.9,100.3,36.9z
			 M98.4,30.2c0.4-0.1,0.8-0.2,1.3-0.3C99.2,30.1,98.8,30.2,98.4,30.2c-0.8,0.2-1.6,0.4-2.4,0.6C96.8,30.6,97.6,30.4,98.4,30.2z
			 M84.3,202c0.4,2.1,0.6,3.8,0.8,5.2C85,205.8,84.7,204.1,84.3,202L84.3,202z M84.2,214.2c0.1-0.2,0.3-0.5,0.4-0.7
			C84.5,213.7,84.4,213.9,84.2,214.2C84.2,214.2,84.2,214.2,84.2,214.2z M83.9,220.2c0.2,0,0.5,0,0.7,0c-0.3,0-0.7-0.1-1,0
			C83.7,220.2,83.8,220.2,83.9,220.2z M83.5,49.5c-0.1,0-0.1,0-0.2,0c0,0-0.1,0-0.1,0C83.3,49.5,83.4,49.5,83.5,49.5z M82.8,220
			C82.8,220,82.8,220,82.8,220C82.8,220,82.8,220,82.8,220C82.8,220,82.8,220,82.8,220z M81.3,49c0,0.1,0.1,0.1,0.1,0.2
			C81.4,49.1,81.4,49.1,81.3,49c0-0.1,0-0.2,0-0.2C81.3,48.8,81.3,48.9,81.3,49z M73.2,62.7C73.2,62.7,73.2,62.7,73.2,62.7
			C73.2,62.7,73.2,62.7,73.2,62.7C73.2,62.7,73.2,62.7,73.2,62.7z M75,61.9c1.4-0.4,3-0.5,4.5-0.8C77.9,61.4,76.4,61.5,75,61.9z"/>
		<g>
			<path class="st1" d="M77.1,233c-0.9-0.8-2.8-2-3-3.4c-0.3-2.4,6.3-9.3,8.7-9.9c4.6-1.2,11.1,4.8,15.7,6.5
				c1.2,0.5,4.8-0.1,5.5,0.9c2.5,3.3,1.9,16.8,2.4,21.4c0.2,1.6,2.2,17.1,1.9,17.4c-1.2,1.6-17.5,6.9-19.3,6.3
				c-1.9-0.7-4.1-3.4-5.9-4.5c-4.5-2.6-11.4-2.3-16.4-3.2c-4.7-0.8-10.4-3.5-15-0.5c-3.8,2.4-7.4,2.7-11.4,4.7
				c-4.1,2.1-8.3,7.9-10.6,11.8c-1.3,2.2-3.9,22-6.3,21.5c-1.1-0.2-0.4-6-0.3-6.7c1.1-6.4,1.4-14.3,3.6-20.4
				c6.1-16.7,23.6-30.3,39.4-37.6c1.6-0.7,8.4-4.1,9.1-5.6c1-1.9-2.6-3.2,1.3-4.3"/>
			<path class="st2" d="M37.7,296.8c9.7,6.1,18.5,9.2,29.9,10.4"/>
			<path class="st2" d="M35.6,298.3c12.7,8.1,28.5,13.6,43.5,8"/>
			<path class="st3" d="M92.2,57.4c-3.4,0-12.1,17.2-14.1,20.7c-14.7,26-6.1,72.7,3.9,112.5c7.3,29.4,0.1,18.7,2.2,27.3
				c1.5,6,21.6,10.3,27.7,11.9c23.3,5.9,44.9-6.2,68.3-6.2c5.8,0,22.7,1.8,27.5-3.1c4.1-4.2,5.4-9.6,8.7-14.3
				c4.5-6.4,14.9-14.1,22.2-17c7.5-3,16.8-1.2,24.2,0.7c1.9,0.5,7.5,2.9,9.4,1c3-3.1,4.5-12.1,3.7-16c-2.1-10.4-13.6,21.2-15.6,11.1
				c-1.4-6.9,3.5-44.7,1-51.3c-9.9-26.1-19.1-63-41.2-79.3c-5.6-4.1-14.8-11.3-21.2-14.5c-6.1-3.1-10.3-3.5-16.4-6.6
				c-8.1-4.1-19.6-8.9-28.2-11c-2.2-0.6,0.9,3.3,0.7,3.7c-0.3,0.6-5.6,0.5-6.4,0.3c-7.2-1.5-14.6-1.3-21.5-4.4
				c-1.1-0.5-7.2-6.8-8.5-6.3c-4.1,1.4,3.8,14.8,3.8,14.8s-0.6-1-1-1.4c-2-1.6-6.5-2.9-9.1-3.4c-5.5-1.1-7.8,2.5-12.4,3.4
				c-0.6,0.1-6,1.6-6,1.7c0,1.2,8.7,2.5,8.7,3.7c0,1.1-1.9,0.6-2.4,0.7c-2.6,0.4-19.9,8.9-18.9,12.1c0.5,1.4,11-0.8,12.5,0.1
				c0.4,0.2,1.3,0.3,1.3,0.3s-6.1,0.9-9.1,1.7c-3.7,0.9-11.4,9.5-4.7,9.5"/>
			<path class="st4" d="M76.2,110.2c2.8-11.6,9.8-24.7,20.1-26.6c12-2.3,22.1,7.5,33.7,7.1c2.2-0.1,6.4-1.4,7.7-3.3
				c1.2-1.8,0-4.3,0-4.3c1.8,0.5,3.7,3.2,5.9,3.9c8.7,2.6,17.8-5.2,25.7-7.6c26.4-8.1,46.9-5.2,61,20.6c3.2,5.8,8,19,4.7,33.8
				c-4.8,21.6-7.3,30.6-30.4,46.7c-27.4,19.2-84.3,28.7-112.6-7.6C78.7,155.9,71,131.9,76.2,110.2z"/>
			<path class="st5" d="M129.3,120.1c-9.6-4.8-17.3,19.6-16.6,26.7c2.6,24.1,37.4,22.8,53.6,14.7c23.3-11.8-5.2-49.8-21.8-43"/>
			<path class="st5" d="M76.8,108.1c-5.2,9.6-2.4,37.4,4.7,46c0.6-0.2,39-9.9,36-49.5c-0.2-2.4-24.2,1.4-27.7,2.1
				C85.1,107.7,78.9,104.2,76.8,108.1z"/>
			<path class="st5" d="M163.8,105.8c-2.5,44.1,60.8,64.1,67.5,54.3c4.3-6.3,10-39.6-1.2-59.5c-1.1-1.9-13.5,2.2-15.5,2.6
				C198,106,164.2,97.8,163.8,105.8z"/>
			<line class="st6" x1="104.1" y1="196.5" x2="104.1" y2="204.6"/>
			<line class="st6" x1="111.9" y1="200.7" x2="111.9" y2="208.7"/>
			<path class="st0" d="M181.6,107.5c0,3.6,0.7,6.1,1.9,7.7c3.6,4.7,11.7,2.1,19.8,0.7c8.8-1.5,10.7-7,12.3-10.3"/>
			<path class="st0" d="M82.9,105.5c-7.4,19.6,23.4,17.5,29,2.6"/>
			<path class="st7" d="M75,59.8c5.7,0,10.5-1.6,16-2.9c1.5-0.4,4.7-2.1,4.7-0.5c0,0.4-0.6,0.3-0.9,0.5c-4.7,2.9-8.6,7-11.3,11.9
				c-0.9,1.7-3.5,6.4-2.8,5.2c21.6-39.4,178.2-54.2,169.2,105.9c-0.1,1.4-1.8,3.8-0.5,4.3c2.8,1,7.3-1.8,10.8-0.5
				c1.6,0.6,12.9,7,14.1,6.2c2-1.4-9-7.6-8.7-10c8-53.9-30.7-110.3-48.9-126c-23.3-20-62.1-28.9-63-29.1c-0.2,0-3.8,2.2-5.7,1.9
				c-6.8-1.1-14.4-3.8-21.2-5.7c-1-0.3-7.3-5.2-7.5-4.8c-0.8,1.6-1.2,10.2-0.5,11.5c0.5,0.9,3.9-0.5,2.8-0.5
				c-8.7,0-19.8,2.9-29.2,4.8c-0.3,0.1-0.9,0.1-0.9,0.5c0,2.7,12.3,0.9,12.3,2.9c0,1.4-17,6.2-19.3,8.1c-0.7,0.6-3.5,2.7-2.8,3.3
				c2.3,2.3,7.9-0.6,10.8,1"/>
			<path class="st2" d="M94.3,55.7C87.9,60,82,68.6,78.8,75.4c-25.4,54.2,12.6,121.7,4.5,143"/>
			<path class="st2" d="M92.4,56.6c-3.1,1.6-5.2,1.6-8.4,2.5c-1.6,0.5-2.9,1.1-4.5,1.4c-1.5,0.3-3,0.4-4.5,0.8c-0.7,0.2-2,1.3-2,0.6
				c0-2.1,16.9-11.6,20.1-12.7c0.5-0.2,1.2-0.1,1.4-0.6c0.2-0.7-1.3-0.7-2-0.8c-3.2-0.8-10.8,1.7-13.4-0.3c-0.7-0.5,5-4.1,5.3-4.2
				c3.5-2,7-4.5,10.9-5.6c2.3-0.7,7,1,7-1.4c0-2.9-12.7-1.8-13.7-2.8c-0.1-0.1,0.4-0.2,0.6-0.3c2.9-1.5,6.1-2.6,9.2-3.4
				c5.8-1.4,16.1-2.8,21.8-0.8"/>
			<path class="st2" d="M121.1,30.3c-1.6-3.3-4.6-8.8-3.1-12.7c0.1-0.2,1.4-1.6,1.7-1.4c1.1,0.6,1.9,2.6,3.3,3.4
				c5.5,3,11.7,5.1,17.9,6.5c3.6,0.8,7.3,1.2,10.9,2c0.8,0.2,2.5,0.3,2.5,0.3s-4.9-4.4-3.1-5.4c0.3-0.2,14.3,5.1,15.6,5.6
				c10,3.9,20.2,6.3,29.7,11"/>
			<path class="st2" d="M180.6,33.1c70,23.5,87.1,110.2,87.1,160.3"/>
			<path class="st2" d="M275.8,180.1c0.2,1.5-0.2,3.6-0.3,5.6"/>
			<path class="st2" d="M276.1,182.5c0.3,1.9-0.1,3.7,0.2,5.5"/>
			<line class="st8" x1="237.9" y1="102.3" x2="60.3" y2="105.5"/>
			<path class="st9" d="M178.7,108.2c5.5,16.8,34.6,11.5,35.2-2.2"/>
			<path class="st9" d="M81.9,110.6c-2.4,12.1,30.4,13.1,30.4-2.2"/>
			<path class="st10" d="M123.6,120.1c-0.2-3.6,6.9-7,15.8-7.4c8.9-0.4,16.3,2.2,16.4,5.8c0.2,3.6-6.9,7-15.8,7.4
				C131.1,126.4,123.8,123.8,123.6,120.1z"/>
			<path class="st9" d="M199.6,105.5c0.3-0.2,0.6-0.4,0.9-0.6"/>
			<path class="st9" d="M139.7,127.1c0,13.6,7.6-2.4,18.1,2.9"/>
			<path class="st11" d="M98.4,107.9c0-3,2.4-5.4,5.3-5.4c2.9,0,5.3,2.4,5.3,5.4c0,3-2.4,5.4-5.3,5.4
				C100.8,113.3,98.4,110.8,98.4,107.9z"/>
			<path class="st11" d="M198.7,105.9c0-3,2.4-5.4,5.3-5.4c2.9,0,5.3,2.4,5.3,5.4c0,3-2.4,5.4-5.3,5.4
				C201.1,111.3,198.7,108.9,198.7,105.9z"/>
			<path class="st11" d="M191.4,111.8c-0.4,0-0.8-0.1-1.3-0.1"/>
			<path class="st12" d="M122,264.6l190,41.9c3.9,0.8,4.4,7.8,1,10l-96,61.3c-3.4,2.2-9.2,2.8-13,1.5L12,312.2
				c-3.8-1.3-3.9-3.7-0.2-5.2l86.4-36.6C102,268.8,118,263.8,122,264.6z"/>
			<path class="st2" d="M122,264.6l190,41.9c3.9,0.8,4.4,7.8,1,10l-96,61.3c-3.4,2.2-9.2,2.8-13,1.5L12,312.2
				c-3.8-1.3-3.9-3.7-0.2-5.2l86.4-36.6C102,268.8,118,263.8,122,264.6z"/>
			<path class="st13" d="M124.8,264.1l190,41.9c3.9,0.8,0.1,5.2-3.2,7.3l-98.1,61.7c-3.4,2.2-9.6,0.5-13.4-0.8L16.3,310.4
				c-3.8-1.3-5.6-1.2-1.9-2.7l80.5-35.1l6.2-2.7C104.8,268.3,120.9,263.3,124.8,264.1z"/>
			<path class="st13" d="M107,120.3l201.2,25.5c6.2,0.8,11.2,6.5,11.2,12.8l-4.1,153L107,265.9L96.5,130.2
				C96.1,123.9,100.8,119.5,107,120.3z"/>
			<path class="st2" d="M107,120.3l201.2,25.5c6.2,0.8,11.2,6.5,11.2,12.8l-4.1,153L107,265.9L96.5,130.2
				C96.1,123.9,100.8,119.5,107,120.3z"/>
			<path class="st14" d="M108.1,120l196.8,25.5c6.1,0.8,11,6.5,11,12.8L311.4,310l-202.7-46.2L97.8,129.8
				C97.4,123.6,102,119.2,108.1,120z"/>
			<path class="st2" d="M108.1,120l196.8,25.5c6.1,0.8,11,6.5,11,12.8L311.4,310l-202.7-46.2L97.8,129.8
				C97.4,123.6,102,119.2,108.1,120z"/>
			<polygon class="st15" points="101.2,131.2 304.1,159.3 304.2,299.2 125.7,261.9 109.5,258.5 			"/>
			<polygon class="st2" points="101.2,131.2 304.1,159.3 304.2,299.2 125.7,261.9 109.5,258.5 			"/>
			<polygon class="st14" points="105.9,272.1 293.4,314.5 243.9,344.2 59.3,291.4 			"/>
			<line class="st16" x1="66.2" y1="287.3" x2="262.8" y2="340.8"/>
			<line class="st16" x1="78" y1="282.2" x2="272.5" y2="335.1"/>
			<line class="st16" x1="87" y1="277" x2="280.7" y2="327.3"/>
			<polyline class="st16" points="98,273.5 280.1,317.4 288.8,319.5 292.3,320.4 			"/>
			<line class="st16" x1="227.4" y1="344.3" x2="281.1" y2="309.6"/>
			<line class="st16" x1="213" y1="340.4" x2="264.6" y2="306.1"/>
			<line class="st16" x1="197.2" y1="335.3" x2="250.2" y2="301.3"/>
			<line class="st16" x1="184.3" y1="330.3" x2="236" y2="298.3"/>
			<line class="st16" x1="182" y1="318.8" x2="221.4" y2="294.2"/>
			<polyline class="st16" points="168.5,314.7 192.5,300.1 206.4,291.6 			"/>
			<line class="st16" x1="155" y1="311.3" x2="189.4" y2="289"/>
			<line class="st16" x1="139" y1="307.1" x2="174.2" y2="285"/>
			<path class="st16" d="M123.6,303c0,0,36.6-21.3,37.1-20.7"/>
			<polyline class="st16" points="88.9,309.7 94.4,306.5 146.9,279.2 			"/>
			<line class="st16" x1="72.8" y1="308.1" x2="134.6" y2="275.2"/>
			<line class="st16" x1="52.8" y1="305.6" x2="121.9" y2="272.5"/>
			<path class="st2" d="M83.7,219.6c-3.3-0.9-5.6,4.2-7.8,7.3c-3,4.3,1.8,4.2-3.5,7.3c-17.8,10.5-51.3,24.4-50.6,67.8"/>
			<path class="st2" d="M84,219.2c9.1,6.1,10.9,6.9,22.1,8.3"/>
			<path class="st2" d="M75.3,232.3c7.5,5.9,13.8,8.2,23.4,10.2"/>
			<path class="st17" d="M116.6,310.9l64.8,18.6c1.3,0.4,1.4,1.2,0.2,1.8l-33.5,17.2c-1.2,0.6-3.2,0.8-4.5,0.3l-65.4-22
				c-1.3-0.4-1.3-1.2-0.1-1.7l33.8-14C113.2,310.6,115.3,310.5,116.6,310.9z"/>
			<path class="st15" d="M237.9,171.5c-0.5-0.6-0.2-1.7-0.7-2.3c-0.3-0.4-0.7-0.8-1.1-1.2c-3-2.7-1.3,4.9,1.7,4
				c1.3-0.4,3.3-3.8,6.1-3C244.8,169.3,238.7,172.6,237.9,171.5z"/>
			<path class="st15" d="M161,185.8c0.5-0.6,0.2-1.7,0.7-2.3c0.3-0.4,0.7-0.8,1.1-1.2c3-2.7,1.3,4.9-1.7,4c-1.3-0.4-3.3-3.8-6.1-3
				C154,183.6,160.2,186.9,161,185.8z"/>
			<path class="st15" d="M180.4,161.1c0.5-0.5,0.5-1.6,1-2.2c0.3-0.4,0.7-0.7,1.1-1c2.8-2.1,0,5-2.1,3.6c-0.9-0.6-1.8-4.2-4.1-3.9
				C175.4,157.8,179.5,162.1,180.4,161.1z"/>
			<path class="st18" d="M178.4,222.8L178.4,222.8c-0.2,0-0.3,0.1-0.3,0.3c0,0.2,0.1,0.3,0.3,0.3c0.2,0,0.3-0.1,0.3-0.3
				C178.7,223,178.6,222.8,178.4,222.8z"/>
			<path class="st3" d="M26.2,299.1c-2.6-10.5,7.9-28,20.9-32.4c3.5-1.2,9-3.8,12.7-3c0.6,0.1,10.1,0.5,10.1,0.1
				c0-0.2,3.1,1.6,3,1.6c-5-1.3-16.6,3.7-20.2,6.6c-5.3,4.2-7.8,13-11.5,18.5c-1,1.5,0.6,2.5,1.6,2.2
				C43.1,292.5,26.2,299.5,26.2,299.1z"/>
			<path class="st13" d="M42,290.5c-0.5-5.8,4.7-11.8,8.8-15.7c2.9-2.7,18.4-13.1,22.1-10.7c4.7,3,10.5,5.1,15.2,8.6
				c3.5,2.7,7.9,5.1,9.2,9.6c2,7.1,5,15,8.4,21.5c0.4,0.7,2.6,5.8,1,6c-1.7,0.2-4.5-3.8-5.6-4.7c-2.8-2.6-15.1-15.1-19.4-12.5
				c-5.3,3.2-12.3,8.3-18.7,8.9c-3.2,0.3-18.1-5.9-20.2-8.5C42.2,292.4,42.1,291.6,42,290.5z"/>
			<path class="st2" d="M25.6,300.8c-1-3.6,0.4-11,1.6-14.3c6.1-16.3,24-25.2,40.6-23.2c5.5,0.7,10.9,2.6,15.6,5.8
				c9.1,6.2,23.4,27.1,23.2,39.9c0,0.5,0.6,1.3-2.9-1.6c-4.7-3.9-14-11.9-16.6-13.7c-5.8-4.1-15.1,7.2-22.5,7.2
				c-7.4,0-18.1-2.9-23.6-7.2"/>
			<path class="st2" d="M40.6,294.7c8.4-23.6,16.7-26.1,31.7-30.3"/>
			<path class="st2" d="M53.9,272.5c2.8-0.8,36.1,21.7,52.1,36.9"/>
			<path class="st2" d="M47.1,281.9c8.3,6.9,17.7,12.4,28.2,14.2"/>
			<path class="st7" d="M35.5,298.1c-1.2,0.8,14,9.4,18.1,10.4c11.9,3,21.9-5.1,33.3-2c2.2,0.6,20.1,6.3,21.3,4.4
				c0.8-1.2-5.5-3.9-6.3-4.7c-4.3-4.2-11-11.5-17.1-13.4c-7-2.2-12.6,7.9-19.6,8c-3.6,0.1-7.3,0.3-10.8-0.6c-4.5-1.1-8.4-5.2-13-5.7
				C39.8,294.3,37.1,297,35.5,298.1z"/>
			<path class="st7" d="M104.1,233.3c-1.4,8.1,1.5,30.6-14.1,40.2c1.9,0.3,4.5-2.1,6.1-3c3.5-2,8.3-2.1,11.4-4.5
				c0.2-0.1,0.4-0.3,0.4-0.6c0.6-4.5-2-12.2-2.5-16.8c-0.3-3-1.3-6.6-0.9-9.6C104.7,237.1,104.4,231.5,104.1,233.3z"/>
			<line class="st19" x1="88" y1="223.2" x2="84.2" y2="230.2"/>
			<line class="st19" x1="92.9" y1="225.7" x2="89.1" y2="232.6"/>
			<line class="st20" x1="100.6" y1="63.9" x2="100.7" y2="71.2"/>
			<line class="st20" x1="107.1" y1="66.3" x2="107.1" y2="73.7"/>
			<line class="st20" x1="93" y1="205.5" x2="93.1" y2="212.9"/>
		</g>
	</g>
	<g>
		<g>
			<path class="st15" d="M282,283.2c-53-10.5-105.8-21.6-158.6-32.5c-3.4-34.5-5.7-69-7.8-103.6c56,7.2,112,14.9,168.1,21.8
				C283.4,207,282.2,245.1,282,283.2z"/>
			<g>
				<g>
					<path id="path4487_00000044148530310158081660000000212217764507710119_" class="st21" d="M170.6,188.1c0.1-4.7,4.1-8,8.6-7.5
						c2.5,0.3,4.2,1.6,5.5,3.1c-0.7,0.6-1,0.9-1.6,1.5c-0.9-1.1-2.2-2-4-2.2c-3.3-0.4-6,2-6.1,5.4s2.4,6.6,5.6,7.1
						c2.1,0.3,3.3-0.4,4.1-1.1c0.7-0.6,1.1-1.5,1.3-2.8c-2.1-0.3-3.2-0.4-5.3-0.8c0-0.9,0-1.4,0.1-2.4c3,0.4,4.5,0.6,7.4,1
						c0.1,0.4,0.1,0.9,0.1,1.5c-0.1,1.8-0.6,3.9-2.1,5.3c-1.5,1.4-3.3,2-5.7,1.6C174.2,197.2,170.5,192.8,170.6,188.1L170.6,188.1z"
						/>
					<path id="path4489_00000124143786992856417090000011170771738718832054_" class="st22" d="M192.5,188.6
						c-2.8-0.4-5.3,1.6-5.4,4.9c-0.1,3.3,2.1,6,4.9,6.4c2.8,0.4,5.2-1.7,5.4-4.9C197.6,191.7,195.4,189,192.5,188.6z M192.1,197.7
						c-1.5-0.2-2.8-1.8-2.7-3.9c0.1-2,1.5-3.2,3.1-3c1.5,0.2,2.8,1.8,2.7,3.8C195.1,196.7,193.6,197.9,192.1,197.7z"/>
					<path id="path4491_00000053532904519642612590000004747887696744323733_" class="st23" d="M203.7,190.2c-2.8-0.4-5.2,1.7-5.4,5
						c-0.2,3.3,2,6.1,4.8,6.5c2.8,0.4,5.2-1.7,5.4-5C208.7,193.3,206.5,190.5,203.7,190.2z M203.2,199.4c-1.5-0.2-2.8-1.9-2.7-3.9
						c0.1-2.1,1.5-3.3,3.1-3.1c1.5,0.2,2.8,1.8,2.7,3.9C206.1,198.3,204.7,199.6,203.2,199.4z"/>
					<path id="path4493_00000023996989368347228990000015437687725046681012_" class="st21" d="M217.3,192.4c0,0.4,0,0.6-0.1,0.9
						c0,0,0,0-0.1,0c-0.5-0.8-1.4-1.5-2.6-1.7c-2.5-0.3-5,1.8-5.2,5.1c-0.2,3.2,2,6.1,4.5,6.5c1.2,0.2,2.2-0.3,2.7-0.9
						c0,0,0,0,0.1,0c0,0.3,0,0.5-0.1,0.9c-0.1,2.2-1.2,3.3-2.9,3c-1.4-0.2-2.1-1.5-2.4-2.5c-0.8,0.3-1.2,0.4-2,0.6
						c0.5,1.6,1.8,3.8,4.3,4.2c2.6,0.4,4.9-1,5.2-5.4c0.3-4.2,0.4-6.4,0.6-10.5C218.6,192.5,218.1,192.5,217.3,192.4z M214.2,201
						c-1.5-0.2-2.7-1.9-2.6-3.9c0.1-2,1.5-3.3,3-3.1c1.5,0.2,2.6,1.9,2.5,3.9C217,199.9,215.7,201.2,214.2,201z"/>
					<path id="path4495_00000109029712759450649000000017120912435764963225_" class="st24" d="M221.3,186.8
						c0.9,0.1,1.3,0.2,2.2,0.3c-0.4,6.7-0.6,10.2-1,17.2c-0.9-0.1-1.3-0.2-2.2-0.3C220.7,196.9,220.9,193.5,221.3,186.8z"/>
					<path id="path4497_00000032634358690829941770000016587611784048344508_" class="st22" d="M228.7,203.2
						c-1.1-0.2-1.9-0.9-2.4-2.2c2.8-0.9,4.2-1.4,7-2.3c-0.1-0.3-0.1-0.4-0.2-0.7c-0.3-1.4-1.5-4-4.1-4.4c-2.6-0.4-4.9,1.7-5.2,5.2
						c-0.2,3.3,1.8,6.3,4.7,6.7c2.3,0.4,3.8-1.1,4.4-2c-0.7-0.7-1-1-1.7-1.6C230.7,202.8,229.9,203.3,228.7,203.2L228.7,203.2z
						 M229,195.9c0.9,0.1,1.6,0.7,1.8,1.5c-1.9,0.6-2.8,0.9-4.7,1.5C226.2,196.7,227.9,195.7,229,195.9z"/>
				</g>
				<path class="st25" d="M243.6,232.3c-28.6-5.3-57.1-10.7-85.7-16c-2.6-0.5-4.8-3.1-4.9-5.8c0-0.3,0-0.5,0-0.8
					c0-2.7,2.2-4.6,4.9-4.1c28.8,4.9,57.5,9.8,86.3,14.6c2.7,0.4,4.7,3.4,4.6,6.5c0,0.3,0,0.5,0,0.9
					C248.6,230.7,246.3,232.8,243.6,232.3z"/>
				<g>
					<g>
						<path class="st26" d="M210.1,243.3c-8.2-1.7-12.2-2.5-20.3-4.2c-1.9-0.4-3.5-2.5-3.4-4.7c0-0.2,0-0.4,0-0.6
							c0.1-2.2,1.7-3.7,3.7-3.3c8.2,1.6,12.2,2.4,20.4,4.1c2,0.4,3.5,2.6,3.3,4.9c0,0.3,0,0.4,0,0.6
							C213.7,242.2,212,243.7,210.1,243.3z"/>
						<path class="st27" d="M210.1,243.3c-8.2-1.7-12.2-2.5-20.3-4.2c-1.9-0.4-3.5-2.5-3.4-4.7c0-0.2,0-0.4,0-0.6
							c0.1-2.2,1.7-3.7,3.7-3.3c8.2,1.6,12.2,2.4,20.4,4.1c2,0.4,3.5,2.6,3.3,4.9c0,0.3,0,0.4,0,0.6
							C213.7,242.2,212,243.7,210.1,243.3z"/>
					</g>
					<g>
						<path d="M195.1,234c-0.1,1.4-0.1,2.1-0.1,3.5c-0.2,0-0.2,0-0.4-0.1c0.1-1.2,0.1-1.9,0.1-3.1c-0.6-0.1-0.8-0.2-1.4-0.3
							c-0.1,1.2-0.1,1.9-0.1,3.1c-0.2,0-0.2,0-0.4-0.1c0.1-1.4,0.1-2.1,0.1-3.5C193.8,233.7,194.2,233.8,195.1,234z"/>
						<path d="M197.7,236.8c0,0.9-0.6,1.2-1.1,1.1c-0.6-0.1-1-0.7-1-1.5c0-0.8,0.5-1.2,1.1-1.1C197.3,235.4,197.7,236,197.7,236.8z
							 M195.9,236.4c0,0.6,0.2,1,0.6,1.1c0.4,0.1,0.7-0.3,0.7-0.8c0-0.4-0.1-1-0.6-1.1C196.2,235.5,196,236,195.9,236.4z"/>
						<path d="M198.6,235.7c0,0.4,0,0.6,0,1.1c0,0.4,0,0.6-0.1,1c0,0,0,0,0,0c0.1-0.3,0.2-0.4,0.4-0.7c0.3-0.5,0.4-0.7,0.7-1.2
							c0.2,0,0.3,0.1,0.5,0.1c0,1-0.1,1.5-0.1,2.5c-0.2,0-0.2,0-0.4-0.1c0-0.4,0-0.6,0-1.1c0-0.4,0-0.6,0.1-1c0,0,0,0,0,0
							c-0.2,0.3-0.3,0.5-0.4,0.7c-0.2,0.3-0.5,0.8-0.7,1.2c-0.2,0-0.3-0.1-0.5-0.1c0-1,0.1-1.5,0.1-2.5
							C198.4,235.7,198.4,235.7,198.6,235.7z"/>
						<path d="M202.2,238.9c-0.1,0-0.3,0.1-0.6,0c-0.7-0.1-1.1-0.7-1-1.5c0-0.8,0.5-1.2,1.2-1.1c0.2,0,0.4,0.2,0.5,0.2
							c0,0.1-0.1,0.2-0.1,0.3c-0.1-0.1-0.2-0.2-0.5-0.2c-0.5-0.1-0.8,0.3-0.8,0.8c0,0.6,0.3,1,0.7,1.1c0.2,0,0.4,0,0.5,0
							C202.1,238.7,202.1,238.7,202.2,238.9z"/>
						<path d="M203.1,236.6c0,0.4,0,0.7-0.1,1.1c0,0,0.1,0,0.1,0c0.3-0.4,0.5-0.6,0.9-0.9c0.2,0,0.3,0.1,0.5,0.1
							c-0.4,0.4-0.6,0.6-1,1c0.4,0.1,0.6,0.4,0.7,0.9c0.1,0.2,0.1,0.4,0.2,0.7c-0.2,0-0.2-0.1-0.4-0.1c-0.1-0.1-0.1-0.3-0.2-0.6
							c-0.1-0.4-0.3-0.7-0.7-0.7c0,0,0,0-0.1,0c0,0.4,0,0.7-0.1,1.1c-0.2,0-0.2,0-0.4-0.1c0-1,0.1-1.5,0.1-2.5
							C202.9,236.6,203,236.6,203.1,236.6z"/>
					</g>
				</g>
			</g>
		</g>
	</g>
	<g>
		<path d="M224,12.9c1.9,0.1,3.7,0.9,5.3,2.2c0.9,0.8,1.6,1.7,2.1,2.8c0.5,1.1,0.8,2.2,0.9,3.4s0,2.3-0.4,3.5
			c-0.4,1.2-1,2.2-1.8,3.1l-5.6,6.4c-0.3,0.4-0.8,0.6-1.2,0.6s-0.9-0.1-1.3-0.4c-0.4-0.3-0.6-0.8-0.6-1.2c0-0.5,0.1-0.9,0.5-1.3
			l5.6-6.4c0.5-0.6,0.8-1.2,1.1-1.9s0.3-1.4,0.3-2.1c0-0.7-0.2-1.4-0.5-2c-0.3-0.7-0.7-1.2-1.3-1.7c-0.6-0.5-1.2-0.9-1.9-1.1
			c-0.7-0.2-1.4-0.3-2.1-0.3c-0.7,0-1.4,0.2-2,0.5c-0.6,0.3-1.2,0.7-1.7,1.3l-5.6,6.4c-0.3,0.4-0.8,0.6-1.2,0.6
			c-0.5,0-0.9-0.1-1.3-0.4c-0.4-0.3-0.6-0.8-0.6-1.2s0.1-0.9,0.5-1.3l10.4-11.9c0.3-0.4,0.7-0.6,1.2-0.6s0.9,0.1,1.3,0.4
			c0.4,0.3,0.6,0.7,0.6,1.2C224.5,12.1,224.3,12.6,224,12.9z"/>
		<path d="M245.3,44.7c-2,1.9-4.3,2.7-6.9,2.7c-2.7-0.1-5-1.1-6.8-3c-1.8-1.9-2.7-4.3-2.7-6.9c0.1-2.7,1.1-4.9,3-6.8
			c1.9-1.8,4.3-2.7,6.9-2.7c2.7,0.1,4.9,1.1,6.8,3c1.8,1.9,2.7,4.2,2.7,6.9c0,1.3-0.3,2.6-0.8,3.7S246.3,43.7,245.3,44.7z
			 M243.1,33.4c-0.6-0.6-1.3-1.1-2-1.4c-0.7-0.3-1.5-0.5-2.3-0.5c-0.8,0-1.5,0.1-2.3,0.4c-0.8,0.3-1.4,0.7-2,1.3
			c-0.6,0.6-1.1,1.2-1.4,2c-0.3,0.7-0.5,1.5-0.5,2.3s0.1,1.5,0.4,2.3c0.3,0.8,0.7,1.5,1.3,2.1c0.6,0.6,1.2,1.1,2,1.4
			c0.7,0.3,1.5,0.5,2.3,0.5c0.8,0,1.5-0.1,2.3-0.4c0.8-0.3,1.4-0.7,2-1.3s1.1-1.2,1.4-2c0.3-0.7,0.5-1.5,0.5-2.3
			c0-0.8-0.1-1.6-0.4-2.3S243.6,34,243.1,33.4z"/>
		<path d="M243.2,54.8c-0.2,0.2-0.4,0.3-0.6,0.3c-0.2,0.1-0.5,0.1-0.7,0.1s-0.5-0.1-0.7-0.2c-0.2-0.1-0.4-0.3-0.6-0.5
			c-0.2-0.2-0.3-0.4-0.3-0.6c-0.1-0.2-0.1-0.5,0-0.7c0-0.2,0.1-0.5,0.2-0.7c0.1-0.2,0.3-0.4,0.5-0.5l9.3-7.4c0.6-0.5,1.3-0.8,2-1
			c0.7-0.2,1.5-0.3,2.2-0.2c0.7,0.1,1.4,0.3,2.1,0.7c0.7,0.4,1.3,0.9,1.7,1.5l3.3,4.1c0.2,0.2,0.3,0.4,0.3,0.6
			c0.1,0.2,0.1,0.5,0.1,0.7c0,0.2-0.1,0.5-0.2,0.7c-0.1,0.2-0.3,0.4-0.5,0.5c-0.2,0.2-0.4,0.3-0.6,0.3c-0.2,0.1-0.5,0.1-0.7,0.1
			c-0.2,0-0.5-0.1-0.7-0.2c-0.2-0.1-0.4-0.3-0.5-0.5l-3.3-4.1c-0.2-0.2-0.4-0.4-0.7-0.6s-0.5-0.2-0.8-0.2c-0.3,0-0.5,0-0.8,0.1
			s-0.5,0.2-0.7,0.4L243.2,54.8z"/>
		<path d="M253.8,69l9.1-13.5c0.2-0.2,0.4-0.4,0.6-0.6c0.2-0.1,0.4-0.2,0.7-0.3c0.2,0,0.5,0,0.7,0s0.4,0.1,0.6,0.3
			c0.2,0.1,0.4,0.3,0.5,0.5c0.2,0.3,0.3,0.6,0.3,1c0,0.4-0.1,0.7-0.4,1.1l-7,10.5l12.4-2.4c0.4-0.1,0.7-0.1,1,0
			c0.3,0.1,0.6,0.3,0.9,0.7c0.1,0.2,0.2,0.4,0.3,0.7s0,0.5,0,0.7c-0.1,0.2-0.1,0.4-0.3,0.6c-0.1,0.2-0.3,0.4-0.5,0.5
			c-0.2,0.1-0.5,0.2-0.8,0.3l-25.5,4.9c-0.4,0.1-0.8,0-1.1-0.1c-0.4-0.1-0.6-0.4-0.8-0.7c-0.3-0.4-0.4-0.9-0.3-1.4
			c0.1-0.5,0.4-0.9,0.8-1.1c0.2-0.2,0.5-0.3,0.8-0.3L253.8,69z"/>
		<path d="M262.3,82.7c-0.2,0.1-0.4,0.2-0.7,0.2s-0.5,0-0.7-0.1s-0.4-0.2-0.6-0.3c-0.2-0.1-0.3-0.3-0.5-0.6s-0.2-0.5-0.2-0.7
			s0-0.5,0.1-0.7c0.1-0.2,0.2-0.4,0.3-0.6c0.1-0.2,0.3-0.3,0.5-0.5l10.5-5.6c0.7-0.4,1.4-0.6,2.2-0.7c0.8-0.1,1.5,0,2.2,0.2
			c0.7,0.2,1.4,0.6,2,1c0.6,0.5,1.1,1.1,1.5,1.7l2.5,4.6c0.1,0.2,0.2,0.4,0.2,0.7s0,0.5-0.1,0.7c-0.1,0.2-0.2,0.4-0.3,0.6
			c-0.2,0.2-0.3,0.3-0.5,0.5c-0.2,0.1-0.5,0.2-0.7,0.2c-0.2,0-0.5,0-0.7-0.1c-0.2-0.1-0.4-0.2-0.6-0.3c-0.2-0.1-0.3-0.3-0.5-0.5
			l-2.5-4.6c-0.1-0.3-0.3-0.5-0.6-0.7c-0.2-0.2-0.5-0.3-0.8-0.4c-0.3-0.1-0.5-0.1-0.8-0.1c-0.3,0-0.5,0.1-0.8,0.2L262.3,82.7z"/>
		<path d="M287.1,96.1L275.3,109c-0.2,0.2-0.4,0.3-0.6,0.4c-0.2,0.1-0.5,0.1-0.7,0.1c-0.2,0-0.5-0.1-0.7-0.1
			c-0.2-0.1-0.4-0.2-0.6-0.4c-0.2-0.2-0.3-0.4-0.4-0.6c-0.3-0.7-0.2-1.3,0.2-1.8l9.2-10l-13.6-0.5c-0.3,0-0.6-0.2-0.9-0.4
			s-0.4-0.5-0.6-0.7c-0.1-0.2-0.1-0.5-0.1-0.7c0-0.2,0-0.5,0.1-0.7c0.1-0.2,0.2-0.4,0.4-0.6c0.2-0.2,0.4-0.3,0.6-0.4
			c0.2-0.1,0.5-0.1,0.7-0.2l17.5,0.6c0.7,0,1.2,0.4,1.5,1.1C287.7,94.9,287.6,95.5,287.1,96.1z"/>
		<path d="M278.2,127.6c-0.1-0.5-0.1-1,0.1-1.4c0.2-0.4,0.6-0.7,1.1-0.8c-0.8-0.6-1.5-1.3-2-2.1c-0.5-0.8-0.9-1.7-1.2-2.7
			c-0.3-1.2-0.4-2.4-0.3-3.6c0.2-1.2,0.5-2.3,1.1-3.3c0.6-1,1.3-1.9,2.2-2.7c0.9-0.8,2-1.3,3.2-1.7l8.2-2.4c0.5-0.1,0.9-0.1,1.4,0.2
			s0.7,0.6,0.9,1.1c0.1,0.5,0.1,0.9-0.2,1.4s-0.6,0.7-1.1,0.9l-8.2,2.4c-0.7,0.2-1.4,0.5-1.9,1c-0.6,0.5-1,1-1.3,1.6
			c-0.3,0.6-0.6,1.3-0.6,2c-0.1,0.7,0,1.4,0.2,2.2c0.2,0.7,0.5,1.3,1,1.9s1,1,1.6,1.3c0.6,0.3,1.3,0.6,2,0.7c0.7,0.1,1.4,0,2.1-0.2
			l8.2-2.4c0.5-0.1,0.9-0.1,1.4,0.2s0.7,0.6,0.9,1.1c0.1,0.5,0.1,0.9-0.2,1.4s-0.6,0.7-1.1,0.9l-15.2,4.4c-0.5,0.1-0.9,0.1-1.4-0.2
			C278.6,128.5,278.3,128.1,278.2,127.6z"/>
	</g>
</g>
</svg>
