<?xml version="1.0" encoding="utf-8"?>
<!-- Generator: Adobe Illustrator 26.0.3, SVG Export Plug-In . SVG Version: 6.00 Build 0)  -->
<!DOCTYPE svg PUBLIC "-//W3C//DTD SVG 1.1//EN" "http://www.w3.org/Graphics/SVG/1.1/DTD/svg11.dtd" [
	<!ENTITY ns_extend "http://ns.adobe.com/Extensibility/1.0/">
	<!ENTITY ns_ai "http://ns.adobe.com/AdobeIllustrator/10.0/">
	<!ENTITY ns_graphs "http://ns.adobe.com/Graphs/1.0/">
	<!ENTITY ns_vars "http://ns.adobe.com/Variables/1.0/">
	<!ENTITY ns_imrep "http://ns.adobe.com/ImageReplacement/1.0/">
	<!ENTITY ns_sfw "http://ns.adobe.com/SaveForWeb/1.0/">
	<!ENTITY ns_custom "http://ns.adobe.com/GenericCustomNamespace/1.0/">
	<!ENTITY ns_adobe_xpath "http://ns.adobe.com/XPath/1.0/">
]>
<svg version="1.1" id="Слой_1" xmlns:x="&ns_extend;" xmlns:i="&ns_ai;" xmlns:graph="&ns_graphs;"
	 xmlns="http://www.w3.org/2000/svg" xmlns:xlink="http://www.w3.org/1999/xlink" x="0px" y="0px" width="390.2px" height="337.1px"
	 viewBox="0 0 390.2 337.1" style="enable-background:new 0 0 390.2 337.1;" xml:space="preserve">
<style type="text/css">
	.st0{fill:#FFFFFF;}
	.st1{fill:#FFDB1F;}
	.st2{fill:#CAA77A;}
	.st3{fill:#D2D2D2;}
	.st4{fill:#FFDBAF;}
	.st5{fill:#9D7B51;}
	.st6{fill:#2D1F04;}
	.st7{fill:#A6A6A6;}
	.st8{fill:none;stroke:#2D1F04;stroke-width:2.62;stroke-linecap:round;stroke-linejoin:round;stroke-miterlimit:10;}
	.st9{fill:none;stroke:#2D1F04;stroke-width:7.6;stroke-linecap:round;stroke-linejoin:round;stroke-miterlimit:10;}
	.st10{fill:none;stroke:#2D1F04;stroke-width:3.05;stroke-linecap:round;stroke-linejoin:round;stroke-miterlimit:10;}
	.st11{fill:#251707;}
	.st12{fill:none;stroke:#2D1F04;stroke-width:2.37;stroke-linecap:round;stroke-linejoin:round;stroke-miterlimit:10;}
	.st13{fill:none;stroke:#9D7B51;stroke-width:3.87;stroke-linecap:round;stroke-linejoin:round;stroke-miterlimit:10;}
	.st14{opacity:0.23;fill:#3F2719;}
</style>
<metadata>
	<sfw  xmlns="&ns_sfw;">
		<slices></slices>
		<sliceSourceBounds  bottomLeftOrigin="true" height="337.1" width="390.2" x="799.2" y="-362.6"></sliceSourceBounds>
	</sfw>
</metadata>
<g>
	<path class="st0" d="M365.7,142.1l-89.2,0.5c-0.4-1.8-1-3.8-1.7-5.8c0.6,0.1,1.2,0.2,1.9,0.2c1.5,0,2.9-0.3,4.3-0.9
		c0.7-0.3,1.3-0.7,1.9-1.1l0.2,0.1c0.1,0.1,0.3,0.1,0.4,0.2c1.9,0.7,3.9,1.1,5.9,1.1c0,0,0,0,0,0c2.1,0,4.2-0.4,6.2-1.3
		c2-0.9,3.8-2.1,5.2-3.7c1.4-1.5,2.5-3.2,3.2-5c0.7-1.9,1.1-3.8,1.2-5.8c0-2.2-0.4-4.3-1.3-6.3c-0.9-2-2.1-3.8-3.6-5.2
		c-0.7-0.7-1.5-1.3-2.3-1.8c0.7-2.5,0.5-5.1-0.6-7.4c-1.1-2.3-2.9-4.1-5.2-5.1c-0.2-0.6-0.4-1.3-0.8-1.9c-1.3-2.6-3.6-4.4-6.3-5.3
		c-1.1-0.3-2.2-0.5-3.3-0.5c-0.7,0-1.4,0.1-2.1,0.2c0.3-3.5-0.5-6.9-2.4-10c-0.5-0.8-1.1-1.6-1.7-2.3c0.3-0.7,0.6-1.5,0.7-2.2
		c0.5-2.8,0-5.7-1.6-8.1c-1.6-2.4-4-4-6.9-4.5c-0.7-0.1-1.4-0.2-2.1-0.2c-0.3,0-0.6,0-0.9,0c1.1-1.5,1.8-3.2,2-5.1
		c0.3-2.8-0.5-5.5-2.2-7.7c-1.7-2.2-4.2-3.6-7-3.9c-0.4,0-0.8-0.1-1.2-0.1c-1.5,0-2.9,0.3-4.2,0.9c-0.7-1.5-1.7-2.9-2.9-4.2
		c-2.4-2.7-5.5-4.4-8.9-5.1c-0.3-1.1-0.6-2.3-1.1-3.4c-0.4-0.8-0.8-1.5-1.2-2.2c0.7-1.5,1-3.2,0.9-5c-0.2-2.8-1.4-5.4-3.5-7.2
		c-1.9-1.7-4.4-2.7-7-2.7c-0.2,0-0.4,0-0.6,0c-1.8,0.1-3.6,0.7-5.1,1.6c-0.6-0.3-1.3-0.5-2-0.6c-0.7-1.2-1.7-2.3-3-3.2
		c-1.2-0.9-2.6-1.5-4.1-1.7c-0.8-1.3-1.8-2.4-3-3.2c-1.2-0.8-2.4-1.4-3.8-1.7c-0.7-0.2-1.5-0.2-2.2-0.2c-0.7,0-1.3,0.1-2,0.2
		c-1.3,0.2-2.5,0.7-3.6,1.4c-1.2,0.7-2.2,1.7-3,2.8c-0.6,0.9-1.1,1.9-1.5,3c0,0-4,13.3-4,13.3c-0.2,0.8-0.4,1.6-0.4,2.4
		c-11.1-5.7-23-9.9-34.9-11.5c-0.5-0.1-1-0.2-1.5-0.3c-6.4-0.8-12.7-0.9-18.2-0.9l-5.1,0c-2.8,0-6.2,0-9.4-0.2
		c-6.3-0.3-10.9-0.5-14-0.5c-3.7,0-7.5,0-10.6,3.1c-1.1,1-1.9,2.3-2.4,3.6c-1.8,0.2-3.6,0.3-5.5,0.3c-5.2,0-9.5-0.8-12.7-2.3
		c-1.4-0.7-2.9-1-4.5-1c-3.3,0-6.5,1.6-8.4,4.3c-2.3,3.2-2.1,7.6-1.1,11.5c-8.7,3.8-18.6,9.4-21.5,12.1l-0.1,0.1
		c-0.9,0.9-4.3,4.7-3.4,9.9c0.1,0.7,0.3,1.5,0.6,2.1c-3.1,3.7-4.8,7.2-5.2,10.7c-0.3,2.5,0.2,5,1.6,7c-1.4,2.6-2.3,5.2-2.9,8
		c-0.9,4.4,1.3,9,5.2,11.1c0.4,0.2,1.4,0.8,2.9,1.1c-1.9,7.7-2.9,15.6-2.8,23.4c-2.3,1.2-4.1,3.1-5.3,5.4c-1.6,3-1.8,6.5-0.8,9.8
		c1.4,4.4,5.1,7.7,9.5,8.6c4.1,15,11.1,27.3,16.4,36.7c1.5,2.6,3.3,5.8,4.6,8.5c-14.6,4.6-28.2,13.6-37,24.7c-2.4,3-3.6,6.5-3.4,9.8
		C9.9,235-9.4,259.6,5.3,281.7c9.4,14.2,28,15.8,41.1,15.8c11.2,0,23.4-1.3,36.4-2.8c3.1-0.3,6.6-0.7,10.1-1.1
		c0.6,0.5,1.2,1,1.9,1.5c2.6,2.4,5.7,5,9.9,8.1c36.2,29.5,39.9,30.5,42.6,31.1c3.4,0.9,10.3,1.6,14.3,1.8c2.1,0.6,4.4,0.9,6.6,0.9h0
		c0.1,0,0.2,0,0.3,0l52.2-1.9c0.4,0,0.7,0,1.1,0c1.1,0,2-0.1,2.8-0.2l135.4-4.9c6.4,0,12.4-2.5,17-6.9c4.6-4.5,7.2-10.4,7.3-16.8
		l5.9-140.1c0-0.1,0-0.3,0-0.4C390.2,152.8,379.2,142.1,365.7,142.1z"/>
	<g>
		<g>
			<g>
				<g>
					<path class="st1" d="M154,276.7c1.3-4.7-9.9-14.6-13.8-17.9c-13.7-11.8-31.1-18.4-48.5-22.1c-3.8-0.8-9.7,3.6-16.6,11.6
						c-6.8,8-11.6-1.5-20.1-2.8c-5.2-0.7-19-11.3-21.2-15.8c-1.3-2.6-3.4-5-2.1-8.2c1.6-4,2.8-5.7,5.6-8.5c4.8-4.8,9-5.8,15-8.8
						c10.5-5.3,28.2-12.5,40.3-7.9c6.5,2.4,13.2,4,18.8,8.2c1.5,1.1,4.5,6.1,6.4,6.1c9,0,18.8-1,27.6-2.4c2.9-0.5,6.5-1.4,9.1-2.7
						c1.1-0.6,2.2-1,3.3-1.5c0.4-0.2,0.8-1.3,0.9-0.9c0.7,2-0.2,13.7-0.6,16.4c-0.5,3.2-0.2,11.7-0.6,14.9
						c-1.2,8.6-0.9,14.3-0.9,23.1c0,5.5-1.5,7-1.5,12.4c0,1.8-0.3,3.2-0.6,4.9C154.4,274.9,153.8,277.4,154,276.7z"/>
					<path class="st2" d="M257.3,152.9c11-1,9.8,0.3,10.7-3.7c1.4-6.9-6.8-22.1-9.3-28.7c-3.6-9.7-12.5-21.8-17.4-31
						c-3.2-6.1-8.9-13.4-12.6-19.1c-2.5-3.9-7.2-7.5-10.3-10.9c-4-4.3-10.5-7.2-17.5-12.7c-7-5.5-35.7-17.8-42.8-19.7
						c-7-1.9-23.9-1.8-32.3-1.9c-8.4,0-16.2-0.9-19.6-0.3c-5.4,0.9,3.4,2.7,0.3,4.5c-2.6,1.5-4.9,2-7.6,1.6c-6.9-1-14.5,0-21.5,0
						c-0.7,0-6.6-0.3-6.6-0.7c0-1,2,0.6,2.6,1.3c0.9,1.1,3.9,7.8,2.7,8.2c-0.7,0.2-6,1-8.3,1.4c-3.9,0.7-5.9,4.6-9.3,5.3
						c-1.7,0.3-7.1,3.6-7.9,5.3c-0.1,0.2-0.5,0.5-0.3,0.7c0.2,0.2,0.7,0.1,1,0c0.8-0.2,14.4-2,10.9-0.3c-5.7,2.8-7.3,5.8-10.6,8.3
						c-2,1.5-6.8,5.3-8.3,7.2c-0.2,0.2,0.1,2.7,0.3,2.7c0.9,0.3,11.5-5.1,12.9-5.6c0.5-0.2-2,2.1-1.8,2.6c0.4,0.7,2-0.7,1.8-0.6
						c-2.6,1.3-7.4,5.1-8.9,7.6c-1.3,2.1-5.4,7.7-6.2,9.4c-0.7,1.7,2.5-0.2,3.2-0.2c1.4,0,10-6.4,11.6-7.6c0.7-0.5,3.3-3.9,4.6-3
						c0.2,0.1-7.6,12.2-8.9,15.6c-3.4,8.8-3.9,16.3-5.2,25.1c-1.1,7.8,0.5,18.6,2.5,26.1c2.5,9.5,8.4,20,12.8,28.8
						c2.7,5.4,6.3,9.9,8.5,15.4c0.8,1.9,2.7,6.3,2.7,11.3c7.7-1.8,19.2,0,23.8,1.5c4.3,1.4,12.2,5.9,19.3,11.6
						c9.4,1.9,36.7,0.2,42.8-7.9c2.2-3,0.7-8,0.3-11.2c-0.7-5.5,0.9-10.6,1.7-15.9c0.7-5.1-0.1-9.8,2.3-14.6c1.2-2.5,3-4.4,6.1-5
						c9.2-1.8,20.4-3.3,29.6-2.6c6.1,0.5,12.7,0.7,18.9,0.7c2.3,0,5.4-0.5,7.6,0c2.6,0.6,6.6-1,9.1-0.1c4,1.3,6.2,1.6,10.1,1.1
						c3.3-0.4,6.5,0.8,9.6,0.3c0.6-0.1,12.3-1.6,12.7-1.5C267.4,152.1,246.3,153.9,257.3,152.9z"/>
					<path class="st2" d="M140.7,259.8c-2.5,0.3-3.6,2.2-5.3,3.6c-0.9,0.7-2.2,0.8-3,1.7c-2.1,2.3-4.2,6.4-5,9.5
						c-0.2,0.7-1.3,6.8-1.4,6.9c-1.2,0.8-4.4-0.3-5.8-0.1c-6.9,0.9-14.2-0.4-21.2,0.3c-9.6,0.9-18.5,3.4-27.8,3.1
						c-5.5-0.2-11.4,1.1-17,1.4c-4,0.2-19.4,0.3-27.7-2.4c-9.4-3.1-13.6-6.3-15.9-16.4c-0.4-1.6-0.4-4.6-0.4-6.4
						c0.1-4.2,2.4-10,4.9-13.3c1.5-1.9,1.6-4.5,3.4-6.4c2.2-2.3,4.7-4.6,6.7-7.1c1.7-2.2,5.7-8.1,8.8-7.9c2.6,0.2,19.9-3.3,40.2,9.7
						c6.8,4.4,1.8-0.2,6.6-0.3c3.3-0.1,6.6-0.1,9.9,0.5c19.8,3.7,30.8,9.3,39.9,14.8c1.3,0.8,12.9,7,9.8,10c-1,1-3.8,1.2-5.2,1.8"/>
					<path class="st3" d="M370.2,153.2c12.5,0,9.7,27.5,9.1,35.5c-0.5,6.9-1.3,13.8-2.1,20.6c-0.4,3.1,0.4,6.3,0,9.4
						c-1.5,10.7,1.2,20.7-0.6,31.3c-1.8,10.6-0.1,22.4-1.9,33c-1.1,6.5-0.3,13.4-0.3,20c0,3-2.5,8.6-4.8,10.9
						c-6.1,6.1-7.9,3.8-15.5,4.9c-10.9,1.6-23.5,2.3-34.6,1.2c-3.9-0.4-8.2-0.9-12.1-0.6c-2.8,0.2-5.8,1.1-8.5,1.5
						c-6.3,0.9-12.8,0.6-19.1,1.5c-3.5,0.5-7.3-0.6-10.8-0.1c-7.2,0.9-15,0.6-22.2,0.6c-6.9,0-12.9,2-19.8,2c-2.2,0-4.7,0.8-7,0.3
						c-5.5-1.1-11.5-1-17-2.1c-1.1-0.2,0.8,4.3-4.8,2.2c-5.5-2.1-6.1,0.1-8.3,0.1c-4.7,0-7.5-0.1-12.3,0.6c-2.3,0.3-3.1,1.3-7.6,0.4
						c-4.5-0.9-4.1-2-7.5-1.3c-3.9,0.8-4.4-1.1-9-2c-6.1-1.2-12.5-4-17-7.8c-4.4-3.7-11-8.5-15.6-12c-6.9-5.3-19.3-13.3-24.4-20.2
						c-1.2-1.6,5.1-1.3,3.4-1.3c-0.3,0-0.8,0-0.9-0.3c-0.3-0.5,1.2-0.3,1.8-0.3c1.8,0,3.4,0.6,5.2,0.6c4.5,0,9.2-0.3,13.7,0.3
						c1.2,0.2,4.4,1,5.5,0c1.8-1.8,1.2-7,2.1-9.7c1.5-4.4,5.5-6.2,7.6-9.7c0.7-1.1,6-2.4,7.8-1.6c5,2.1,6.6,7.6,9.2,11.9
						c1.1,1.8,1.8,3.8,2.7,5.8c0.1,0.2,0.1,0.7,0.3,0.6c1.6-0.5,1-6.1,1.2-7.3c1.3-6.5-0.2-13.5,0.9-20c1.3-8,3-17.5,1.8-25.8
						c-0.7-4.6-2.4-10.8-1.5-15.5c1-5.1,2.6-10.2,3.3-15.5c0.5-3.6-1.5-7.9-1-11.5c1.1-7.7-2-16.8,1.6-24
						c5.6-11.3,19.3-9.4,29.7-8.8c5.4,0.3,12.6,2.7,17.9,2c4.4-0.6,10.7-1.1,15.1-0.6c6.2,0.8,11.2-0.1,17.4-0.1
						c19.7,0,38.3,2.2,58.3,0.6c4.4-0.4,8.9-1.3,13.3-1.8c6.2-0.7,12.6,0.4,18.8,0c6.2-0.4,13-0.9,19.1,0c8.4,1.2,26-1.5,28,8.9
						c0.5,2.7,0.7,5.2-0.7,8.1"/>
					<path class="st4" d="M217.5,151.8c7.8-1.8,10.4-51.5-16.9-74.4c-3-2.5-19.8-20.5-53-5.9c-5.5,2.4-15.3,10.6-21.1,12
						c-5.7,1.4-10.3,2.8-17.7,1c3.9,5.1,3.4,6.6,2,7.8c-6.7,5.6-28.4,1.5-41.7,10.7c-15.2,10.5-11.6,33.2-8.4,46.3
						c11.3,46.9,51.7,48.1,64.9,49.5c6.4,0.6,30.7-3.2,32.5-5.5c1.4-1.8,1.2-10.6,0.8-12.7c-1.1-6.6,2.4-25.2,10-27.1
						c5.3-1.3,11.6-0.6,17.1-0.6c7,0,14-0.5,21-1.3C209.3,151.2,206.3,154.3,217.5,151.8z"/>
					<path class="st5" d="M138.2,118.4c16.2-2,35.9,14.6,32.6,27.6s-22.8,21.3-33.4,22.7c-39,5.2-32.3-31.9-25.4-38.4
						c1.6-1.5,4.4-4.7,6.7-5"/>
					<path class="st5" d="M149.5,99c18,43.1,73.2,33.1,73.1,30.9c-0.3-28.1-13.9-46.2-20.7-53.1c-1-1-12.6,6.3-14.7,6.6
						c-3.4,0.4-7,1.7-10.4,2.7c-6.4,1.7-12.6,2.3-18.8,4.7c-2.1,0.8-8,2.4-9.1,4.6C148.4,96.2,149.1,98.1,149.5,99z"/>
					<path class="st5" d="M107.8,111.2c-0.6,0-1,0.8-1,1.3c-0.2,2,7.2,50.5-36.7,59.2c-0.3,0.1-16-22.6-12.2-46.6
						c1.1-6.7,14.3-4,20.7-6.1c4.2-1.4,7.6-3.7,12.3-4.3c4-0.5,7.4-2.3,11.4-2.8C103.8,111.8,108.4,111.2,107.8,111.2z"/>
					<path class="st6" d="M200.2,81.2c-0.1-0.7,0.3,1,0.3,1.6c0.1,1.3-0.2,2.3-0.6,3.6c-1,3.6-2.7,7-5.4,9.5
						c-4.2,3.9-17.3,8.4-22.2,5.6c-1.7-1-6.5-4.2-6.2-6.7c0.2-1.4,4.8-2.9,6-3.5c3.1-1.7,7.2-1.8,10.6-2.7c3.6-1,7.1-2.9,10.8-4
						C195.4,83.9,200.4,83.1,200.2,81.2z"/>
					<path class="st0" d="M200.1,81.9c0.2,1.6,1.1,3.3,0.9,5c-1.4,10.2-14.5,15.6-23.7,15c-2.5-0.2-10.5-6.2-9.2-8.6
						c0.9-1.7,12.5-3.3,14-3.7c3.1-0.8,6.3-0.8,9.5-1.3c4.9-0.8,7.2-10.4,11.7-10.8"/>
					<path class="st0" d="M94,116.2c2-1.4,1.9,7.4,0.5,9.2c-3.9,4.8-24.3,14.7-28,4.6c-0.3-0.9-1.6-2.7-0.7-3.8
						c3.1-3.9,8.6-3,13-4.6c3.5-1.3,7.2-2.4,10.8-3.7C91.8,117.1,91.8,117.8,94,116.2z"/>
					<path class="st0" d="M39.5,63.3c-0.9,0.1-0.4,0.1-1.3-0.2"/>
					<path class="st0" d="M53,220.9c0.1-0.3,0.3-0.5,0.4-0.8"/>
					<path class="st7" d="M271.3,208.9c0-0.2,0-0.2,0.2-0.1"/>
					<path class="st8" d="M59.6,73.3c-4.8,6.1-7.7,14.9-9.7,22.2c-14.9,53,28,86.5,22.9,99.9"/>
					<path class="st8" d="M59.1,73.4C56.6,75.9,41.1,86,41.2,85.3C43.6,73.2,57.6,67,57.6,66.5c0-0.7-15.1,3.4-15.1,3.2
						c1-7.4,18.7-18,18.7-18s-12.8,2.9-14.1,2.3c-0.2-0.1,0.3-0.9,0.5-1.1c2.3-2.3,22.3-13.2,28.4-13.2"/>
					<path class="st8" d="M75.9,39.2c-2.6-2.6-4.6-11.6-4.3-11.5c15,7.2,37,0.6,37,0.6s-6.1-2.7-4.6-4.1c0.3-0.3,15.4,0.3,16.8,0.4
						c10.9,0.6,21.3-0.4,31.9,1"/>
					<path class="st8" d="M146.1,25.4c30.2,0.6,66.1,23.3,85.4,48.7c18.5,24.2,31.1,55.3,36.2,77.3"/>
					<line class="st9" x1="146.8" y1="96" x2="225.8" y2="71.4"/>
					<polyline class="st9" points="112,107.9 87.9,115.5 42.5,130.1 					"/>
					<path class="st10" d="M166.7,95.8c10.3,15.5,37.9,1.4,34.6-12.7"/>
					<path class="st10" d="M65.1,128.7c1,13,34.2,4.2,29.8-11.3"/>
					<path class="st11" d="M112,127.9c-1-3.5,5.3-8.3,14-10.6c8.7-2.3,16.5-1.4,17.5,2.1c1,3.5-5.3,8.3-14,10.6
						C120.7,132.3,112.9,131.4,112,127.9z"/>
					<path class="st10" d="M176.2,87.3c0.2-0.3,0.5-0.6,0.7-0.9"/>
					<path class="st6" d="M79.8,122.6c-0.8-3,0.9-6.2,3.8-7.1c2.9-0.9,6,0.9,6.9,3.9c0.8,3-0.9,6.2-3.8,7.1
						C83.7,127.3,80.7,125.6,79.8,122.6z"/>
					<path class="st6" d="M186.1,87.5c-0.8-3,0.9-6.2,3.8-7.1c2.9-0.9,6,0.9,6.9,3.9c0.8,3-0.9,6.2-3.8,7.1
						C190,92.3,186.9,90.5,186.1,87.5z"/>
					<path class="st6" d="M136.2,0.3c0-0.1,0.1-0.2,0.2-0.2c0.2-0.1,0.3,0,0.3,0c0,0.1-0.1,0.2-0.2,0.2
						C136.4,0.4,136.2,0.3,136.2,0.3z"/>
					<path class="st10" d="M142,143.7c0-6-9.3-8-13.8-8"/>
					<path class="st8" d="M154.6,277.3c-18.7-35-54.8-41.3-79.6-41.3"/>
					<path class="st8" d="M154.1,298c-13.6-40.9-119.3,8.6-140.3-22.9c-9.1-13.6-0.5-30.2,17.7-49.5"/>
					<path class="st8" d="M141.3,260.6c-6.3,0-14.4,12.4-14.4,18"/>
					<path class="st8" d="M132.1,268c13.1,4.4,18.4,13.3,22.5,20.8"/>
					<path class="st8" d="M129,235c-16.5-59.1-75.6-43.2-97-16.1c-4.4,5.6,4.7,7.2,4.7,7.2"/>
					<path class="st8" d="M157.6,202.1c-6.8,3.3-14.6,5.4-21.8,6.5c-10.1,1.5-18.9,0.9-21.5-1.2"/>
					<path class="st8" d="M157.5,214.4c-10.6,5.8-22,6.3-22,6.3"/>
					<path class="st8" d="M145.1,207"/>
					<line class="st8" x1="140.6" y1="209" x2="142.3" y2="214.2"/>
					<line class="st8" x1="134.7" y1="210.1" x2="136.3" y2="215.3"/>
					<line class="st8" x1="53.8" y1="215" x2="51.4" y2="219.8"/>
					<line class="st8" x1="65.3" y1="218.5" x2="62.8" y2="223.3"/>
					<path class="st8" d="M36.9,214.2c11.5-1.1,28.8-1.2,41.8,12.8"/>
					<line class="st12" x1="148.4" y1="314.4" x2="107.2" y2="281.1"/>
					<line x1="172.2" y1="49" x2="174.6" y2="56.7"/>
					<line class="st13" x1="172.2" y1="49" x2="174.6" y2="56.7"/>
					<line x1="38.2" y1="240" x2="40.6" y2="247.6"/>
					<line class="st13" x1="38.2" y1="240" x2="40.6" y2="247.6"/>
					<line x1="163.2" y1="50" x2="165.7" y2="57.6"/>
					<line class="st13" x1="163.2" y1="50" x2="165.7" y2="57.6"/>
					<path class="st14" d="M79.6,235.2c-0.5-0.2-0.9-0.5-1.2-1c-0.4-0.5,1.3,0.3,1.9,0.4c0.3,0.1,0.5,0.3,0.8,0.4
						c1.9,0.5,4.9,0.3,7,0.4c36.5,0.8,24.4-27.8,24.4-27.9c0.1-0.2,0.5-0.1,0.8,0c2.4,0.6,4.6,2.1,7,2.7c4.3,1.1,7.8-1.2,12.3-1.2
						c6.5,0,10.9-1.4,17-3.8c1-0.4,8.1-2.8,9.1-2.5c0.8,0.3-0.5,15.6-0.5,17.7c0,7.5-2,15.3-2.5,22.8c-0.4,6.2,0.5,12.5-0.4,18.6
						c-0.5,3.3-0.8,6.8-0.8,10.1c0,0.3,0.2,0.7,0,0.8c-0.6,0.3-1.1-1-1.2-1.2c-1.5-3-5-2.6-6.7-5.4c-3.4-5.6-5.4-8.7-13.1-12.7
						c-7.7-4-20.3-12.7-31.4-14.9C94.8,237,86.7,237.9,79.6,235.2z"/>
					<path class="st12" d="M365.7,151.4c7.9,0,14.3,6.2,14.3,13.7L374,305.3c0,7.6-6.4,13.7-14.3,13.7l-162,5.9L168,326
						c-3.5,0-6.7-1.2-9.2-3.3c-3.1-2.5-5.1-6.3-5.1-10.5l6.8-146.1c0-7.6,6.4-13.7,14.3-13.7c0,0,63.8-0.4,111.6-0.6
						C334.1,151.6,365.7,151.4,365.7,151.4z"/>
					<path class="st12" d="M163.5,325.2c-2.7,0-10.8-0.8-13.9-1.5c-5.5-1.4-53.8-41.6-53.8-41.6"/>
					<path class="st14" d="M55.6,79.8c0,1-0.8,1.9-1.2,2.9c-0.6,1.6,1.3-3.1,2.2-4.6c1.8-2.9,4.3-5.9,6.9-8
						c7.7-6.3,40.1-42.9,111.6-16.5c76.1,28.1,67.2,96.3,69,99.6c0.4,0.8,3.3-1.2,3.9-1.1c1.2,0.1,19,0.3,19,0.3
						c2.6-2.1-3-8.8-3.9-11.1c-4.7-12.3-4.6-23.9-11.6-35c-5-8-9.9-17.4-15.3-25.3c-13.2-19-31.5-33.4-52.5-43.8
						c-7-3.5-10.2-5.3-17.5-7.9c-8.9-3.2-24.5-5.4-34.2-5.2c-3.4,0.1-23.8-0.2-25.7,0.9c-2.6,1.4,3.8,3.5,3,4.7
						c-0.1,0.1-16.9,1-19.3,1.5c-3.5,0.8-9.5,1.1-13,0c-0.5-0.1-5-3.2-5.4-2.7c-1.3,2.1,3.9,9.4,2.9,11.7
						c-0.2,0.4-21.2,8.6-24.3,11.1c-0.5,0.4-2.4,2.7-1.7,3.5c1.7,2.1,10.6-1,13.2-1.3c0.6-0.1,1.7,0.2,1.7,0.2s-5.7,1.5-8.1,3.1
						c-5,3.4-9,6.9-12.5,11.8c-0.4,0.6,0.8,0.3,1.6,1.3c1.4,1.7,10.4-4.2,11.6-2.3c1.1,1.9,1,0.1,0.2,0.7c-1.2,0.8-9.4,7-10.6,7.7
						c-7,3.9,1.3,1.7-3,8.3c-0.1,0.1-1.6,2.4-1.1,2.5C44.9,87,55.7,69.9,55.6,79.8z"/>
					<path class="st14" d="M115.2,283.7c-9.4-8.1,8.2,12.5,10.7,14.6c3.2,2.7,7.2,2.6,9.8,5.7c3.6,4.5,9.2,8.2,13.6,12.3
						c3.6,3.3,8.7,7.7,13.9,9.5c7.7,2.8,24.7-0.9,33.2-0.9c47.9,0.2,84.8-5.4,130-5.4c29.9,0,48.3-0.3,46.5-12.7
						c-0.1-0.8-5,7.1-12.5,7.4c-35.7,1.1-145.8,6.2-190.5,7.9c-7.3,0.3-12.6-4-13.5-4.4c-3-1.6-0.1-16-1-22.1
						c-1.9-13.2-15.4-28.7-29.1-29.2c-34.8-1.3-83.1,19.1-104.7,7.2c-5.9-3.2-9.4-9.2-9.7-19.1c-4.9,6.7-0.1,24.1,10.8,28.3
						c3.9,1.5,13.8,3.1,17.9,3.3c4.8,0.3,11,0.7,15.7,0c10.7-1.5,20.9-1.1,31.6-2.6c7.1-1,14.1-1.2,21.1-2.2
						C111.8,280.9,116.4,284.7,115.2,283.7z"/>
					<path class="st2" d="M124,64.2c-0.1-0.3-0.3-0.6-0.4-0.9"/>
				</g>
			</g>
			<g>
				<g>
					<path d="M253.2,198.5c5.1,0.1,10,0.2,15,0.4c4.1,0.2,5.5,3.2,5.7,6c0.2,3.9-1.5,6.7-4.9,8.1c-0.2,0.1-0.4,0.1-0.7,0.2
						c4,2.5,4.4,7.4,6.8,11.5c-2.9,0-5.4,0-8.1,0c-1.3-2.7-2.5-5.4-3.7-8.2c-0.7-1.5-1.5-2.6-3.5-2.2c-0.1,3.4-0.2,6.8-0.2,10.4
						c-2.4,0-4.6,0-7,0C252.5,216.2,253,207.6,253.2,198.5z M260.1,204c-0.1,1.8-0.1,3.4-0.2,5.4c1.5-0.1,3.1-0.1,4.6-0.3
						c1.3-0.2,2.1-1.2,2.1-2.5c0.1-1.4-0.6-2.4-2-2.6C263.2,203.9,261.7,204,260.1,204z"/>
					<path d="M295.6,206c-2.3,0.2-4.4,0.3-6.6,0.5c-0.2-2.2-1.4-3.4-3.3-3.4c-1.2,0-2.3,0.4-2.8,1.9c0,1.3,0.8,1.7,1.7,2
						c1.6,0.5,3.3,0.9,4.9,1.5c0.9,0.3,1.8,0.7,2.6,1.1c5.4,2.8,4.4,10.3,0.5,13.6c-1.3,1.1-3,1.8-4.5,2.1c-2.6,0.5-5.2,0.4-7.8-0.4
						c-3.4-1-5.5-4.2-5.4-8.5c2.1-0.1,4.3-0.3,6.5-0.4c0.1,0.5,0.2,1,0.3,1.5c0.7,2.5,3,3.7,5.2,2.7c1-0.4,1.7-1.2,1.8-2.4
						c0.1-1.1-0.5-1.9-1.3-2.4c-0.7-0.4-1.5-0.6-2.3-0.9c-1.6-0.6-3.3-1-4.8-1.7c-3-1.4-4.4-3.9-4.1-6.9c0.3-3.3,2.3-5.9,5.6-6.9
						c3.1-0.9,6.1-1,9.1,0.1C294.1,200,295.5,202.1,295.6,206z"/>
				</g>
			</g>
			<g>
				<path d="M212.9,18.5c0.6,0.4,0.8,1,0.5,1.7l-2.6,8.8l7.6-5.6c0.2-0.2,0.4-0.2,0.7-0.2c0.3,0,0.6,0.1,0.9,0.3
					c0.2,0.1,0.3,0.3,0.4,0.4c0.1,0.2,0.2,0.3,0.2,0.5c0,0.2,0,0.4,0,0.6c0,0.2-0.1,0.4-0.2,0.5c-0.1,0.1-0.2,0.3-0.4,0.4l-11,8.1
					c-0.2,0.2-0.5,0.3-0.8,0.3c-0.3,0-0.6-0.1-0.9-0.3c-0.3-0.2-0.5-0.4-0.6-0.7c-0.1-0.3-0.1-0.6,0-0.8l2.7-8.9l-7.5,5.5
					c-0.2,0.2-0.5,0.3-0.8,0.3c-0.3,0-0.6-0.1-0.9-0.3s-0.5-0.4-0.6-0.7c-0.1-0.3-0.1-0.6,0-0.9l3.9-13.1c0.1-0.2,0.1-0.4,0.2-0.5
					c0.1-0.2,0.3-0.3,0.4-0.4c0.2-0.1,0.3-0.2,0.5-0.2s0.4,0,0.6,0c0.2,0,0.4,0.1,0.5,0.2c0.3,0.2,0.5,0.4,0.6,0.7s0.1,0.5,0.1,0.8
					l-2.7,9l7.4-5.4C211.7,18.1,212.3,18,212.9,18.5z"/>
				<path d="M216.5,39.5c-0.3,0.3-0.6,0.5-1,0.5s-0.8-0.1-1.1-0.4c-0.3-0.3-0.5-0.6-0.5-1c0-0.4,0.1-0.8,0.4-1.1l13.2-14.8
					c0.3-0.3,0.6-0.5,1-0.5c0.4,0,0.8,0.1,1.1,0.4c0.3,0.3,0.5,0.6,0.5,1s-0.1,0.8-0.4,1.1l-4.6,5.1c1.6,0.1,3,0.7,4.3,1.9
					c0.7,0.7,1.3,1.4,1.7,2.3c0.4,0.9,0.6,1.8,0.7,2.8s-0.1,1.9-0.4,2.8c-0.3,0.9-0.8,1.8-1.5,2.6l-4.7,5.2c-0.3,0.3-0.6,0.5-1,0.5
					s-0.8-0.1-1.1-0.4c-0.3-0.3-0.5-0.6-0.5-1s0.1-0.8,0.4-1.1l4.7-5.2c0.4-0.5,0.7-1,0.9-1.5c0.2-0.6,0.3-1.1,0.2-1.7
					c0-0.6-0.2-1.1-0.4-1.7c-0.2-0.5-0.6-1-1-1.4c-0.5-0.4-1-0.7-1.5-0.9s-1.1-0.3-1.7-0.2c-0.6,0-1.1,0.2-1.7,0.4
					c-0.5,0.2-1,0.6-1.4,1.1L216.5,39.5z"/>
				<path d="M235.6,58.4l0.2-0.2c-0.9-0.1-1.8-0.4-2.5-0.8c-0.8-0.4-1.5-1-2.2-1.7c-1.5-1.6-2.2-3.5-2.1-5.7c0.1-2.2,1-4.1,2.6-5.5
					c1.6-1.5,3.5-2.2,5.7-2.1c2.2,0.1,4.1,1,5.5,2.6c1.5,1.6,2.2,3.5,2.1,5.7c-0.1,2.2-1,4.1-2.6,5.5l-4.8,4.4
					c-0.3,0.3-0.7,0.4-1.1,0.4c-0.4,0-0.8-0.2-1-0.5c-0.3-0.3-0.4-0.7-0.4-1.1C235.1,59,235.2,58.7,235.6,58.4z M240.6,46.9
					c-0.5-0.5-1-0.9-1.6-1.2c-0.6-0.3-1.2-0.4-1.9-0.4c-0.6,0-1.3,0.1-1.9,0.3c-0.6,0.2-1.2,0.6-1.7,1c-0.5,0.5-0.9,1-1.2,1.6
					c-0.3,0.6-0.4,1.2-0.5,1.9c0,0.6,0.1,1.3,0.3,1.9s0.6,1.2,1,1.7c0.5,0.5,1,0.9,1.6,1.2c0.6,0.3,1.2,0.4,1.9,0.4
					c0.6,0,1.3-0.1,1.9-0.3c0.6-0.2,1.2-0.6,1.7-1c0.5-0.5,0.9-1,1.2-1.6s0.4-1.2,0.4-1.9c0-0.6-0.1-1.3-0.3-1.9
					S241.1,47.4,240.6,46.9z"/>
				<path d="M251,54.3l0.4,0.5l4.2-3.3c0.3-0.3,0.7-0.4,1.1-0.3s0.7,0.2,1,0.6c0.3,0.3,0.4,0.7,0.3,1.1c0,0.4-0.2,0.7-0.6,1
					l-4.2,3.3l1.1,1.4c0.3,0.3,0.4,0.7,0.3,1.1c0,0.4-0.2,0.7-0.6,1c-0.3,0.3-0.7,0.4-1.1,0.3s-0.7-0.2-1-0.5l-1.1-1.4l-5.6,4.5
					c-1.5,1.2-1.6,2.5-0.5,4c0.3,0.3,0.4,0.7,0.3,1.1c-0.1,0.4-0.2,0.7-0.6,1c-0.3,0.3-0.7,0.4-1.1,0.3c-0.4,0-0.7-0.2-1-0.5
					c-2.4-3-2.1-5.8,0.9-8.2l5.6-4.5l-0.4-0.5c-0.2-0.3-0.3-0.7-0.3-1.1c0-0.4,0.2-0.7,0.6-1c0.3-0.3,0.7-0.4,1.1-0.3
					C250.4,53.8,250.8,54,251,54.3z"/>
				<path d="M250.7,78.1l10.8-7.3c0.3-0.2,0.7-0.3,1.1-0.2c0.4,0.1,0.7,0.3,0.9,0.6c0.2,0.3,0.3,0.7,0.2,1.1c-0.1,0.4-0.3,0.7-0.6,1
					l-10.8,7.3c-0.4,0.2-0.7,0.3-1.1,0.2c-0.4-0.1-0.7-0.3-0.9-0.6c-0.2-0.3-0.3-0.7-0.2-1.1S250.4,78.4,250.7,78.1z M266.9,71.1
					c-0.4,0.3-0.8,0.4-1.3,0.3c-0.5-0.1-0.8-0.3-1.1-0.7s-0.4-0.8-0.3-1.3c0.1-0.5,0.3-0.8,0.7-1.1s0.8-0.4,1.3-0.3
					c0.5,0.1,0.8,0.3,1.1,0.7c0.3,0.4,0.4,0.8,0.3,1.3C267.5,70.5,267.3,70.9,266.9,71.1z"/>
				<path d="M260.8,82.3c-0.2-0.9-0.2-1.7-0.1-2.2l0,0c0.2-1,0.8-1.8,1.6-2.3c0.6-0.4,1.3-0.6,2-0.5s1.4,0.2,2.1,0.5
					c0.7,0.3,1.3,0.7,1.9,1.3c0.6,0.5,1.1,1.2,1.5,1.8c1.2,2,1.5,4.3,0.7,6.7c-0.1,0.3-0.3,0.5-0.6,0.7c-0.4,0.2-0.7,0.3-1.1,0.2
					c-0.4-0.1-0.7-0.3-0.9-0.7c-0.2-0.3-0.2-0.5-0.2-0.8c0-0.3,0.1-0.5,0.2-0.8c0.3-1.3,0.1-2.6-0.6-3.8c-0.7-1.2-1.6-1.9-2.8-2.1
					c-0.2-0.1-0.4,0-0.7,0.1s-0.3,0.3-0.3,0.6l1.6,6.8c0.2,1,0.2,1.7,0.1,2.2l0,0c-0.2,1-0.8,1.8-1.6,2.3c-0.6,0.4-1.3,0.6-2,0.5
					c-0.7,0-1.4-0.2-2.1-0.5c-0.7-0.3-1.3-0.7-1.9-1.3c-0.6-0.5-1.1-1.1-1.5-1.8c-1.2-2-1.5-4.3-0.8-6.7c0.1-0.3,0.3-0.6,0.6-0.8
					c0.4-0.2,0.7-0.3,1.1-0.2s0.7,0.3,0.9,0.7c0.2,0.3,0.2,0.5,0.2,0.8c0,0.3-0.1,0.5-0.1,0.8c-0.3,1.3-0.1,2.6,0.6,3.8
					c0.7,1.2,1.6,1.9,2.8,2.1c0.2,0,0.4,0,0.6-0.1c0.2-0.1,0.3-0.3,0.3-0.6L260.8,82.3z"/>
				<path d="M265.9,103.5l11.5-6c0.4-0.2,0.8-0.2,1.1-0.1c0.4,0.1,0.7,0.4,0.9,0.7c0.2,0.4,0.2,0.7,0.1,1.1
					c-0.1,0.4-0.4,0.7-0.7,0.9l-11.5,6c-0.4,0.2-0.8,0.2-1.2,0.1c-0.4-0.1-0.7-0.4-0.9-0.7c-0.2-0.4-0.2-0.7-0.1-1.1
					C265.3,104,265.5,103.7,265.9,103.5z M282.7,98.4c-0.4,0.2-0.9,0.3-1.3,0.1c-0.5-0.1-0.8-0.4-1-0.9c-0.2-0.4-0.3-0.9-0.1-1.3
					s0.4-0.8,0.9-1s0.9-0.3,1.3-0.1c0.5,0.1,0.8,0.4,1,0.9c0.2,0.4,0.3,0.9,0.1,1.3C283.5,97.8,283.2,98.2,282.7,98.4z"/>
				<path d="M282.3,103.7l0.3,0.6l4.8-2.3c0.4-0.2,0.7-0.2,1.1-0.1c0.4,0.1,0.7,0.4,0.9,0.8c0.2,0.4,0.2,0.7,0.1,1.1
					c-0.1,0.4-0.4,0.7-0.8,0.8l-4.8,2.3l0.8,1.6c0.2,0.4,0.2,0.7,0.1,1.1s-0.4,0.7-0.8,0.8c-0.4,0.2-0.8,0.2-1.1,0.1
					c-0.4-0.1-0.7-0.4-0.8-0.8l-0.8-1.6l-6.5,3.1c-1.7,0.8-2.1,2.1-1.3,3.8c0.2,0.4,0.2,0.7,0.1,1.1c-0.1,0.4-0.4,0.7-0.8,0.8
					c-0.4,0.2-0.8,0.2-1.1,0.1c-0.4-0.1-0.7-0.4-0.8-0.8c-1.7-3.5-0.8-6.1,2.7-7.8l6.5-3.1l-0.3-0.6c-0.2-0.4-0.2-0.7-0.1-1.1
					c0.1-0.4,0.4-0.7,0.8-0.9c0.4-0.2,0.7-0.2,1.1-0.1C281.8,103.1,282.1,103.4,282.3,103.7z"/>
				<path d="M277.4,126.9c-0.5,0.2-1,0.2-1.6,0c-0.5-0.2-0.9-0.6-1.1-1.1s-0.2-1,0-1.6c0.2-0.5,0.6-0.9,1.1-1.1c0.5-0.2,1-0.2,1.6,0
					c0.5,0.2,0.9,0.6,1.1,1.1c0.2,0.5,0.2,1,0,1.6C278.3,126.3,278,126.6,277.4,126.9z M287.9,115.9c-0.2,0.1-0.4,0.1-0.6,0.1
					c-0.2,0-0.4,0-0.6-0.1c-0.2-0.1-0.3-0.2-0.5-0.3c-0.1-0.1-0.3-0.3-0.3-0.5c-0.2-0.4-0.2-0.8,0-1.1c0.2-0.4,0.4-0.6,0.8-0.8
					c0.9-0.4,1.8-0.6,2.7-0.5c0.9,0,1.8,0.2,2.6,0.5c0.8,0.3,1.6,0.8,2.2,1.4s1.2,1.4,1.5,2.2s0.5,1.8,0.5,2.7s-0.2,1.8-0.5,2.6
					c-0.3,0.8-0.8,1.6-1.4,2.2c-0.6,0.7-1.4,1.2-2.2,1.5c-1.7,0.7-3.5,0.8-5.3,0.1l-2.8-1.2c-1-0.4-1.9-0.4-2.7-0.1
					c-0.4,0.2-0.8,0.2-1.1,0c-0.4-0.1-0.6-0.4-0.8-0.8s-0.2-0.8,0-1.1c0.1-0.4,0.4-0.6,0.8-0.8c1.6-0.7,3.3-0.7,5,0.1l2.8,1.2
					c1,0.4,2,0.4,3,0c0.5-0.2,0.9-0.5,1.3-0.9s0.6-0.8,0.8-1.3c0.2-0.5,0.3-1,0.3-1.5c0-0.5-0.1-1-0.3-1.5c-0.2-0.5-0.5-0.9-0.9-1.3
					c-0.4-0.4-0.8-0.6-1.3-0.8c-0.5-0.2-1-0.3-1.5-0.3S288.4,115.7,287.9,115.9z"/>
			</g>
		</g>
	</g>
</g>
</svg>
