<?xml version="1.0" encoding="utf-8"?>
<!-- Generator: Adobe Illustrator 26.0.3, SVG Export Plug-In . SVG Version: 6.00 Build 0)  -->
<!DOCTYPE svg PUBLIC "-//W3C//DTD SVG 1.1//EN" "http://www.w3.org/Graphics/SVG/1.1/DTD/svg11.dtd" [
	<!ENTITY ns_extend "http://ns.adobe.com/Extensibility/1.0/">
	<!ENTITY ns_ai "http://ns.adobe.com/AdobeIllustrator/10.0/">
	<!ENTITY ns_graphs "http://ns.adobe.com/Graphs/1.0/">
	<!ENTITY ns_vars "http://ns.adobe.com/Variables/1.0/">
	<!ENTITY ns_imrep "http://ns.adobe.com/ImageReplacement/1.0/">
	<!ENTITY ns_sfw "http://ns.adobe.com/SaveForWeb/1.0/">
	<!ENTITY ns_custom "http://ns.adobe.com/GenericCustomNamespace/1.0/">
	<!ENTITY ns_adobe_xpath "http://ns.adobe.com/XPath/1.0/">
]>
<svg version="1.1" id="Слой_1" xmlns:x="&ns_extend;" xmlns:i="&ns_ai;" xmlns:graph="&ns_graphs;"
	 xmlns="http://www.w3.org/2000/svg" xmlns:xlink="http://www.w3.org/1999/xlink" x="0px" y="0px" width="317.9px" height="337.3px"
	 viewBox="0 0 317.9 337.3" style="enable-background:new 0 0 317.9 337.3;" xml:space="preserve">
<style type="text/css">
	.st0{fill:#FFFFFF;}
	.st1{fill:#CAA77A;}
	.st2{fill:#FFDB1F;}
	.st3{fill:#FFDBAF;}
	.st4{fill:#9D7B51;}
	.st5{fill:none;stroke:#9D7B51;stroke-width:3.87;stroke-linecap:round;stroke-linejoin:round;stroke-miterlimit:10;}
	.st6{opacity:0.23;fill:#3F2719;}
	.st7{fill:none;stroke:#2D1F04;stroke-width:2.62;stroke-linecap:round;stroke-linejoin:round;stroke-miterlimit:10;}
	.st8{fill:none;stroke:#2D1F04;stroke-width:10.65;stroke-linecap:round;stroke-linejoin:round;stroke-miterlimit:10;}
	.st9{fill:#251707;}
	.st10{fill:#2D1F04;}
	.st11{fill:none;stroke:#2D1F04;stroke-width:3.05;stroke-linecap:round;stroke-linejoin:round;stroke-miterlimit:10;}
	.st12{opacity:0.8258;fill:#B2B2B2;}
	.st13{fill:none;stroke:#2D1F04;stroke-width:2.79;stroke-linecap:round;stroke-linejoin:round;stroke-miterlimit:10;}
	.st14{fill:#D6D1C7;stroke:#000000;stroke-width:1.5;stroke-miterlimit:10;}
	.st15{fill:#004CA3;stroke:#000000;stroke-width:1.5;stroke-miterlimit:10;}
	.st16{fill:#FF0000;}
	
		.st17{clip-path:url(#SVGID_00000077314010763481417070000006810239737751265171_);fill:#004CA3;stroke:#000000;stroke-width:0.6603;stroke-miterlimit:10;}
	.st18{clip-path:url(#SVGID_00000010294576525144550390000009923867604487876008_);}
	.st19{fill:#004CA3;stroke:#FFFFFF;stroke-width:1.5248;stroke-linecap:round;stroke-miterlimit:10;}
</style>
<metadata>
	<sfw  xmlns="&ns_sfw;">
		<slices></slices>
		<sliceSourceBounds  bottomLeftOrigin="true" height="337.3" width="317.9" x="802.2" y="-708.7"></sliceSourceBounds>
	</sfw>
</metadata>
<path class="st0" d="M313.4,301.8c-3.6-20.8-9.6-37.1-17.6-48.7c-0.5-0.7-1.1-1.5-1.6-2.3c-2.1-3.6-3.8-6.4-5.5-9
	c-0.6-0.9-1.3-1.6-2.1-2.3c-2.6-3.1-5.1-5.7-7.9-7.9c0-1.9,0.1-3.9,0.1-5.8c0.3-2.9,0.5-6.9-0.1-10.3c-0.1-0.3-0.1-0.6-0.2-1
	c-0.3-6.9-0.9-13.9-1.8-20.7l0-0.7c-0.4-8.4-0.8-17.1-2.2-24.2c-1.8-9.7-5-18.7-8.1-27.4l-0.1-0.3c-11.1-31-25.8-55.3-44.9-74.4
	c-3.8-4.1-7.8-8-11.9-11.7c-3.4-3.3-6.8-6.3-10.1-8.9c-2.7-2.2-6.1-4.4-10.3-6.7c-4-2.6-8.1-5-12.3-7.2c-0.3-0.2-0.6-0.4-0.9-0.5
	c-1.3-0.7-2.6-1.3-4.2-2c-3.5-1.7-7.2-3.3-10.9-4.8c-0.5-0.2-0.9-0.5-1.4-0.7c-10.3-5.5-27.2-10.7-36.6-13.3
	c-3.7-1.4-5.2-1.9-7.1-1.9c-1.6,0-3.2,0.4-4.7,1.2c-1.7,0.9-3,2.2-4,3.7c-0.8-0.1-1.6-0.2-2.3-0.3C98.2,12.4,94,10.9,92,9.1
	c-0.8-0.7-2.3-1.9-3.5-2.7c-1.3-1.5-3.5-3.7-6.7-4.9c-0.2-0.1-0.4-0.2-0.6-0.3c-1.4-0.8-3-1.2-4.7-1.2c0,0,0,0,0,0c0,0,0,0,0,0
	c-4.4,0-7.1,2.8-8.1,3.7c-2,2-2.6,3.4-3,4.5c-0.6,1.7-1,3.6-1.1,5.5c-4.4,0.2-7.6,1.7-10.1,3c-2.1,0.4-4.2,0.8-6.1,1.3
	c-4.3,1.1-8.7,2.8-12.8,4.9c-4.3,1.6-5.8,5.1-6.2,6.6c-0.6,2.1-0.5,4.4,0.4,6.4c-4.7,2.8-7.1,5.1-8.6,7c-0.3,0.3-0.5,0.5-0.8,0.8
	c-3.9,3.7-3.9,8.3-2.7,11.3c0.2,0.6,0.6,1.2,1,1.9c-6,4.4-8.9,7.7-8.9,12.6c0,3.3,1.6,6.2,4,8h-4c-5.3,0-9.6,4.3-9.6,9.6
	c0,5.3,4.3,9.6,9.6,9.6h0.7c-12,30.9-8.1,69.1,11.5,114c0.6,3,1.3,6.4,3.5,11.2c0.9,1.9,2,5.1,2.7,7.8c0,0.4,0.1,0.8,0.1,1.2
	c0.1,1.3,0.2,2.4,0.6,3.5c0.3,1.4,0.9,2.8,1.7,3.9c0,0.1,0,0.3,0,0.4c-0.1,0.8-0.1,1.5-0.2,2.2c-0.1,0.2-0.2,0.6-0.3,0.9
	c-0.7,2.3-1.9,6.5,1.2,10.5c0.2,0.3,0.4,0.5,0.6,0.7l-0.2,8.7c-2,2.1-3.4,4.5-4.4,6.4c-4,7.8-2.8,13.1-1.2,16.2l-5.4,15l-0.4,1.1
	c-3,7.2-6.5,15.4-8.4,24c-0.6,2.4-0.2,4.9,1,6.9c0.4,0.8,0.8,1.7,1.4,2.4c1.8,2.3,4.6,3.6,7.5,3.6c0.1,0,0.1,0,0.2,0
	c2,0,27.9-0.3,60.6-0.6c61.3-0.6,153.3-1.5,198.3-2c0.9,0.3,1.8,0.4,2.8,0.4c0.1,0,0.2,0,0.4,0c7-0.3,15.5-0.6,20.8-0.8
	c1,0,1.7,0,2.2-0.1c0.2,0,0.4,0,0.6,0l1.1,0c2.8-0.1,5.4-1.4,7.2-3.6c1.8-2.2,2.5-5,2-7.8C316.5,315.5,315,308.4,313.4,301.8z
	 M19.5,69.8C19.5,69.8,19.5,69.8,19.5,69.8c-0.1,0-0.1,0-0.1,0C19.4,69.8,19.5,69.8,19.5,69.8z M17.2,106.4c0.8-2.5,1.7-5.1,2.7-7.5
	C18.8,101.3,17.9,103.8,17.2,106.4z M22.7,69.1c-0.1,0-0.2,0-0.2,0C22.6,69.1,22.7,69.1,22.7,69.1C22.8,69.1,22.8,69.1,22.7,69.1z
	 M26.8,50.7C26.8,50.7,26.8,50.7,26.8,50.7C26.8,50.7,26.8,50.7,26.8,50.7c0.5-0.5,1.1-1,1.6-1.4C27.9,49.7,27.3,50.2,26.8,50.7z
	 M28.3,51.8C28.3,51.8,28.3,51.8,28.3,51.8c0,0,0,0,0.1,0C28.4,51.8,28.4,51.8,28.3,51.8z M35.2,72.3c-1.2,1.7-2.3,3.4-3.4,5.2
	C32.9,75.8,34,74,35.2,72.3c0.3-0.6,0.6-1.1,0.9-1.7C35.8,71.2,35.5,71.7,35.2,72.3z M38,287.4c-0.4,0.6-0.9,1.3-1.3,1.9
	C37.1,288.7,37.6,288.1,38,287.4c0.1-0.1,0.3-0.3,0.4-0.5C38.3,287.1,38.1,287.3,38,287.4z M37.7,228.3L37.7,228.3
	c0.1,0.3,0.1,0.6,0.2,0.9C37.8,228.9,37.8,228.6,37.7,228.3z M38.3,232.7C38.3,232.7,38.4,232.7,38.3,232.7
	C38.4,232.7,38.3,232.7,38.3,232.7C38.3,232.7,38.3,232.7,38.3,232.7z M39,246.5C39,246.5,39,246.5,39,246.5
	C39,246.5,39,246.5,39,246.5C39,246.5,39,246.5,39,246.5z M39,232.4C39,232.4,39,232.4,39,232.4C39,232.4,39,232.4,39,232.4
	C39,232.4,39,232.4,39,232.4z M39.9,242.3C39.9,242.3,39.9,242.3,39.9,242.3C39.9,242.3,39.9,242.3,39.9,242.3
	c0.1-0.6,0.1-1.2,0.2-1.8C40,241.1,39.9,241.7,39.9,242.3z M41,266.8C41,266.8,41.1,266.8,41,266.8c0.1,0,0.1,0,0.2,0
	C41.2,266.8,41.1,266.8,41,266.8z M41.6,267c-0.1-0.1-0.2-0.2-0.3-0.2C41.4,266.9,41.5,266.9,41.6,267c0.1-1.3,0.2-2.6,0.4-4
	C41.8,264.4,41.6,265.8,41.6,267z M31.1,59.8c-0.3,0.2-0.6,0.3-0.9,0.5C30.5,60.2,30.8,60,31.1,59.8l11.3-8.2L31.1,59.8z M52.7,36.1
	c0,0,0.1,0,0.2,0c0,0,0,0,0,0C52.9,36.1,52.8,36.1,52.7,36.1z M57.4,26c-2.6,0.4-4.9,0.9-6.9,1.4C52.5,26.9,54.9,26.4,57.4,26
	c0.3-0.2,0.6-0.3,0.9-0.5C58.1,25.7,57.7,25.9,57.4,26z M65,23.4c0,0,0.1,0,0.1,0c0,0,0,0,0.1,0C65.2,23.4,65.1,23.4,65,23.4z
	 M76.5,9.7C76.5,9.7,76.5,9.7,76.5,9.7c0.1,0,0.1,0,0.1,0C76.6,9.7,76.5,9.7,76.5,9.7z M85.4,16.3c-0.1-0.1-0.5-0.4-0.9-0.7
	C85,15.9,85.3,16.1,85.4,16.3c1.1,1,2.3,1.8,3.6,2.5C87.7,18.1,86.5,17.2,85.4,16.3z M91.2,19.8c1.4,0.6,3,1.2,4.6,1.6
	C94.1,21,92.6,20.5,91.2,19.8z M115.5,18.6C115.5,18.6,115.5,18.6,115.5,18.6C115.5,18.6,115.5,18.6,115.5,18.6
	C115.5,18.6,115.5,18.6,115.5,18.6z M197.9,57.7c1.6,1.4,3.3,2.9,4.9,4.5C201.1,60.6,199.5,59.1,197.9,57.7z M257,144.5
	c-2.3-6.5-4.9-12.9-7.6-18.9C252.2,131.6,254.7,137.9,257,144.5c0.8,2.2,1.5,4.3,2.3,6.5C258.6,148.8,257.8,146.6,257,144.5z
	 M267,194.7c-0.1-2.2-0.2-4.3-0.3-6.4C266.8,190.4,266.9,192.6,267,194.7c0.2,1.8,0.4,3.5,0.6,5.3
	C267.4,198.2,267.2,196.5,267,194.7z M268.8,236.5c-0.3-0.2-0.6-0.5-0.9-0.7v0C268.2,236.1,268.5,236.3,268.8,236.5
	c0.5,0.4,1.1,0.7,1.6,1.1C269.9,237.3,269.4,236.9,268.8,236.5z"/>
<g>
	<g>
		<path class="st1" d="M41.7,62.7c-4.1,0-14.9,22.5-17.4,27.1c-18.1,34-11.5,73.6,2.9,107.5c3.7,8.7,2,11.4,5.8,19.5
			c1.7,3.8,4.1,10.7,4.1,14.7c0,0.9,1.1-1.6,1.1-1.6s0,3.2-1.3,0.3c-0.4-0.9-0.7-6.3,0.2-6.3c0.5,0,2.3,17.2,2.4,17.6
			c4,10.7,1,18.7,0.8,24.9c-0.2,6.2,15.6,11.9,23.2,13.9c28.7,7.7,57.7-0.4,86.4-0.4c7.2,0,27.9,2.4,33.9-4
			c5.1-5.5,6.7-12.5,10.8-18.7c5.5-8.3,18.4-18.4,27.3-22.2c9.2-4,20.7-1.5,29.8,0.9c2.3,0.6,9.3,3.8,11.6,1.3
			c3.8-4,5.5-15.8,4.5-20.9c-2.5-13.6-1.7-33.5-4.1-46.6c-1.7-9-4.8-17.6-7.9-26.2c-12.2-34.1-29.4-61.9-56.7-83.2
			c-6.8-5.3-18.3-14.8-26.1-19c-7.5-4-12.1-5.6-19.7-9.7c-10-5.3-27.7-10.7-38.4-13.6c-2.7-0.7,4.1,4.5,3.8,5
			c-0.3,0.7-6.9,0.6-7.9,0.4c-8.9-1.9-17.9-1.7-26.5-5.8c-1.4-0.7-5.5-9.9-9.6-8.2C71.1,11.5,79,29,79,29s-0.7-1.3-1.2-1.8
			c-2.4-2.1-8-3.8-11.2-4.4c-6.7-1.4-9.6,3.2-15.3,4.4c-0.8,0.2-10.9,2.7-10.9,2.8c0,1.5,14.2,2.7,14.2,4.3c0,1.4-2.4,0.8-2.9,0.9
			c-3.2,0.5-25.9,10.2-24.6,14.4c0.6,1.9,14.8,0.4,16.7,1.6c0.5,0.3,1.7,0.4,1.7,0.4s-10.4,5.8-14,6.8c-4.6,1.2-13.4,11.1-9.1,9.7"
			/>
		<path class="st2" d="M240.8,225.9c-0.9,0-1.8,0.1-2.8,0.4c-14.2,4.4-33.1,11.1-42.2,24.1c-2.9,4.1-7.4,15-11.4,17.8
			c-1.8,1.3-4.2,2.1-6.5,2.5c-11.3,2.4-19.9,3.6-31.1,6c-24.2,5.2-45.4,3.4-69.6-1.8c-3.9-0.8-13.9-1.7-17.9-2.4
			c-4.7-0.8-8.7-0.9-13.4-2.2c-5.5-1.5-5.1-3-5.2-3.5c-0.4-4.6-10,8-7,12.2c1.3,1.8,3.4,3.1,4.5,4.8c0.6,1-0.9,2.1-1.2,2.6
			c-5.2,7.5-8.6,16-11.8,24.4c-2,5.4-3.4,10.5-4.5,15.7c7.1-0.1,269.4-2.5,284.8-3.1c-2.1-24.3-7.5-49.8-18.7-65.9
			c-6.5-9.4-15.5-21.7-27.2-24.9C253.7,231.3,247.3,225.7,240.8,225.9z"/>
		<path class="st3" d="M22,131.7c3.5-15.2,9.2-42.4,21.8-44.9c7.3-1.4,12.8-0.9,20.9-3c8.5-2.3,7.4-0.1,23.2-0.5
			c15.8-0.4,8.6-12,9.2-12.2c0.6-0.2,11,0.2,41,13.8c31.1,14.1,56.3-0.3,73.6,33.4c3.9,7.6,9.9,24.9,5.8,44.2
			c-5.9,28.2-9,40-37.5,61.1c-33.8,25.1-103.8,37.5-138.7-9.9C25,191.4,15.5,160,22,131.7z"/>
		<path class="st4" d="M99.1,141.5c-11.8-6.3-22.3,29.3-21.3,38.5c3.3,31.5,29.5,35.4,49.4,24.8c28.7-15.4,4-74.2-16.5-65.4"/>
		<path class="st4" d="M15.9,122.7c-3.1,13.7,7,59,11.9,62.9c3.7,3,28.8-1.4,47-24.5C92.1,139.2,91.9,92,88.3,88
			c-2.1-2.2-48.5-2.4-52.7-1.5C29.6,87.8,20.1,103.8,15.9,122.7z"/>
		<path class="st4" d="M131,84.6c-14.6,110.8,70.4,120.1,78.7,107.3c5.3-8.2,24.9-68.8-17.1-110.4C191,79.9,131,84.2,131,84.6z"/>
		<line x1="56.4" y1="244.5" x2="56.3" y2="255"/>
		<line class="st5" x1="56.4" y1="244.5" x2="56.3" y2="255"/>
		<line x1="66" y1="249.9" x2="65.9" y2="260.4"/>
		<line class="st5" x1="66" y1="249.9" x2="65.9" y2="260.4"/>
		<path class="st6" d="M20.5,65.8c7,0,12.9-2.1,19.7-3.7c1.9-0.5,3.2-4,3.2-1.9c0,0.5-0.6,0.5-0.9,0.8c-5.8,3.8-8.2,10.2-11.5,16.7
			c-1.2,2.2-4.3,8.4-3.5,6.9C54.1,33,247,13.7,235.9,223c-0.1,1.9-2.2,5-0.6,5.6c3.5,1.2,9-2.4,13.4-0.6c1.9,0.8,15.9,9.2,17.4,8.1
			c2.5-1.8,1.3-11.8,1.2-15c-3.3-91.4-46.9-145.6-75.1-168.3c-17.1-13.7-73.5-32.2-74.6-32.5c-0.2-0.1-0.4,4.1-2.7,3.7
			c-8.4-1.5-23.1-2-30.4-8.7c-1-0.9-9-6.8-9.3-6.2c-0.9,2-1.5,13.3-0.6,15c0.7,1.2,4.8-0.6,3.5-0.6c-10.8,0-24.4,3.7-36,6.2
			c-0.4,0.1-1.2,0.2-1.2,0.6c0,3.6,15.1,1.2,15.1,3.7c0,1-4.3,1.7-9.9,3.5c-4.4,1.4-9.6,3.6-13.9,7.1c-0.9,0.7-4.3,3.5-3.5,4.4
			c2.8,3,9.7-0.7,13.4,1.2"/>
		<path class="st6" d="M243.2,227.1c-9.1-0.2-19.2,2.2-30.6,7.8c-1.2,0.6-1.2,3.6-2.3,4.3c-1.8,1.3,4.3-0.6,6.4-0.6
			c3.5,0,50,23.1,65.7,85.9c9.1-0.3,20.9-0.8,24.7-0.9C297.7,270.4,279.1,228,243.2,227.1z"/>
		<path class="st7" d="M44.3,60.5c-7.9,5.7-12.6,14.8-17.9,22.9c-26,39.5-12.3,89.6,6.2,129.2c1.6,3.5,3.9,7.5,4.5,11.4
			c0.3,2-0.8,5.3,0,7c0.3,0.7,2-1.9,2.1-1.1c0.4,3.6,0,7.8-0.3,11.4c-0.1,1.4-1.6,5-0.7,4.1c0.3-0.3,1.2-3.4,2.4-3
			c0.7,0.3,0,22.5-0.4,24.5"/>
		<path class="st7" d="M41.9,61.6c-3.8,2.1-6.4,2.1-10.3,3.3c-2,0.6-3.5,1.4-5.5,1.8c-1.8,0.4-3.7,0.6-5.5,1.1
			c-0.8,0.2-2.4,1.6-2.4,0.7c0-2.8,20.8-15.2,24.7-16.6c0.6-0.2,1.5-0.1,1.7-0.7c0.3-0.9-1.6-0.9-2.4-1.1
			c-3.9-1.1-19.5,2.5-16.5-0.4C42.1,34.3,54.3,38.1,54.3,35c0-3.7-15.6-2.4-16.8-3.7c-0.2-0.2,0.5-0.2,0.7-0.4
			c3.6-1.9,7.5-3.5,11.3-4.4c7.1-1.8,19.8-3.6,26.8-1.1"/>
		<path class="st7" d="M77.3,27.3c-2-4.4-5.7-11.5-3.8-16.6c0.1-0.3,1.7-2.1,2.1-1.8c1.4,0.8,10.1,15.4,39.5,15.5
			c1,0,3.1,0.4,3.1,0.4s-6-5.8-3.8-7c0.4-0.2,17.7,6.7,19.2,7.4c12.3,5.2,24.8,8.3,36.5,14.3"/>
		<path class="st7" d="M150.6,30.9c86.2,30.8,120,127.1,117.2,203.2"/>
		<path class="st7" d="M41,267.4c67.2,20.8,135.6,6,143.2,1.9"/>
		<path class="st7" d="M41,267.5c0.8-4.7-4.7,3.7-5.7,6.1c-1.5,3.5,1.8,6.6,1.7,8.4c-0.2,2.1-3.2,6.9-4.1,9.4
			c-3.7,10.5-9.8,22.1-12.7,34.4"/>
		<path class="st7" d="M279.5,246.4c3.2,4.7,6.1,9.9,8.8,14.8c7.4,13.4,14.4,40.4,18.2,61.6"/>
		<path class="st7" d="M181.4,299.2c7.3,7.2,13.8,14.6,17.9,25"/>
		<path class="st7" d="M196.2,317.5c-0.9-6.6-1.6-15-4.3-20.9"/>
		<path class="st7" d="M252.6,228.7c-43.5-10.7-70.9,40.5-68.5,42.5"/>
		<path class="st7" d="M281.1,248.9c-8.2-11.3-14.9-15.4-28.1-19.9"/>
		<line class="st8" x1="126" y1="85.7" x2="207.3" y2="83.2"/>
		<line class="st8" x1="88" y1="85.5" x2="14.7" y2="87.2"/>
		<path class="st9" d="M90.6,145c-0.2-4.8,4.6-9.4,15.3-10c10.7-0.6,19.5,2.8,19.7,7.6c0.2,4.8-8.3,9.1-19,9.7
			C96,152.8,90.8,149.7,90.6,145z"/>
		<path class="st7" d="M154.2,290.7c-19.1,7.2-93.3,6.6-116.5-9.8"/>
		<path class="st7" d="M51.4,271.1c-0.9,3-1.9,5.3-1.9,8.6"/>
		<path class="st7" d="M68.6,274.8c-1.3,2.7-1.5,6.4-1.5,9.4"/>
		<line class="st7" x1="89.1" y1="277.6" x2="88" y2="285"/>
		<polyline class="st7" points="103.6,279.7 103.6,280.9 103.6,281.7 103.6,282.9 103.6,283.8 103.6,284.6 103.6,285.4 		"/>
		<polyline class="st7" points="95.6,280.1 95.6,280.9 95.6,281.7 95.6,282.5 95.6,283.4 95.6,284.2 		"/>
		<polyline class="st7" points="152.4,277.6 152.4,278.4 152.4,279.3 152.4,280.9 152.4,281.7 		"/>
		<polyline class="st7" points="158.1,277.6 158.1,278.9 158.1,280.1 158.1,280.9 		"/>
		<path class="st10" d="M163.9,133.7c-0.5-0.1-1-0.1-1.5-0.2"/>
		<path class="st11" d="M95,170.3c4.9-9.9,9.8-12.2,14.6-7.6c1.9,1.8,3.8,4.6,5.7,8.4"/>
		<path class="st12" d="M173.8,92.9h0.4c19.6,0,35.4,18.2,35.4,40.7c0,22.5-15.9,40.7-35.4,40.7h-0.4c-19.6,0-35.4-18.2-35.4-40.7
			C138.3,111.1,154.2,92.9,173.8,92.9z"/>
		<path class="st0" d="M173.8,93.1h0.4c18.9,0,34.3,15.4,34.3,34.3c0,18.9-15.4,34.3-34.3,34.3h-0.4c-18.9,0-34.3-15.4-34.3-34.3
			C139.5,108.4,154.8,93.1,173.8,93.1z"/>
		<path class="st13" d="M173.8,93.1h0.4c18.9,0,34.3,15.4,34.3,34.3s-15.4,34.3-34.3,34.3h-0.4c-18.9,0-34.3-15.4-34.3-34.3
			S154.8,93.1,173.8,93.1z"/>
		<ellipse class="st10" cx="173.3" cy="121.6" rx="3.7" ry="5"/>
		<path class="st12" d="M47.6,93.9H48c18,0,32.6,18.2,32.6,40.7c0,22.5-14.6,40.7-32.6,40.7h-0.4c-18,0-32.6-18.2-32.6-40.7
			C15,112.1,29.6,93.9,47.6,93.9z"/>
		<path class="st0" d="M47.6,94.1H48c17.4,0,31.6,15.4,31.6,34.3c0,18.9-14.1,34.3-31.6,34.3h-0.4c-17.4,0-31.6-15.4-31.6-34.3
			C16,109.5,30.2,94.1,47.6,94.1z"/>
		<path class="st13" d="M47.6,94.1H48c17.4,0,31.6,15.4,31.6,34.3S65.4,162.7,48,162.7h-0.4c-17.4,0-31.6-15.4-31.6-34.3
			S30.2,94.1,47.6,94.1z"/>
		<ellipse class="st10" cx="47.2" cy="122.6" rx="3.5" ry="5"/>
	</g>
	<g>
		<rect x="49.2" y="67" class="st14" width="119.5" height="43.3"/>
		<rect x="49.2" y="56.1" class="st15" width="119.5" height="10.9"/>
		<g>
			<circle class="st16" cx="161.7" cy="61.5" r="3"/>
			<g>
				<defs>
					<circle id="SVGID_1_" cx="161.7" cy="61.5" r="3"/>
				</defs>
				<clipPath id="SVGID_00000000180602463063512450000005513183539299582106_">
					<use xlink:href="#SVGID_1_"  style="overflow:visible;"/>
				</clipPath>
				
					<line style="clip-path:url(#SVGID_00000000180602463063512450000005513183539299582106_);fill:#004CA3;stroke:#000000;stroke-width:0.6603;stroke-miterlimit:10;" x1="159" y1="58.7" x2="165.3" y2="65"/>
				
					<line style="clip-path:url(#SVGID_00000000180602463063512450000005513183539299582106_);fill:#004CA3;stroke:#000000;stroke-width:0.6603;stroke-miterlimit:10;" x1="158.6" y1="64.7" x2="164.9" y2="58.3"/>
			</g>
		</g>
		<g>
			<circle class="st16" cx="85" cy="88.7" r="8.7"/>
			<g>
				<defs>
					<circle id="SVGID_00000048461302363397603860000012611078362126585256_" cx="85" cy="88.7" r="8.7"/>
				</defs>
				<clipPath id="SVGID_00000150072508498558116880000001478312126849795511_">
					<use xlink:href="#SVGID_00000048461302363397603860000012611078362126585256_"  style="overflow:visible;"/>
				</clipPath>
				<g style="clip-path:url(#SVGID_00000150072508498558116880000001478312126849795511_);">
					<line class="st19" x1="80.6" y1="84.2" x2="89.7" y2="93.3"/>
					<line class="st19" x1="80.6" y1="93.3" x2="89.7" y2="84.2"/>
				</g>
			</g>
		</g>
		<g>
			<path d="M107.9,81.9v12.4h-2v-1.1c-0.3,0.4-0.8,0.7-1.3,0.9c-0.5,0.2-1.1,0.3-1.7,0.3c-0.9,0-1.6-0.2-2.3-0.6
				c-0.7-0.4-1.2-0.9-1.6-1.6s-0.6-1.5-0.6-2.4c0-0.9,0.2-1.7,0.6-2.4s0.9-1.2,1.6-1.6c0.7-0.4,1.5-0.6,2.3-0.6
				c0.6,0,1.1,0.1,1.6,0.3c0.5,0.2,0.9,0.5,1.2,0.9v-4.6H107.9z M104.5,92.2c0.4-0.2,0.7-0.6,0.9-1s0.3-0.9,0.3-1.5
				c0-0.6-0.1-1-0.3-1.5s-0.5-0.7-0.9-1c-0.4-0.2-0.8-0.3-1.3-0.3c-0.5,0-0.9,0.1-1.3,0.3s-0.7,0.6-0.9,1s-0.3,0.9-0.3,1.5
				c0,0.6,0.1,1,0.3,1.5s0.5,0.7,0.9,1s0.8,0.3,1.3,0.3C103.7,92.6,104.1,92.5,104.5,92.2z"/>
			<path d="M118.9,90.5h-7c0.1,0.7,0.4,1.2,1,1.6c0.5,0.4,1.2,0.6,1.9,0.6c1,0,1.8-0.3,2.4-1l1.1,1.3c-0.4,0.5-0.9,0.8-1.5,1.1
				c-0.6,0.2-1.3,0.4-2.1,0.4c-1,0-1.8-0.2-2.6-0.6c-0.7-0.4-1.3-0.9-1.7-1.6c-0.4-0.7-0.6-1.5-0.6-2.4c0-0.9,0.2-1.6,0.6-2.3
				c0.4-0.7,0.9-1.2,1.6-1.6s1.5-0.6,2.4-0.6c0.9,0,1.6,0.2,2.3,0.6c0.7,0.4,1.2,0.9,1.6,1.6s0.6,1.5,0.6,2.4
				C118.9,90,118.9,90.2,118.9,90.5z M112.8,87.5c-0.5,0.4-0.7,0.9-0.8,1.6h5c-0.1-0.6-0.4-1.2-0.8-1.6c-0.5-0.4-1-0.6-1.7-0.6
				C113.8,86.9,113.2,87.1,112.8,87.5z"/>
			<path d="M128.7,86.2c0.7,0.7,1,1.6,1,2.9v5.1h-2.1v-4.8c0-0.8-0.2-1.4-0.5-1.8s-0.9-0.6-1.6-0.6c-0.8,0-1.4,0.2-1.8,0.7
				c-0.4,0.5-0.7,1.1-0.7,2v4.5h-2.1v-8.9h2v1.1c0.3-0.4,0.8-0.7,1.3-0.9c0.5-0.2,1.1-0.3,1.8-0.3C127.1,85.2,128,85.6,128.7,86.2z"
				/>
			<path d="M132.5,83.5c-0.3-0.2-0.4-0.5-0.4-0.9c0-0.4,0.1-0.7,0.4-0.9c0.3-0.2,0.6-0.4,0.9-0.4c0.4,0,0.7,0.1,0.9,0.3
				c0.3,0.2,0.4,0.5,0.4,0.9c0,0.4-0.1,0.7-0.4,0.9c-0.2,0.2-0.6,0.4-1,0.4C133,83.9,132.7,83.8,132.5,83.5z M132.4,85.3h2.1v8.9
				h-2.1V85.3z"/>
			<path d="M145.5,90.5h-7c0.1,0.7,0.4,1.2,1,1.6c0.5,0.4,1.2,0.6,1.9,0.6c1,0,1.8-0.3,2.4-1l1.1,1.3c-0.4,0.5-0.9,0.8-1.5,1.1
				c-0.6,0.2-1.3,0.4-2.1,0.4c-1,0-1.8-0.2-2.6-0.6c-0.7-0.4-1.3-0.9-1.7-1.6c-0.4-0.7-0.6-1.5-0.6-2.4c0-0.9,0.2-1.6,0.6-2.3
				c0.4-0.7,0.9-1.2,1.6-1.6s1.5-0.6,2.4-0.6c0.9,0,1.6,0.2,2.3,0.6c0.7,0.4,1.2,0.9,1.6,1.6s0.6,1.5,0.6,2.4
				C145.5,90,145.5,90.2,145.5,90.5z M139.3,87.5c-0.5,0.4-0.7,0.9-0.8,1.6h5c-0.1-0.6-0.4-1.2-0.8-1.6c-0.5-0.4-1-0.6-1.7-0.6
				C140.4,86.9,139.8,87.1,139.3,87.5z"/>
			<path d="M156.2,81.9v12.4h-2v-1.1c-0.3,0.4-0.8,0.7-1.3,0.9c-0.5,0.2-1.1,0.3-1.7,0.3c-0.9,0-1.6-0.2-2.3-0.6
				c-0.7-0.4-1.2-0.9-1.6-1.6s-0.6-1.5-0.6-2.4c0-0.9,0.2-1.7,0.6-2.4s0.9-1.2,1.6-1.6c0.7-0.4,1.5-0.6,2.3-0.6
				c0.6,0,1.1,0.1,1.6,0.3c0.5,0.2,0.9,0.5,1.2,0.9v-4.6H156.2z M152.9,92.2c0.4-0.2,0.7-0.6,0.9-1s0.3-0.9,0.3-1.5
				c0-0.6-0.1-1-0.3-1.5s-0.5-0.7-0.9-1c-0.4-0.2-0.8-0.3-1.3-0.3c-0.5,0-0.9,0.1-1.3,0.3s-0.7,0.6-0.9,1s-0.3,0.9-0.3,1.5
				c0,0.6,0.1,1,0.3,1.5s0.5,0.7,0.9,1s0.8,0.3,1.3,0.3C152,92.6,152.5,92.5,152.9,92.2z"/>
		</g>
		<g>
			<path class="st0" d="M57.5,63.1v0.7h-3.4v-4.6h3.3v0.7h-2.5v1.2h2.2v0.7h-2.2v1.3H57.5z"/>
			<path class="st0" d="M60.4,60.3v0.8c-0.1,0-0.1,0-0.2,0c-0.3,0-0.6,0.1-0.7,0.3c-0.2,0.2-0.3,0.5-0.3,0.8v1.7h-0.8v-3.5h0.8v0.5
				C59.4,60.5,59.8,60.3,60.4,60.3z"/>
			<path class="st0" d="M63.1,60.3v0.8c-0.1,0-0.1,0-0.2,0c-0.3,0-0.6,0.1-0.7,0.3c-0.2,0.2-0.3,0.5-0.3,0.8v1.7h-0.8v-3.5h0.8v0.5
				C62.1,60.5,62.5,60.3,63.1,60.3z"/>
			<path class="st0" d="M64.4,63.6c-0.3-0.2-0.5-0.4-0.7-0.6c-0.2-0.3-0.2-0.6-0.2-0.9s0.1-0.7,0.2-0.9c0.2-0.3,0.4-0.5,0.7-0.6
				s0.6-0.2,1-0.2c0.4,0,0.7,0.1,1,0.2s0.5,0.4,0.7,0.6c0.2,0.3,0.2,0.6,0.2,0.9s-0.1,0.7-0.2,0.9c-0.2,0.3-0.4,0.5-0.7,0.6
				c-0.3,0.2-0.6,0.2-1,0.2C65,63.9,64.6,63.8,64.4,63.6z M66.1,62.9c0.2-0.2,0.3-0.5,0.3-0.8s-0.1-0.6-0.3-0.8
				c-0.2-0.2-0.4-0.3-0.7-0.3s-0.5,0.1-0.7,0.3c-0.2,0.2-0.3,0.5-0.3,0.8s0.1,0.6,0.3,0.8c0.2,0.2,0.4,0.3,0.7,0.3
				S65.9,63.1,66.1,62.9z"/>
			<path class="st0" d="M70,60.3v0.8c-0.1,0-0.1,0-0.2,0c-0.3,0-0.6,0.1-0.7,0.3c-0.2,0.2-0.3,0.5-0.3,0.8v1.7H68v-3.5h0.8v0.5
				C69,60.5,69.4,60.3,70,60.3z"/>
		</g>
	</g>
</g>
</svg>
