<?xml version="1.0" encoding="utf-8"?>
<!-- Generator: Adobe Illustrator 26.0.3, SVG Export Plug-In . SVG Version: 6.00 Build 0)  -->
<!DOCTYPE svg PUBLIC "-//W3C//DTD SVG 1.1//EN" "http://www.w3.org/Graphics/SVG/1.1/DTD/svg11.dtd" [
	<!ENTITY ns_extend "http://ns.adobe.com/Extensibility/1.0/">
	<!ENTITY ns_ai "http://ns.adobe.com/AdobeIllustrator/10.0/">
	<!ENTITY ns_graphs "http://ns.adobe.com/Graphs/1.0/">
	<!ENTITY ns_vars "http://ns.adobe.com/Variables/1.0/">
	<!ENTITY ns_imrep "http://ns.adobe.com/ImageReplacement/1.0/">
	<!ENTITY ns_sfw "http://ns.adobe.com/SaveForWeb/1.0/">
	<!ENTITY ns_custom "http://ns.adobe.com/GenericCustomNamespace/1.0/">
	<!ENTITY ns_adobe_xpath "http://ns.adobe.com/XPath/1.0/">
]>
<svg version="1.1" id="Слой_1" xmlns:x="&ns_extend;" xmlns:i="&ns_ai;" xmlns:graph="&ns_graphs;"
	 xmlns="http://www.w3.org/2000/svg" xmlns:xlink="http://www.w3.org/1999/xlink" x="0px" y="0px" width="351.4px" height="440.8px"
	 viewBox="0 0 351.4 440.8" style="enable-background:new 0 0 351.4 440.8;" xml:space="preserve">
<style type="text/css">
	.st0{fill:#FFFFFF;}
	.st1{fill:#FF0F0F;}
	.st2{opacity:0.23;fill:#3F2719;}
	.st3{opacity:0.2;fill:#FFFFFF;}
	.st4{fill:none;stroke:#2D1F04;stroke-width:2.7806;stroke-linecap:round;stroke-linejoin:round;stroke-miterlimit:10;}
	.st5{fill:#CAA77A;}
	.st6{fill:#B6B1AE;}
	.st7{fill:#3399CC;}
	.st8{fill:#FFDB1F;}
	.st9{fill:none;stroke:#9D7B51;stroke-width:4.1072;stroke-linecap:round;stroke-linejoin:round;stroke-miterlimit:10;}
	.st10{fill:#FFDBAF;}
	.st11{fill:#9D7B51;}
	.st12{fill:#251707;}
	.st13{fill:#D3E5EA;}
	.st14{fill:#2D1F04;}
	.st15{fill:none;stroke:#2D1F04;stroke-width:8.0658;stroke-linecap:round;stroke-linejoin:round;stroke-miterlimit:10;}
	.st16{opacity:0.23;fill:#2D1F04;}
	.st17{opacity:0.28;fill:#FFFFFF;}
</style>
<metadata>
	<sfw  xmlns="&ns_sfw;">
		<slices></slices>
		<sliceSourceBounds  bottomLeftOrigin="true" height="440.8" width="351.4" x="1536.1" y="-774.1"></sliceSourceBounds>
	</sfw>
</metadata>
<g>
	<path class="st0" d="M229,377.8c9.2,0,15-0.4,18.9-1.3c4.8-1.1,8.6-4,10.7-8.1c1.2-2.2,1.7-4.5,1.8-6.8c1.2,0.1,2.3,0.1,3.4,0.1
		c11.8,0,21.3-3.1,26.7-8.8c4.4-4.7,5.8-10.9,3.8-16.8c-0.1-0.4-0.4-1.1-0.7-2.2c1.7-0.4,3.4-0.6,5.2-0.6c3.4,0,6.7,0.7,10,2.1
		c0,1.5,0,2.9-0.1,4.3c-0.2,3.9,1.5,7.6,4.6,9.9c2,1.5,4.3,2.2,6.8,2.2l0,0c1.4,0,2.8-0.3,4.1-0.8c4.9-1.9,21.2-9.2,26-24.3
		c2.5-7.9,1.2-15.9-3.7-23.2c-6.9-10.4-15.1-24.6-23.8-41.3c0.4-1.5,0.6-3,0.8-4.5c1.2-12.4-13.6-44.6-30-65.8
		c-0.8-4.9-4.2-8.7-6-10.9l-0.1-0.1c-0.2-0.3-0.5-0.5-0.6-0.7c-0.3-0.4-0.7-0.9-1-1.3c-1.7-5.2-3.2-10.1-4.7-14.9
		c-6.3-20.9-12.8-42.4-36-42.4c-0.1,0-0.1,0-0.2,0c-3.1-2.4-6.2-3.6-9-4.3c-5.7-31.2-22.1-69.3-66.2-89.9
		c-5.7-2.7-11.3-4.6-16.8-6.4c-2.2-0.7-4.4-1.4-6.6-2.2c-0.7-2.5-2.1-4.1-2.8-4.9c-0.7-0.8-1.6-1.4-2.5-1.9
		c-0.4-3.9-2.8-7.3-6.3-9.1C134.4,3,128.4,0,120.6,0c-6.4,0-12.3,2-17.1,5.8c-1,0.8-1.9,1.6-2.7,2.5c-1.3-0.5-2.6-0.7-4-0.7
		c-0.7,0-1.3,0.1-2,0.2c-7,1.2-12.1,5.3-15.2,10c-1.9,0.1-3.8,0.7-5.4,1.7c-7.8,4.8-11.5,12.9-9.7,21c0.1,0.6,0.3,1.3,0.5,1.9
		c-1,3.5-0.7,7.1,0.8,10.3c-1.2,1.6-2.4,3.4-3.5,5.2c-0.9,1.5-1.8,3.1-2.6,4.8C57.9,63.9,56,65.3,54,67c-5.9,5-6.6,13.9-1.6,19.8
		c0.2,0.3,0.4,0.5,0.7,0.7c-1.2,15.1,2.1,31.8,9.8,49.7c-4,2.5-8,6-9.9,10.8c-0.7,1.7-1.1,3.5-1.2,5.3c-4.5,5.4-7.4,12.1-8.5,19.9
		c-2.8,3.3-5.7,6.9-8.7,11c-0.2,0.2-0.4,0.5-0.7,0.8c-1.9,2.2-5.4,6.1-6.1,11.1c-15.2,21.4-23.9,54.4-22.8,65.2
		c0.6,5.8,2.7,11,6.5,15.7c-5.2,20.6-11.6,48-11.4,53.3c0.3,12.6,16.3,24.2,35.7,25.9c0.3,0,0.7,0,1,0c3.6,0,7-1.7,9.2-4.6
		c2.3-3.2,2.9-7.4,1.4-11.1c-0.1-0.2-0.2-0.4-0.2-0.6c4-2.2,8.6-3.4,13.5-3.6c-0.2,5,2.2,9.7,6.5,12.7c2.6,1.8,6,3.1,10.1,3.7
		c-2.9,2.8-7.3,8.3-4.6,15.3c2,5.3,6.6,7.9,13.6,7.9c1.4,0,4.9-0.1,12-0.4l0.4,0c9.5-0.4,22.5-1,30.8-1.1c3.9-0.1,8.3-0.2,12.5-0.4
		c2-0.1,3.9-0.1,5.6-0.2l0.7,0c3.6-0.1,7.3-0.3,10.8-0.9c3,2,6.6,2.3,9.3,2.6c4,0.4,10.4,0.7,24.7,1.2l6,0.2
		C209.2,377.4,219.9,377.8,229,377.8z"/>
	<path class="st0" d="M343.5,428.9c0,4.3-2.9,9.3-9.3,10.3c-1.3,0.2-3.4,0.3-9,0.3c-5.2,0-7.2-0.2-8.3-0.3c-1.2-0.2-2.9-0.4-4.7-1.5
		c-0.8-0.4-1.5-0.9-2.1-1.6c-1.1,1.2-2.5,2.1-4.2,2.6c-0.8,0.3-1.6,0.4-2.5,0.5l-1.1,0.1c-1.9,0.1-4.5,0.2-8,0.2
		c-5.6,0-7.4-0.2-8.8-0.4c-4-0.8-7.1-3.6-8.4-7.2c-6.8,5.9-15.1,8.9-24.7,8.9c-11,0-20.2-3.9-27.5-11.7c-2.3-2.4-4.2-5-5.8-7.8
		c0.1,2.8,0.1,5,0.1,6.8c0,4.1-2,7.7-5.4,9.6c-1.9,1.1-3.7,1.3-4.8,1.4c-2,0.3-4.7,0.4-8.2,0.4c-4.1,0-6.7-0.1-8.7-0.4
		c-0.1,0-0.2,0-0.2,0c-3.7-0.6-6.6-2.9-8.1-6c-1.8,3.7-5.6,6.1-10,6.1c-0.5,0-1.4,0-2.5,0.1c-1.5,0.1-2.5,0.1-3.3,0.1
		c-1,0-2.2-0.1-3.8-0.2c-1.6-0.1-2.2-0.1-2.3-0.1c-2.6,0-6.4-0.9-9.7-5.3c-0.8-1.1-2-2.7-3.6-4.8c-0.5,5.9-5.1,10.2-11,10.2h-13.7
		c-1.5,0-2.9-0.3-4.2-0.8c-1.7,0.9-3.5,1.4-5.5,1.4c-0.7,0-1.5-0.1-2.6-0.2c-0.4-0.1-2.9-0.3-15.4-0.3c-2,0-5.1,0-9.1,0
		c-4,0-7,0-9,0c-1.8,0-3.4-0.4-4.9-1.1c-1.4,0.7-3.1,1.1-4.8,1.1h-14c-2.3,0-4.4-0.6-6.1-1.8c-1.2,1-2.6,1.7-4.2,2.2
		c-0.2,0.1-0.4,0.1-0.6,0.2c-1,0.2-1.9,0.2-3.5,0.2c-4,0-6.7-1.2-8.6-2.8c-1.8,1.2-4,2-6.4,2H11.9c-5.2,0-8-2.9-9.2-4.6
		c-1.3-1.9-2-4.1-2-6.6c0-3.1,0.1-7.5,0.4-13.4c0.3-5.6,0.4-9.8,0.4-12.5c0-2.9-0.1-8.6-0.4-16.9v-0.2c0-2-0.1-5.2-0.3-9.3
		c0,0,0-0.7-0.1-0.7c-0.1-2.9,0.9-5.7,2.9-7.8c1.5-1.6,4.2-3.5,8.8-3.5c1.3,0,3.4,0,6.2-0.1c3-0.1,5.3-0.1,6.8-0.1
		c3.1,0,7.4,1.3,10.2,7.4c0,0,4.5,9.9,4.5,9.9c1.4-3,2.9-6.2,4.6-9.8c3.1-6.9,8.8-7.4,10.6-7.4c0.9,0,2.2,0,4,0.1
		c1.7,0.1,2.6,0.1,3,0.1c0,0,0.5,0,2.1-0.1c1.7-0.2,3-0.2,4-0.2c1.9,0,3.6,0.4,5.2,1.2c1.3-0.5,2.8-0.8,4.3-0.8c2.1,0,5,0.1,9.1,0.2
		c3.8,0.1,6.6,0.1,8.5,0.1c1.8,0,4.7,0,8.4-0.1c4-0.1,6.9-0.2,9-0.2c2.3,0,4.4,0.5,6.2,1.5c1.5-0.7,3.3-1.1,5.3-1.1
		c1.2,0,2.8-0.1,4.7-0.3c0,0,0.6-0.1,2.2-0.4c2-0.4,3.6-0.5,5-0.5c3.7,0,6.9,1.8,9.5,5.4l4.1,5.5c0.8-6.4,5.9-9.8,10.7-9.8
		c1.4,0,3.7-0.1,6.7-0.2c3.4-0.1,5.9-0.2,7.6-0.2c1.2,0,2.4,0.2,3.5,0.6c1.6-0.6,3.1-0.8,3.9-0.8c0.1,0,0.6,0,1.4,0.1
		c0.2,0,0.3,0,0.5,0.1c3.8,0.5,9.8,0.8,17.6,0.8c1.4,0,4.8-0.1,12.3-0.7c5.5-0.4,5.5-0.4,6-0.4c1.2,0,4.4,0,7.3,2.4
		c1.2,1,2.2,2.2,2.8,3.7c6.3-4.7,13.8-7,22.3-7c9.6,0,17.9,3,24.8,9.1c1.2-3.2,4-6.2,8.8-7c1-0.2,2.1-0.4,13.7-0.6
		c5-0.1,8.9-0.2,11.9-0.2c8.1,0,15,2,20.5,5.9c6.9,5,10.6,12.3,10.6,21.4c0,5.4-0.9,9.9-2.6,13.6c-1,2-2.2,3.9-3.9,5.7
		c0.5,1,1.1,2.1,1.7,3.4C342.9,424.4,343.5,426.3,343.5,428.9z"/>
	<g>
		<path class="st1" d="M320.2,340.4c0.2-3.7,0.1-7.7-0.4-12c-11-7.3-23.6-8.3-34.5-3.7c-1.9,0.8-3.8,1.8-5.7,2.9c0,0,0,0.1,0,0.1
			c2.1,6.5,3.5,10.7,4,12.1c2.7,7.8-18.1,14.4-41.9,7.7c-14.5-33.9-50.6-170.7-50.6-170.7s29.6-37.8,47-42.8
			c14.4-4.2,23.1,3.4,27.6,19.1c16.6,58,33,87.3,51.8,123.5c11.4,22,20.3,32.7,22.4,39.6C342.5,324.6,333.7,335.3,320.2,340.4z"/>
		<path class="st2" d="M247,293.7c-3.1,4.9-1.8,21.9,1.3,34.7s4.6,17.4,5.7,21c-2.5-0.4-4.8-1-8.3-1.8c-3.9-7.9-7-25.3-6.8-37
			c0.2-13.1,2.9-15.9,4.2-16.3C243.6,294.2,247,293.7,247,293.7z"/>
		<path class="st2" d="M247.9,272.7c5.1-1.9,15.8-9.7,15.2-13.2c-0.6-3.5-9.4-5.6-14-9.4C248.9,256.6,248.4,266.5,247.9,272.7z"/>
		<path class="st3" d="M246.3,287.3c7.1,23.8,12.1,42.3,17.8,62.9c6.1,0.4,12.9-1.2,17-4c-5.4-17-13.3-40.4-20.3-60.8
			C255.9,286.1,251.1,286.7,246.3,287.3z"/>
		<path class="st1" d="M210.6,351.7c-15.2-6.7-44.2-12.7-62-6.4c-3.6-13.9-30.2-87.9-45.5-157.1l49.3,0.8
			C152.4,188.9,196.8,318.1,210.6,351.7z"/>
		<path class="st1" d="M37,344.9c-1.2-2.9-2.1-6-2.7-9.5c8.8-8,20.7-11.4,32.4-10.1c2.1,0.2,4.2,0.6,6.2,1.1c0,0,0,0.1,0,0.1
			c-0.4,5.5-0.7,9.2-0.8,10.3c-0.6,6.7,21.2,7.6,42.4-2.6c5.3-29.6,5.4-144.6,5.4-144.6l-62.7-16.8
			c-23.3,51.5-45.7,151.8-45.6,157.3C11.8,335.6,22.6,343.6,37,344.9z"/>
		<path class="st2" d="M62.6,247.3c-1.8,20.5-0.2,33.9,3.2,39.7s2.2,29.8-4,37.9c3.5,0,6.6,0.5,11.1,1.6c1.5-12.7,2.5-43.3,3.7-60.6
			c-0.6-3.8-1.7-12-2.1-18.6S62.6,247.3,62.6,247.3z"/>
		<path class="st3" d="M76.9,341.1l3.6-45.8l6.6,0.6l2,45.7C84.7,342.2,80.6,342.1,76.9,341.1"/>
		<path class="st2" d="M90.5,297.2c4.2,9,8.1,20.9,8.3,27.7c0.1,6.8,0.1,11.6,0,15c2.2-0.6,8.2-2.3,11.7-3.9
			c-2-6.5-3.7-11.3-2.9-18.7C104,313.7,97.6,308.3,90.5,297.2z"/>
		<g>
			<path class="st2" d="M302.9,321.2c3.8-5.7,1.5-18.1-1.1-30.8c-3.1-15.2-11.6-32.3-22-27c-13.5,6.7-1.1,38.3,8.2,59.6
				c-1.1,0.4-2.2,0.8-3.3,1.4c-0.1,0-0.2,0.1-0.2,0.1c-1.6,0.7-3.2,1.6-4.7,2.5c-10.1-30.7-35.8-110.4-50.7-162.5l-3.1-10.9l8.7-5.6
				l9.3,13.6c44.5,73.8,72,130.3,75.9,166C314.4,324,308.6,321.9,302.9,321.2z"/>
			<path class="st2" d="M210.6,351.7c-15.2-6.7-44.2-12.7-62-6.4c-3.6-13.9-30.2-87.9-45.5-157.1l49.3,0.8
				C152.4,188.9,196.8,318.1,210.6,351.7z"/>
			<path class="st2" d="M26.1,288c-3.7,21.5-12.2,45.3-2.4,53.7c-7.2-3.2-11.9-7.9-12-11.5c-0.1-5.5,22.3-105.8,45.6-157.3l2.6,0.7
				C45.3,213.9,29.6,267.5,26.1,288z"/>
			<path class="st2" d="M47.4,327.3c-4.7,1.7-9.1,4.4-13,8c-5-27.6,12.9-94.8,35.4-159.2l7,1.9C65.9,219.7,36.3,285.7,47.4,327.3z"
				/>
		</g>
		<path class="st4" d="M279.8,327.7c12.4-8.1,26.9-8.3,40.1,0.6"/>
		<path class="st4" d="M320,328.4c-3.9-35.8-31.4-92.3-75.9-166.2"/>
		<path class="st4" d="M104.4,188.1c15.3,69.2,41.9,143.2,45.5,157.1c15.8-6.2,46.8-0.3,62,6.4c-13.8-33.6-58.2-162.7-58.2-162.7
			L104.4,188.1z"/>
		<path class="st4" d="M320,328.4c-3.9-35.8-31.4-92.3-75.9-166.2"/>
		<path class="st4" d="M228.6,164.3c14.9,52.1,41.1,132.7,51.2,163.4"/>
		<g>
			<path class="st4" d="M72.9,326.5c-14-3.8-28.1-0.9-38.7,8.8"/>
			<path class="st4" d="M34.3,335.4c0,0,0-0.1,0-0.1c-5-27.6,12.9-94.8,35.4-159.2"/>
			<path class="st4" d="M72.9,326.4c1.9-26.2,6.4-94.2,7.5-138.2"/>
			<path class="st4" d="M37,344.9c-1.2-2.9-2.1-6-2.7-9.5c8.8-8,20.7-11.4,32.4-10.1c2.1,0.2,4.2,0.6,6.2,1.1c0,0,0,0.1,0,0.1
				c-0.4,5.5-0.7,9.2-0.8,10.3c-0.6,6.7,21.2,7.6,42.4-2.6c5.3-29.6,5.4-144.6,5.4-144.6l-62.7-16.8
				c-23.3,51.5-45.7,151.8-45.6,157.3C11.8,335.6,22.6,343.6,37,344.9z"/>
		</g>
		<path class="st5" d="M281.7,195.6c2.2-2-2.5-6.3-4-8.3c-20.8-27.6-34.5-36.8-50.4-35.9c0.4-46.4-16.4-92-62.5-113.5
			c-7.5-3.6-15.4-5.6-23.3-8.5c-1.5-0.5-4.6-1.3-5.7-3c-1.2-1.8-0.4-4.4-0.5-4.4c-6.7,1.1-3.7,7.1-3.7,7.1s-1.3-0.1-2-0.2
			c-2.8-0.6-5.7-3.1-5.5-7.3c0.3-5.6,6.3-7.9,5.4-8.4c-0.2-0.1-10.9-5-19,1.4c-4.5,3.5-6.6,8.4-5.1,14.8C95.5,27.8,97,19,96.9,19.1
			c-9,1.6-12.3,12.1-5.9,16.3c0,1.1-4.3,0.8-7.3-1.2c-2.2-1.5-3.1-5-3.4-4.9c-8.4,5.2-4.5,14.3,3,15.1c0.6,0.1,1.7,0.1,1.5,0.7
			c-0.1,0.2-1.7,1.4-4.6,1.4c-2.9,0-4-1.4-4.1-1c-1.3,3.9,5.1,7.2,7.5,6c-5,3.4-8.4,7.3-11.7,13c-14.3,24.9-6.6,52.8,5.2,76.4
			c1,2.1,2.5,4.5,2.9,6.8c0.2,1.2-0.5,3.1,0,4.2c0.2,0.4,1.2-1.1,1.3-0.7c0.2,1.9,0.1,4-0.1,5.9c-10.9,4-22.7,14.7-37.5,34.2
			c-1.5,2-6.2,6.3-4,8.3c-14.9,18.7-24.1,53-23.4,60.9c0.9,9,8,16.3,27.9,24.6c17.3,7.3,28.8,9.1,39.6,9.4c1,0,2.5,0.1,3-2.6
			c3.7,7.2,12.4,17.6,19.5,24.6c0.5,0.5,1.1,1,1.6,1.5c-2.2,7.5,3.3,23.6,9,29.2c-13.5-0.4-29.6,12-30.7,13c-4.7,4.3-3.2,4.6,0,4.6
			s29.3-1.3,43-1.6c5.6-0.1,12.4-0.4,18-0.6c3.4-0.1,19.3-0.2,16.8-6c-2.9-6.8-6.4-16.2-6.8-21.5c8.8,0.5,17.5,0,25.4-1.8
			c2.3,6.7,7,12.2,13.6,14.5c-19,3.3-26.3,10-30.8,15.6c-0.6,1.2,14.2,1.6,30.5,2.3c18.9,0.7,41.9,1.7,49.7-0.1
			c7.8-1.8,1.2-13.3-0.3-17.9c-5.1-15.6-10.1-37.2-2.5-52.8c3.2-0.7,7-1.6,12-1.9c9.5-0.6,20.3-2.4,29.9-6.5
			c19.9-8.4,26.6-20.4,27.5-29.5C312.9,248.8,299.1,216.5,281.7,195.6z M60.6,261.7c0-2.6,8.3-4.4,13.8-8.8c0.7,7.6,2.1,15.3,5,23.4
			C76.7,274.7,60.6,264.1,60.6,261.7z M247.3,272.9c1-7.6,1.6-15.6,1.4-22.7c5.7,3.9,14.5,7.1,14.2,9.4
			C262.5,262.8,257.3,268.3,247.3,272.9z"/>
		<g>
			<path class="st6" d="M217,366.2c-2.7-0.1-5.5-0.2-8.3-0.3c-1.3,0-2.6-0.1-3.9-0.1c-3-0.1-6-0.2-8.9-0.3c-0.4,0-0.9,0-1.3-0.1
				c-0.3,0-0.6,0-0.9,0c-1.6-0.1-3.1-0.1-4.6-0.2c-0.3,0-0.7,0-1,0c-2.7-0.1-5.4-0.2-7.8-0.3c-0.4,0-0.7,0-1.1,0
				c-0.4,0-0.8,0-1.2-0.1c-0.5,0-1-0.1-1.4-0.1c-0.5,0-0.9-0.1-1.4-0.1c-0.5,0-1-0.1-1.5-0.1c-0.5,0-1-0.1-1.5-0.1
				c-0.9-0.1-1.8-0.1-2.6-0.2c-0.4,0-0.7-0.1-1.1-0.1c0,0-0.1,0-0.1,0c-0.3,0-0.6-0.1-0.8-0.1c-0.2,0-0.4-0.1-0.5-0.1
				c-0.1,0-0.2,0-0.2,0c-0.4-0.1-0.7-0.1-0.9-0.2c-0.1,0-0.1-0.1-0.2-0.1c-0.1,0-0.1-0.1-0.2-0.1c0,0-0.1-0.1-0.1-0.1
				c0-0.1,0-0.1,0-0.2c0.6-0.8,1.3-1.6,2.1-2.4c0.3-0.3,0.5-0.6,0.8-0.8c0.3-0.3,0.6-0.6,0.9-0.8c0.3-0.3,0.6-0.5,0.9-0.8
				c2.1-1.8,4.8-3.7,8.2-5.3c0.6-0.3,1.2-0.6,1.9-0.9c0.1,0,0.1-0.1,0.2-0.1c0.3-0.1,0.6-0.3,1-0.4c0.4-0.2,0.9-0.4,1.4-0.5
				c0.4-0.2,0.8-0.3,1.3-0.4c0.3-0.1,0.6-0.2,1-0.3c0.4-0.1,0.7-0.2,1.1-0.3c0.2-0.1,0.5-0.1,0.7-0.2c0.3-0.1,0.6-0.2,0.9-0.3
				c0.3-0.1,0.6-0.2,0.9-0.2c1-0.3,2.1-0.5,3.2-0.8c0.6-0.1,1.1-0.2,1.7-0.4c0.9-0.2,1.7-0.3,2.7-0.5
				C204.5,350.9,212.9,356.9,217,366.2z"/>
			<path class="st6" d="M131.4,363c-0.7,0-1.5,0-2.2,0.1c-13.7,0.2-39.8,1.6-43,1.6c-1.3,0-2.4-0.1-2.8-0.4
				c-0.5-0.4-0.2-1.2,1.4-2.9c0.1-0.1,0.2-0.2,0.3-0.3c0.1-0.1,0.2-0.2,0.3-0.3c0.2-0.2,0.5-0.5,0.7-0.7c1.1-1,17.3-13.5,30.7-13h0
				C122.6,350.7,128.4,356.1,131.4,363z"/>
		</g>
		<g>
			<path class="st7" d="M81.9,172.9c-0.9,0.7-2.6,3.3-3.1,4.2c-1,2.1,1.2,3.9,1.1,5c-0.1,1.3-2.7,5.9-5.2,10.7
				c-1.8,3.4-3.2,6.9-4.1,10.4c-0.9,3.4-1.5,6.8-1.8,10.1c-8.4-7.5-19.9-11.2-27.1-12.8c-6.1-1.3,0.2-6.7,2-9.1
				c14.9-19.7,26.5-30.3,37.5-34.2c0,0.3-0.1,0.6-0.1,0.9c-0.1,0.8-1,3-0.4,2.4c0.2-0.2,0.7-2,1.5-1.7
				C82.7,158.8,82.2,171.7,81.9,172.9z"/>
			<path class="st7" d="M280.1,196.4c-25.7,12-32.9,26.3-41.6,36.8c-0.1,0.1-0.2,0.2-0.2,0.3c1.5,5.8,3.9,10.9,9,15.2
				c0.6,0.5,1.2,1,1.9,1.4c0.2,7.3-0.2,14.9-1.2,22.6c-1.5,0.7-3.1,1.4-4.9,2c-8,3-17.4-6.6-29.8,0.5c-6.6,3.8-9.3,11.8-9.6,14.4
				c-0.3,2.7,8.3-6.2,26.6,3.9c4.6,2.5,8.1,2,12.9,0.9c-0.5,1.1-1.1,2.5-1.5,3.6c-10.1,11.8-34.7,18.7-53.7,21.9
				c-33.7,5.7-63.3,3-84.7-7.5c-13-13.7-20.1-26.2-24-38c-0.7-2.2-1.4-4.4-1.9-6.6c-2.5-10-3-19.5-3.4-28.8
				c-3.3-1.9-9.8-25.8,1.2-46.7c2.5-4.7,5-9.4,5.2-10.7c0.1-1.1-2-2.9-1.1-5c0.7-1.4,4.1-6.5,3.6-3.7c42.9,12.3,85.9,3.5,91.2,2.3
				c7.8-1.7,16.2-4.2,24.6-7c4-6.8,10.2-13,19.8-15.6c6.8-1.8,13-2.3,19.1-0.8c12.1,2.9,24.2,13.3,40.6,35.1
				C279.9,189.6,285.7,193.7,280.1,196.4z"/>
		</g>
		<g>
			<g>
				<polygon class="st1" points="100.2,243 86.9,214.7 101.3,200.4 148.2,203.4 160.9,219.3 140.9,245.7 119.7,257.4 				"/>
				<polygon class="st8" points="104.6,238.7 94.3,215.9 103.5,206.8 145.3,209.4 153.5,219.6 136.9,240.9 120.2,250.2 				"/>
			</g>
			<polygon class="st4" points="100.2,243 86.9,214.7 101.3,200.4 148.2,203.4 160.9,219.3 140.9,245.7 119.7,257.4 			"/>
			<path class="st1" d="M104.2,208.4c5.6,0.5,10.6,0.7,15.5,1.2c4,0.4,5,3.3,4.7,6c-0.4,3.7-2.6,6.1-6.3,7.3
				c-0.2,0.1-0.4,0.1-0.8,0.2c3.7,2.5,3.6,7.3,5.9,11.7c-3-0.2-5.6-0.4-8.4-0.5c-1.3-2.8-2.4-5.6-3.3-8.3c-0.5-1.5-1.2-2.6-3.4-2.3
				c-0.7,3.2-1.2,6.5-1.1,10.1c-2.6-0.2-5-0.3-7.5-0.4C99.1,224.9,102.5,216.6,104.2,208.4z M110.7,214.1c-0.4,1.6-0.8,3.2-1.3,5
				c1.7,0,3.2,0.1,4.8,0c1.4-0.1,2.3-1,2.6-2.2c0.3-1.3-0.2-2.3-1.6-2.5C113.8,214.1,112.3,214.1,110.7,214.1z M142.5,210.8
				c-3-1.2-6.1-1.3-9.3-0.5c-3.4,0.8-5.7,3.3-6.5,6.3c-0.7,2.8,0.3,5.2,3.2,6.7c1.5,0.8,3.2,1.3,4.8,1.9c0.8,0.3,1.6,0.6,2.4,1
				c0.9,0.5,1.4,1.3,1.2,2.4c-0.2,1.2-1,1.9-2.1,2.3c-2.4,0.8-4.7-0.5-5.2-3c-0.1-0.5-0.1-0.9-0.2-1.4c-2.4,0-4.6,0-6.8,0
				c-0.6,4.1,1.5,7.5,4.9,8.8c2.6,1,5.3,1.3,8.1,0.9c1.7-0.2,3.6-0.9,5.1-1.9c4.7-3.1,6.2-10.2,0.7-13.2c-0.9-0.5-1.8-0.9-2.7-1.2
				c-1.7-0.6-3.3-1.1-5-1.7c-0.9-0.3-1.6-0.7-1.5-2c0.7-1.4,1.8-1.8,3.1-1.7c2,0.2,3,1.3,3,3.4c2.3,0,4.6,0,7.1-0.1
				C146.9,214.2,145.6,212,142.5,210.8z"/>
		</g>
		<g>
			<path class="st2" d="M164.1,358.5c-0.1,0.1-0.1,0.2-0.2,0.4c-0.1,0.2-0.3,0.5-0.6,0.7c-0.2,0.2-0.5,0.4-0.8,0.6
				c-0.2,0.1-0.3,0.2-0.5,0.3c-0.5,0.2-1,0.4-1.6,0.6c-1.3,0.4-2.7,0.7-4.2,0.9c-0.2,0-0.5,0.1-0.7,0.1c-0.2,0-0.5,0.1-0.7,0.1
				c-0.2,0-0.5,0.1-0.7,0.1c-1.7,0.2-3.3,0.2-4.6,0.3c-0.2,0-0.3,0-0.5,0c-0.1,0-0.2,0-0.3,0c-0.1,0-0.3,0-0.4,0c-0.4,0-0.7,0-0.9,0
				c-0.3,0-0.6,0-0.9,0c-0.3,0-0.6,0-0.9,0c-0.8,0-1.7,0.1-2.5,0.1c-0.7,0-1.3,0.1-2,0.1c-0.5,0-1,0-1.4,0.1c-1.1,0-2.2,0.1-3.3,0.1
				c-1.6,0.1-3.2,0.1-4.7,0.1c-0.7,0-1.5,0-2.2,0.1c-13.7,0.2-39.8,1.6-43,1.6c-0.2,0-0.4,0-0.6,0c-0.1,0-0.3,0-0.4,0
				c-0.1,0-0.1,0-0.2,0c-0.1,0-0.1,0-0.2,0c-0.2,0-0.4,0-0.5-0.1c-0.1,0-0.1,0-0.2,0c-0.1,0-0.2,0-0.2-0.1c0,0,0,0-0.1,0
				c0,0-0.1,0-0.1,0c-0.1,0-0.1,0-0.1-0.1c-0.1,0-0.1-0.1-0.1-0.1c0,0-0.1-0.1-0.1-0.1c-0.1-0.1-0.1-0.3-0.1-0.5c0,0,0-0.1,0-0.1
				c0-0.1,0.1-0.2,0.1-0.3c0,0,0,0,0-0.1c0,0,0-0.1,0.1-0.1c0-0.1,0.1-0.1,0.1-0.2c0.1-0.1,0.1-0.2,0.2-0.3c0,0,0.1-0.1,0.1-0.1
				c0.1-0.1,0.3-0.3,0.4-0.5c0.1-0.1,0.2-0.2,0.2-0.3c0.1-0.1,0.2-0.2,0.3-0.3c0.1-0.1,0.2-0.2,0.3-0.3c0.1-0.1,0.2-0.2,0.3-0.3
				c0.2-0.2,0.5-0.5,0.7-0.7h0c0,0,0,0,0.1-0.1c0,0,0,0,0,0c0,0,0,0,0.1-0.1c0,0,0.1-0.1,0.1-0.1c0,0,0,0,0,0c0,0,0.1-0.1,0.1-0.1
				c0.2-0.2,0.5-0.4,0.9-0.7c0,0,0,0,0,0c0,0,0.1-0.1,0.1-0.1c0,0,0.1-0.1,0.1-0.1c2.2-1.6,6.5-4.6,11.7-7.2
				c0.1-0.1,0.3-0.1,0.4-0.2c1-0.5,2.1-1,3.1-1.4c0.2-0.1,0.3-0.1,0.5-0.2c0.1,0,0.1,0,0.1-0.1c0,0,0,0,0,0c0.6-0.2,1.2-0.5,1.9-0.7
				c0,0,0,0,0,0c0.9-0.3,1.8-0.6,2.7-0.9c0.3-0.1,0.6-0.2,0.8-0.2c0.8-0.2,1.6-0.4,2.5-0.6c0.1,0,0.1,0,0.2,0c0,0,0,0,0,0
				c0,0,0,0,0.1,0c0.2,0,0.4-0.1,0.7-0.1c0.1,0,0.2,0,0.3,0c0.1,0,0.1,0,0.2,0c0.1,0,0.1,0,0.2,0c0.2,0,0.4-0.1,0.6-0.1
				c0.1,0,0.2,0,0.3,0c0.3,0,0.7-0.1,1-0.1c0.4,0,0.8,0,1.1,0c0.2,0,0.5,0,0.7,0h0c-0.1-0.1-0.3-0.3-0.5-0.5
				c-0.6-0.6-1.2-1.4-1.8-2.2c-4.8-7-8.7-20.1-6.7-26.7c11,9.8,30.2,16.1,49.3,17.2c0,0,0,0.1,0,0.1h0c0.3,4.2,2.5,10.9,4.9,16.9
				c0.4,1.2,0.9,2.3,1.3,3.3c0,0,0,0,0,0c0.2,0.4,0.4,0.9,0.5,1.3C164.4,357.3,164.4,358,164.1,358.5z"/>
			<path class="st2" d="M248.5,363.4c-0.2,0.3-0.4,0.5-0.6,0.7c-0.6,0.6-1.4,1-2.4,1.2c-5,1.2-16.2,1.2-28.6,0.8c-0.2,0-0.3,0-0.5,0
				c-1.1,0-2.3-0.1-3.5-0.1c-2.3-0.1-4.6-0.2-6.9-0.2c-0.6,0-1.1,0-1.7-0.1c-0.6,0-1.2,0-1.9-0.1c-0.8,0-1.6-0.1-2.4-0.1
				c-1.4-0.1-2.8-0.1-4.2-0.2h0c-1.1,0-2.1-0.1-3.1-0.1c-0.4,0-0.9,0-1.3-0.1c0,0,0,0,0,0c0,0-0.1,0-0.1,0c-0.2,0-0.4,0-0.6,0
				c0,0,0,0,0,0c-0.5,0-1,0-1.4-0.1c-1.5-0.1-2.9-0.1-4.3-0.2c-0.3,0-0.6,0-0.9,0c-0.1,0-0.2,0-0.3,0c-0.2,0-0.4,0-0.7,0
				c-0.7,0-1.3-0.1-1.9-0.1c-0.3,0-0.6,0-0.8,0c-0.3,0-0.7,0-1,0c-1.1,0-2.1-0.1-3-0.1c-0.2,0-0.4,0-0.6,0c-0.2,0-0.3,0-0.5,0
				c-0.1,0-8.3-0.8-8.4-0.8c12.6-5,34.5-6.4,44.9-5.8h0.1c4.6,0.3,8.3,0.7,10.3,0.8c7,0.3,9.6-1.3,6.6-11.3c-2.8-9.4-6.3-25.7-6-37
				c7.6-3.2,14.2-7.1,18.5-11.9c-5.1,15.2-0.5,34.5,4.2,48.7C246.5,351.2,251,359.4,248.5,363.4z"/>
		</g>
		<path class="st2" d="M195.4,328.7c3.1-2,9.3-5.9,11.2-8.5c-37,16.4-72,8.9-92.5,1.8c18.9,10.6,34.4,13.2,49,13.2
			S187.2,332,195.4,328.7z"/>
		<g>
			<path class="st2" d="M74.1,246.1c15.6,3.5,44.2-1.3,44.7-1.2c0.5,0.1,5.8,1.2,19,4.7c13.2,3.5,28.7,6.7,36.7,6.7
				c3,0,6.8-2.7,10.9-7.3c4.3-4.8,7.9-10.5,11.4-16.8c-7.4,11.1-16.5,16-19.1,16.7c-3.2,0.9-4.3,0.9-8.9,0.5
				c-14.8-1.1-45.7-10-49.1-10.5c-2.4-0.3-36.6,5.6-46.1-1.3"/>
			<path class="st2" d="M102.9,260.8c-8.9,0.4-19.8,6.5-23.7,13.9c-0.7-2.2-1.4-4.4-1.9-6.6C84,263,92.7,260.3,102.9,260.8z"/>
			<path class="st2" d="M243.1,294.5c-0.5,1.1-1.1,2.5-1.5,3.6c-10.1,11.8-34.7,18.7-53.7,21.9c-33.7,5.7-63.3,3-84.7-7.5
				c-2.6-2.7-5-5.4-7.1-8c3,1.4,6.9,3.4,10,4.9c8.8,4.1,17.8,4.8,19.8,1.7c1-1.6,2.4-4.9,1.6-8.8c-1.1-5.4-4.6-15.9-1.9-26
				c-1.4,11.5,5.7,20.3,6.1,28.8c0,9.4,8.6,11.1,18.1,11.7c7.4,0.5,14.5,0.5,28.1-1c14.2-1.5,16.7-5.6,16.8-14.3
				c0.1-6.4-1.5-17.3-4.7-22.7c-4-6.6-17.6-11.1-32.3-14.3c9.9-0.2,29.6,1.3,39,9.7c3.1,2.7,6.4,5.7,9.5,8.3
				c-1.7,2.9-2.5,5.8-2.6,7.2c-0.2,1.7,3.2-1.2,10.2-1.1c2.4,0,5.3,0.4,8.6,1.5c2.4,0.8,4.9,1.9,7.8,3.4
				C234.7,296.1,238.3,295.6,243.1,294.5z"/>
			<path class="st2" d="M247.9,272.7c-1.5,0.7-3.1,1.4-4.9,2c-4.5,1.7-9.5-0.7-15.3-1.7c0.5-4.3,0.6-8.9,0.3-13
				c-0.6-7.6-2-19.1-6.4-23.9c-4.4-4.8-10.2-11.6-13.5-15.9c11.4,2.7,15.8,6,20.3,8.9c1.4,3.6,4,9.2,9.9,4.3
				c1.5,5.8,3.9,10.9,9,15.2c0.6,0.5,1.2,1,1.9,1.4C249.3,257.4,248.9,265,247.9,272.7z"/>
			<path class="st2" d="M280.1,196.4c-2.9,1.4-5.7,2.8-8.2,4.2c0,0,0,0,0,0c-4.3,2.3-6.7-9.9-20-25.2
				c-12.8-14.7-32.8-24.1-44.3-17.2c3-2.3,6.6-4.1,10.8-5.2c6.8-1.8,13-2.3,19.1-0.8c12.1,2.9,24.2,13.3,40.6,35.1
				C279.9,189.6,285.7,193.7,280.1,196.4z"/>
			<path class="st2" d="M190.6,171.1c-0.4,6.3,0.1,10.9,1.1,15.3c1-5.5,3.6-13.6,7-17.9C196.1,169.4,192.7,170.6,190.6,171.1z"/>
		</g>
		<path class="st2" d="M164.9,38c-7.5-3.6-15.4-5.6-23.3-8.5c-1.5-0.5-4.6-1.3-5.7-3c-1.2-1.8-0.4-4.4-0.5-4.4
			c-6.7,1.1-3.7,7.1-3.7,7.1s-1.3-0.1-2-0.2c-2.8-0.6-5.7-3.1-5.5-7.3c0.3-5.6,6.3-7.9,5.4-8.4c-0.2-0.1-10.9-5-19,1.4
			c-4.5,3.5-6.6,8.4-5.1,14.8C95.5,27.8,97,19,96.9,19.1c-9,1.6-12.3,12.1-5.9,16.3c0,1.1-4.3,0.8-7.3-1.2c-2.2-1.5-3.1-5-3.4-4.9
			c-8.4,5.2-4.5,14.3,3,15.1c0.6,0.1,1.7,0.1,1.5,0.7c-0.1,0.2-1.7,1.4-4.6,1.4c-2.9,0-4-1.4-4.1-1c-1.3,3.9,5.1,7.2,7.5,6
			c-4.8,3.2-8.1,7-11.2,12.2c4.6-5.5,12.4-10.8,23-14.4c-1.3-1.1-0.2-4.1,1.9-4.6c-0.5,2.3,3.7,3.2,8.5,2c-1.3-1.3-2.6-5.8,3.1-7.3
			c-2.7,4,3.6,7,6.3,6.3c3-0.7,2.7-2.2,1.6-3.4c2.2-1.2,4.4,1.5,5.5,2c2.2,1.1,4.7,0.6,10.8,1.6c34.3,5.3,52.9,19.9,61.5,38.9
			c7.2,16,15.1,44.5,11.9,74.4c3.3-2.7,7.2-4.9,12-6.2c3.1-0.8,6.1-1.4,8.9-1.6C227.8,105,210.9,59.5,164.9,38z"/>
		<g>
			<path class="st2" d="M27.2,221.2c-2.3,7.4-5.4,21.5-4.3,26.6c-0.7,2.9-6.1,7.8-5.8,15.4c-1.1-2.2-0.9-5.8,0.5-13
				C19,242.9,22.4,232.1,27.2,221.2z"/>
		</g>
		<path class="st6" d="M236.8,295.4c-2.2,0-4.4-0.4-6.9-1.8c-18.3-10-26.8-1.2-26.6-3.9c0.3-2.7,2.9-10.6,9.6-14.4
			c10.2-5.9,18.3-0.5,25.3,0C234.6,279.9,231.1,286.7,236.8,295.4z"/>
		<g>
			<path class="st2" d="M312.3,256.8c-0.8,7.8-5.9,17.9-20.2,25.9c-0.1,0.1-0.1,0.1-0.2,0.1c-0.5,0.3-1.1,0.6-1.6,0.9
				c-0.1,0-0.1,0.1-0.2,0.1c-1,0.5-2.1,1.1-3.2,1.6c-0.6,0.3-1.2,0.5-1.8,0.8c-9.6,4-20.4,5.8-29.9,6.5c-7.8,0.5-12.6,2.4-16.9,2.7
				c-0.4,0-0.9,0.1-1.3,0.1c-2.1,0-4.2-0.5-6.5-1.8c-6.7-3.7-12.1-4.8-16.3-4.9c-0.5,0-1.1,0-1.5,0c-4.5,0.1-7.3,1.5-8.4,1.6
				c-0.3,0-0.4-0.2-0.3-0.5c0-0.2,0-0.4,0.1-0.6c9.8-7.6,22.6-2.9,28.5-0.8c6.6,2.4,7.7-1.5,13.5-2c5.8-0.5,21.5,0,36.8-6.2
				c15.3-6.2,19.4-20.8,19.2-26.3c-0.2-5.6-12.2-26-16.3-29c-1.6-9.4-6.2-17.8-12.6-24.7c2.2-1.3,4.7-2.5,7.3-3.7c0,0,0.1,0,0.1-0.1
				c0,0,0,0,0,0c0.7-0.2,1.2-0.4,1.5-0.7C299.3,216.5,313.1,248.9,312.3,256.8z"/>
			<path class="st2" d="M239.4,237.8c3.1,7.3,14.1,13.6,19.2,15.1c5.1,1.6,6.7,2.5,7.2,3.3c0.5,0.8-1.9,4.1-4.8,7
				c1.6-2.2,2.4-3.2,2-4.4c-0.4-1.2-2.8-2.5-6.9-4.7C252,252,242.6,247.6,239.4,237.8z"/>
		</g>
		<g>
			<line class="st9" x1="39.3" y1="267.7" x2="39.3" y2="273.9"/>
			<line class="st9" x1="44.8" y1="272" x2="44.8" y2="278.2"/>
		</g>
		<g>
			<line class="st9" x1="270.9" y1="264.6" x2="270.9" y2="270.8"/>
			<line class="st9" x1="264.5" y1="269.5" x2="264.5" y2="275.7"/>
		</g>
		<g>
			<line class="st9" x1="94.1" y1="161.3" x2="94.1" y2="167.5"/>
			<line class="st9" x1="100.8" y1="164.4" x2="100.7" y2="170.6"/>
		</g>
		<path class="st1" d="M82.2,172.7c-2.7,3.6-3.8,4.7-2.8,6.6c1,1.9,1.3,2.3,0.6,3.8c-2.7,6.2-5.6,16.6-7.4,16.4
			c-5.2-0.7,0-19.4-2.5-26c-3.5-9.3-10.7-1.2-15.5,4.4c0.6-7.3,3-15.3,10-20.9c-5-7.2,9.7-13.3,14-14.2
			C82.2,154.4,83.3,164.2,82.2,172.7z"/>
		<g>
			<path class="st4" d="M74.5,252.7c-5.4,4.5-13.7,6.2-13.7,8.8c0,2.6,18.5,14.7,19.1,14.8"/>
			<path class="st4" d="M54.5,178c-3.3,3.8-6.8,8.2-10.6,13.1c-1.8,2.4-8.1,8-2,9.1"/>
			<path class="st4" d="M248.9,250.1c0.2,7.3-0.2,14.9-1.3,22.7"/>
			<path class="st4" d="M102.9,312.5c21.4,10.7,50.8,13.4,84.8,7.6c19-3.2,43.5-10.1,53.7-21.9"/>
			<path class="st4" d="M195.4,328.7c-25.4,12.7-70.6,5.5-88.8-12.4c-30.1-29.6-31.8-53.7-32.9-77c-3-1.7-8.4-20.8-1.8-39.8"/>
			<path class="st4" d="M82.6,173.2c42.9,12.3,91.4,4.4,114-4"/>
			<path class="st4" d="M154.9,187.1c-12.2,4.3-59.5,3.9-74.3-5.8"/>
			<g>
				<path class="st4" d="M89.3,175.4c-0.6,1.8-1.2,3.1-1.2,5.1"/>
				<path class="st4" d="M100.3,177.6c-0.8,1.6-1,3.8-1,5.6"/>
				<line class="st4" x1="112.6" y1="178.8" x2="112.6" y2="183.7"/>
				<polyline class="st4" points="122.6,180.5 122.6,181.2 122.6,181.7 122.6,182.5 122.6,182.9 122.6,183.4 122.6,183.9 				"/>
				<polyline class="st4" points="117.5,180.8 117.5,181.2 117.5,181.7 117.5,182.2 117.5,182.7 117.5,183.2 				"/>
				<polyline class="st4" points="153.7,179.3 153.7,179.8 153.7,180.3 153.7,181.2 153.7,181.7 				"/>
				<polyline class="st4" points="157.3,179.3 157.3,180 157.3,180.8 157.3,181.2 				"/>
			</g>
			<path class="st4" d="M167.7,363.2c8.1-4.1,17.9-7,27.6-8.2c4.2-0.5,8.4-0.7,12.4-0.5"/>
			<path class="st4" d="M85.5,363.3c5.2-4.3,28.6-13,37.3-11.5"/>
			<path class="st4" d="M196.2,347.6c8.5,3.4,16.7,9.8,20.7,17.9"/>
			<path class="st4" d="M117,347c5.7,3.8,10.9,8.3,13.9,14.2"/>
			<path class="st4" d="M227.5,151.4c0.5-46.5-16.3-91.9-62.5-113.5c-7.5-3.6-15.4-5.6-23.3-8.5c-1.5-0.5-4.6-1.3-5.7-3
				c-1.2-1.8-0.4-4.4-0.5-4.4c-6.7,1.1-3.7,7.1-3.7,7.1s-1.3-0.1-2-0.2c-2.8-0.6-5.7-3.1-5.5-7.3c0.3-5.6,6.3-7.9,5.4-8.4
				c-0.2-0.1-10.9-5-19,1.4c-4.5,3.5-6.5,9.6-5,16"/>
			<path class="st4" d="M83.2,51.1c-2.5,1.2-8.2-1.9-6.9-5.7c0.1-0.4,1.3,1.1,4.1,1c2.8,0,4.5-1.2,4.6-1.4c0.2-0.5-1-0.6-1.5-0.7
				c-7.5-0.8-11.4-9.9-3-15.1c0.3-0.2,1.2,3.3,3.4,4.9c2.9,2.1,7.3,2.3,7.3,1.2c-6.4-4.2-3-14.7,5.9-16.3c0.2,0-1.9,8.8,8.1,10.6"/>
			<path class="st4" d="M84.8,50.4c-5,3.4-9,7.7-12.3,13.2c-14.6,24.7-6.9,53.5,4.9,77c1,2.1,2.5,4.5,2.8,6.8c0.2,1.2-0.5,3.1,0,4.2
				c0.2,0.4,1.3-1.1,1.3-0.7c0.3,2.2,0,4.7-0.2,6.8c-0.1,0.8-1,3-0.4,2.4c0.2-0.2,0.7-2,1.5-1.8c0.5,0.2,0,11.8-0.2,12.9"/>
			<g>
				<path class="st4" d="M237.9,233c1.5,6,3.9,11.3,9.1,15.7c5.4,4.5,16.4,8.2,16.1,10.9c-0.5,3.6-7.1,10.3-20.3,15.2
					c-8,3-17.4-6.6-29.8,0.5c-6.6,3.8-9.3,11.8-9.6,14.4c-0.3,2.7,8.3-6.2,26.6,3.9c7.6,4.2,12.4-0.1,25-1
					c9.5-0.6,20.3-2.4,29.9-6.5c19.8-8.4,26.6-20.4,27.5-29.5c0.8-7.9-12.9-40.1-30.3-61"/>
				<path class="st4" d="M238.2,233.2c-6,4.6-7.5,1.1-10.2-4.4"/>
				<path class="st4" d="M206.8,220c3.6,0.8,9.2,2.8,13.5,4.8c3.8,1.7,6.5,3.5,7.9,4.4"/>
				<path class="st4" d="M220.4,224.8c-2.4-3.1-5.2-7.3-8.5-9.5"/>
				<path class="st4" d="M192,184.8c2-11.1,9.1-27.2,26.2-31.8c20.2-5.4,35,1.5,59.7,34.3c1.8,2.4,8.1,8,2,9.1"/>
				<path class="st4" d="M229,228.6c4.2-13.3,15.9-28.8,32-34.6"/>
				<path class="st4" d="M233.5,220.1c1.3,1.2,2.5,1.9,4.1,2.7"/>
				<line class="st4" x1="239.4" y1="211.7" x2="242.8" y2="214.3"/>
				<line class="st4" x1="245.7" y1="204.5" x2="248.3" y2="207.8"/>
			</g>
			<g>
				<path class="st4" d="M242.7,294.6c-7.6,15.6-2.6,37.3,2.5,52.8c1.5,4.6,8.1,16.1,0.3,17.9c-7.8,1.8-30.7,0.8-49.7,0.1
					c-16.3-0.6-31-1.1-30.5-2.3c4.5-5.6,11.8-12.3,30.8-15.6c-6.6-2.3-11.3-7.8-13.6-14.5"/>
				<path class="st4" d="M108,317.8c-2.2,7.5,3.3,23.6,9,29.2c-13.5-0.4-29.6,12-30.7,13c-4.7,4.3-3.2,4.6,0,4.6s29.3-1.3,43-1.6
					c5.6-0.1,12.4-0.4,18-0.6c3.4-0.1,19.3-0.2,16.8-6c-2.9-6.8-6.4-16.2-6.8-21.5"/>
			</g>
			<g>
				<path class="st4" d="M203.4,289.7c6.7-9.4,18.6-10.9,26.6-8.8"/>
				<path class="st4" d="M238.2,275.3c-3.6,4.6-7.1,11.5-1.4,20.1"/>
			</g>
			<g>
				<path class="st4" d="M70.8,203c-3.1-2.1-6.4-3.9-10-5.2"/>
				<path class="st4" d="M63.3,198.8c-1.2,1-2.1,2.8-2.5,4.1"/>
			</g>
			<path class="st4" d="M84.4,294.3c-11.9-0.7-20.6-1.2-40-9.4c-19.8-8.4-27-15.6-27.9-24.6c-0.8-7.9,8.2-42,23.2-60.7"/>
		</g>
		<path class="st2" d="M90.5,277.8c0,0.2,0,0.3-0.1,0.5c-0.1,0.1-0.1,0.2-0.2,0.4c-0.1,0.1-0.2,0.2-0.3,0.4c-1.4,1.7-4.6,4.5-4.1,11
			c0.3,0.6,0.5,1.3,0.4,1.9c0.4,2.5-0.9,3.4-3,2.6l0.6,1.1c-2.1-0.2-4.3-0.5-6.7-0.9c-6.7-4.3-4-10.2-4.4-13.1
			c-0.4-2.6-2.2-4.4-4.7-6.2c-0.4-0.3-0.7-0.5-1.1-0.8C56,266.8,48.2,260,46.2,256.8c7.3-1,15.4-6.6,19-13.3
			c3.6-6.8-2.3-17.7-1.4-31.1c0.5-7.8,3.2-14.8,6.8-20.9c0-0.1,0-0.1,0-0.2v0c4.9-10.1,6.1-17.4,6.1-25.3c0-7.2-2.1-19.4-12.7-14
			c4.5-6.1,10.4-8.1,14.5-9c0.3,0.8,1.3,3.9,1.4,4.7c0.2,1.2-0.5,3.1,0,4.2c0.1,0.1,0.2,0.1,0.4-0.1c0.2-0.1,0.6-0.5,0.8-0.7
			c0,0,0,0,0,0c0.1-0.1,0.2-0.2,0.2,0c0.3,2.2,0,4.7-0.2,6.8c-0.1,0.8-1,2.9-0.5,2.4c0,0,0,0,0,0c0.1-0.1,0.3-0.6,0.5-1
			c0,0,0.1-0.1,0.1-0.1c0.2-0.3,0.5-0.4,0.8-0.3c0.4,0.2,0,12.4-0.3,14.1c0.2-0.2,0.4-0.3,0.5-0.3c-0.9,0.5-2.2,4.8-2.3,8.9
			c0,0,0,0,0,0c0.1,0.2,0.1,0.3,0.1,0.4c0,0.3-0.2,0.7-0.4,1.3c-0.1,0.2-0.2,0.5-0.3,0.8c-0.6,1.3-1.1,2.8-1.7,4.3c0,0,0,0,0,0
			c-0.1,0.2-0.2,0.4-0.2,0.6c-1.9,5.2-3.7,10.5-5.1,10.6c-6.9,19.1-1.4,38.4,1.6,40.2c0.2,4.4,0.4,8.9,0.9,13.4
			c-5.4,4.3-13.9,6.5-13.9,9c0,1.2,3.7,4.2,7.9,7.3l0.1-0.2c2.7,1.9,5.5,3.8,7.5,5.2c0,0,0,0,0,0c-0.7,2.9-0.4,7.1,3.8,7.6
			c3.1,0.4,6.5-1.7,9.8-4.9C90.4,277.5,90.5,277.7,90.5,277.8z"/>
		<path class="st6" d="M85.9,290.1c-0.7-8.3,4.7-10.4,4.7-12.2c0-1.5-8.6-6.3-12.1-4.9c-3.7,1.4-3.8,8.5-1.8,10.6
			c-0.3,2.4,1.6,8,5.2,10.3S87.4,294.7,85.9,290.1z"/>
		<g>
			<path class="st4" d="M85.9,290.1c-1.1-8.1,4.7-10.4,4.7-12.2c0-1.5-9.7-5.8-12.1-4.9c-3.7,1.4-3.8,8.5-1.8,10.6
				c-0.3,2.4,1.6,8,5.2,10.3S87.3,292.5,85.9,290.1z"/>
			<path class="st4" d="M76.6,283.5c2.6-4.3,8.3-5.6,14-5.6"/>
		</g>
		<path class="st10" d="M69.4,89.5c2.2-8.8,6.3-16.5,13.4-20.3c9.6-5.1,15.8-4.1,24.5-6c3.7-0.8,6.5-2.3,7.1-6
			c0.3-1.6-0.3-3.4-1.9-5.7c3.3,0,6.9,1.3,9.5,3.5c5.4,4.4,12.4,5.3,18.7,5.1c22.4-0.7,36.6,1.9,47.5,21.5
			c2.4,4.4,6.2,14.5,3.6,25.8c-3.7,16.4-5.6,23.3-23.5,35.6c-21.2,14.6-65,21.9-86.9-5.8C71.2,124.4,65.3,106,69.4,89.5z"/>
		<path class="st11" d="M110.3,97.1c-7.4-3.7-13.4,15-12.8,20.3c2,18.4,28.9,17.4,41.3,11.2c18-9-4-37.9-16.9-32.8"/>
		<path class="st11" d="M67.2,89.7c-1.2,14.1,1.9,24.9,4.9,31.7c6.2,1.2,18.8-4.8,26.5-17.6c7.9-13.1,10.6-29.9,7.9-31.7
			c-8-5.5-27.3-1.7-29.7-0.4C70.5,75.3,68.1,79.3,67.2,89.7z"/>
		<path class="st11" d="M137.7,70.1c-5.5,46.4,44.1,61.9,49.2,54.5c3.3-4.8,9.3-23.5,3.4-40c-3-8.3-8.6-14.9-13.8-17.1
			c-6.5-2.8-17.9-2.1-26.1-2.1C143.9,65.4,141.2,69.6,137.7,70.1z"/>
		<g>
			<path class="st12" d="M104.4,96.9c-0.1-2.8,5.3-5.3,12.1-5.6c6.8-0.3,12.5,1.6,12.6,4.4c0.1,2.8-5.3,5.3-12.1,5.6
				C110.2,101.7,104.5,99.7,104.4,96.9z"/>
			<path class="st4" d="M116.8,98.2c0,4.9,0.2,12.3,0.7,15.7"/>
		</g>
		<g>
			<g>
				<path class="st0" d="M95.6,91.4c-0.9,4.7-5.7,2.4-11.1,2.7c-6.3,0.3-13.3,2.2-12.8-5c0.3-5.4,5.9-7.4,14-7.5
					C93.8,81.5,96.7,85.5,95.6,91.4z"/>
				<path class="st13" d="M95.7,90.2c-2.4-5-7.2-5.8-13.4-4.8c-6.5,1.1-9.5,3.6-10.4,6.8c-0.3-1-0.4-2-0.3-3.1
					c0.3-5.4,5.9-7.4,14-7.5C93.3,81.5,96.2,85,95.7,90.2z"/>
				<path class="st4" d="M95.6,91.4c-0.9,4.6-5.8,2.4-11.1,2.7c-6.4,0.4-13.3,2.3-12.8-5c0.3-5.4,5.9-7.4,14-7.5
					C93.8,81.5,96.7,85.5,95.6,91.4z"/>
			</g>
			<g>
				<path class="st14" d="M80.4,88.9c0.5-2.5,3-4.2,5.5-3.7c2.5,0.5,4.2,3,3.7,5.5c-0.5,2.5-3,4.2-5.5,3.7
					C81.5,93.9,79.9,91.5,80.4,88.9z"/>
				<circle class="st0" cx="82" cy="87.1" r="2.1"/>
				<circle class="st0" cx="82.1" cy="90.7" r="0.8"/>
			</g>
		</g>
		<g>
			<g>
				<path class="st0" d="M148,89.1c1,4.4,6.4,2.1,12,2c7.4-0.1,15.4,2.1,14.9-5.4c-0.4-5.4-6.7-7.2-15.8-6.9
					C149.9,79.1,146.7,83.3,148,89.1z"/>
				<path class="st13" d="M147.7,87.1c3-4.2,8.6-5.1,15.5-4.3c6,0.7,9.7,2.3,11.6,4.5c0-0.5,0-1,0-1.6c-0.4-5.4-6.7-7.2-15.8-6.9
					C151,79.1,147.6,82.3,147.7,87.1z"/>
				<path class="st4" d="M148,89.1c1,4.4,6.1,2.1,12,2c7.4-0.1,15.4,2.1,14.9-5.4c-0.4-5.4-6.7-7.2-15.8-6.9
					C149.9,79.1,146.7,83.3,148,89.1z"/>
			</g>
			<g>
				<path class="st14" d="M156.9,85.8c0.5-2.6,3.1-4.3,5.7-3.8c2.6,0.5,4.3,3.1,3.8,5.7c-0.5,2.6-3.1,4.3-5.7,3.8
					C158,91,156.3,88.4,156.9,85.8z"/>
				<circle class="st0" cx="158.5" cy="84" r="2.1"/>
				<circle class="st0" cx="158.6" cy="87.7" r="0.8"/>
			</g>
		</g>
		<path class="st2" d="M56.4,168.5c2.1-4.4,6.9-7.5,10.7-5.6c3.7,1.9,7.2,9.7,6.3,20.3s-3.3,15.9-1.5,16.3
			c1.8,0.3,3.6-12.4,4.1-18.2c0.4-5.9,1.8-13.9-2.2-19.6s-9.3-4.8-10.2-4.2C62.7,158,59.4,160.2,56.4,168.5z"/>
		<path class="st15" d="M189.3,74.7C173,66,165,63.1,136.4,72.2"/>
		<path class="st15" d="M63.3,77.7c8.3-7,19.1-12.3,43.1-5.6"/>
		<g>
			<path class="st0" d="M102.5,113.9c2,4.3,9.2,8.9,12.2,9.4c7.2,1.2,15.8-2.8,20.8-9c1.3-1.6,2.2-5.6,1.5-6.8
				C131.8,110.8,112.6,115.4,102.5,113.9z"/>
			<path class="st16" d="M127.5,111.1c1.3-0.4,3.4,1.2,3.7,2.8c0.2,1.6-2.3,5.7-4.8,7.5c3.8-1.4,8.5-5.4,9.6-7.9s1.5-4.6,1.1-6
				C135,108.9,131.2,110.2,127.5,111.1z"/>
			<path class="st4" d="M102.5,113.9c2,4.3,9.2,8.9,12.2,9.4c6.8,1.2,16.8-3.2,20.8-9c1.2-1.7,2.2-5.6,1.5-6.8
				C131.8,110.8,112.6,115.4,102.5,113.9z"/>
		</g>
		<path class="st1" d="M241,153.2c-12.1-3.2-25.6-2-34.6,5.9c-8.9,7.9-12,16.6-14.8,27.3c-2.7,10.7-9.4,9.8-10.2,3.2
			c-2.5-0.8-2.7-3.3-0.9-10.4c1.7-7.1,5.9-16.9,14.3-26.7c8.4-9.8,18.4-17.7,27.7-22.1s14.7-1.1,18,2.4S243.7,143,241,153.2z"/>
		<path class="st17" d="M187.1,172.9c5.4-6.8,13.6-17.3,26.2-24.9c16.2-9.7,26.8-10.4,30.3-9.7c6.4,1.3,12.7,6.7,15.4,5.6
			c2.6-1.1,1.4-5.9-6.1-9.2c-7.6-3.4-15.6-1.7-28.6,3.7C211.3,143.8,197,154.3,187.1,172.9z"/>
		<path class="st4" d="M245.2,347.4c23.8,6.7,41.2,0.2,38.6-7.6c-0.5-1.4-1.9-5.6-4-12.1c0,0,0-0.1,0-0.1c1.8-1.2,3.7-2.1,5.7-2.9
			c11-4.6,23.5-3.5,34.5,3.7c0.5,4.3,0.6,8.3,0.4,12c13.5-5.2,25.8-17.4,17-30.5c-8-11.9-17.4-28.5-26.6-46.4"/>
		<path class="st4" d="M64.4,157.1c11.7,0,15.7,11.4,8,42.5"/>
		<path class="st2" d="M271.2,170c-7.8-7.4-13.9-11.3-17.8-14.5c-6.6-5.5,0.9-7.5-5.1-8c-25.4-2.7-36.7,3.2-46.4,11.5
			c-9.7,8.4-12.6,20.1-13.9,26.5s-3.6,7.2-6.6,4.2c0.3,2.9,1.5,4.6,4.2,4.8c2.7,0.2,4.2-1.6,5.5-6.3c1.3-4.7,2.2-13.9,8.3-21.6
			c6.1-7.7,12.6-13.1,22.8-14.5c10.2-1.4,21-0.9,32,9.1c11,10,13.6,14,21.9,23.4C274.7,181.2,273.3,177.1,271.2,170z"/>
		<path class="st2" d="M179.8,188.4c3.7-15.9,8.6-26.9,19.6-37.7c11-10.8,21.9-18.1,37.4-20.9c1.2,0.8,2.4,1.9,3.7,3.1
			c-13.3,2.9-27.8,9.2-39.4,20.8c-11.7,11.6-17.3,23.4-19.4,36.6C180.8,190,180.3,189.6,179.8,188.4z"/>
		<path class="st4" d="M182,189.7c-3.1,0-3.4-3.4-1-12.2c2.5-9.5,11.6-28.8,36.6-44.3c12.5-7.8,18.8-5.1,23.3,0.4"/>
		<path class="st4" d="M251.8,159.1c-6.7-6.6-29.4-13.7-46.4,0.8c-16.9,14.3-10.9,35.2-19.7,34.6c-7-0.5-2.1-13.6,0.5-19.4
			c8.4-19,26.8-35.8,53.3-41.2c24.1-4.9,25.5,19,36.3,50.3"/>
		<path class="st2" d="M306.5,270.8c10.5,18.1,22.3,43.1,20.3,66.3c-1.4,0.9-4.8,2.5-6.4,3.3c1.6-17.8-8.8-51-17.1-66.7
			C304.6,272.9,306.5,270.8,306.5,270.8z"/>
		<path class="st4" d="M78.5,142.9c-4.2,0.9-19,7-14,14.2c-7,5.6-9.4,13.6-10,20.9c4.8-5.6,12-13.7,15.5-4.4
			c2.5,6.6-2.7,25.3,2.5,26c1.8,0.2,4.7-10.1,7.4-16.4c0.7-1.6,0.2-1.8,0.3-3.9c0.1-1.4,0.8-3.5,1.9-6.6"/>
	</g>
	<g>
		<path class="st7" d="M69.7,428.1c0,0.8-0.4,1.2-1.1,1.2h-14c-0.8,0-1.1-0.5-1.1-1.4c0-2.7,0.1-6.6,0.3-12c0.2-5.3,0.3-9.3,0.3-12
			c0-0.8-0.1-1.2-0.4-1.2c-0.3,0.2-2.1,4.2-5.3,12.2c-1.9,4.7-3.8,9.4-5.7,14c-0.3,0.6-0.6,1-1,1.1c-0.1,0-0.7,0-1.6,0
			c-1.4,0-2.2-0.3-2.4-0.8c-1.4-2.9-3.3-7.1-5.6-12.6c-2.5-5.8-4.3-10.1-5.6-12.7c-0.1-0.1-0.2-0.3-0.4-0.4
			c-0.2,0.2-0.3,0.6-0.3,1.1c0,2.6,0.1,6.5,0.2,11.6c0.1,5.2,0.2,9,0.2,11.6c0,0.9-0.4,1.4-1.1,1.4H11.9c-0.5,0-0.8-0.1-1-0.3
			c-0.1-0.2-0.2-0.5-0.2-0.9c0-2.9,0.1-7.2,0.4-12.9c0.3-5.8,0.4-10.1,0.4-12.9c0-3.1-0.1-8.8-0.4-17.2c0-2.2-0.1-5.4-0.4-9.8l0-0.7
			c0-0.5,0.5-0.8,1.7-0.8c1.4,0,3.6,0,6.5-0.1c2.9-0.1,5.1-0.1,6.5-0.1c0.3,0,0.7,0.6,1.2,1.7l11.5,25.3c0.8,1.7,1.5,2.6,2.1,2.6
			c0.3,0,0.9-1,1.9-3c2.7-5.5,6.6-13.9,11.8-25c0.4-1,0.9-1.5,1.5-1.5c0.8,0,1.9,0,3.5,0.1c1.5,0.1,2.7,0.1,3.5,0.1
			c0.7,0,1.7-0.1,3-0.2c1.4-0.1,2.4-0.2,3-0.2c0.8,0,1.2,0.3,1.2,0.9c0,3.1-0.1,7.7-0.3,13.9c-0.2,6.2-0.3,10.8-0.3,13.9
			c0,2.9,0.1,7.2,0.4,12.9C69.6,421,69.7,425.3,69.7,428.1z M117.5,417c0,1.1-0.2,3.2-0.7,6.2c-0.5,3.3-0.9,5.3-1.3,5.9
			c-0.3,0.5-0.8,0.8-1.3,0.8c-0.2,0-0.6,0-1.2-0.1c-1.9-0.3-7.5-0.4-16.8-0.4c-2,0-5,0-9,0c-4,0-7,0-9,0c-0.9,0-1.3-0.4-1.3-1.1
			c0-2.9,0.2-7.4,0.5-13.3c0.3-5.9,0.5-10.3,0.5-13.3c0-3-0.2-8.6-0.5-16.8c-0.1-2.1-0.2-5.3-0.4-9.4l0-0.6c-0.1-0.6,0.3-0.9,1-0.9
			c1.9,0,4.9,0.1,8.8,0.2c3.9,0.1,6.8,0.2,8.8,0.2c1.9,0,4.8-0.1,8.7-0.2c3.9-0.1,6.8-0.2,8.7-0.2c1.4,0,2.2,0.5,2.4,1.5
			c0.1,0.6,0.3,2.4,0.6,5.5c0.3,3.1,0.4,4.9,0.4,5.6c0,0.6-0.3,0.8-0.8,0.8c-0.2,0-0.4,0-0.8,0c-7-0.6-13.3-0.9-18.9-0.9
			c-1.4,0-2.3,0.3-2.6,1c-0.1,0.3-0.2,1.3-0.2,3c0,1.8,0.3,3,0.8,3.6c0.4,0.5,1.3,0.8,2.6,0.8c0.3,0,0.8,0,1.5-0.1
			c0.8,0,1.4-0.1,1.9-0.1c3.3,0,6.7-0.1,10.1-0.3c0.3,0,1-0.1,2.2-0.2c0.9-0.1,1.6-0.2,2.1-0.2c0.6,0,0.9,0.3,0.9,0.9
			c0-0.6-0.2,1.5-0.7,6c-0.2,2.1-0.3,4.2-0.3,6.3c0,0.5-0.4,0.8-1.1,0.8l-3.6-0.4c-1.5-0.2-4.9-0.2-10.3-0.2h-4.2
			c-1.1,0-1.7,0.3-1.9,0.8c0,0.1,0,0.9,0,2.4c0,2,0.1,3.3,0.4,3.9c0.4,1,2.1,1.6,5.1,1.8c-0.1,0,1.9,0,5.8,0c1.4,0,3.5-0.1,6.2-0.4
			c2.8-0.2,4.8-0.4,6.2-0.4C117.2,415.6,117.5,416.1,117.5,417z M175.6,375.1c0,3-0.1,7.5-0.4,13.5c-0.3,6-0.4,10.5-0.4,13.6v26
			c0,0.7-0.4,1.1-1.1,1.1c-0.6,0-1.6,0-2.9,0.1c-1.3,0.1-2.2,0.1-2.9,0.1c-0.7,0-1.7-0.1-3.1-0.2c-1.4-0.1-2.4-0.2-3.1-0.2
			c-0.5,0-1-0.4-1.7-1.3c-1.9-2.6-6.2-8.2-12.8-17c-1.8-2.4-4.6-6.1-8.3-10.8c-0.1-0.2-0.3-0.3-0.6-0.5c-0.2,0.2-0.3,0.5-0.3,0.9
			c0,3.1,0.1,7.6,0.3,13.7c0.2,6.1,0.3,10.7,0.3,13.7c0,0.9-0.4,1.4-1.1,1.4h-13.7c-0.8,0-1.1-0.4-1.1-1.2c0-2.8,0.1-7.1,0.4-12.9
			c0.3-5.7,0.4-10,0.4-12.9c0-3-0.1-7.6-0.4-13.6c-0.3-6-0.4-10.5-0.4-13.5c0-0.6,0.5-0.9,1.5-0.9c1.5,0,3.4-0.1,5.6-0.3
			c0.5-0.1,1.6-0.2,3.1-0.5c1.3-0.2,2.4-0.4,3.1-0.4c0.3,0,0.8,0.4,1.5,1.3l14.7,20.2c1.3,1.8,3.3,4.5,6,8c0.7,0.8,1.2,1.2,1.7,1.2
			c0.3,0,0.5-1,0.5-3.1c0-2.8-0.2-6.9-0.5-12.5c-0.3-5.6-0.5-9.7-0.5-12.5c0-1,0.3-1.5,0.8-1.5c1.6,0,4-0.1,7.2-0.2
			c3.2-0.1,5.6-0.2,7.2-0.2C175.3,373.9,175.6,374.3,175.6,375.1z M221.4,386c0,0.5-0.3,0.8-0.9,0.8c-1,0-5-0.2-11.9-0.6
			c-0.2,6.7-0.2,11.3-0.2,13.9c0,3.1,0.1,7.8,0.4,14c0.2,6.2,0.4,10.9,0.4,14c0,0.5-0.1,0.8-0.4,0.9c-0.1,0.1-0.4,0.1-1.1,0.2
			c-1.6,0.2-3.9,0.3-7,0.3c-3.4,0-5.8-0.1-7.2-0.3c-0.7-0.1-1.1-0.5-1.1-1.2c0-3.1,0.1-7.8,0.4-14c0.3-6.2,0.4-10.9,0.4-14
			c0-2.1-0.1-6.6-0.3-13.7c-5.3,0.5-9.5,0.8-12.6,0.8c-0.4,0-0.6-0.1-0.6-0.4c0-0.3,0.2-1.4,0.6-3c0.4-1.8,0.7-3,0.7-3.4
			c0.1-1.2,0.2-2.5,0.3-3.7c0.2-2,0.5-3,0.9-3c0.1,0,0.2,0,0.6,0c4.3,0.6,10.6,0.8,18.9,0.8c2.4,0,6.7-0.2,13.1-0.8
			c3.4-0.3,5.1-0.4,5.2-0.4c0.5,0,0.8,0,0.9,0.1c0.1,0.1,0.1,0.3,0.2,0.8c0,0.7,0,1.7-0.1,3c-0.1,1.4-0.1,2.4-0.1,3
			c0,0.7,0.1,1.6,0.3,2.9C221.3,384.4,221.4,385.4,221.4,386z M280.5,401.7c0,8.2-2.6,15.1-7.9,20.7c-5.3,5.6-12.1,8.5-20.3,8.5
			c-8.1,0-14.9-2.8-20.3-8.5c-5.3-5.6-7.9-12.4-7.9-20.6c0-8.2,2.6-15.1,7.9-20.7c5.4-5.7,12.1-8.6,20.3-8.6
			c8.1,0,14.8,2.9,20.2,8.6C277.9,386.7,280.5,393.5,280.5,401.7z M265.5,401.6c0-4-1.2-7.3-3.6-10.1c-2.5-2.9-5.7-4.3-9.6-4.3
			c-3.7,0-6.9,1.5-9.4,4.5c-2.5,2.9-3.8,6.2-3.8,10c0,4,1.2,7.4,3.5,10.1c2.5,2.8,5.7,4.2,9.7,4.2c3.7,0,6.9-1.5,9.5-4.5
			C264.3,408.7,265.5,405.4,265.5,401.6z M333.5,428.9c0,0.2-0.3,0.3-0.8,0.4c-1,0.2-3.5,0.2-7.5,0.2c-3.5,0-5.8-0.1-7-0.2
			c-0.6-0.1-0.9-0.1-1-0.2c-0.2-0.1-0.3-0.3-0.6-0.8c-0.4-1-1-2.6-1.7-4.6c-1-2.6-2.6-6.5-4.8-11.7c-0.5-1-1.6-1.6-3.3-1.7
			c0.8,0.1-0.6,0.1-4.1,0.1c-0.4,0-0.6,0.7-0.6,2c0,1.8,0.2,4.5,0.5,8c0.3,3.6,0.5,6.2,0.5,8c0,0.4-0.1,0.7-0.4,0.8
			c-0.4,0-0.7,0.1-1.1,0.1c-1.6,0.1-4,0.2-7.3,0.2c-3.8,0-6-0.1-6.8-0.2c-0.8-0.2-1.1-0.6-1.1-1.2c0-2.9,0.1-7.3,0.4-13.1
			c0.3-5.8,0.4-10.2,0.4-13.2c0-11.1-0.3-19.8-0.8-26.1l0-0.6c0-0.4,0.4-0.8,1.2-0.9c0.9-0.2,4.9-0.3,12.1-0.5
			c4.9-0.1,8.8-0.2,11.7-0.2c6,0,10.9,1.4,14.7,4.1c4.3,3.1,6.4,7.5,6.4,13.2c0,3.8-0.6,6.9-1.7,9.2c-1.1,2.3-3.1,4.5-6.1,6.7
			c-0.6,0.4-0.9,0.8-0.9,1.2c0,0,1.6,3.3,4.8,9.9C331.9,424.6,333.5,428.3,333.5,428.9z M316.9,393.5c0-3.2-1.1-5.4-3.2-6.7
			c-1.6-0.9-4.2-1.4-7.7-1.4c-2.5,0-3.8,0.4-4,1.1c-0.2,0.9-0.2,3.5-0.2,7.7c0,0.6,0,1.5,0,2.7c0,1.2,0,2.1,0,2.6
			c0,0.1,0.4,0.3,1.3,0.4c1.6,0.2,3.3,0.4,5.1,0.4C314,400.4,316.9,398.1,316.9,393.5z"/>
	</g>
</g>
</svg>
