<?xml version="1.0" encoding="utf-8"?>
<!-- Generator: Adobe Illustrator 26.0.3, SVG Export Plug-In . SVG Version: 6.00 Build 0)  -->
<!DOCTYPE svg PUBLIC "-//W3C//DTD SVG 1.1//EN" "http://www.w3.org/Graphics/SVG/1.1/DTD/svg11.dtd" [
	<!ENTITY ns_extend "http://ns.adobe.com/Extensibility/1.0/">
	<!ENTITY ns_ai "http://ns.adobe.com/AdobeIllustrator/10.0/">
	<!ENTITY ns_graphs "http://ns.adobe.com/Graphs/1.0/">
	<!ENTITY ns_vars "http://ns.adobe.com/Variables/1.0/">
	<!ENTITY ns_imrep "http://ns.adobe.com/ImageReplacement/1.0/">
	<!ENTITY ns_sfw "http://ns.adobe.com/SaveForWeb/1.0/">
	<!ENTITY ns_custom "http://ns.adobe.com/GenericCustomNamespace/1.0/">
	<!ENTITY ns_adobe_xpath "http://ns.adobe.com/XPath/1.0/">
]>
<svg version="1.1" id="Слой_1" xmlns:x="&ns_extend;" xmlns:i="&ns_ai;" xmlns:graph="&ns_graphs;"
	 xmlns="http://www.w3.org/2000/svg" xmlns:xlink="http://www.w3.org/1999/xlink" x="0px" y="0px" width="266px" height="333.6px"
	 viewBox="0 0 266 333.6" style="enable-background:new 0 0 266 333.6;" xml:space="preserve">
<style type="text/css">
	.st0{fill:#FFFFFF;}
	.st1{fill:#CAA77A;}
	.st2{fill:none;stroke:#2D1F04;stroke-width:2.62;stroke-linecap:round;stroke-linejoin:round;stroke-miterlimit:10;}
	.st3{fill:#B6B1AE;}
	.st4{fill:#FFDB1F;}
	.st5{fill:#FFDBAF;}
	.st6{fill:none;stroke:#9D7B51;stroke-width:3.87;stroke-linecap:round;stroke-linejoin:round;stroke-miterlimit:10;}
	.st7{opacity:0.23;fill:#3F2719;}
	.st8{fill:#3F2719;}
	.st9{fill:#9D7B51;}
	.st10{fill:#251707;}
	.st11{fill:none;stroke:#2D1F04;stroke-width:3.05;stroke-linecap:round;stroke-linejoin:round;stroke-miterlimit:10;}
	.st12{fill:none;stroke:#2D1F04;stroke-width:7.6;stroke-linecap:round;stroke-linejoin:round;stroke-miterlimit:10;}
	.st13{fill:#2D1F04;}
</style>
<metadata>
	<sfw  xmlns="&ns_sfw;">
		<slices></slices>
		<sliceSourceBounds  bottomLeftOrigin="true" height="333.6" width="266" x="866.2" y="45.9"></sliceSourceBounds>
	</sfw>
</metadata>
<path class="st0" d="M52,88.7c0.1,0,0.2-0.1,0.4-0.2C52.3,88.6,52.2,88.6,52,88.7C52,88.7,52,88.7,52,88.7z M57.7,41.3
	C57.7,41.3,57.7,41.3,57.7,41.3C57.7,41.3,57.7,41.3,57.7,41.3C57.7,41.3,57.7,41.3,57.7,41.3z M47.5,56.7l9,0.8
	c0.3-0.1,0.7-0.1,1.3-0.2c-0.5,0.1-1,0.2-1.3,0.2L47.5,56.7c-0.1,0.3-0.2,0.6-0.3,0.8C47.3,57.2,47.4,56.9,47.5,56.7z M20.4,251.1
	c0,0-0.1,0-0.1,0c0.1,0,0.2,0,0.2,0C20.5,251.1,20.5,251.1,20.4,251.1z M23.9,264.6c-0.2,0-0.3,0-0.5,0
	C23.6,264.6,23.8,264.6,23.9,264.6C23.9,264.6,23.9,264.6,23.9,264.6z M34.8,273.1c-0.2,0-0.3,0-0.5,0c0.2,0,0.5,0,0.7,0
	C35,273.1,34.9,273.1,34.8,273.1z M39.3,231.3c-0.3,0.6-0.5,1.3-0.8,2C38.7,232.6,39,231.9,39.3,231.3c0.2-0.3,0.3-0.7,0.5-1
	C39.6,230.6,39.4,231,39.3,231.3z M48.2,268.1C48.1,268.1,48.1,268.1,48.2,268.1c0,0,0.1,0,0.2,0C48.3,268.1,48.2,268.1,48.2,268.1z
	 M56.2,199.4c-0.1,0.2-0.3,0.4-0.4,0.6C56,199.8,56.1,199.6,56.2,199.4c0-0.1,0.1-0.1,0.1-0.2C56.3,199.3,56.3,199.3,56.2,199.4z
	 M57.7,185.6c0,0.1,0,0.2,0,0.3C57.6,185.8,57.7,185.7,57.7,185.6c0-0.4,0-0.8,0-1.2C57.7,184.8,57.7,185.2,57.7,185.6z M58.7,191.6
	c-0.1,0.1-0.1,0.3-0.2,0.4C58.6,191.9,58.6,191.8,58.7,191.6L58.7,191.6z M64.4,31.6C64.3,31.6,64.3,31.6,64.4,31.6c0,0,0.2,0,0.3,0
	C64.6,31.6,64.5,31.6,64.4,31.6z M65,28.5c0.2-0.1,0.4-0.2,0.5-0.3C65.3,28.3,65.2,28.4,65,28.5z M66.6,271.4
	C66.6,271.4,66.6,271.4,66.6,271.4c0,0,0.1,0,0.1,0C66.7,271.4,66.7,271.4,66.6,271.4z M67.4,271.6
	C67.4,271.6,67.4,271.6,67.4,271.6c0.1,0,0.1,0,0.2,0C67.5,271.6,67.4,271.6,67.4,271.6z M68.6,128.5c0,0-0.1,0-0.1-0.1
	C68.5,128.5,68.6,128.5,68.6,128.5C68.6,128.5,68.6,128.5,68.6,128.5z M69,136.2C69,136.2,69,136.2,69,136.2
	C69,136.2,69,136.2,69,136.2C69,136.2,69,136.2,69,136.2z M69.5,134c0,0.1,0,0.2,0,0.3C69.5,134.1,69.5,134,69.5,134
	c0-0.4,0.1-0.7,0.1-1.1C69.6,133.2,69.5,133.6,69.5,134z M70.1,147.2c0,0,0.1,0,0.1,0c0,0,0,0,0.1,0
	C70.2,147.1,70.1,147.1,70.1,147.2z M70.5,147.3c0-0.1-0.1-0.1-0.2-0.1C70.4,147.2,70.4,147.2,70.5,147.3c0,0,0.1,0,0.1,0
	c0,0,0,0,0,0C70.6,147.3,70.5,147.3,70.5,147.3z M70.7,131.1L70.7,131.1C70.7,131.1,70.7,131,70.7,131.1
	C70.7,131,70.7,131.1,70.7,131.1z M70.7,148.1L70.7,148.1c0,0.1,0.1,0.1,0.1,0.2C70.8,148.3,70.7,148.2,70.7,148.1z M70.7,147.9
	L70.7,147.9l1.5-0.2L70.7,147.9z M50.8,306.7c-0.1,0-0.1,0-0.2,0c0.2,0,0.4,0,0.6,0C51,306.7,50.9,306.7,50.8,306.7z M59.2,318
	C59.2,318,59.2,318,59.2,318C59.2,318,59.3,318,59.2,318C59.3,318,59.3,318,59.2,318z M59.4,310.8c-0.2,0.2-0.4,0.4-0.5,0.6
	C59,311.2,59.2,311,59.4,310.8c0.2-0.2,0.5-0.5,0.7-0.7C59.8,310.3,59.6,310.6,59.4,310.8z M71.2,318.4c0.3-0.7,0.8-1.3,1.3-1.9
	C72,317.1,71.5,317.7,71.2,318.4z M73.4,324.6C73.4,324.6,73.3,324.6,73.4,324.6c0,0,0.1,0,0.2,0C73.5,324.6,73.5,324.6,73.4,324.6z
	 M73.6,149.6c0.2,0.1,0.5,0.1,0.7,0.2c0,0,0,0,0,0C74.1,149.7,73.8,149.6,73.6,149.6z M74.5,24c-0.2,0-0.4,0-0.5,0
	C74.1,24,74.3,24,74.5,24c0.3-0.1,0.5-0.2,0.8-0.3C75,23.8,74.7,23.9,74.5,24z M76.9,23.2C76.9,23.2,77,23.2,76.9,23.2
	c0.1,0,0.1,0,0.1,0C77,23.2,76.9,23.2,76.9,23.2z M83.9,16.4c0.1,0,0.1,0,0.2,0c0.1,0,0.2,0,0.3,0C84.2,16.4,84,16.4,83.9,16.4z
	 M89.5,10c-0.1,0.2-0.1,0.4-0.2,0.5C89.4,10.4,89.4,10.2,89.5,10C89.5,10,89.5,9.9,89.5,10C89.5,9.9,89.5,10,89.5,10z M90.6,9
	C90.6,9,90.6,9,90.6,9C90.7,9,90.7,9,90.6,9C90.7,9,90.6,9,90.6,9z M113.1,13.8C113.1,13.8,113.1,13.8,113.1,13.8c0,0,0.1,0,0.1,0
	C113.2,13.8,113.1,13.8,113.1,13.8z M115.1,14.1C115.1,14.1,115.1,14.1,115.1,14.1C115.1,14.1,115.1,14.1,115.1,14.1
	C115.1,14.1,115.1,14.1,115.1,14.1z M126.1,18.4c-0.4-0.2-0.9-0.4-1.3-0.7C125.2,18,125.6,18.2,126.1,18.4c1.4,0.5,2.7,1,4.1,1.4
	C128.8,19.4,127.4,18.9,126.1,18.4z M133.3,296.2C133.3,296.2,133.3,296.2,133.3,296.2C133.3,296.2,133.3,296.2,133.3,296.2
	C133.3,296.2,133.3,296.2,133.3,296.2z M148.9,319.3L148.9,319.3c-0.4,0.2-0.8,0.4-1.2,0.6C148.1,319.7,148.5,319.5,148.9,319.3z
	 M145.7,320.4l4.5,0.1c0,0,0,0,0,0L145.7,320.4z M154.6,321.2c0,0-0.1,0-0.1,0c0.2,0,0.4,0,0.6,0
	C154.9,321.2,154.8,321.2,154.6,321.2z M156.9,310.9c-0.1,0.1-0.2,0.1-0.3,0.2c-0.7,0.3-1.3,0.7-1.9,1c0.6-0.4,1.2-0.7,1.9-1
	C156.6,311,156.7,310.9,156.9,310.9c0.5-0.2,1-0.5,1.5-0.7C157.9,310.4,157.3,310.6,156.9,310.9z M173,145.6
	C173,145.6,173,145.6,173,145.6c0.6-0.2,1-0.3,1.4-0.5C174,145.2,173.6,145.4,173,145.6z M174.9,144.7c0.1-0.1,0.2-0.2,0.3-0.3
	c0.1-0.2,0.2-0.3,0.3-0.4c-0.1,0.1-0.2,0.3-0.3,0.4C175.2,144.5,175,144.6,174.9,144.7z M177.2,322.3c-0.5,0-1.1,0-1.6,0
	C176.1,322.3,176.6,322.3,177.2,322.3C177.2,322.3,177.2,322.3,177.2,322.3z M178.6,308.2c-0.9-0.5-1.8-1-2.7-1.4
	C176.8,307.2,177.7,307.7,178.6,308.2l2.3,1.2L178.6,308.2z M189.5,322.2C189.4,322.2,189.4,322.2,189.5,322.2
	C189.4,322.2,189.5,322.2,189.5,322.2C189.5,322.2,189.5,322.2,189.5,322.2z M202.6,124.5c0.1,0.5,0.2,1,0.2,1.4
	C202.7,125.5,202.7,125,202.6,124.5c0-0.9-0.1-1.7-0.1-2.6C202.5,122.8,202.5,123.7,202.6,124.5z M202.8,131.6L202.8,131.6
	c-0.1,0-0.2,0-0.2,0c0,0,0.1,0,0.1,0C202.7,131.6,202.8,131.6,202.8,131.6z M194.8,81.4c1,2.6,2,5.2,2.9,7.8
	C196.8,86.6,195.8,84,194.8,81.4z M203.1,323.1c-0.4,0-0.7,0-1.1,0c0.4,0,0.9,0,1.3,0C203.2,323.1,203.1,323.1,203.1,323.1z
	 M203.1,131.6c-0.1-0.1-0.2-0.2-0.3-0.3C202.9,131.4,203,131.5,203.1,131.6c0.2,0,0.4,0,0.6,0.1
	C203.5,131.7,203.3,131.6,203.1,131.6z M206.6,137.2c0-0.4,0-0.9-0.1-1.3C206.6,136.3,206.6,136.7,206.6,137.2c0.5,1.4,1,3,1.4,4.5
	C207.6,140.2,207.2,138.6,206.6,137.2z M215.9,322.4c-0.1,0-0.2,0-0.3,0c0.1,0,0.3,0,0.4,0C216,322.4,216,322.4,215.9,322.4z
	 M215.1,260.9c0.4-0.8,0.8-1.5,1.2-2.3C215.9,259.3,215.5,260.1,215.1,260.9z M222.2,188.7c-0.2-0.7-0.4-1.4-0.5-2.1
	C221.9,187.3,222.1,188,222.2,188.7c0.1,0.2,0.1,0.5,0.2,0.7C222.4,189.2,222.3,188.9,222.2,188.7z M226.3,288.8L226.3,288.8
	c0,0,0.1,0.1,0.1,0.1C226.4,288.8,226.3,288.8,226.3,288.8z M228.5,289.4c-0.1,0-0.2,0-0.4,0C228.3,289.3,228.4,289.4,228.5,289.4
	C228.5,289.4,228.5,289.4,228.5,289.4z M241.7,280.7C241.7,280.7,241.7,280.7,241.7,280.7c0.1,0,0.2,0,0.4,0
	C241.9,280.7,241.8,280.7,241.7,280.7z M244.3,265.2c0.6,0.1,1.2,0.2,1.9,0.2C245.5,265.4,244.9,265.3,244.3,265.2z M251.2,265.9
	c-0.1,0-0.3,0-0.4,0c0.2,0,0.4,0,0.6,0C251.3,265.9,251.2,265.9,251.2,265.9z M251.4,255.9C251.5,255.9,251.5,255.9,251.4,255.9
	C251.5,255.9,251.5,255.9,251.4,255.9C251.5,255.9,251.5,255.9,251.4,255.9z"/>
<path class="st0" d="M259.3,273.2c-1.7,0.9-3.7,1.4-5.9,1.6c0,0.2,0,0.5,0,0.7c0,2.2-0.3,4.3-0.9,6.2c-1,2.9-2.9,5.3-5.5,6.7
	c-1.1,0.6-2.2,1-3.4,1.2c-0.6,0.1-1.2,0.1-1.8,0.1h-0.1c-0.8,1.3-1.6,2.5-2.5,3.5c-0.2,0.2-0.4,0.5-0.7,0.7c-0.5,0.5-1,1-1.5,1.4
	c-2.4,1.9-5.3,3-8.3,3h-0.1c-0.6,0-1.3,0-1.9-0.1l0.1,3.4c0.5,1.2,1.1,2.4,1.6,3.5c0.3,0.8,0.7,1.5,1,2.2c1.2,2.8,1.5,6.1,1.5,8.5
	c0.2,2.1-0.1,4-0.6,5.8c0,0,0,0.1,0,0.1c-0.4,1.5-1.3,3.6-3.4,5.4c-5.2,5.7-16,4.8-23,4.6c-8.6-0.2-17.2-0.5-25.8-0.8
	c-7.9-0.3-15.7-0.5-23.6-0.8c-3.2-0.1-6.5-0.2-9.5-1.1c-4.6-1.3-8.2-4.2-8-9.2c0-0.6,0.1-1.1,0.2-1.7c0.2-1.5,0.9-2.9,1.8-4.1
	c2.2-2.7,5.7-6.6,11.7-10.1c-5,0.6-10.8,1.1-17.2,1.1c-6.8,0-13.3-0.5-19.5-1.5c0.2,1.5,0.3,2.9,0.3,4.2c0,8.1-3.8,11.8-6.9,13.4
	c-3.8,1.9-10.7,4.6-16.7,7l-2.2,0.9c-0.8,0.3-1.5,0.6-2.2,0.9c-2,0.8-2.6,1.1-2.7,1.1c-0.7,0.4-1.6,0.7-2.5,1.1
	c-2.7,1-5.2,1.5-7.5,1.5c-1.8,0-3.4-0.3-4.9-0.9c-2.8-1.1-4.9-3.3-6-6c-1.2,0.2-2.2,0.3-3.2,0.3c-5.5,0-9.9-3.5-10.9-8.6
	c-0.1-0.6-0.2-1.3-0.2-2c0-0.3,0-0.6,0-0.9c-7.5-0.8-10.3-5-11.4-7.6c-0.6-1.5-0.9-3-0.9-4.5c0-2.6,0.9-7.6,6.9-11.1
	c0.4-0.2,0.8-0.5,1.2-0.7c8-4,21.3-4.2,21.4-4.2c0.1,0,4.1,0,9.7,0.8c-1.7-1.3-3.3-2.7-5-4.2c-0.4-0.3-0.7-0.5-1.1-0.8
	c-0.8-0.6-1.6-1.3-2.6-2.5c-0.9-0.1-1.8-0.3-2.6-0.6c-2.6-0.8-4.9-2.9-6.9-6.2c-0.7,0.7-1.5,1.2-2.4,1.7c-1.9,1.1-4.1,1.6-6.3,1.6
	c-0.9,0-1.7-0.1-2.5-0.2c-2.5,3.2-6.4,5.2-10.8,5.2c-2,0-4-0.4-5.9-1.2c-2.7-1.2-4.9-3.1-6.3-5.6c-0.4-0.6-0.6-1.2-0.9-1.9
	c-3.5-0.6-6.5-2.7-8.3-5.9c-0.8-1.5-1.3-3.2-1.4-4.9c-0.1-1.5,0.1-3,0.5-4.3c-0.9-0.5-1.9-1.2-2.7-2.1c-2.2-2.3-3.1-5.4-3-8.8
	c0.2-4.9,3.5-8.6,8.3-10.8l-10.2-6c-2.3-1.4-4-3.6-4.7-6.2c-0.7-2.6-0.3-5.3,1.1-7.7c1.4-2.4,3.6-4,6.2-4.7c0.9-0.2,1.7-0.3,2.6-0.3
	c0.8,0,1.6,0.1,2.4,0.3c0.1-0.6,0.2-1.2,0.4-1.7c0.4-1.4,1-2.8,1.8-4c1.1-1.7,2.5-3.1,4.1-4.2c0.1-2,0.6-3.9,1.4-5.8
	c0.7-1.5,1.6-2.9,2.7-4c0-0.9,0.1-1.8,0.3-2.7c0.3-1.1,0.8-2.2,1.5-3.1c-0.1-1.1,0-2.3,0.3-3.5c0.3-1.2,0.8-2.2,1.4-3.1
	c-0.1-1.2,0-2.3,0.4-3.5c0.3-1.3,1-2.5,1.8-3.6c-0.1-0.2-0.2-0.4-0.2-0.6c-0.5-1.3-0.6-2.6-0.5-4c0.1-1.4,0.5-2.8,1.2-4.1
	c-0.5-1.4-0.7-2.8-0.7-4.3c0.1-1.1,0.3-2.2,0.8-3.3c-0.5-1.5-0.9-3.1-0.9-4.7c-0.1-1.7,0.1-3.3,0.5-4.8c-0.5-1-0.9-2.2-1.1-3.4
	c-0.2-1.6-0.1-3.3,0.5-4.8c-0.9-1.3-1.5-2.8-1.8-4.5c-0.1-0.5-0.1-1-0.1-1.5c-0.2-0.5-0.4-1.1-0.5-1.7c-0.2-0.8-0.2-1.5-0.2-2.3
	c-0.4-0.9-0.6-1.8-0.8-2.7c-0.1-0.7-0.2-1.4-0.3-2.1c-0.8-0.2-1.7-0.5-2.5-0.9c0,0-0.1,0-0.1-0.1c-1.2-0.6-2.2-1.4-3-2.4
	c-0.9-1-1.5-2.2-1.9-3.6l-1-3.3c-0.4-1.3-0.6-2.7-0.7-4c0-0.1,0-0.3,0-0.4c-0.7-0.9-1.3-1.8-1.7-2.9l-1.5-4.1
	c-0.7-1.9-1-3.8-0.9-5.8c0.1-1.9,0.5-3.7,1.3-5.3c0.8-1.7,1.8-3.2,3.2-4.4c1.4-1.3,3-2.4,4.9-3.1c-0.2-0.5-0.3-0.9-0.4-1.4
	c-0.4-0.6-0.8-1.2-1.1-1.9c-1.2-2.6-1.2-5.4-0.2-8.1c1-2.7,3-4.8,5.6-5.9c1.4-0.6,2.8-0.9,4.3-0.9c1.3,0,2.6,0.2,3.8,0.7
	c1.3,0.5,2.4,1.2,3.4,2.1c0.1-0.8,0.1-1.7,0.2-2.5l-0.8,0h-0.2c-4.9,0-8.9-3.9-9-8.8c-0.1-5,3.9-9.1,8.8-9.2l16-0.3
	c-1.5-1.6-2.5-3.8-2.5-6.2c0-3.8,2-6.4,4.5-8.4c-0.2-0.8-0.2-1.6-0.2-2.4c0.2-4.1,2.8-6.7,6.8-9.2c0-0.8,0.1-1.7,0.3-2.5
	c0.8-2.8,2.9-5.1,5.7-6.1c2.5-1.2,5.2-2.2,7.9-2.8c1-0.2,2.1-0.5,3.3-0.7c1-0.5,2.4-1,4-1.4C80.9,7.3,81,7,81.2,6.6
	c1-2.6,4.5-6.6,9.5-6.6c1.4,0,2.8,0.3,4.1,1c1.1,0.5,1.9,1.2,2.5,1.8C97.6,3,98,3.2,98.3,3.5c0.3,0.2,0.7,0.5,1,0.7
	c0.9,0.3,1.8,0.5,2.7,0.8c1.9,0.6,3.8,1.1,5.6,1.6c0.5-0.3,0.9-0.6,1.5-0.9c1.2-0.6,2.7-1,4-1c0.9,0,1.7,0.1,2.4,0.3
	c0.6,0,1.3,0.1,2,0.3c8.8,2.2,17.5,5.5,25.4,9.9c35.2,19.6,52,37,62.1,67.9c2.2,6.7,3.8,13.5,4.8,20.5c1,6.6,0.7,13.5,1.8,20.1
	c0.2,1,0.3,2,0.3,2.9c2.9,3.2,3.6,6.7,3.7,9c0.7,2,1.2,4,1.6,5.9c0.2,0.9,0.4,1.8,0.6,2.5c2.2,7.8,4.3,14,6.3,20.1
	c2.4,7.2,4.8,14.1,6.8,22.6l0.1,0.4l0,0.1c2.2,7.2,4.2,13.9,5.9,19.9c0.9,2.9,1.6,5.6,2.2,7.9c1,3.7,1.9,7.2,2.7,10.3
	c2,7.4,3.9,15.2,3.7,22.6c2.1-0.6,4-0.8,5.8-0.8c7,0,12.3,4.1,14,10.8c0.3,1.2,0.5,2.4,0.5,3.6C266.2,266.4,263.7,270.9,259.3,273.2
	z"/>
<g>
	<g>
		<path class="st1" d="M89.3,282c1.6,3.2,5.9,22.6,5.8,22.4c-7.5-7.4-25.7-9-30.7-9c-3,0-23,1.4-20.3,8.2c2.3,5.8,27.1-2.3,27.1-1.9
			c0,0.8-16.5,6.5-15,14c1.2,5.9,24.4-9.4,24.1-8.8c-2.3,4.6-12.3,8.1-10.6,15.1c0.8,3.2,7.1,0.8,8.7,0c2.7-1.4,18.2-6.9,23.7-9.8
			c5.3-2.7-1.4-21.6-1.7-23.1"/>
		<path class="st2" d="M89.3,282c1.6,3.2,5.9,22.6,5.8,22.4c-7.5-7.4-25.7-9-30.7-9c-3,0-23,1.4-20.3,8.2c2.3,5.8,27.1-2.3,27.1-1.9
			c0,0.8-16.5,6.5-15,14c1.2,5.9,24.4-9.4,24.1-8.8c-2.3,4.6-12.3,8.1-10.6,15.1c0.8,3.2,7.1,0.8,8.7,0c2.7-1.4,18.2-6.9,23.7-9.8
			c5.3-2.7-1.4-21.6-1.7-23.1"/>
		<path class="st3" d="M173.1,305.1c-7.4,3-14.7,2-21.2,7.5c-1.1,0.9-4.7,4.1-4.2,5.7c0.8,2.7,6.7,2,8.8,2.1
			c8.1,0.2,16.7,0,24.8,0.2c1.5,0,9,2.1,9.2,0c0.6-5.2-8.1-9.3-10.7-12"/>
		<path class="st3" d="M125,218.9c-0.1-0.2-0.3-0.4-0.4-0.6"/>
		<path class="st1" d="M70.2,37.1c-2.4,0-8.6,12.1-10,14.6c-10.4,18.2-6.6,39.5,1.7,57.8c2.1,4.7,1.2,6.1,3.3,10.5
			c1,2,4.5,6.7,4.5,8.8c0,0.5,0,1.4,0,1.4s-0.7-3.5-1.4-5c-0.2-0.5-1.2-1.4-0.7-1.4c0.3,0,0.6,0.8,0.7,1c2.3,5.8-0.3,13.1,1.2,19.1
			c1,4.2,9,9.2,13.4,10.3c16.6,4.1,33.3-0.2,49.9-0.2c4.2,0,16.1,1.3,19.6-2.1c2.9-2.9,7.9,8.1,10.3,4.8c3.2-4.5,7.2-11.4,12.3-13.5
			c5.3-2.1,8.8-7.3,14.1-6c1.3,0.3,10.6-5.2,11.9-6.5c2.2-2.2,0.4-8.1-0.1-10.8c-1.5-7.3-1-18-2.4-25.1c-1-4.8-2.8-9.4-4.5-14.1
			c-7.1-18.3-17-33.3-32.7-44.7c-3.9-2.9-10.5-7.9-15-10.2c-4.4-2.2-9.2-2.1-13.6-4.3c-5.7-2.9-12-6.6-18.1-8.1
			c-1.6-0.4,0.6,2.3,0.5,2.6c-0.2,0.4-4,0.3-4.5,0.2c-5.1-1-10.4-0.9-15.3-3.1c-0.8-0.4-3.8-3.4-4.8-3.1c-2.9,1,1.4,9.1,1.4,9.1
			s-0.4-0.7-0.7-1c-1.4-1.1-4.6-2-6.4-2.4c-3.9-0.8-5.5,1.7-8.8,2.4c-0.4,0.1-4.3,1.1-4.3,1.2c0,0.8,6.2,1.8,6.2,2.6
			c0,0.7-1.4,0.4-1.7,0.5c-1.8,0.3-12.2,4.6-11.5,6.9c0.3,1,5.8,1,6.9,1.7c0.3,0.2,1,0.2,1,0.2s-4.3,0.7-6.4,1.2
			C63.2,33,57.8,39,62.6,39"/>
		<path class="st1" d="M222,241.7c-0.9,0.3-11.7,24.2-12.1,27.5c-0.8,6.5,2,14.5,2.8,20.9c0.8,6.3,4.7,14.3,7.3,20.2
			c0.9,2,0.8,6.4,0.3,8.6c-1,4-24.9,3.9-28.2,2.6c0,0-7.4-9.2-9.8-11c-2-1.5-0.5-1.8-5.2-3.8c-2.9-1.2-6.5-1.2-9.2-4
			c-2.6-2.6-4-8.4-6.8-10.3c-2.8-1.8-4.9-0.5-13.8,1.4c-8.9,1.9-15.5,1.5-24.1-0.7c-1.5-0.4-35.4-3.4-47-16.5
			c-2.2-2.5-11-9.2-10.4-6.6c0.6,2.6-4.9-3.6-4.9-11c0-1.2-4.5,2-3.8,1.4c1.5-1.1-4.7-13.9-2.9-13.9c6,0,15.7-0.1,21.6,1.6
			c3.9,1.1,10.9-26.3,15-25.9c6.4,0.6,15.9,9,22.3,9.5c6.2,0.5,14.3,14.4,14.9,6.7c0.6-7.7,2.9,1.8,3.7,1c0.3-0.3,12.5-13,12.4-14.5
			"/>
		<path class="st1" d="M208.1,254.7c-0.3,0.7,5,0.4,5.1,0.4c4.2,1.4,0.6,3.3-0.7,7.7"/>
		<path class="st4" d="M69.6,146.8c-0.2-2.5-5.7,4.3-4,6.6c0.7,1,1.9,1.6,2.6,2.6c0.3,0.5-0.5,1.1-0.7,1.4c-3,4-5,8.6-6.8,13.1
			c-2,4.9-3.2,9.3-4,14.5c-0.5,3.3,2.1,6.7,1.4,9.6c-2,7.9-4.2,6.1-11.8,22.1c-2.4,5-6.4,10.4-8,13.7s-2.8,9.9-1.8,10.3
			c12.7,4.3,43.2,14.8,71.6,17.7c41.5,4.3,96.6,3.9,124.2-5.3c8.7-2.9-4.7-39.3-11-65.3c-3.7-15.3-8.3-25.1-13.1-42.5
			c-1.7-6.1-3.3-16.9-9.3-13.4c-22.9,13.3-19.4,4.6-24.6,11.6c-1.7,2.2-16.9,3.1-19.2,4.6c-1,0.7-5,0.5-6.3,0.7
			c-6.5,1.3-15,2.6-21.5,3.9c-14,2.8-23.2,0.1-37.1-2.7c-2.3-0.5-7.6,0.1-9.8-0.2c-2.7-0.4-5-0.5-7.7-1.2
			C69.4,147.9,69.6,147.1,69.6,146.8z"/>
		<path class="st5" d="M58.8,74.2c2-8.1,7-17.3,14.3-18.7c8.6-1.6,15.7,5.3,24,5c1.5-0.1,4.5-1,5.4-2.3c0.9-1.3,0-3,0-3
			c1.3,0.4,2.6,2.3,4.2,2.7c6.2,1.8,12.6-3.7,18.3-5.4c18.7-5.7,33.4-3.6,43.3,14.5c2.2,4.1,5.7,13.4,3.3,23.8
			c-3.4,15.1-5.2,21.5-21.6,32.8c-19.5,13.5-59.9,20.2-80.1-5.3C60.5,106.3,55.1,89.4,58.8,74.2z"/>
		<line x1="75.9" y1="257.8" x2="75.8" y2="263.4"/>
		<line class="st6" x1="75.9" y1="257.8" x2="75.8" y2="263.4"/>
		<line x1="82" y1="261.2" x2="81.9" y2="266.8"/>
		<line class="st6" x1="82" y1="261.2" x2="81.9" y2="266.8"/>
		<line x1="87.8" y1="264.8" x2="87.7" y2="270.5"/>
		<line class="st6" x1="87.8" y1="264.8" x2="87.7" y2="270.5"/>
		<line x1="78.6" y1="134.8" x2="78.6" y2="140.4"/>
		<line class="st6" x1="78.6" y1="134.8" x2="78.6" y2="140.4"/>
		<line x1="84.2" y1="137.7" x2="84.1" y2="143.3"/>
		<line class="st6" x1="84.2" y1="137.7" x2="84.1" y2="143.3"/>
		<path class="st7" d="M57.9,38.8c4,0,7.5-1.1,11.4-2c1.1-0.3,3.3-1.5,3.3-0.3c0,0.2-0.5,0.2-0.7,0.3c-3.4,2-6.1,4.9-8,8.4
			c-0.7,1.2-2.5,4.5-2,3.7c15.3-27.7,126.7-38.1,120.3,74.4c-0.1,1-0.5,13.3-1.8,17.2c-0.7,2,5.9-4.4,8.4-3.4
			c1.1,0.4,10-6.2,10.8-6.7c1.4-1,0.4-6.3,0.7-8c5.7-37.9-38.1-88.7-41.9-90.8c-14.4-8-43.9-16.9-44.6-17.1c-0.1,0-2.7,1.6-4,1.3
			c-4.8-0.8-10.2-2.6-15.1-4c-0.7-0.2-5.2-3.7-5.4-3.3c-0.5,1.1-0.9,7.2-0.3,8c0.4,0.6,2.8-0.3,2-0.3c-6.2,0-14.1,2-20.8,3.3
			c-0.2,0-0.7,0.1-0.7,0.3c0,1.9,8.7,0.7,8.7,2c0,1-12.1,4.4-13.7,5.7c-0.5,0.4-2.5,1.9-2,2.3c1.6,1.6,5.6-0.4,7.7,0.7"/>
		<path class="st7" d="M173.7,262.2c22,0.1,31.2,51.5,28.6,51.3c-31-2.4-49.9,4.5-49.9,5.7c0,1,5.4,0.8,6.4,1
			c6.2,1.6,22.2,1.3,28.5,0.9c11.8-0.7,15,0.4,26.8,0.4c1.5,0,3.2,0.1,4.4-0.7c4.9-3.3-4.5-18.8-5.1-23.7c-1-7.8-2.8-21.4-1.7-29.1
			c0.3-2.4,2.8-5.8,2.4-8.2C213.1,254.8,172.2,262.2,173.7,262.2z"/>
		<path class="st8" d="M107.9,292.1c0,0.2,0,0.4,0,0.7"/>
		<path class="st7" d="M52.1,207.1c-1.3,2.9,4.3-6.7,6.2-7.9c4.1-2.6,33.5,1.7,38,1.7c11.7,0,46.4,8.7,57.7,5.3
			c3.1-0.9,14.5-3.8,11.8-12.6c-1.5-4.9-10.6-5.2-13.5-5.2c-12,0-58.7,10.2-70.3,8.2c-2.8-0.5-21.2-2.6-23.5-6.9
			c-0.6-1.1-2.7,7.9-3.1,8.6C52.5,202.6,54.4,202.2,52.1,207.1z"/>
		<path class="st7" d="M170.7,288.6c-1-1.1,11.7-10.3,8.5-9.3c-78,25-109.6-10.4-110.4-9.2c-0.3,0.4,4.3,4,4.6,4.4
			c5,5.5,9.8,8.3,16.5,11.7C126.3,304.4,171.9,290,170.7,288.6z"/>
		<path class="st2" d="M71.7,35.9c-4.6,3-7.3,8-10.3,12.3c-15,21.2-7.1,48.1,3.6,69.4c0.9,1.9,2.3,4,2.6,6.1c0.1,1.1-0.5,2.8,0,3.8
			c0.2,0.4,1.1-1,1.2-0.6c0.2,2,0,4.2-0.2,6.1c-0.1,0.7-0.9,2.7-0.4,2.2c0.2-0.2,0.7-1.8,1.4-1.6c0.4,0.1,0,10.6-0.2,11.7"/>
		<path class="st2" d="M70.3,36.5c-2.2,1.1-3.7,1.1-5.9,1.8c-1.1,0.3-2,0.7-3.2,1c-1.1,0.2-2.2,0.3-3.2,0.6
			c-0.5,0.1-1.4,0.9-1.4,0.4c0-1.5,12-8.2,14.3-8.9c0.3-0.1,0.9-0.1,1-0.4c0.2-0.5-0.9-0.5-1.4-0.6c-2.3-0.6-7.7,1.2-9.5-0.2
			c-0.5-0.4,3.5-2.8,3.8-3c2.5-1.4,5-3.2,7.7-4c1.6-0.5,5,0.7,5-1c0-2-9-1.3-9.7-2c-0.1-0.1,0.3-0.1,0.4-0.2c2-1,4.3-1.9,6.5-2.4
			c4.1-1,11.4-1.9,15.5-0.6"/>
		<path class="st2" d="M90.7,18.1c-1.2-2.3-3.3-6.2-2.2-8.9c0.1-0.1,1-1.1,1.2-1c0.8,0.4,1.4,1.8,2.4,2.4c3.9,2.1,8.3,3.6,12.7,4.6
			c2.6,0.6,5.2,0.8,7.7,1.4c0.6,0.1,1.8,0.2,1.8,0.2s-3.5-3.1-2.2-3.8c0.2-0.1,10.2,3.6,11.1,4c7.1,2.8,14.3,4.4,21.1,7.7"/>
		<path class="st2" d="M54.4,247.7c-1,5.8,3.7,13.4,3.7,13.4s1.5-4.5,2.2-3.3c0.8,1.4,4.1,13.7,6.3,13c0.1,0,0-3.3,0.2-3.1
			c0.8,0.4,5.2,6.3,6.7,7.4c5.4,4.1,11.8,7.5,18,10.2c23.1,10.1,57.4,14.1,80.4,2.6"/>
		<path class="st2" d="M160.8,292.5c2.6,5.7,6.5,10.8,12.6,12.8"/>
		<path class="st2" d="M215.3,257.7c-10.6,19.4-2.8,32.9,1.8,47c1.4,4.2,7.4,14.3,0.3,16.2"/>
		<path class="st2" d="M172.7,304.8c-17.2,3-23.8,9-27.9,14.1"/>
		<path class="st2" d="M133,20c49.8,16.5,69.5,71.3,68.6,109.6"/>
		<path class="st2" d="M171.6,304.4c7.7,3.1,15.7,8.7,19.4,16"/>
		<path class="st2" d="M146.7,319c7.3-3.7,16.2-6.3,25-7.4c3.8-0.5,7.6-0.6,11.3-0.5"/>
		<path class="st2" d="M69.7,147.1c38.8,11.2,90.6,7.5,130.9-16.5"/>
		<path class="st2" d="M69.7,147.2c0.4-2.5-2.7,2-3.3,3.3c-0.9,1.9,1,3.5,1,4.5c-0.1,1.1-1.9,3.7-2.4,5c-3.5,9.4-11.9,21.5-6.7,31.6
			"/>
		<path class="st2" d="M37.4,241.1C99,268.9,216.2,263,233.6,252.5"/>
		<path class="st2" d="M37.2,241c-5.8-4.8,20-44.6,21.4-49"/>
		<path class="st2" d="M201.7,130.2c0.6,1.1,4.3,4.9,3.7,8.8c3.7,11.6,30.1,89,30.2,107.3c0,3.9-0.2,5.3-2.6,6.6"/>
		<path class="st9" d="M80.2,76.1c-6.8-3.4-12.3,13.8-11.8,18.7c1.9,16.9,26.6,16,38.1,10.3c16.6-8.3-3.7-34.9-15.5-30.2"/>
		<path class="st10" d="M76.1,76.1c-0.1-2.6,4.9-4.9,11.2-5.2c6.3-0.3,11.6,1.5,11.7,4.1c0.1,2.6-4.9,4.9-11.2,5.2
			C81.5,80.5,76.3,78.7,76.1,76.1z"/>
		<path class="st11" d="M87.6,81c0,9.6,5.4-1.7,12.9,2"/>
		<path class="st2" d="M146.4,158.9c-36.1,5.8-69.5,1.4-78.5-4.6"/>
		<path class="st2" d="M205.5,138c-2.9,2.5-18.7,12-31.7,14.5"/>
		<path class="st2" d="M75.8,149.1c-0.5,1.6-1.1,2.8-1.1,4.6"/>
		<path class="st2" d="M85.7,151.1c-0.7,1.5-0.9,3.4-0.9,5.1"/>
		<path class="st2" d="M180.3,140.8c0.7,1.5,0.9,3.4,0.9,5.1"/>
		<path class="st2" d="M184.4,138.8c0.7,1.5,0.9,3.4,0.9,5.1"/>
		<line class="st2" x1="97.5" y1="152.6" x2="96.9" y2="156.5"/>
		<polyline class="st2" points="105.9,153.7 105.9,154.4 105.9,154.8 105.9,155.4 105.9,155.9 105.9,156.3 105.9,156.8 		"/>
		<polyline class="st2" points="101.3,153.9 101.3,154.4 101.3,154.8 101.3,155.2 101.3,155.7 101.3,156.1 		"/>
		<polyline class="st2" points="134,152.6 134,153 134,153.5 134,154.4 134,154.8 		"/>
		<polyline class="st2" points="137.3,152.6 137.3,153.3 137.3,153.9 137.3,154.4 		"/>
		<path class="st9" d="M45.6,59.1c-3.7,6.7,0.5,26.8,3.3,28.9c2.2,1.6,17-9.6,21.3-16.7c1.1-1.9,6.8-14.1,4.7-16.2
			c-1.2-1.2-17.2,1-19.7,1.5C51.8,57.3,47.1,56.4,45.6,59.1z"/>
		<path class="st0" d="M46.5,55.8c-5.3,13.8,16.6,12.3,20.6,1.9"/>
		<polyline class="st12" points="80.3,55 63.1,55.3 34.2,55.8 		"/>
		<path class="st11" d="M45.8,59.4c-1.7,8.5,21.6,9.2,21.6-1.5"/>
		<path class="st13" d="M56.5,58.2c0-2.1,1.7-3.8,3.8-3.8c2.1,0,3.8,1.7,3.8,3.8c0,2.1-1.7,3.8-3.8,3.8C58.2,62,56.5,60.3,56.5,58.2
			z"/>
		<path class="st9" d="M125.1,98.6c0.8,27.6,41.3,42.3,46,35.4c3-4.4,9.1-25.1,1.1-39c-0.8-1.4-9.6,1.6-11,1.8
			C149.4,98.7,124.7,86.6,125.1,98.6z"/>
		<path class="st0" d="M137.7,99.7c0,2.5,0.5,4.2,1.4,5.4c2.6,3.3,8.3,1.5,14,0.5c6.2-1.1,7.6-4.9,8.8-7.2"/>
		<line class="st12" x1="122.6" y1="96.6" x2="175.9" y2="95.6"/>
		<path class="st11" d="M135.7,100.2c3.9,11.8,24.6,8.1,25-1.5"/>
		<path class="st13" d="M149.9,98.6c0-2.1,1.7-3.8,3.8-3.8c2.1,0,3.8,1.7,3.8,3.8s-1.7,3.8-3.8,3.8
			C151.6,102.4,149.9,100.7,149.9,98.6z"/>
		<path class="st13" d="M144.7,102.7c-0.3,0-0.6-0.1-0.9-0.1"/>
		<path class="st1" d="M39.2,241.9c-0.5,0.8-2.1,4.7-3.2,4.6c-1.2,0-3.6-1.4-4.7-1.9c-4.6-2-9.3-1.8-13.9-0.2
			c-1.3,0.5-2.4,1.1-2.5,2.7c-0.5,6.9,16.4-0.5,19.2,3.3c0.4,0.6-4.2,1.8-4.5,1.9c-2.3,0.9-11.5,5.9-9.2,10c1.8,3.3,7.3-0.1,9.3-1.5
			c0.2-0.1,2.6-2.2,2.7-2.1c0.1,0.1-7.2,10.2-0.8,13c2.1,0.9,5.2,0.5,6.3-1.9c0.9-2,1.3-4.5,1.6-6.6c0.1-0.4,0.2-1.3,0.2-1.3
			s0.7,1.1,1,1.7c1.6,2.3,5.6,4.7,8.4,3.2c5.4-2.9-8.7-11.9-2.2-17.9c0.5-0.5,1.6-2.1,2.3-2.2"/>
		<path class="st2" d="M39.2,241.9c-0.5,0.8-2.1,4.7-3.2,4.6c-1.2,0-3.6-1.4-4.7-1.9c-4.6-2-9.3-1.8-13.9-0.2
			c-1.3,0.5-2.4,1.1-2.5,2.7c-0.5,6.9,16.4-0.5,19.2,3.3c0.4,0.6-4.2,1.8-4.5,1.9c-2.3,0.9-11.5,5.9-9.2,10c1.8,3.3,7.3-0.1,9.3-1.5
			c0.2-0.1,2.6-2.2,2.7-2.1c0.1,0.2-7.2,10.2-0.8,13c2.1,0.9,5.2,0.5,6.3-1.9c0.9-2,1.3-4.5,1.6-6.7c0.1-0.4,0.2-1.3,0.2-1.3
			s0.7,1.1,1,1.7c1.6,2.3,5.6,4.7,8.4,3.2c5.4-2.9-8.7-11.9-2.2-17.9c0.5-0.5,1.6-2.1,2.3-2.2"/>
		<path class="st1" d="M232.5,253.5c0.9,1.8,1.4,5.1,3.8,5.7c2.1,0.5,17-9.6,19.4-0.3c2.6,10.5-14,3.9-16.4,5.5
			c-1.4,0.9,2.2,3.8,2.7,4.9c1.2,2.5,1.7,6.1,0.8,8.7c-0.9,2.6-3.3,2.1-4.9,0.5c-1.9-2-1.2-5.2-1.4-5.2c0,0-1,3.7-1.6,5.7
			c-1.6,4.9-4.7,11.9-10.4,8.5c-2.1-1.3-0.6-6.9-0.3-8.7c1.4-7.4,1.3-23.2,1.3-23.2"/>
		<path class="st2" d="M232.5,253.5c0.9,1.8,1.4,5.1,3.8,5.7c2.1,0.5,17-9.6,19.4-0.3c2.6,10.5-14,3.9-16.4,5.5
			c-1.4,0.9,2.2,3.8,2.7,4.9c1.2,2.5,1.7,6.1,0.8,8.7c-0.9,2.6-3.3,2.1-4.9,0.5c-1.9-1.9-1.2-5.2-1.4-5.2c0,0-1,3.7-1.6,5.7
			c-1.6,4.9-4.7,11.9-10.4,8.5c-2.1-1.3-0.6-6.9-0.3-8.7c1.4-7.4,1.3-23.2,1.3-23.2"/>
		<path class="st7" d="M181.2,140.2c8.2,29.3,26.6,111.5-12.1,121.1c-3.1,0.8,11.6-1.6,14.5-1.1c8.5,1.4,16.3-0.6,24.8-2.2
			c4.2-0.8,9.1-0.6,13.1-1.9c1.9-0.6,13.2-2.8,13.6-4.4c2.3-9.1-2.2-22.2-4.4-30.8c-1.8-7.3-3-12.2-5.7-19.1c-2-5-5-11.7-6-16.9
			c-1.3-6.4-4.6-12.3-5.7-18.8c-1.5-8.8-5.2-17.1-7.4-25.6c-0.7-3,0.7-6.4-1.9-9C200.5,127.9,180.8,138.9,181.2,140.2z"/>
		<path class="st2" d="M144.7,319.5c19.3,1.2,56,1.7,72.1,1.7"/>
		<g>
			<g>
				<path class="st13" d="M81.3,183.5c6.8,0.2,13.2,0.2,19.6,0.4c5.2,0.2,7.4,3.6,6.8,6.8c-0.8,4.5-4.8,7.5-10.5,8.9
					c-0.3,0.1-0.6,0.1-1.2,0.2c4.5,3,2.9,8.6,7.7,13.7c-4.7-0.3-9-0.5-13.3-0.7c-2.3-3.2-3.2-6.4-3.6-9.5c-0.2-1.7-0.7-3-3.8-2.6
					c-2.4,3.8-4.4,7.6-4.4,11.7c-3.7-0.1-6.9-0.2-10-0.2C71,201.2,80.2,194.6,81.3,183.5z M89.8,189.3c-0.7,1.9-1.7,3.6-3,5.8
					c2.2,0,4.2,0,6.4-0.1c1.9-0.1,3.5-1.2,4.2-2.6c0.7-1.5,0.1-2.7-1.7-2.9C93.9,189.2,91.9,189.3,89.8,189.3z"/>
				<path class="st13" d="M136.5,192.8c-3,0.1-5.8,0.2-8.9,0.3c0.1-2.7-1.4-4.1-4-4.2c-1.6-0.1-3,0.4-3.9,2.2
					c-0.2,1.5,0.7,2,1.8,2.4c2.1,0.6,4.3,1.2,6.3,1.9c1.2,0.4,2.3,0.9,3.3,1.4c6.6,3.6,4.3,12-0.5,15.7c-1.6,1.2-3.7,2-6,2.3
					c-3.7,0.5-8,0.2-12.4-1c-5.8-1.5-9.5-5.4-7.8-10.3c3.3,0,6.5,0,9.9,0c0,0.6,0.1,1.2,0.2,1.7c0.6,2.9,4.2,4.4,7.5,3.4
					c1.5-0.4,2.5-1.3,2.8-2.7c0.2-1.3-0.4-2.3-1.5-2.8c-1-0.5-2.1-0.8-3.1-1.1c-2.2-0.8-4.4-1.4-6.4-2.3c-3.8-1.8-4.5-4.7-3.3-8.1
					c1.3-3.8,3.6-6.9,7.5-8.1c3.7-1.2,7.6-1.3,11.8,0C134.4,185.1,136.9,188,136.5,192.8z"/>
			</g>
		</g>
	</g>
	<g>
		<path d="M24.2,228.7c0.3,0.2,0.5,0.4,0.5,0.7c0.1,0.3,0,0.6-0.1,0.9c-0.2,0.3-0.4,0.5-0.7,0.5c-0.3,0.1-0.6,0-0.9-0.1l-13.4-7.9
			c-0.3-0.2-0.5-0.4-0.5-0.7c-0.1-0.3,0-0.6,0.1-0.9c0.2-0.3,0.4-0.5,0.7-0.5c0.3-0.1,0.6,0,0.9,0.1L24.2,228.7z"/>
		<path d="M26.4,217.1c-0.6,0.4-1.1,0.7-1.5,0.8l0,0c-0.8,0.2-1.5,0-2.2-0.4c-0.5-0.3-0.8-0.7-1-1.2c-0.2-0.5-0.3-1.1-0.3-1.6
			c0-0.6,0.1-1.2,0.3-1.8c0.2-0.6,0.4-1.2,0.8-1.7c1-1.6,2.5-2.5,4.5-2.8c0.2,0,0.5,0,0.7,0.2c0.3,0.2,0.5,0.4,0.5,0.7
			c0.1,0.3,0,0.6-0.2,0.9c-0.1,0.2-0.3,0.3-0.5,0.4c-0.2,0.1-0.4,0.1-0.6,0.2c-1.1,0.2-1.9,0.8-2.5,1.7c-0.6,0.9-0.8,1.8-0.6,2.7
			c0,0.2,0.1,0.3,0.3,0.4c0.2,0.1,0.3,0.1,0.5,0l4.3-3.5c0.6-0.5,1.1-0.7,1.5-0.8l0,0c0.8-0.2,1.5,0,2.2,0.4
			c0.5,0.3,0.8,0.7,1.1,1.2c0.2,0.5,0.3,1,0.3,1.6c0,0.6-0.1,1.2-0.3,1.8c-0.2,0.6-0.4,1.2-0.8,1.7c-1,1.6-2.5,2.5-4.5,2.8
			c-0.3,0-0.5,0-0.7-0.2c-0.3-0.2-0.5-0.4-0.5-0.7c-0.1-0.3,0-0.6,0.2-0.9c0.1-0.2,0.3-0.3,0.5-0.4c0.2-0.1,0.4-0.1,0.6-0.2
			c1.1-0.2,1.9-0.8,2.5-1.7c0.6-0.9,0.8-1.8,0.6-2.7c0-0.2-0.1-0.3-0.3-0.4c-0.2-0.1-0.4-0.1-0.5,0L26.4,217.1z"/>
		<path d="M40.6,201.2l-0.2-0.1c0.2,0.7,0.2,1.4,0.2,2.1s-0.2,1.4-0.6,2.1c-0.7,1.6-1.9,2.7-3.5,3.3c-1.6,0.6-3.2,0.5-4.8-0.2
			c-1.6-0.7-2.7-1.9-3.3-3.5c-0.6-1.6-0.5-3.2,0.2-4.8c0.7-1.6,1.9-2.6,3.5-3.3c1.6-0.6,3.2-0.5,4.8,0.2l4.6,2.2
			c0.3,0.1,0.5,0.4,0.6,0.7c0.1,0.3,0.1,0.6,0,0.9c-0.1,0.3-0.4,0.5-0.7,0.6C41.2,201.4,40.9,201.4,40.6,201.2z M30.7,201
			c-0.2,0.5-0.4,1-0.4,1.5s0.1,1,0.2,1.5c0.2,0.5,0.4,0.9,0.8,1.3c0.3,0.4,0.8,0.7,1.3,0.9c0.5,0.2,1,0.3,1.5,0.4
			c0.5,0,1-0.1,1.5-0.2c0.5-0.2,0.9-0.4,1.3-0.8c0.4-0.3,0.7-0.8,0.9-1.3c0.2-0.5,0.4-1,0.4-1.5c0-0.5-0.1-1-0.2-1.5
			s-0.4-0.9-0.8-1.3c-0.3-0.4-0.8-0.7-1.2-0.9c-0.5-0.2-1-0.3-1.5-0.4c-0.5,0-1,0.1-1.5,0.2c-0.5,0.2-0.9,0.4-1.3,0.8
			C31.3,200.1,31,200.5,30.7,201z"/>
		<path d="M34,185.2c0.1-0.5,0.5-0.8,1.1-0.9l7.2-0.4l-6.2-4.1c-0.2-0.1-0.3-0.3-0.4-0.5s-0.1-0.4,0-0.7c0-0.2,0.1-0.3,0.2-0.4
			c0.1-0.1,0.2-0.2,0.3-0.3c0.1-0.1,0.3-0.1,0.4-0.1c0.2,0,0.3,0,0.5,0c0.1,0,0.3,0.1,0.4,0.2l9,6c0.2,0.1,0.3,0.3,0.4,0.5
			c0.1,0.2,0.1,0.5,0,0.8c-0.1,0.3-0.2,0.5-0.4,0.6c-0.2,0.2-0.4,0.2-0.6,0.2l-7.3,0.4l6.1,4.1c0.2,0.1,0.3,0.3,0.4,0.5
			c0.1,0.2,0.1,0.5,0,0.7c-0.1,0.3-0.2,0.5-0.4,0.6c-0.2,0.2-0.4,0.2-0.6,0.3l-10.7,0.6c-0.2,0-0.3,0-0.5,0c-0.2,0-0.3-0.1-0.4-0.2
			c-0.1-0.1-0.2-0.2-0.3-0.3c-0.1-0.1-0.1-0.3-0.1-0.4c0-0.2,0-0.3,0-0.5c0.1-0.3,0.2-0.5,0.4-0.6c0.2-0.1,0.4-0.2,0.5-0.2l7.4-0.4
			l-6-4C34,186.2,33.8,185.8,34,185.2z"/>
		<path d="M48.7,166.4l-9.9,3.4c-0.2,0.1-0.4,0.1-0.5,0.1c-0.2,0-0.3,0-0.4-0.1c-0.1-0.1-0.3-0.2-0.4-0.3c-0.1-0.1-0.2-0.2-0.2-0.4
			c-0.1-0.1-0.1-0.3-0.1-0.5c0-0.2,0.1-0.4,0.2-0.6c0.1-0.2,0.3-0.3,0.6-0.4l7.7-2.7l-7.3-3.6c-0.2-0.1-0.4-0.2-0.5-0.4
			c-0.1-0.2-0.2-0.4-0.2-0.7c0-0.2,0-0.3,0.1-0.5c0.1-0.1,0.2-0.3,0.3-0.4c0.1-0.1,0.2-0.2,0.4-0.2c0.1-0.1,0.3-0.1,0.5-0.1
			c0.2,0,0.3,0.1,0.5,0.2l15.1,7.4c0.2,0.1,0.4,0.3,0.5,0.5c0.1,0.2,0.2,0.4,0.2,0.7c0,0.3-0.2,0.6-0.4,0.8
			c-0.2,0.2-0.5,0.3-0.9,0.3c-0.2,0-0.3-0.1-0.5-0.1L48.7,166.4z"/>
		<path d="M43.5,144.7c1.8-0.1,3.3,0.5,4.5,1.6c1.3,1.2,2,2.6,2,4.4c0.1,1.7-0.5,3.2-1.6,4.5s-2.6,2-4.4,2c-1.7,0.1-3.2-0.5-4.5-1.6
			c-1.3-1.2-2-2.6-2-4.4c-0.1-1.7,0.5-3.2,1.6-4.5c0.6-0.6,1.2-1.1,2-1.5C41.8,144.9,42.6,144.7,43.5,144.7z M39.8,151.1
			c0,0.6,0.2,1.1,0.4,1.5c0.2,0.5,0.5,0.9,0.9,1.2c0.4,0.3,0.8,0.6,1.3,0.8c0.5,0.2,1,0.3,1.5,0.2c0.5,0,1-0.2,1.5-0.4
			c0.5-0.2,0.9-0.5,1.2-0.9c0.3-0.4,0.6-0.8,0.8-1.3c0.2-0.5,0.3-1,0.2-1.6c0-0.5-0.2-1.1-0.4-1.5c-0.2-0.5-0.5-0.9-0.9-1.2
			c-0.4-0.3-0.8-0.6-1.3-0.8c-0.5-0.2-1-0.3-1.5-0.2c-0.5,0-1,0.1-1.5,0.4c-0.5,0.2-0.9,0.5-1.2,0.9c-0.3,0.4-0.6,0.8-0.8,1.3
			C39.9,150.1,39.8,150.6,39.8,151.1z"/>
		<path d="M48,131.2c0,0.3,0,0.6-0.2,0.9c-0.2,0.2-0.4,0.4-0.8,0.4c0.5,0.5,0.8,1,1.1,1.5c0.3,0.5,0.4,1.2,0.5,1.8
			c0.1,0.8,0.1,1.6-0.1,2.3c-0.2,0.7-0.5,1.4-1,2c-0.5,0.6-1,1.1-1.7,1.5c-0.7,0.4-1.4,0.7-2.2,0.8l-5.5,0.8c-0.3,0-0.6,0-0.9-0.2
			s-0.4-0.5-0.5-0.8c0-0.3,0-0.6,0.2-0.9c0.2-0.3,0.5-0.4,0.8-0.5l5.5-0.8c0.5-0.1,0.9-0.2,1.3-0.5c0.4-0.2,0.7-0.5,1-0.9
			c0.3-0.4,0.5-0.8,0.6-1.2c0.1-0.4,0.1-0.9,0.1-1.4c-0.1-0.5-0.2-0.9-0.5-1.3c-0.2-0.4-0.5-0.7-0.9-1c-0.4-0.3-0.8-0.5-1.2-0.6
			c-0.4-0.1-0.9-0.1-1.4-0.1l-5.5,0.8c-0.3,0-0.6,0-0.9-0.2c-0.3-0.2-0.4-0.5-0.5-0.8c0-0.3,0-0.6,0.2-0.9c0.2-0.3,0.4-0.4,0.8-0.5
			l10.1-1.4c0.3,0,0.6,0,0.9,0.2C47.8,130.6,48,130.9,48,131.2z"/>
		<path d="M35.7,127.7l0.2,0c-0.6-0.5-1-1-1.4-1.6c-0.4-0.6-0.6-1.3-0.8-2c-0.1-0.3-0.1-0.7-0.2-1.1c0-0.4,0-0.7,0-1.1
			c0-0.3,0.1-0.6,0.3-0.9c0.2-0.2,0.4-0.4,0.7-0.5c0.2,0,0.3,0,0.5,0c0.2,0,0.3,0.1,0.4,0.2c0.1,0.1,0.2,0.2,0.3,0.3
			s0.1,0.3,0.2,0.4c0,0.1,0,0.3,0,0.5c-0.1,0.5-0.1,1,0,1.6c0.1,0.5,0.3,1,0.6,1.4c0.3,0.4,0.7,0.8,1.1,1c0.4,0.3,0.9,0.5,1.4,0.6
			c0.5,0.1,1,0.1,1.6,0l5-1.1c0.3-0.1,0.6,0,0.9,0.2c0.3,0.2,0.4,0.4,0.5,0.7c0.1,0.3,0,0.6-0.2,0.9c-0.2,0.3-0.4,0.4-0.7,0.5
			l-10,2.1c-0.3,0.1-0.6,0-0.9-0.2c-0.3-0.2-0.4-0.4-0.5-0.7c-0.1-0.3,0-0.6,0.2-0.9S35.4,127.8,35.7,127.7z"/>
		<path d="M42.1,110.5l-14.9,4.6c-0.2,0-0.3,0.1-0.5,0.1c-0.2,0-0.3-0.1-0.4-0.1c-0.1-0.1-0.3-0.2-0.4-0.3c-0.1-0.1-0.2-0.3-0.2-0.4
			l-1-3.3c-0.2-0.5-0.2-1-0.3-1.6c0-0.5,0-1,0.2-1.5s0.3-1,0.5-1.4c0.2-0.5,0.5-0.9,0.9-1.3c0.3-0.4,0.7-0.7,1.2-1
			c0.4-0.3,0.9-0.5,1.4-0.7c1.6-0.5,3.1-0.3,4.5,0.4c1.5,0.8,2.4,1.9,2.9,3.5l0.7,2.2l4.7-1.4c0.3-0.1,0.6-0.1,0.9,0.1
			c0.3,0.2,0.5,0.4,0.6,0.7c0.1,0.3,0.1,0.6-0.1,0.9C42.6,110.2,42.4,110.4,42.1,110.5z M27.6,112.5l6.8-2.1l-0.7-2.2
			c-0.1-0.5-0.4-0.9-0.7-1.2c-0.3-0.4-0.7-0.6-1.1-0.9c-0.4-0.2-0.8-0.4-1.3-0.4c-0.5-0.1-0.9,0-1.4,0.1c-0.5,0.1-0.9,0.4-1.3,0.7
			c-0.4,0.3-0.6,0.7-0.9,1.1c-0.2,0.4-0.3,0.8-0.4,1.3c0,0.5,0,0.9,0.1,1.4L27.6,112.5z"/>
		<path d="M38.3,98.5l-14.6,5.4c-0.2,0.1-0.3,0.1-0.5,0.1c-0.2,0-0.3,0-0.4-0.1c-0.1-0.1-0.3-0.2-0.4-0.3c-0.1-0.1-0.2-0.2-0.2-0.4
			l-1.5-4.1c-0.3-0.7-0.4-1.4-0.3-2.2c0-0.7,0.2-1.4,0.5-2.1c0.3-0.6,0.7-1.2,1.2-1.7c0.5-0.5,1.1-0.9,1.9-1.2
			c0.5-0.2,0.9-0.3,1.4-0.3c0.5,0,1,0,1.4,0.1s0.9,0.2,1.4,0.5c0.5,0.2,0.9,0.5,1.3,0.9l4.1-5.4c0.2-0.2,0.3-0.3,0.5-0.4
			c0.2-0.1,0.3-0.1,0.5-0.1c0.2,0,0.3,0,0.4,0.1s0.3,0.2,0.4,0.3c0.1,0.1,0.2,0.3,0.2,0.4c0.1,0.4,0.1,0.8-0.2,1.2l-4.6,5.9l1.2,3.1
			l5.4-2c0.3-0.1,0.6-0.1,0.9,0c0.3,0.1,0.5,0.4,0.6,0.7c0.1,0.3,0.1,0.6,0,0.9C38.8,98.1,38.6,98.4,38.3,98.5z M24,101.2l5.9-2.2
			l-1.1-2.9c-0.2-0.4-0.4-0.8-0.7-1.1c-0.3-0.3-0.6-0.5-1-0.7c-0.4-0.2-0.8-0.3-1.2-0.3c-0.4,0-0.8,0-1.2,0.2
			c-0.4,0.2-0.8,0.4-1.1,0.7c-0.3,0.3-0.5,0.6-0.7,1c-0.2,0.4-0.3,0.8-0.3,1.2c0,0.4,0,0.8,0.2,1.2L24,101.2z"/>
		<path d="M31.9,83c0.4-0.2,0.8-0.2,1.2,0c0.4,0.2,0.7,0.5,0.9,0.9c0.2,0.4,0.2,0.8,0,1.2c-0.2,0.4-0.5,0.7-0.9,0.9
			c-0.4,0.2-0.8,0.2-1.2,0c-0.4-0.2-0.7-0.5-0.9-0.9c-0.2-0.4-0.2-0.8,0-1.2C31.2,83.4,31.5,83.1,31.9,83z"/>
		<path d="M30.1,78.7c0.4-0.2,0.8-0.2,1.2,0s0.7,0.4,0.9,0.9c0.2,0.4,0.2,0.8,0,1.2s-0.4,0.7-0.9,0.9c-0.4,0.2-0.8,0.2-1.2,0
			c-0.4-0.2-0.7-0.4-0.9-0.9c-0.2-0.4-0.2-0.8,0-1.2C29.4,79.2,29.7,78.9,30.1,78.7z"/>
		<path d="M28.2,74.5c0.4-0.2,0.8-0.2,1.2,0c0.4,0.2,0.7,0.4,0.9,0.8c0.2,0.4,0.2,0.8,0,1.2c-0.2,0.4-0.4,0.7-0.8,0.9
			c-0.4,0.2-0.8,0.2-1.2,0c-0.4-0.2-0.7-0.4-0.9-0.8c-0.2-0.4-0.2-0.8,0-1.2C27.5,75,27.8,74.7,28.2,74.5z"/>
	</g>
</g>
</svg>
