<svg xmlns="http://www.w3.org/2000/svg" viewBox="0 0 253 365.38"><defs><style>.cls-1{isolation:isolate;}.cls-2{fill:#3178c6;}.cls-10,.cls-3{fill:#fff;}.cls-3{stroke:#fff;stroke-width:20px;}.cls-13,.cls-14,.cls-16,.cls-20,.cls-3,.cls-8{stroke-linecap:round;stroke-linejoin:round;}.cls-4{fill:#caa77a;}.cls-5{fill:#3f2719;mix-blend-mode:multiply;opacity:0.23;}.cls-6{fill:#ffdbaf;}.cls-7{fill:#9d7b51;}.cls-13,.cls-14,.cls-16,.cls-20,.cls-8{fill:none;}.cls-13,.cls-16,.cls-8{stroke:#2d1f04;}.cls-8{stroke-width:7.6px;}.cls-15,.cls-9{fill:#b2b2b2;}.cls-9{opacity:0.82;}.cls-11{fill:#2d1f04;}.cls-12{fill:#251707;}.cls-13{stroke-width:2.6px;}.cls-14{stroke:#251707;stroke-width:2.62px;}.cls-16{stroke-width:2.62px;}.cls-17{fill:#d2d2d2;}.cls-18{fill:#ffdb1f;}.cls-19{fill:#82603c;}.cls-20{stroke:#9d7b51;stroke-width:3.87px;}</style></defs><g class="cls-1"><g id="Layer_2" data-name="Layer 2"><g id="Layer_2-2" data-name="Layer 2"><g id="sloth_no_mentor"><g id="white_outline"><path class="cls-2" d="M69.45,243.94c-1-.06-1.47-.11-2.45-.22,0-4.1,0-6.05,0-10.11-1.25-.11-1.87-.18-3.14-.34v-2.12a60.65,60.65,0,0,0,8.78.56c0,.85,0,1.28,0,2.14-1.26,0-1.93,0-3.19-.07Z" transform="translate(0 -4.14)"/><path class="cls-2" d="M77.59,238.47a5.39,5.39,0,0,1-2.5-1.34,3,3,0,0,1-.65-2.06,3.55,3.55,0,0,1,1.07-2.69,4.86,4.86,0,0,1,3-1.16,8.15,8.15,0,0,1,1.71,0,8.06,8.06,0,0,1,1.68.33v2.39a6.24,6.24,0,0,0-1.59-.62,5.16,5.16,0,0,0-1.61-.1,2.52,2.52,0,0,0-1.36.48,1.3,1.3,0,0,0-.47,1.05,1.07,1.07,0,0,0,.34.83,4,4,0,0,0,1.44.61l1,.29a4.06,4.06,0,0,1,2.19,1.14,3.12,3.12,0,0,1,.7,2.16,4,4,0,0,1-1.1,3,5.22,5.22,0,0,1-3.34,1.33,6.69,6.69,0,0,1-1.84-.08,7.07,7.07,0,0,1-1.79-.58V240.9a7,7,0,0,0,1.89,1,4.58,4.58,0,0,0,1.82.2,2.21,2.21,0,0,0,1.4-.56,1.58,1.58,0,0,0,.5-1.2,1.4,1.4,0,0,0-.33-.94,2,2,0,0,0-1-.55Z" transform="translate(0 -4.14)"/><path class="cls-3" d="M142.17,29.79a1.12,1.12,0,0,1-.5-.58.82.82,0,0,1,.09-.71L150,14.6a.87.87,0,0,1,1.23-.32l8.43,5a.85.85,0,0,1,.38.51.87.87,0,0,1-.12.67.8.8,0,0,1-1.14.31l-7.66-4.55-2.87,4.85,4.88,2.9a6,6,0,0,1,2.12,2,5.11,5.11,0,0,1,.74,2.61,5.21,5.21,0,0,1-.78,2.71,5.39,5.39,0,0,1-2,2,5,5,0,0,1-2.65.61,5.9,5.9,0,0,1-2.81-.87Zm1.56-1.09,4.88,2.9a4,4,0,0,0,1.92.61,3.43,3.43,0,0,0,1.8-.43,4.13,4.13,0,0,0,2-3.32,3.22,3.22,0,0,0-.51-1.75,4.23,4.23,0,0,0-1.46-1.38l-4.88-2.9Z" transform="translate(0 -4.14)"/><path class="cls-3" d="M158.61,41.54a6.51,6.51,0,0,1-1.92-2.81,5.86,5.86,0,0,1-.17-3.19,6.6,6.6,0,0,1,1.6-3,7,7,0,0,1,2.79-2,5.76,5.76,0,0,1,6,1.2,5.71,5.71,0,0,1,1.74,2.62,5.39,5.39,0,0,1,0,3,6.9,6.9,0,0,1-1.6,2.86.76.76,0,0,1-.56.28.84.84,0,0,1-.6-.23l-7.28-6.52,1-1.09L167,39.29l-1.21-.12a5.27,5.27,0,0,0,1.23-2.11,4,4,0,0,0,0-2.19,4.1,4.1,0,0,0-1.26-1.93,4.24,4.24,0,0,0-2.13-1.07,4.17,4.17,0,0,0-2.28.26,5.59,5.59,0,0,0-2.07,1.5,5,5,0,0,0-1.2,2.26,4.47,4.47,0,0,0,.11,2.38,4.75,4.75,0,0,0,1.4,2.09,4.91,4.91,0,0,0,1.44.89,3.89,3.89,0,0,0,1.49.36,1,1,0,0,1,.57.22.87.87,0,0,1,.3.5.85.85,0,0,1-.17.65.66.66,0,0,1-.57.24,6.3,6.3,0,0,1-2.15-.49A6.54,6.54,0,0,1,158.61,41.54Z" transform="translate(0 -4.14)"/><path class="cls-3" d="M166.81,50.12a7.06,7.06,0,0,1-1.07-1.63,6.72,6.72,0,0,1-.56-1.77,4.44,4.44,0,0,1,0-1.59.83.83,0,0,1,.37-.55.83.83,0,0,1,1.15.35,1.21,1.21,0,0,1,.13.66,4.5,4.5,0,0,0,.2,1.75,4.6,4.6,0,0,0,1,1.71,3.93,3.93,0,0,0,1.9,1.32,1.84,1.84,0,0,0,1.8-.42,2,2,0,0,0,.72-1.52,2.56,2.56,0,0,0-.6-1.71l-.77-.89a1.12,1.12,0,0,1-.3-.68.64.64,0,0,1,.23-.56.63.63,0,0,1,.58-.14,1.17,1.17,0,0,1,.62.4l.77.89a1.9,1.9,0,0,0,2.71.18,1.63,1.63,0,0,0,.55-1.44,3.25,3.25,0,0,0-.87-1.82,4.42,4.42,0,0,0-1.52-1.18,3.45,3.45,0,0,0-1.51-.3,1,1,0,0,1-.63-.23.83.83,0,0,1-.32-.56.59.59,0,0,1,.16-.58.9.9,0,0,1,.62-.28,6.08,6.08,0,0,1,2.3.48,5.64,5.64,0,0,1,2.11,1.57,5.42,5.42,0,0,1,1.16,2,3.9,3.9,0,0,1,.12,2,2.91,2.91,0,0,1-.92,1.56,2.5,2.5,0,0,1-1.32.6,3.06,3.06,0,0,1-1.49-.14,3.38,3.38,0,0,1-1.34-.83l.19-.16a3.64,3.64,0,0,1,.83,1.59,3.18,3.18,0,0,1,0,1.68,3,3,0,0,1-.93,1.41,3.08,3.08,0,0,1-1.87.79,4.4,4.4,0,0,1-2.15-.42A5.89,5.89,0,0,1,166.81,50.12Z" transform="translate(0 -4.14)"/><path class="cls-3" d="M176.09,61.75a.84.84,0,0,1,.28-1.24l9.14-5.73a.84.84,0,0,1,1.24.28,1.14,1.14,0,0,1,.05,1.12l-3.54,8.21,8.94.4a1.13,1.13,0,0,1,1,.52.94.94,0,0,1,.14.69.88.88,0,0,1-.43.55l-9.14,5.73a.84.84,0,0,1-1.23-.28.83.83,0,0,1-.14-.68.92.92,0,0,1,.43-.54L191,65.66l.15.59-8.64-.4a1,1,0,0,1-.9-.44,1,1,0,0,1,0-1L185,56.52l.47.41L177.31,62a.86.86,0,0,1-.67.15A.84.84,0,0,1,176.09,61.75Z" transform="translate(0 -4.14)"/><path class="cls-3" d="M187.31,81.24a6.61,6.61,0,0,1-.79-3.31,5.91,5.91,0,0,1,1-3,6.66,6.66,0,0,1,2.57-2.25,7,7,0,0,1,3.3-.85,6.1,6.1,0,0,1,5.87,6.32,5.42,5.42,0,0,1-1,2.8,7,7,0,0,1-2.51,2.1.81.81,0,0,1-.62.07.85.85,0,0,1-.47-.43L190.1,74l1.31-.68L196,82.13l-1.09-.55a5.1,5.1,0,0,0,1.9-1.53,3.94,3.94,0,0,0,.81-2,4,4,0,0,0-.49-2.24,4.1,4.1,0,0,0-3.84-2.33,5.62,5.62,0,0,0-2.46.67,4.94,4.94,0,0,0-1.92,1.68,4.45,4.45,0,0,0-.75,2.27,4.79,4.79,0,0,0,.57,2.45,5.27,5.27,0,0,0,1,1.35,3.93,3.93,0,0,0,1.26.86.92.92,0,0,1,.46.41.88.88,0,0,1,.1.57.85.85,0,0,1-.39.55.69.69,0,0,1-.61,0A6,6,0,0,1,188.73,83,6.55,6.55,0,0,1,187.31,81.24Z" transform="translate(0 -4.14)"/><path class="cls-3" d="M191.43,89.28a.82.82,0,0,1,.47-1.16l9.85-4.39a.91.91,0,0,1,.7,0,.88.88,0,0,1,0,1.64l-9.85,4.39a.91.91,0,0,1-.7,0A.87.87,0,0,1,191.43,89.28Zm4,9a.92.92,0,0,1,0-.69.91.91,0,0,1,.5-.5l9.85-4.38a.85.85,0,0,1,.71,0,.92.92,0,0,1,.48.49.87.87,0,0,1,0,.67.91.91,0,0,1-.51.47l-9.85,4.39a.94.94,0,0,1-.69.06A.85.85,0,0,1,195.45,98.32Zm1.28-10.77,1.45-.64,3.67,8.26-1.44.64Z" transform="translate(0 -4.14)"/><path class="cls-3" d="M197.66,103.54a.89.89,0,0,1,0-.7.82.82,0,0,1,.51-.45l10.11-3.81a.91.91,0,0,1,.69,0,.89.89,0,0,1,.47.53.84.84,0,0,1,0,.68.93.93,0,0,1-.52.45l-10.12,3.81a.84.84,0,0,1-.68,0A.86.86,0,0,1,197.66,103.54Zm2.85,7.55a.85.85,0,0,1,0-.68A.81.81,0,0,1,201,110l6.2-2.33a3.8,3.8,0,0,0,2.12-1.71,2.75,2.75,0,0,0,.12-2.38,3.14,3.14,0,0,0-1.69-1.87,3.3,3.3,0,0,0-2.6,0l-.44-1.18a5.83,5.83,0,0,1,2.67-.31,4.65,4.65,0,0,1,2.26.94,4.77,4.77,0,0,1,1.68,4.48,4.33,4.33,0,0,1-1.12,2.17,6.14,6.14,0,0,1-2.38,1.52l-6.2,2.33a.81.81,0,0,1-1.12-.51Zm2.82,7.52a.91.91,0,0,1,0-.69.82.82,0,0,1,.5-.46l6.2-2.33a3.69,3.69,0,0,0,2.12-1.71,2.79,2.79,0,0,0,.13-2.38,3.09,3.09,0,0,0-1.72-1.85,3.46,3.46,0,0,0-2.69.07l-.56-1.49a5.68,5.68,0,0,1,2.78-.33,4.61,4.61,0,0,1,2.32,1,5.06,5.06,0,0,1,1.51,2.16,4.64,4.64,0,0,1,.24,2.48,4.43,4.43,0,0,1-1.13,2.17,6.14,6.14,0,0,1-2.37,1.52l-6.2,2.33a.84.84,0,0,1-.68,0A.83.83,0,0,1,203.33,118.61Z" transform="translate(0 -4.14)"/><path class="cls-3" d="M206.43,128.45a6.56,6.56,0,0,1-.23-3.38,6,6,0,0,1,1.47-2.87,6.58,6.58,0,0,1,2.87-1.8,6.47,6.47,0,0,1,3.41-.23,6,6,0,0,1,2.87,1.46,6.58,6.58,0,0,1,1.8,2.87,6.45,6.45,0,0,1,.22,3.38,6,6,0,0,1-1.47,2.85,6.59,6.59,0,0,1-2.89,1.83,6.48,6.48,0,0,1-3.39.22,6.17,6.17,0,0,1-2.86-1.47A6.44,6.44,0,0,1,206.43,128.45ZM208,128a4.68,4.68,0,0,0,1.33,2.09,4.46,4.46,0,0,0,2.13,1.05,5,5,0,0,0,2.52-.19,5,5,0,0,0,2.17-1.33,4.39,4.39,0,0,0,1.12-2.1,4.88,4.88,0,0,0-1.47-4.55,4.42,4.42,0,0,0-2.14-1.06,5.3,5.3,0,0,0-4.7,1.52,4.39,4.39,0,0,0-1.1,2.11A4.61,4.61,0,0,0,208,128Z" transform="translate(0 -4.14)"/><path class="cls-3" d="M204.54,140a.88.88,0,0,1,.05-.7.9.9,0,0,1,.56-.41l10.44-3a6.43,6.43,0,0,1,3.34-.07,6.23,6.23,0,0,1,2.81,1.57,6.42,6.42,0,0,1,1.69,2.87,6.53,6.53,0,0,1,.1,3.39,6.14,6.14,0,0,1-1.57,2.84,6.93,6.93,0,0,1-6.29,1.83,6.14,6.14,0,0,1-2.81-1.5,6,6,0,0,1-1.69-2.82,5.94,5.94,0,0,1-.14-2.86,5.61,5.61,0,0,1,1.11-2.42l-6.5,1.87a.86.86,0,0,1-.69-.05A.85.85,0,0,1,204.54,140Zm8.12,3.36a4.77,4.77,0,0,0,1.26,2.13,4.42,4.42,0,0,0,2.11,1.12,5.27,5.27,0,0,0,4.72-1.35,4.73,4.73,0,0,0-.13-6.66,4.54,4.54,0,0,0-2.11-1.11,5.29,5.29,0,0,0-4.72,1.36,4.43,4.43,0,0,0-1.19,2.06A4.64,4.64,0,0,0,212.66,143.38Z" transform="translate(0 -4.14)"/><path class="cls-3" d="M215.14,158.63a6.12,6.12,0,0,1,0-3.29,6.18,6.18,0,0,1,1.67-2.72,6.55,6.55,0,0,1,3-1.6,6.39,6.39,0,0,1,3.39,0,6.17,6.17,0,0,1,2.79,1.65,6.36,6.36,0,0,1,1.62,3,6.23,6.23,0,0,1-1.65,6.14,6.56,6.56,0,0,1-3,1.65l-.71-.55a5.92,5.92,0,0,1-3.07,0,5.62,5.62,0,0,1-2.55-1.51A5.82,5.82,0,0,1,215.14,158.63Zm1.61-.23a4.59,4.59,0,0,0,1.19,2.15,4.48,4.48,0,0,0,2.07,1.18,5,5,0,0,0,2.53,0,4.89,4.89,0,0,0,2.23-1.21,4.62,4.62,0,0,0,1.25-2,4.56,4.56,0,0,0,0-2.46,4.48,4.48,0,0,0-1.21-2.13,4.64,4.64,0,0,0-2.08-1.2A5.16,5.16,0,0,0,218,153.9a4.54,4.54,0,0,0-1.25,4.5Zm-.08,5.7a.93.93,0,0,1,.07-.68.86.86,0,0,1,.55-.41l3.81-1,1.87,0v1.4l-5.23,1.35a.8.8,0,0,1-.68-.09A.93.93,0,0,1,216.67,164.1Z" transform="translate(0 -4.14)"/><path class="cls-3" d="M219.41,175.6a.81.81,0,0,1,.1-.67.9.9,0,0,1,.58-.38l10.53-2.34a.84.84,0,0,1,1.07.66.85.85,0,0,1-.1.67.89.89,0,0,1-.59.38l-10.53,2.34a.89.89,0,0,1-.69-.09A.91.91,0,0,1,219.41,175.6Zm2.14,9.65a.93.93,0,0,1,.1-.68.91.91,0,0,1,.58-.39l10.53-2.33a.87.87,0,0,1,.7.1.92.92,0,0,1,.38.58.8.8,0,0,1-.11.65.88.88,0,0,1-.59.37l-10.53,2.34a.93.93,0,0,1-.69-.08A.84.84,0,0,1,221.55,185.25ZM224.94,175l1.55-.34,2,8.82-1.55.34Z" transform="translate(0 -4.14)"/><path class="cls-3" d="M223.59,195.67a6.45,6.45,0,0,1,.16-3.39,6,6,0,0,1,1.78-2.68,6.52,6.52,0,0,1,3.06-1.46,6.61,6.61,0,0,1,3.41.16,6,6,0,0,1,2.68,1.78,6.95,6.95,0,0,1,1.3,6.44,6,6,0,0,1-1.79,2.67,6.7,6.7,0,0,1-3.07,1.49,6.43,6.43,0,0,1-3.39-.18,6.06,6.06,0,0,1-2.69-1.78A6.43,6.43,0,0,1,223.59,195.67Zm1.57-.32a4.71,4.71,0,0,0,1.08,2.23,4.34,4.34,0,0,0,2,1.28,4.89,4.89,0,0,0,2.53.1,5.14,5.14,0,0,0,2.31-1.07,4.45,4.45,0,0,0,1.35-2,4.67,4.67,0,0,0,.14-2.47,4.72,4.72,0,0,0-1.08-2.22,4.58,4.58,0,0,0-2-1.3,5.08,5.08,0,0,0-2.55-.11,4.94,4.94,0,0,0-2.29,1.09,4.45,4.45,0,0,0-1.34,2A4.63,4.63,0,0,0,225.16,195.35Z" transform="translate(0 -4.14)"/><path class="cls-3" d="M220.46,207.09a.84.84,0,0,1,.72-1.05l10.68-1.94a6.42,6.42,0,0,1,3.33.27,6.18,6.18,0,0,1,2.64,1.83,6.32,6.32,0,0,1,1.39,3,6.42,6.42,0,0,1-.23,3.39,6.18,6.18,0,0,1-1.84,2.66,6.48,6.48,0,0,1-3.09,1.42,6.64,6.64,0,0,1-3.36-.22,6.11,6.11,0,0,1-2.65-1.78,6,6,0,0,1-1.39-3,5.84,5.84,0,0,1,.14-2.86,5.53,5.53,0,0,1,1.35-2.3l-6.65,1.22a.88.88,0,0,1-.69-.12A.84.84,0,0,1,220.46,207.09Zm7.74,4.15a4.65,4.65,0,0,0,1,2.24,4.54,4.54,0,0,0,2,1.34,5.07,5.07,0,0,0,2.52.16,5,5,0,0,0,2.31-1,4.49,4.49,0,0,0,1.39-1.94,4.66,4.66,0,0,0,.19-2.47,4.59,4.59,0,0,0-1-2.22,4.44,4.44,0,0,0-2-1.32,5.31,5.31,0,0,0-4.83.88,4.34,4.34,0,0,0-1.39,1.94A4.66,4.66,0,0,0,228.2,211.24Z" transform="translate(0 -4.14)"/><path class="cls-3" d="M228.61,222.07a.9.9,0,0,1,.13-.68.92.92,0,0,1,.61-.35L240,219.3a.86.86,0,0,1,.68.13.87.87,0,0,1,.35.61,1.13,1.13,0,0,1-.39,1l-6.44,6.21,8.09,3.82a1.13,1.13,0,0,1,.7.87.86.86,0,0,1-.14.68.87.87,0,0,1-.6.35l-10.65,1.74a.86.86,0,0,1-.68-.13.87.87,0,0,1-.35-.61.84.84,0,0,1,.14-.67.9.9,0,0,1,.6-.34l9.51-1.56-.08.6-7.81-3.7a1,1,0,0,1-.66-.76,1,1,0,0,1,.38-.9l6.15-6,.28.56-9.44,1.55a.82.82,0,0,1-1-.72Z" transform="translate(0 -4.14)"/><path class="cls-3" d="M231,239.42a1.35,1.35,0,0,1,.24-1,1.35,1.35,0,0,1,2.42.58,1.28,1.28,0,0,1-.25,1,1.4,1.4,0,0,1-.89.53,1.34,1.34,0,0,1-1-.24A1.27,1.27,0,0,1,231,239.42Z" transform="translate(0 -4.14)"/><path class="cls-3" d="M231.76,244.3a1.25,1.25,0,0,1,.25-1,1.28,1.28,0,0,1,.87-.53,1.33,1.33,0,0,1,1.28,2.12,1.33,1.33,0,0,1-.89.52,1.31,1.31,0,0,1-1-.24A1.2,1.2,0,0,1,231.76,244.3Z" transform="translate(0 -4.14)"/><path class="cls-3" d="M232.47,249.19a1.29,1.29,0,0,1,.25-1,1.27,1.27,0,0,1,.88-.52,1.25,1.25,0,0,1,1,.26,1.27,1.27,0,0,1,.52.86,1.22,1.22,0,0,1-.26,1,1.36,1.36,0,0,1-.89.53,1.27,1.27,0,0,1-1-.25A1.2,1.2,0,0,1,232.47,249.19Z" transform="translate(0 -4.14)"/><path class="cls-3" d="M208.08,262.82a62.1,62.1,0,0,0,10.35-6.56,17.93,17.93,0,0,0,3-2.14,1.4,1.4,0,0,0,.09-.61c-1.86-32.62-16.08-76.2-23.56-98.32,1.49-.68,3.11-3,3.37-5.6.6-3.27-.85-7.15-7.5-8.68-.63.8-1.34,1.62-2.12,2.45-.32-1.59-.66-3.31-1.05-5.14a233.58,233.58,0,0,0-5.55-22.69c-.24-.87-.49-1.73-.74-2.6s.2-2.17,2.35-2.28a9.27,9.27,0,0,1,2.71.35l0,0,.07,0c-4.57-3.26-7.5-6.44-8.28-8.51a9,9,0,0,1,4.69-1.42,8.61,8.61,0,0,1,1.94.29l-.08,0,.14,0c-5.25-1.55-11.23-7.21-12-8.88-7.41-16.2-16.31-31.29-26.06-39.09C133,39.93,120.31,38.29,107.3,35.8c-3.75-.71-10.76-3.6-11.37-7.26l0,0a0,0,0,0,1,0,0c-3.82,2.13-1.64,6.37-1.6,6.43-.76-.08-9.92-1.34-13.93-12l0,.07,0-.07c-1.54,3.95-3.73,10.91,1.47,15.26C78.07,36.49,72.13,36,66.6,36A124.28,124.28,0,0,0,53,36.77h.42c1.85,0,9.4.32,14.36,4.93-.1,0-1.21-.2-1.67-.25-.11,0-1.43-.1-2-.1-8.64.06-16.81,6-16.81,6h0a63.36,63.36,0,0,1,8.35-.73c2.63,0,5,.34,5.33,1.47a31.82,31.82,0,0,0-13.55,9l.12-.08-.06.08a8.84,8.84,0,0,1,4.06-1.24c.25,0,1.92-.13,2.33-.13a29.74,29.74,0,0,1,3.62.27,68.14,68.14,0,0,0-13,21,32.86,32.86,0,0,0-2,5.93h0a65.18,65.18,0,0,0-1.57,30,62.5,62.5,0,0,0,1.81,7.19,60,60,0,0,0,4.93,11.33c4.74,8.44,11.2,20.09,13.68,32.2-.6-.23-1.2-.45-1.79-.69a6.65,6.65,0,0,0-4.9,6.06s-18.4,12.43-4.8,41.63c-3.74-.56-9.5-.47-13.38,3.44a33.44,33.44,0,0,0-5.12-4.23s-5.47-4.05-14.56,1.5c-7.39,7.69-7,17.84-6.79,19.55,2.54,20.91,33.4,34.7,33.4,34.7l1.9,5.9a31.88,31.88,0,0,0,7.42,4.26l2.91,13.4,1.95-3.59,2.44,13.5,2.71-2.79,8.51,10.12a4,4,0,0,1,1,1.84s-.81,25.79,5.3,30.9c-7,2.09-19.8,6.87-25.47,15a15.92,15.92,0,0,0-2.71,5.41h51.69l20.77-.5s6.17-.33,3.57-7c-3.74-9.57-8-13.79-8-27.61a.37.37,0,0,1,.05-.28,157,157,0,0,0,34.54-2c.11,6.53,3.71,14.93,6.88,18.78a.5.5,0,0,1,.17.55s-17.51,4-23.5,17.18c0,0,65.55.4,72.65-.06,1.09-.31,4.19-2.94,3.87-4.14a107.68,107.68,0,0,0-5-13c3.46-3.38,11.91-12.54,12.11-21.53-6.06,7.07-11.52,10.27-15.95,11.54-.6-2-1.16-4-1.64-6-1.73-8.49-1.85-19.22,1.77-35.27A77.18,77.18,0,0,0,208.08,262.82Z" transform="translate(0 -4.14)"/></g><g id="sloth"><path class="cls-4" d="M61.75,171.22c-.88-14.53-9-29.13-14.64-39.19a60.83,60.83,0,0,1-4.92-11.32,59.25,59.25,0,0,1-1.81-7.2C36.53,93,43.28,71.57,56.91,56.56c-7.32-1-10.07,1.1-10.07,1.1a31.93,31.93,0,0,1,13.54-9c-.93-2.79-13.73-.74-13.73-.74S57.3,40.19,67.13,42.3c-5.69-5.3-14.79-4.95-14.79-4.95s20.43-2.53,28.85,1.49c-5.26-4.35-3.06-11.34-1.52-15.31,4.19,11.15,14,12,14,12s-2.26-4.29,1.59-6.44c.61,3.66,7.63,6.55,11.37,7.27,13,2.49,25.71,4.13,42.54,17.59,9.76,7.79,18.65,22.88,26.06,39.09.76,1.66,6.74,7.32,12,8.87-2.89-.73-4.48,0-6.69,1.13.78,2.07,3.71,5.25,8.28,8.51-4.51-1.15-5.48.75-5.11,1.93a240.22,240.22,0,0,1,9.05,42.55s-20.06,26.1-64.32,31.65C81,193.65,61.75,171.22,61.75,171.22Z" transform="translate(0 -4.14)"/><path class="cls-5" d="M41.94,83.5c1.76-8.24,10.57-22,15-26.94-7.32-1-10.07,1.1-10.07,1.1a31.93,31.93,0,0,1,13.54-9c-.93-2.79-13.72-.74-13.72-.74s10.65-7.73,20.47-5.62C61.5,37,52.39,37.35,52.39,37.35s20.43-2.53,28.85,1.49c-5.26-4.35-3-11.34-1.51-15.31,4.18,11.15,14,12,14,12s-2.26-4.29,1.6-6.44c.6,3.66,7.62,6.55,11.36,7.27,13,2.49,25.71,4.13,42.55,17.59,9.75,7.79,18.64,22.88,26.05,39.09.77,1.66,6.75,7.32,12,8.87-2.89-.73-4.48,0-6.69,1.13.79,2.07,3.72,5.25,8.29,8.51-4.52-1.15-5.46.75-5.12,1.93a350.22,350.22,0,0,1,9.41,42.16s.74,3.88-12.49,10.07C169,38.59,78.05,33.13,41.94,83.5Z" transform="translate(0 -4.14)"/><path class="cls-6" d="M43.1,95.64c2-8.15,10.31-17.72,32.66-20.78,12.95-1.77,13-9.54,13-9.54s6.31,9.54,23.1,7.5c18.51-5.66,29.49-2.53,39.35,15.57,1.84,3.37,12.58,34.58.12,55.05a32.74,32.74,0,0,1-11.05,11c-20.07,12.25-63.58,16.19-83.49-9.28C47.51,133.23,39.41,110.84,43.1,95.64Z" transform="translate(0 -4.14)"/><path class="cls-7" d="M41.18,98.47c-4.66,13.69,6.43,33.76,9.2,35.87C52.52,136,88,116.7,71.29,75.26c-.63-1.55-15.53,3-21.48,7.87C47.13,85.33,42.63,94.83,41.18,98.47Z" transform="translate(0 -4.14)"/><path class="cls-7" d="M114.75,74.86C92.28,127.29,151.16,140,156.08,130.8c4.32-8.07,2.91-28-5-41.9-.77-1.36-10.56-13.32-12-13.08C127.49,77.79,118.2,75,114.75,74.86Z" transform="translate(0 -4.14)"/><path class="cls-8" d="M112.25,72.75c39.75-2.88,45.51,29.19,45.51,29.19" transform="translate(0 -4.14)"/><path class="cls-8" d="M71.29,75.26c-30.9,4.72-34,30.88-34,30.88" transform="translate(0 -4.14)"/><path class="cls-9" d="M47.13,105.14c5.17,3,10.84,8.39,24.16.41,1.13,5.82-2.23,16.61-11.81,16.33C48,121.55,45,108.73,47.13,105.14Z" transform="translate(0 -4.14)"/><path class="cls-10" d="M59.35,93.07h0A11.21,11.21,0,0,1,70.6,104.24V105a11.25,11.25,0,0,1-22.49,0v-.73A11.2,11.2,0,0,1,59.35,93.07Z" transform="translate(0 -4.14)"/><path class="cls-10" d="M132.82,91.79h0A11.2,11.2,0,0,1,144.06,103v.73a11.24,11.24,0,0,1-22.48,0V103A11.2,11.2,0,0,1,132.82,91.79Z" transform="translate(0 -4.14)"/><circle class="cls-11" cx="132.82" cy="99.18" r="2.27"/><circle class="cls-11" cx="59.35" cy="100.06" r="5.82"/><path class="cls-7" d="M85.65,109.37c-6.73-3.41-15.46,16.21-15,21.16,1.54,18.05,29.31,22.7,42.63,11.71,14.21-11.71-5.25-38.77-16.93-34" transform="translate(0 -4.14)"/><path class="cls-12" d="M81,110.59c-.13-2.56,4.83-4.89,11.08-5.2s11.41,1.51,11.53,4.07-4.83,4.89-11.08,5.2S81.12,113.15,81,110.59Z" transform="translate(0 -4.14)"/><path class="cls-13" d="M59.35,92.67h0A11.21,11.21,0,0,1,70.6,103.84v.73a11.25,11.25,0,0,1-22.49,0v-.73A11.2,11.2,0,0,1,59.35,92.67Z" transform="translate(0 -4.14)"/><path class="cls-13" d="M132.82,91.79h0A11.2,11.2,0,0,1,144.06,103v.73a11.24,11.24,0,0,1-22.48,0V103A11.2,11.2,0,0,1,132.82,91.79Z" transform="translate(0 -4.14)"/><path class="cls-14" d="M91.59,113s-2.09,10.57,0,12.77,11.28,2.32,17-2.42" transform="translate(0 -4.14)"/><path class="cls-15" d="M120.24,103.32c4.19,6.33,14.78,13,25.13,1,1.13,5.82-3,14.77-12.55,14.5C121.32,118.52,118.15,106.91,120.24,103.32Z" transform="translate(0 -4.14)"/><path class="cls-16" d="M61.75,171.22c-.88-14.53-9-29.13-14.64-39.19a60.83,60.83,0,0,1-4.92-11.32,59.25,59.25,0,0,1-1.81-7.2C36.53,93,43.28,71.57,56.91,56.56c-7.32-1-10.07,1.1-10.07,1.1a31.93,31.93,0,0,1,13.54-9c-.93-2.79-13.73-.74-13.73-.74S57.3,40.19,67.13,42.3c-5.69-5.3-14.79-4.95-14.79-4.95s20.43-2.53,28.85,1.49c-5.26-4.35-3.06-11.34-1.52-15.31,4.19,11.15,14,12,14,12s-2.26-4.29,1.59-6.44c.61,3.66,7.63,6.55,11.37,7.27,13,2.49,25.71,4.13,42.54,17.59,9.76,7.79,18.65,22.88,26.06,39.09.76,1.66,6.74,7.32,12,8.87-2.89-.73-4.48,0-6.69,1.13.78,2.07,3.71,5.25,8.28,8.51-4.51-1.15-5.47.75-5.11,1.93a401,401,0,0,1,10.2,41.42" transform="translate(0 -4.14)"/><path class="cls-14" d="M106.21,119.75s5.78.87,4.79,7.5" transform="translate(0 -4.14)"/><path class="cls-17" d="M81.37,339s-28.51,6.2-32.53,21.14h51.7a106.78,106.78,0,0,0-6.87-13.54C88.56,337.76,81.37,339,81.37,339Z" transform="translate(0 -4.14)"/><path class="cls-5" d="M81.73,338.48s-28.51,6.19-32.53,21.14h51.69A105.25,105.25,0,0,0,94,346.07C88.91,337.27,81.73,338.48,81.73,338.48Z" transform="translate(0 -4.14)"/><path class="cls-17" d="M158.47,342.1s-17.5,4-23.5,17.19l45,.45s1.82-3.71-3.06-12.1C171.76,338.84,158.47,342.1,158.47,342.1Z" transform="translate(0 -4.14)"/><path class="cls-16" d="M77.25,339.59s-24,5.08-28,20h51.69" transform="translate(0 -4.14)"/><path class="cls-4" d="M116.84,325c0,13.82,4.3,18,8,27.61,2.6,6.67-3.56,7-3.56,7H100.56c-4.74-12.83-15.11-16.88-22.26-19.16-7.49-2.39-6.57-31.63-6.57-31.63" transform="translate(0 -4.14)"/><path class="cls-5" d="M116.84,325c0,13.82,4.3,18,8,27.61,2.6,6.67-3.56,7-3.56,7H100.56c-4.74-12.83-15.11-16.88-22.26-19.16-7.49-2.39-6.57-31.63-6.57-31.63" transform="translate(0 -4.14)"/><path class="cls-16" d="M116.84,325c0,13.82,4.3,18,8,27.61,2.6,6.67-3.56,7-3.56,7H100.56c-4.74-12.83-15.51-17.46-22.66-19.75-7.5-2.39-6.12-32.55-6.12-32.55" transform="translate(0 -4.14)"/><path class="cls-16" d="M89.33,345.22s-27.61,1.85-39.39,14.07" transform="translate(0 -4.14)"/><path class="cls-4" d="M51.54,273.41l3.54,16.34,2-3.58,2.43,13.5,2.72-2.79L70.69,307s20.24,17.4,41.14,17.16c13.78,2,31.6-.3,39.58-1.69,0,6.56,3.67,15.18,6.9,19.1,13.54,1.5,22.49,18.06,22.49,18.06s19.74,0,26.85-.46a10,10,0,0,0,4-3.69c-6.79-17.18-18.5-39.53-8.85-64.7a76.88,76.88,0,0,0,4.47-31.56" transform="translate(0 -4.14)"/><path class="cls-5" d="M70.69,307s44.52,25.87,92.44.33c1.55,3.38-.51,13.19-.51,13.19S100.54,336.91,70.69,307Z" transform="translate(0 -4.14)"/><path class="cls-5" d="M176.69,353.66a46.3,46.3,0,0,1,4.09,6s19.74,0,26.85-.46a10,10,0,0,0,4-3.69c-5.67-20-18.85-28.28-7-72.29a77.27,77.27,0,0,0,2.19-24L176,263.84S209.79,357.74,176.69,353.66Z" transform="translate(0 -4.14)"/><path class="cls-16" d="M52,276.93a133.13,133.13,0,0,0,3.09,13.16c.36-1.93.62-1.95,1.8-3.17-.2,2.05,1.89,11.23,3,13.32.2-1.94.85-2.36,2.35-3.36,11.55,19.91,44.19,36.14,98.68,23.89" transform="translate(0 -4.14)"/><path class="cls-4" d="M43.51,266.14s-51-22.78-27.26-54.2c19-11.57,9.78,6.4,33.12,9.44" transform="translate(0 -4.14)"/><path class="cls-5" d="M42.86,266.19S12,252.4,9.46,231.49c-.73-6,3.09,8.24,14.15,1.59,19-11.44,1.77-14.7,25.11-11.66" transform="translate(0 -4.14)"/><path class="cls-18" d="M54.11,169.6s-20.7,14-2,47.09c-14.25,35.48-7.37,55.4-7.37,55.4,27,21.64,147,11.15,176.14-18-1.87-32.86-16.29-76.87-23.73-98.83,3.34-1.08,7.76-11.07-4-13.77-14.75,18.75-71.33,47.22-134.2,22A6.64,6.64,0,0,0,54.11,169.6Z" transform="translate(0 -4.14)"/><path class="cls-5" d="M56.5,205.07c5.23,8.59,8.08,10.07,31.79,9.8,19.65,0,36-5.83,41.2-.12,9.88,10.91-24.25,5.1-45,5.82-11.55.4-30.3-2.21-38,13.39C47.5,225.73,54.31,210.09,56.5,205.07Z" transform="translate(0 -4.14)"/><path class="cls-5" d="M183.08,274.41c6.28-3.09,34-16,37.73-19.71-1.87-32.86-16.3-76.87-23.73-98.83,3.33-1.07,7.75-11.06-4-13.77-2.59,3.3-20.62,17.42-28.36,19.7C212.2,156.27,192,239.64,183.08,274.41Z" transform="translate(0 -4.14)"/><path class="cls-16" d="M59,178.3s-6.21,16-2.41,29.06c-7.15,7.43-17.27,48.88-11.83,64.73,8,14.54,132.05,20.48,176.14-18-5.44-53.34-24.31-97.82-24.31-97.82" transform="translate(0 -4.14)"/><path class="cls-16" d="M128.06,185.23S98.67,190.9,57.91,178c-7-9.63,1.09-14.42,1.09-14.42s34.35,13.09,77.07,6.94c32.92-4.74,54.33-25,57.13-29,4.85-.74,9.24,9.47,4.85,13.47-12.61,11.56-21.91,13.34-21.91,13.34" transform="translate(0 -4.14)"/><path class="cls-16" d="M55.14,168.56s-20.74,15.29-5.71,41.88" transform="translate(0 -4.14)"/><path class="cls-16" d="M207.35,264c1,14.69-4.56,27.18-7.43,40.29-2.92,13.37,3,30.56,11.39,50.24,1.27,3-2.53,4.76-4.82,4.76H180.55s-10.46-17-21.36-17.4c-6.9-7.21-7.47-19.29-7.47-19.29" transform="translate(0 -4.14)"/><path class="cls-16" d="M30.25,210.44c11.63,12.57,18.67,11,18.46,10.77" transform="translate(0 -4.14)"/><path class="cls-16" d="M159.19,341.89s-21.2,5.73-24.39,17.4h45.75" transform="translate(0 -4.14)"/><path class="cls-16" d="M134.8,359.29s16.92-12.39,35-12.5" transform="translate(0 -4.14)"/><g id="cup"><path class="cls-2" d="M35,230.78c-2.12-14.59,11.38-16.11,16.35-16.71,1.15-.14.09-2.42-.27-2.5-5.43-1.28-20.38-2.3-19.23,17.81,1.13,19.74,15.33,17.37,19.2,16.43.55-.14.66-3.26.66-3.26S37,244,35,230.78Z" transform="translate(0 -4.14)"/><path class="cls-16" d="M53.37,212.26s-23.54-5.88-22.25,16.66,21.42,16,21.42,16" transform="translate(0 -4.14)"/><path class="cls-16" d="M58.48,215s-23.24-4.77-22.55,13.46c.77,20.36,21.63,13,21.71,12.93" transform="translate(0 -4.14)"/><path class="cls-2" d="M49.37,204.14v46.4s6.61,7.1,22.13,7.19,22.13-7.66,22.13-7.66V203.51A56,56,0,0,1,71.22,208C57.46,208,49.37,204.14,49.37,204.14Z" transform="translate(0 -4.14)"/><path class="cls-2" d="M49.43,203.15s19.68-11.84,44.25.36C65.17,213.55,49.43,203.15,49.43,203.15Z" transform="translate(0 -4.14)"/><path class="cls-5" d="M50.46,203.15s19.68-11.84,44.26.36C66.2,213.55,50.46,203.15,50.46,203.15Z" transform="translate(0 -4.14)"/><path class="cls-19" d="M54.11,206s14.76-7.57,34-.54C71.12,211.24,54.11,206,54.11,206Z" transform="translate(0 -4.14)"/><path class="cls-10" d="M58.09,223.13v20.14a2.13,2.13,0,0,0,1.42,2,36.87,36.87,0,0,0,12,1.7c6.34,0,10.22-1.13,12.08-1.89a2.14,2.14,0,0,0,1.32-2V222.9a2.13,2.13,0,0,0-2.52-2.11,61.29,61.29,0,0,1-10.88,1,75.54,75.54,0,0,1-11-.74A2.15,2.15,0,0,0,58.09,223.13Z" transform="translate(0 -4.14)"/><path class="cls-5" d="M72.59,257.73c14.63.41,21.08-7.81,21.08-7.81V203.35s-10.54,5.42-21.08,4.83Z" transform="translate(0 -4.14)"/><path class="cls-16" d="M49.43,204.14v46.4s6.6,7.1,22.13,7.19,22.12-7.66,22.12-7.66V203.51A55.94,55.94,0,0,1,71.28,208C57.52,208,49.43,204.14,49.43,204.14Z" transform="translate(0 -4.14)"/><path class="cls-16" d="M49.43,203.51s5.83-6.27,21.24-6.28c15.86,0,22.46,5.84,22.46,5.84" transform="translate(0 -4.14)"/><path class="cls-2" d="M68.83,243.53c-1-.07-1.47-.12-2.45-.23,0-4.1,0-6.05,0-10.1-1.25-.12-1.87-.19-3.14-.35v-2.12a60.51,60.51,0,0,0,8.77.56c0,.86,0,1.29,0,2.14-1.25,0-1.93,0-3.19-.07C68.82,237.43,68.83,239.43,68.83,243.53Z" transform="translate(0 -4.14)"/><path class="cls-2" d="M77,238.05a5.43,5.43,0,0,1-2.51-1.34,3.06,3.06,0,0,1-.65-2.06A3.52,3.52,0,0,1,74.89,232a4.78,4.78,0,0,1,3-1.17,8.05,8.05,0,0,1,1.7,0,9.9,9.9,0,0,1,1.69.33v2.39a5.92,5.92,0,0,0-1.6-.61,4.83,4.83,0,0,0-1.6-.11,2.49,2.49,0,0,0-1.36.48,1.28,1.28,0,0,0-.48,1.05,1.08,1.08,0,0,0,.35.83,3.81,3.81,0,0,0,1.44.62l1.05.28a4.21,4.21,0,0,1,2.19,1.14,3.15,3.15,0,0,1,.7,2.17,4,4,0,0,1-1.1,3,5.33,5.33,0,0,1-3.34,1.34,7.21,7.21,0,0,1-1.85-.09,6.81,6.81,0,0,1-1.79-.58v-2.53a7.23,7.23,0,0,0,1.9,1,4.76,4.76,0,0,0,1.82.21,2.3,2.3,0,0,0,1.39-.56,1.56,1.56,0,0,0,.5-1.21,1.36,1.36,0,0,0-.33-.93,1.89,1.89,0,0,0-1-.56Z" transform="translate(0 -4.14)"/></g><path class="cls-17" d="M30.81,210.44S46,220,43.62,234.36C38,232.1,24,242,24,242s4.86-13.12,5.71-16.87C30.62,220.87,30.81,210.44,30.81,210.44Z" transform="translate(0 -4.14)"/><path class="cls-16" d="M22.89,243s13.73-28.38,6.18-33.89a4.68,4.68,0,0,0-1.4-.68c-14.24-4.18-27.15,23.46-8.3,41.06,10,9.36,20.45,15.3,24.14,16.62" transform="translate(0 -4.14)"/><path class="cls-16" d="M28.47,208.77s11,5.14,13.75,13.7c1.92,6,2.43,13.2.24,12.57-5-1.45-19.06,6.91-19.06,6.91" transform="translate(0 -4.14)"/><path class="cls-16" d="M29.82,224.76c8.27-.31,12.79,8.32,12.79,8.32" transform="translate(0 -4.14)"/><path class="cls-16" d="M70,167.19a10.93,10.93,0,0,0,.19,6.73" transform="translate(0 -4.14)"/><path class="cls-16" d="M75.89,168.45a9.33,9.33,0,0,0,.19,6.29" transform="translate(0 -4.14)"/><path class="cls-16" d="M105.24,172.68a9.57,9.57,0,0,0,.39,6.07" transform="translate(0 -4.14)"/><path class="cls-16" d="M132.12,171.36a11.62,11.62,0,0,0,.67,6.14" transform="translate(0 -4.14)"/><path class="cls-16" d="M137.37,170.54a10.22,10.22,0,0,0,.68,5.76" transform="translate(0 -4.14)"/><path class="cls-16" d="M142.77,169.43a10.37,10.37,0,0,0,.67,5.79" transform="translate(0 -4.14)"/><line class="cls-20" x1="77.25" y1="291.51" x2="77.9" y2="296.42"/><line class="cls-20" x1="83.35" y1="294.15" x2="83.99" y2="299.06"/><line class="cls-20" x1="89.76" y1="296.42" x2="90.4" y2="301.33"/><g id="left_paw"><path class="cls-17" d="M191.21,331.22s11.72,7.62,27.41-10.71c-.25,11.31-13.57,22.9-13.57,22.9S193.33,340.05,191.21,331.22Z" transform="translate(0 -4.14)"/><path class="cls-5" d="M191.21,331.22s11.72,7.62,27.41-10.71c-.25,11.31-13.57,22.9-13.57,22.9S193.33,340.05,191.21,331.22Z" transform="translate(0 -4.14)"/><path class="cls-16" d="M218.62,320.51s-9.46,17.2-20.25,18.11" transform="translate(0 -4.14)"/><path class="cls-16" d="M191.21,331.22s11.72,7.62,27.41-10.71c-.25,11.31-13.57,22.9-13.57,22.9S193.33,340.05,191.21,331.22Z" transform="translate(0 -4.14)"/><path class="cls-4" d="M146.85,219.77S132.26,365.43,204.2,343.9c-40.84-19.18-10.46-118.27-10.46-118.27s.52-9.58-22.54-12.61C147.42,209.89,146.85,219.77,146.85,219.77Z" transform="translate(0 -4.14)"/><path class="cls-18" d="M142.25,215.59c-.5-4-1.63-62.17,38.47-57.64,33.14,3.75,20.87,59.62,18.5,66.22-8.32,2.21-.83-2-29.53-5.8C147.34,215.45,147.18,223.41,142.25,215.59Z" transform="translate(0 -4.14)"/><path class="cls-5" d="M193.74,225.19a5.18,5.18,0,0,0,5.48-1.46c2.37-6.6,14.64-62.47-18.5-66.22-9.61-1.08-16.85,1.43-22.3,5.94,33.69-9.27,40.51,22.11,32.09,47.54C152.67,325.25,200.58,342.82,169,337.46c8.45,7.58,19.86,10.59,35.2,6C163.36,324.28,193.74,225.19,193.74,225.19Z" transform="translate(0 -4.14)"/><path class="cls-16" d="M146.85,219.77S132.26,365.43,204.2,343.9c-40.84-19.18-10.46-118.27-10.46-118.27" transform="translate(0 -4.14)"/><path class="cls-16" d="M146.85,219.69s-4.3-.91-4.79-4.87-1.63-62.16,38.47-57.63c33.14,3.74,20.87,59.61,18.5,66.22a5.14,5.14,0,0,1-5.29,2.14" transform="translate(0 -4.14)"/><path class="cls-16" d="M141.93,210.53s20.16-4.74,40.31,1" transform="translate(0 -4.14)"/><path class="cls-16" d="M157.48,209.89a12.45,12.45,0,0,0,0,4.19" transform="translate(0 -4.14)"/><path class="cls-16" d="M172,210.13a12.73,12.73,0,0,0-.77,4.74" transform="translate(0 -4.14)"/><path class="cls-16" d="M177.64,210.38a13.35,13.35,0,0,0-1.17,5.23" transform="translate(0 -4.14)"/><line class="cls-20" x1="176.95" y1="241.74" x2="176.3" y2="246.65"/><line class="cls-20" x1="171.2" y1="243.29" x2="170.56" y2="248.21"/></g><path d="M141.55,30.37a1.08,1.08,0,0,1-.5-.58.82.82,0,0,1,.08-.71l8.26-13.9a.85.85,0,0,1,.54-.43.91.91,0,0,1,.69.12l8.42,5a.74.74,0,0,1,.38.5.92.92,0,0,1-.64,1.08.81.81,0,0,1-.62-.1l-7.65-4.54-2.88,4.84,4.89,2.9a5.94,5.94,0,0,1,2.11,2.05,5,5,0,0,1,.74,2.6,5.17,5.17,0,0,1-.77,2.71,5.38,5.38,0,0,1-2,2,5.1,5.1,0,0,1-2.66.62,5.92,5.92,0,0,1-2.8-.88Zm1.55-1.08,4.89,2.9a4.14,4.14,0,0,0,1.91.6,3.44,3.44,0,0,0,1.81-.43,3.86,3.86,0,0,0,1.4-1.41,3.77,3.77,0,0,0,.56-1.9,3.33,3.33,0,0,0-.5-1.76,4.2,4.2,0,0,0-1.46-1.37L146.82,23Z" transform="translate(0 -4.14)"/><path d="M158,42.12a6.54,6.54,0,0,1-1.91-2.8,5.9,5.9,0,0,1-.18-3.2,6.75,6.75,0,0,1,1.6-3,6.9,6.9,0,0,1,2.79-2,5.77,5.77,0,0,1,3.1-.27,5.91,5.91,0,0,1,2.88,1.46A5.79,5.79,0,0,1,168,35a5.39,5.39,0,0,1,0,3,6.93,6.93,0,0,1-1.6,2.85.76.76,0,0,1-.56.29.83.83,0,0,1-.59-.24L158,34.34l1-1.1,7.43,6.64-1.21-.13a5.25,5.25,0,0,0,1.23-2.11,3.89,3.89,0,0,0,0-2.19,4.08,4.08,0,0,0-1.25-1.92,4.14,4.14,0,0,0-4.42-.82,5.71,5.71,0,0,0-2.06,1.5,4.89,4.89,0,0,0-1.2,2.26,4.47,4.47,0,0,0,.11,2.38,4.67,4.67,0,0,0,1.4,2.09,5.1,5.1,0,0,0,1.43.9,4.13,4.13,0,0,0,1.49.36.85.85,0,0,1,.57.22.76.76,0,0,1,.3.49.81.81,0,0,1-.17.65.63.63,0,0,1-.56.24,6.3,6.3,0,0,1-2.15-.49A6.59,6.59,0,0,1,158,42.12Z" transform="translate(0 -4.14)"/><path d="M166.18,50.71a7.09,7.09,0,0,1-1.06-1.64,6.42,6.42,0,0,1-.56-1.76,4.22,4.22,0,0,1,0-1.59.78.78,0,0,1,.37-.55.74.74,0,0,1,.68-.06.76.76,0,0,1,.46.41,1,1,0,0,1,.13.66,4.65,4.65,0,0,0,.2,1.74,4.87,4.87,0,0,0,1,1.72A4,4,0,0,0,169.29,51a1.84,1.84,0,0,0,1.8-.41,2,2,0,0,0,.72-1.53,2.62,2.62,0,0,0-.61-1.71l-.77-.89a1.1,1.1,0,0,1-.3-.68.67.67,0,0,1,.23-.56.63.63,0,0,1,.58-.14,1.13,1.13,0,0,1,.62.4l.77.89a1.93,1.93,0,0,0,1.34.67A1.9,1.9,0,0,0,175,46.5a1.61,1.61,0,0,0,.55-1.44,3.23,3.23,0,0,0-.87-1.81,4.32,4.32,0,0,0-1.51-1.19,3.48,3.48,0,0,0-1.51-.3,1,1,0,0,1-.64-.23.91.91,0,0,1-.32-.56.61.61,0,0,1,.17-.58.83.83,0,0,1,.61-.27,6.13,6.13,0,0,1,2.31.48,6,6,0,0,1,3.27,3.58,3.89,3.89,0,0,1,.11,2,2.78,2.78,0,0,1-.92,1.56,2.51,2.51,0,0,1-1.31.6,3.16,3.16,0,0,1-1.49-.13,3.66,3.66,0,0,1-1.35-.83l.2-.17a3.81,3.81,0,0,1,.83,1.59,3.33,3.33,0,0,1,0,1.69,2.92,2.92,0,0,1-.92,1.41,3.16,3.16,0,0,1-1.88.78,4.15,4.15,0,0,1-2.14-.42A6,6,0,0,1,166.18,50.71Z" transform="translate(0 -4.14)"/><path d="M175.47,62.33a.87.87,0,0,1-.15-.68.9.9,0,0,1,.43-.56l9.14-5.73a.91.91,0,0,1,.68-.14.87.87,0,0,1,.56.43,1.12,1.12,0,0,1,0,1.11L182.63,65l8.94.4a1.11,1.11,0,0,1,1,.53.82.82,0,0,1,.14.68.87.87,0,0,1-.42.55l-9.14,5.73a.89.89,0,0,1-.69.15.91.91,0,0,1-.55-.43.85.85,0,0,1-.14-.67.93.93,0,0,1,.44-.55l8.16-5.12.15.59-8.63-.4A1,1,0,0,1,181,66a1,1,0,0,1,0-1l3.35-7.91.48.41-8.11,5.08a.92.92,0,0,1-.68.16A.85.85,0,0,1,175.47,62.33Z" transform="translate(0 -4.14)"/><path d="M186.69,81.82a6.59,6.59,0,0,1-.8-3.3,6,6,0,0,1,1-3,6.63,6.63,0,0,1,2.56-2.25,6.87,6.87,0,0,1,3.31-.84,5.76,5.76,0,0,1,3,.84,5.9,5.9,0,0,1,2.17,2.4,5.72,5.72,0,0,1,.7,3.07,5.37,5.37,0,0,1-1,2.8,7,7,0,0,1-2.51,2.1.75.75,0,0,1-.63.07.82.82,0,0,1-.47-.43l-4.5-8.68,1.31-.68,4.58,8.84-1.09-.55a5.14,5.14,0,0,0,1.91-1.53,3.84,3.84,0,0,0,.8-2,4,4,0,0,0-.49-2.25,4.24,4.24,0,0,0-1.61-1.76,4.13,4.13,0,0,0-2.22-.56,5.47,5.47,0,0,0-2.46.66,4.93,4.93,0,0,0-1.93,1.69,4.46,4.46,0,0,0-.74,2.26,4.57,4.57,0,0,0,.57,2.45,5,5,0,0,0,1,1.35,4,4,0,0,0,1.26.86,1,1,0,0,1,.46.41.78.78,0,0,1,.1.57.83.83,0,0,1-.39.55.65.65,0,0,1-.61,0,6.45,6.45,0,0,1-1.84-1.22A6.69,6.69,0,0,1,186.69,81.82Z" transform="translate(0 -4.14)"/><path d="M190.81,89.87a.86.86,0,0,1,0-.68.89.89,0,0,1,.5-.49l9.86-4.38a.82.82,0,0,1,1.17.43.85.85,0,0,1,0,.68.88.88,0,0,1-.5.48L192,90.3a.86.86,0,0,1-.7,0A.83.83,0,0,1,190.81,89.87Zm4,9a.88.88,0,0,1,0-.69.84.84,0,0,1,.49-.49l9.86-4.39a.83.83,0,0,1,1.18.46.77.77,0,0,1,0,.66.88.88,0,0,1-.5.48L196,99.31a.89.89,0,0,1-.69.06A.81.81,0,0,1,194.83,98.9Zm1.27-10.76,1.45-.65,3.68,8.26-1.45.64Z" transform="translate(0 -4.14)"/><path d="M197,104.12a.9.9,0,0,1,0-.7.88.88,0,0,1,.51-.45l10.12-3.8a.92.92,0,0,1,.69,0,.83.83,0,0,1,.46.52.81.81,0,0,1,0,.68.92.92,0,0,1-.52.46l-10.12,3.8a.86.86,0,0,1-.67,0A.88.88,0,0,1,197,104.12Zm2.84,7.56a.91.91,0,0,1,0-.69.82.82,0,0,1,.5-.46l6.2-2.33a3.69,3.69,0,0,0,2.12-1.71,2.79,2.79,0,0,0,.13-2.38,3.18,3.18,0,0,0-1.7-1.87,3.32,3.32,0,0,0-2.59,0l-.45-1.18a5.72,5.72,0,0,1,2.68-.3,4.51,4.51,0,0,1,2.25.93,4.59,4.59,0,0,1,1.45,2,4.64,4.64,0,0,1,.24,2.48,4.43,4.43,0,0,1-1.13,2.17,6.14,6.14,0,0,1-2.37,1.52l-6.2,2.33a.84.84,0,0,1-.68,0A.83.83,0,0,1,199.88,111.68Zm2.82,7.51a.92.92,0,0,1,0-.69.86.86,0,0,1,.51-.46l6.2-2.33a3.72,3.72,0,0,0,2.12-1.71,2.75,2.75,0,0,0,.12-2.38,3.08,3.08,0,0,0-1.71-1.85,3.46,3.46,0,0,0-2.69.07l-.56-1.49a5.92,5.92,0,0,1,2.78-.33,4.65,4.65,0,0,1,2.32,1,4.93,4.93,0,0,1,1.5,2.17,4.42,4.42,0,0,1,.24,2.47,4.33,4.33,0,0,1-1.12,2.17,6.14,6.14,0,0,1-2.38,1.52l-6.2,2.33a.89.89,0,0,1-.68,0A1,1,0,0,1,202.7,119.19Z" transform="translate(0 -4.14)"/><path d="M205.8,129a6.54,6.54,0,0,1-.22-3.38,6.1,6.1,0,0,1,1.46-2.87,7,7,0,0,1,6.28-2,6,6,0,0,1,2.87,1.46,6.93,6.93,0,0,1,2,6.25,6,6,0,0,1-1.46,2.86,6.83,6.83,0,0,1-2.89,1.83,6.48,6.48,0,0,1-3.39.21,6.1,6.1,0,0,1-2.87-1.46A6.53,6.53,0,0,1,205.8,129Zm1.54-.49a4.6,4.6,0,0,0,1.32,2.08,4.29,4.29,0,0,0,2.13,1,4.92,4.92,0,0,0,2.53-.19,5,5,0,0,0,2.17-1.33,4.39,4.39,0,0,0,1.12-2.1,4.76,4.76,0,0,0-.15-2.47,4.62,4.62,0,0,0-1.33-2.08,4.46,4.46,0,0,0-2.14-1.06,5.05,5.05,0,0,0-2.54.18A4.93,4.93,0,0,0,208.3,124a4.51,4.51,0,0,0-1,4.58Z" transform="translate(0 -4.14)"/><path d="M203.91,140.6a.86.86,0,0,1,.06-.69.88.88,0,0,1,.56-.42l10.43-3a6.33,6.33,0,0,1,3.34-.06,6.07,6.07,0,0,1,2.81,1.56,6.29,6.29,0,0,1,1.69,2.87,6.46,6.46,0,0,1,.1,3.4,6.23,6.23,0,0,1-1.56,2.83,6.86,6.86,0,0,1-6.3,1.83,6.06,6.06,0,0,1-2.81-1.5,6.38,6.38,0,0,1-1.83-5.68,5.47,5.47,0,0,1,1.12-2.41L205,141.2a.92.92,0,0,1-.7-.06A.88.88,0,0,1,203.91,140.6ZM212,144a4.53,4.53,0,0,0,3.36,3.26,5.22,5.22,0,0,0,4.72-1.36,4.58,4.58,0,0,0,1.19-2.08,4.82,4.82,0,0,0-1.32-4.57,4.48,4.48,0,0,0-2.1-1.12,5.37,5.37,0,0,0-4.72,1.36,4.34,4.34,0,0,0-1.19,2.06A4.64,4.64,0,0,0,212,144Z" transform="translate(0 -4.14)"/><path d="M214.52,159.21a6,6,0,0,1,0-3.28,6.05,6.05,0,0,1,1.66-2.72,6.53,6.53,0,0,1,3-1.61,6.39,6.39,0,0,1,3.39,0,6.12,6.12,0,0,1,2.79,1.65,6.74,6.74,0,0,1,1.63,6.31,6.22,6.22,0,0,1-1.65,2.78,6.78,6.78,0,0,1-3,1.66l-.71-.56a5.74,5.74,0,0,1-7.12-4.22Zm1.6-.22a4.57,4.57,0,0,0,1.2,2.15,4.45,4.45,0,0,0,2.07,1.17,5.25,5.25,0,0,0,4.75-1.22,4.59,4.59,0,0,0,1.25-2,4.5,4.5,0,0,0,0-2.47,4.6,4.6,0,0,0-1.2-2.13,4.69,4.69,0,0,0-2.08-1.2,5.17,5.17,0,0,0-4.76,1.22,4.57,4.57,0,0,0-1.25,4.51Zm-.07,5.69a.88.88,0,0,1,.07-.68.79.79,0,0,1,.55-.4l3.81-1,1.86,0V164l-5.23,1.34a.83.83,0,0,1-.68-.08A.9.9,0,0,1,216.05,164.68Z" transform="translate(0 -4.14)"/><path d="M218.78,176.18a.9.9,0,0,1,.1-.67.88.88,0,0,1,.59-.37L230,172.8a.89.89,0,0,1,.69.09,1,1,0,0,1,.28,1.23.88.88,0,0,1-.59.38l-10.53,2.34a.89.89,0,0,1-.69-.09A.84.84,0,0,1,218.78,176.18Zm2.15,9.66a.84.84,0,0,1,.68-1.07l10.53-2.34a.85.85,0,0,1,.69.1.89.89,0,0,1,.38.58.83.83,0,0,1-.1.66.9.9,0,0,1-.59.36L222,186.47a.89.89,0,0,1-.69-.08A.79.79,0,0,1,220.93,185.84Zm3.39-10.3,1.55-.34,2,8.82-1.55.35Z" transform="translate(0 -4.14)"/><path d="M223,196.25a6.51,6.51,0,0,1,.16-3.38,6,6,0,0,1,1.79-2.68,6.49,6.49,0,0,1,3.06-1.47,6.62,6.62,0,0,1,3.41.16,6,6,0,0,1,2.68,1.79,6.43,6.43,0,0,1,1.46,3.06,6.36,6.36,0,0,1-.17,3.37,6,6,0,0,1-1.78,2.67,6.64,6.64,0,0,1-3.08,1.49,6.44,6.44,0,0,1-3.39-.17,6.14,6.14,0,0,1-2.68-1.79A6.4,6.4,0,0,1,223,196.25Zm1.58-.31a4.54,4.54,0,0,0,1.08,2.22,4.39,4.39,0,0,0,2,1.29,5.35,5.35,0,0,0,4.83-1,4.24,4.24,0,0,0,1.35-2,4.9,4.9,0,0,0-.94-4.69,4.37,4.37,0,0,0-2-1.29,4.82,4.82,0,0,0-2.54-.11A4.88,4.88,0,0,0,226,191.5a4.43,4.43,0,0,0-1.34,2A4.56,4.56,0,0,0,224.54,195.94Z" transform="translate(0 -4.14)"/><path d="M219.83,207.67A.89.89,0,0,1,220,207a.91.91,0,0,1,.6-.35l10.68-1.95a6.47,6.47,0,0,1,3.34.27,6.15,6.15,0,0,1,2.63,1.83,6.76,6.76,0,0,1,1.16,6.42,6.1,6.1,0,0,1-1.84,2.66,6.4,6.4,0,0,1-3.08,1.42,6.53,6.53,0,0,1-3.36-.22,6,6,0,0,1-4.05-4.74,6,6,0,0,1,.15-2.87,5.58,5.58,0,0,1,1.34-2.29l-6.65,1.21a.83.83,0,0,1-1-.7Zm7.75,4.15a4.68,4.68,0,0,0,1,2.25,4.52,4.52,0,0,0,2,1.33,5,5,0,0,0,2.52.16,4.91,4.91,0,0,0,2.31-1A4.55,4.55,0,0,0,237,210.1a4.41,4.41,0,0,0-1-2.21,4.55,4.55,0,0,0-2-1.33,5,5,0,0,0-2.53-.14,5.06,5.06,0,0,0-2.31,1,4.52,4.52,0,0,0-1.57,4.38Z" transform="translate(0 -4.14)"/><path d="M228,222.66a.83.83,0,0,1,.74-1l10.64-1.75a.94.94,0,0,1,.69.13.91.91,0,0,1,.34.61,1.09,1.09,0,0,1-.39,1l-6.44,6.21,8.09,3.83a1.11,1.11,0,0,1,.7.86.89.89,0,0,1-.13.69.93.93,0,0,1-.61.34L231,235.34a.88.88,0,0,1-.69-.14.86.86,0,0,1-.34-.6.85.85,0,0,1,.13-.68.88.88,0,0,1,.61-.33L240.2,232l-.09.59-7.81-3.7a1,1,0,0,1-.66-.76,1,1,0,0,1,.39-.9l6.15-6,.28.57L229,223.38a.9.9,0,0,1-.68-.13A.82.82,0,0,1,228,222.66Z" transform="translate(0 -4.14)"/><path d="M230.4,240a1.26,1.26,0,0,1,.24-1,1.3,1.3,0,0,1,.87-.53,1.32,1.32,0,0,1,1,.25,1.34,1.34,0,0,1,.53.87,1.27,1.27,0,0,1-.26,1,1.34,1.34,0,0,1-.88.53,1.33,1.33,0,0,1-1-.23A1.22,1.22,0,0,1,230.4,240Z" transform="translate(0 -4.14)"/><path d="M231.13,244.88a1.31,1.31,0,0,1,.25-1,1.25,1.25,0,0,1,.88-.52,1.27,1.27,0,0,1,1,.25,1.29,1.29,0,0,1,.52.87,1.24,1.24,0,0,1-.26,1,1.27,1.27,0,0,1-.88.52,1.32,1.32,0,0,1-1.52-1.12Z" transform="translate(0 -4.14)"/><path d="M231.84,249.77a1.32,1.32,0,0,1,.26-1,1.28,1.28,0,0,1,.88-.52,1.31,1.31,0,0,1,1,.26,1.29,1.29,0,0,1,.52.87,1.32,1.32,0,0,1-.26,1,1.35,1.35,0,0,1-.89.52,1.33,1.33,0,0,1-1-.24A1.29,1.29,0,0,1,231.84,249.77Z" transform="translate(0 -4.14)"/><g id="Layer_2-3" data-name="Layer 2"><g id="Layer_2-2-2" data-name="Layer 2-2"><path class="cls-11" d="M110.47,200.89c3.45,0,6.63,0,9.64,0,2.5,0,3.12,1.42,3,2.87a4.75,4.75,0,0,1-3.5,4.28l-.48.15c2.5,1.28,2.77,4,4.3,6.29l-5.19.12c-.84-1.49-1.67-3-2.38-4.52a1.84,1.84,0,0,0-2.28-1.19,33.39,33.39,0,0,0,0,5.83l-4.59.12A33.43,33.43,0,0,1,110.47,200.89Zm4,2.52c-.2.86-.37,1.71-.54,2.76a17.28,17.28,0,0,0,3-.19,1.67,1.67,0,0,0,1.53-1.3c.14-.69-.23-1.19-1.11-1.29A25.16,25.16,0,0,0,114.5,203.41Z" transform="translate(0 -4.14)"/><path class="cls-11" d="M137.11,204.19l-4.41.29a1.78,1.78,0,0,0-1.82-1.75h-.18a1.79,1.79,0,0,0-1.84,1c0,.66.42.87,1,1,1,.24,2.11.45,3.18.72a14.55,14.55,0,0,1,1.73.56c3.58,1.45,2.94,5.3.2,7.15a8.62,8.62,0,0,1-3.06,1.28,11.4,11.4,0,0,1-5-.09,4.38,4.38,0,0,1-3.43-4.68l4.2-.3c.08.28.14.53.21.78a2.47,2.47,0,0,0,3.16,1.51l.21-.08a1.67,1.67,0,0,0,1.19-1.34,1.19,1.19,0,0,0-.86-1.19,15.25,15.25,0,0,0-1.5-.45c-1-.29-2.12-.5-3.1-.87-1.89-.73-2.7-2-2.38-3.57a5,5,0,0,1,3.88-3.58,11.25,11.25,0,0,1,5.76-.12A3.43,3.43,0,0,1,137.11,204.19Z" transform="translate(0 -4.14)"/></g></g></g></g></g></g></g></svg>