<svg width="336" height="382" viewBox="0 0 336 382" fill="none" xmlns="http://www.w3.org/2000/svg">
<g clip-path="url(#clip0_357_3226)">
<path d="M245.9 55.18C244.921 53.9044 244.293 52.3941 244.08 50.8C243.885 49.3028 244.117 47.7808 244.75 46.41C245.415 44.9553 246.449 43.7003 247.75 42.77C247.952 42.6095 248.185 42.4929 248.435 42.4275C248.685 42.362 248.945 42.3493 249.2 42.39C249.583 42.443 249.941 42.6105 250.227 42.8703C250.513 43.1302 250.714 43.4704 250.804 43.8464C250.894 44.2224 250.868 44.6168 250.73 44.9778C250.592 45.3389 250.348 45.6498 250.03 45.87C249.231 46.4325 248.585 47.1851 248.15 48.06C247.874 48.6761 247.724 49.3407 247.706 50.0154C247.689 50.6902 247.805 51.3616 248.049 51.9911C248.292 52.6206 248.658 53.1955 249.125 53.6828C249.592 54.17 250.151 54.56 250.77 54.83C251.587 55.1764 252.484 55.2872 253.36 55.15C254.339 54.999 255.264 54.6035 256.05 54L270.93 43.06C271.127 42.9006 271.354 42.7835 271.598 42.716C271.842 42.6485 272.097 42.6321 272.348 42.6678C272.598 42.7034 272.839 42.7904 273.054 42.9233C273.27 43.0562 273.456 43.2321 273.6 43.44C273.917 43.8529 274.06 44.373 274 44.89C273.962 45.1445 273.873 45.3885 273.737 45.6069C273.601 45.8254 273.422 46.0136 273.21 46.16L258.33 57.11C257.05 58.0856 255.536 58.7064 253.94 58.91C252.443 59.0973 250.923 58.8654 249.55 58.24C248.086 57.5581 246.827 56.5027 245.9 55.18Z" fill="black" stroke="white" stroke-width="20" stroke-miterlimit="10"/>
<path d="M254.209 65.9523C254.094 65.7271 254.024 65.481 254.005 65.2284C253.986 64.9759 254.018 64.7222 254.099 64.4823C254.18 64.2379 254.31 64.013 254.482 63.8218C254.655 63.6307 254.865 63.4776 255.099 63.3723L277.529 52.2223C277.756 52.1003 278.005 52.0267 278.262 52.006C278.518 51.9853 278.776 52.0181 279.02 52.1023C279.259 52.1876 279.479 52.3201 279.666 52.4918C279.853 52.6636 280.004 52.8712 280.11 53.1023L287.55 68.1023C287.673 68.3204 287.752 68.5611 287.781 68.8101C287.81 69.0591 287.789 69.3115 287.719 69.5523C287.635 69.7732 287.507 69.9753 287.344 70.1469C287.181 70.3185 286.986 70.4562 286.77 70.5523C286.564 70.6643 286.338 70.7304 286.104 70.746C285.871 70.7615 285.638 70.7261 285.42 70.6423C284.972 70.4466 284.615 70.0896 284.42 69.6423L277.759 56.3923L269.709 60.3923L274.439 69.9023C274.684 70.3447 274.745 70.8653 274.61 71.3523C274.448 71.8004 274.119 72.1685 273.692 72.3792C273.265 72.5899 272.773 72.6269 272.319 72.4823C272.085 72.3945 271.871 72.2609 271.689 72.0892C271.507 71.9174 271.361 71.7111 271.259 71.4823L266.529 61.9723L256.789 66.7923C256.565 66.911 256.319 66.982 256.066 67.0009C255.813 67.0198 255.559 66.9863 255.319 66.9023C255.08 66.826 254.859 66.7027 254.668 66.5395C254.478 66.3764 254.322 66.1767 254.209 65.9523Z" fill="black" stroke="white" stroke-width="20" stroke-miterlimit="10"/>
<path d="M267.31 99.88C266.795 98.0656 266.655 96.1655 266.897 94.2951C267.139 92.4247 267.76 90.6232 268.72 89C269.684 87.3776 270.954 85.9579 272.46 84.82C275.674 82.4135 279.676 81.3034 283.67 81.71C285.534 81.9021 287.344 82.4522 289 83.33C290.636 84.2147 292.083 85.4105 293.26 86.85C294.478 88.354 295.364 90.0989 295.86 91.97C296.342 93.5631 296.545 95.2276 296.46 96.89C296.308 98.4928 295.885 100.058 295.21 101.52C295.133 101.725 295.025 101.917 294.89 102.09C294.776 102.228 294.637 102.343 294.48 102.43C294.309 102.522 294.128 102.593 293.94 102.64C293.728 102.703 293.506 102.72 293.287 102.69C293.068 102.661 292.858 102.586 292.67 102.47C292.279 102.252 291.983 101.895 291.84 101.47C291.767 101.227 291.744 100.971 291.771 100.719C291.799 100.466 291.876 100.222 292 100C292.491 98.9855 292.828 97.9036 293 96.79C293.114 95.4777 292.968 94.1557 292.57 92.9C292.202 91.5315 291.536 90.2612 290.62 89.18C289.712 88.1048 288.605 87.2151 287.36 86.56C286.09 85.8954 284.706 85.478 283.28 85.33C280.258 85.0478 277.237 85.8839 274.79 87.68C273.642 88.5423 272.668 89.6146 271.92 90.84C271.195 92.0388 270.71 93.3666 270.49 94.75C270.102 97.3817 270.763 100.061 272.33 102.21C273.07 103.203 273.942 104.091 274.92 104.85C275.306 105.127 275.576 105.537 275.68 106C275.763 106.409 275.688 106.834 275.47 107.19C275.345 107.385 275.183 107.554 274.992 107.686C274.802 107.819 274.587 107.912 274.36 107.96C274.123 108.028 273.876 108.052 273.63 108.03C273.362 108.003 273.104 107.911 272.88 107.76C271.528 106.821 270.353 105.65 269.41 104.3C268.467 102.955 267.757 101.461 267.31 99.88ZM274.31 107.96L274 104.2L280.38 102.43L279.02 97.51C278.867 97.0325 278.899 96.5149 279.11 96.06C279.211 95.8517 279.356 95.6674 279.534 95.5193C279.712 95.3713 279.92 95.2629 280.143 95.2014C280.366 95.1399 280.6 95.1267 280.829 95.1626C281.058 95.1986 281.276 95.2829 281.47 95.41C281.886 95.6888 282.182 96.1134 282.3 96.6L284.14 103.27C284.22 103.51 284.247 103.764 284.222 104.016C284.196 104.268 284.117 104.511 283.99 104.73C283.859 104.948 283.685 105.138 283.479 105.288C283.273 105.437 283.038 105.543 282.79 105.6L274.31 107.96Z" fill="black" stroke="white" stroke-width="20" stroke-miterlimit="10"/>
<path d="M271.023 110.514C270.983 110.263 270.995 110.007 271.059 109.761C271.123 109.515 271.236 109.284 271.393 109.084C271.545 108.881 271.737 108.71 271.957 108.583C272.177 108.456 272.421 108.375 272.673 108.344L297.503 105.024C297.754 104.983 298.011 104.994 298.258 105.056C298.505 105.118 298.736 105.23 298.938 105.384C299.141 105.538 299.309 105.733 299.434 105.954C299.558 106.176 299.636 106.421 299.663 106.674C299.71 106.926 299.704 107.185 299.644 107.434C299.585 107.684 299.474 107.918 299.318 108.121C299.163 108.325 298.966 108.494 298.741 108.616C298.516 108.739 298.268 108.813 298.013 108.834L273.163 112.164C272.659 112.241 272.145 112.115 271.733 111.814C271.531 111.658 271.364 111.462 271.242 111.238C271.12 111.015 271.045 110.768 271.023 110.514Z" fill="black" stroke="white" stroke-width="20" stroke-miterlimit="10"/>
<path d="M8.92997 313.52L200.93 380.69C203.332 381.504 205.854 381.907 208.39 381.88C213.096 381.936 217.725 380.683 221.76 378.26L317.76 316.96C319.616 315.728 321.159 314.079 322.265 312.145C323.371 310.211 324.009 308.045 324.13 305.82V305.72C325.441 303.29 325.797 300.459 325.13 297.78C324.971 297.183 324.76 296.601 324.5 296.04L328.39 151.63C328.395 151.557 328.395 151.483 328.39 151.41C328.391 150.722 328.358 150.035 328.29 149.35C327.744 144.433 325.583 139.835 322.145 136.278C318.707 132.72 314.186 130.403 309.29 129.69L265.1 125.63C266.56 49.94 185.31 18 183.37 17.37C182.858 17.2033 182.333 17.0795 181.8 17C173.65 13.1195 165.174 9.964 156.47 7.57C155.68 7.36222 154.867 7.2514 154.05 7.24C153.113 6.95382 152.14 6.8056 151.16 6.8C149.74 6.80683 148.342 7.1495 147.08 7.8C146.069 8.30681 145.152 8.98329 144.37 9.8C141.18 9 137.82 8 134.53 7L130.28 5.72C129.72 5.35 128.91 4.78 128.28 4.36L126.57 3.1C125.724 2.25158 124.748 1.54277 123.68 1C122.4 0.348597 120.986 0.0061086 119.55 0C117.458 0.0266224 115.431 0.728102 113.77 2C112.241 2.88339 110.954 4.13049 110.022 5.63069C109.091 7.13088 108.544 8.83779 108.43 10.6C105.898 10.9048 103.443 11.6744 101.19 12.87C99.48 13.16 97.82 13.49 96.32 13.87C92.6911 14.7444 89.1673 16.0084 85.81 17.64C83.6375 18.3506 81.8168 19.8611 80.7174 21.8649C79.6179 23.8688 79.3221 26.216 79.89 28.43C79.4 28.71 77.89 29.63 76.56 30.59C74.11 32.28 70.41 34.84 70.11 39.72C70.0108 41.2944 70.3172 42.8679 71 44.29C66.85 47.29 64 50.29 64 54.77C63.9997 56.8134 64.6768 58.7992 65.9253 60.4168C67.1737 62.0344 68.9232 63.1925 70.9 63.71C70.79 63.94 70.68 64.17 70.58 64.4C69.0866 67.5914 67.7712 70.863 66.64 74.2C64.8786 78.8676 63.5824 83.6977 62.77 88.62H59.37C58.0839 88.5785 56.8026 88.7959 55.6022 89.2594C54.4018 89.7229 53.3068 90.423 52.3824 91.3181C51.4579 92.2132 50.7229 93.285 50.2209 94.4698C49.7189 95.6546 49.4602 96.9282 49.4602 98.215C49.4602 99.5018 49.7189 100.775 50.2209 101.96C50.7229 103.145 51.4579 104.217 52.3824 105.112C53.3068 106.007 54.4018 106.707 55.6022 107.171C56.8026 107.634 58.0839 107.852 59.37 107.81H60.9C60.24 131.46 65.61 154.54 70.05 173.66C72.31 183.35 74.26 191.76 75.05 198.43L74.5 206.59C73.3059 207.64 72.2447 208.832 71.34 210.14C66.85 214.8 65.47 218.35 65.09 220.71C63.88 221.35 62.74 221.92 62.2 222.17C54.2 225.87 27.27 239.91 18.1 264.83C17.99 265.13 17.89 265.44 17.79 265.76C14.7993 273.356 13.109 281.402 12.79 289.56L8.23997 291.49C7.37923 291.854 6.54691 292.282 5.74997 292.77C3.99088 293.775 2.53275 295.232 1.52692 296.99C0.52109 298.749 0.00422439 300.744 0.0299696 302.77C0.0599696 304.58 0.87997 310.7 8.92997 313.52ZM319.31 150.22C319.35 150.609 319.37 150.999 319.37 151.39C319.37 150.999 319.35 150.609 319.31 150.22C319.27 149.769 319.2 149.321 319.1 148.88C319.2 149.321 319.27 149.769 319.31 150.22ZM294.13 110.65L285.82 112.77L294.13 110.65ZM274.13 98.56H273.95H273.86C273.943 98.5686 274.027 98.5686 274.11 98.56H274.13ZM263.94 133C263.71 131.95 263.48 130.9 263.23 129.85L267.34 129.1L263.23 129.85C263.48 130.9 263.71 132 263.94 133ZM119.55 9H119.61C119.567 8.99081 119.523 8.99081 119.48 9H119.55ZM110.28 19.47H110.75C110.497 19.4551 110.243 19.4551 109.99 19.47H110.28ZM108.63 19.63C108.012 19.7508 107.406 19.9282 106.82 20.16C107.409 19.9276 108.018 19.7502 108.64 19.63H108.63ZM96.43 30.33H96.88H97.09C96.87 30.31 96.66 30.32 96.44 30.33H96.43ZM98.4 22.57L99.65 22.29L98.4 22.57C97.61 22.76 96.82 22.97 96.04 23.21C96.83 23 97.62 22.76 98.41 22.57H98.4ZM84.34 194.31C84.73 196.39 84.98 198.08 85.13 199.47C84.98 198.08 84.73 196.39 84.34 194.31ZM84.23 206.48C84.3919 206.243 84.5389 205.996 84.67 205.74C84.5389 205.996 84.3919 206.243 84.23 206.48ZM83.87 212.48C84.11 212.48 84.34 212.48 84.58 212.48C84.2471 212.456 83.9129 212.456 83.58 212.48H83.87ZM81.34 41.31C81.3651 41.3785 81.4104 41.4378 81.47 41.48C81.4104 41.4378 81.3651 41.3785 81.34 41.31C81.3296 41.2303 81.3296 41.1497 81.34 41.07C81.3287 41.153 81.3287 41.237 81.34 41.32V41.31ZM73.21 55C73.1802 55.0057 73.1497 55.0057 73.12 55C73.1531 55.0058 73.1869 55.0058 73.22 55H73.21ZM75 54.21C76.43 53.8 78 53.69 79.46 53.36C77.93 53.69 76.4 53.8 75 54.21Z" fill="white"/>
<path d="M282 275.53C229.05 265 176.24 253.89 123.37 243C119.93 208.53 117.7 174 115.52 139.42C171.52 146.62 227.52 154.27 283.58 161.23C283.39 199.33 282.19 237.42 282 275.53Z" fill="#FAFAFA"/>
<path d="M170.63 180.41C170.636 179.33 170.874 178.264 171.326 177.284C171.779 176.303 172.436 175.431 173.253 174.725C174.071 174.02 175.029 173.497 176.066 173.192C177.102 172.888 178.191 172.809 179.26 172.96C181.431 173.24 183.406 174.36 184.76 176.08L183.14 177.53C182.145 176.301 180.71 175.508 179.14 175.32C178.371 175.214 177.588 175.276 176.846 175.503C176.103 175.73 175.419 176.115 174.841 176.633C174.262 177.15 173.803 177.787 173.496 178.5C173.188 179.213 173.04 179.984 173.06 180.76C173.002 182.422 173.538 184.05 174.572 185.353C175.605 186.656 177.069 187.548 178.7 187.87C179.43 188.018 180.184 187.992 180.901 187.794C181.619 187.596 182.28 187.232 182.83 186.73C183.576 185.967 184.038 184.972 184.14 183.91L178.86 183.16C178.86 182.22 178.86 181.75 178.95 180.8L186.38 181.8C186.442 182.301 186.462 182.806 186.44 183.31C186.45 185.287 185.686 187.19 184.31 188.61C183.564 189.317 182.657 189.832 181.667 190.111C180.678 190.39 179.636 190.424 178.63 190.21C176.364 189.748 174.329 188.514 172.871 186.72C171.412 184.926 170.62 182.682 170.63 180.37V180.41Z" fill="#4285F4"/>
<path d="M192.55 181C189.71 180.61 187.28 182.64 187.14 185.91C187.025 187.389 187.457 188.859 188.352 190.042C189.248 191.225 190.545 192.039 192 192.33C194.81 192.76 197.21 190.68 197.38 187.39C197.522 185.913 197.104 184.437 196.21 183.254C195.315 182.071 194.009 181.266 192.55 181ZM192.11 190.08C191.264 189.878 190.52 189.375 190.017 188.665C189.515 187.954 189.288 187.085 189.38 186.22C189.48 184.22 190.88 182.98 192.44 183.22C193.29 183.41 194.038 183.909 194.539 184.621C195.04 185.333 195.258 186.206 195.15 187.07C195.05 189 193.64 190.26 192.11 190V190.08Z" fill="#EA4335"/>
<path d="M203.71 182.48C200.9 182.1 198.48 184.16 198.31 187.48C198.155 188.961 198.557 190.446 199.437 191.648C200.317 192.849 201.612 193.68 203.07 193.98C205.86 194.41 208.26 192.28 208.46 188.98C208.66 185.68 206.52 182.87 203.71 182.48ZM203.2 191.68C202.354 191.471 201.614 190.958 201.122 190.239C200.629 189.52 200.419 188.644 200.53 187.78C200.64 185.71 202.04 184.5 203.58 184.71C204.431 184.907 205.178 185.415 205.672 186.135C206.166 186.856 206.373 187.735 206.25 188.6C206.13 190.67 204.72 191.91 203.2 191.68Z" fill="#FBBC05"/>
<path d="M217.29 184.69C217.29 185.07 217.29 185.26 217.23 185.64H217.15C216.868 185.191 216.491 184.809 216.045 184.522C215.599 184.235 215.096 184.05 214.57 183.98C212.04 183.63 209.57 185.82 209.38 189.09C209.19 192.36 211.38 195.24 213.87 195.62C214.368 195.709 214.881 195.67 215.36 195.507C215.839 195.345 216.269 195.063 216.61 194.69H216.68L216.63 195.54C216.5 197.79 215.4 198.83 213.74 198.54C213.148 198.39 212.61 198.079 212.184 197.641C211.759 197.203 211.463 196.656 211.33 196.06L209.33 196.7C209.577 197.725 210.107 198.66 210.86 199.398C211.614 200.135 212.56 200.646 213.59 200.87C216.18 201.29 218.48 199.87 218.75 195.47C219.02 191.07 219.13 189.12 219.38 184.95L217.29 184.69ZM214.2 193.33C212.68 193.1 211.49 191.42 211.61 189.39C211.73 187.36 213.1 186.04 214.61 186.26C216.12 186.48 217.21 188.13 217.09 190.19C216.97 192.25 215.71 193.55 214.2 193.33Z" fill="#4285F4"/>
<path d="M221.31 179.09L223.53 179.38C223.13 186.11 222.91 189.58 222.53 196.56L220.31 196.22C220.69 189.27 220.91 185.81 221.31 179.09Z" fill="#34A853"/>
<path d="M228.73 195.49C228.173 195.389 227.656 195.133 227.238 194.751C226.821 194.369 226.52 193.876 226.37 193.33L233.37 191.02C233.29 190.74 233.26 190.6 233.18 190.32C232.84 188.93 231.67 186.32 229.03 185.96C226.39 185.6 224.09 187.66 223.88 191.17C223.68 194.47 225.66 197.42 228.56 197.86C229.412 197.982 230.281 197.859 231.066 197.504C231.851 197.15 232.518 196.58 232.99 195.86L231.33 194.24C231.066 194.688 230.676 195.048 230.208 195.274C229.739 195.5 229.215 195.582 228.7 195.51L228.73 195.49ZM229 188.23C229.418 188.279 229.813 188.45 230.136 188.719C230.459 188.989 230.697 189.347 230.82 189.75L226.13 191.29C226.21 189 227.86 188.07 229 188.23Z" fill="#EA4335"/>
<path d="M243.64 224.65C215.08 219.35 186.54 213.95 157.98 208.65C156.638 208.35 155.434 207.615 154.555 206.558C153.675 205.502 153.171 204.184 153.12 202.81C153.12 202.51 153.12 202.36 153.12 202.05C153.087 201.432 153.198 200.814 153.445 200.246C153.691 199.678 154.067 199.175 154.541 198.776C155.015 198.378 155.575 198.095 156.177 197.95C156.779 197.805 157.406 197.801 158.01 197.94C186.77 202.793 215.53 207.67 244.29 212.57C246.95 213.02 249.01 215.93 248.85 219.06V219.93C248.64 223 246.31 225.15 243.64 224.65Z" stroke="#777777" stroke-width="0.54" stroke-miterlimit="10"/>
<path d="M210.06 235.6L189.78 231.37C188.767 231.07 187.884 230.439 187.271 229.578C186.659 228.717 186.352 227.675 186.4 226.62C186.4 226.37 186.4 226.25 186.4 226C186.47 223.78 188.12 222.28 190.07 222.67L210.48 226.74C211.513 227.04 212.41 227.688 213.02 228.574C213.63 229.459 213.917 230.528 213.83 231.6C213.83 231.85 213.83 231.98 213.83 232.23C213.71 234.51 212 236 210.06 235.6Z" fill="#E5E5E5"/>
<path d="M210.06 235.6L189.78 231.37C188.767 231.07 187.884 230.439 187.271 229.578C186.659 228.717 186.352 227.675 186.4 226.62C186.4 226.37 186.4 226.25 186.4 226C186.47 223.78 188.12 222.28 190.07 222.67L210.48 226.74C211.513 227.04 212.41 227.688 213.02 228.574C213.63 229.459 213.917 230.528 213.83 231.6C213.83 231.85 213.83 231.98 213.83 232.23C213.71 234.51 212 236 210.06 235.6Z" stroke="#727272" stroke-width="0.27" stroke-miterlimit="10"/>
<path d="M195.82 226.33L195.67 229.97L195.09 229.85C195.09 228.63 195.17 228.02 195.22 226.79L193.58 226.46C193.53 227.68 193.51 228.29 193.46 229.52L192.89 229.4C192.94 227.95 192.97 227.22 193.03 225.77L195.82 226.33Z" fill="black"/>
<path d="M196.91 230.08C196.72 229.918 196.572 229.712 196.48 229.48C196.377 229.237 196.329 228.974 196.34 228.71C196.35 228.464 196.419 228.224 196.54 228.01C196.651 227.825 196.82 227.681 197.02 227.6C197.235 227.534 197.465 227.534 197.68 227.6C197.923 227.649 198.151 227.759 198.34 227.92C198.533 228.082 198.684 228.287 198.78 228.52C198.879 228.764 198.924 229.027 198.91 229.29C198.906 229.537 198.837 229.778 198.71 229.99C198.598 230.175 198.43 230.319 198.23 230.4C198.016 230.483 197.783 230.5 197.56 230.45C197.315 230.385 197.091 230.257 196.91 230.08ZM198.11 229.71C198.185 229.632 198.245 229.539 198.284 229.438C198.324 229.337 198.343 229.229 198.34 229.12C198.356 228.883 198.293 228.647 198.16 228.45C198.104 228.361 198.031 228.284 197.946 228.224C197.86 228.164 197.762 228.122 197.66 228.1C197.568 228.078 197.473 228.079 197.382 228.103C197.291 228.128 197.208 228.175 197.14 228.24C197.064 228.318 197.005 228.411 196.966 228.512C196.926 228.613 196.907 228.721 196.91 228.83C196.896 229.066 196.955 229.3 197.08 229.5C197.137 229.589 197.212 229.664 197.3 229.723C197.387 229.781 197.486 229.821 197.59 229.84C197.681 229.863 197.775 229.863 197.866 229.84C197.957 229.817 198.04 229.773 198.11 229.71Z" fill="black"/>
<path d="M199.52 228L200.09 228.11C200.09 228.85 200.04 229.22 200.01 229.95L201.42 228.38L201.94 228.49C201.88 229.61 201.86 230.16 201.81 231.28L201.24 231.16C201.24 230.43 201.24 230.06 201.33 229.32L199.92 230.89L199.4 230.78C199.45 229.63 199.47 229.07 199.52 228Z" fill="black"/>
<path d="M203 231.34C202.803 231.176 202.649 230.967 202.55 230.73C202.451 230.486 202.407 230.223 202.42 229.96C202.424 229.71 202.493 229.465 202.62 229.25C202.734 229.063 202.906 228.919 203.11 228.84C203.33 228.757 203.57 228.739 203.8 228.79C204.026 228.836 204.236 228.94 204.41 229.09C204.588 229.238 204.723 229.432 204.8 229.65L204.35 229.86C204.289 229.729 204.204 229.61 204.1 229.51C204.003 229.427 203.886 229.372 203.76 229.35C203.668 229.327 203.571 229.326 203.479 229.349C203.386 229.371 203.301 229.417 203.23 229.48C203.151 229.556 203.089 229.648 203.048 229.75C203.007 229.851 202.987 229.96 202.99 230.07C202.973 230.31 203.037 230.549 203.17 230.75C203.288 230.929 203.471 231.054 203.68 231.1C203.795 231.13 203.915 231.13 204.03 231.1C204.142 231.049 204.236 230.965 204.3 230.86L204.72 231.25C204.63 231.429 204.477 231.568 204.29 231.64C204.084 231.701 203.866 231.701 203.66 231.64C203.42 231.593 203.194 231.49 203 231.34Z" fill="black"/>
<path d="M206.25 231L205.81 230.91C205.81 231.36 205.81 231.58 205.75 232.03L205.19 231.91C205.24 230.8 205.27 230.24 205.32 229.12L205.89 229.23V230.37L206.34 230.46L207.11 229.46L207.72 229.58L206.77 230.75L207.64 232.4L206.97 232.26L206.25 231Z" fill="black"/>
<path d="M77.0599 225.34C76.0599 224.58 74.2299 223.34 74.0599 221.98C73.7899 219.55 80.3899 212.72 82.7199 212.12C87.2799 210.94 93.7899 216.91 98.4199 218.61C99.6599 219.07 103.17 218.5 103.95 219.52C106.49 222.86 105.81 236.27 106.34 240.95C106.52 242.58 108.51 258.02 108.27 258.31C107.03 259.86 90.7899 265.24 89.0099 264.58C87.2299 263.92 84.9999 261.14 83.0999 260C78.5999 257.35 71.6699 257.68 66.6799 256.84C61.9499 256.04 56.2899 253.34 51.6799 256.34C47.8999 258.78 44.2899 259.04 40.2699 261.09C36.2499 263.14 31.9399 269 29.6299 272.94C28.3499 275.11 25.7099 294.94 23.3499 294.48C22.2799 294.25 22.9299 288.48 23.0399 287.78C24.1199 281.38 24.3899 273.5 26.6299 267.42C32.7699 250.72 50.2099 237.14 66.0499 229.82C67.6399 229.09 74.4499 225.68 75.1999 224.24C76.1999 222.35 72.5599 221.08 76.4599 219.98" fill="#FFDB1F"/>
<path d="M37.6699 289.16C46.6181 295.056 56.8942 298.631 67.5699 299.56" stroke="#2D1F04" stroke-width="2.82" stroke-linecap="round" stroke-linejoin="round"/>
<path d="M35.6199 290.58C48.3199 298.64 64.1399 304.22 79.0799 298.58" stroke="#2D1F04" stroke-width="2.82" stroke-linecap="round" stroke-linejoin="round"/>
<path d="M92.2401 49.76C88.8901 49.76 80.1101 67 78.1401 70.5C63.4701 96.49 72.0701 143.18 82.0001 183C89.3501 212.39 82.0701 201.73 84.1801 210.27C85.6501 216.27 105.75 220.57 111.92 222.13C135.22 228.03 156.84 215.98 180.19 215.98C186.04 215.98 202.88 217.83 207.73 212.92C211.85 208.75 213.13 203.36 216.46 198.65C220.95 192.27 231.39 184.57 238.62 181.65C246.09 178.65 255.44 180.47 262.8 182.33C264.68 182.81 270.34 185.23 272.2 183.33C275.2 180.24 276.65 171.21 275.89 167.33C273.84 156.93 262.32 188.53 260.33 178.48C258.97 171.59 263.88 133.82 261.33 127.22C251.41 101.1 242.27 64.22 220.11 47.89C214.56 43.81 205.29 36.6 198.96 33.39C192.84 30.29 188.65 29.87 182.51 26.76C174.42 22.66 162.95 17.9 154.3 15.76C152.11 15.2 155.17 19.09 154.97 19.5C154.77 19.91 149.33 19.98 148.59 19.84C141.36 18.37 134.02 18.53 127.1 15.42C125.96 14.9 119.94 8.66004 118.57 9.12004C114.49 10.5 122.4 23.91 122.4 23.91C122.127 23.4153 121.791 22.9581 121.4 22.55C119.4 20.95 114.89 19.67 112.34 19.16C106.88 18.05 104.57 21.61 99.9101 22.55C99.2901 22.68 93.9101 24.11 93.9101 24.25C93.9101 25.42 102.64 26.79 102.64 27.99C102.64 29.19 100.73 28.61 100.29 28.67C97.7101 29.05 80.3601 37.54 81.4301 40.8C81.9001 42.24 92.4301 39.99 93.9101 40.91C94.3362 41.0928 94.7883 41.2075 95.2501 41.25C95.2501 41.25 89.1701 42.25 86.1901 42.95C82.4601 43.9 74.8201 52.47 81.4901 52.47" fill="#CAA77A"/>
<path d="M76.2201 102.54C79.0001 90.94 86.07 77.87 96.31 76C108.31 73.75 118.37 83.55 130.02 83.07C132.17 82.98 136.38 81.66 137.68 79.74C138.98 77.82 137.68 75.41 137.68 75.42C139.52 75.96 141.37 78.66 143.59 79.31C152.34 81.87 161.37 74.09 169.28 71.67C195.65 63.6 216.21 66.49 230.28 92.27C233.44 98.06 238.28 111.27 234.99 126.09C230.18 147.65 227.68 156.69 204.57 172.84C177.11 192 120.29 201.5 91.9301 165.23C78.6501 148.25 71.0001 124.18 76.2201 102.54Z" fill="#FFDBAF"/>
<path d="M129.34 112.41C119.77 107.57 112.02 132.06 112.79 139.09C115.43 163.18 150.24 161.94 166.37 153.77C189.66 141.98 161.17 104.01 144.53 110.77" fill="#9D7B51"/>
<path d="M76.7999 100.42C71.6099 109.99 74.3999 137.83 81.5299 146.42C82.1199 146.21 120.53 136.55 117.53 96.91C117.35 94.53 93.2899 98.35 89.8699 99.04C85.0699 100 78.9299 96.49 76.7999 100.42Z" fill="#9D7B51"/>
<path d="M163.78 98.17C161.32 142.25 224.58 162.26 231.26 152.45C235.54 146.17 241.26 112.81 230.08 92.95C228.98 91.01 216.58 95.1701 214.55 95.5101C198 98.3101 164.23 90.12 163.78 98.17Z" fill="#9D7B51"/>
<path d="M104.12 188.87L104.07 196.91" stroke="#9D7B51" stroke-width="4.17" stroke-linecap="round" stroke-linejoin="round"/>
<path d="M111.92 192.98L111.87 201.02" stroke="#9D7B51" stroke-width="4.17" stroke-linecap="round" stroke-linejoin="round"/>
<path d="M181.56 99.81C181.56 103.42 182.26 105.81 183.48 107.46C187.07 112.17 195.18 109.6 203.23 108.18C211.98 106.64 213.94 101.18 215.57 97.87" fill="white"/>
<path d="M82.8799 97.79C75.4899 117.41 106.25 115.34 111.88 100.44L82.8799 97.79Z" fill="white"/>
<g style="mix-blend-mode:multiply" opacity="0.23">
<path d="M75 52.15C80.7 52.15 85.5 50.58 91 49.29C92.54 48.93 95.71 47.21 95.71 48.81C95.71 49.17 95.07 49.11 94.77 49.29C90.0294 52.2062 86.142 56.3213 83.5 61.22C82.56 62.92 80.04 67.61 80.67 66.47C102.24 27.05 258.89 12.26 249.85 172.38C249.77 173.82 248.03 176.22 249.38 176.68C252.2 177.63 256.71 174.87 260.22 176.2C261.8 176.8 273.16 183.2 274.36 182.4C276.36 181.04 265.31 174.79 265.67 172.4C273.67 118.49 234.93 62.07 216.73 46.45C193.44 26.45 154.65 17.58 153.73 17.34C153.57 17.34 149.95 19.57 148.08 19.25C141.3 18.11 133.69 15.5 126.87 13.53C125.87 13.23 119.56 8.30001 119.33 8.76001C118.57 10.31 118.12 18.95 118.86 20.21C119.4 21.12 122.74 19.73 121.69 19.73C112.95 19.73 101.92 22.59 92.47 24.5C92.13 24.57 91.53 24.62 91.53 24.98C91.53 27.72 103.78 25.92 103.78 27.84C103.78 29.2 86.78 34.07 84.46 35.95C83.77 36.51 81 38.65 81.63 39.29C83.89 41.58 89.49 38.73 92.47 40.29" fill="#3F2719"/>
</g>
<path d="M94.3099 48C87.8999 52.37 81.9999 60.9 78.8399 67.71C53.4199 121.91 91.4499 189.41 83.2899 210.71" stroke="#2D1F04" stroke-width="2.82" stroke-linecap="round" stroke-linejoin="round"/>
<path d="M92.3601 48.8901C89.2401 50.4701 87.1801 50.5101 83.9901 51.4301C82.3801 51.9001 81.1401 52.5001 79.5301 52.8501C77.9201 53.2001 76.5301 53.2801 75.0601 53.6901C74.4101 53.8801 73.0601 54.9401 73.0601 54.2601C73.0601 52.1301 89.9301 42.6301 93.1501 41.5501C93.6201 41.3901 94.3801 41.4601 94.5401 40.9801C94.7701 40.3001 93.2801 40.3101 92.5401 40.1301C89.3601 39.3301 81.7501 41.8301 79.1501 39.8501C78.4401 39.3101 84.1501 35.8001 84.4501 35.6101C87.9601 33.6101 91.4501 31.1001 95.3301 29.9601C97.6101 29.3101 102.33 30.9601 102.33 28.5501C102.33 25.7001 89.6601 26.7301 88.6601 25.7301C88.5201 25.5801 89.0401 25.5401 89.2201 25.4501C92.1473 23.9647 95.2383 22.827 98.4301 22.0601C104.22 20.6801 114.43 19.2801 120.19 21.2101" stroke="#2D1F04" stroke-width="2.82" stroke-linecap="round" stroke-linejoin="round"/>
<path d="M121.1 22.62C119.45 19.28 116.5 13.79 118.03 9.90999C118.11 9.69999 119.39 8.33999 119.7 8.49999C120.85 9.07999 121.64 11.12 123.05 11.89C128.687 14.841 134.694 17.0237 140.91 18.38C144.53 19.23 148.21 19.56 151.79 20.38C152.62 20.5251 153.458 20.6186 154.3 20.66C154.3 20.66 149.41 16.22 151.23 15.3C151.55 15.13 165.57 20.44 166.86 20.95C176.86 24.89 187.02 27.26 196.52 31.95" stroke="#2D1F04" stroke-width="2.82" stroke-linecap="round" stroke-linejoin="round"/>
<g style="mix-blend-mode:multiply">
<path d="M180.59 25.38C250.59 48.92 267.69 135.54 267.69 185.7" stroke="#2D1F04" stroke-width="2.82" stroke-linecap="round" stroke-linejoin="round"/>
</g>
<path d="M275.77 172.42C275.831 174.3 275.721 176.181 275.44 178.04" stroke="#2D1F04" stroke-width="2.82" stroke-linecap="round" stroke-linejoin="round"/>
<path d="M276.07 174.86C276.35 176.77 276.02 178.52 276.28 180.38" stroke="#2D1F04" stroke-width="2.82" stroke-linecap="round" stroke-linejoin="round"/>
<path d="M237.87 94.64L60.28 97.84" stroke="#2D1F04" stroke-width="8.19" stroke-linecap="round" stroke-linejoin="round"/>
<path d="M178.73 100.5C184.28 117.35 213.37 111.98 213.9 98.33" stroke="#2D1F04" stroke-width="3.29" stroke-linecap="round" stroke-linejoin="round"/>
<path d="M81.8901 102.92C79.5101 115 112.32 116 112.32 100.77" stroke="#2D1F04" stroke-width="3.29" stroke-linecap="round" stroke-linejoin="round"/>
<path d="M123.58 112.45C123.4 108.81 130.47 105.45 139.36 105.05C148.25 104.65 155.61 107.21 155.79 110.85C155.97 114.49 148.9 117.85 140.01 118.25C131.12 118.65 123.76 116.1 123.58 112.45Z" fill="#251707"/>
<path d="M199.55 97.85L200.46 97.23" stroke="#2D1F04" stroke-width="3.29" stroke-linecap="round" stroke-linejoin="round"/>
<path d="M139.72 119.43C139.72 133.04 147.29 117 157.84 122.34" stroke="#2D1F04" stroke-width="3.29" stroke-linecap="round" stroke-linejoin="round"/>
<path d="M98.44 100.2C98.4519 99.1485 98.7745 98.124 99.3673 97.2554C99.9601 96.3868 100.797 95.713 101.772 95.3188C102.746 94.9245 103.816 94.8275 104.846 95.0399C105.876 95.2523 106.82 95.7646 107.56 96.5123C108.299 97.2601 108.801 98.2099 109.002 99.2421C109.202 100.274 109.093 101.343 108.688 102.313C108.283 103.284 107.6 104.113 106.725 104.696C105.85 105.279 104.822 105.59 103.77 105.59C103.066 105.586 102.37 105.444 101.721 105.171C101.072 104.898 100.484 104.499 99.9887 103.999C99.4938 103.498 99.1022 102.905 98.8365 102.254C98.5708 101.602 98.4361 100.904 98.44 100.2Z" fill="#2D1F04"/>
<path d="M198.73 98.22C198.742 97.1684 199.064 96.1439 199.657 95.2753C200.25 94.4067 201.087 93.7329 202.061 93.3387C203.036 92.9444 204.106 92.8474 205.136 93.0598C206.166 93.2722 207.11 93.7845 207.849 94.5322C208.589 95.28 209.091 96.2297 209.291 97.262C209.492 98.2942 209.383 99.3628 208.978 100.333C208.573 101.304 207.89 102.133 207.015 102.716C206.14 103.299 205.111 103.61 204.06 103.61C203.356 103.607 202.659 103.466 202.009 103.193C201.36 102.921 200.771 102.523 200.276 102.022C199.78 101.521 199.389 100.927 199.124 100.275C198.858 99.6226 198.725 98.9242 198.73 98.22Z" fill="#2D1F04"/>
<path d="M191.42 104.1L190.16 103.96L191.42 104.1Z" fill="#2D1F04"/>
<path d="M122 256.91L312 298.85C315.94 299.67 316.39 306.69 313 308.85L217 370.16C215.043 371.265 212.885 371.968 210.653 372.229C208.421 372.49 206.159 372.303 204 371.68L12 304.5C8.20003 303.18 8.13003 300.83 11.83 299.26L98.26 262.66C102 261.1 118 256.08 122 256.91Z" fill="#E7E7E7"/>
<path d="M122 256.91L312 298.85C315.94 299.67 316.39 306.69 313 308.85L217 370.16C215.043 371.265 212.885 371.968 210.653 372.229C208.421 372.49 206.159 372.303 204 371.68L12 304.5C8.20003 303.18 8.13003 300.83 11.83 299.26L98.26 262.66C102 261.1 118 256.08 122 256.91Z" stroke="#2D1F04" stroke-width="2.82" stroke-linecap="round" stroke-linejoin="round"/>
<path d="M124.82 256.43L314.82 298.37C318.76 299.2 314.97 303.53 311.58 305.7L213.51 367.43C210.12 369.6 203.93 367.94 200.13 366.62L16.33 302.7C12.54 301.37 10.72 301.53 14.42 299.96L94.94 264.87L101.1 262.19C104.81 260.62 120.88 255.6 124.82 256.43Z" fill="#D2D2D2"/>
<path d="M107 112.61L308.22 138.11C311.299 138.568 314.117 140.102 316.172 142.44C318.228 144.777 319.389 147.768 319.45 150.88L315.32 303.88L107 258.24L96.49 122.5C96.09 116.25 100.8 111.82 107 112.61Z" fill="#D2D2D2"/>
<path d="M107 112.61L308.22 138.11C311.299 138.568 314.117 140.102 316.172 142.44C318.228 144.777 319.389 147.768 319.45 150.88L315.32 303.88L107 258.24L96.49 122.5C96.09 116.25 100.8 111.82 107 112.61Z" stroke="#2D1F04" stroke-width="2.82" stroke-linecap="round" stroke-linejoin="round"/>
<path d="M108.11 112.28L304.89 137.78C307.935 138.27 310.708 139.821 312.721 142.157C314.734 144.494 315.856 147.466 315.89 150.55L311.38 302.32L108.69 256.11L97.8201 122.18C97.4301 115.92 102 111.49 108.11 112.28Z" fill="#222222"/>
<path d="M108.11 112.28L304.89 137.78C307.935 138.27 310.708 139.821 312.721 142.157C314.734 144.494 315.856 147.466 315.89 150.55L311.38 302.32L108.69 256.11L97.8201 122.18C97.4301 115.92 102 111.49 108.11 112.28Z" stroke="#2D1F04" stroke-width="2.82" stroke-linecap="round" stroke-linejoin="round"/>
<path d="M101.17 123.57L304.08 151.61L304.17 291.55L125.65 254.23L109.45 250.85L101.17 123.57Z" fill="#FAFAFA"/>
<path d="M101.17 123.57L304.08 151.61L304.17 291.55L125.65 254.23L109.45 250.85L101.17 123.57Z" stroke="#2D1F04" stroke-width="2.82" stroke-linecap="round" stroke-linejoin="round"/>
<path d="M105.88 264.41L293.4 306.78L243.9 336.56L59.3101 283.71L105.88 264.41Z" fill="#222222"/>
<path d="M66.22 279.67L262.76 333.12" stroke="#D2D2D2" stroke-width="1.63" stroke-linecap="round" stroke-linejoin="round"/>
<path d="M78.02 274.54L272.51 327.46" stroke="#D2D2D2" stroke-width="1.63" stroke-linecap="round" stroke-linejoin="round"/>
<path d="M86.98 269.29L280.68 319.6" stroke="#D2D2D2" stroke-width="1.63" stroke-linecap="round" stroke-linejoin="round"/>
<path d="M97.98 265.83L280.06 309.73L288.77 311.83L292.32 312.68" stroke="#D2D2D2" stroke-width="1.63" stroke-linecap="round" stroke-linejoin="round"/>
<path d="M227.4 336.65L281.15 301.94" stroke="#D2D2D2" stroke-width="1.63" stroke-linecap="round" stroke-linejoin="round"/>
<path d="M212.99 332.7L264.63 298.46" stroke="#D2D2D2" stroke-width="1.63" stroke-linecap="round" stroke-linejoin="round"/>
<path d="M197.21 327.66L250.19 293.6" stroke="#D2D2D2" stroke-width="1.63" stroke-linecap="round" stroke-linejoin="round"/>
<path d="M184.33 322.59L235.96 290.67" stroke="#D2D2D2" stroke-width="1.63" stroke-linecap="round" stroke-linejoin="round"/>
<path d="M182 311.08L221.42 286.51" stroke="#D2D2D2" stroke-width="1.63" stroke-linecap="round" stroke-linejoin="round"/>
<path d="M168.49 306.99L192.48 292.42L206.43 283.95" stroke="#D2D2D2" stroke-width="1.63" stroke-linecap="round" stroke-linejoin="round"/>
<path d="M155 303.6L189.37 281.31" stroke="#D2D2D2" stroke-width="1.63" stroke-linecap="round" stroke-linejoin="round"/>
<path d="M138.96 299.44L174.17 277.36" stroke="#D2D2D2" stroke-width="1.63" stroke-linecap="round" stroke-linejoin="round"/>
<path d="M123.55 295.36C123.55 295.36 160.15 274.02 160.62 274.65" stroke="#D2D2D2" stroke-width="1.63" stroke-linecap="round" stroke-linejoin="round"/>
<path d="M88.8599 301.99L94.4099 298.86L146.88 271.52" stroke="#D2D2D2" stroke-width="1.63" stroke-linecap="round" stroke-linejoin="round"/>
<path d="M72.8301 300.42L134.58 267.56" stroke="#D2D2D2" stroke-width="1.63" stroke-linecap="round" stroke-linejoin="round"/>
<path d="M52.8401 297.92L121.88 264.86" stroke="#D2D2D2" stroke-width="1.63" stroke-linecap="round" stroke-linejoin="round"/>
<path d="M83.7199 211.9C80.3699 210.97 78.0899 216.07 75.8899 219.23C72.8899 223.5 77.7099 223.4 72.4199 226.51C54.6399 237 21.1599 250.91 21.7699 294.29" stroke="#2D1F04" stroke-width="2.82" stroke-linecap="round" stroke-linejoin="round"/>
<path d="M84 211.56C93.1 217.61 94.91 218.47 106.06 219.85" stroke="#2D1F04" stroke-width="2.82" stroke-linecap="round" stroke-linejoin="round"/>
<path d="M75.3301 224.63C82.8101 230.54 89.1601 232.85 98.7601 234.84" stroke="#2D1F04" stroke-width="2.82" stroke-linecap="round" stroke-linejoin="round"/>
<path d="M116.6 303.18L181.41 321.79C182.71 322.17 182.79 322.97 181.58 323.6L148.06 340.76C146.631 341.395 145.027 341.515 143.52 341.1L78.1699 319.1C76.8799 318.67 76.8499 317.9 78.1099 317.38L111.95 303.38C113.449 302.87 115.063 302.801 116.6 303.18Z" fill="#F0F0F0"/>
<path d="M237.88 163.8C237.41 163.19 237.63 162.1 237.17 161.47C236.833 161.025 236.455 160.613 236.04 160.24C233.04 157.57 234.7 165.12 237.69 164.24C239 163.85 240.97 160.44 243.74 161.24C244.85 161.59 238.74 164.94 237.88 163.8Z" fill="#FAFAFA"/>
<path d="M161 178.08C161.46 177.47 161.25 176.38 161.71 175.75C162.046 175.308 162.425 174.899 162.84 174.53C165.79 171.86 164.18 179.4 161.18 178.53C159.88 178.13 157.9 174.72 155.18 175.53C154.05 175.88 160.15 179.22 161 178.08Z" fill="#FAFAFA"/>
<path d="M180.36 153.44C180.84 152.92 180.9 151.82 181.36 151.28C181.7 150.911 182.075 150.576 182.48 150.28C185.3 148.13 182.53 155.28 180.4 153.9C179.47 153.31 178.64 149.65 176.33 150.04C175.43 150.17 179.46 154.42 180.36 153.44Z" fill="#FAFAFA"/>
<path d="M178.42 215.15C178.335 215.15 178.254 215.184 178.194 215.244C178.134 215.304 178.1 215.385 178.1 215.47C178.1 215.555 178.134 215.636 178.194 215.696C178.254 215.756 178.335 215.79 178.42 215.79C178.461 215.794 178.503 215.79 178.542 215.777C178.581 215.765 178.617 215.744 178.648 215.717C178.679 215.69 178.704 215.656 178.722 215.619C178.739 215.582 178.749 215.541 178.75 215.5C178.754 215.455 178.749 215.409 178.734 215.366C178.719 215.323 178.696 215.283 178.664 215.25C178.633 215.217 178.595 215.191 178.553 215.174C178.511 215.156 178.466 215.148 178.42 215.15Z" fill="#281D07"/>
<path d="M26.23 291.43C23.58 280.89 34.12 263.38 47.14 259.04C50.63 257.88 56.14 255.29 59.88 256.04C60.48 256.16 69.93 256.49 69.93 256.09C70.9623 256.52 71.9503 257.049 72.88 257.67C67.88 256.41 56.31 261.34 52.64 264.27C47.33 268.52 44.83 277.27 41.15 282.75C40.963 282.988 40.859 283.282 40.8539 283.585C40.8488 283.888 40.9429 284.184 41.1218 284.428C41.3007 284.673 41.5547 284.853 41.845 284.939C42.1353 285.026 42.4461 285.016 42.73 284.91C43.15 284.78 26.18 291.82 26.23 291.43Z" fill="#CAA77A"/>
<path d="M42.0001 282.82C41.4601 277.06 46.6901 270.97 50.7801 267.13C53.6301 264.45 69.1701 254.13 72.8801 256.47C77.5901 259.47 83.3701 261.55 88.0501 265.1C91.5701 267.76 95.9501 270.16 97.2101 274.68C99.3005 282.105 102.117 289.307 105.62 296.18C105.98 296.88 108.2 301.97 106.62 302.18C105.04 302.39 102.08 298.43 101.04 297.46C98.2101 294.81 85.9701 282.4 81.6401 284.97C76.3101 288.12 69.3001 293.29 62.9501 293.86C59.7701 294.14 44.8401 287.99 42.7501 285.4C42.2478 284.634 41.9865 283.736 42.0001 282.82Z" fill="#D2D2D2"/>
<path d="M25.6099 293.13C24.6099 289.5 25.9599 282.13 27.2199 278.8C33.3399 262.45 51.2199 253.58 67.8199 255.61C73.4213 256.261 78.7848 258.247 83.4599 261.4C92.5199 267.57 106.88 288.48 106.66 301.3C106.66 301.8 107.3 302.58 103.8 299.68C99.1299 295.83 89.7999 287.74 87.2199 285.97C81.4299 281.92 72.0799 293.16 64.6799 293.19C57.2799 293.22 46.6299 290.25 41.1099 285.99" stroke="#2D1F04" stroke-width="2.82" stroke-linecap="round" stroke-linejoin="round"/>
<path d="M40.5701 287C49.0001 263.39 57.3001 260.86 72.2901 256.7" stroke="#2D1F04" stroke-width="2.82" stroke-linecap="round" stroke-linejoin="round"/>
<path d="M53.9199 264.85C56.7599 264 89.9999 286.56 106 301.78" stroke="#2D1F04" stroke-width="2.82" stroke-linecap="round" stroke-linejoin="round"/>
<path d="M47.0801 274.25C55.4301 281.19 64.7401 286.63 75.2401 288.48" stroke="#2D1F04" stroke-width="2.82" stroke-linecap="round" stroke-linejoin="round"/>
<g style="mix-blend-mode:multiply" opacity="0.23">
<path d="M35.5 290.43C34.28 291.28 49.5 299.82 53.59 300.84C65.53 303.84 75.53 295.7 86.93 298.84C89.09 299.43 106.99 305.13 108.22 303.19C108.98 302 102.76 299.31 101.91 298.47C97.6301 294.26 90.91 286.92 84.82 285.04C77.82 282.87 72.24 292.93 65.25 293.04C61.62 293.12 57.99 293.36 54.44 292.48C49.96 291.36 46.01 287.27 41.44 286.8C39.79 286.66 37.09 289.33 35.5 290.43Z" fill="#3F2719"/>
</g>
<g style="mix-blend-mode:multiply" opacity="0.23">
<path d="M104.11 225.64C102.66 233.75 105.6 256.22 90.02 265.79C91.96 266.05 94.55 263.68 96.13 262.79C99.61 260.84 104.41 260.66 107.52 258.28C107.716 258.14 107.854 257.934 107.91 257.7C108.5 253.25 105.91 245.52 105.4 240.87C105.06 237.87 104.06 234.24 104.47 231.23C104.72 229.38 104.43 223.8 104.11 225.64Z" fill="#3F2719"/>
</g>
<path d="M87.97 215.53L84.24 222.48" stroke="#2D1F04" stroke-width="2.8" stroke-linecap="round" stroke-linejoin="round"/>
<path d="M92.8599 217.99L89.1199 224.94" stroke="#2D1F04" stroke-width="2.8" stroke-linecap="round" stroke-linejoin="round"/>
<path d="M100.58 56.2L100.67 63.56" stroke="#9D7B51" stroke-width="4.07" stroke-linecap="round" stroke-linejoin="round"/>
<path d="M107.05 58.67L107.14 66.03" stroke="#9D7B51" stroke-width="4.07" stroke-linecap="round" stroke-linejoin="round"/>
<path d="M92.96 197.83L93.05 205.18" stroke="#9D7B51" stroke-width="4.07" stroke-linecap="round" stroke-linejoin="round"/>
<path d="M265.58 72.13H254.27V92.67H265.58V72.13Z" fill="white"/>
<path d="M251.1 44.38C250.552 44.7859 250.092 45.2998 249.75 45.89C249.427 46.4514 249.213 47.069 249.12 47.71C248.987 48.7083 249.151 49.7236 249.592 50.629C250.034 51.5344 250.732 52.2895 251.6 52.8C252.163 53.1258 252.785 53.3366 253.43 53.42C254.074 53.5092 254.73 53.4719 255.36 53.31C256.017 53.1541 256.634 52.8611 257.17 52.45L271.64 41.57C271.839 41.4152 272.068 41.3026 272.312 41.239C272.556 41.1754 272.811 41.1621 273.06 41.2C273.311 41.2308 273.552 41.3134 273.769 41.4425C273.986 41.5716 274.173 41.7444 274.32 41.95C274.475 42.1489 274.588 42.3775 274.652 42.6217C274.715 42.8659 274.728 43.1206 274.69 43.37C274.655 43.6194 274.571 43.8593 274.442 44.0757C274.313 44.2921 274.143 44.4805 273.94 44.63L259.47 55.51C258.526 56.2174 257.447 56.7244 256.3 57C255.187 57.27 254.034 57.3277 252.9 57.17C251.762 57.0163 250.665 56.6427 249.67 56.07C248.643 55.4755 247.747 54.6804 247.034 53.732C246.321 52.7837 245.806 51.7015 245.52 50.55C245.251 49.4369 245.2 48.2824 245.37 47.15C245.532 46.0127 245.909 44.9165 246.48 43.92C247.061 42.8933 247.851 42.0005 248.8 41.3C248.999 41.1452 249.228 41.0326 249.472 40.969C249.716 40.9054 249.971 40.8921 250.22 40.93C250.471 40.9608 250.712 41.0434 250.929 41.1725C251.146 41.3016 251.333 41.4744 251.48 41.68C251.635 41.8789 251.748 42.1075 251.812 42.3517C251.875 42.5959 251.888 42.8506 251.85 43.1C251.818 43.3529 251.735 43.5967 251.606 43.8167C251.477 44.0366 251.305 44.2282 251.1 44.38Z" fill="black"/>
<path d="M255 61.18L277.21 49.53C277.434 49.4042 277.684 49.3291 277.94 49.31C278.186 49.283 278.434 49.3068 278.67 49.38C278.904 49.4542 279.121 49.5731 279.31 49.73C279.507 49.8971 279.67 50.1008 279.79 50.33L287.56 65.13C287.796 65.5809 287.843 66.107 287.691 66.5926C287.539 67.0782 287.201 67.4837 286.75 67.72C286.528 67.8394 286.284 67.9125 286.033 67.9349C285.782 67.9572 285.529 67.9283 285.29 67.85C285.049 67.7782 284.825 67.6577 284.633 67.496C284.44 67.3343 284.283 67.1349 284.17 66.91L277.29 53.81L269.58 57.81L274.52 67.21C274.756 67.6609 274.803 68.187 274.651 68.6726C274.499 69.1582 274.161 69.5637 273.71 69.8C273.487 69.9165 273.244 69.988 272.994 70.0103C272.744 70.0326 272.492 70.0054 272.252 69.9302C272.012 69.8549 271.79 69.7332 271.597 69.5718C271.405 69.4105 271.246 69.2128 271.13 68.99L266.19 59.59L256.78 64.52C256.559 64.6411 256.315 64.7159 256.064 64.74C255.813 64.764 255.56 64.7368 255.32 64.66C255.079 64.5882 254.855 64.4677 254.663 64.306C254.47 64.1443 254.313 63.9449 254.2 63.72C254.082 63.4976 254.008 63.254 253.984 63.0031C253.961 62.7523 253.987 62.4992 254.061 62.2585C254.135 62.0177 254.257 61.7941 254.418 61.6004C254.579 61.4067 254.777 61.2468 255 61.13V61.18Z" fill="black"/>
<path d="M275 103.26C274.501 103.402 273.967 103.344 273.51 103.1C270.754 101.262 268.725 98.5219 267.77 95.35C266.647 91.6847 267.026 87.7233 268.823 84.3374C270.621 80.9514 273.69 78.4182 277.355 77.295C281.02 76.1718 284.982 76.5506 288.368 78.3482C291.754 80.1457 294.287 83.2147 295.41 86.88C296.417 90.1195 296.236 93.6119 294.9 96.73C294.789 96.9483 294.631 97.1394 294.437 97.2898C294.243 97.4401 294.019 97.5461 293.78 97.6C293.535 97.6786 293.277 97.7092 293.02 97.69C292.775 97.6626 292.537 97.5879 292.32 97.47C292.101 97.3571 291.907 97.2006 291.75 97.01C291.589 96.8073 291.467 96.5768 291.39 96.33C291.249 95.8576 291.295 95.3488 291.52 94.91C291.945 93.8313 292.185 92.6886 292.23 91.53C292.266 90.3349 292.104 89.1421 291.75 88C291.25 86.4345 290.393 85.0064 289.247 83.8283C288.101 82.6502 286.697 81.7542 285.146 81.2108C283.595 80.6673 281.938 80.4913 280.308 80.6966C278.677 80.9019 277.116 81.4829 275.748 82.3939C274.38 83.3048 273.242 84.5209 272.424 85.9463C271.606 87.3717 271.129 88.9676 271.033 90.6083C270.936 92.249 271.221 93.8898 271.866 95.4015C272.511 96.9132 273.499 98.2546 274.75 99.32L280.11 97.68L278.65 92.91C278.569 92.6714 278.538 92.4187 278.559 92.1675C278.579 91.9164 278.651 91.6722 278.77 91.45C278.889 91.2253 279.052 91.027 279.25 90.8672C279.447 90.7073 279.676 90.5892 279.92 90.52C280.165 90.4386 280.424 90.4113 280.68 90.44C280.926 90.459 281.165 90.5307 281.38 90.65C281.599 90.7629 281.793 90.9194 281.95 91.11C282.117 91.3088 282.239 91.5405 282.31 91.79L284.31 98.41C284.38 98.6466 284.4 98.8951 284.37 99.14C284.343 99.3854 284.268 99.6231 284.15 99.84C284.032 100.059 283.876 100.255 283.69 100.42C283.498 100.586 283.273 100.708 283.03 100.78L275 103.26Z" fill="black"/>
<path d="M273.26 111.49C273.012 111.539 272.758 111.535 272.511 111.48C272.265 111.425 272.033 111.32 271.83 111.17C271.622 111.027 271.445 110.843 271.309 110.63C271.174 110.417 271.082 110.179 271.04 109.93C270.997 109.682 271.003 109.429 271.058 109.184C271.113 108.938 271.216 108.707 271.361 108.501C271.506 108.296 271.69 108.121 271.903 107.987C272.115 107.853 272.352 107.762 272.6 107.72L297.31 103.43C297.557 103.38 297.811 103.382 298.057 103.435C298.304 103.488 298.536 103.592 298.74 103.74C298.947 103.883 299.123 104.067 299.257 104.28C299.391 104.493 299.481 104.731 299.52 104.98C299.605 105.475 299.494 105.984 299.211 106.399C298.927 106.813 298.492 107.101 298 107.2L273.26 111.49Z" fill="black"/>
<path d="M191.4 203.84C191.25 210.67 186.4 215.02 180.67 214.18C174.94 213.34 170.3 207.62 170.45 200.79C170.6 193.96 175.45 189.62 181.18 190.45C186.91 191.28 191.55 197 191.4 203.84ZM186.81 203.17C186.9 198.91 184.24 195.59 181.08 195.17C177.92 194.75 175.08 197.23 175.03 201.5C174.98 205.77 177.6 209.09 180.77 209.5C183.94 209.91 186.72 207.39 186.81 203.17Z" fill="#EA4335"/>
<path d="M214 207.13C213.85 213.96 209 218.31 203.27 217.47C197.54 216.63 192.9 210.91 193.05 204.08C193.2 197.25 198.05 192.9 203.78 193.74C209.51 194.58 214.15 200.25 214 207.13ZM209.41 206.46C209.51 202.19 206.84 198.87 203.68 198.41C200.52 197.95 197.68 200.48 197.63 204.75C197.58 209.02 200.2 212.33 203.37 212.75C206.54 213.17 209.32 210.68 209.41 206.46Z" fill="#FBBC05"/>
<path d="M235.9 199.13L235.44 220.43C235.25 229.19 230.62 232.1 225.25 231.32C220.19 230.59 217.25 226.32 216.14 222.99L220.14 221.68C220.8 223.68 222.5 226.24 225.3 226.68C228.75 227.18 230.93 225.08 231.03 220.54V218.83H230.87C230.184 219.597 229.312 220.174 228.338 220.507C227.365 220.84 226.322 220.917 225.31 220.73C220.09 219.97 215.41 214.11 215.56 207.46C215.71 200.81 220.56 196.25 225.82 197.01C226.916 197.177 227.966 197.569 228.902 198.163C229.839 198.757 230.642 199.539 231.26 200.46H231.42V198.53L235.78 199.16L235.9 199.13ZM231.63 209.73C231.72 205.56 229.33 202.14 226.21 201.73C223.09 201.32 220.33 203.94 220.21 208.12C220.09 212.3 222.7 215.65 225.87 216.12C229.04 216.59 231.54 213.87 231.63 209.73Z" fill="#4285F4"/>
<path d="M243.35 187.69L242.6 222.46L238.13 221.8L238.88 187.04L243.35 187.69Z" fill="#34A853"/>
<path d="M260.19 217.76L263.69 220.97C262.767 222.422 261.442 223.573 259.876 224.284C258.309 224.994 256.57 225.233 254.87 224.97C248.94 224.11 244.62 218.26 244.77 211.6C244.92 204.55 249.49 200.39 254.87 201.17C260.25 201.95 262.87 207.25 263.65 210.02L264.09 211.44L250 216C251 218.54 252.65 220 255 220.33C256.024 220.487 257.071 220.329 258.004 219.878C258.936 219.426 259.709 218.701 260.22 217.8L260.19 217.76ZM249.32 211.9L258.75 208.85C258.458 208.035 257.947 207.317 257.273 206.773C256.599 206.23 255.788 205.883 254.93 205.77C252.6 205.44 249.3 207.3 249.32 211.9Z" fill="#EA4335"/>
<path d="M153.58 195.25L153.69 190.25L168.62 192.42C168.754 193.438 168.807 194.464 168.78 195.49C168.69 199.27 167.68 203.81 164.68 206.71C161.68 209.61 158.08 210.93 153.26 210.23C144.33 208.93 136.99 199.57 137.26 189.42C137.53 179.27 145.17 172.09 154.11 173.42C158.516 174.109 162.471 176.514 165.11 180.11L161.91 183.21C159.987 180.656 157.147 178.949 153.99 178.45C147.47 177.5 142.24 182.74 142.08 190.15C141.92 197.56 146.89 204.28 153.42 205.23C154.896 205.527 156.423 205.454 157.864 205.018C159.305 204.581 160.616 203.796 161.68 202.73C163.166 201.113 164.061 199.04 164.22 196.85L153.58 195.25Z" fill="#4285F4"/>
</g>
<defs>
<clipPath id="clip0_357_3226">
<rect width="335.2" height="381.88" fill="white"/>
</clipPath>
</defs>
</svg>
