<?xml version="1.0" encoding="utf-8"?>
<!-- Generator: Adobe Illustrator 26.0.3, SVG Export Plug-In . SVG Version: 6.00 Build 0)  -->
<!DOCTYPE svg PUBLIC "-//W3C//DTD SVG 1.1//EN" "http://www.w3.org/Graphics/SVG/1.1/DTD/svg11.dtd" [
	<!ENTITY ns_extend "http://ns.adobe.com/Extensibility/1.0/">
	<!ENTITY ns_ai "http://ns.adobe.com/AdobeIllustrator/10.0/">
	<!ENTITY ns_graphs "http://ns.adobe.com/Graphs/1.0/">
	<!ENTITY ns_vars "http://ns.adobe.com/Variables/1.0/">
	<!ENTITY ns_imrep "http://ns.adobe.com/ImageReplacement/1.0/">
	<!ENTITY ns_sfw "http://ns.adobe.com/SaveForWeb/1.0/">
	<!ENTITY ns_custom "http://ns.adobe.com/GenericCustomNamespace/1.0/">
	<!ENTITY ns_adobe_xpath "http://ns.adobe.com/XPath/1.0/">
]>
<svg version="1.1" id="Слой_1" xmlns:x="&ns_extend;" xmlns:i="&ns_ai;" xmlns:graph="&ns_graphs;"
	 xmlns="http://www.w3.org/2000/svg" xmlns:xlink="http://www.w3.org/1999/xlink" x="0px" y="0px" width="303.6px" height="314.4px"
	 viewBox="0 0 303.6 314.4" style="enable-background:new 0 0 303.6 314.4;" xml:space="preserve">
<style type="text/css">
	.st0{fill:#FFFFFF;}
	.st1{fill:#CAA77A;}
	.st2{opacity:0.23;fill:#3F2719;}
	.st3{fill:none;stroke:#9D7B51;stroke-width:4.1072;stroke-linecap:round;stroke-linejoin:round;stroke-miterlimit:10;}
	.st4{fill:#FFDBAF;}
	.st5{fill:#9D7B51;}
	.st6{fill:#251707;}
	.st7{fill:none;stroke:#2D1F04;stroke-width:7.6;stroke-linecap:round;stroke-linejoin:round;stroke-miterlimit:10;}
	.st8{fill:none;stroke:#251707;stroke-width:3.05;stroke-linecap:round;stroke-linejoin:round;stroke-miterlimit:10;}
	.st9{fill:#2D1F04;}
	.st10{fill:none;stroke:#2D1F04;stroke-width:2.7806;stroke-linecap:round;stroke-linejoin:round;stroke-miterlimit:10;}
	.st11{fill:#FFDB1F;}
	.st12{fill:#FFFFFF;stroke:#2D1F04;stroke-width:2.7806;stroke-linecap:round;stroke-linejoin:round;stroke-miterlimit:10;}
	.st13{fill:#FF9A02;}
	.st14{fill:#B6B1AE;}
</style>
<metadata>
	<sfw  xmlns="&ns_sfw;">
		<slices></slices>
		<sliceSourceBounds  bottomLeftOrigin="true" height="314.4" width="303.6" x="-93.4" y="320.5"></sliceSourceBounds>
	</sfw>
</metadata>
<g>
	<path class="st0" d="M179.6,314.4c-1.3,0-2.6,0-3.9,0c-51.5-1-90-7.4-120.5-20.1c-0.3,0-0.7,0-1.1,0c-0.3,0-0.6,0-0.9,0
		c-3.2-0.2-6.2-1.7-8.3-4.2c-2-2.3-3-5.2-2.9-8.3c-19.9-1.1-37-15.6-41.1-35.3c-3.1-14.9,1.7-30.3,12.3-40.9
		c-2.6-7.2-3.6-14.8-3.2-23c0-0.5,0.1-0.9,0.2-1.4c0.4-3.9,1.6-7.4,3.4-10.4c6.1-9.8,16.9-17.4,25.6-20.8
		c7.2-8.2,16.9-14.1,27.6-16.7c-1.1-3.7-2.1-7.3-3.1-11.3c-0.6,0.1-1.2,0.1-1.8,0.1c-1.1,0-2.2-0.1-3.3-0.4
		c-3.8-0.9-7.1-3.2-9.1-6.5c-2.1-3.3-2.7-7.3-1.9-11.1c3.4-14.8,8-26.1,14-34.5c0.3-1.4,0.6-2.8,1-4.1c0-0.1,0.1-0.3,0.1-0.4
		c-0.6-0.4-1.1-0.8-1.6-1.3c-3.8-3.6-4.8-9.1-2.6-13.8c0.2-0.4,0.4-0.8,0.6-1.2c0,0,0.2-0.4,0.3-0.5c0-0.1,0.1-0.2,0.1-0.2
		c0.3-0.5,0.6-1.1,0.9-1.6c0-0.1,0.1-0.1,0.1-0.2c0.1-0.3,0.3-0.5,0.5-0.9c-0.8-3.1-0.3-6.5,1.5-9.4c1.3-2.1,2.7-3.9,4.1-5.6
		c-0.2-3.7,1.3-7.3,4.1-9.8c3.3-2.9,7.6-5.3,12.8-7c0.1,0,0.2-0.1,0.3-0.1c1.2-0.4,2.4-0.7,3.6-1c0,0,0.4-0.1,0.4-0.1
		c0.3-0.1,0.6-0.2,0.9-0.2c0.3-1.3,0.6-2.7,1.2-3.9c0.3-0.7,0.6-1.4,1-2c0.2-0.3,0.3-0.6,0.5-0.9c1.9-3,5.2-5,8.8-5.4
		c0.4,0,0.9-0.1,1.3-0.1c2.4,0,4.7,0.7,6.7,2c0.1,0.1,0.4,0.3,0.4,0.3c0.9,0.6,4.8,2.3,10.8,3.1c0.7,0.1,1.6,0.2,2.6,0.3
		c2.2-2.5,5.4-4,9-4c0.1,0,0.1,0,0.2,0c7.1,0.1,15.9,1.7,27.9,5.1c32.3,9.2,58,25.1,76.6,47.2c17.7,21.2,29.2,48.6,34.3,81.5
		c1.2,0.5,2.4,1.1,3.5,1.7c29.7,15.9,32.9,43,28.4,84.5c0,0.3,0,0.7,0,1.1c0,3.4-0.1,9.8-4.4,14.5c-0.2,1.2-0.3,2.4-0.5,3.6
		c-4.1,24.2-9.9,39.9-20.1,54.1c-5.4,7.6-13.7,11.4-24.5,11.4c-0.8,0-1.5,0-2.4-0.1C228.3,311.3,200.9,314.4,179.6,314.4z"/>
	<g>
		<path class="st1" d="M22.2,182.6c-0.6,14.9,4.6,23.3,10.5,34.3c2-2.8,8.5-7.7,13.1-9.8c-5.6-6.6-7.6-18.6-7.8-21.9
			C31.6,184.1,23.9,182.1,22.2,182.6z"/>
		<g>
			<path class="st1" d="M276.6,164.3c-3.7-4.2-8.8-7.9-15.5-10.4c-0.2-0.1-0.4-0.2-0.6-0.2c-6.4-81.6-48.4-120-104.4-136
				c-8.3-2.3-17.7-4.6-24.8-4.6c1.9,1.7,3,3.9,3,3.9c0,0-0.1,0-0.1,0c-4.2,0.5-11.9,0.3-16.2-0.3c-6.9-1-13.1-3.1-16.2-5.3
				c-0.1,0-0.1,0-0.1,0.1c-0.2,0.3-0.3,0.6-0.4,0.9c-1.7,3.9,0.2,8.2,3.3,10.4c-0.1,0-0.2,0-0.2-0.1c-0.2,0-0.4-0.1-0.6-0.1
				c-0.2,0-0.3-0.1-0.5-0.1c-2.1-0.3-5-0.2-8.1,0.3c-0.7,0.1-1.4,0.2-2.2,0.4c-0.7,0.1-1.4,0.3-2,0.5c-0.1,0-0.2,0.1-0.4,0.1
				c-0.9,0.2-1.8,0.5-2.8,0.8c0,0,0,0-0.1,0c-3.4,1.1-6.6,2.7-8.9,4.7c0,0,0,0,0.1,0c1.5-0.4,2.8-0.6,4.1-0.7c1.3-0.2,2.5-0.2,3.6,0
				c1.5,0.2,2.7,0.7,3.7,1.4c-7.8,2-12.5,4.5-17.4,12.1c1.5-0.5,2.9-0.8,4.3-1.1c2.6-0.4,5.2-0.5,7.3-0.1c0.3,0.1,0.6,0.1,0.9,0.2
				c-0.1,0-0.1,0.1-0.2,0.1c-6.1,2.6-10.3,5.1-13.3,9.4c-0.1,0.2-0.2,0.3-0.4,0.5c-0.1,0.1-0.1,0.2-0.2,0.3
				c-0.2,0.2-0.3,0.5-0.5,0.8c0,0,0,0.1-0.1,0.1c-0.2,0.3-0.4,0.7-0.6,1.1c0,0,0,0.1-0.1,0.1c-0.2,0.4-0.4,0.8-0.6,1.2
				c0,0,0,0,0.1,0c6.3-4.3,9.6-5.4,16.6-7.2c-2.7,2.5-5,5.5-6.9,8.8c-0.2,0.4-0.5,0.8-0.7,1.2c-0.2,0.4-0.4,0.7-0.6,1.1
				c-0.6,1.2-1.1,2.5-1.6,3.7c-0.1,0.3-0.3,0.7-0.4,1c-0.2,0.4-0.3,0.9-0.5,1.3c-0.4,1.2-0.8,2.4-1.1,3.7
				c-1.8,6.5-2.6,13.3-2.7,19.6v0.1c-0.1,6.2,0.2,13.3,1,17.5c2.9,15.1,5.6,23.2,9.9,36.4c0.8,2.3,2,8.1,2.4,10.6
				c1.6,8.9,2.8,22.3,2.7,22.4c-0.2,0.2-0.5,0.5-0.7,0.9c-0.8,1.1-1.7,2.5-2,3.2c-1,2.2,1.2,4.2,1.1,5.3c0,0,0,0,0,0.1
				c0,0,0,0.1,0,0.1c-0.1,0.4-0.3,0.9-0.5,1.5c4.1,1.8,8.4,3.2,13.1,4C154.7,198.2,225.3,182.5,276.6,164.3z"/>
			<path class="st2" d="M259.4,144c-8.5-2-16.6-0.5-23.6,2.3c-4.9-47.2-17.4-76-46.3-96.6c-13.8-9.9-31-14.7-47.8-14.1
				c-2.5,0.1-4.9-0.9-4.9-3.5c-3.6,0.5-3.7,4.2-7.2,4.9c-2.4,0.4-9-3.2-10-6.7c-5.2,4.5-2.4,10.1-4.9,11.2
				c-1.7,0.7-8.8-2.6-17.9-0.3c7.1,1.9,9.1,4.7,7.3,5.8c-2.4,1.4-12.3,1.3-14.4,2.7c4.1,0.7,4.4,3.7,2.9,4.8
				c-9.1,6.8-15.4,13.8-20.2,21.3c0.4-2.5,1-5,1.6-7.5c0.3-1.2,0.7-2.4,1.1-3.7c0.1-0.4,0.3-0.9,0.5-1.3c0.1-0.4,0.3-0.7,0.4-1
				c0.5-1.3,1.1-2.5,1.6-3.7c0.2-0.4,0.4-0.8,0.6-1.1c0.2-0.4,0.5-0.8,0.7-1.2c1.9-3.3,4.2-6.3,6.9-8.8c-7,1.8-10.3,2.9-16.5,7.2
				c0,0-0.1,0-0.1,0.1c0.2-0.4,0.4-0.8,0.6-1.2c0,0,0-0.1,0.1-0.1c0.2-0.4,0.4-0.7,0.6-1.1c0,0,0-0.1,0.1-0.1
				c0.1-0.3,0.3-0.5,0.5-0.8l0.2-0.3c0.1-0.2,0.2-0.4,0.4-0.5c3-4.3,7.2-6.8,13.3-9.4c0.1,0,0.1-0.1,0.2-0.1
				c-0.3-0.1-0.6-0.1-0.9-0.2c-2.1-0.4-4.7-0.3-7.3,0.1c-1.4,0.2-2.9,0.6-4.3,1c2.4-3.8,4.7-6.3,7.5-8.1c2.8-1.8,5.9-3,9.8-3.9
				c-1-0.7-2.2-1.2-3.7-1.4c-1.1-0.1-2.2-0.1-3.6,0c-1.2,0.1-2.6,0.4-4,0.7c-0.1,0-0.1,0-0.1,0c2.3-2,5.5-3.6,8.9-4.7
				c0,0,0.1,0,0.1,0c0.9-0.3,1.8-0.6,2.8-0.8c0.1,0,0.3-0.1,0.4-0.1c0.7-0.2,1.4-0.3,2-0.5c0.7-0.1,1.4-0.3,2.2-0.4
				c3.1-0.5,6-0.6,8.1-0.3c0.2,0,0.3,0,0.5,0.1c0.2,0,0.4,0.1,0.6,0.1c0.1,0,0.2,0,0.2,0.1c-3.1-2.2-4.9-6.5-3.3-10.4
				c0.1-0.3,0.3-0.6,0.4-0.9c0,0,0-0.1,0.1-0.1c3.2,2.3,9.4,4.3,16.2,5.3c4.3,0.6,12,0.8,16.2,0.4c0,0,0.1,0,0.1,0
				c0,0-1.1-2.3-3-3.9c7.1,0.1,16.5,2.3,24.8,4.6C209.7,33,250.6,69.1,259.4,144z"/>
			<line class="st3" x1="218.4" y1="131" x2="218.5" y2="137.6"/>
			<line class="st3" x1="225" y1="134.3" x2="225" y2="141"/>
			<g>
				<path class="st4" d="M95.3,140.3c29.6,23.6,72.8,4.9,90.8-15.8c15.1-17.4,15.4-25.2,14.9-43.4c-0.3-12.5-6.7-22.2-10.4-26.2
					c-16.2-17.9-33.1-16.3-52.4-4.7c-5.8,3.5-11.4,11.5-18.9,11.1c-1.9-0.1-3.9-1.9-5.5-2c0,0,1.5,1.8,0.8,3.5
					c-0.7,1.8-3.7,3.7-5.4,4.2c-9.1,2.6-19-3.3-28.1,0.9c-7.7,3.5-10.8,15.4-10.7,25.2C70.6,111.4,81.4,129.3,95.3,140.3z"/>
				<path class="st5" d="M114.6,90.7c-8.5-2-10.9,14-7.9,24.6c2.6,9,9.1,14,16.5,15.2c13.7,2.1,29.8-3.4,34.8-13.3
					c4.8-9.3,0.9-19.7-6.4-25.6c-8-6.5-19.1-9.6-25.4-5.1L114.6,90.7z"/>
				<path class="st5" d="M70.6,93.1c0.2,9,2.2,19.9,11.1,32.7c6.7-3.1,16.2-10.3,20.9-24.4c4.8-14.6,2.7-31.8-0.2-33.7
					c-7.4-0.4-14.2-3.1-21.5,0.4C77.2,69.8,70.2,76.4,70.6,93.1z"/>
				<path class="st5" d="M130.2,56.6c12.7,45.9,66.8,53,70.1,43.8c2.2-5.9,4-30.4-9.2-44.9c-5.2-5.7-15.1-15.3-29.5-13.9
					C148,42.8,136.2,50.4,130.2,56.6z"/>
				<path class="st6" d="M110,91.8c-0.9-2.9,4.1-6.9,11.1-9c7-2.1,13.3-1.4,14.2,1.5c0.9,2.9-4.1,6.9-11.1,9
					C117.2,95.4,110.9,94.7,110,91.8z"/>
			</g>
			<path class="st7" d="M129,58.5c18.9-21.2,38.4-27.6,74.1-3.8"/>
			<path class="st7" d="M108.6,65.3c-22.5-3-37.8,2.8-46.7,41.5"/>
			<path class="st8" d="M126.2,105.6c-3.3-5.5-3.7-12.9-3.6-12.9"/>
			<g>
				<path class="st9" d="M149.4,68.7c2.2-9.5,11.8-12.8,20.5-10c2.6,0.8,5,1.9,7.2,3.3c0.6,0.4,0.8,1.2,0.4,1.8
					c-0.3,0.5-0.9,0.7-1.4,0.6c-4.6-1.1-9.3-2.3-13.9-1.8c-4.6,0.5-7.8,3.3-10.4,7.1C151,70.9,149,70.1,149.4,68.7L149.4,68.7z"/>
			</g>
			<g>
				<path class="st9" d="M78.5,96.2c0.6-7.4,7-13.2,14.6-12.1c2.3,0.3,4.4,0.9,6.3,1.9c0.6,0.3,0.9,1.1,0.6,1.8
					c-0.3,0.5-0.9,0.8-1.4,0.7c-3.6-0.6-7.5-1.1-10.7,0.4c-3.3,1.6-5.1,4.7-6.8,8C80.4,98.2,78.3,97.6,78.5,96.2L78.5,96.2z"/>
			</g>
			<path class="st8" d="M112.2,102.3c1.7,5.7,10.2,11.9,14,3.3c7.2,6.4,12.1-4.2,9.7-11.3"/>
			<path class="st10" d="M260.1,153.7c-6.4-81.6-48.4-120-104.2-136c-8.2-2.3-17.7-4.6-24.8-4.6c1.9,1.7,3,3.9,3,3.9
				c0,0-0.1,0-0.1,0c-4.2,0.5-11.9,0.3-16.2-0.3c-6.8-1-13-3.1-16.2-5.3c-0.1,0-0.1,0-0.1,0.1c-0.2,0.3-0.3,0.6-0.4,0.9
				c-1.7,3.9,0.2,8.2,3.3,10.4c-0.1,0-0.2,0-0.2-0.1c-0.2,0-0.4-0.1-0.6-0.1c-0.2,0-0.3-0.1-0.5-0.1c-2.1-0.3-5-0.2-8.1,0.3
				c-0.7,0.1-1.4,0.2-2.2,0.4c-0.7,0.1-1.4,0.3-2,0.5c-0.1,0-0.2,0.1-0.4,0.1c-0.9,0.2-1.8,0.5-2.8,0.8c0,0,0,0-0.1,0
				c-3.4,1.1-6.6,2.7-8.9,4.7c0,0,0,0,0.1,0c1.5-0.4,2.8-0.6,4-0.7c1.3-0.2,2.5-0.2,3.6,0c1.5,0.2,2.7,0.7,3.7,1.4
				c-7.8,2-12.5,4.5-17.4,12.1c1.5-0.5,2.9-0.8,4.3-1.1c2.6-0.4,5.2-0.5,7.3-0.1c0.3,0.1,0.6,0.1,0.9,0.2c-0.1,0-0.1,0.1-0.2,0.1
				c-6.1,2.6-10.3,5.1-13.3,9.4c-0.1,0.2-0.2,0.3-0.4,0.5c-0.1,0.1-0.1,0.2-0.2,0.3c-0.2,0.2-0.3,0.5-0.5,0.8c0,0,0,0.1-0.1,0.1
				c-0.2,0.3-0.4,0.7-0.6,1.1c0,0,0,0.1-0.1,0.1c-0.2,0.4-0.4,0.8-0.6,1.2c0,0,0,0,0.1,0c6.2-4.3,9.5-5.4,16.5-7.2
				c-2.7,2.5-5,5.5-6.9,8.8c-0.2,0.4-0.5,0.8-0.7,1.2c-0.2,0.4-0.4,0.7-0.6,1.1c-0.6,1.2-1.1,2.5-1.6,3.7c-0.1,0.3-0.3,0.7-0.4,1
				c-0.2,0.4-0.3,0.9-0.5,1.3c-0.4,1.2-0.8,2.4-1.1,3.7c-1.8,6.5-2.6,13.3-2.7,19.6v0.1c-0.1,6.2,0.2,13.3,1,17.5
				c2.9,15.1,5.6,23.2,9.9,36.4c3.6,11.1,5.3,21.7,7,33.1"/>
		</g>
		<g>
			<line class="st3" x1="99.5" y1="154.6" x2="99.4" y2="161.4"/>
			<line class="st3" x1="106.8" y1="158" x2="106.7" y2="164.9"/>
		</g>
		<path class="st11" d="M262.9,291.1c-20.4,6.8-58.8,12.4-86.9,11.9c-58.7-1.1-95.3-9.5-121.8-21.6c-0.3-1.4,1.8-19,3.5-25.5
			c0.7-2.8,1.6-5.6,2.5-8.2c0.9-2.6,1.8-5.2,2.8-7.6c0.3-0.8,0.6-1.5,0.9-2.2c0.2-0.4,0.3-0.8,0.5-1.2c0.8-2,1.8-4.2,2.8-6.5
			c0.2-0.5,0.5-0.9,0.7-1.4c0.3-0.5,0.5-1,0.7-1.5c0.1-0.2,0.2-0.4,0.3-0.6c0.2-0.3,0.3-0.7,0.5-1c0.1-0.2,0.2-0.5,0.4-0.7
			c0.4-0.7,0.7-1.4,1.1-2.1c0.5-0.9,1-1.8,1.4-2.6c0,0,0,0,0-0.1c-0.1-0.2-0.2-0.4-0.3-0.6c0,0,0,0,0-0.1c-1-2.3-1.6-4.6-1.7-7
			c0-0.2,0-0.4,0-0.6c0-0.7,0-1.4,0-2.1v-0.1c0-0.3,0-0.6,0.1-0.8c0.1-1.8,0.5-3.7,0.9-5.5c0.4-1.5,0.8-3,1.3-4.5
			c2.2-6.4,5.6-12.5,8.1-17.5c0.1-0.2,0.2-0.4,0.3-0.6c0.1-0.2,0.3-0.5,0.4-0.7c0.2-0.3,0.3-0.5,0.5-0.8c0.2-0.3,0.3-0.6,0.5-0.9
			c0.4-0.7,0.7-1.4,0.9-2c0.1-0.3,0.2-0.5,0.2-0.7c0-0.1,0-0.2,0.1-0.3c0,0,0,0,0-0.1v-0.1c0-0.9-1.2-2.2-1.4-3.7c0-0.1,0-0.2,0-0.2
			c0-0.4,0-0.8,0.1-1.2c0-0.1,0.1-0.2,0.1-0.3c0.3-0.7,1.3-2.3,2.2-3.4c0.3-0.3,0.5-0.6,0.8-0.9c0.1-0.1,0.2-0.2,0.3-0.3
			c0.2-0.2,0.3-0.3,0.4-0.3c0,0,0.1,0,0.1,0c0.1,0,0.1,0,0.2,0c0,0,0.1,0.1,0.1,0.2c0,0,0,0.1,0,0.1c0,0,0,0.1,0,0.1
			c0,0.1,0,0.1,0,0.2c0,0.1,0,0.1,0,0.2c0,0,0,0.1,0,0.1c12.5,3.6,23.8,5.8,34.1,7c29.3,3.4,50.7-1.3,67.4-5.7
			c12.1-3.3,35.7-12.4,58.7-22.3C247.3,170.7,267.1,253.6,262.9,291.1z"/>
		<g>
			<path class="st2" d="M61.3,244.5c4.2-5,9.3-11.6,11.7-13.1c5-3.1,12.1-2.7,17.6-2.7c14.4,0,25.4,11.8,40.7,13.3
				c9.3,1,38-8,35.4-12.5c-2.1-3.7-10.4-0.9-37.4-1.4c-14.7-0.3-28.1-1.7-42.4-4.1c-3.4-0.6-11.7-0.6-14.6-5.8
				c-0.6,2.3-3.2,7.9-4.3,10.2C65.3,233.9,62.9,240.5,61.3,244.5z"/>
			<path class="st10" d="M86.2,165.7c47.7,13.7,96.1,4,101.5,1.2"/>
			<path class="st10" d="M54.1,281.5c1.2-16.8,4.7-30.9,8.7-41.2c0.3-0.8,0.6-1.5,0.9-2.2c0.2-0.4,0.3-0.8,0.5-1.2
				c0.8-2,1.8-4.2,2.8-6.5c0.2-0.5,0.5-0.9,0.7-1.4c0.3-0.5,0.5-1,0.7-1.5c0.1-0.2,0.2-0.4,0.3-0.6c0.2-0.3,0.3-0.7,0.5-1
				c1-2,2-3.8,2.9-5.5c0,0,0,0,0-0.1c-0.1-0.2-0.2-0.4-0.3-0.6c0,0,0,0,0-0.1c-1-2.3-1.6-4.6-1.7-7c0-0.2,0-0.4,0-0.6
				c-0.1-1,0-2,0-3c0.1-1.8,0.5-3.7,0.9-5.5c1.9-8,6.3-15.8,9.4-21.9c0.8-1.5,2.7-4.7,2.9-6.1c0,0,0,0,0-0.1s0-0.1,0-0.1
				c0-0.9-1.2-2.2-1.4-3.7c0-0.1,0-0.2,0-0.2c0-0.5,0-1,0.3-1.5c0.3-0.7,1.3-2.3,2.2-3.4c0.3-0.3,0.5-0.6,0.8-0.9
				c0.1-0.1,0.2-0.2,0.3-0.3c0.2-0.2,0.4-0.3,0.6-0.3c0.1,0,0.2,0,0.3,0.2c0,0,0,0.1,0,0.1c0,0.1,0,0.2,0,0.3c0,0.1,0,0.1,0,0.1
				c0,0,0,0.1,0,0.1c0,0,0,0,0,0.1"/>
			<path class="st10" d="M93.6,168.1c-0.7,2-1.4,3.5-1.4,5.7"/>
			<path class="st10" d="M105.8,170.6c-0.9,1.8-1.1,4.2-1.1,6.2"/>
			<line class="st10" x1="120.4" y1="172.5" x2="119.5" y2="177.3"/>
			<polyline class="st10" points="130.6,173.8 130.6,174.6 130.6,175.2 130.6,176 130.6,176.5 130.6,177.1 130.6,177.6 			"/>
			<polyline class="st10" points="124.9,174.1 124.9,174.6 124.9,175.2 124.9,175.7 124.9,176.2 124.9,176.8 			"/>
			<polyline class="st10" points="165.2,172.5 165.2,173 165.2,173.5 165.2,174.6 165.2,175.2 			"/>
			<polyline class="st10" points="169.2,172.5 169.2,173.3 169.2,174.1 169.2,174.6 			"/>
			<g>
				<g>
					<g>
						<path class="st9" d="M120.3,215.4c-0.6-1.9-2.3-3.4-5.6-3.6c-6.7-0.4-13.7-0.5-22-0.7c-0.2,0.7-0.4,1.3-0.6,2
							c-1.4,3.8-3.4,7.4-5.4,10.9c-0.5,0.9-1,1.7-1.5,2.6c-0.4,0.7-0.8,1.4-1.2,2.1c-2.8,5-5.1,10.1-5.4,16c3.9,0,7.4,0.1,11.2,0.2
							c-0.2-4.9,1.7-9.4,4-13.6c3.4-0.5,3.9,1,4.1,2.9c0.4,3.6,1.3,7.3,3.2,11.2c4.1,0.2,7.8,0.5,12.1,0.8
							c-2.3-4.1-2.2-8.4-3.3-11.8c-0.2-0.7-0.4-1.3-0.7-1.9c-0.5-0.9-1.1-1.7-1.9-2.3c0.6-0.1,0.9-0.2,1.2-0.3
							c2.1-0.6,3.9-1.4,5.5-2.5c0.1-0.1,0.2-0.1,0.2-0.2c2.8-1.9,4.8-4.4,5.8-7.6C120.6,218.3,120.7,216.7,120.3,215.4z
							 M101.4,218.3c2.3,0,4.5-0.1,6.4,0.1c1.9,0.2,2.4,1.6,1.4,3.3c-0.9,1.6-2.6,2.8-4.6,3c-2.3,0.2-4.6,0.2-7,0.3
							C99.2,222.5,100.4,220.5,101.4,218.3z"/>
						<path class="st9" d="M151.2,221.7c-3.8,0.2-7.1,0.4-10.4,0.5c0.5-3-0.8-4.6-3.5-4.7c-1.8-0.1-3.3,0.5-4.6,2.5
							c-0.5,1.7,0.4,2.3,1.5,2.7c2.1,0.7,4.4,1.3,6.7,2.1c1.2,0.4,2.5,1,3.6,1.6c7.3,3.9,3.3,14.2-3.7,18.7
							c-2.3,1.5-5.1,2.5-7.5,2.8c-4,0.6-8,0.2-11.8-1.1c-5-1.8-7.8-6.5-5.6-12.2c3.2,0,6.4-0.1,9.8-0.1c0,0.7-0.1,1.4-0.1,2
							c0.1,3.4,3.3,5.2,7,4c1.7-0.5,3-1.6,3.6-3.3c0.5-1.5,0-2.7-1.2-3.3c-1-0.5-2.1-0.9-3.1-1.3c-2.2-0.9-4.4-1.5-6.3-2.6
							c-3.6-2-4.1-5.3-2.3-9.2c2-4.3,5.3-7.8,9.9-9.1c4.3-1.2,8.6-1.3,13,0.2C150.3,213.5,152.3,216.4,151.2,221.7z"/>
					</g>
				</g>
			</g>
			<path class="st10" d="M83.2,175.3c8.8,6.5,45.6,14.3,93.3,6.8"/>
		</g>
		<g>
			<path class="st12" d="M189,209.7c3.3,15.7-6.7,31.1-22.5,34.4L51.2,268.4c-17.6,3.7-34.7-7.5-38.4-25.1
				c-3.7-17.5,7.5-34.7,25.1-38.4c1.7-0.3,3.3-0.6,5-0.6c-1.8-3.3-3.1-7-3.9-10.9c-4.7-22.5,9.6-44.6,32.2-49.3
				c17.6-3.7,35,4.3,44,18.9c0.4-0.1,0.8-0.2,1.2-0.3c13.6-2.9,27,5.9,29.9,19.5c0.6,2.8,0.7,5.5,0.4,8.2c2.5-1.4,5.2-2.4,8.1-3
				C170.3,183.9,185.7,194,189,209.7z"/>
			<g>
				<path class="st9" d="M77.4,218.6c-0.8-0.7-2-2.2-2.3-3.7c-0.7-3.1-2.6-12.5-2.6-12.5c-0.4-1.7-0.9-3.1-1.5-4.3
					c-0.6-1.2-1.5-2.1-2.5-2.8c-1-0.7-2.3-1.1-3.7-1.2c-1.5-0.2-3.2,0-5.1,0.4c-1,0.2-2.1,0.5-3,0.9c-1,0.4-1.9,0.8-2.7,1.3
					c-0.8,0.5-1.5,1-2.1,1.4c-0.6,0.5-1,0.9-1.2,1.2c-0.2,0.3-0.3,0.8-0.3,1.1c0,0.3,0,0.7,0.1,1.2c0.1,0.3,0.1,0.6,0.2,0.8
					c0.1,0.2,0.2,0.4,0.3,0.6c0.1,0.1,0.3,0.2,0.4,0.3c0.1,0.1,0.3,0.1,0.4,0c0.2-0.1,0.6-0.3,1-0.7c0.4-0.4,1-0.8,1.6-1.3
					c0.7-0.5,1.4-1,2.4-1.5c0.9-0.5,2-0.9,3.2-1.1c1.1-0.2,2.1-0.3,3-0.2c0.8,0.1,1.6,0.4,2.2,0.8c0.6,0.4,1.1,1,1.5,1.8
					c0.4,0.8,0.7,1.7,0.9,2.7c0,0,0.4,1.9,0.6,2.7c-1.3,0-4.1,0.3-7.4,1c-7.5,1.6-9.9,6.1-8.8,11.5c1.2,5.7,6.2,7.3,10.2,6.5
					c5.9-1.2,7.6-4.3,9.2-7c1,1.8,1.8,2.8,3,3.6c0.2,0.1,0.4,0.2,0.6,0.2c0.2,0,0.4-0.1,0.7-0.3c0.4-0.3,0.8-0.6,1.1-1.1
					c0.4-0.4,0.6-0.8,0.7-1c0.1-0.3,0.2-0.5,0.2-0.7C77.7,218.9,77.6,218.7,77.4,218.6z M69.9,214.7c-0.9,3.3-3.5,5.5-7.1,6.3
					c-3.5,0.7-5.2-1.2-5.7-3.3c-0.7-3.5,1.1-6,5-6.8c2.9-0.6,5.4-0.8,6.8-0.7C69.2,211.4,69.9,214.7,69.9,214.7z M113.2,185
					c0,0.1,0,0.3,0,0.5c0,0.2,0,0.5-0.1,0.8l-2.3,27.3c0,0.2-0.1,0.4-0.2,0.6c-0.1,0.2-0.3,0.3-0.5,0.4s-0.5,0.3-0.9,0.4
					c-0.4,0.1-1.2,0.3-1.8,0.4c-0.6,0.1-1.1,0.2-1.6,0.3c-0.4,0-0.8,0.1-1,0c-0.3,0-0.5-0.1-0.6-0.2c-0.1-0.1-0.3-0.3-0.4-0.5
					l-9.1-18.6l-0.1-0.3l0,0.3l-0.3,20.6c0,0.2-0.1,0.4-0.2,0.6c-0.1,0.2-0.3,0.3-0.5,0.5c-0.2,0.1-0.6,0.3-1,0.4
					c-0.4,0.1-0.9,0.2-1.5,0.4c-0.6,0.1-1.4,0.3-1.8,0.3c-0.4,0-0.7,0-1,0c-0.3,0-0.5-0.1-0.6-0.2c-0.2-0.1-0.3-0.3-0.4-0.5
					l-13.1-24.1c-0.2-0.3-0.3-0.5-0.4-0.7c-0.1-0.2-0.1-0.4-0.2-0.5c0-0.2,0-0.3,0-0.5c0.1-0.1,0.2-0.2,0.3-0.4
					c0.2-0.1,0.4-0.2,0.7-0.3c0.3-0.1,0.7-0.2,1.2-0.3c0.6-0.1,1-0.2,1.4-0.2c0.3,0,0.6,0,0.8,0c0.2,0,0.3,0.1,0.5,0.2
					c0.1,0.1,0.2,0.3,0.3,0.4L90,212.8l0.1,0.3l0-0.3l0.3-22.9c0-0.2,0-0.4,0.1-0.5c0.1-0.1,0.2-0.3,0.3-0.4
					c0.2-0.1,0.4-0.2,0.7-0.3c0.3-0.1,1.2-0.3,1.7-0.4c0.5-0.1,1.4-0.3,1.7-0.3c0.3,0,0.6,0,0.8,0c0.2,0,0.3,0.1,0.5,0.2
					c0.1,0.1,0.2,0.2,0.3,0.4l10.1,20.5l0.1,0.3l0-0.3l1.7-22.9c0-0.2,0-0.4,0.1-0.5c0.1-0.1,0.2-0.3,0.4-0.4
					c0.2-0.1,0.4-0.2,0.7-0.3c0.3-0.1,0.7-0.2,1.3-0.3c0.5-0.1,0.9-0.2,1.2-0.2c0.3,0,0.5,0,0.7,0c0.2,0,0.3,0.1,0.4,0.2
					C113.1,184.7,113.1,184.8,113.2,185z M131.1,211.2c-1,0.2-2.7,0.5-3.6,0.5c-0.9,0-1.8,0-2.5-0.1c-0.7-0.1-1.4-0.2-2-0.4
					c-0.6-0.2-1-0.3-1.3-0.5c-0.3-0.2-0.6-0.5-0.8-0.8c-0.2-0.4-0.3-0.9-0.5-1.5c-0.1-0.4-0.1-0.7-0.1-1c0-0.3,0-0.5,0-0.7
					c0-0.2,0.1-0.4,0.3-0.6c0.1-0.1,0.3-0.2,0.5-0.3c0.3-0.1,0.7,0,1.2,0.2c0.5,0.2,1.1,0.4,1.8,0.5c0.7,0.2,1.5,0.3,2.4,0.4
					c0.9,0.1,2.7-0.1,3.8-0.4c1-0.2,2.3-0.6,3-1c0.6-0.3,1.1-0.7,1.5-1.1c0.4-0.4,0.7-0.9,0.8-1.5c0.1-0.6,0.1-1.2,0-1.9
					c-0.1-0.7-0.5-1.3-0.9-1.7c-0.5-0.4-1.1-0.8-1.8-1c-0.7-0.2-2.3-0.6-4-0.6c-1-0.1-2-0.2-2.8-0.3c-0.9-0.2-1.9-0.4-2.8-0.6
					c-0.9-0.3-1.8-0.7-2.6-1.1c-0.8-0.5-1.5-1.2-2.1-2c-0.6-0.8-1-1.8-1.3-3.1c-0.2-1.1-0.2-2.2,0-3.3c0.2-1.1,0.7-2.1,1.4-3.1
					c0.7-0.9,1.6-1.8,2.8-2.5c1.3-0.8,3-1.5,4.5-1.8c1.5-0.3,2.9-0.4,3.6-0.4c0.8,0,1.5,0,2.1,0c0.6,0.1,1.2,0.2,1.7,0.3
					c0.5,0.1,0.8,0.3,1.1,0.4c0.3,0.1,0.5,0.3,0.6,0.4c0.1,0.1,0.2,0.3,0.3,0.5c0.1,0.1,0.1,0.3,0.2,0.6c0.1,0.2,0.2,0.5,0.2,0.8
					c0.1,0.3,0.1,0.7,0.1,0.9c0,0.3,0,0.5,0,0.7c0,0.2-0.1,0.4-0.3,0.5c-0.1,0.1-0.3,0.2-0.4,0.3c-0.2,0-0.6,0-1-0.2
					c-0.4-0.1-0.9-0.3-1.4-0.4c-0.6-0.1-1.3-0.2-2-0.3c-0.8-0.1-2.2,0.1-3.4,0.3c-0.9,0.2-2.2,0.6-2.8,0.9c-0.6,0.3-1,0.7-1.3,1.1
					c-0.3,0.4-0.5,0.9-0.6,1.3c-0.1,0.5-0.1,1,0,1.5c0.2,0.7,0.5,1.3,0.9,1.7c0.5,0.4,1.1,0.8,1.8,1c0.7,0.3,1.5,0.5,2.4,0.6
					c0.9,0.1,3.1,0.4,4.4,0.5c1,0.1,2,0.2,2.9,0.5c0.9,0.3,1.8,0.6,2.6,1.1c0.8,0.5,1.5,1.1,2.1,1.9c0.6,0.8,1,1.8,1.3,3
					c0.3,1.4,0.3,2.8,0,4c-0.3,1.2-0.9,2.3-1.7,3.3c-0.8,1-1.8,1.8-3.1,2.5C134.9,210.2,132.6,210.9,131.1,211.2z"/>
				<path class="st13" d="M51.7,236.4c-0.4,0.6,21.7,15.7,52.6,9.1c23.9-5,38-20.3,36.4-21.9c-1.5-1.4-12.7,10.4-37.7,15.7
					C73.2,245.7,52.3,235.4,51.7,236.4z"/>
				<path class="st13" d="M147.7,215.4c-0.9-0.7-4.1-0.6-8.9,0.9c-5.1,1.6-8.2,4.8-7.8,5.2c0.4,0.4,3.9-1.1,7.2-1.9
					c2.8-0.6,5.5-1,6.2-0.5c0.8,0.6,1.1,2.5,1,6.2c-0.1,4.5-1.2,7.4-0.7,7.6c0.5,0.2,2.9-3.1,3.9-8.4
					C149.2,220,148.6,216,147.7,215.4z"/>
			</g>
			<g>
				<path class="st2" d="M38.9,193.4c-3-14.3,2.3-43.7,33.5-49.6c-8.4,3.1-12.9,7.4-16.3,11.4c-5.1,6.1-11.4,26.8-12.5,48.9
					c-1.6-1.5-2.5-3.4-3.4-5.7C39.7,196.7,39.3,195.1,38.9,193.4z"/>
				<path class="st2" d="M189.6,216.5c-1.2,17.8-14.4,25.8-23.1,27.6L51.2,268.4c-17.6,3.7-34.7-7.5-38.4-25.1
					c-2.4-11.5,1.6-22.9,9.6-30.3c-3.8,6.7-5.3,14.7-3.6,22.8c3.7,17.6,20.9,28.8,38.4,25.1c0,0,80.7-16.8,107.5-22.7
					C177.2,235.5,185.7,229.1,189.6,216.5z"/>
			</g>
		</g>
		<g>
			<path class="st1" d="M267,287.3c-5.8,8.1-17.3,8.3-41,1.3c-21.8-6.4-44.7-16.7-52.1-19.5c-5.2-2-13.2-3.8-24-7.6
				c-10.9-3.9-18.8-9.8-18.8-13.8c0-2.9,12.4-1.4,20.8-1.1c9.4,0.3,14.9-2,23.1-0.8c3.9,0.5,7.8,1.7,12.6,3
				c12.9,3.5,25.7,1.7,37.3,2.7c-0.4-1.6-1.6-9.7-1.8-15.6c-0.2-5.5,0.2-11.1,0.9-15.9c0.1,0,29.4-18.6,62,1.9
				c0.1,5.8-0.3,11.4-1.1,16.3C280.8,263.2,274.8,276.5,267,287.3z"/>
			<path class="st11" d="M286.8,229.1c-0.6,0-1.4-0.1-2.3-0.5c-31.2-12.8-48.7-6.2-61.2-1.9c-0.1,0.1-0.3,0.1-0.4,0.1
				c-7.3,2.2-6.5-4.8-4.6-11c-0.4-1.8-1.3-5.2-3-9.3c0.4-4.3,1.3-9.8,0.3-14l7.7-39.1c10-7.4,27.2-15.4,44.4-6.2
				c20.4,10.9,26.9,27.6,22,72.6C289.6,222.6,290.5,229,286.8,229.1z"/>
			<path d="M242,164.7c5.3,0,10.4,0.2,15.4,1c4.1,0.6,5.8,3.6,6.3,6.2c0.7,3.7-0.7,5.9-4,6.7c-0.2,0-0.4,0.1-0.7,0.1
				c4.3,2.8,5.3,7.6,8,11.9c-2.9-0.7-5.4-1.2-8.2-1.6c-1.5-2.6-3-5.3-4.5-7.9c-0.8-1.4-1.9-2.5-3.8-2.3c0.3,3,0.5,6.1,0.8,9.3
				c-2.5-0.2-4.8-0.4-7.2-0.5C243.4,180,242.7,172.5,242,164.7z M249.8,169.6c0.1,1.6,0.3,3,0.4,4.7c1.6,0,3.1,0.1,4.6,0.1
				c1.3,0,1.9-0.8,1.9-2c-0.1-1.2-0.9-2.2-2.3-2.5C252.8,169.7,251.3,169.7,249.8,169.6z M279.9,170.1c-3-1.8-6-2.6-8.9-2.3
				c-3.1,0.2-4.9,2.3-4.8,5.3c0.1,2.7,1.8,5.3,4.9,7.4c1.6,1.1,3.3,1.9,4.9,2.9c0.8,0.5,1.6,1,2.3,1.5c0.9,0.7,1.5,1.7,1.5,2.7
				c0,1.1-0.6,1.7-1.5,1.8c-2,0.2-4.3-1.5-5.3-4.1c-0.2-0.5-0.3-1-0.5-1.5c-2.2-0.4-4.3-0.8-6.4-1.1c0.4,4,2.8,7.4,6.1,9.3
				c2.6,1.4,5.1,2.3,7.5,2.7c1.5,0.2,3,0.1,4.2-0.4c3.5-1.7,3.6-8.9-1.9-13.5c-0.9-0.7-1.7-1.4-2.7-1.9c-1.6-1-3.3-1.9-5-2.8
				c-0.9-0.5-1.7-1.1-1.9-2.3c0.3-1.3,1.3-1.5,2.5-1.1c1.9,0.5,3.1,2,3.6,4.2c2.1,0.5,4.1,1,6.3,1.6
				C284.5,174.6,283,172.1,279.9,170.1z"/>
			<path class="st2" d="M286.8,229.1c-0.6,0-1.4-0.1-2.3-0.5c-4.1-1.7-8-3-11.6-4.1c1.2-5.1,2.2-10.3,3-15.6
				c2.3-16,4.9-55.8-17.7-65.2c3.2,0.6,6.4,1.8,9.7,3.5c20.4,10.9,26.9,27.6,22,72.6C289.6,222.6,290.5,229,286.8,229.1z"/>
			<path class="st10" d="M223.4,226.8c-8.3-0.8-6.9-4.8-4.9-11.2"/>
			<path class="st10" d="M215.4,206.6c1.8,4.3,2.6,7.7,3,9.5"/>
			<path class="st10" d="M215.4,206.6c0.4-4.3,1.3-9.8,0.3-14"/>
			<path class="st10" d="M223.4,153.4c10-7.4,27.2-15.4,44.4-6.2c20.4,10.9,26.9,27.6,22,72.6c-0.4,3.3,1,11.6-5.3,8.8
				c-13.3-5.8-29.9-9.8-48.1-5.8"/>
			<path class="st10" d="M219.5,216.1c13.4-7.5,34.5-11.1,51.8-3.7"/>
			<path class="st10" d="M229.5,212.7c0.2,1.9,0.6,3.4,1.2,5.3"/>
			<line class="st10" x1="240.5" y1="210.4" x2="241.3" y2="215"/>
			<line class="st10" x1="251" y1="209.4" x2="250.7" y2="214"/>
			<g>
				<line class="st3" x1="266.4" y1="249.8" x2="264.2" y2="256.3"/>
				<line class="st3" x1="258" y1="252.7" x2="255.9" y2="259.2"/>
			</g>
		</g>
		<g>
			<path class="st14" d="M40,197.5c4-18.1,14.6-34.1,11.5-37.3c-3.5-3.5-20.5,5-27.5,16.4c-3.4,5.5-2,16.3,5.5,20.5
				C33.5,199.4,37.2,198.9,40,197.5z"/>
		</g>
		<path class="st2" d="M40.3,196.3c0.8,2.7,2,5.4,3.4,7.8c-1,0.1-2,0.3-2.9,0.5c-4.4,0.9-8.4,2.7-11.9,5.1c-3.1-6-5.5-11.7-6.4-19.1
			c6,1.6,10.5-1.5,13.4-8.1c1.7-3.9,5.3-9.4,8.3-14.3c1.9-3,3.5-5.8,4.4-7.9c0.1-0.3,0.3-0.6,0.4-0.9c0.1,0,0.2,0,0.3,0
			c0.9,0,1.7,0.3,2.2,0.8c2.8,2.8-5.3,15.8-9.9,31.5C41,193.2,40.6,194.7,40.3,196.3z"/>
		<path class="st14" d="M174,269.1c-7.5-2.3-15.9-4.6-24.7-7.9c-9.9-3.7-18.2-9.5-18.2-13.4c0-2.9,12.4-1.4,20.8-1.1
			c9.4,0.4,14.9-2,23.1-0.9c0.6,0.1,1.1,0.2,1.7,0.3C178.3,254.7,177.9,263.5,174,269.1z"/>
		<path class="st10" d="M40,197.5c4-18.1,14.6-34.1,11.5-37.3c-3.5-3.5-20.5,5-27.5,16.4c-3.4,5.5-2,16.3,5.5,20.5
			C33.5,199.4,37.2,198.9,40,197.5z"/>
		<path class="st10" d="M22.2,182.6c-0.6,11,2.3,19.5,6.1,26"/>
		<path class="st10" d="M51.4,160.2c-13.1,9.5-25.7,18.4-26.3,31.9"/>
		<path class="st10" d="M176.8,246.1c1.6,8.6,1.2,17.5-2.8,23"/>
		<path class="st10" d="M286,229.6c-0.2,3-0.5,5.9-1,8.6c-4.2,25-10.3,38.3-18,49.1c-5.8,8.1-17.3,8.3-41,1.3
			c-21.8-6.4-45.2-16.8-52.5-19.7c-8-3.1-13.2-3.1-25.9-8.4c-9.8-4.1-16.5-8.9-16.5-12.8c0-2.9,12.4-1.4,20.8-1.1
			c9.4,0.3,14.9-2,23.1-0.8c3.9,0.5,7.8,1.7,12.6,3c12.9,3.5,25.7,1.7,37.3,2.7c-0.4-1.6-1.6-9.7-1.8-15.6c-0.1-2.8,0-5.7,0.1-8.4"
			/>
		<path class="st10" d="M131.1,247.7c10.6,5.9,28.9,9,46.1,11.8"/>
		<path class="st2" d="M286,229.1c-0.2,3.2-0.5,6.3-1,9.1c-4.2,25-10.3,38.3-18,49.1c-5.8,8.1-17.3,8.3-41,1.3
			c-21.8-6.4-44.7-16.7-52.1-19.5c-5.2-2-13.2-3.8-24-7.6c-10.9-3.9-18.8-9.8-18.8-13.8c0-1.3,2.3-1.7,5.6-1.7
			c2.9,4.3,9.6,9,16.9,11.4c9.1,3,20,3.2,23.5,4c3.5,0.8,19,6,33.3,10.1c14.3,4.2,35.6,11.6,45.5,8.1c10-3.4,16.8-30.1,18.9-54.5
			c3.1,1,6.4,2.1,9.8,3.5C285.1,228.9,285.6,229,286,229.1z"/>
	</g>
</g>
</svg>
