<?xml version="1.0" encoding="utf-8"?>
<!-- Generator: Adobe Illustrator 26.0.3, SVG Export Plug-In . SVG Version: 6.00 Build 0)  -->
<!DOCTYPE svg PUBLIC "-//W3C//DTD SVG 1.1//EN" "http://www.w3.org/Graphics/SVG/1.1/DTD/svg11.dtd" [
	<!ENTITY ns_extend "http://ns.adobe.com/Extensibility/1.0/">
	<!ENTITY ns_ai "http://ns.adobe.com/AdobeIllustrator/10.0/">
	<!ENTITY ns_graphs "http://ns.adobe.com/Graphs/1.0/">
	<!ENTITY ns_vars "http://ns.adobe.com/Variables/1.0/">
	<!ENTITY ns_imrep "http://ns.adobe.com/ImageReplacement/1.0/">
	<!ENTITY ns_sfw "http://ns.adobe.com/SaveForWeb/1.0/">
	<!ENTITY ns_custom "http://ns.adobe.com/GenericCustomNamespace/1.0/">
	<!ENTITY ns_adobe_xpath "http://ns.adobe.com/XPath/1.0/">
]>
<svg version="1.1" id="Слой_1" xmlns:x="&ns_extend;" xmlns:i="&ns_ai;" xmlns:graph="&ns_graphs;"
	 xmlns="http://www.w3.org/2000/svg" xmlns:xlink="http://www.w3.org/1999/xlink" x="0px" y="0px" width="534.9px" height="418.4px"
	 viewBox="0 0 534.9 418.4" style="enable-background:new 0 0 534.9 418.4;" xml:space="preserve">
<style type="text/css">
	.st0{fill:#FFFFFF;}
	.st1{fill:#CAA77A;}
	.st2{fill:#F2F2F2;}
	.st3{opacity:0;fill:#F2F2F2;}
	.st4{opacity:6.250000e-02;fill:#EBEBEB;}
	.st5{opacity:0.125;fill:#E4E4E4;}
	.st6{opacity:0.1875;fill:#DDDDDD;}
	.st7{opacity:0.25;fill:#D7D7D7;}
	.st8{opacity:0.3125;fill:#D0D0D0;}
	.st9{opacity:0.375;fill:#C9C9C9;}
	.st10{opacity:0.4375;fill:#C2C2C2;}
	.st11{opacity:0.5;fill:#BBBBBB;}
	.st12{opacity:0.5625;fill:#B4B4B4;}
	.st13{opacity:0.625;fill:#AEAEAE;}
	.st14{opacity:0.6875;fill:#A7A7A7;}
	.st15{opacity:0.75;fill:#A0A0A0;}
	.st16{opacity:0.8125;fill:#999999;}
	.st17{opacity:0.875;fill:#929292;}
	.st18{opacity:0.9375;fill:#8B8B8B;}
	.st19{fill:#858585;}
	.st20{fill:#1890FF;}
	.st21{fill:none;stroke:#2D1F04;stroke-width:2.7806;stroke-linecap:round;stroke-linejoin:round;stroke-miterlimit:10;}
	.st22{fill:#FFDB1F;}
	.st23{fill:#B6B1AE;}
	.st24{opacity:0.23;fill:#3F2719;}
	.st25{fill:#FFDBAF;}
	.st26{fill:#9D7B51;}
	.st27{fill:#D3E5EA;}
	.st28{fill:#2D1F04;}
	.st29{fill:none;stroke:#2D1F04;stroke-width:7.6;stroke-linecap:round;stroke-linejoin:round;stroke-miterlimit:10;}
	.st30{fill:none;stroke:#9D7B51;stroke-width:4.1072;stroke-linecap:round;stroke-linejoin:round;stroke-miterlimit:10;}
	.st31{fill:none;stroke:#2D1F04;stroke-width:2.62;stroke-linecap:round;stroke-linejoin:round;stroke-miterlimit:10;}
	.st32{fill:#251707;}
</style>
<metadata>
	<sfw  xmlns="&ns_sfw;">
		<slices></slices>
		<sliceSourceBounds  bottomLeftOrigin="true" height="418.4" width="534.9" x="1059.8" y="-852.4"></sliceSourceBounds>
	</sfw>
</metadata>
<path class="st0" d="M533.5,269.8c-1.5,2.9-4.1,5.1-7.2,6.2l-24,8.2c-0.7,0.2-1.4,0.4-2.1,0.5c0,0-0.1,0.1-0.1,0.1
	c-1.4,1.2-2.9,2.1-4.6,2.7c-1.4,0.5-2.8,0.7-4.3,0.7c-0.4,0-0.8,0-1.2,0c-0.8-0.1-1.5-0.2-2.2-0.4c1.1,4.3,1.6,8,1.4,10.7
	c-0.8,7.6-5.6,26.7-34.4,38.8c-7.8,3.3-16.8,5.5-26.8,6.7c-0.8,1.2-1.7,2.4-2.7,3.5c-5.2,12.1-1.8,25,2.1,37.1
	c0.1,0.4,0.5,1.3,0.9,2.2c2.4,5.8,5.9,14.4,1.9,22.2c-2.1,4.1-5.9,7-10.7,8.1c-3.9,0.9-9.7,1.3-18.9,1.3c-9.1,0-19.7-0.4-30-0.8
	l-6-0.2c-14.3-0.5-20.8-0.8-24.8-1.2c-2.6-0.3-6.2-0.6-9.3-2.6c-3.5,0.6-7.2,0.8-10.8,0.9l-0.7,0c-1.8,0.1-3.7,0.1-5.6,0.2
	c-4.3,0.2-8.6,0.3-12.5,0.4c-8.3,0.1-21.3,0.7-30.8,1.1l-0.4,0c-7.1,0.3-10.6,0.4-12,0.4c-7,0-11.6-2.7-13.6-7.9
	c-3.2-8.2,3.4-14.2,5.9-16.5c0.1-0.1,9.2-7.7,21-12.4c-2.1-5.7-3.5-11.9-3.4-17.5c-1.2-1.3-2.4-2.7-3.3-3.8
	c-2.5-1.6-4.5-3.3-6.1-5.2c-8-9.5-11.7-20.9-13.4-31c-1.1,0.1-2.1,0.1-3.2,0.1c-7.5,0-15.5-2.9-24.4-8.9c-5.9,5.1-13.5,8-21.5,8H33
	c-18.2,0-33-14.8-33-33V86c0-18.2,14.8-33,33-33h162.5c18.2,0,33,14.8,33,33v133.2c5.2-13.3,12.7-22.6,22.3-27.6
	c-0.3-2-0.1-4.3,1.1-7c-0.8-3-0.4-5.7,0-7.4c-0.2-0.5-0.3-1-0.5-1.4c-0.2-0.5-0.4-1-0.5-1.5c-5.2-16.1-7.6-30.7-7-43.4
	c0.1-1.4,0.2-3,0.4-4.5c-4.7-4.8-5.2-12.5-1.1-18c4-5.2,7.9-9.1,11.8-12c0.3-0.5,0.6-1,1-1.6c-0.2-0.3-0.4-0.6-0.6-0.9
	c-2.7-4.3-2.2-10,1.2-13.8c1-1.2,2.1-2.2,3.3-3.2c0.2-3,1.8-5.7,4-7.9c4.7-4.4,4.4-10.1-1.6-10.1c-0.2,0-0.3,0-0.5,0
	c-3.2,0-6.2-1.2-8.5-3.3c-2.4-2.3-3.9-5.4-4-8.8l-1.3-33.7c-0.1-3.4,1.1-6.6,3.3-9c2.3-2.5,5.4-3.9,8.8-4c0.2,0,0.3,0,0.5,0
	c2.7,0,5.2,0.9,7.4,2.4c2.2-1.7,4.8-2.6,7.7-2.6h0.2c3.3,0.1,6.5,1.4,8.8,3.8c0.2,0.2,0.4,0.4,0.6,0.6c0.2-0.1,0.3-0.3,0.5-0.4
	c1.3-1.2,2.8-2,4.5-2.6c1.3-0.4,2.7-0.6,4-0.6c0.3,0,0.7,0,1,0c3.3,0.2,6.4,1.8,8.6,4.2c1.3,1.5,2.4,3.2,3.1,5.2
	c0.5,1.5,0.9,3.1,1.1,4.6c0.3,0,0.7-0.1,1-0.2c0.9-0.1,1.9-0.2,2.8-0.2c1.4,0,2.7,0.1,4,0.3c6.8,1.2,12.4,5,16.2,11.1l0.1,0.2
	l0.1,0.2c1.4,2.5,1.9,5.3,1.4,8.2c-0.3,1.8,0.9,0.1,2.4-2.9c1.4-3,3.9-5.3,7.1-6.4l1.2-2.6c1.4-3,4-5.3,7.1-6.4
	c1.4-0.5,2.8-0.7,4.2-0.7c1.9,0,3.7,0.4,5.4,1.2c3,1.5,5.3,4,6.4,7.1c0.6,1.7,0.8,3.4,0.7,5.1c0.2,0,0.3-0.1,0.4-0.1
	c0.9-0.2,1.9-0.3,2.9-0.3c2.4,0,4.8,0.7,6.9,2c2.9,1.9,5,4.8,5.7,8.1c0.4,1.6,0.4,3.2,0.2,4.8c1.3,0.6,2.5,1.4,3.5,2.3
	c0.9,0.9,1.7,1.8,2.3,2.9c1.3,0.8,2.6,1.8,3.8,2.9c2.1,2,3.7,4.3,4.9,7c2.6,1,5,2.5,7.2,4.5c2.1,2,3.7,4.3,4.8,6.9
	c1.1,2.5,1.6,5.1,1.7,7.7c0,0.9,0,1.7-0.1,2.5c0.1,0,0.1,0,0.2,0c6.3,1.2,11.5,4.5,15.2,9.8c3.6,5.2,4.9,11.3,3.8,17.6
	c-0.6,3.2-1.7,6.1-3.4,8.7c-1.7,2.6-0.7,2.7,2.4,1.4c1.5-0.7,3.1-1,4.8-1c1.6,0,3.2,0.3,4.7,0.9l2.6-1.1c1.5-0.6,3.2-1,4.8-1
	c1.6,0,3.2,0.3,4.8,1c3.1,1.3,5.5,3.7,6.8,6.8c1.3,3.1,1.3,6.5,0,9.6c-1.3,3.1-3.7,5.5-6.8,6.8l-1.2,0.5c-0.2,0.8-0.4,1.6-0.7,2.4
	c-0.1,0.2-0.2,0.4-0.3,0.5c3.6,2.6,6.4,6.1,8.1,10.4c2.3,5.9,2.3,12.1-0.2,18c-1.3,3-3,5.6-5.2,7.7c-0.5,0.5-1.1,1-1.7,1.5
	c2.8-1.2,5.7-1.8,8.8-1.8c1.2,0,2.4,0.1,3.7,0.3c6.3,1,11.7,4.2,15.5,9.3c3.6,4.9,5.1,10.6,4.5,16.6c5.9,1.3,10.9,4.7,14.3,9.9
	c2.7,4,4,8.5,4,13.2c0.3,0.1,0.7,0.2,1,0.3c1.6,0.5,3.1,1.3,4.4,2.4c1.3,1.1,2.3,2.4,3.1,3.9c1.1,2.2,1.5,4.6,1.3,7
	c-0.1,1-0.3,2-0.7,3c0.6,0.2,1.2,0.4,1.8,0.6c1.8,0.8,4.3,2.4,6,5.8c0.2,0.3,0.3,0.6,0.4,1c1.2-0.3,2.3-0.5,3.5-0.5
	c1.9,0,3.7,0.4,5.4,1.2c3.1,1.4,5.4,4,6.5,7.3C535.3,263.4,535.1,266.8,533.5,269.8z"/>
<g>
	<path class="st1" d="M447.8,236.5c2.1-2-2.5-6.2-4.1-8.2c-15.6-20.7-27.2-31.1-38.8-34.6c-4.9-1.5-9.7-1.7-14.8-1
		c-2,0.3-4,0.7-6.1,1.3c-7.6,2-13.1,6.3-17,11.4c-26.2,11.5-69.6,18.6-104,8.7c0-0.2,0-0.4,0-0.6c-0.2-1.4-3.1,2.9-3.7,4.2
		c-1,2,1.2,3.9,1.1,5c-0.1,1.3-2.3,6.2-3.9,11.3c-7.5,24.2-5.9,44.1-2.5,46c0.3,6.9,0.8,14.6,1.8,22.6c2.5,19,8.1,39.6,22.3,54.7
		c0.5,0.5,0.9,1,1.4,1.4c-2,7.6,3.3,23.8,9,29.3c-13.5-0.4-29.6,12-30.7,13c-4.7,4.3-3.2,4.6,0,4.6c3.2,0,29.3-1.3,43-1.5
		c5.6-0.1,12.4-0.4,18-0.6c3.4-0.1,19.3-0.2,16.8-5.9c-2.9-6.8-6.3-16.1-6.7-21.4c8.7,0.5,17.4-0.1,25.2-1.9
		c2.3,6.6,7.2,12.2,13.7,14.5c-19,3.3-26.3,10-30.8,15.6c-0.6,1.2,14.2,1.6,30.5,2.3c18.9,0.7,41.9,1.7,49.7-0.1
		c7.8-1.8,1.2-13.3-0.3-17.9c-5-15.4-8.3-31.4-1.1-46.8c2.6-2.5,4.4-5.2,5.2-8c9.5-0.6,20.1-2.5,29.7-6.5
		c19.9-8.4,26.6-20.4,27.5-29.5C479,289.8,465.1,257.4,447.8,236.5z M423.8,307.5c0.8-3.4,1.1-7.4,0.8-10.8c2.6,1.5,4.5,2.8,4.3,3.9
		C428.7,302.3,427,304.8,423.8,307.5z"/>
	<g>
		<path class="st2" d="M217.4,169v119.9c0,11.9-9.7,21.6-21.6,21.6H33.3c-11.9,0-21.6-9.7-21.6-21.6V169H217.4z"/>
		<path d="M217.4,86.4V169H11.7V86.4c0-11.9,9.7-21.6,21.6-21.6h162.5C207.8,64.8,217.4,74.4,217.4,86.4z"/>
		<g>
			<path class="st0" d="M126.6,88.7c3.3,0.8,5.2,2.9,5.5,6.4c-2.2,0.1-4.3,0.3-6.6,0.4c-0.4-2.1-1.7-3.1-3.8-3c-0.5,0-1,0.1-1.3,0.4
				c-0.4,0.4-0.9,0.9-0.9,1.4c0,0.5,0.5,1.1,1,1.3c1,0.4,2.1,0.6,3.2,0.9c1.6,0.5,3.3,0.9,4.9,1.5c2.6,1,4.3,2.9,4.4,5.8
				c0.1,2.9-1,5.3-3.6,6.7c-1.4,0.8-3,1.2-4.6,1.4c-1.8,0.2-3.7,0.1-5.6-0.2c-4.4-0.7-6.5-3-7.1-7.6c2.2-0.2,4.4-0.3,6.6-0.5
				c0.1,0.3,0.2,0.5,0.3,0.8c0.6,2.5,3,3.8,5.4,2.9c0.9-0.4,1.7-1,1.7-2.1c0.1-1-0.5-1.8-1.5-2.1c-1.3-0.5-2.7-0.8-4-1.2
				c-1.6-0.5-3.2-1-4.6-1.8c-4.2-2.4-4.2-8.2,0.1-10.5c1.1-0.6,2.5-1.1,3.8-1.2C123.4,88.1,124.9,88.3,126.6,88.7z"/>
			<path class="st0" d="M40.5,131.6c2.2-0.1,4.4-0.2,6.8-0.3c0.1,0.3,0.1,0.6,0.2,0.9c0.7,2.4,2.9,3.6,5.3,2.8c1-0.3,1.7-0.9,1.8-2
				c0.1-1.1-0.5-1.9-1.5-2.2c-1.4-0.5-2.8-0.8-4.2-1.3c-1.6-0.6-3.3-1.1-4.7-1.9c-3.8-2.3-3.8-7.6,0-10c1.1-0.7,2.5-1.3,3.9-1.4
				c2.4-0.2,4.9-0.2,7.2,0.2c3.4,0.6,5,2.7,5.4,6.3c-2.2,0.1-4.3,0.3-6.5,0.4c-1.2-2.6-2.4-3.4-4.6-2.9c-0.9,0.2-1.5,0.7-1.6,1.6
				c-0.1,0.9,0.6,1.4,1.3,1.6c1.8,0.5,3.5,0.9,5.3,1.4c0.9,0.3,1.8,0.6,2.7,1c2.4,1,4,2.8,4.2,5.5c0.2,2.9-0.9,5.2-3.3,6.8
				c-1.9,1.3-4.1,1.7-6.4,1.7c-1.7,0-3.5-0.2-5.2-0.5c-3.3-0.7-5.1-3-5.9-6.2c-0.1-0.3-0.2-0.6-0.3-0.9
				C40.5,131.9,40.5,131.8,40.5,131.6z"/>
			<path class="st0" d="M165.5,122.1c0-1.9,0-3.8,0-5.8c2.4,0,4.7,0,7.1,0c0,5.7,0,11.4,0,17.3c3.8,0,7.5,0,11.2,0
				c0,1.9,0,3.7,0,5.6c-6,0-12.1,0-18.3,0c0-1.9,0-3.9,0-5.8c-2.2,4.5-6,6.2-10.6,6.3c-4.5,0.1-8.6-0.9-11.1-5.3
				c-2.3,3.9-5.9,5.3-10.1,5.3c-3.4,0-6.7-0.5-9.2-3.1c-4.5-4.6-4.3-14,0.5-18.1c5-4.4,14.5-4,18.9,2.5c2.6-4.1,6.6-5.3,11.2-5.1
				C159.7,116,163.3,117.7,165.5,122.1z M128.3,128c0.2,1,0.3,2.2,0.6,3.4c0.6,2,2.3,3.1,4.5,3c2.3-0.1,3.9-1.2,4.3-3.4
				c0.3-1.9,0.4-3.9,0.2-5.9c-0.3-2.5-2.2-3.9-4.6-4c-2.4,0-4.1,1.3-4.6,3.9C128.5,125.9,128.5,126.8,128.3,128z M159.2,128.3
				c-0.1-1-0.1-2-0.2-2.9c-0.3-2.4-1.9-3.9-4-4.2c-2.1-0.3-4.1,0.6-4.8,2.5c-1.1,2.7-1.1,5.5,0,8.2c0.7,1.7,2.5,2.6,4.5,2.5
				c2.1-0.1,3.5-1.1,4.1-3.1C159,130.3,159,129.3,159.2,128.3z"/>
			<path class="st0" d="M42.3,88.9c5.1,0,10.1-0.1,15.1,0.1c3.3,0.1,5.3,2.2,5.6,5c0.4,3.7-1.2,6.3-4.4,7.3
				c-0.2,0.1-0.4,0.1-0.9,0.2c3.7,1.5,4.4,5,6.1,7.9c0.4,0.7,0.8,1.5,1.2,2.4c-2.6,0-5.1,0-7.6,0c-0.3,0-0.7-0.5-0.9-0.8
				c-1.3-2.3-2.5-4.6-3.8-6.9c-0.8-1.4-1.7-1.8-3.3-1.6c0,3,0,6.1,0,9.2c-2.4,0-4.7,0-7.1,0C42.3,104.1,42.3,96.5,42.3,88.9z
				 M49.4,93.2c0,1.7,0,3.2,0,4.9c1.6-0.1,3.1-0.2,4.7-0.4c1.3-0.2,1.9-1.1,1.9-2.2c0-1.2-0.7-1.9-2-2.1
				C52.5,93.3,51,93.3,49.4,93.2z"/>
			<path class="st0" d="M109.6,130c-2.7,0-5.2,0-7.9,0c0,3.1,0,6.1,0,9.2c-2.4,0-4.7,0-7,0c0-7.6,0-15.2,0-22.9c2.3,0,4.5,0,6.9,0
				c0,2.6,0,5.2,0,7.9c2.7,0,5.2,0,7.9,0c0-2.6,0-5.2,0-7.9c2.4,0,4.7,0,7.1,0c0,7.6,0,15.3,0,23c-2.3,0-4.6,0-7,0
				C109.6,136.1,109.6,133.1,109.6,130z"/>
			<path class="st0" d="M88.8,122.9c-1.9,0.4-3.6,0.8-5.4,1.2c-0.6,0.1-0.9,0.1-1.2-0.5c-0.9-1.9-2.3-2.7-4.4-2.5
				c-1.9,0.2-3.1,1.2-3.6,3c-0.8,2.6-0.7,5.2,0.1,7.7c0.5,1.5,1.6,2.3,3.2,2.5c1.7,0.2,3.2-0.1,4.2-1.6c0.5-0.8,0.9-1.8,1.3-2.7
				c2,0.6,4,1.2,6,1.8c-0.5,4-3.5,7-7.5,7.7c-2.5,0.4-4.9,0.3-7.3-0.3c-3.8-1-6-3.7-7-7.3c-0.8-2.8-0.7-5.7,0-8.6
				c1.1-4.3,4.7-7.1,9.2-7.4c1.7-0.1,3.4,0,5.1,0.2C85.3,116.7,87.6,119.2,88.8,122.9z"/>
		</g>
		<g>
			<g>
				<path class="st3" d="M194.8,283.1H36.3c-5.1,0-9.3-4.2-9.3-9.3v-66.7c0-5.1,4.2-9.3,9.3-9.3h158.6c5.1,0,9.3,4.2,9.3,9.3v66.7
					C204.1,279,199.9,283.1,194.8,283.1z"/>
				<path class="st4" d="M194.5,282.8H36.3c-5.1,0-9.3-4.2-9.3-9.3v-66.3c0-5.1,4.2-9.3,9.3-9.3h158.2c5.1,0,9.3,4.2,9.3,9.3v66.3
					C203.7,278.6,199.6,282.8,194.5,282.8z"/>
				<path class="st5" d="M194.1,282.4H36.3c-5.1,0-9.3-4.2-9.3-9.3v-66c0-5.1,4.2-9.3,9.3-9.3h157.9c5.1,0,9.3,4.2,9.3,9.3v66
					C203.4,278.3,199.2,282.4,194.1,282.4z"/>
				<path class="st6" d="M193.8,282.1H36.3c-5.1,0-9.3-4.2-9.3-9.3v-65.6c0-5.1,4.2-9.3,9.3-9.3h157.5c5.1,0,9.3,4.2,9.3,9.3v65.6
					C203,278,198.9,282.1,193.8,282.1z"/>
				<path class="st7" d="M193.4,281.8H36.3c-5.1,0-9.3-4.2-9.3-9.3v-65.3c0-5.1,4.2-9.3,9.3-9.3h157.1c5.1,0,9.3,4.2,9.3,9.3v65.3
					C202.7,277.6,198.5,281.8,193.4,281.8z"/>
				<path class="st8" d="M193.1,281.4H36.3c-5.1,0-9.3-4.2-9.3-9.3v-65c0-5.1,4.2-9.3,9.3-9.3h156.8c5.1,0,9.3,4.2,9.3,9.3v65
					C202.3,277.3,198.2,281.4,193.1,281.4z"/>
				<path class="st9" d="M192.7,281.1H36.3c-5.1,0-9.3-4.2-9.3-9.3v-64.6c0-5.1,4.2-9.3,9.3-9.3h156.4c5.1,0,9.3,4.2,9.3,9.3v64.6
					C202,276.9,197.8,281.1,192.7,281.1z"/>
				<path class="st10" d="M192.3,280.8H36.3c-5.1,0-9.3-4.2-9.3-9.3v-64.3c0-5.1,4.2-9.3,9.3-9.3h156.1c5.1,0,9.3,4.2,9.3,9.3v64.3
					C201.6,276.6,197.5,280.8,192.3,280.8z"/>
				<path class="st11" d="M192,280.4H36.3c-5.1,0-9.3-4.2-9.3-9.3v-64c0-5.1,4.2-9.3,9.3-9.3H192c5.1,0,9.3,4.2,9.3,9.3v64
					C201.3,276.3,197.1,280.4,192,280.4z"/>
				<path class="st12" d="M191.6,280.1H36.3c-5.1,0-9.3-4.2-9.3-9.3v-63.6c0-5.1,4.2-9.3,9.3-9.3h155.4c5.1,0,9.3,4.2,9.3,9.3v63.6
					C200.9,275.9,196.8,280.1,191.6,280.1z"/>
				<path class="st13" d="M191.3,279.8h-155c-5.1,0-9.3-4.2-9.3-9.3v-63.3c0-5.1,4.2-9.3,9.3-9.3h155c5.1,0,9.3,4.2,9.3,9.3v63.3
					C200.6,275.6,196.4,279.8,191.3,279.8z"/>
				<path class="st14" d="M190.9,279.4H36.3c-5.1,0-9.3-4.2-9.3-9.3v-63c0-5.1,4.2-9.3,9.3-9.3h154.7c5.1,0,9.3,4.2,9.3,9.3v63
					C200.2,275.3,196.1,279.4,190.9,279.4z"/>
				<path class="st15" d="M190.6,279.1H36.3c-5.1,0-9.3-4.2-9.3-9.3v-62.6c0-5.1,4.2-9.3,9.3-9.3h154.3c5.1,0,9.3,4.2,9.3,9.3v62.6
					C199.9,274.9,195.7,279.1,190.6,279.1z"/>
				<path class="st16" d="M190.2,278.7h-154c-5.1,0-9.3-4.2-9.3-9.3v-62.3c0-5.1,4.2-9.3,9.3-9.3h154c5.1,0,9.3,4.2,9.3,9.3v62.3
					C199.5,274.6,195.4,278.7,190.2,278.7z"/>
				<path class="st17" d="M189.9,278.4H36.3c-5.1,0-9.3-4.2-9.3-9.3v-61.9c0-5.1,4.2-9.3,9.3-9.3h153.6c5.1,0,9.3,4.2,9.3,9.3v61.9
					C199.2,274.3,195,278.4,189.9,278.4z"/>
				<path class="st18" d="M189.5,278.1H36.3c-5.1,0-9.3-4.2-9.3-9.3v-61.6c0-5.1,4.2-9.3,9.3-9.3h153.3c5.1,0,9.3,4.2,9.3,9.3v61.6
					C198.8,273.9,194.6,278.1,189.5,278.1z"/>
				<path class="st19" d="M189.2,277.7H36.3c-5.1,0-9.3-4.2-9.3-9.3v-61.3c0-5.1,4.2-9.3,9.3-9.3h152.9c5.1,0,9.3,4.2,9.3,9.3v61.3
					C198.5,273.6,194.3,277.7,189.2,277.7z"/>
			</g>
			<path class="st20" d="M189.2,277.7H36.3c-5.1,0-9.3-4.2-9.3-9.3v-61.3c0-5.1,4.2-9.3,9.3-9.3h152.9c5.1,0,9.3,4.2,9.3,9.3v61.3
				C198.5,273.6,194.3,277.7,189.2,277.7z"/>
			<g>
				<path class="st0" d="M57,206.7c1.3-0.3,3.4-0.5,5.5-0.5c3,0,4.9,0.5,6.4,1.7c1.2,0.9,1.9,2.3,1.9,4.1c0,2.2-1.5,4.2-3.9,5.1v0.1
					c2.2,0.6,4.8,2.4,4.8,5.8c0,2-0.8,3.5-2,4.7c-1.6,1.5-4.3,2.2-8.1,2.2c-2.1,0-3.7-0.1-4.7-0.3V206.7z M60,216.3h2.7
					c3.2,0,5-1.7,5-3.9c0-2.7-2.1-3.8-5.1-3.8c-1.4,0-2.2,0.1-2.7,0.2V216.3z M60,227.4c0.6,0.1,1.5,0.1,2.5,0.1c3.1,0,6-1.1,6-4.5
					c0-3.2-2.7-4.5-6-4.5H60V227.4z"/>
				<path class="st0" d="M77.5,221.9c0.1,4.1,2.7,5.8,5.7,5.8c2.2,0,3.5-0.4,4.6-0.9l0.5,2.2c-1.1,0.5-2.9,1-5.6,1
					c-5.2,0-8.2-3.4-8.2-8.4s3-9,7.8-9c5.5,0,6.9,4.8,6.9,7.9c0,0.6-0.1,1.1-0.1,1.4H77.5z M86.4,219.7c0-1.9-0.8-4.9-4.2-4.9
					c-3.1,0-4.4,2.8-4.7,4.9H86.4z"/>
				<path class="st0" d="M105.1,229.1c-0.8,0.4-2.6,1-4.8,1c-5,0-8.3-3.4-8.3-8.5c0-5.2,3.5-8.9,9-8.9c1.8,0,3.4,0.5,4.2,0.9
					l-0.7,2.4c-0.7-0.4-1.9-0.8-3.5-0.8c-3.8,0-5.9,2.8-5.9,6.3c0,3.9,2.5,6.3,5.8,6.3c1.7,0,2.9-0.5,3.7-0.8L105.1,229.1z"/>
				<path class="st0" d="M123.6,221.2c0,6.2-4.3,8.9-8.3,8.9c-4.5,0-8-3.3-8-8.6c0-5.6,3.7-8.9,8.3-8.9
					C120.3,212.6,123.6,216.1,123.6,221.2z M110.3,221.4c0,3.7,2.1,6.4,5.1,6.4c2.9,0,5.1-2.7,5.1-6.5c0-2.8-1.4-6.4-5-6.4
					S110.3,218.2,110.3,221.4z"/>
				<path class="st0" d="M127.4,217.5c0-1.7,0-3.1-0.1-4.5h2.7l0.1,2.7h0.1c0.9-1.6,2.5-3.1,5.3-3.1c2.3,0,4,1.4,4.7,3.4h0.1
					c0.5-0.9,1.2-1.7,1.9-2.2c1-0.8,2.1-1.2,3.7-1.2c2.2,0,5.5,1.5,5.5,7.3v9.9h-3v-9.5c0-3.2-1.2-5.2-3.6-5.2
					c-1.7,0-3.1,1.3-3.6,2.8c-0.1,0.4-0.2,1-0.2,1.5v10.3h-3v-10c0-2.7-1.2-4.6-3.5-4.6c-1.9,0-3.3,1.5-3.8,3
					c-0.2,0.4-0.2,1-0.2,1.5v10.1h-3V217.5z"/>
				<path class="st0" d="M157.9,221.9c0.1,4.1,2.7,5.8,5.7,5.8c2.2,0,3.5-0.4,4.6-0.9l0.5,2.2c-1.1,0.5-2.9,1-5.6,1
					c-5.2,0-8.2-3.4-8.2-8.4s3-9,7.8-9c5.5,0,6.9,4.8,6.9,7.9c0,0.6-0.1,1.1-0.1,1.4H157.9z M166.8,219.7c0-1.9-0.8-4.9-4.2-4.9
					c-3.1,0-4.4,2.8-4.7,4.9H166.8z"/>
				<path class="st0" d="M59.2,263.8l-0.2-2.1h-0.1c-0.9,1.3-2.7,2.5-5.1,2.5c-3.4,0-5.1-2.4-5.1-4.8c0-4,3.6-6.3,10.1-6.2v-0.3
					c0-1.4-0.4-3.9-3.8-3.9c-1.6,0-3.2,0.5-4.4,1.2l-0.7-2c1.4-0.9,3.4-1.5,5.5-1.5c5.1,0,6.4,3.5,6.4,6.8v6.3c0,1.5,0.1,2.9,0.3,4
					H59.2z M58.7,255.2c-3.3-0.1-7.1,0.5-7.1,3.8c0,2,1.3,2.9,2.9,2.9c2.2,0,3.6-1.4,4-2.8c0.1-0.3,0.2-0.7,0.2-1V255.2z"/>
				<path class="st0" d="M73.9,251.6c0-1.7,0-3.1-0.1-4.5h2.7l0.1,2.7h0.1c0.9-1.6,2.5-3.1,5.3-3.1c2.3,0,4,1.4,4.7,3.4h0.1
					c0.5-0.9,1.2-1.7,1.9-2.2c1-0.8,2.1-1.2,3.7-1.2c2.2,0,5.5,1.5,5.5,7.3v9.9h-3v-9.5c0-3.2-1.2-5.2-3.6-5.2
					c-1.7,0-3.1,1.3-3.6,2.8c-0.1,0.4-0.2,1-0.2,1.5v10.3h-3v-10c0-2.7-1.2-4.6-3.5-4.6c-1.9,0-3.3,1.5-3.8,3
					c-0.2,0.4-0.2,1-0.2,1.5v10.1h-3V251.6z"/>
				<path class="st0" d="M104.4,255.9c0.1,4.1,2.7,5.8,5.7,5.8c2.2,0,3.5-0.4,4.6-0.9l0.5,2.2c-1.1,0.5-2.9,1-5.6,1
					c-5.2,0-8.2-3.4-8.2-8.4s3-9,7.8-9c5.5,0,6.9,4.8,6.9,7.9c0,0.6-0.1,1.1-0.1,1.4H104.4z M113.3,253.8c0-1.9-0.8-4.9-4.2-4.9
					c-3.1,0-4.4,2.8-4.7,4.9H113.3z"/>
				<path class="st0" d="M120,251.6c0-1.7,0-3.1-0.1-4.5h2.7l0.2,2.8h0.1c0.8-1.6,2.8-3.1,5.5-3.1c2.3,0,5.9,1.4,5.9,7.1v10h-3v-9.6
					c0-2.7-1-4.9-3.9-4.9c-2,0-3.6,1.4-4.1,3.1c-0.1,0.4-0.2,0.9-0.2,1.4v10.1h-3V251.6z"/>
				<path class="st0" d="M142.7,242.2v4.8h4.4v2.3h-4.4v9c0,2.1,0.6,3.2,2.3,3.2c0.8,0,1.4-0.1,1.8-0.2l0.1,2.3
					c-0.6,0.2-1.5,0.4-2.7,0.4c-1.4,0-2.6-0.4-3.3-1.3c-0.9-0.9-1.2-2.4-1.2-4.4v-9.1h-2.6V247h2.6v-4L142.7,242.2z"/>
				<path class="st0" d="M165.5,255.3c0,6.2-4.3,8.9-8.3,8.9c-4.5,0-8-3.3-8-8.6c0-5.6,3.7-8.9,8.3-8.9
					C162.2,246.6,165.5,250.1,165.5,255.3z M152.2,255.4c0,3.7,2.1,6.4,5.1,6.4c2.9,0,5.1-2.7,5.1-6.5c0-2.8-1.4-6.4-5-6.4
					S152.2,252.2,152.2,255.4z"/>
				<path class="st0" d="M169.3,252.2c0-2,0-3.7-0.1-5.2h2.7l0.1,3.3h0.1c0.8-2.2,2.6-3.7,4.6-3.7c0.3,0,0.6,0,0.9,0.1v2.9
					c-0.3-0.1-0.6-0.1-1-0.1c-2.1,0-3.7,1.6-4.1,3.9c-0.1,0.4-0.1,0.9-0.1,1.4v8.9h-3V252.2z"/>
			</g>
		</g>
		<path class="st21" d="M217.4,86.4v202.5c0,12-9.7,21.6-21.6,21.6H33.3c-11.9,0-21.6-9.7-21.6-21.6V86.4c0-11.9,9.7-21.6,21.6-21.6
			h162.5C207.8,64.8,217.4,74.4,217.4,86.4z"/>
	</g>
	<g>
		<path class="st1" d="M290,272.6c-17.8,18.3-31.1,39-48.3,38.8c-18.7-0.2-47.5-32.3-64.2-54.2c-2-2.6-4.2-4.8-6.2-7
			c-3.5-4-3.8-8.6-6.6-15.6c-1.5-3.7-10.4-17.6-11.2-20.5c-2.5-8.9,8.5-5.3,14.8-0.3c11.9,9.3,14.3,19.6,18,23.4
			c5.4,5.5,17.7,13,28.2,17.4c10.2,4.3,13.4,6.7,17.1,9.2c0-5.7,1.9-12.4,5.9-22.7c4.8-15.8,14-35.4,25.1-41.2L290,272.6z"/>
		<path class="st22" d="M262.7,199.8c-8.4,1.6-19,9.4-25.4,30.5c-0.2,0.6-0.9-0.2-1.9,0.9c-0.8,0.9-2.1,6-1.3,7.8
			c2.9,6.4,18,11.4,34.4,14C276.5,241.1,275.2,213,262.7,199.8z"/>
		<path class="st23" d="M171.3,250.3c-3.4-3.9-4.2-9-6.4-15.4c-2.5-7.3-10.5-18-11.3-20.9c-2.5-8.9,8.6-5.4,14.8-0.3
			c9.4,7.6,15.9,20.3,18,23.4C187.1,242.6,178.8,251,171.3,250.3z"/>
		<path class="st21" d="M186.4,237.1c0.7,5.5-7.7,13.5-15.2,12.8"/>
		<path class="st21" d="M154.6,210.3c15.1,9.4,21.7,19.4,28.9,33.9"/>
		<path class="st21" d="M237.2,230.3c3.6,3.6,7.8,6.4,12.2,8.7"/>
		<path class="st21" d="M240.6,233.3c-1.3,1.3-1.9,2.8-2,3.8"/>
		<path class="st21" d="M245.4,236.7c-0.5,0.5-1,1.8-1.1,2.5"/>
		<path class="st21" d="M252.6,308.7c-3.9,1.9-6.8,2.7-10.9,2.7c-18.7,0-45.7-31.2-64.2-54.2c-2-2.5-4.2-4.7-6.2-7
			c-3.5-4-4.1-9.6-6.5-15.7c-3.2-7.9-10.1-16.8-10.9-19.7c-2.4-9,9.5-5.1,14.5-1.2c9.4,7.4,16,21.1,18,23.4
			c5.2,5.8,17.7,12.5,28.2,17.4c15.3,7.1,17.5,9.1,21.2,13.1"/>
		<path class="st21" d="M231.7,262.2c0-3.7,0.7-9.8,5.5-19.6"/>
		<path class="st21" d="M262.7,199.8c-9.3,2.2-19.2,9.5-25.5,30.5c-0.2,0.5-1,0-1.9,0.9c-0.6,0.7-2.2,5.9-1.3,7.8
			c1.6,3.3,7.1,6.4,13.5,9"/>
		<path class="st24" d="M290,272.6c-17.8,18.3-31.1,39-48.3,38.8c-18.7-0.2-47.5-32.3-64.2-54.2c-2-2.6-4.2-4.8-6.2-7
			c-3.5-4-4.6-9.2-6.6-15.6c-1.9-6.3-10.4-17.6-11.2-20.5c-2-7.2,4.8-6.5,9.3-3.8c-11.6,1.7,2.2,9.6,6,20c3.4,9.4,6.1,16.3,7.9,18.9
			c4.8,6.9,12.1,15.8,26,29.2c13.2,12.6,26.5,17.5,33.1,18.6c6.6,1.1,12.2-2.9,10.7-12.9c-1.4-10-1.7-30.3,7-41.9l18.9-16.2
			L290,272.6z"/>
	</g>
	<g>
		<path class="st1" d="M265.4,88.2c6.7-2,9.9-2.1,16.6-1.8c-17,7.7-25.8,32.9-26.4,45.3c-0.6,13.2,2.4,27,6.5,39.4
			c0.7,2.1,1.8,4.6,1.7,6.9c0,1.1-0.9,2.9-0.6,4c0.1,0.5,1.4-0.9,1.3-0.4c0,2.1-0.7,4.4-1.2,6.4c-0.2,0.7-1.4,2.7-0.8,2.2
			c0.2-0.1,1-1.8,1.7-1.4c0.4,0.2-1,20.7-1.2,25.3c30.3,8.1,75.1,10.1,116.3-4.5c8.2-14.1,18.7-16.2,25.7-16.8
			c2.3-39-6-81.5-56.4-113.7c-6.7-4.3-14.5-8.8-20.8-10.7c1.3,2,1.7,4.3,1.7,4.3c-10-1.9-21-8.3-24.5-12.8
			c-3.2,2.9-2.9,7.6-0.5,10.6c-4.5-2.7-17.1-4.5-24.5-1.3c5.2,0.3,8.3,1.4,9.9,3.6c-7.4-0.4-12.2,0.5-18.5,5.7
			c4.3-0.1,8.6,1,11.3,2.6C275,81.6,270.1,83.1,265.4,88.2z"/>
		<g>
			<path class="st25" d="M259,123.9c1.8-8.6,5.9-18.2,11.6-19.5c3.5-0.8,6.7,0.9,9.8,2.7c2.8,1.6,5.2,0.9,5.8-1.1
				c0.5-1.8-0.5-3-2.4-4.2c3.6,0.9,4.7,2.4,7.6,3.7c4.8,2.1,7.5,2.5,8.8,2.3c3.7-0.8,7.4-4.3,10.7-5.6c14.7-5.6,25.9-3.2,33.2,16.2
				c1.6,4.4,4,14.3,1.9,25.3c-3.1,16-8.5,24.6-17.6,34.4c-14.2,15.2-46.9,20.2-61.9-7.2C259.4,158,255.7,140,259,123.9z"/>
			<path class="st26" d="M276.9,132.6c-4.8,0.5-10.2,8.1-6.1,19.8c2.9,8.5,7.7,13.4,12.7,17c8.3,5.8,16.9,4.6,22.2-2.9
				c5.7-8,5.4-17.5,2.4-24.6c-3.2-7.6-12.8-12-19.9-10.7L276.9,132.6z"/>
			<path class="st26" d="M259,124c-0.8,4.6-2,11-0.9,18.8c28.4-1.1,23.9-33.4,22.3-35.7c-3.9-2.2-6.5-3.6-10.2-2.5
				C267.6,105.3,261.6,109.3,259,124z"/>
			<path class="st26" d="M300.3,107.8c1.6,33,25.8,39,45.4,36.8c2.1-9.7,0.8-19.1-1.5-25.5c-2.3-6.2-7-16.8-16.6-19
				c-5.2-1.2-11.6-0.1-16.8,2.1C306.8,103.9,303.8,106.4,300.3,107.8z"/>
		</g>
		<path class="st21" d="M405.1,192.7c2.5-48.8-12.4-85.7-56.4-113.8c-6.7-4.3-14.5-8.8-20.8-10.7c1.3,2,1.7,4.3,1.7,4.3
			c-10-1.9-20.9-8.3-24.5-12.8c-3.2,2.9-2.9,7.6-0.5,10.6c-4.5-2.7-17.1-4.5-24.5-1.3c5.2,0.3,8.3,1.4,9.9,3.6
			c-7.4-0.4-12.2,0.5-18.5,5.7c4.3-0.1,8.6,1,11.3,2.5c-7.9,0.8-12.8,2.2-17.5,7.4c6.7-2,9.9-2.1,16.6-1.8
			c-17,7.7-25.8,32.9-26.4,45.3c-0.6,13.2,2.4,27,6.5,39.4c0.7,2.1,1.8,4.6,1.7,6.9c0,1.1-0.9,2.9-0.6,4c0.1,0.5,1.4-0.9,1.3-0.4
			c0,2.1-0.7,4.4-1.2,6.4c-0.2,0.8-1.4,2.7-0.8,2.2c0.2-0.1,1-1.8,1.7-1.4c0.4,0.2-0.2,12.7-1.1,25.3"/>
		<path class="st21" d="M279.6,136.4c0.6,7.3,2.5,13.6,6.2,18.8c5.1,2.4,10.9,1.1,13-6.4"/>
		<g>
			<g>
				<path class="st0" d="M308.9,126.1c1.1,4.3,7,3.7,12.7,3.7c7.3,0,14.4-0.7,13.5-8.1c-0.6-5.2-6.8-6.8-15.7-6.2
					C310.5,116.2,307.5,120.4,308.9,126.1z"/>
				<path class="st27" d="M308.6,124.1c2.8-4.3,8.2-5.3,15.1-4.8c5.9,0.4,9.6,1.9,11.5,4c0-0.5,0-1-0.1-1.5
					c-0.6-5.3-6.8-6.8-15.7-6.2C311.5,116.2,308.3,119.4,308.6,124.1z"/>
				<path class="st21" d="M308.9,126.1c1.1,4.3,7,3.7,12.7,3.7c7.3,0,14.4-0.7,13.5-8.1c-0.6-5.2-6.8-6.8-15.7-6.2
					C310.5,116.2,307.5,120.4,308.9,126.1z"/>
			</g>
			<path class="st28" d="M321.9,123.3c-0.3-3-3.1-5.2-6.1-4.8c-3,0.3-5.2,3.1-4.8,6.1c0.3,3,3.1,5.2,6.1,4.8
				C320.1,129,322.2,126.3,321.9,123.3z"/>
			<circle class="st0" cx="320.2" cy="121.1" r="2.4"/>
			<circle class="st0" cx="319.8" cy="125.3" r="0.9"/>
		</g>
		<path class="st29" d="M300.3,107.8c17.4-10.8,32.9-10.7,52.2,9.4"/>
		<path class="st24" d="M405.1,192.7c-2,0.3-4,0.7-6.1,1.3c-10.8,2.9-17.3,10.3-21.2,18.2c4.2-21.5,5.7-43.3,0.6-64.9
			c-5.4-23-23.2-46.3-46.4-55.1c-1.4-0.5-5.1-4.4-9.9-6c1.9,1.9,1.4,3.4-0.7,3.1c-3.1-0.5-7.6-6.5-16.5-7.4c4.4,3.5,3.3,6.4,1.4,6.5
			c-1.7,0.1-7.6-4.3-14-4.4c4.3,1.2,6,5.2,4.5,5.5c-2.2,0.4-3.3-2.5-7.5-2.9c0.5,3.5-1.3,7.2-5.3,8.9c-2.7,1.1-6.9,0.2-8.2-1
			c-3.4,3.5-6.9,6.1-11.1,9.2c4.3-7.3,10-13.8,17.3-17.1c-6.7-0.3-9.9-0.3-16.6,1.8c4.7-5.2,9.6-6.6,17.5-7.4
			c-2.7-1.6-7-2.6-11.3-2.5c6.3-5.2,11.1-6.2,18.5-5.7c-1.6-2.2-4.7-3.3-9.9-3.6c7.4-3.2,20-1.3,24.5,1.3c-2.4-2.9-2.7-7.7,0.5-10.6
			c3.5,4.5,14.5,10.9,24.5,12.8c0,0-0.4-2.3-1.7-4.3c6.3,2,14.1,6.5,20.8,10.7C392.7,107,407.6,144,405.1,192.7z"/>
		<g>
			<line class="st30" x1="340.7" y1="192.3" x2="340.7" y2="198.5"/>
			<line class="st30" x1="346.2" y1="196.6" x2="346.2" y2="202.9"/>
		</g>
		<path class="st23" d="M388.7,407.2c-2.7-0.1-5.5-0.2-8.3-0.3c-1.3,0-2.6-0.1-3.9-0.1c-3-0.1-6-0.2-8.9-0.3c-0.4,0-0.9,0-1.3-0.1
			c-0.3,0-0.6,0-0.9,0c-1.6-0.1-3.1-0.1-4.6-0.2c-0.3,0-0.7,0-1,0c-2.7-0.1-5.4-0.2-7.8-0.3c-0.4,0-0.7,0-1.1,0
			c-0.4,0-0.8,0-1.2-0.1c-0.5,0-1-0.1-1.4-0.1c-0.5,0-0.9-0.1-1.4-0.1c-0.5,0-1-0.1-1.5-0.1c-0.5,0-1-0.1-1.5-0.1
			c-0.9-0.1-1.8-0.1-2.6-0.2c-0.4,0-0.7-0.1-1.1-0.1c0,0-0.1,0-0.1,0c-0.3,0-0.6-0.1-0.8-0.1c-0.2,0-0.4-0.1-0.5-0.1
			c-0.1,0-0.2,0-0.2,0c-0.4-0.1-0.7-0.1-0.9-0.2c-0.1,0-0.1-0.1-0.2-0.1c-0.1,0-0.1-0.1-0.2-0.1c0,0-0.1-0.1-0.1-0.1
			c0-0.1,0-0.1,0-0.2c0.6-0.8,1.3-1.6,2.1-2.4c0.3-0.3,0.5-0.6,0.8-0.8c0.3-0.3,0.6-0.6,0.9-0.8c0.3-0.3,0.6-0.5,0.9-0.8
			c2.1-1.8,4.8-3.7,8.2-5.3c0.6-0.3,1.2-0.6,1.9-0.9c0.1,0,0.1-0.1,0.2-0.1c0.3-0.1,0.6-0.3,1-0.4c0.4-0.2,0.9-0.4,1.4-0.5
			c0.4-0.2,0.8-0.3,1.3-0.4c0.3-0.1,0.6-0.2,1-0.3c0.4-0.1,0.7-0.2,1.1-0.3c0.2-0.1,0.5-0.1,0.7-0.2c0.3-0.1,0.6-0.2,0.9-0.3
			c0.3-0.1,0.6-0.2,0.9-0.2c1-0.3,2.1-0.5,3.2-0.8c0.6-0.1,1.1-0.2,1.7-0.4c0.9-0.2,1.7-0.3,2.7-0.5
			C376.2,391.9,384.7,397.9,388.7,407.2z"/>
		<path class="st23" d="M303.2,404c-0.7,0-1.5,0-2.2,0.1c-13.7,0.2-39.8,1.6-43,1.6c-1.3,0-2.4-0.1-2.8-0.4
			c-0.5-0.4-0.2-1.2,1.4-2.9c0.1-0.1,0.2-0.2,0.3-0.3c0.1-0.1,0.2-0.2,0.3-0.3c0.2-0.2,0.5-0.5,0.7-0.7c1.1-1,17.3-13.5,30.7-13h0
			C294.3,391.7,300.1,397.2,303.2,404z"/>
		<path class="st22" d="M445.7,237.4c-12,1.2-36.1,19-41.6,36.8c0,0.1-0.2,0.1-0.2,0.2c1.5,5.8,3.9,11,9,15.3c3.2,2.7,8.2,5,11.8,7
			c0.1,3.2-0.2,7.5-0.8,10.7c-3.4,2.8-8.4,5.8-15.2,8.4c-1.5,0.5-3,0.7-4.6,0.5c-0.1,0-0.2,0-0.4,0c-0.1,0-0.3,0-0.4,0
			c-2.7-0.3-5.5-1.2-8.5-1.9c-0.6-0.1-1.2-0.3-1.9-0.4c-0.3,0-0.5-0.1-0.8-0.1c-0.3-0.1-0.7-0.1-1-0.1c0,0-0.1,0-0.1,0
			c-0.2,0-0.4,0-0.6,0c-0.2,0-0.4,0-0.6,0c-3.4-0.2-7,0.4-11,2.7c-6.6,3.8-9.3,11.8-9.6,14.4c-0.2,2.2,5.3-3.2,17.1,0
			c0.7,0.2,1.4,0.4,2.2,0.7c1.5,0.5,3.1,1.1,4.8,1.9c0.4,0.2,0.8,0.4,1.3,0.6c0.4,0.2,0.9,0.5,1.3,0.7c0.3,0.2,0.6,0.3,0.9,0.5
			c0,0,0,0,0,0c0.3,0.1,0.6,0.3,0.9,0.4c0.1,0.1,0.3,0.1,0.4,0.2c0.6,0.2,1.1,0.4,1.7,0.5c0.2,0.1,0.5,0.1,0.7,0.1
			c0.8,0.1,1.5,0.2,2.3,0.2c0,0,0,0,0,0c4.6-0.1,9.6-2.2,18.1-2.8c0,0,0.1,0,0.1,0c-3.9,14.2-33.5,24.3-52.4,27.5
			c-16.8,2.8-43.6,3.7-64.2,0c-21-3.8-32.8-10-37.2-14.8c-14.6-15.6-12.2-47.9-13-66.3c-3.3-2-4.7-21.9,2.5-46
			c1.5-5.1,3.7-10.1,3.9-11.3c0.1-1.1-2-2.9-1.1-5c0.7-1.5,4.1-6.5,3.6-3.6c34.9,10,77.6,2.3,104-8.7c3.9-5.1,9.4-9.4,17-11.4
			c2.1-0.6,4.1-1,6.1-1.3c17.3-2.5,31.4,6.1,53.6,35.5C445.6,230.6,451.9,236.2,445.7,237.4z"/>
		<path class="st28" d="M274.6,248.7c5.6,0.5,10.6,0.7,15.5,1.2c4,0.4,5,3.3,4.7,6c-0.4,3.7-2.6,6.1-6.3,7.3
			c-0.2,0.1-0.4,0.1-0.8,0.2c3.7,2.5,3.6,7.3,5.9,11.7c-3-0.2-5.6-0.4-8.4-0.5c-1.3-2.8-2.4-5.6-3.3-8.3c-0.5-1.5-1.2-2.6-3.4-2.3
			c-0.7,3.2-1.2,6.5-1.1,10.1c-2.6-0.2-5-0.3-7.5-0.4C269.5,265.2,272.9,256.9,274.6,248.7z M281.1,254.4c-0.4,1.6-0.8,3.2-1.3,5
			c1.7,0,3.2,0.1,4.8,0c1.4-0.1,2.3-1,2.6-2.2c0.3-1.3-0.2-2.3-1.6-2.5C284.2,254.4,282.7,254.4,281.1,254.4z M312.9,251.1
			c-3-1.2-6.1-1.3-9.3-0.5c-3.4,0.8-5.7,3.3-6.5,6.3c-0.7,2.8,0.3,5.2,3.2,6.7c1.5,0.8,3.2,1.3,4.8,1.9c0.8,0.3,1.6,0.6,2.4,1
			c0.9,0.5,1.4,1.3,1.2,2.4c-0.2,1.2-1,1.9-2.1,2.3c-2.4,0.8-4.7-0.5-5.2-3c-0.1-0.5-0.1-0.9-0.2-1.4c-2.4,0-4.6,0-6.8,0
			c-0.6,4.1,1.5,7.5,4.9,8.8c2.6,1,5.3,1.3,8.1,0.9c1.7-0.2,3.6-0.9,5.1-1.9c4.7-3.1,6.2-10.2,0.7-13.2c-0.9-0.5-1.8-0.9-2.7-1.2
			c-1.7-0.6-3.3-1.1-5-1.7c-0.9-0.3-1.6-0.7-1.5-2c0.7-1.4,1.8-1.8,3.1-1.7c2,0.2,3,1.3,3,3.4c2.3,0,4.6,0,7.1-0.1
			C317.3,254.5,316,252.3,312.9,251.1z"/>
		<path class="st24" d="M335.9,399.5c-0.1,0.1-0.1,0.2-0.2,0.4c-0.1,0.2-0.3,0.5-0.6,0.7c-0.2,0.2-0.5,0.4-0.8,0.6
			c-0.2,0.1-0.3,0.2-0.5,0.3c-0.5,0.2-1,0.4-1.6,0.6c-1.3,0.4-2.7,0.7-4.2,0.9c-0.2,0-0.5,0.1-0.7,0.1c-0.2,0-0.5,0.1-0.7,0.1
			c-0.2,0-0.5,0.1-0.7,0.1c-1.7,0.2-3.3,0.2-4.6,0.3c-0.2,0-0.3,0-0.5,0c-0.1,0-0.2,0-0.3,0c-0.1,0-0.3,0-0.4,0c-0.4,0-0.7,0-0.9,0
			c-0.3,0-0.6,0-0.9,0c-0.3,0-0.6,0-0.9,0c-0.8,0-1.7,0.1-2.5,0.1c-0.7,0-1.3,0.1-2,0.1c-0.5,0-1,0-1.4,0.1c-1.1,0-2.2,0.1-3.3,0.1
			c-1.6,0.1-3.2,0.1-4.7,0.1c-0.7,0-1.5,0-2.2,0.1c-13.7,0.2-39.8,1.6-43,1.6c-0.2,0-0.4,0-0.6,0c-0.1,0-0.3,0-0.4,0
			c-0.1,0-0.1,0-0.2,0c-0.1,0-0.1,0-0.2,0c-0.2,0-0.4,0-0.5-0.1c-0.1,0-0.1,0-0.2,0c-0.1,0-0.2,0-0.2-0.1c0,0,0,0-0.1,0
			c0,0-0.1,0-0.1,0c-0.1,0-0.1,0-0.1-0.1c-0.1,0-0.1-0.1-0.1-0.1c0,0-0.1-0.1-0.1-0.1c-0.1-0.1-0.1-0.3-0.1-0.5c0,0,0-0.1,0-0.1
			c0-0.1,0.1-0.2,0.1-0.3c0,0,0,0,0-0.1c0,0,0-0.1,0.1-0.1c0-0.1,0.1-0.1,0.1-0.2c0.1-0.1,0.1-0.2,0.2-0.3c0,0,0.1-0.1,0.1-0.1
			c0.1-0.1,0.3-0.3,0.4-0.5c0.1-0.1,0.2-0.2,0.2-0.3c0.1-0.1,0.2-0.2,0.3-0.3c0.1-0.1,0.2-0.2,0.3-0.3c0.1-0.1,0.2-0.2,0.3-0.3
			c0.2-0.2,0.5-0.5,0.7-0.7h0c0,0,0,0,0.1-0.1c0,0,0,0,0,0c0,0,0,0,0.1-0.1c0,0,0.1-0.1,0.1-0.1c0,0,0,0,0,0c0,0,0.1-0.1,0.1-0.1
			c0.2-0.2,0.5-0.4,0.9-0.7c0,0,0,0,0,0c0,0,0.1-0.1,0.1-0.1c0,0,0.1-0.1,0.1-0.1c2.2-1.6,6.5-4.6,11.7-7.2c0.1-0.1,0.3-0.1,0.4-0.2
			c1-0.5,2.1-1,3.1-1.4c0.2-0.1,0.3-0.1,0.5-0.2c0.1,0,0.1,0,0.1-0.1c0,0,0,0,0,0c0.6-0.2,1.2-0.5,1.9-0.7c0,0,0,0,0,0
			c0.9-0.3,1.8-0.6,2.7-0.9c0.3-0.1,0.6-0.2,0.8-0.2c0.8-0.2,1.6-0.4,2.5-0.6c0.1,0,0.1,0,0.2,0c0,0,0,0,0,0c0,0,0,0,0.1,0
			c0.2,0,0.4-0.1,0.7-0.1c0.1,0,0.2,0,0.3,0c0.1,0,0.1,0,0.2,0c0.1,0,0.1,0,0.2,0c0.2,0,0.4-0.1,0.6-0.1c0.1,0,0.2,0,0.3,0
			c0.3,0,0.7-0.1,1-0.1c0.4,0,0.8,0,1.1,0c0.2,0,0.5,0,0.7,0h0c-0.1-0.1-0.3-0.3-0.5-0.5c-0.6-0.6-1.2-1.4-1.8-2.2
			c-4.8-7-8.7-20.1-6.7-26.7c11,9.8,30.2,16.1,49.3,17.2c0,0,0,0.1,0,0.1h0c0.3,4.2,2.5,10.9,4.9,16.9c0.4,1.2,0.9,2.3,1.3,3.3
			c0,0,0,0,0,0c0.2,0.4,0.4,0.9,0.5,1.3C336.1,398.3,336.1,399,335.9,399.5z"/>
		<path class="st24" d="M420.3,404.4c-0.2,0.3-0.4,0.5-0.6,0.7c-0.6,0.6-1.4,1-2.4,1.2c-5,1.2-16.2,1.2-28.6,0.8c-0.2,0-0.3,0-0.5,0
			c-1.1,0-2.3-0.1-3.5-0.1c-2.3-0.1-4.6-0.2-6.9-0.2c-0.6,0-1.1,0-1.7-0.1c-0.6,0-1.2,0-1.9-0.1c-0.8,0-1.6-0.1-2.4-0.1
			c-1.4-0.1-2.8-0.1-4.2-0.2h0c-1.1,0-2.1-0.1-3.1-0.1c-0.4,0-0.9,0-1.3-0.1c0,0,0,0,0,0c0,0-0.1,0-0.1,0c-0.2,0-0.4,0-0.6,0
			c0,0,0,0,0,0c-0.5,0-1,0-1.4-0.1c-1.5-0.1-2.9-0.1-4.3-0.2c-0.3,0-0.6,0-0.9,0c-0.1,0-0.2,0-0.3,0c-0.2,0-0.4,0-0.7,0
			c-0.7,0-1.3-0.1-1.9-0.1c-0.3,0-0.6,0-0.8,0c-0.3,0-0.7,0-1,0c-1.1,0-2.1-0.1-3-0.1c-0.2,0-0.4,0-0.6,0c-0.2,0-0.3,0-0.5,0
			c-0.1,0-8.3-0.8-8.4-0.8c12.6-5,34.5-6.4,44.9-5.8h0.1c4.6,0.3,8.3,0.7,10.3,0.8c7,0.3,9.6-1.3,6.6-11.3
			c-2.8-9.4-8.1-22.6-7.9-33.8c7.3-2.6,16.2-5.9,23.6-13.3c-8,15.3-3.7,32.7,0.9,46.9C418.2,392.2,422.7,400.4,420.3,404.4z"/>
		<path class="st24" d="M367.1,369.7c3.1-2,9.3-5.9,11.2-8.5c-37,16.4-72,8.9-92.5,1.8c18.9,10.6,34.4,13.2,49,13.2
			C349.4,376.1,358.9,373,367.1,369.7z"/>
		<g>
			<path class="st24" d="M254.9,287.1c12.4-0.9,35.3-3.7,35.8-3.6c0.5,0.1,6.9,1.6,20.4,3.6c20.7,3.1,27.2,3.5,33.2,0.6
				c4.3-2,10.4-11.2,16.4-26c-8.5,12.8-16,20.5-20.6,20.7c-17,0.7-46.2-2.2-49.5-2.7c-2.4-0.3-27.6,1.7-36.2-1.3"/>
			<path class="st24" d="M421,333.6c-0.5,1.1-1.1,2.5-1.5,3.6c-3.4,8.8-27,20.8-62.2,25.5c-23.7,3.2-42.6,1.9-61.2-3.9
				c49.8,8.5,89.1-6.4,92.7-10c1.9-1.9,2.9-8.5,3.6-16c1.8,0.9,3.7,1.8,5.2,2.6C403.5,338.5,412.2,333.6,421,333.6z"/>
			<path class="st24" d="M423.7,307.5c-5.9,4.8-13.4,7.6-15.2,8.3c-4.5,1.7-9.5-0.7-15.3-1.7c0.5-4.3,0.6-8.9,0.3-13
				c-0.6-7.6-2-19.1-6.4-23.9c-4.4-4.8-10.2-11.6-13.5-15.9c11.4,2.7,15.8,6,20.3,8.9c1.4,3.6,4,9.2,9.9,4.3
				c1.5,5.8,3.9,10.9,9,15.2c0.6,0.5,11.1,6.5,11.8,7C424.7,301.7,424.2,304,423.7,307.5z"/>
			<path class="st24" d="M445.9,237.4c-2.9,1.4-6.9,1.9-9.4,3.4c0,0,0,0,0,0c-4.3,2.3-5.5-9-18.7-24.3
				c-12.8-14.7-32.8-24.1-44.3-17.2c3-2.3,6.6-4.1,10.8-5.2c6.8-1.8,13-2.3,19.1-0.8c12.1,2.9,24.2,13.3,40.6,35.1
				C445.7,230.6,451.6,234.7,445.9,237.4z"/>
		</g>
		<g>
			<path class="st24" d="M478.2,297.8c-0.8,7.8-5.9,17.9-20.2,25.9c-0.1,0.1-0.1,0.1-0.2,0.1c-0.5,0.3-1.1,0.6-1.6,0.9
				c-0.1,0-0.1,0.1-0.2,0.1c-1,0.5-2.1,1.1-3.2,1.6c-0.6,0.3-1.2,0.5-1.8,0.8c-9.6,4-20.4,5.8-29.9,6.5c-7.8,0.5-12.6,2.4-16.9,2.7
				c-0.4,0-0.9,0.1-1.3,0.1c-2.1,0-4.2-0.5-6.5-1.8c-6.7-3.7-12.1-4.8-16.3-4.9c-0.5,0-1.1,0-1.5,0c-4.5,0.1-7.3,1.5-8.4,1.6
				c-0.3,0-0.4-0.2-0.3-0.5c0-0.2,0-0.4,0.1-0.6c9.8-7.6,22.6-2.9,28.5-0.8c6.6,2.4,7.7-1.5,13.5-2c5.8-0.5,21.5,0,36.8-6.2
				c15.3-6.2,19.4-20.8,19.2-26.3c-0.2-5.6-12.2-26-16.3-29c-1.6-9.4-6.2-17.8-12.6-24.7c2.2-1.3,4.7-2.5,7.3-3.7c0,0,0.1,0,0.1-0.1
				c0,0,0,0,0,0c0.7-0.2,1.2-0.4,1.5-0.7C465.2,257.5,479,289.9,478.2,297.8z"/>
		</g>
		<path class="st24" d="M257.8,202.1c2.3,1.5,2.7,4.5,2.5,7.2s-3.4,5.7-3.1,9.6c0.4,3.9-8.6,19.9-3.7,27.8c1.3-6,3.4-13.8,5-18
			c1.6-4.2,2.3-4.9,2.1-6.1s-1.5-2.4-1.3-3.7c0.2-1.3,1.7-4.4,3.6-5.8c0.6-3.3,1.1-9.8,1.3-14C260.7,200.2,259.6,200.9,257.8,202.1z
			"/>
		<g>
			<line class="st30" x1="436.8" y1="305.6" x2="436.7" y2="311.8"/>
			<line class="st30" x1="430.4" y1="310.5" x2="430.3" y2="316.7"/>
		</g>
		<path class="st21" d="M263.1,214.1c0.5-2.8-3,2.2-3.6,3.6c-1,2,1.2,3.9,1.1,5c-0.1,1.3-2.3,6.2-3.9,11.3
			c-7.5,24.2-5.9,44.1-2.5,46c1,20.8-1.9,48.8,13,66.3c10.5,12.4,67.4,20.6,101.4,14.8c19-3.2,48.8-13.2,52.5-27.5"/>
		<path class="st21" d="M367.1,369.7c-25.4,12.7-71.3,6.1-88.8-12.4c-2.1-2.2-5.7-6.4-6.1-7"/>
		<path class="st21" d="M263.1,214.1c34.6,9.9,77.8,3,104-8.7"/>
		<path class="st21" d="M347.8,221.8c-21.1,8.1-71.6,10.2-86.4,0.5"/>
		<path class="st21" d="M270.1,216.4c-0.6,1.8-1.2,3.1-1.2,5.1"/>
		<path class="st21" d="M281.1,218.6c-0.8,1.6-1,3.8-1,5.6"/>
		<line class="st21" x1="293.5" y1="219.8" x2="293.5" y2="224.7"/>
		<polyline class="st21" points="304.6,219.7 304.6,220.4 304.6,220.9 304.6,221.6 304.6,222.1 304.6,222.6 304.6,223.1 		"/>
		<polyline class="st21" points="298.3,220.3 298.3,220.8 298.3,221.3 298.3,221.8 298.3,222.2 298.3,222.7 		"/>
		<polyline class="st21" points="335.8,215.9 335.8,216.4 335.8,216.9 335.8,217.8 335.8,218.3 		"/>
		<polyline class="st21" points="341.4,214.8 341.4,215.6 341.4,216.3 341.4,216.8 		"/>
		<path class="st21" d="M339.4,404.2c8.1-4.1,17.9-7,27.6-8.2c4.2-0.5,8.4-0.7,12.4-0.5"/>
		<path class="st21" d="M257.2,404.3c5.2-4.3,28.6-13,37.3-11.5"/>
		<path class="st21" d="M368,388.6c8.5,3.4,16.7,9.8,20.7,17.9"/>
		<path class="st21" d="M288.8,388c5.7,3.8,10.9,8.3,13.9,14.2"/>
		<g>
			<path class="st23" d="M402.7,336.4c-2.2,0-4.4-0.4-6.9-1.8c-18.3-10-26.8-1.2-26.6-3.9c0.3-2.7,2.9-10.6,9.6-14.4
				c10.2-5.9,18.3-0.5,25.3,0C400.5,320.9,397,327.8,402.7,336.4z"/>
			<path class="st21" d="M403.7,274c1.5,6,3.9,11.3,9.1,15.7c5.4,4.5,16.4,8.2,16.1,10.9c-0.5,3.6-7.1,10.3-20.3,15.2
				c-8,3-17.4-6.6-29.8,0.5c-6.6,3.8-9.3,11.8-9.6,14.4c-0.3,2.7,8.3-6.2,26.6,3.9c7.6,4.2,12.4-0.1,25-1c9.5-0.6,20.3-2.4,29.9-6.5
				c19.8-8.4,26.6-20.4,27.5-29.5c0.8-7.9-12.9-40.1-30.3-61"/>
			<path class="st21" d="M404.1,274.2c-6,4.6-7.5,1.1-10.2-4.4"/>
			<path class="st21" d="M372.7,261c3.6,0.8,9.2,2.8,13.5,4.8c3.8,1.7,6.5,3.5,7.9,4.4"/>
			<path class="st21" d="M386.2,265.8c-2.4-3.1-5.2-7.3-8.5-9.5"/>
			<path class="st21" d="M408.6,264.8c13-18.1,28.4-25.3,37.1-27.4c6.1-1.2-0.2-6.8-2-9.1c-22.2-29.4-36.3-38-53.6-35.6
				c-2,0.3-4,0.7-6.1,1.3c-10.8,2.9-17.3,10.3-21.2,18.2c-2.3,4.6-3.6,9.4-4.4,13.5"/>
			<path class="st21" d="M394.9,269.6c4.2-13.3,15.9-28.8,32-34.6"/>
			<path class="st21" d="M399.4,261.1c1.3,1.2,2.5,1.9,4.1,2.7"/>
			<line class="st21" x1="405.3" y1="252.7" x2="408.6" y2="255.3"/>
			<line class="st21" x1="411.5" y1="245.6" x2="414.2" y2="248.8"/>
		</g>
		<g>
			<path class="st21" d="M354.4,374.1c2.3,6.7,7,12.2,13.6,14.5c-19,3.3-26.3,10-30.8,15.6c-0.6,1.2,14.2,1.6,30.5,2.3
				c18.9,0.7,41.9,1.7,49.7-0.1c7.8-1.8,1.2-13.3-0.3-17.9c-5.1-15.6-8.5-31.3-0.9-46.9"/>
			<path class="st21" d="M279.7,358.8c-2.2,7.5,3.3,23.6,9,29.2c-13.5-0.4-29.6,12-30.7,13c-4.7,4.3-3.2,4.6,0,4.6
				c3.2,0,29.3-1.3,43-1.6c5.6-0.1,12.4-0.4,18-0.6c3.4-0.1,19.3-0.2,16.8-6c-2.9-6.8-6.4-16.2-6.8-21.5"/>
		</g>
		<g>
			<path class="st21" d="M369.2,330.7c6.7-9.4,18.6-10.9,26.6-8.8"/>
			<path class="st21" d="M404.1,316.3c-3.6,4.6-7.1,11.5-1.4,20.1"/>
		</g>
		<path class="st21" d="M285.8,155.2c-0.8,0.8-1.9,1.7-3.7,1.6"/>
		<g>
			<g>
				<path class="st0" d="M257.8,128.5c0.5,4.6,4,4.9,8.7,5.2c5.5,0.3,11.2-2.6,11.2-7.2c-0.1-5.3-4.9-7.1-11.9-6.4
					C260,120.6,257.2,123.3,257.8,128.5z"/>
				<path class="st27" d="M257.7,127.8c1.9-4.2,5.3-4.8,10.6-4.2c5,0.5,7.3,1.7,9.2,4.3c1.2-6.5-4.7-8.2-11.7-7.8
					C260.5,120.3,257.6,122.9,257.7,127.8z"/>
				<path class="st28" d="M267.7,127.9c0-2.6-2.1-4.7-4.7-4.7c-2.6,0-4.7,2.1-4.7,4.7c0,2.6,2.1,4.7,4.7,4.7
					C265.6,132.6,267.7,130.5,267.7,127.9z"/>
				<path class="st31" d="M257.8,128.5c0.7,4.5,4.1,4.9,8.7,5.2c5.6,0.4,11.1-2.6,11.2-7.2c0-5.3-4.9-7-11.9-6.4
					C260.1,120.5,256.9,122.7,257.8,128.5z"/>
			</g>
			<circle class="st0" cx="266.5" cy="125.8" r="2.1"/>
			<circle class="st0" cx="265.7" cy="129.3" r="0.8"/>
		</g>
		<path class="st32" d="M271,134.4c-0.4-2.7,3.2-5.6,8-6.5c4.8-0.9,9.1,0.6,9.5,3.3c0.4,2.7-3.2,5.6-8,6.5
			C275.7,138.6,271.5,137.1,271,134.4z"/>
		<path class="st29" d="M282.1,107.8c-9.1-5.5-17-4.6-27.7,9.3"/>
		<path class="st21" d="M424.6,296.6c0.3,3.6,0,7.2-0.8,10.9"/>
	</g>
	<g>
		<path d="M264.6,46.8c0,0.7-0.2,1.3-0.7,1.8c-0.5,0.5-1.1,0.8-1.8,0.8c-0.7,0-1.3-0.2-1.8-0.7c-0.5-0.5-0.8-1.1-0.8-1.8l-1.3-33.7
			c0-0.7,0.2-1.3,0.7-1.8c0.5-0.5,1.1-0.8,1.8-0.8c0.7,0,1.3,0.2,1.8,0.7c0.5,0.5,0.8,1.1,0.8,1.8L264.6,46.8z"/>
		<path d="M272,22l1.1,0l0.2-9.1c0-0.7,0.3-1.3,0.8-1.8c0.5-0.5,1.1-0.7,1.8-0.7c0.7,0,1.3,0.3,1.8,0.8c0.5,0.5,0.7,1.1,0.7,1.8
			l-0.2,9.1l3,0c0.7,0,1.3,0.3,1.8,0.8s0.7,1.1,0.7,1.8c0,0.7-0.3,1.3-0.8,1.8c-0.5,0.5-1.1,0.7-1.8,0.7l-3,0l-0.2,12.2
			c-0.1,3.2,1.5,4.9,4.8,4.9c0.7,0,1.3,0.3,1.8,0.8c0.5,0.5,0.7,1.1,0.7,1.8c0,0.7-0.3,1.3-0.8,1.8c-0.5,0.5-1.1,0.7-1.8,0.7
			c-6.6-0.1-9.9-3.5-9.8-10.1l0.2-12.2l-1.1,0c-0.7,0-1.3-0.3-1.7-0.8s-0.7-1.1-0.7-1.8c0-0.7,0.3-1.3,0.8-1.8
			C270.7,22.2,271.3,22,272,22z"/>
		<path d="M291.4,14c0-0.4,0.1-0.8,0.3-1.2c0.2-0.4,0.4-0.7,0.7-0.9c0.3-0.3,0.6-0.4,1-0.6c0.4-0.1,0.8-0.2,1.2-0.1
			c0.7,0.1,1.4,0.4,1.9,0.9s0.9,1.2,1.2,2c0.3,0.8,0.5,1.6,0.6,2.4c0.1,0.8,0.1,1.6,0.1,2.3c-0.2,2.9-1.7,5.7-4.3,8.4
			c-0.5,0.4-1,0.6-1.5,0.5c-0.6,0-1-0.3-1.4-0.7c-0.4-0.4-0.5-0.9-0.5-1.5c0-0.3,0.1-0.6,0.2-0.8c0.9-1.7,1.3-3.4,1.5-5
			c0.1-1.5-0.1-3-0.7-4.5C291.5,14.8,291.4,14.4,291.4,14z"/>
		<path d="M306,38.3c-1.4-0.8-2.4-1.6-2.9-2.3l0,0c-1-1.4-1.4-3-1.1-4.6c0.2-1.2,0.7-2.3,1.5-3.1c0.8-0.9,1.8-1.6,3-2.1
			c1.2-0.5,2.4-0.8,3.8-1c1.4-0.2,2.7-0.1,4,0.1c4,0.7,7.1,2.9,9.5,6.6c0.3,0.5,0.3,1,0.2,1.6c-0.1,0.7-0.5,1.3-1,1.7
			c-0.6,0.4-1.2,0.5-1.9,0.4c-0.5-0.1-0.9-0.3-1.2-0.7c-0.3-0.3-0.6-0.7-0.9-1.1c-1.4-1.9-3.2-3.1-5.5-3.4c-2.3-0.4-4.3,0-5.9,1.2
			c-0.3,0.2-0.5,0.5-0.6,1c-0.1,0.4,0.1,0.8,0.5,1l10.6,5.6c1.5,0.9,2.4,1.6,2.9,2.3l0,0c1,1.4,1.4,3,1.1,4.6
			c-0.2,1.2-0.7,2.3-1.5,3.1c-0.8,0.9-1.8,1.6-3,2.1s-2.4,0.9-3.8,1c-1.4,0.1-2.7,0.1-4-0.1c-4-0.7-7.2-2.9-9.5-6.5
			c-0.3-0.5-0.4-1.1-0.3-1.6c0.1-0.7,0.5-1.3,1-1.7s1.2-0.5,1.9-0.4c0.5,0.1,0.9,0.3,1.3,0.7c0.3,0.4,0.6,0.7,0.9,1.1
			c1.4,1.9,3.2,3.1,5.5,3.5c2.3,0.4,4.2,0,5.9-1.2c0.3-0.2,0.5-0.5,0.5-0.9c0.1-0.4-0.1-0.8-0.5-1L306,38.3z"/>
		<path d="M348.6,35.2l1,0.5l3.9-8.2c0.3-0.6,0.8-1.1,1.4-1.3c0.7-0.2,1.3-0.2,2,0.1c0.6,0.3,1.1,0.8,1.3,1.4
			c0.2,0.7,0.2,1.3-0.1,1.9l-3.9,8.2l2.7,1.3c0.6,0.3,1.1,0.8,1.3,1.4c0.2,0.7,0.2,1.3-0.1,1.9c-0.3,0.6-0.8,1.1-1.4,1.3
			c-0.7,0.2-1.3,0.2-1.9-0.1l-2.7-1.3l-5.2,11c-1.4,2.9-0.6,5.1,2.3,6.5c0.6,0.3,1.1,0.8,1.3,1.4c0.2,0.7,0.2,1.3-0.1,1.9
			c-0.3,0.6-0.8,1.1-1.4,1.3c-0.7,0.2-1.3,0.2-1.9-0.1c-6-2.8-7.6-7.3-4.7-13.2l5.2-11l-1-0.5c-0.6-0.3-1-0.8-1.3-1.4
			c-0.2-0.7-0.2-1.3,0.1-2c0.3-0.6,0.8-1.1,1.4-1.3C347.4,34.9,348,34.9,348.6,35.2z"/>
		<path d="M353.7,65.6l11.8-18.7c0.4-0.6,0.9-1,1.6-1.1s1.3,0,1.9,0.3s1,0.9,1.1,1.6s0,1.3-0.3,1.9L358,68.3c-0.4,0.6-0.9,1-1.6,1.1
			s-1.3,0-1.9-0.3s-1-0.9-1.1-1.6S353.3,66.2,353.7,65.6z M374.2,43.6c-0.4,0.7-1.1,1.1-1.9,1.3c-0.8,0.2-1.6,0-2.3-0.4
			s-1.1-1.1-1.3-1.9c-0.2-0.8,0-1.6,0.4-2.3c0.4-0.7,1.1-1.1,1.9-1.3c0.8-0.2,1.6,0,2.3,0.4s1.1,1.1,1.3,1.9
			C374.7,42.2,374.6,42.9,374.2,43.6z"/>
		<path d="M390,96c-0.5,0.5-1.1,0.8-1.8,0.8c-0.7,0-1.3-0.2-1.8-0.7c-0.5-0.5-0.8-1.1-0.8-1.8c0-0.7,0.2-1.3,0.7-1.8l9.5-10
			c0.5-0.6,0.9-1.2,1.2-1.9c0.3-0.7,0.4-1.4,0.4-2.2s-0.2-1.5-0.5-2.2c-0.3-0.7-0.7-1.3-1.3-1.9c-0.6-0.5-1.2-0.9-1.9-1.2
			c-0.7-0.3-1.4-0.4-2.2-0.4s-1.5,0.2-2.2,0.5c-0.7,0.3-1.3,0.7-1.9,1.3l-9.5,10c-0.5,0.5-1.1,0.8-1.8,0.8c-0.7,0-1.3-0.2-1.8-0.7
			c-0.5-0.5-0.8-1.1-0.8-1.8c0-0.7,0.2-1.3,0.7-1.8l9.5-10c0.5-0.6,0.9-1.2,1.2-1.9c0.3-0.7,0.4-1.4,0.4-2.2c0-0.7-0.2-1.5-0.5-2.2
			c-0.3-0.7-0.7-1.3-1.3-1.9c-0.6-0.5-1.2-1-1.9-1.2c-0.7-0.3-1.4-0.4-2.2-0.4s-1.5,0.2-2.2,0.5c-0.7,0.3-1.3,0.7-1.9,1.3l-9.5,10
			c-0.5,0.5-1.1,0.8-1.8,0.8c-0.7,0-1.3-0.2-1.8-0.7c-0.5-0.5-0.8-1.1-0.8-1.8c0-0.7,0.2-1.3,0.7-1.8l15.3-16
			c0.5-0.5,1.1-0.8,1.8-0.8c0.7,0,1.3,0.2,1.8,0.7c0.4,0.4,0.7,0.9,0.8,1.4s0,1-0.2,1.5c2,0.4,3.9,1.3,5.5,2.8
			c1.2,1.1,2.1,2.4,2.6,3.8c0.6,1.4,0.8,3,0.7,4.7c3.4-0.3,6.3,0.7,8.7,2.9c1.1,1,1.9,2.2,2.4,3.5c0.6,1.3,0.9,2.7,0.9,4.1
			c0,1.4-0.2,2.8-0.7,4.1c-0.5,1.4-1.2,2.6-2.3,3.6L390,96z"/>
		<path d="M407.4,113.1c0.4,0.6,0.6,1.2,0.4,1.9c-0.1,0.7-0.5,1.2-1.1,1.6c-0.6,0.4-1.2,0.5-1.9,0.4c-3.2-0.8-5.8-2.6-7.8-5.4
			c-2.1-3.1-2.9-6.5-2.2-10.2c0.7-3.7,2.6-6.6,5.7-8.7c3.1-2.1,6.5-2.9,10.2-2.2c3.7,0.7,6.6,2.6,8.7,5.7c2.1,3.1,2.8,6.5,2.2,10.2
			c-0.3,1.8-1,3.5-1.9,4.9s-2.2,2.7-3.7,3.8c-0.6,0.4-1.2,0.6-1.9,0.4c-0.7-0.1-1.2-0.5-1.6-1.1l-10.9-15.8c-0.6,0.7-1,1.5-1.3,2.4
			s-0.5,1.7-0.5,2.6s0.1,1.8,0.3,2.7c0.3,0.9,0.6,1.7,1.2,2.5c0.6,0.9,1.3,1.6,2.1,2.1s1.6,1,2.6,1.2
			C406.5,112.2,407,112.5,407.4,113.1z M415,109.1c0.6-0.7,1-1.5,1.3-2.4c0.3-0.9,0.5-1.7,0.5-2.6c0-0.9-0.1-1.8-0.3-2.7
			c-0.3-0.9-0.6-1.7-1.2-2.5c-0.5-0.8-1.2-1.4-1.9-2s-1.5-1-2.4-1.3s-1.7-0.5-2.6-0.5c-0.9,0-1.8,0.1-2.7,0.4L415,109.1z"/>
		<path d="M437.7,128.7l0.4,1.1l8.4-3.5c0.6-0.3,1.3-0.3,1.9,0c0.6,0.3,1.1,0.7,1.4,1.4c0.3,0.6,0.3,1.3,0,1.9
			c-0.3,0.6-0.7,1.1-1.4,1.4l-8.4,3.5l1.2,2.8c0.3,0.6,0.3,1.3,0,1.9c-0.3,0.6-0.7,1.1-1.4,1.4c-0.7,0.3-1.3,0.3-2,0
			s-1.1-0.7-1.4-1.4l-1.2-2.8l-11.3,4.7c-3,1.2-3.8,3.4-2.6,6.3c0.3,0.6,0.3,1.3,0,1.9c-0.3,0.6-0.7,1.1-1.4,1.4
			c-0.7,0.3-1.3,0.3-2,0s-1.1-0.7-1.4-1.4c-2.5-6.1-0.8-10.4,5.3-13l11.3-4.7l-0.4-1.1c-0.3-0.6-0.3-1.3,0-1.9
			c0.3-0.6,0.7-1.1,1.4-1.4c0.6-0.3,1.3-0.3,1.9,0S437.4,128,437.7,128.7z"/>
		<path d="M441.5,175.3c-3.5,1.4-7,1.4-10.4-0.1c-3.5-1.5-5.9-4-7.3-7.5c-1.4-3.5-1.4-7,0.1-10.4c1.5-3.5,4-5.9,7.5-7.3
			c3.5-1.4,7-1.4,10.4,0.1c3.5,1.5,5.9,4,7.3,7.5c1.4,3.5,1.3,6.9-0.1,10.4c-0.7,1.7-1.7,3.2-3,4.4S443.2,174.6,441.5,175.3z
			 M444.3,159.5c-0.4-1.1-1.1-2.1-1.9-2.9s-1.7-1.4-2.7-1.8c-1-0.4-2.1-0.6-3.2-0.7c-1.1,0-2.2,0.2-3.3,0.6c-1.1,0.4-2,1-2.8,1.8
			c-0.8,0.8-1.4,1.7-1.8,2.7s-0.7,2.1-0.7,3.2c0,1.1,0.2,2.3,0.6,3.4c0.4,1.1,1.1,2,1.9,2.8s1.7,1.4,2.7,1.8c1,0.4,2.1,0.7,3.2,0.7
			s2.2-0.2,3.3-0.6c1.1-0.4,2-1,2.8-1.8c0.8-0.8,1.4-1.7,1.8-2.7c0.4-1,0.7-2.1,0.7-3.2C445,161.8,444.8,160.6,444.3,159.5z"/>
		<path d="M449.2,211.1c-1.9-2.6-2.8-5.5-2.7-8.6l-9.7,7.2c-0.6,0.4-1.2,0.6-1.9,0.5c-0.7-0.1-1.2-0.5-1.7-1
			c-0.4-0.6-0.6-1.2-0.5-1.9c0.1-0.7,0.4-1.2,1-1.7l18.3-13.5c3-2.2,6.4-3.1,10.1-2.5c3.7,0.6,6.7,2.3,8.9,5.4
			c2.2,3,3.1,6.4,2.5,10.1c-0.3,1.8-0.8,3.5-1.7,5c-0.9,1.5-2.1,2.8-3.6,3.9c-3,2.3-6.4,3.1-10.1,2.5c-1.9-0.3-3.6-0.9-5-1.8
			C451.6,213.8,450.3,212.6,449.2,211.1z M455,196.2c-0.9,0.7-1.7,1.5-2.3,2.5c-0.6,1-0.9,2-1.1,3.1c-0.2,1.1-0.1,2.2,0.1,3.3
			c0.3,1.1,0.7,2.1,1.4,3.1c0.7,0.9,1.5,1.7,2.5,2.3c1,0.6,2,0.9,3.1,1.1c1.1,0.2,2.2,0.1,3.3-0.1s2.1-0.7,3-1.4s1.7-1.5,2.2-2.5
			s0.9-2,1.1-3.1c0.2-1.1,0.1-2.2-0.1-3.3s-0.7-2.1-1.4-3.1c-0.7-1-1.6-1.7-2.5-2.3s-2-0.9-3.1-1.1c-1.1-0.2-2.2-0.1-3.3,0.2
			C457,195,456,195.5,455,196.2z"/>
		<path d="M473.8,241.8l0.4-0.3c-1.5-0.5-2.8-1.2-4.1-2s-2.3-2-3.2-3.4c-2.1-3.1-2.8-6.5-2-10.2s2.7-6.6,5.8-8.7s6.5-2.8,10.2-2
			c3.7,0.7,6.6,2.7,8.7,5.8c2.1,3.1,2.7,6.5,2,10.2c-0.7,3.7-2.7,6.6-5.8,8.7l-9.2,6.2c-0.6,0.4-1.2,0.5-1.9,0.4
			c-0.7-0.1-1.2-0.5-1.6-1.1c-0.4-0.6-0.5-1.2-0.4-1.9C472.9,242.7,473.2,242.2,473.8,241.8z M485.3,223.8c-0.7-1-1.5-1.8-2.4-2.4
			c-1-0.6-2-1-3-1.2c-1.1-0.2-2.1-0.2-3.3,0c-1.1,0.2-2.1,0.6-3.1,1.3c-1,0.6-1.8,1.4-2.4,2.4c-0.6,0.9-1,1.9-1.2,3
			c-0.2,1.1-0.2,2.1,0,3.3c0.2,1.1,0.6,2.2,1.3,3.2c0.7,1,1.5,1.8,2.4,2.4c1,0.6,2,1,3,1.2c1.1,0.2,2.2,0.2,3.3,0
			c1.1-0.2,2.1-0.6,3.1-1.3c1-0.6,1.8-1.4,2.4-2.4s1-1.9,1.2-3s0.2-2.2,0-3.3S486,224.8,485.3,223.8z"/>
		<path d="M482.4,256.6l14.7-17.3c0.3-0.3,0.6-0.6,0.9-0.7c0.3-0.2,0.6-0.2,1-0.3s0.7,0,1,0.1c0.3,0.1,0.6,0.3,0.9,0.5
			c0.3,0.2,0.5,0.5,0.6,0.8c0.2,0.4,0.3,0.9,0.3,1.4c-0.1,0.5-0.3,1-0.7,1.5l-11.4,13.5l17.7-1.3c0.5,0,1,0,1.4,0.2s0.8,0.6,1.1,1.2
			c0.2,0.3,0.3,0.6,0.3,1c0,0.3,0,0.7-0.1,1c-0.1,0.3-0.3,0.6-0.5,0.9c-0.2,0.3-0.5,0.5-0.8,0.6c-0.3,0.2-0.7,0.3-1.1,0.3l-36.2,2.8
			c-0.5,0-1.1-0.1-1.5-0.3s-0.8-0.6-1.1-1.1c-0.3-0.6-0.4-1.3-0.2-1.9s0.6-1.1,1.3-1.5c0.3-0.2,0.7-0.3,1.1-0.3L482.4,256.6z"/>
		<path d="M492.6,278.4c-0.5,0.2-0.9,0.2-1.4,0.2c-0.5,0-0.9-0.2-1.3-0.4s-0.7-0.5-1-0.8c-0.3-0.3-0.5-0.7-0.7-1.2
			c-0.2-0.4-0.2-0.9-0.2-1.3c0-0.4,0.1-0.9,0.3-1.3c0.2-0.4,0.5-0.8,0.8-1.1c0.3-0.3,0.7-0.5,1.2-0.7c0.4-0.2,0.9-0.2,1.4-0.2
			s0.9,0.1,1.3,0.3c0.4,0.2,0.8,0.5,1.1,0.8s0.5,0.7,0.7,1.2c0.2,0.4,0.2,0.9,0.2,1.4s-0.2,0.9-0.4,1.3c-0.2,0.4-0.5,0.8-0.8,1.1
			C493.5,278,493.1,278.2,492.6,278.4z M521.8,262.2c0.7-0.2,1.3-0.2,1.9,0.1c0.6,0.3,1,0.8,1.3,1.5s0.2,1.3-0.1,2
			c-0.3,0.6-0.8,1-1.5,1.3l-24,8.2c-0.3,0.1-0.7,0.1-1,0.1c-0.3,0-0.6-0.1-0.9-0.3c-0.3-0.1-0.5-0.3-0.8-0.6
			c-0.2-0.2-0.4-0.5-0.5-0.9c-0.1-0.3-0.2-0.7-0.1-1c0-0.3,0.1-0.6,0.3-0.9c0.1-0.3,0.3-0.5,0.6-0.8c0.2-0.2,0.5-0.4,0.8-0.5
			L521.8,262.2z"/>
	</g>
</g>
</svg>
