<?xml version="1.0" encoding="utf-8"?>
<!-- Generator: Adobe Illustrator 26.0.3, SVG Export Plug-In . SVG Version: 6.00 Build 0)  -->
<!DOCTYPE svg PUBLIC "-//W3C//DTD SVG 1.1//EN" "http://www.w3.org/Graphics/SVG/1.1/DTD/svg11.dtd" [
	<!ENTITY ns_extend "http://ns.adobe.com/Extensibility/1.0/">
	<!ENTITY ns_ai "http://ns.adobe.com/AdobeIllustrator/10.0/">
	<!ENTITY ns_graphs "http://ns.adobe.com/Graphs/1.0/">
	<!ENTITY ns_vars "http://ns.adobe.com/Variables/1.0/">
	<!ENTITY ns_imrep "http://ns.adobe.com/ImageReplacement/1.0/">
	<!ENTITY ns_sfw "http://ns.adobe.com/SaveForWeb/1.0/">
	<!ENTITY ns_custom "http://ns.adobe.com/GenericCustomNamespace/1.0/">
	<!ENTITY ns_adobe_xpath "http://ns.adobe.com/XPath/1.0/">
]>
<svg version="1.1" id="Слой_1" xmlns:x="&ns_extend;" xmlns:i="&ns_ai;" xmlns:graph="&ns_graphs;"
	 xmlns="http://www.w3.org/2000/svg" xmlns:xlink="http://www.w3.org/1999/xlink" x="0px" y="0px" width="795.6px" height="499.2px"
	 viewBox="0 0 795.6 499.2" style="enable-background:new 0 0 795.6 499.2;" xml:space="preserve">
<style type="text/css">
	.st0{fill:#FFFFFF;}
	.st1{fill:#FFDA1F;}
	.st2{fill:#C9A67A;}
	.st3{fill:#D1D1D1;}
	.st4{opacity:0.23;fill:#3F2719;}
	.st5{fill:none;stroke:#2D1F04;stroke-width:2.7806;stroke-linecap:round;stroke-linejoin:round;stroke-miterlimit:10;}
	.st6{fill:#B5B0AD;}
	.st7{fill:none;stroke:#9C7B51;stroke-width:4.1072;stroke-linecap:round;stroke-linejoin:round;stroke-miterlimit:10;}
	.st8{fill:#FFDAAE;}
	.st9{fill:#9C7B51;}
	.st10{fill:#251707;}
	.st11{fill:none;stroke:#251707;stroke-width:2.7806;stroke-linecap:round;stroke-linejoin:round;stroke-miterlimit:10;}
	.st12{fill:none;stroke:#2D1F04;stroke-width:8.0658;stroke-linecap:round;stroke-linejoin:round;stroke-miterlimit:10;}
	.st13{fill:none;stroke:#2D1F04;stroke-width:2.6;stroke-linecap:round;stroke-linejoin:round;stroke-miterlimit:10;}
	.st14{fill:#2D1F04;}
	.st15{fill:none;stroke:#2D1F04;stroke-width:2.62;stroke-linecap:round;stroke-linejoin:round;stroke-miterlimit:10;}
	.st16{fill:#FF8802;}
	.st17{fill:#FF9902;}
	.st18{fill:#D2E4E9;}
	.st19{fill:none;stroke:#2D1F04;stroke-width:7.6;stroke-linecap:round;stroke-linejoin:round;stroke-miterlimit:10;}
	.st20{opacity:0.23;fill:#2D1F04;}
</style>
<metadata>
	<sfw  xmlns="&ns_sfw;">
		<slices></slices>
		<sliceSourceBounds  bottomLeftOrigin="true" height="499.2" width="795.6" x="-355" y="292"></sliceSourceBounds>
	</sfw>
</metadata>
<g>
	<g>
		<path class="st0" d="M788.4,22.7l-11.3-3.4c-0.1,0-0.2-0.1-0.3-0.1l-63-18.8c-0.9-0.3-1.9-0.4-2.9-0.4s-1.9,0.1-2.9,0.4l-63,18.8
			c-0.1,0-0.2,0.1-0.3,0.1l-11.3,3.4c-2.2,0.7-4,2-5.3,3.8c-1.3-1.8-3.1-3.2-5.3-3.8l-11.3-3.4c-0.1,0-0.2-0.1-0.3-0.1l-63-18.8
			c-0.9-0.3-1.9-0.4-2.9-0.4s-1.9,0.1-2.9,0.4l-63,18.8c-0.1,0-0.2,0.1-0.3,0.1l-11.3,3.4c-4.2,1.3-7.1,5.2-7.1,9.6v102
			c0,1.6,0.4,3.2,1.1,4.6c-0.7,0.1-1.4,0.2-2.1,0.4l-63,18.8c-0.1,0-0.2,0.1-0.3,0.1l-11.3,3.4c-2.2,0.7-4,2-5.3,3.8
			c-1.3-1.8-3.1-3.2-5.3-3.8l-11.3-3.4c-0.1,0-0.2-0.1-0.3-0.1l-63-18.8c-0.9-0.3-1.9-0.4-2.9-0.4s-1.9,0.1-2.9,0.4l-63,18.8
			c-0.1,0-0.2,0.1-0.3,0.1l-11.3,3.4c-4.2,1.3-7.1,5.2-7.1,9.6v18.6c0,0,0,0-0.1,0c-3.4,0.1-6.8,0.1-10.5,0.1c-3.8,0-7.3,0-11.1-0.1
			c-0.9,0-1.8,0-2.8,0c0.1-0.9,0.2-1.8,0.3-2.7c0.1-1.3,0.4-2.7,0.7-4c2.3-1.8,5.3-5.4,4.2-11.8c1.5-2.7,1.7-5.4,1.7-7.2
			c0.2-0.4,0.6-0.9,0.8-1.3c0.3-0.5,0.6-0.9,0.8-1.4c8.7-14.5,14.3-28.2,16.6-40.7c0.1-0.4,0.1-0.7,0.2-1.1c4.7-3,7.3-8.8,6-14.6
			c-2.1-9.7-5.3-16.7-9.8-21.8c-0.9-2.7-2-5.3-3.2-7.7c0,0,0.1-0.1,0.1-0.1c3.6-3.1,5-7.9,3.4-12.4c-0.7-2.1-1.9-3.8-3.5-5.1
			c0.5-2.5,0.7-5.3,0.3-8.5c-0.5-4.1-3.1-7.6-7-9.2c-1.1-0.5-2.3-0.7-3.5-0.8c-0.5-2.2-1.4-4.6-2.6-7.2c-1.9-3.9-5.8-6.3-10.2-6.3
			c-0.3,0-0.6,0-0.9,0c-2.2,0.2-4.2,0.9-5.8,2.2c-1.5-1.1-3.3-1.9-5.2-2.1c-0.5-0.1-1.1-0.1-1.6-0.1c-2.6,0-5.2,0.9-7.2,2.6
			c-1,0.8-4.7,2.4-9.4,3.4c-2-1.8-4.7-2.8-7.5-2.8c-0.3,0-0.6,0-0.8,0c-6.5,0.5-14.7,2.5-25.6,6.4C89.4,46,67.6,62.2,52.7,84.9
			c-13.1,19.9-21,45.3-24.2,77.6c-0.2,0.4-0.5,0.8-0.7,1.2c-3.2,6.2-4.5,13.8-1.7,19.5c-2.1,12.4-5.9,20.4-10.6,30.2
			c-1.9,4-3.8,8.1-5.9,12.8c-3.7,8.6-6.5,16.2-9.4,27.6c-0.9,3.5,0,7.3,2.3,10.1c0.3,0.3,0.5,0.6,0.8,0.9
			c-1,16.2,4.6,38.3,18.3,53.7c0.1,0.2,0.3,0.3,0.4,0.5c-1,10.6-4.3,16.2-10.4,23.1c-3.5,3.9-8.8,13.1-7.1,22.3
			c1,5.5,4.4,9.9,9.4,12.5c2.2,1.1,7.3,3.8,49.4,3.8c3.3,0,6.5,0,9.5-0.1c0,0,0,0,0.1,0c8.7-0.1,20.1-0.5,25.2-1.4
			c3.9-0.7,7.1-3.3,8.6-7c1.5-3.7,1-7.8-1.4-11c-3.2-4.4-7.9-9.5-16.2-13.9c4.5,0.4,8.8,0.6,12.7,0.7c4.7,0.2,8.7,0.4,11.6,0.8
			c2.1,0.3,3.7,0.6,6.7,7.3c1,2.2,1.8,4.6,2.5,7.3c4,15.5,23.5,18.5,34.1,20.1c1.7,0.3,3.3,0.5,5,0.7c0.1,0,0.3,0,0.4,0.1
			c0.1,0,0.3,0,0.4,0c9.5,1.2,18.6,1.8,27.7,1.8c6.1,0,12.3-0.3,18.4-0.8c0.8-0.1,1.4-0.2,1.7-0.3c0.2-0.1,0.4-0.1,0.6-0.2
			c0.1,0,0.1,0,0.2-0.1c0.7-0.2,1.3-0.5,1.9-0.8c0.3-0.2,0.7-0.4,0.9-0.6c0.6-0.4,1.2-0.9,1.7-1.5c0.2-0.2,0.4-0.4,0.6-0.7
			c0,0,0-0.1,0.1-0.1c0.6-0.7,1.1-1.5,1.5-2.4c0-0.1,0.1-0.1,0.1-0.2c0-0.1,0.1-0.2,0.1-0.3c0.3-0.8,0.6-1.7,0.7-2.6
			c0,0,0-0.1,0-0.1c0.1-0.9,0.2-1.8,0.1-2.7c0-0.1,0-0.2,0-0.3c-0.3-2.1-1.1-4-2.4-5.7c-7.4-9.7-17.5-17-29.6-21.4
			c0.2-2.3,0.4-4.9,0.7-7.7l0.1-1.6c0.7-8.8,1.5-17.9-5.3-33.4c-3.1-7.2-6.3-11.9-8.8-15.3c0.6-1.6,0.8-3.3,0.6-5.1
			c-0.1-0.8-0.2-1.6-0.3-2.4c1.2,0,2.4,0.1,3.5,0.1c11.6,0,23.6-2.1,35.3-4.9c0.8,3.3,3.2,6,6.5,7.1l74.6,25.3
			c0.6,0.2,1.2,0.3,1.8,0.4c-0.1,0.6-0.1,1.1-0.1,1.7v102c0,4.3,2.7,8.1,6.8,9.5l66.8,22.6c0.1,0,7.8,2.7,7.8,2.7
			c1,0.4,2.1,0.5,3.2,0.5s2.2-0.2,3.2-0.5l7.5-2.6c0.1,0,0.2-0.1,0.3-0.1l66.8-22.6c4.1-1.4,6.8-5.2,6.8-9.5v-102
			c0-0.6-0.1-1.2-0.2-1.8c0.4-0.1,0.8-0.2,1.2-0.3l5.8-2c11.5,31.5,25,51.4,76.7,57c-3,8-6.9,21-8.2,38.5c-0.3,4.1,1.6,8,5,10.3
			c1.8,1.2,4.2,2.5,7.2,3.9c1.3,6.7,4,12,4.4,12.8c1.2,2.4,3.2,4.2,5.6,5.3c2.4,5.5,5.6,10.2,11.5,11.1c0.6,0.6,1.2,1.1,1.8,1.7
			c5.5,5,12.3,8.4,18.3,11.1c0.4,1.4,0.8,2.7,1.3,4.1c-11,4.5-19.5,11.6-19.6,11.7c-2.5,2.3-7.1,6.5-6.5,13c0.1,0.9,0.2,1.7,0.5,2.6
			c1,3.2,4.2,8.6,13.7,8.6c1.4,0,4.8-0.1,11.8-0.4c9-0.4,21.4-0.9,29.3-1c3.8-0.1,8.1-0.2,12.2-0.4c1.8-0.1,3.5-0.1,5.1-0.2l0.7,0
			c2.7-0.1,6.4-0.2,10.1-0.8c2.9,1.9,6.3,2.2,8.9,2.4c3.8,0.4,10,0.7,23.6,1.2l7.8,0.3c8.9,0.3,17.3,0.7,24.6,0.7
			c7.9,0,13.1-0.4,16.9-1.3c4.7-1.1,8.5-3.9,10.6-8c4-7.7,0.5-16.1-1.8-21.6c-0.3-0.7-0.7-1.7-0.8-2c-3.4-10.4-4.6-26.6-0.8-38.6
			c4.8-1.1,8.3-5.2,8.7-10.1c1.8-20.8-0.1-43.2-6.2-70.2c8.9-20.5,7.9-36.3-3-50.9c-3.4-4.5-7.3-8.1-11.8-10.7
			c-0.3-2.8-0.5-5.7-0.7-8.6c-1-12.3-2.1-26.3-5.4-38.8c-8.9-33.8-29-58.7-60-74c-0.1,0-0.1-0.1-0.2-0.1c-2.4-1.1-8.5-3.9-13.4-5.6
			c-2-0.7-4-1.3-6-2c-4.3-1.4-10.9-3.5-12.8-4.6c-2-1.6-4.5-2.5-7.1-2.5c-0.8,0-1.5,0.1-2.2,0.2c-2.2,0.4-4.3,1.5-5.8,3.1
			c-3.1-1-5.7-2.4-7.5-4.1l15.2-5.2c2-0.7,3.7-2,4.9-3.7c1.2,1.7,2.9,3,5,3.7l74.6,25.3c1,0.4,2.1,0.5,3.2,0.5s2.2-0.2,3.2-0.5
			l7.6-2.6c0.1,0,0.2-0.1,0.3-0.1l66.8-22.6c4.1-1.4,6.8-5.2,6.8-9.5v-102C795.6,27.9,792.7,24,788.4,22.7z M565.3,168.2
			c-2.1,1.6-4,3.6-5.6,6.1c-2.6,4.1-2.2,9.5,0.9,13.2c0.2,0.2,0.4,0.5,0.6,0.7c0,1,0.2,2,0.5,3c-0.5,0.8-1.1,1.6-1.6,2.5
			c-3.3,5.6-5.7,11.5-7.2,17.8c-0.4,0.5-0.8,1.1-1.2,1.6c-2.3,3-3.2,6.7-2.7,10.4c0.3,2,1,3.8,2,5.5c0.2,15,4.7,31.4,13.5,49
			c0.2,0.4,0.5,0.9,0.7,1.4c0.2,0.4,0.5,0.9,0.7,1.3c-0.1,1.5-0.2,3.6,0.6,5.9c-2.4,0.4-4.8,0.9-6.8,1.5c-4,0.2-10.7,1.8-15.2,5.6
			c-2.9,0.3-5.6,0.5-8.1,0.5c-7.2,0-12.9-1.3-18.1-4.2l22.2-7.5c4.1-1.4,6.8-5.2,6.8-9.5v-102c0-0.6-0.1-1.1-0.1-1.7
			c0.5-0.1,1-0.2,1.5-0.4l7.6-2.6c0.1,0,0.2-0.1,0.3-0.1l11.3-3.8C566.4,164.2,565.6,166.1,565.3,168.2z"/>
		<path class="st0" d="M299.6,127.4c13.6,7.6,35.9,16.6,64.6,16.6c0,0,0.1,0,0.1,0c23.7,0,45.8-6.8,60-14.6c0.4,2.2,1.6,4.3,4.2,6.1
			c1.7,1.2,3.7,1.8,5.8,1.8c10.8,0,18-17.9,18.3-18.7c1.2-3,6.7-18.1,0.1-25.5c-2.1-2.3-5.1-3.8-9.2-4.6c1.5-1.7,2.8-3.6,3.8-5.7
			c1.5-3.2,2.3-6.8,2.3-10.7c0-3.5-0.7-6.7-2-9.5c-1.2-2.6-2.9-5-5-6.9c-0.4-0.3-0.8-0.7-1.2-1c0.1-0.1,0.2-0.1,0.3-0.2
			c1.7-1.2,3.1-2.9,4-5c0.5-1.2,0.9-2.6,1.1-4c0.1-0.8,0.2-1.8,0.2-2.8c0-1-0.1-1.9-0.2-2.8c-0.1-0.6-0.2-1.1-0.3-1.6
			c-0.3-1.4-0.8-2.7-1.5-4c-0.8-1.4-1.9-2.6-3.4-3.7c-0.9-0.7-1.9-1.3-3.2-1.9c-1.2-0.6-2.6-1.2-4.2-1.7c-1.4-0.4-3-0.8-4.7-1.1
			c-1.8-0.3-4.6-0.7-7.6-0.7c-3.7,0-7.8,0.7-11.3,2c-1.9,0.7-3.7,1.6-5.4,2.6c-0.7-0.6-1.5-1.1-2.4-1.5c-1.4-0.7-3-1-4.8-1.2
			c-0.7,0-1.6-0.1-2.6-0.1c-1.2,0-2.2,0-3.1,0.1c-1.5,0.1-2.7,0.4-3.9,0.8c-2.3,0.8-4.2,2.3-5.5,4.2c-0.8,1.2-1.4,2.5-1.8,3.9
			l-0.3,1.2l-0.3-1.1c-0.3-1.4-0.9-2.7-1.7-3.8c-1.3-1.9-3.1-3.4-5.4-4.3c-1.2-0.5-2.4-0.7-3.9-0.9c-1.2-0.1-3.4-0.1-3.8-0.1
			c-0.4,0-2.7,0-3.9,0.1c-1.5,0.1-2.7,0.4-3.9,0.9c-2.2,0.8-4,2.3-5.3,4.2c-0.7,1.1-1.3,2.3-1.7,3.6c0-0.1-0.1-0.2-0.1-0.3
			c-0.3-1-0.8-2-1.3-2.8c0,0,0-0.1-0.1-0.1c-1.3-2.1-3.2-3.6-5.5-4.6c-1.2-0.5-2.5-0.8-4.1-0.9c-0.9-0.1-1.9-0.1-3.2-0.1
			c-1,0-1.8,0-2.6,0.1c-1.5,0.1-2.9,0.4-4.1,0.8c-1.3,0.5-2.5,1.2-3.6,2.1c-1.8-1.2-3.8-2.1-5.9-2.8c-3.3-1.1-7.1-1.6-11.5-1.6
			c-2.4,0-4.8,0.2-7.1,0.7c-2.2,0.4-4.3,0.9-6.2,1.6c-2,0.7-3.8,1.4-5.3,2.3c-2,1-3.5,2.1-4.6,3.2c-2.4,2.3-3.3,5-3.7,6.5
			c-0.3,1.3-0.5,2.7-0.5,4.4c0,1,0.1,2,0.2,2.9c0,0.1,0,0.1,0,0.2c0.3,1.6,0.8,3,1.5,4.3c0.6,1.1,1.3,2,2.2,2.9
			c-4.8,4.6-7.4,11-7.4,18.5c0,15.6,12.5,24,24.3,24c6.4,0,11.2-1.4,14.9-3.3c1.9,1.6,4.3,2.5,6.7,2.5c0.1,0,0.2,0,0.3,0
			c2.3,0,4.1-0.7,5.2-1.2c1.6-0.7,3.1-1.6,4.4-2.7c1.3-1,2.2-1.9,3-2.9c0.1-0.1,0.1-0.1,0.2-0.2c0.5,1,1,1.9,1.7,2.6
			c1.4,1.6,3.3,2.9,5.5,3.6c1.1,0.4,2.3,0.6,3.7,0.7c1.3,0.1,3.2,0.2,4,0.2c1.3,0,2.4,0,3.3-0.1c1.5-0.1,2.7-0.3,3.9-0.7
			c2.1-0.7,4-1.8,5.4-3.3c0.5-0.5,0.9-1,1.2-1.6c0.3,0.4,0.6,0.8,0.9,1.2c1.4,1.7,3.3,2.9,5.5,3.6c1.1,0.4,2.4,0.6,3.8,0.7
			c1,0.1,2.2,0.1,3.6,0.1c0.4,0,2.4,0,3.8-0.1c1.6-0.1,2.9-0.4,4.1-0.8c2-0.7,3.6-1.8,4.9-3.2c1.2-1.2,2-2.7,2.6-4.4
			c0.7,1.2,1.5,2.3,2.5,3.2c1.1,1,2.3,1.8,4,2.7c1.3,0.7,2.8,1.3,4.5,1.9c0.9,0.3,1.8,0.6,2.8,0.8c-0.9,0.9-1.6,1.8-2.1,2.8
			c-1.4,2.7-1.6,5.7-0.5,8.5c-10.3,3-24.4,6-42.3,6c-36.7,0-61.7-13.3-72.3-18.9c-4.4-2.3-6.5-3.5-9.6-3.5c-2.8,0-5.3,1.1-7.3,3
			c-2.9,2.9-3.7,7.2-2.2,11.1C274.9,110.5,286.7,120.3,299.6,127.4z"/>
	</g>
	<g>
		<g>
			<g>
				<g>
					<path class="st1" d="M587.5,319.4c6.5-8,9.4-17,9.1-17.2c-0.7-0.5-1.7,1-1.9,1.1c-0.7,0.4,0.8-1.3,1.1-2.1
						c0.3-0.7,0.7-1.5,1-2.2c-10.1-3.9-28-1.6-34.7,0.6c-2.1-0.3-7.6,1.1-9.6,3.1c-1.4,1.3-1.4,36.3,3.8,49.5
						c0.2,0.6,0.4,1.1,0.7,1.5c1,1.7,4.9,1.3,8.1,1c0.5-0.1,1.1-0.1,1.7-0.2c7.8-11.4,13.8-23.7,22.3-34.4
						C588.4,319.8,587.9,319.6,587.5,319.4z"/>
					<g>
						<path class="st2" d="M555.8,352.1c-53.7-4.6-63.6-22-76.2-59.2c5.5,1.5,13.6,0,19.5-4.7c13,15.3,27.3,19.9,52.6,16
							C550.7,311.3,551.2,340.3,555.8,352.1z"/>
						<path class="st3" d="M499,288.4c-5.9,4.6-14,6.1-19.5,4.7c0-0.1-0.1-0.1-0.1-0.2c-0.6-1.8-1.5-4.2-2.5-7
							c-1.8-5.3-3.1-14-2.1-19c1.1-5.3,4.6-5.8,10.9-3c2.9,1.3,4.6,3.6,5.6,6.4c1.7,4.8,2.8,10.2,5.4,15c0.6,1,1.3,2,2.2,3
							C498.9,288.3,499,288.3,499,288.4z"/>
						<path class="st4" d="M555.8,352.1c-53.7-4.6-63.6-22-76.2-59.1c0,0,0,0-0.1,0c0-0.1,0-0.1-0.1-0.2c-0.6-1.8-1.5-4.2-2.5-7
							c-1.8-5.3-3.1-14-2.1-19c0.9-4.3,3.5-5.5,7.8-4.2c0.9,22.3,7.4,49.2,23,64c11.1,10.6,29,13.2,47.3,13.3
							C553.6,344.7,554.6,349,555.8,352.1z"/>
					</g>
					<path class="st5" d="M551.3,304.6c-25.5,4-39.8-2-52.3-16.3c-0.9-1-1.5-1.9-2.1-2.9c-2.7-4.1-4.6-12.9-6.2-16.7
						c-1.6-3.8-5.4-5.5-9.1-6.2s-5.9,0.6-6.6,4.5c-0.7,3.9-0.8,9.8,2.2,19.2"/>
					<path class="st5" d="M555.9,352.3c-54.3-4.5-63.6-22-76.3-59.5c-0.6-1.8-1.5-4-2.4-6.8"/>
					<path class="st5" d="M566.9,354.5c-0.8,0.1-1.5,0.2-2.3,0.3c-3.2,0.4-7,0.7-8-1c-5.9-11.8-5.9-49.6-4.5-51
						c2.1-2,7.6-3.4,9.6-3.1c6.8-2.2,24.2-4.9,34.2-0.8"/>
					<path class="st5" d="M563.1,346.2c-4.9-23.2-0.8-45.1-1.4-46.5"/>
					<path class="st4" d="M579,333.6c-4.4,5.8-10.3,13.3-12.1,21.1c-0.7,0.1-1.4,0.2-2.1,0.3c-3.2,0.4-7,0.7-8.1-1
						c-0.2-0.5-0.5-1-0.7-1.5c-1.7-4.2-2.8-10.7-3.5-17.6C554.9,338,565.7,337.9,579,333.6z"/>
					<path class="st5" d="M556.9,305c1.4-0.4,3-0.7,4.5-0.7"/>
					<path class="st5" d="M556.9,315.9c0.9-0.3,2.3-0.5,3.8-0.2"/>
					<path class="st5" d="M556.9,319.9c1-0.3,2.5-0.5,3.8,0"/>
				</g>
				<path class="st5" d="M480,293.6c7.3,1.1,14.3-1,19-5.4"/>
				<path class="st5" d="M482.7,262.6c-0.2,8,2.3,21.5,7.8,30.4"/>
			</g>
			<path class="st2" d="M731.8,470c1.4,4.4,7.7,15.3,0.3,17.1c-7.4,1.7-26.1,0.8-44.2,0.1c-15.5-0.6-29.6-1-29-2.1
				c4.3-5.4,11.3-11.7,29.4-14.9c-6.3-2.2-10.7-7.4-12.9-13.8c-7.6,2-15.7,2.8-24,2.8c0,0.2,0,0.3,0.1,0.5c0,0.2,0,0.4,0.1,0.5
				c0,0.2,0.1,0.4,0.1,0.6s0.1,0.4,0.1,0.6c0,0.2,0.1,0.4,0.1,0.6c0.1,0.4,0.2,0.8,0.3,1.2c0.1,0.2,0.1,0.4,0.2,0.6
				c0.2,0.6,0.3,1.2,0.5,1.8c0.2,0.5,0.3,1.1,0.5,1.6c1.2,3.8,2.9,8,4.3,11.4c0.1,0.3,0.2,0.6,0.2,0.9c0,0.1,0,0.2,0,0.2
				c0,0.1,0,0.2,0,0.3c-0.8,4-13.3,4.1-16.2,4.2c-5.3,0.2-11.8,0.5-17.1,0.6c-13.1,0.2-37.9,1.5-40.9,1.5c-1.5,0-2.7-0.1-2.8-0.6
				c0,0,0-0.1,0-0.1c-0.1-0.6,0.7-1.7,2.9-3.6c1.1-1,16.4-12.8,29.2-12.4h0.1c-1.9-1.9-3.8-4.9-5.3-8.4c-0.1-0.2-0.2-0.5-0.3-0.7
				c-0.2-0.5-0.4-1-0.6-1.5c-1.2-3-2.1-6.3-2.5-9.3c-0.5-0.2-1-0.4-1.5-0.7c-6.6-2.9-13.7-6-19.1-10.8c-5.1-4.5-6.3-7.5-7.1-7.9
				c-0.2-0.1-0.1,3.3-0.2,3.3c-2.3,0.8-5.8-12.3-6.7-13.8c-0.7-1.2-2.4,3.5-2.4,3.5s-4-7.9-3.9-15.3c-2.7-1.1-5.2-2.2-7.6-3.4
				c-0.6-0.3-1.2-0.7-1.8-1c-0.3-1.1-0.5-2.2-0.7-3.2c-0.2-1-0.3-2.1-0.3-3.1c-0.6-10.2,3.1-21.5,6.6-30.5c0.2-0.7,0.5-1.3,0.8-1.9
				c0.1-0.3,0.3-0.7,0.4-1c0.7-1.7,1.6-3.6,2.4-5.6c0.2-0.4,0.4-0.8,0.6-1.2c0.2-0.5,0.4-0.9,0.6-1.3c0.1-0.2,0.2-0.3,0.2-0.5
				c0.1-0.3,0.3-0.6,0.4-0.8c0.4-0.9,0.9-1.7,1.3-2.5c0.4-0.8,0.8-1.5,1.2-2.2c0,0,0,0,0,0c-0.1-0.2-0.2-0.3-0.2-0.5c0,0,0,0,0-0.1
				c-0.9-2-1.4-4-1.5-6.1c0-0.2,0-0.3,0-0.5c0-0.9,0-1.8,0-2.6c0.1-1.6,0.4-3.2,0.8-4.8c1.7-6.9,5.5-13.7,8.2-18.9
				c0.7-1.3,2.3-4.1,2.5-5.3c0,0,0,0,0-0.1v-0.1c0-0.8-1-1.9-1.2-3.2c0-0.1,0-0.1,0-0.2c0-0.4,0-0.9,0.2-1.3c0.3-0.6,1.1-2,1.9-3
				c0.2-0.3,0.4-0.6,0.7-0.8c0.1-0.1,0.2-0.2,0.2-0.2c0.2-0.2,0.4-0.3,0.5-0.3c0.1,0,0.2,0,0.2,0.2c0,0,0,0,0,0.1c0,0,0,0,0,0.1
				c0,0.2,0,0.3-0.1,0.4c0,0,0-0.1,0-0.1c0,0,0-0.1,0-0.1c0-0.1,0-0.2,0-0.2c0.1-1.2,0.3-4.4,0.4-7.1c0.1-2.5,0-4.8-0.2-4.8
				c-0.8-0.2-1.3,1.5-1.5,1.7c-0.6,0.6,0.3-1.5,0.4-2.3c0.2-2,0.5-4.4,0.2-6.5c-0.1-0.5-1,1-1.2,0.6c-0.5-1,0.2-2.9,0-4
				c-0.3-2.2-1.7-4.5-2.7-6.5c-11.2-22.4-18.6-49.8-4.7-73.4c3.1-5.3,6.9-9.4,11.8-12.6c-2.6-0.3-6.1-0.5-9.1,0.9
				c2.7-4.8,4.9-5.9,8.3-6.7c0.1-0.5-6.3-2.8-11.6-0.8c4.7-7.7,17.5-6.6,17.5-8.4c0-2.1-5.8-2.8-10.3-2.1c6.9-5.6,16.6-5.6,24.4-2.3
				c-3.3-3.5-3.2-8-1.1-10.5c5.4,5.3,14.6,8.9,26.1,9c-2.4-0.7-3.4-2.9-2.5-4.9c2.6,2.3,12.1,5.1,22.3,8.5c3.8,1.3,8.8,3.5,12.2,5.1
				c44.9,22.1,56.9,58.1,59.6,108.5c1.1,21.4,26.3,97.3,15.4,134.6C726.3,432.8,727,455.2,731.8,470z"/>
			<g>
				<path class="st6" d="M708,487.8c-2.6-0.1-5.3-0.1-7.9-0.2c-1.2,0-2.5-0.1-3.7-0.1c-2.9-0.1-5.7-0.2-8.5-0.3c-0.4,0-0.8,0-1.3,0
					c-0.3,0-0.6,0-0.9,0c-1.5-0.1-2.9-0.1-4.4-0.2c-0.3,0-0.7,0-1,0c-2.6-0.1-5.1-0.2-7.4-0.3c-0.3,0-0.7,0-1,0
					c-0.4,0-0.8,0-1.1-0.1c-0.5,0-0.9,0-1.4-0.1c-0.4,0-0.9,0-1.3-0.1c-0.5,0-1-0.1-1.4-0.1c-0.5,0-1-0.1-1.4-0.1
					c-0.9-0.1-1.7-0.1-2.5-0.2c-0.4,0-0.7-0.1-1-0.1c0,0-0.1,0-0.1,0c-0.3,0-0.5-0.1-0.8-0.1c-0.2,0-0.4,0-0.5-0.1
					c-0.1,0-0.2,0-0.2,0c-0.4-0.1-0.7-0.1-0.9-0.2c-0.1,0-0.1,0-0.2-0.1c-0.1,0-0.1,0-0.1-0.1c0,0-0.1-0.1-0.1-0.1c0,0,0-0.1,0-0.1
					c0.6-0.8,1.3-1.5,2-2.3c0.2-0.3,0.5-0.5,0.8-0.8c0.3-0.3,0.5-0.5,0.8-0.8c0.3-0.3,0.6-0.5,0.9-0.8c2-1.7,4.6-3.5,7.8-5.1
					c0.6-0.3,1.2-0.6,1.8-0.8c0.1,0,0.1,0,0.2-0.1c0.3-0.1,0.6-0.3,0.9-0.4c0.4-0.2,0.9-0.3,1.3-0.5c0.4-0.1,0.8-0.3,1.2-0.4
					c0.3-0.1,0.6-0.2,0.9-0.3c0.3-0.1,0.7-0.2,1-0.3c0.2-0.1,0.4-0.1,0.7-0.2c0.3-0.1,0.6-0.2,0.9-0.3c0.3-0.1,0.6-0.2,0.9-0.2
					c1-0.3,2-0.5,3-0.7c0.5-0.1,1.1-0.2,1.6-0.3c0.8-0.2,1.7-0.3,2.5-0.5C696.2,473.3,704.2,479,708,487.8z"/>
				<path class="st6" d="M626.6,484.8c-0.7,0-1.4,0-2.1,0c-13.1,0.2-37.9,1.5-40.9,1.5c-1.3,0-2.2,0-2.7-0.4
					c-0.5-0.4-0.2-1.2,1.4-2.7c0.1-0.1,0.2-0.2,0.3-0.3c0.1-0.1,0.2-0.2,0.3-0.3c0.2-0.2,0.5-0.4,0.7-0.7c1.1-1,16.4-12.8,29.3-12.4
					C618.2,473.1,623.7,478.3,626.6,484.8z"/>
			</g>
			<g>
				<path class="st4" d="M657.9,479.8c0,0.1,0,0.2,0,0.3c0,0.2-0.1,0.3-0.1,0.4c0,0.1-0.1,0.2-0.2,0.4c-0.1,0.2-0.3,0.4-0.6,0.6
					c-0.2,0.2-0.5,0.4-0.8,0.5c-0.1,0.1-0.3,0.2-0.5,0.2c-0.5,0.2-1,0.4-1.6,0.6c-1.2,0.4-2.6,0.7-4,0.9c-0.2,0-0.5,0.1-0.7,0.1
					c-0.2,0-0.5,0.1-0.7,0.1c-0.2,0-0.5,0-0.7,0.1c-1.6,0.2-3.2,0.2-4.4,0.3c-0.2,0-0.3,0-0.5,0c-0.1,0-0.2,0-0.3,0
					c-0.1,0-0.2,0-0.4,0c-0.4,0-0.7,0-0.9,0c-0.3,0-0.6,0-0.9,0s-0.6,0-0.9,0c-0.8,0-1.6,0.1-2.4,0.1c-0.6,0-1.3,0-1.9,0.1
					c-0.5,0-0.9,0-1.4,0c-1.1,0-2.1,0.1-3.2,0.1c-1.5,0-3,0.1-4.4,0.1c-0.7,0-1.4,0-2.1,0c-13.1,0.2-37.9,1.5-40.9,1.5
					c-0.2,0-0.4,0-0.6,0c-0.1,0-0.3,0-0.4,0c-0.1,0-0.1,0-0.2,0c-0.1,0-0.1,0-0.2,0c-0.2,0-0.3,0-0.5-0.1c0,0-0.1,0-0.1,0
					c-0.1,0-0.2,0-0.2,0c0,0,0,0-0.1,0c0,0-0.1,0-0.1,0c0,0-0.1,0-0.1-0.1c-0.1,0-0.1,0-0.1-0.1c0,0-0.1-0.1-0.1-0.1
					c-0.1-0.1-0.1-0.2-0.1-0.3c0,0,0-0.1,0-0.1s0-0.1,0-0.1s0-0.1,0-0.1c0-0.1,0.1-0.2,0.1-0.3c0,0,0,0,0-0.1c0,0,0-0.1,0.1-0.1
					c0-0.1,0.1-0.1,0.1-0.2s0.1-0.2,0.2-0.3c0,0,0-0.1,0.1-0.1c0.1-0.1,0.2-0.3,0.4-0.5c0.1-0.1,0.1-0.2,0.2-0.3
					c0.1-0.1,0.2-0.2,0.3-0.3c0.1-0.1,0.2-0.2,0.3-0.3c0.1-0.1,0.2-0.2,0.3-0.3c0.2-0.2,0.5-0.4,0.7-0.7c0,0,0.1,0,0.1,0
					c0,0,0.1,0,0.1-0.1c0,0,0.1-0.1,0.1-0.1c0,0,0.1,0,0.1-0.1c0.2-0.2,0.5-0.4,0.9-0.7c0.1,0,0.1,0,0.1-0.1c0,0,0.1,0,0.1-0.1
					c2.1-1.5,6.2-4.4,11.1-6.8c0.1-0.1,0.3-0.1,0.4-0.2c1-0.5,2-0.9,3-1.3c0.1-0.1,0.3-0.1,0.4-0.2c0.1,0,0.1,0,0.1-0.1
					c0.6-0.2,1.2-0.5,1.8-0.7c0.9-0.3,1.8-0.6,2.6-0.8c0.3-0.1,0.5-0.2,0.8-0.2c0.8-0.2,1.6-0.4,2.4-0.5c0.1,0,0.1,0,0.2,0
					c0,0,0.1,0,0.1,0c0.2,0,0.4-0.1,0.6-0.1c0.1,0,0.2,0,0.3,0c0,0,0.1,0,0.2,0s0.1,0,0.1,0c0.2,0,0.4,0,0.6-0.1c0.1,0,0.2,0,0.3,0
					c0.3,0,0.6,0,1-0.1c0.4,0,0.7,0,1.1,0c0.2,0,0.5,0,0.7,0c0,0-0.1,0-0.1-0.1l-0.3-0.3c-0.6-0.6-1.1-1.3-1.7-2.1
					c-1.3-1.8-2.5-4.1-3.5-6.6c-0.2-0.5-0.4-1-0.6-1.5c-1.2-3-2-6.3-2.5-9.3c13.6,5.7,30.6,9.4,47.1,9.5c0,0.2,0.1,0.3,0.1,0.5
					c0,0.2,0,0.4,0.1,0.6c0,0.2,0.1,0.4,0.1,0.6s0.1,0.4,0.1,0.6c0,0.2,0.1,0.4,0.1,0.6c0.1,0.4,0.2,0.8,0.3,1.2
					c0.1,0.2,0.1,0.4,0.2,0.6c0.9,3.3,2.2,7,3.6,10.5c0.4,1.1,0.8,2.2,1.3,3.2c0.2,0.4,0.3,0.9,0.5,1.3
					C657.8,479.1,657.9,479.4,657.9,479.8z"/>
				<path class="st4" d="M735,485.2c-0.2,0.3-0.4,0.5-0.6,0.7c-0.5,0.5-1.3,0.9-2.3,1.1c-4.7,1.1-12.3,1.1-24.1,0.8
					c-0.2,0-0.3,0-0.5,0c-1.1,0-2.2-0.1-3.3-0.1c-2.2-0.1-4.4-0.1-6.6-0.2c-0.5,0-1.1,0-1.6-0.1c-0.6,0-1.2,0-1.8-0.1
					c-0.8,0-1.5-0.1-2.3-0.1c-1.3,0-2.7-0.1-4-0.1c-1,0-2-0.1-3-0.1c-0.4,0-0.8,0-1.2,0c0,0-0.1,0-0.1,0c-0.2,0-0.4,0-0.6,0
					c-0.5,0-0.9,0-1.4,0c-1.4,0-2.8-0.1-4.1-0.2c-0.3,0-0.6,0-0.9,0c-0.1,0-0.2,0-0.3,0c-0.2,0-0.4,0-0.6,0c-0.6,0-1.2,0-1.8-0.1
					c-0.3,0-0.5,0-0.8,0c-0.3,0-0.6,0-0.9,0c-1,0-2-0.1-2.9-0.1c-0.2,0-0.4,0-0.5,0c-0.2,0-0.3,0-0.4,0c-0.1,0-7.9-0.7-8-0.7
					c12-4.7,32.8-6.1,42.7-5.5h0.1c4.4,0.3,7.9,0.7,9.8,0.8c6.7,0.2,9.1-1.3,6.3-10.7c-2.7-9-11.1-25.6-5.7-53.4
					c5.7,0.8,14.9,1.1,20.1,1.1c-7.5,15.7-6.1,38.6-1.7,52.1C733,473.5,737.3,481.4,735,485.2z"/>
			</g>
			<g>
				<line class="st7" x1="591.1" y1="292.7" x2="591.1" y2="298.7"/>
				<line class="st7" x1="597.4" y1="295.7" x2="597.4" y2="301.7"/>
			</g>
			<path class="st1" d="M739.2,416.7c-18.8,4.4-57.7,4.4-82,4.3c-8.4,0.1-16.7,0-24.6-0.3c-16.8-0.6-34.5-3.3-50.1-7
				c-4.1-1-8.1-2-11.8-3.2c-2.6-0.8-5-1.6-7.3-2.4c-2.8-1.1-5.3-2.2-7.6-3.4c-0.6-0.3-3.7-1.4-3.8-2.3c-0.2-1.2,1.6-16.4,3-22
				c0.6-2.4,1.4-4.8,2.1-7.1c0.8-2.3,1.6-4.5,2.4-6.6c0.2-0.7,0.5-1.3,0.8-1.9c0.1-0.3,0.3-0.7,0.4-1c0.7-1.7,1.6-3.7,2.4-5.6
				c0.2-0.4,0.4-0.8,0.6-1.2c0.2-0.5,0.4-0.9,0.6-1.3c0.1-0.2,0.2-0.4,0.2-0.5c0.2-0.3,0.3-0.6,0.4-0.8c0.1-0.2,0.2-0.4,0.3-0.6
				c0.3-0.6,0.6-1.2,1-1.8c0.4-0.8,0.8-1.5,1.2-2.2c0,0,0,0,0-0.1c-0.1-0.2-0.2-0.3-0.2-0.5c0,0,0,0,0-0.1c-0.9-1.9-1.4-4-1.5-6.1
				c0-0.2,0-0.3,0-0.5c0-0.6,0-1.2,0-1.8v-0.1c0-0.2,0-0.5,0.1-0.7c0.1-1.6,0.4-3.2,0.8-4.8c0.3-1.3,0.7-2.6,1.1-3.9
				c1.9-5.5,4.8-10.8,7-15.1c0.1-0.2,0.2-0.3,0.3-0.6c0.1-0.2,0.2-0.4,0.3-0.6c0.1-0.2,0.3-0.5,0.4-0.7c0.1-0.2,0.3-0.5,0.4-0.8
				c0.3-0.6,0.6-1.2,0.8-1.8c0.1-0.2,0.1-0.4,0.2-0.6c0-0.1,0-0.2,0.1-0.2c0,0,0,0,0-0.1v-0.1c0-0.8-1-1.9-1.2-3.2
				c0-0.1,0-0.1,0-0.2c0-0.3,0-0.7,0.1-1c0-0.1,0.1-0.2,0.1-0.3c0.3-0.6,1.1-1.9,1.9-3c0.2-0.3,0.4-0.6,0.7-0.8
				c0.1-0.1,0.1-0.1,0.2-0.2c0.1-0.1,0.3-0.2,0.4-0.3c0,0,0.1,0,0.1,0c0.1,0,0.1,0,0.1,0c0,0,0.1,0.1,0.1,0.1c0,0,0,0,0,0.1
				c0,0,0,0.1,0,0.1c0,0.1,0,0.1,0,0.1c0,0.1,0,0.1,0,0.2c0,0,0,0.1,0,0.1c10.8,3.1,20.6,5,29.5,6c25.3,2.9,43.8-1.1,58.2-5
				c10.4-2.8,30.9-9,50.8-17.6C718.9,308.4,744,362.4,739.2,416.7z"/>
			<path class="st4" d="M716.1,374c1.8,8.4,2.3,19.6,1.4,27.8c-0.9,8.2-0.7,18.4-15.2,18.7c18.3-1.1,35.9-3.1,36.9-3.8
				c1.4-9.1,3-36.7-6.7-70.3C728.8,353.5,720.4,366.7,716.1,374z"/>
			<path class="st5" d="M661.1,485c7.7-3.9,17.1-6.7,26.3-7.8c4-0.5,8-0.7,11.8-0.5"/>
			<path class="st5" d="M582.9,485.1c4.9-4.1,27.2-12.3,35.5-10.9"/>
			<path class="st5" d="M688.3,470.1c8.1,3.2,15.9,9.3,19.7,17"/>
			<path class="st5" d="M612.9,469.5c5.4,3.6,10.4,7.9,13.3,13.6"/>
			<g>
				<path class="st5" d="M675.4,456.3c2.2,6.4,6.6,11.6,12.9,13.8c-18.1,3.2-25.1,9.5-29.4,14.9c-0.5,1.1,13.5,1.6,29,2.1
					c18,0.7,36.7,1.6,44.2-0.1c7.4-1.7,1.2-12.7-0.3-17.1c-4.8-14.8-5.6-37.2,1.7-52.1"/>
				<path class="st5" d="M651.4,459.1c0,0.2,0,0.3,0.1,0.5c0,0.2,0.1,0.4,0.1,0.6c0,0.2,0.1,0.4,0.1,0.6c0,0.2,0.1,0.4,0.1,0.6
					c0,0.2,0.1,0.4,0.1,0.6c0.1,0.4,0.2,0.8,0.3,1.2c0.1,0.2,0.1,0.4,0.2,0.6c0.2,0.6,0.3,1.2,0.5,1.8c0.2,0.5,0.3,1.1,0.5,1.6
					c1.2,3.9,2.9,7.9,4.3,11.4c0.1,0.3,0.2,0.6,0.2,0.9c0,0.1,0,0.2,0,0.2c0,0.1,0,0.2,0,0.3c-0.8,4-13.3,4.1-16.2,4.2
					c-5.3,0.2-11.8,0.5-17.1,0.6c-13.1,0.2-37.8,1.5-40.9,1.5c-1.5,0-2.7-0.1-2.8-0.7c0,0,0-0.1,0-0.1c-0.1-0.6,0.7-1.7,2.9-3.6
					c1-1,16.4-12.8,29.2-12.4c0,0,0,0,0.1,0c-1.9-1.9-3.8-4.9-5.3-8.4c-0.1-0.2-0.2-0.5-0.3-0.7c-0.2-0.5-0.4-1-0.6-1.5
					c-1.2-3-2.1-6.3-2.5-9.3"/>
			</g>
			<g>
				<path class="st8" d="M566.9,226.7c1.1-11.6,4.8-16.6,11.7-20.3c9.3-4.9,14.2-7,24.3-8c3.6-0.3,7.7-0.5,8.3-4.1
					c0.3-1.6-0.3-3.3-1.9-5.5c3.2,0,6.6,1.3,9.2,3.4c5.2,4.2,13.1,6.8,19.3,6.6c21.7-0.7,35.5,1.8,46,20.9c2.4,4.3,6,14.1,3.5,25
					c-3.6,15.9-5.5,22.6-22.7,34.5c-20.5,14.2-63,21.2-84.2-5.6C570.5,261.2,565.3,244,566.9,226.7z"/>
				<path class="st9" d="M608.4,234.7c-7.2-3.6-13,14.5-12.4,19.7c2,17.8,28,16.9,40.1,10.8c17.4-8.7-3.9-36.7-16.3-31.8"/>
				<path class="st9" d="M566.9,226.7c-1.4,13.6,2.3,28.9,5.3,31.1c2.3,1.7,14.4-5.6,22.4-17.6c8.5-12.6,9.5-32.8,4.1-39.3
					c-1.1-1.4-15.8,1.5-24.6,7.9C571.4,210.9,568.2,214.6,566.9,226.7z"/>
				<path class="st9" d="M634.3,200c-7.8,44.6,43.2,68.6,48.2,61.4c3.2-4.6,10-24,2.4-39.4c-3.9-7.9-9.9-11.3-14.7-14
					c-6-3.3-13.8-5.7-22.2-7.3C641.8,199.5,634.7,197.5,634.3,200z"/>
			</g>
			<g>
				<path class="st10" d="M604.1,234.7c-0.1-2.7,5.2-5.1,11.8-5.5c6.7-0.3,12.2,1.6,12.3,4.3c0.1,2.7-5.2,5.1-11.8,5.5
					C609.7,239.3,604.2,237.4,604.1,234.7z"/>
				<path class="st11" d="M615.5,236c0,4.8,1.1,12.9,3.8,18.3"/>
			</g>
			<g>
				<path class="st12" d="M681.8,217.7c-11.9-13.5-27.7-17.8-46.2-17.6"/>
				<path class="st12" d="M563.4,221.8c9.8-13,17.1-17.8,35.3-20.9"/>
			</g>
			<path class="st11" d="M607.5,251c5.5,6.5,19,3.7,22.2-5"/>
			<line class="st7" x1="592.6" y1="423.4" x2="592.6" y2="429.4"/>
			<line class="st7" x1="598.8" y1="427.4" x2="598.7" y2="433.4"/>
			<path class="st4" d="M558.2,370.5c3.6-4.3,8-10.1,10.1-11.3c4.3-2.7,10.4-2.3,15.2-2.3c12.4,0,22,10.2,35.2,11.5
				c8.1,0.8,29.9-7.7,27.6-11.6c-1.9-3.2-12.4,0.1-29.4-0.4c-12.7-0.4-24.2-1.5-36.6-3.6c-3-0.5-10.1-0.5-12.6-5
				c-0.5,2-2.7,6.8-3.7,8.9C561.6,361.3,559.6,367,558.2,370.5z"/>
			<path class="st5" d="M579.7,302.4c41.2,11.8,83.1,3.4,87.7,1.1"/>
			<path class="st5" d="M657.2,421.1c-8.4,0.1-16.7,0-24.5-0.3c-21.3-0.8-43.9-4.9-61.9-10.2c-2.6-0.8-13.8-4.9-18.7-8.2
				c1.1-14.5,4.1-26.7,7.6-35.6c0.2-0.7,0.5-1.3,0.8-1.9c0.1-0.3,0.3-0.7,0.4-1c0.7-1.7,1.6-3.7,2.5-5.6c0.2-0.4,0.4-0.8,0.6-1.2
				c0.2-0.5,0.4-0.9,0.6-1.3c0.1-0.2,0.2-0.3,0.2-0.5c0.2-0.3,0.3-0.6,0.4-0.9c0.9-1.7,1.7-3.3,2.5-4.7c0,0,0,0,0,0
				c-0.1-0.2-0.2-0.4-0.2-0.5c0,0,0,0,0-0.1c-0.9-1.9-1.4-4-1.5-6.1c0-0.2,0-0.3,0-0.5c-0.1-0.9,0-1.8,0-2.6
				c0.1-1.6,0.4-3.2,0.8-4.8c1.7-6.9,5.5-13.7,8.2-18.9c0.7-1.3,2.4-4.1,2.5-5.3c0,0,0,0,0-0.1c0,0,0,0,0-0.1c0-0.8-1-1.9-1.2-3.2
				c0-0.1,0-0.1,0-0.2c0-0.4,0-0.9,0.2-1.3c0.3-0.6,1.1-2,1.9-3c0.2-0.3,0.5-0.6,0.7-0.8c0.1-0.1,0.1-0.2,0.2-0.2
				c0.2-0.2,0.4-0.3,0.5-0.3c0.1,0,0.2,0,0.2,0.2c0,0,0,0.1,0,0.1c0,0.1,0,0.2,0,0.3c0,0.1,0,0.1,0,0.1c0,0,0,0.1,0,0.1
				c0,0,0,0,0,0.1"/>
			<path class="st5" d="M586.1,304.5c-0.6,1.7-1.2,3-1.2,4.9"/>
			<path class="st5" d="M596.6,306.6c-0.8,1.6-0.9,3.6-0.9,5.4"/>
			<line class="st5" x1="609.2" y1="308.2" x2="608.5" y2="312.4"/>
			<polyline class="st5" points="618,309.4 618,310.1 618,310.6 618,311.3 618,311.7 618,312.2 618,312.7 			"/>
			<polyline class="st5" points="613.1,309.6 613.1,310.1 613.1,310.6 613.1,311 613.1,311.5 613.1,312 			"/>
			<polyline class="st5" points="647.9,308.2 647.9,308.7 647.9,309.2 647.9,310.1 647.9,310.6 			"/>
			<polyline class="st5" points="651.4,308.2 651.4,308.9 651.4,309.6 651.4,310.1 			"/>
			<path class="st5" d="M687.9,451.7c-10.6,5.3-23.4,7.5-36.6,7.4c-16.5-0.1-33.5-3.8-47.2-9.5c0,0,0,0,0,0c-0.5-0.2-1-0.4-1.5-0.7
				c-6.6-2.9-13.7-6-19.1-10.8c-5-4.5-6.3-7.4-7.1-7.9c-0.2-0.1-0.1,3.3-0.2,3.3c-2.3,0.8-5.8-12.3-6.7-13.8
				c-0.7-1.2-2.4,3.5-2.4,3.5s-4-7.9-3.9-15.3c0,0,0-0.1,0-0.1"/>
			<path class="st5" d="M577.1,310.7c7.6,5.6,39.4,12.4,80.6,5.9"/>
			<g>
				<path class="st0" d="M655.7,213.6c6.2-0.4,11.5,4.3,11.9,10.5l0,0.7c0.4,6.2-4.4,11.4-10.6,11.8c-6.2,0.4-11.5-4.3-11.9-10.5
					l0-0.7C644.8,219.3,649.5,214,655.7,213.6z"/>
				<path class="st13" d="M655.7,213.6c6.2-0.4,11.5,4.3,11.9,10.5l0,0.7c0.4,6.2-4.4,11.4-10.6,11.8c-6.2,0.4-11.5-4.3-11.9-10.5
					l0-0.7C644.8,219.3,649.5,214,655.7,213.6z"/>
				<circle class="st14" cx="652.9" cy="225.3" r="2.7"/>
			</g>
			<g>
				<path class="st0" d="M581.6,214.3c5.9-0.3,10.9,4.1,11.2,9.9l0,0.7c0.3,5.8-4.1,10.8-10,11.2c-5.9,0.3-10.9-4.1-11.2-9.9l0-0.7
					C571.2,219.6,575.7,214.6,581.6,214.3z"/>
				<path class="st13" d="M581.6,214.3c5.9-0.3,10.9,4.1,11.2,9.9l0,0.7c0.3,5.8-4.1,10.8-10,11.2c-5.9,0.3-10.9-4.1-11.2-9.9l0-0.7
					C571.2,219.6,575.7,214.6,581.6,214.3z"/>
				<circle class="st14" cx="579.3" cy="225.3" r="2.7"/>
			</g>
			<path class="st5" d="M719,293.7c-1.8-13.6-2.1-35.2-6.6-52.2c-7.9-30.2-25.9-52.8-54-66.6c-3.4-1.6-8.4-3.8-12.2-5.1
				c-10.2-3.4-19.7-6.1-22.3-8.5c-1,2.1,0,4.2,2.4,4.9c-11.5-0.2-20.7-3.8-26.1-9.1c-2.1,2.5-2.2,7,1.1,10.5
				c-7.8-3.3-17.5-3.3-24.4,2.3c4.6-0.7,10.3,0,10.3,2.1c0,1.8-12.7,0.7-17.5,8.4c5.2-2,11.7,0.3,11.6,0.8c-3.4,0.8-5.6,1.9-8.3,6.7
				c3-1.4,6.5-1.2,9.1-0.9c-4.8,3.2-8.6,7.3-11.8,12.6c-13.9,23.5-6.5,51,4.7,73.4c1,2,2.4,4.2,2.7,6.5c0.2,1.1-0.5,3,0,4
				c0.2,0.4,1.2-1.1,1.3-0.6c0.3,2.1,0,4.4-0.2,6.5c-0.1,0.8-1,2.8-0.4,2.3c0.2-0.2,0.7-1.9,1.5-1.7c0.4,0.1,0,11.3-0.3,12.4"/>
			<path class="st5" d="M701.6,420.6c6.2-0.3,22.4-0.9,32-2.7"/>
			<path class="st4" d="M668.3,457.8c-0.3,0-0.6,0.1-0.9,0.1c-0.4,0.1-0.8,0.1-1.2,0.2c-0.6,0.1-1.2,0.2-1.8,0.2
				c-1.2,0.1-2.3,0.3-3.5,0.4c-3.2,0.3-6.4,0.4-9.7,0.4c-16.5-0.1-33.5-3.8-47.1-9.5c-0.6-0.2-1.1-0.5-1.6-0.7
				c-2.9-1.3-5.9-2.6-8.8-4c-0.8-0.4-1.6-0.9-2.4-1.3c-2.1-1.2-4.1-2.4-5.9-3.9c-0.7-0.5-1.3-1-1.9-1.6c-0.3-0.3-0.6-0.6-0.9-0.8
				c-0.4-0.4-0.8-0.8-1.2-1.1c-0.5-0.5-0.9-1-1.3-1.4c-0.2-0.2-0.4-0.4-0.6-0.6c-0.2-0.2-0.3-0.4-0.5-0.6c-1.3-1.6-2-2.7-2.4-3.1
				c-0.1,0-0.1-0.1-0.2-0.1c-0.2-0.1-0.1,3.3-0.2,3.3c-0.1,0-0.3,0-0.4,0c-0.4-0.1-0.9-0.7-1.4-1.5c-0.2-0.3-0.3-0.6-0.5-0.9
				c-1-1.9-2-4.7-2.8-7c-0.1-0.2-0.1-0.4-0.2-0.6c-0.7-1.9-1.2-3.4-1.4-3.8c-0.1-0.1-0.1-0.2-0.2-0.2c-0.1,0-0.3,0-0.4,0.2
				c-0.3,0.3-0.6,0.9-0.9,1.5c0,0.1-0.1,0.1-0.1,0.2c0,0,0,0,0,0.1c-0.1,0.2-0.2,0.4-0.3,0.7c0,0.1-0.1,0.2-0.1,0.3
				c-0.2,0.4-0.3,0.8-0.3,0.8c-0.1-0.1-1-2-1.9-4.7c-0.1-0.2-0.1-0.4-0.2-0.5c-0.1-0.4-0.2-0.8-0.4-1.1c-0.8-2.6-1.5-5.8-1.4-8.8
				c0,0,0-0.1,0-0.1c1.7,0.7,3.4,1.2,5.1,1.8c0,0,0.1,0,0.1,0c0.9,0.3,1.7,0.6,2.2,0.7c3.8,1.1,7.7,2.2,11.8,3.2
				c15.6,3.7,33.2,6.4,50.1,7c3.2,0.1,6.5,0.2,9.9,0.2c-25.9,0.3-47.6-3.5-58.2-4c-3.4-0.1-5.7,0.1-6.6,0.9c-1.4,1.3-0.5,8,7.1,15.3
				c2.3,2.2,5.2,4.4,8.8,6.5C612.2,450.7,646.7,459.9,668.3,457.8z"/>
			<path class="st4" d="M719,293.7c-7.6-1.8-14.9-1.7-24.2,1.2c6.9-67.5-17.3-95.7-42.5-106.5c-4.8-2.1-11.3-9-15.9-10.1
				c0.5,3.8-5.7,4-9,3.6c-4.2-0.5-9.3-6.5-20-9.2c5.3,5.9,1.2,8.9-1.9,9.4c-2.2,0.4-8-2.5-13.7-0.6c2.9,1.4,2.3,3.4,0,4.3
				c-12,4.6-20.4,11.8-23.7,18.3c0.7-1.5,1.5-3,2.4-4.5c1-1.7,2-3.2,3.1-4.6c0.9-1.2,1.9-2.2,2.9-3.2c1.7-1.8,3.6-3.3,5.8-4.7
				c-2.6-0.3-6.1-0.5-9.1,0.9c0.6-1,1.2-1.9,1.7-2.6c0.2-0.2,0.3-0.4,0.5-0.6c1.8-2.2,3.7-2.9,6.1-3.5c0,0,0-0.1,0-0.1
				c0,0-0.1-0.1-0.1-0.1c-1-0.7-6.7-2.4-11.4-0.7c0.2-0.2,0.3-0.5,0.5-0.7c0.3-0.5,0.7-0.9,1.1-1.2c2.4-2.5,5.9-3.7,9-4.5
				c0.7-0.2,1.4-0.3,2-0.5c0.2,0,0.4-0.1,0.6-0.1c0.6-0.1,1.2-0.2,1.7-0.3c0.2,0,0.3-0.1,0.5-0.1c0.3-0.1,0.6-0.1,0.9-0.2
				c0.8-0.2,1.2-0.5,1.2-0.8c0-2.1-5.8-2.8-10.3-2.1c6.9-5.6,16.6-5.6,24.4-2.3c-3.3-3.5-3.2-8-1.1-10.5c5.4,5.3,14.6,8.9,26.1,9
				c-0.8-0.2-1.4-0.6-1.9-1.1c-0.1-0.1-0.2-0.3-0.4-0.5c-0.6-0.9-0.7-1.9-0.4-3c0-0.1,0.1-0.3,0.2-0.4c2.6,2.4,12.1,5.1,22.3,8.5
				c0.7,0.2,1.5,0.5,2.2,0.8c0.5,0.2,1.1,0.4,1.6,0.6c2.9,1.2,6,2.5,8.4,3.7c2.1,1,4.1,2.1,6.1,3.2c1.3,0.7,2.5,1.5,3.7,2.2
				c0.7,0.4,1.3,0.8,2,1.3c17.2,11.2,30.4,27.4,38.1,46.8C716.7,248.7,717.5,282.7,719,293.7z"/>
			<g>
				<g>
					<g>
						<path class="st14" d="M606,342.2c-0.4-1.7-1.8-3.1-4.6-3.4c-5.7-0.7-11.8-1.2-19-1.8c-0.2,0.6-0.4,1.1-0.7,1.7
							c-1.4,3.2-3.3,6.2-5.3,9.1c-0.5,0.7-1,1.4-1.5,2.2c-0.4,0.6-0.8,1.2-1.2,1.8c-2.6,4.1-4.9,8.4-5.5,13.5
							c3.3,0.2,6.4,0.5,9.7,0.8c0.1-4.3,1.9-8,4.2-11.5c2.9-0.2,3.3,1.1,3.4,2.8c0.1,3.1,0.7,6.4,2.2,9.8c3.5,0.4,6.7,0.9,10.4,1.3
							c-1.8-3.6-1.5-7.4-2.2-10.4c-0.1-0.6-0.3-1.1-0.5-1.6c-0.4-0.8-0.8-1.5-1.5-2.1c0.5-0.1,0.8-0.1,1.1-0.2
							c1.8-0.4,3.5-1,4.9-1.8c0.1,0,0.1-0.1,0.2-0.1c2.5-1.4,4.4-3.5,5.4-6.2C606.1,344.7,606.3,343.4,606,342.2z M589.5,343.7
							c2,0.1,3.9,0.2,5.5,0.5c1.6,0.3,1.9,1.5,1,2.9c-0.8,1.4-2.4,2.3-4.1,2.4c-2,0.1-4-0.1-6-0.2
							C587.4,347.2,588.5,345.5,589.5,343.7z"/>
						<path class="st14" d="M632.2,349.3c-3.3,0-6.1-0.1-9-0.1c0.6-2.5-0.4-4-2.8-4.2c-1.5-0.2-2.9,0.2-4.1,1.9
							c-0.5,1.4,0.2,2,1.2,2.4c1.8,0.7,3.7,1.4,5.6,2.2c1.1,0.4,2.1,1,3,1.6c6.1,3.8,2.1,12.4-4.2,15.9c-2.1,1.2-4.5,1.8-6.7,2
							c-3.5,0.3-6.9-0.3-10.1-1.6c-4.2-1.8-6.4-6-4.2-10.8c2.8,0.2,5.5,0.3,8.5,0.4c-0.1,0.6-0.2,1.2-0.2,1.7
							c-0.1,3,2.6,4.7,5.8,3.9c1.5-0.4,2.7-1.2,3.3-2.6c0.5-1.3,0.1-2.3-0.8-2.9c-0.8-0.5-1.8-0.9-2.6-1.3c-1.8-0.9-3.7-1.6-5.3-2.6
							c-3-2-3.2-4.8-1.5-8.1c2-3.6,5-6.4,9-7.3c3.8-0.8,7.5-0.6,11.2,0.9C631.9,342.2,633.5,344.8,632.2,349.3z"/>
					</g>
				</g>
			</g>
			<g>
				<path class="st2" d="M711.3,374c-10.3,14.5-46.7,34.3-64.8,31.4c-31.9-5.1-69.4-32.6-93.2-60.2c-11-12.7-17.7-29-13.6-29.3
					c4.3-0.4,18.9,13.5,27.8,19c37.5,23.2,56.5,27.6,69.3,27.6c7.3,0,17.8-3.8,27.6-15.1C674.1,336.1,722,358.8,711.3,374z"/>
				<path class="st6" d="M570.7,336.9c-1,8.6-4.9,13.4-9.3,17.2c-2.9-2.9-5.6-5.9-8.2-8.9c-11-12.7-17.7-29-13.6-29.3
					c4.3-0.4,18.9,13.5,27.8,19C568.6,335.6,569.7,336.3,570.7,336.9z"/>
				<path class="st1" d="M712.8,375.3c-0.5-0.2-1-0.6-1.5-1.3c-18.7-22.3-34.8-24.2-46.1-26c-0.1,0-0.3,0-0.4-0.1
					c-6.5-1.2-3-6.3,0.9-10.3c0.4-1.6,1.1-4.5,1.5-8.3c2.1-3.1,4.9-7,5.9-10.6l21.7-23.5c13.1-3.7,27.4-5.4,37.6,8.1
					c12.4,16.5,8.3,33.5-13.4,65.9C717.5,371.4,715.7,376.7,712.8,375.3z"/>
				<path class="st4" d="M712.8,375.3c-0.5-0.2-1-0.6-1.5-1.3c-2.5-2.9-4.9-5.5-7.3-7.8c3-3.4,5.9-7,8.5-10.7
					c8.1-11.3,25.7-43.2,12.1-59.5c3.3,2.1,6.5,5.7,8.3,8.3c11.2,16.5,7.7,32.6-14.1,65.1C717.5,371.4,715.7,376.7,712.8,375.3z"/>
				<path class="st5" d="M665.2,348c-6-4-3.3-6.4,0.7-10.6"/>
				<path class="st5" d="M667.1,329.3c-0.4,4-1.1,7-1.5,8.5"/>
				<path class="st5" d="M694.7,295.3c13.7-3.9,27.4-5.4,37.6,8.1c11.9,15.8,8.4,33.5-13.4,66c-1.6,2.4-3.9,9.2-7.6,4.6
					c-7.9-9.7-19-19.5-34.5-23.8"/>
				<path class="st5" d="M666.5,338.3c13.2-0.4,30.9,5.4,41.1,18"/>
				<path class="st5" d="M675.5,339.7c-0.7,1.6-0.9,2.8-1.2,4.5"/>
				<line class="st5" x1="684.8" y1="342.4" x2="683.6" y2="346.2"/>
				<line class="st5" x1="693.3" y1="345.8" x2="691.2" y2="349.2"/>
				<g>
					<line class="st7" x1="683.6" y1="376.6" x2="679.3" y2="380.7"/>
					<line class="st7" x1="676" y1="375.5" x2="671.8" y2="379.6"/>
				</g>
			</g>
			<path class="st5" d="M711.3,374c-10.3,14.5-46.7,34.3-64.8,31.4c-31.9-5.1-69.4-32.6-93.2-60.2c-11-12.7-17.7-29-13.6-29.3
				c4.3-0.4,18.9,13.5,27.8,19c37.5,23.2,56.5,27.6,69.3,27.6c7.3,0,17.5-4,27.3-15.3"/>
			<path class="st5" d="M570.7,337c-1,8.6-4.9,13.4-9.3,17.2"/>
			<path class="st5" d="M538.7,316.6c6.4,8.9,20.3,22.9,29.3,29.6"/>
			<path class="st4" d="M711.3,374c-10.3,14.5-46.7,34.3-64.8,31.4c-31.9-5.1-69.4-32.6-93.2-60.2c-11-12.7-17.7-29-13.6-29.3
				c0.9-0.1,2.2,0.4,3.8,1.3c0.6,6.4,5.1,15.4,18.4,28.3c15.5,15.1,38.5,32.9,63.8,43.4c25.2,10.5,35.9,9,52-0.5
				c12.6-7.4,20.3-14.1,27.6-21.1C707.2,369.3,709.2,371.5,711.3,374C711.3,374,711.3,374,711.3,374z"/>
			<path class="st5" d="M732.5,346.4c5,21.5,8.9,45.9,6.7,70.3c-1.7,0.4-3.7,0.8-5.7,1.1"/>
		</g>
		<g>
			<path class="st2" d="M221.8,200.9c0.4,4,0.2,10.3-0.3,16.1c-0.1,1.6-0.3,3.2-0.5,4.8c-1,0.3-2,0.6-3,0.9
				c-1.3,0.4-2.6,0.8-3.8,1.1l-0.3,0.1c-1.2,0.4-2.4,0.7-3.5,1.1c-0.1,0-0.2,0.1-0.2,0.1c-0.7,0.2-1.4,0.4-2.1,0.7
				c-7.2,2.3-12.6,4.3-17.5,6.2c-1,0.4-1.9,0.8-2.9,1.2c-0.6,0.3-1.3,0.5-1.9,0.8c-0.2,0.1-0.4,0.2-0.6,0.3c-0.7,0.3-1.3,0.6-2,0.9
				c-0.1,0-0.1,0.1-0.2,0.1c-1,0.4-1.9,0.8-2.8,1.3c-1.3,0.6-2.6,1.2-3.9,1.8c-1.4,0.6-2.8,1.3-4.2,1.9c-0.7,0.3-1.5,0.7-2.3,1
				c-0.4,0.2-0.8,0.4-1.2,0.5c-16.3,7.3-24.8,10.3-32.3,12.2c-3.8,1-7.4,1.8-11.5,2.7c-0.5,0.1-1.1,0.2-1.7,0.3
				c-0.4,0.1-0.8,0.1-1.2,0.2c-0.4,0.1-0.8,0.1-1.1,0.2c-0.1,0-0.1,0-0.1,0c-0.5,0.1-1,0.1-1.5,0.2c-15.8,1.7-29-4.3-31.8-14
				c-2.2-7.5,1.8-17.2,15.9-27c1.4-1,2.8-1.9,4.4-2.9c0.6-0.4,1.2-0.7,1.8-1.1c13.4-7.7,26.9-9.5,41.3-10.4c0.7,0,1.4-0.1,2.1-0.1
				c0.6,0,1.3-0.1,1.9-0.1c27.8-1.5,38.5-0.2,57-0.6c0,0,0.1,0,0.1,0c1.2,0,2.5-0.1,3.9-0.1C217.5,201.1,219.6,201,221.8,200.9z"/>
			<path class="st6" d="M220.6,221.9c-3.2-4.1-6.5-10.8-5.6-17.9c0.1-0.8,0.3-2.1,0.4-2.9c28.9-13,47.9-8.5,48.6-3.1
				c0.4,2.9-12.8,5.3-22.8,12.3C232.5,216.6,225.8,221.3,220.6,221.9z"/>
			<path class="st15" d="M103.1,216.4c1.4-1,2.8-1.9,4.4-2.9c14.6-9,28.8-10.7,45.1-11.6c28.7-1.6,40.9,0,62.9-0.8"/>
			<path class="st15" d="M220.6,221.9c-3.2-4.1-6.5-10.8-5.6-17.9c0.1-0.8,0.3-2.1,0.4-2.9c28.9-13,47.9-8.5,48.6-3.1
				c0.4,2.9-12.8,5.3-22.8,12.3C232.5,216.6,225.8,221.3,220.6,221.9z"/>
			<path class="st15" d="M263.2,196.4c-8.9-1.8-29.9,3.5-47.8,14.6"/>
			<path class="st15" d="M221,221.8c-1,0.3-2,0.6-3,0.9c-1.3,0.4-2.6,0.8-3.8,1.1l-0.3,0.1c-1.2,0.4-2.4,0.7-3.5,1.1
				c-0.1,0-0.2,0.1-0.2,0.1c-0.7,0.2-1.4,0.4-2.1,0.7c-7.2,2.3-12.6,4.3-17.5,6.2c-1,0.4-1.9,0.8-2.9,1.2c-0.6,0.3-1.3,0.5-1.9,0.8
				c-0.2,0.1-0.4,0.2-0.6,0.3c-0.7,0.3-1.3,0.6-2,0.9c-0.1,0-0.1,0.1-0.2,0.1c-1,0.4-1.9,0.8-2.8,1.3c-1.3,0.6-2.6,1.2-3.9,1.8
				c-1.4,0.6-2.8,1.3-4.2,1.9c-0.7,0.3-1.5,0.7-2.3,1c-0.4,0.2-0.8,0.4-1.2,0.5c-16.3,7.3-24.8,10.3-32.3,12.2
				c-3.8,1-7.4,1.8-11.5,2.7c-0.5,0.1-1.1,0.2-1.7,0.3c-0.4,0.1-0.8,0.1-1.2,0.2c-0.4,0.1-0.8,0.1-1.1,0.2c-0.1,0-0.1,0-0.1,0
				c-0.5,0.1-1,0.1-1.5,0.2c-15.8,1.7-29-4.3-31.8-14"/>
			<path class="st4" d="M264.1,198c0.4,2.9-12.8,5.3-22.8,12.3c-8.8,6.2-15.5,10.9-20.6,11.6c0,0,0,0,0,0c-0.9,0.3-1.8,0.5-2.6,0.8
				c-1.3,0.4-2.6,0.8-3.8,1.2l-0.2,0.1c-1.2,0.4-2.4,0.7-3.5,1.1c-0.1,0-0.2,0-0.2,0.1c-0.7,0.2-1.4,0.4-2.1,0.7
				c-7.2,2.3-12.6,4.2-17.5,6.2c-1,0.4-1.9,0.8-2.9,1.2c-0.7,0.3-1.3,0.5-1.9,0.8c-0.2,0.1-0.4,0.2-0.6,0.3c-0.7,0.3-1.3,0.6-2,0.9
				c-0.1,0-0.1,0.1-0.2,0.1c-1,0.4-1.9,0.8-2.8,1.3c-1.3,0.6-2.6,1.2-3.9,1.8c-1.4,0.6-2.8,1.3-4.2,1.9c-0.7,0.3-1.5,0.7-2.3,1
				c-0.4,0.2-0.8,0.3-1.2,0.5c-16.3,7.3-24.8,10.3-32.3,12.2c-3.8,1-7.4,1.8-11.5,2.7c-0.6,0.1-1.1,0.2-1.7,0.3
				c-0.4,0.1-0.8,0.1-1.2,0.2c-0.4,0.1-0.8,0.1-1.1,0.2c0,0-0.1,0-0.1,0c-0.5,0.1-1,0.1-1.5,0.2c-15.8,1.7-29-4.3-31.8-14
				c-0.7-2.3-0.8-4.7-0.2-7.3c20.4,17,90.5-9.3,115-18.7c24-9.2,53.1-17.8,58.1-23C262.6,195.4,263.9,196.7,264.1,198z"/>
		</g>
		<g>
			<g>
				<polygon class="st0" points="455.3,310.1 455.3,412.1 380.6,437.3 306,412.1 306,310.1 380.6,287.8 				"/>
				<g>
					<polygon class="st16" points="388.5,434.7 455.3,412.1 455.3,317.5 388.5,337.3 					"/>
					<polygon class="st16" points="372.8,434.7 306,412.1 306,317.5 372.8,337.3 					"/>
					<polygon class="st16" points="443.7,306.6 380.6,324.7 317.6,306.6 380.6,287.8 					"/>
				</g>
			</g>
			<g>
				<polygon class="st0" points="372.2,171.3 372.2,273.2 297.6,298.5 222.9,273.2 222.9,171.3 297.6,149 				"/>
				<g>
					<polygon class="st16" points="305.4,295.8 372.2,273.2 372.2,178.6 305.4,198.4 					"/>
					<polygon class="st16" points="289.7,295.8 223,273.2 223,178.6 289.7,198.4 					"/>
					<polygon class="st16" points="360.6,167.8 297.6,185.9 234.5,167.8 297.6,149 					"/>
				</g>
			</g>
			<g>
				<polygon class="st0" points="537.7,171.3 537.7,273.2 463.1,298.5 388.5,273.2 388.5,171.3 463.1,149 				"/>
				<g>
					<polygon class="st16" points="470.9,295.8 537.7,273.2 537.7,178.6 470.9,198.4 					"/>
					<polygon class="st16" points="455.3,295.8 388.5,273.2 388.5,178.6 455.3,198.4 					"/>
					<polygon class="st16" points="526.1,167.8 463.1,185.9 400.1,167.8 463.1,149 					"/>
				</g>
			</g>
			<g>
				<polygon class="st0" points="620.5,32.5 620.5,134.5 545.9,159.7 471.3,134.5 471.3,32.5 545.9,10.2 				"/>
				<g>
					<polygon class="st16" points="553.7,157.1 620.5,134.5 620.5,39.9 553.7,59.7 					"/>
					<polygon class="st16" points="538,157.1 471.3,134.5 471.3,39.9 538,59.7 					"/>
					<polygon class="st16" points="608.9,29 545.9,47.1 482.8,29 545.9,10.2 					"/>
				</g>
			</g>
			<g>
				<polygon class="st0" points="786,32.5 786,134.5 711.4,159.7 636.8,134.5 636.8,32.5 711.4,10.2 				"/>
				<g>
					<polygon class="st16" points="719.2,157.1 786,134.5 786,39.9 719.2,59.7 					"/>
					<polygon class="st16" points="703.6,157.1 636.8,134.5 636.8,39.9 703.6,59.7 					"/>
					<polygon class="st16" points="774.4,29 711.4,47.1 648.4,29 711.4,10.2 					"/>
				</g>
			</g>
		</g>
		<g>
			<path class="st14" d="M330.3,81.3c-1.1-1.4-2.5-4.3-2.5-6.7c0-5.3,0-21.2,0-21.2c0-2.9-0.3-5.4-1-7.5c-0.7-2.1-1.7-3.9-3.1-5.4
				c-1.4-1.4-3.3-2.5-5.6-3.3c-2.3-0.8-5.1-1.1-8.4-1.1c-1.8,0-3.5,0.2-5.3,0.5c-1.7,0.3-3.3,0.7-4.8,1.2c-1.5,0.5-2.8,1-3.9,1.6
				c-1.1,0.6-1.9,1.1-2.4,1.6c-0.5,0.4-0.7,1.1-0.9,1.6c-0.1,0.5-0.2,1.2-0.2,2c0,0.5,0,1,0.1,1.4c0.1,0.4,0.2,0.8,0.3,1
				c0.2,0.3,0.3,0.5,0.5,0.6c0.2,0.1,0.4,0.2,0.7,0.2c0.4,0,1-0.2,1.9-0.7c0.8-0.5,1.9-1,3.1-1.6c1.2-0.6,2.7-1.1,4.3-1.6
				c1.6-0.5,3.5-0.7,5.6-0.7c1.9,0,3.6,0.2,4.9,0.7c1.3,0.5,2.4,1.1,3.2,2c0.8,0.9,1.4,2,1.8,3.4c0.4,1.4,0.6,2.9,0.6,4.7
				c0,0,0,3.2,0,4.6c-2.1-0.4-6.7-1-12.4-1c-12.6,0-18.2,6.5-18.2,15.7c0,9.6,7.6,14,14.3,14c10,0,13.8-4.4,17.4-8.3
				c1,3.3,2,5.1,3.6,7c0.3,0.3,0.5,0.5,0.9,0.5c0.3,0,0.7-0.1,1.2-0.3c0.8-0.3,1.5-0.8,2.2-1.3c0.7-0.6,1.2-1.1,1.5-1.4
				c0.3-0.4,0.5-0.7,0.6-1.1C330.7,81.9,330.6,81.6,330.3,81.3z M319.4,72.3c-2.5,5-7.6,7.8-13.7,7.8c-5.9,0-8.1-3.7-8.1-7.3
				c0-5.9,3.8-9.3,10.4-9.3c5,0,9,0.5,11.3,1.1C319.4,66.7,319.4,72.3,319.4,72.3z M399.9,38.9c0,0.2,0,0.5-0.1,0.9
				c-0.1,0.3-0.2,0.8-0.4,1.3l-13,43.6c-0.1,0.4-0.3,0.7-0.5,0.9c-0.2,0.2-0.5,0.4-0.9,0.6s-0.9,0.2-1.6,0.3c-0.7,0.1-2,0.1-3,0.1
				c-1.1,0-1.9,0-2.7-0.1c-0.7-0.1-1.3-0.2-1.7-0.3c-0.4-0.1-0.7-0.3-0.9-0.6c-0.2-0.2-0.4-0.5-0.5-0.9l-8.4-33.3l-0.1-0.5l-0.1,0.5
				l-7.5,33.3c-0.1,0.4-0.3,0.7-0.5,0.9c-0.2,0.2-0.6,0.4-1,0.6c-0.4,0.1-1,0.2-1.7,0.3c-0.7,0.1-1.6,0.1-2.6,0.1
				c-1.1,0-2.3,0-3-0.1c-0.7-0.1-1.2-0.2-1.6-0.3s-0.7-0.3-0.9-0.6c-0.2-0.2-0.4-0.5-0.5-0.9l-13.1-43.6c-0.2-0.5-0.3-0.9-0.4-1.3
				c-0.1-0.3-0.1-0.6-0.1-0.9c0-0.3,0.1-0.6,0.2-0.7s0.4-0.3,0.7-0.5c0.3-0.1,0.8-0.2,1.3-0.2c0.5,0,1.2-0.1,2-0.1
				c1,0,1.7,0,2.3,0.1c0.6,0.1,1,0.1,1.3,0.3c0.3,0.1,0.5,0.3,0.7,0.5c0.1,0.2,0.3,0.5,0.4,0.8l10.6,37.1l0.1,0.5l0.1-0.5l8.3-37.1
				c0.1-0.3,0.2-0.6,0.3-0.8c0.2-0.2,0.4-0.4,0.7-0.5c0.3-0.1,0.7-0.2,1.2-0.3c0.5-0.1,2.1-0.1,2.9-0.1c0.8,0,2.3,0,2.8,0.1
				c0.5,0.1,0.9,0.1,1.2,0.3c0.3,0.1,0.5,0.3,0.7,0.5c0.1,0.2,0.2,0.4,0.3,0.7l9.3,36.8l0.1,0.5l0.1-0.5l10.5-36.7
				c0.1-0.3,0.2-0.6,0.3-0.8c0.2-0.2,0.4-0.4,0.7-0.5c0.3-0.1,0.8-0.2,1.3-0.3c0.6-0.1,1.3-0.1,2.2-0.1c0.8,0,1.5,0,2,0
				c0.5,0,0.9,0.1,1.2,0.3c0.3,0.1,0.5,0.3,0.6,0.5C399.8,38.4,399.9,38.6,399.9,38.9z M420.1,87.7c-1.7,0-4.6-0.2-6.1-0.4
				c-1.5-0.3-2.9-0.6-4-1c-1.2-0.4-2.2-0.8-3.1-1.2c-0.9-0.4-1.5-0.8-1.9-1.2c-0.4-0.4-0.8-0.9-0.9-1.6c-0.2-0.7-0.3-1.5-0.3-2.6
				c0-0.7,0-1.2,0.1-1.7c0.1-0.5,0.2-0.9,0.3-1.2c0.1-0.4,0.3-0.6,0.6-0.8c0.3-0.2,0.6-0.2,0.9-0.2c0.5,0,1.1,0.2,1.9,0.8
				c0.7,0.5,1.6,1,2.7,1.5c1,0.5,2.3,1,3.7,1.5c1.4,0.4,4.4,0.7,6.3,0.7c1.8,0,4-0.2,5.1-0.5c1.1-0.3,2.1-0.7,2.9-1.3
				c0.8-0.5,1.4-1.3,1.8-2.1c0.4-0.9,0.6-1.9,0.6-3.1c0-1.2-0.3-2.2-0.9-3c-0.6-0.8-1.5-1.6-2.5-2.2c-1-0.6-3.5-1.7-6.2-2.4
				c-1.7-0.4-3.1-0.9-4.4-1.4c-1.5-0.6-2.9-1.2-4.3-2c-1.4-0.7-2.7-1.7-3.8-2.7c-1.1-1.1-2-2.4-2.7-3.9c-0.7-1.5-1-3.3-1-5.4
				c0-1.9,0.4-3.7,1.1-5.4c0.7-1.7,1.8-3.2,3.2-4.5c1.4-1.3,3.2-2.3,5.4-3.1c2.4-0.9,5.3-1.4,7.9-1.4c2.5,0,4.8,0.3,6,0.5
				c1.2,0.2,2.4,0.5,3.4,0.8c1,0.3,1.9,0.7,2.6,1c0.7,0.4,1.3,0.7,1.6,1c0.4,0.3,0.7,0.6,0.8,0.8c0.1,0.2,0.2,0.5,0.3,0.8
				c0.1,0.3,0.1,0.6,0.2,1c0.1,0.4,0.1,0.9,0.1,1.4c0,0.6,0,1.1-0.1,1.6c-0.1,0.5-0.2,0.9-0.3,1.2c-0.2,0.4-0.3,0.6-0.6,0.8
				c-0.2,0.2-0.5,0.3-0.8,0.3c-0.4,0-0.9-0.2-1.6-0.6c-0.6-0.4-1.3-0.8-2.2-1.2c-0.9-0.4-2-0.8-3.2-1.2c-1.3-0.4-3.6-0.7-5.6-0.7
				c-1.5,0-3.9,0.3-4.8,0.6c-1,0.3-1.9,0.7-2.5,1.3c-0.6,0.5-1.1,1.2-1.5,2c-0.3,0.8-0.5,1.6-0.5,2.5c0,1.2,0.3,2.3,0.9,3.1
				c0.6,0.9,1.5,1.6,2.5,2.3c1.1,0.7,2.3,1.3,3.6,1.8c1.4,0.5,4.9,1.7,6.9,2.3c1.6,0.5,3.1,1.1,4.5,1.8c1.4,0.7,2.7,1.6,3.9,2.7
				c1.1,1.1,2,2.3,2.7,3.8c0.7,1.5,1,3.3,1,5.3c0,2.4-0.4,4.6-1.3,6.5c-0.9,1.9-2.2,3.5-3.8,4.8c-1.6,1.3-3.6,2.3-5.9,2.9
				C426.5,87.3,422.6,87.7,420.1,87.7z"/>
			<path class="st17" d="M282.4,101.4c-0.8,0.8,29.9,32.8,82.3,32.8c40.5,0,68.7-20.1,66.6-23.1c-2-2.8-24.2,12.6-66.6,12.6
				C314.2,123.8,283.8,100,282.4,101.4z"/>
			<path class="st17" d="M445.6,100.1c-1.3-1.4-6.5-2.4-14.8-1.6c-8.8,0.9-14.9,5-14.5,5.8c0.4,0.8,6.7-0.5,12.4-0.6
				c4.8-0.1,9.3,0.2,10.2,1.3c1,1.3,0.9,4.4-0.5,10.4c-1.7,7.2-4.5,11.6-3.8,12.1c0.7,0.5,5.8-4,9.2-12.3
				C446.5,108.1,446.8,101.4,445.6,100.1z"/>
		</g>
		<g>
			<path class="st2" d="M68.4,351.9c-0.2,0-0.3-0.1-0.5-0.1c0.1,0.1,0.1,0.2,0.2,0.3l0,0c0,0,0.1,0.1,0.1,0.1
				c-0.1,0-0.1,0.1-0.2,0.1c0.1,0,0.2,0,0.3,0.1c0,0,0.1,0,0.1,0c17.3,3.9,24.1,10.2,28.2,15.7c-3.8,0.6-12.6,1-23,1.1
				c0,0.1,0,0.2,0,0.3c-21.5,0.3-49.7-0.4-53.6-2.4c-4.2-2.2-4.1-6.6-2.7-10.6c0.1-0.3,0.2-0.5,0.3-0.8c0.9-2.3,2.3-4.4,3.4-5.6
				c3.9-4.4,6.7-8.5,8.7-12.4c0.3-0.5,0.5-1,0.8-1.6c1.9-4,3.8-12.6,3.9-21.4c9.3,8.4,26.6,17.5,45.4,20.1
				C77.9,344.6,74.5,347.6,68.4,351.9z"/>
			<path class="st2" d="M208.1,374.6c-15.9,1.4-31.9,0.9-49.1-1.7c-11.3-1.7-22.8-4.2-24.7-11.7c-0.9-3.4-1.9-6.5-3.2-9.3
				c-3.5-8.3-7.5-12.6-15.3-13.8c-7-1-17.3-0.8-28.2-1.9c-22.2-2.4-43.8-10.3-56.8-24.8c-12.6-14.2-17.4-36.1-14.9-50.2
				c9,8.5,28.8,21.7,68.4,30.6c37.7,8.5,62.2,0.9,75.5-5.6c1.1,5.2,7.7,9.9,12.7,21.6c1.9,4.3,6.7,11.3,3.7,36.2
				c-0.4,3.3-0.9,8.1-1.1,10.4C189.2,357.5,200.4,364.4,208.1,374.6z"/>
			<path class="st4" d="M208.1,374.6c-15.9,1.4-31.9,0.9-49.1-1.7c-11.3-1.7-22.8-4.2-24.7-11.7c-0.9-3.4-1.9-6.5-3.2-9.3
				c-3.5-8.3-7.5-12.6-15.3-13.8c-7-1-17.4-0.8-28.2-1.9c-22.2-2.4-43.8-10.3-56.8-24.8c-6.9-7.7-11.5-17.8-13.8-27.7
				c5.1,12.5,17,28.3,38.3,34.6c27.2,8,46.1,7.1,61.9,10.1c15.8,2.9,20.8,5.3,20.8,16.6c0,14.1,5,18.8,23.5,23.2
				c15.5,3.7,34.9,3.6,39.2-1.5C203.4,369,205.9,371.7,208.1,374.6z"/>
			<path class="st4" d="M167.1,298c-3.3-4.9-13.1-1.9-24.8-0.7c-27.9,2.8-63.3,4-98.7-18.7c43.2,17,83.5,23.1,116.3,7.8
				C161.2,289.7,164.9,294.7,167.1,298z"/>
			<path class="st1" d="M175.6,199.3c2,2.9,0.8,7.5-2,9.5c-0.3,1.3-0.6,2.6-0.9,3.9c-0.2,2,3.5,4.1-0.9,8.6
				c-6.5,4.8-10.2,8.7-13.8,13.2c-10.9,13.6-5.9,13.7-6,17c0,0.8-0.2,1.5-0.4,2.1c3.2,1.8,6.4,3,9.8,3.9c-2,11.4,1.1,19,2.1,26.8
				c-12.2,6.7-37.7,16.8-79.1,7.4c-39.7-8.9-59.4-22.2-68.5-30.6c-1.7-1.6-3-3-4-4.2c1-4.1,2.1-7.7,3.1-11
				c1.8-5.5,3.6-10.2,5.7-14.9c3.8-8.8,7.5-16.2,10.9-24.1c3.2-7.5,6.4-18.6,7.1-26.9c-4-2.2-1.8-11.1,1.5-13.1
				c32.6,11,49.7,0.8,68.2-0.2c20.1-1.1,29,5.5,35.1,12.7c1.9,2.3,5,8.2,7,10.9C157.3,195.3,165.8,197.6,175.6,199.3z"/>
			<path class="st4" d="M160.7,267c0.7,6.1,1.9,11.3,2.7,17.3c-6.3,3.5-16.1,7.8-29.8,9.9c12.6-5.2,5.5-24.9,1-30
				c-1.9-2.2-4.7-4.9-8.5-7.6c9.5,5.2,17.5,8.1,20,2.8C149.8,263.1,156.2,265.8,160.7,267z"/>
			<path class="st2" d="M237.9,257.6c-26.4,6.5-59.3,17.7-83.1,7.4c-3.2-1.4-6.2-3.1-9-5.3c0.3-0.6,0.5-1.2,0.7-1.9
				c0.7-3.2,0.1-10,11.5-23.1c3.1-3.6,8.4-8.9,13.8-13.2c0.4,0.4,0.8,0.8,1.2,1.2c0,0,0,0,0-0.1c19,18.4,44.4,14.8,62.2,14.8
				c1.3,0,3.1-0.2,5.3-0.4c-0.2,0.5-0.5,1.1-0.7,1.8c0,0.1,0,0.1-0.1,0.2c-0.6,1.6-1.2,3.5-1.6,5.6c-0.8,3.8-1.1,8.2-0.3,11.9
				c0,0.2,0.1,0.4,0.2,0.6C238,257,238,257.4,237.9,257.6z"/>
			<path class="st2" d="M199.6,66.9c-3.5,2.9-6.3,3.5-12.7,1.8c14.8,11.4,17.7,37.9,15.5,50.1c-2.4,13-8.5,25.7-15.2,36.9
				c-1.2,1.9-2.8,4.1-3.2,6.3c-0.3,1.1,0.2,3-0.3,4c-0.2,0.4-1.1-1.2-1.2-0.7c-0.4,2-0.4,4.5-0.3,6.5c0,0.8,0.8,2.9,0.3,2.3
				c-0.2-0.2-0.6-2-1.3-1.8c-0.5,0.1-2.9,7.4-3.6,13.7c-0.4,4.2-1.1,8.6-2,13.1c-12.5-1.9-17.4-4.3-25-9.1c-2.7-4.6-5.1-8.7-7-10.9
				c-6.1-7.1-15.2-13.8-35.3-12.7c-18.4,1-35.6,11.2-68.1,0.2c5.3-60.4,27.2-100.4,83.5-120.4c7.5-2.7,16.1-5.3,22.7-5.8
				c-1.7,1.6-2.6,3.8-2.6,3.8c10.2,0.4,22.3-3.3,26.7-7c2.5,3.5,1.1,8.1-1.9,10.4c5-1.6,13.4-3.3,15.5-10.4
				c4.6,9.1,0.3,14.2-1.8,15.9c7.3,1.3,10.8-0.2,13.7-2.5c1.3,6.8-2.3,9.9-8.5,12.2C190.9,66,195.9,66.9,199.6,66.9z"/>
			<path class="st6" d="M270.3,248.2c-1,0.4-2.2,0.8-3.5,1.2c-4.9,1.4-9.9,2.9-15.4,4.4c-4.1,1.1-8.4,2.3-13.2,3.5
				c-1.9-6.5,0.5-16.2,2.4-20.4c10.4-1.1,19-0.9,24.2-0.6c4.1,0.2,9.6,1.3,10.8,3.5C277.3,242.8,275.7,245.9,270.3,248.2z"/>
			<path class="st4" d="M270.6,248.2c-1,0.4-2.2,0.8-3.5,1.2c-4.9,1.4-9.9,2.9-15.4,4.4c-4.1,1.1-8.4,2.3-13.2,3.5
				c0,0-0.1,0.1-0.1,0.2c-26.4,6.5-59.3,17.7-83.1,7.4c-3.2-1.4-6.2-3.1-9-5.3c0.3-0.6,0.5-1.2,0.7-1.9c0.4-2.1,0.3-5.6,3.2-11.3
				c0.4,2.9,4.6,8.2,11.4,10.7c8,2.9,21.3,4.2,43.2,1.3c21.2-2.8,72.7-12.4,64-21.9c0.9,0.4,5.1,0.5,7,3.4
				C277,241.9,276,245.8,270.6,248.2z"/>
			<line class="st7" x1="94.3" y1="148.4" x2="94.7" y2="154.3"/>
			<line class="st7" x1="88.6" y1="151.8" x2="89" y2="157.7"/>
			<path class="st8" d="M200.8,110.4c0.2-8.8-1.6-19.1-6.9-21.6c-3.3-1.6-6.7-0.6-10.2,0.4c-3.1,0.9-5.3-0.3-5.4-2.3
				c-0.1-1.9,1.1-2.8,3.3-3.5c-3.7,0.1-5.1,1.3-8.3,1.9c-5.2,1-7.9,0.8-9,0.2c-3.4-1.6-6.2-5.9-9.1-7.9c-13-8.8-24.5-9-36,8.3
				c-2.6,3.9-7.2,13-7.6,24.2c-0.6,16.3,2.7,25.9,9.4,37.5c10.5,18,41.2,30.3,61.9,6.9C192.7,143.5,200.4,126.8,200.8,110.4z"/>
			<path class="st9" d="M181.4,114.9c4.6,1.6,8.1,10.2,1.5,20.7c-4.8,7.6-10.5,11.4-16.3,13.7c-9.4,3.8-17.5,0.7-21-7.8
				c-3.7-9-1.3-18.3,3.2-24.5c4.9-6.7,15.2-8.8,21.9-6L181.4,114.9z"/>
			<path class="st9" d="M200.8,110.5c-0.2,4.7-0.5,11.2-3.3,18.5c-27.5-7.5-15.7-38-13.7-39.8c4.3-1.3,7.2-2,10.5-0.2
				C196.7,90.3,201.6,95.6,200.8,110.5z"/>
			<path class="st9" d="M164.2,85.4c-9,31.8-33.9,32.2-52.6,25.6c0.2-9.9,3.5-18.8,7.3-24.5c3.7-5.5,10.6-14.8,20.4-14.7
				c5.3,0,11.3,2.6,15.9,5.9C158.8,80.1,161.1,83.2,164.2,85.4z"/>
			<path class="st5" d="M40.1,166.7c5.3-60.4,27.2-100.4,83.5-120.4c7.5-2.7,16.1-5.3,22.7-5.8c-1.7,1.6-2.6,3.8-2.6,3.8
				c10.2,0.4,22.3-3.3,26.7-7c2.5,3.5,1.1,8.1-1.9,10.4c5-1.6,13.1-3.1,15.4-10.4c4.2,8.5,0.9,13.5-1.7,15.9
				c6.8,1.1,10.5,0,13.6-2.5c0.7,6.3-1.2,9.7-8.5,12.1c2.9,2.6,7.2,3.7,12.2,3.9c-3.3,2.8-7.1,4-12.6,1.8
				c14.8,11.4,17.7,37.9,15.5,50.1c-2.4,13-8.5,25.7-15.2,36.9c-1.2,1.9-2.8,4.1-3.2,6.3c-0.2,1.1,0.3,3-0.3,4
				c-0.2,0.4-1.1-1.2-1.2-0.7c-0.4,2-0.4,4.5-0.3,6.5c0,0.8,0.7,2.9,0.2,2.3c-0.2-0.2-0.6-2-1.3-1.8c-0.5,0.1-2.9,7.4-3.6,13.7
				c-0.5,4.3-1.1,8.7-2,13.2c1.7,3.2,0.7,7-2,9.5c-0.3,1.2-0.6,2.5-0.9,3.8"/>
			<path class="st5" d="M38.6,179.9c-2.8,22.9-10.4,33-18,50.9c-3.2,7.6-6,14.8-8.8,25.9c6.4,7.6,25.3,24.2,72.5,34.8
				c41.4,9.3,66.8-0.7,79.1-7.4c-0.6-5.5-2.4-10.7-2.7-17.2"/>
			<path class="st5" d="M177.9,118c-2.2,7-5.5,12.7-10.3,16.9"/>
			<g>
				<path class="st0" d="M200.8,115.6c-1.7,4.3-5.3,3.5-9.7,2c-5.8-2-10.2-4.9-8.8-9.3c1.5-5,6.7-5.5,13.2-3
					C200.8,107.4,202.7,110.7,200.8,115.6z"/>
				<path class="st18" d="M201,114.9c-0.7-4.5-3.8-6-9.1-6.9c-5-0.9-7.5-0.4-10,1.6c0.6-6.6,6.7-6.6,13.4-4.4
					C200.4,106.9,202.4,110.2,201,114.9z"/>
				<path class="st14" d="M191.6,112.4c0.7-2.3,3.1-3.7,5.4-3c2.3,0.7,3.7,3.1,3,5.4c-0.7,2.3-3.1,3.7-5.4,3
					C192.3,117.2,190.9,114.7,191.6,112.4z"/>
				<path class="st15" d="M200.8,115.6c-1.9,4.2-5.3,3.4-9.7,2c-5.7-1.8-10.1-4.8-8.8-9.3c1.4-5.1,6.6-5.4,13.2-3
					C200.7,107.2,203.1,110.2,200.8,115.6z"/>
			</g>
			<circle class="st0" cx="193.1" cy="110.6" r="2.1"/>
			<g>
				<path class="st0" d="M152.2,101.1c-2.4,3.7-7.8,1.2-13.2-0.6c-6.9-2.3-13.4-5.2-10.2-12c2.2-4.8,8.6-4.3,16.9-0.8
					C153.9,91.2,155.4,96.1,152.2,101.1z"/>
				<path class="st18" d="M153.2,99.3c-1.3-4.9-6.1-7.7-12.8-9.4c-5.8-1.5-9.7-1.3-12.2,0c0.1-0.5,0.3-1,0.5-1.4
					c2.2-4.8,8.6-4.3,16.9-0.8C152.9,90.8,155,95,153.2,99.3z"/>
				<path class="st5" d="M152.2,101.1c-2.4,3.7-7.8,1.2-13.2-0.6c-6.9-2.3-13.4-5.2-10.2-12c2.2-4.8,8.6-4.3,16.9-0.8
					C153.9,91.2,155.4,96.1,152.2,101.1z"/>
			</g>
			<path class="st14" d="M141.4,94.9c1.1-2.4,4-3.4,6.4-2.3c2.4,1.1,3.4,4,2.3,6.4c-1.1,2.4-4,3.4-6.4,2.3
				C141.3,100.1,140.3,97.3,141.4,94.9z"/>
			<circle class="st0" cx="143" cy="93" r="2.4"/>
			<path class="st10" d="M186.7,117.9c1-2.5-1.8-6.2-6.3-8.1c-4.5-2-9-1.5-10,1c-1,2.5,1.8,6.2,6.3,8.1
				C181.2,120.9,185.7,120.5,186.7,117.9z"/>
			<path class="st19" d="M164.2,83c-17-11.4-32.5-11.8-52.5,7.6"/>
			<path class="st19" d="M185.2,88c10.6-1.2,17.3,3,21.1,20.1"/>
			<path class="st5" d="M150.5,190.1c7.4,5,13.9,7.4,25,9.1"/>
			<g>
				<path class="st5" d="M240.7,237.3c-1.9,4.2-4.3,13.4-2.2,20"/>
				<g>
					<g>
						<path class="st5" d="M172.1,221.1c4-6,1-7-4.4-9.3c-2.1-2.7-5.9-5.3-8.4-7.8c-4.9-4.8-8-12.8-11.5-18.5
							c-4.9-8-10.8-16.9-30.8-18.9c-18.4-1.9-43.8,12-76.7,0.6c-1.7-0.6-5.5,9.8-2.9,11.7c5.4,3.9,18.9,7.4,37.9,4.3"/>
						<path class="st5" d="M95.8,226.1c7.8,18.6,24.4,28.5,38.7,34.6c5.1,2.2,11,2.6,12.2-3.2c0.7-3.2,0-10,11.5-23.1"/>
						<path class="st5" d="M167.1,212.6c-12.4,4.8-26.6,17.1-31.2,32.8"/>
						<path class="st5" d="M159.2,217.4c1.2,1.2,1.9,2.3,2.9,3.7"/>
						<line class="st5" x1="151.6" y1="223.6" x2="154.2" y2="226.7"/>
						<line class="st5" x1="145.1" y1="230" x2="148.4" y2="232.4"/>
					</g>
					<path class="st5" d="M172.1,221.1c19.1,19.8,45.3,16.1,63.5,16.1c7.1,0,35.2-3.8,40,2.5c2,2.7,0.4,7.2-8.5,9.8
						c-8.6,2.5-17.4,5.1-28.9,8c-30,7.4-68.3,20.8-92.2,2"/>
				</g>
			</g>
			<path class="st5" d="M95,236.3c4.7,1.5,7,2.6,10.7,5.1"/>
			<path class="st5" d="M238.5,244.4c10.1-3.6,25.5-5.8,37.1-4.6"/>
			<g>
				<path class="st3" d="M96.6,368c-3.6,0.6-12.7,1-23.4,1.2c-0.2-3.5-0.8-6.9-1.7-9.9c-1-3.2-2.4-5.8-3.8-7.6
					C85.8,355.7,92.5,362.4,96.6,368z"/>
				<path class="st4" d="M73.6,369.3c0,0.1,0,0.2,0,0.3c-21.5,0.3-49.7-0.5-53.6-2.5c-4.2-2.1-4.1-6.6-2.7-10.6
					c0.1-0.3,0.2-0.5,0.3-0.8c0.9-2.3,2.2-4.3,3.3-5.6c3.9-4.4,6.7-8.5,8.7-12.4c0.3-0.5,0.5-1,0.8-1.6c1.4-2.9,3.6-9.9,3.9-21.4
					c11.4,10.5,28.1,17.1,45.4,20.1c-0.8,7.3-4.8,12.2-11.4,17.1c-0.2,0-0.3-0.1-0.5-0.1c0.1,0.1,0.1,0.2,0.2,0.3l-0.1,0
					c0,0,0.1,0.1,0.1,0.1c-0.1,0-0.1,0.1-0.2,0.1c0.1,0,0.2,0,0.3,0.1c0,0,0.1,0,0.1,0c17.3,3.9,24.1,10.2,28.2,15.7
					C92.8,368.7,84,369.1,73.6,369.3z"/>
				<path class="st5" d="M79.8,334.9c-0.5,6.5-5.7,13.5-11.9,17.1"/>
				<path class="st5" d="M73.4,369.5c-0.2-3.5-0.8-6.9-1.7-9.9c-1-3.2-2.4-5.8-3.8-7.6c18.1,4,24.9,10.7,29,16.3
					C93.2,368.9,84.1,369.3,73.4,369.5c-21.5,0.3-49.7-0.4-53.6-2.4c-7-3.6-2.1-13.7,1-17.2c8.2-9.3,13-17.8,13.6-35"/>
				<path class="st5" d="M71.7,359.6c8.4,1.6,16.8,4.6,23.7,8.5"/>
				<path class="st5" d="M68.2,351.8c-4.4,2.7-10.9,4.7-16.7,5"/>
			</g>
			<path class="st4" d="M199.6,66.9c-3.8,3.3-8.3,3.4-12.7,1.8c6.3,4.9,10.5,12.5,13,20.6c-3.4-3.9-6.3-7.2-8.7-11.4
				c-1.6,0.9-5.9,0.9-8.3-0.8c-3.5-2.5-4.4-6.5-3.1-9.9c-4.2-0.6-5.9,2-7.9,1.1c-1.4-0.6,1.1-4.1,5.6-4.4
				c-6.3-1.3-13.1,1.6-14.7,1.2c-1.9-0.5-2.2-3.5,2.8-6c-8.9-1.1-14.6,3.7-17.7,3.5c-2.2-0.1-2.3-1.7,0-3.2c-5.1,0.4-9.5,3.4-11,3.6
				c-24.6,3.3-47.2,21.9-57.7,43.2C69,126.7,65.6,149,65,171.7c-7.3-0.3-15.5-1.8-25-5c5.3-60.4,27.2-100.4,83.5-120.4
				c7.5-2.7,16.1-5.3,22.7-5.8c-1.7,1.6-2.6,3.8-2.6,3.8c10.2,0.4,22.3-3.3,26.7-7c2.5,3.5,1.1,8.1-1.9,10.4
				c5-1.6,13.4-3.2,15.5-10.4c3.1,6.6,2.8,11.7-1.8,15.9c7,1,10.1,0.3,13.7-2.5c1,7.2-2.8,10.5-8.5,12.2
				C190.8,65.8,194.6,66.6,199.6,66.9z"/>
			<path class="st4" d="M147.6,252.2c-0.5,2.3-0.5,3.9-0.7,5.1c-0.1,0.8-0.3,1.4-0.6,2c-1.9,3.8-6.9,3.3-11.4,1.6
				c-10.2-3.9-20.4-9.7-29.2-19c-3.5-3.8-6.8-9.3-9.2-14.4C111.8,248.8,144.7,259.7,147.6,252.2
				C147.6,252.2,147.6,252.2,147.6,252.2z"/>
			<line class="st7" x1="55.8" y1="296.5" x2="56.2" y2="302.5"/>
			<line class="st7" x1="50.1" y1="299.9" x2="50.5" y2="305.9"/>
			<path d="M40,190.8c4.4,1.9,8.5,3,12.5,4.3c3.2,1,3.8,3.6,3.3,6c-0.6,3.3-2.4,5.3-5.5,5.8c-0.2,0-0.3,0-0.6,0.1
				c2.8,2.9,2.3,7.1,3.2,10.7c-2.4-0.6-4.5-1.1-6.7-1.8c-0.4-2.3-0.8-4.8-1.3-7.3c-0.3-1.4-0.8-2.5-2.5-2.7
				c-0.8,2.7-1.7,5.3-2.7,7.7c-2.2-0.9-4.2-1.9-6.4-3C36.1,205.5,37.9,198.1,40,190.8z M44.8,197.4c-0.4,1.4-0.8,2.8-1.2,4.4
				c1.3,0.3,2.6,0.7,3.8,0.8c1.1,0.1,1.9-0.5,2.2-1.6c0.3-1.1,0-2.1-1.2-2.6C47.3,198,46.1,197.8,44.8,197.4z"/>
			<path d="M74.2,208.5c-2.1-0.8-4-1.5-6-2.2c0.2-1.8-0.5-3-2.1-3.7c-1.1-0.4-2.1-0.4-2.8,0.6c-0.3,1,0.3,1.6,1,2
				c1.3,0.9,2.7,1.7,4,2.7c0.7,0.5,1.4,1.2,2.1,1.8c4.2,4.1,2.1,9.9-2.1,11.2c-1.4,0.4-3,0.4-4.5,0.2c-2.3-0.4-4.6-1.2-6.5-2.4
				c-2.6-1.6-3.6-4.5-2.7-8.1c1.8,0.3,3.5,0.6,5.4,1.1c0,0.5,0,0.9,0,1.3c0.1,2.2,1.8,3.7,3.9,3.6c0.9-0.1,1.7-0.5,2-1.5
				c0.3-0.9-0.1-1.7-0.7-2.4c-0.6-0.5-1.2-1-1.8-1.4c-1.3-0.9-2.6-1.7-3.7-2.7c-2.2-1.9-2.9-4.2-2.1-6.6c0.9-2.6,3.1-4.3,6.1-4
				c2.8,0.3,5.6,1.5,8.1,3.5C74.4,203.9,75,205.8,74.2,208.5z"/>
			<g>
				<path class="st6" d="M208.2,374.4c-18.6,1.6-29.1,1.8-44.1-1c1.2-10.1,3.9-16.4,11.1-19.2C186.9,356.1,202.6,365.9,208.2,374.4z
					"/>
				<path class="st5" d="M159.8,286.1c0.9,5.1,6.8,8.2,12.7,21.7c6,13.8,5,20.6,4.3,29.5c-0.7,8.5-1.3,14.6-1.6,16.9
					c14,3.1,25.3,10,33,20.2c-15.9,1.4-31.9,0.9-49.1-1.7c-11.3-1.7-22.8-4.2-24.7-11.7c-0.9-3.4-1.9-6.4-3.2-9.2
					c-3.7-8.1-7.5-12.7-15.4-13.9c-7-1.1-17.3-0.8-28.2-1.9c-22.2-2.4-43.8-10.3-56.8-24.8C18,296.9,13.2,275.1,15.9,261"/>
				<path class="st5" d="M175.2,354.3c-6.5,2.3-10.1,10-11.1,19.2"/>
				<path class="st5" d="M167.2,362.3c15.1-0.7,27.5,6.6,41.1,12.2"/>
			</g>
			<path class="st5" d="M173.5,208.8c-2.9,0-7.6-1.5-7.6-1.5"/>
			<g>
				<path class="st0" d="M178.3,133.7c-2.2,2.9-7.7,5.3-9.7,5.3c-4.8-0.1-9.5-4.2-11.4-9.5c-0.5-1.4-0.2-4.4,0.4-5.2
					C162.5,130.6,171.6,133.5,178.3,133.7z"/>
				<path class="st20" d="M165.5,130.5c-0.8-0.5-4.3-0.5-4.8,0.7c-0.5,1.2,0.5,3.6,3.6,6.7c-5.2-2.7-7.1-7-7.3-9
					c-0.2-2,0-3.6,0.6-4.6C158.7,125.5,163.4,129.4,165.5,130.5z"/>
				<path class="st5" d="M178.3,133.7c-2.2,2.9-7.7,5.3-9.7,5.3c-4.6,0-10-4.7-11.4-9.5c-0.4-1.4-0.2-4.4,0.4-5.2
					C161.6,130.3,171.6,133.5,178.3,133.7z"/>
			</g>
		</g>
	</g>
</g>
</svg>
