<svg width="410" height="365" viewBox="0 0 410 365" fill="none" xmlns="http://www.w3.org/2000/svg">
<path d="M398.55 299.866C397.735 286.36 395.92 272.933 393.12 259.696C393.56 250.696 393.64 240.776 393.41 229.836H393.56C403.75 227.616 397.38 172.946 364.43 160.166C361.14 135.536 352.83 89.7259 334.59 64.9359C330.024 58.7361 324.623 53.197 318.54 48.4759C298.92 30.6559 279.22 27.4759 261.81 22.8459C254.93 21.4359 249.26 20.0759 243.48 12.9759C243.48 12.9759 240.34 12.9759 237.59 19.1359C230.185 18.5108 223.175 15.5282 217.59 10.6259C216.49 10.5459 216.26 11.0459 216.1 11.4859C215.41 13.5859 220.42 25.7959 221.93 27.7559C221.93 27.7559 220.77 25.0959 199.86 26.6559C199.42 26.6559 199.15 27.8759 199.51 28.1159C199.931 28.3721 200.368 28.5993 200.82 28.7959C203.42 30.3459 209.52 32.4559 211.03 36.3059C210.99 36.4055 210.943 36.5023 210.89 36.5959C210.89 36.5959 203.49 34.3659 191.64 39.1659C190.226 39.6474 188.841 40.2083 187.49 40.8459C187.32 40.9465 187.183 41.0954 187.097 41.2738C187.011 41.4521 186.98 41.6519 187.008 41.8479C187.036 42.0438 187.121 42.2271 187.253 42.3745C187.385 42.5219 187.558 42.6268 187.75 42.6759C190.11 43.0559 194.75 42.9859 198.14 43.3559C200.06 43.8659 201.26 44.5459 200.68 45.5059C200.68 45.5059 194.6 47.7559 180.04 58.0359C179.857 58.1909 179.726 58.3979 179.663 58.6294C179.601 58.8609 179.611 59.1058 179.691 59.3317C179.771 59.5575 179.919 59.7535 180.113 59.8936C180.308 60.0337 180.54 60.1113 180.78 60.1159C181.841 59.8642 182.881 59.5299 183.89 59.1159C194.79 55.4359 194.68 57.5859 194.68 57.5859C194.68 57.5859 187.6 64.7959 183.54 77.7759L22.22 98.6659C19.1352 99.1253 16.3137 100.665 14.2588 103.012C12.2038 105.358 11.0489 108.357 11 111.476L15.19 264.376C15.35 266.376 15.89 268.376 17.46 269.376L113.46 330.686C115.418 331.788 117.576 332.489 119.808 332.748C122.04 333.007 124.301 332.819 126.46 332.196L165.85 318.476C165.91 323.476 166.13 328.946 166.49 334.876C193.57 343.046 212.82 352.336 275.35 354.106C324.66 355.476 360.39 350.676 382.13 340.396C388.113 337.718 393.558 333.974 398.2 329.346C399.86 321.176 399.98 312.916 398.55 299.866Z" fill="#FAFAFA" stroke="#FAFAFA" stroke-width="20" stroke-miterlimit="10"/>
<path d="M209.03 216.876L19.0301 258.806C15.0901 259.636 14.6501 266.646 18.0301 268.806L114.03 330.116C115.99 331.214 118.148 331.913 120.379 332.172C122.61 332.431 124.871 332.246 127.03 331.626L319.03 264.456C322.83 263.126 322.9 260.776 319.2 259.206L232.78 222.616C229.04 221.056 212.96 216.046 209.03 216.876Z" fill="#E7E7E7"/>
<path d="M209.03 216.876L19.0301 258.806C15.0901 259.636 14.6501 266.646 18.0301 268.806L114.03 330.116C115.99 331.214 118.148 331.913 120.379 332.172C122.61 332.431 124.871 332.246 127.03 331.626L319.03 264.456C322.83 263.126 322.9 260.776 319.2 259.206L232.78 222.616C229.04 221.056 212.96 216.046 209.03 216.876Z" stroke="#2D1F04" stroke-width="2.82" stroke-linecap="round" stroke-linejoin="round"/>
<path d="M206.17 216.396L16.17 258.326C12.23 259.156 16.02 263.496 19.41 265.666L117.48 327.396C120.87 329.566 127.06 327.906 130.86 326.576L314.7 262.656C318.5 261.326 320.31 261.496 316.61 259.926L236.09 224.836L229.93 222.146C226.18 220.576 210.11 215.566 206.17 216.396Z" fill="#D2D2D2"/>
<path d="M223.98 72.566L22.76 98.066C19.6817 98.5258 16.8654 100.06 14.81 102.398C12.7546 104.735 11.5927 107.724 11.53 110.836L15.66 263.836L224 218.246L234.5 82.476C234.9 76.216 230.19 71.786 223.98 72.566Z" fill="#D2D2D2"/>
<path d="M223.98 72.566L22.76 98.066C19.6817 98.5258 16.8654 100.06 14.81 102.398C12.7546 104.735 11.5927 107.724 11.53 110.836L15.66 263.836L224 218.246L234.5 82.476C234.9 76.216 230.19 71.786 223.98 72.566Z" stroke="#2D1F04" stroke-width="2.82" stroke-linecap="round" stroke-linejoin="round"/>
<path d="M222.88 72.246L26.1001 97.7359C23.0562 98.228 20.2838 99.7789 18.2714 102.115C16.259 104.451 15.136 107.423 15.1001 110.506L19.6301 262.276L222.3 216.066L233.17 82.136C233.56 75.886 228.96 71.476 222.88 72.246Z" fill="#222222"/>
<path d="M222.88 72.246L26.1001 97.7359C23.0562 98.228 20.2838 99.7789 18.2714 102.115C16.259 104.451 15.136 107.423 15.1001 110.506L19.6301 262.276L222.3 216.066L233.17 82.136C233.56 75.886 228.96 71.476 222.88 72.246Z" stroke="#2D1F04" stroke-width="2.82" stroke-linecap="round" stroke-linejoin="round"/>
<path d="M229.82 83.5359L26.9101 111.566L26.8201 251.506L205.34 214.196L221.54 210.806L229.82 83.5359Z" fill="#FAFAFA"/>
<path d="M229.82 83.5359L26.9101 111.566L26.8201 251.506L205.34 214.196L221.54 210.806L229.82 83.5359Z" stroke="#2D1F04" stroke-width="2.82" stroke-linecap="round" stroke-linejoin="round"/>
<path d="M225.11 224.366L37.5901 266.736L87.0901 296.526L271.68 243.666L225.11 224.366Z" fill="#222222"/>
<path d="M264.77 239.626L68.23 293.086" stroke="#D2D2D2" stroke-width="1.63" stroke-linecap="round" stroke-linejoin="round"/>
<path d="M252.97 234.496L58.48 287.426" stroke="#D2D2D2" stroke-width="1.63" stroke-linecap="round" stroke-linejoin="round"/>
<path d="M244.01 229.246L50.3101 279.566" stroke="#D2D2D2" stroke-width="1.63" stroke-linecap="round" stroke-linejoin="round"/>
<path d="M233.01 225.786L50.9299 269.686L42.2199 271.786L38.6699 272.646" stroke="#D2D2D2" stroke-width="1.63" stroke-linecap="round" stroke-linejoin="round"/>
<path d="M103.59 296.616L49.8401 261.906" stroke="#D2D2D2" stroke-width="1.63" stroke-linecap="round" stroke-linejoin="round"/>
<path d="M118 292.666L66.3601 258.416" stroke="#D2D2D2" stroke-width="1.63" stroke-linecap="round" stroke-linejoin="round"/>
<path d="M133.78 287.626L80.8 253.566" stroke="#D2D2D2" stroke-width="1.63" stroke-linecap="round" stroke-linejoin="round"/>
<path d="M146.66 282.556L95.03 250.636" stroke="#D2D2D2" stroke-width="1.63" stroke-linecap="round" stroke-linejoin="round"/>
<path d="M148.99 271.036L109.57 246.476" stroke="#D2D2D2" stroke-width="1.63" stroke-linecap="round" stroke-linejoin="round"/>
<path d="M162.5 266.956L138.51 252.376L124.56 243.906" stroke="#D2D2D2" stroke-width="1.63" stroke-linecap="round" stroke-linejoin="round"/>
<path d="M175.99 263.566L141.62 241.276" stroke="#D2D2D2" stroke-width="1.63" stroke-linecap="round" stroke-linejoin="round"/>
<path d="M192.03 259.396L156.82 237.316" stroke="#D2D2D2" stroke-width="1.63" stroke-linecap="round" stroke-linejoin="round"/>
<path d="M207.44 255.316C207.44 255.316 170.84 233.976 170.39 234.606" stroke="#D2D2D2" stroke-width="1.63" stroke-linecap="round" stroke-linejoin="round"/>
<path d="M242.13 261.956L236.58 258.826L184.12 231.486" stroke="#D2D2D2" stroke-width="1.63" stroke-linecap="round" stroke-linejoin="round"/>
<path d="M258.16 260.386L196.41 227.526" stroke="#D2D2D2" stroke-width="1.63" stroke-linecap="round" stroke-linejoin="round"/>
<path d="M278.15 257.876L209.11 224.816" stroke="#D2D2D2" stroke-width="1.63" stroke-linecap="round" stroke-linejoin="round"/>
<path d="M214.39 263.146L149.59 281.756C148.28 282.126 148.2 282.936 149.41 283.556L182.93 300.726C184.359 301.361 185.963 301.481 187.47 301.066L252.82 279.066C254.11 278.626 254.14 277.856 252.88 277.336L219.04 263.336C217.541 262.824 215.926 262.758 214.39 263.146V263.146Z" fill="#F0F0F0"/>
<path d="M54.1801 166.476C54.2665 168.323 53.8482 170.159 52.9701 171.786C52.5955 172.404 52.0827 172.927 51.472 173.314C50.8613 173.701 50.1692 173.941 49.4501 174.016C48.9218 174.076 48.3884 174.076 47.8601 174.016C47.2968 173.964 46.7404 173.853 46.2001 173.686V171.226C46.7649 171.521 47.3623 171.749 47.9801 171.906C48.4603 172.026 48.958 172.06 49.4501 172.006C49.8978 171.964 50.329 171.816 50.7081 171.574C51.0872 171.333 51.4033 171.004 51.6301 170.616C52.1579 169.507 52.3954 168.282 52.3201 167.056V166.946C52.3201 166.266 52.3201 165.946 52.3201 165.256C52.0914 166.028 51.6758 166.732 51.1101 167.306C50.5988 167.787 49.947 168.092 49.2501 168.176C48.6125 168.266 47.963 168.148 47.3975 167.84C46.8321 167.532 46.3807 167.05 46.1101 166.466C45.2397 164.758 44.8361 162.85 44.9401 160.936C44.8643 158.92 45.2688 156.915 46.1201 155.086C46.3901 154.431 46.823 153.855 47.3778 153.414C47.9325 152.973 48.5908 152.681 49.2901 152.566C49.9288 152.455 50.5861 152.579 51.1401 152.916C51.7072 153.323 52.1336 153.896 52.3601 154.556C52.3601 153.776 52.3601 153.386 52.3601 152.556L54.2201 152.326L54.1801 166.476ZM52.3901 160.026C52.4788 158.608 52.2534 157.187 51.7301 155.866C51.5853 155.466 51.3079 155.128 50.9439 154.907C50.58 154.687 50.1516 154.599 49.7301 154.656C49.2615 154.731 48.8215 154.93 48.4557 155.233C48.09 155.535 47.8118 155.93 47.6501 156.376C47.1073 157.759 46.8587 159.241 46.9201 160.726C46.8368 162.153 47.0832 163.58 47.6401 164.896C47.7974 165.303 48.0901 165.643 48.4688 165.86C48.8476 166.077 49.2895 166.157 49.7201 166.086C50.1794 166.011 50.6091 165.811 50.962 165.507C51.3149 165.204 51.5772 164.809 51.7201 164.366C52.2218 162.976 52.4494 161.502 52.3901 160.026V160.026Z" fill="black"/>
<path d="M58.7599 151.796L63.5199 151.196C63.5199 156.446 63.4499 159.066 63.4099 164.306L67.0699 163.826C67.0699 164.586 67.0699 164.976 67.0699 165.736L57.8999 166.956C57.8999 166.196 57.8999 165.806 57.8999 165.036L61.5699 164.556C61.5699 160.076 61.6199 157.836 61.6599 153.356L58.7599 153.716C58.7599 152.946 58.7599 152.566 58.7599 151.796ZM61.7099 145.576L63.5699 145.346C63.5699 146.606 63.5699 147.226 63.5699 148.476L61.7099 148.706C61.6899 147.476 61.6999 146.826 61.7099 145.576Z" fill="black"/>
<path d="M74.89 145.556C74.89 147.246 74.89 148.096 74.83 149.796L79.05 149.266C79.05 150.026 79.05 150.406 79.05 151.166L74.84 151.696C74.84 154.946 74.77 156.566 74.72 159.806C74.6359 160.584 74.793 161.37 75.17 162.056C75.378 162.267 75.6391 162.419 75.9259 162.495C76.2128 162.57 76.5148 162.567 76.8 162.486L78.88 162.216C78.88 162.996 78.88 163.386 78.88 164.166L76.63 164.466C76.1232 164.607 75.5887 164.615 75.0775 164.491C74.5664 164.367 74.0956 164.114 73.71 163.756C73.15 163.086 72.88 161.856 72.91 160.046L73.01 151.936L70.01 152.316C70.01 151.546 70.01 151.166 70.01 150.396L73.01 150.026C73.01 148.326 73.01 147.476 73.07 145.776L74.89 145.556Z" fill="black"/>
<path d="M104.07 152.476C103.98 155.836 103.94 157.476 103.85 160.866L101.99 161.116C101.99 160.236 101.99 159.806 102.05 158.926C101.708 159.748 101.181 160.481 100.51 161.066C99.8765 161.571 99.1146 161.89 98.3101 161.986C97.8182 162.085 97.3089 162.054 96.8332 161.894C96.3575 161.734 95.9323 161.452 95.6001 161.076C94.8617 160.154 94.5039 158.984 94.6001 157.806C94.5528 157.097 94.6478 156.387 94.8795 155.715C95.1113 155.044 95.475 154.426 95.9494 153.898C96.4238 153.369 96.9992 152.941 97.6416 152.639C98.284 152.336 98.9805 152.165 99.6901 152.136L102.18 151.826V151.446C102.29 150.574 102.069 149.693 101.56 148.976C101.273 148.721 100.928 148.539 100.555 148.447C100.183 148.355 99.793 148.354 99.4201 148.446C98.748 148.538 98.0958 148.741 97.4901 149.046C96.8019 149.39 96.1601 149.82 95.5801 150.326C95.5801 149.326 95.5801 148.866 95.6401 147.896C96.2757 147.504 96.945 147.169 97.6401 146.896C98.2316 146.662 98.8495 146.501 99.4801 146.416C100.284 146.281 101.109 146.364 101.87 146.656C102.532 146.945 103.08 147.444 103.43 148.076C103.705 148.552 103.878 149.08 103.94 149.626C104.054 150.571 104.097 151.524 104.07 152.476V152.476ZM100.45 153.936L99.8301 154.016C98.9161 154.078 98.0513 154.453 97.3801 155.076C96.7955 155.709 96.4799 156.545 96.5001 157.406C96.4209 158.122 96.6256 158.84 97.0701 159.406C97.2828 159.628 97.5487 159.793 97.8427 159.884C98.1366 159.975 98.4489 159.989 98.7501 159.926C99.2609 159.852 99.747 159.658 100.169 159.361C100.591 159.064 100.938 158.672 101.18 158.216C101.847 157.011 102.192 155.654 102.18 154.276C102.18 154.056 102.18 153.946 102.18 153.736L100.45 153.936Z" fill="black"/>
<path d="M114.6 146.706C114.7 143.706 114.74 142.166 114.84 139.146L116.7 138.926L116.05 159.206L114.2 159.456C114.2 158.716 114.2 158.346 114.26 157.616C113.978 158.31 113.54 158.929 112.98 159.426C112.477 159.868 111.854 160.15 111.19 160.236C110.559 160.334 109.913 160.227 109.346 159.932C108.78 159.637 108.322 159.169 108.04 158.596C107.211 156.874 106.865 154.959 107.04 153.056C107.019 151.056 107.479 149.081 108.38 147.296C108.686 146.652 109.144 146.093 109.716 145.668C110.288 145.242 110.955 144.964 111.66 144.856C112.276 144.759 112.907 144.883 113.44 145.206C113.983 145.563 114.391 146.091 114.6 146.706V146.706ZM108.98 152.856C108.86 154.26 109.052 155.674 109.54 156.996C109.684 157.393 109.963 157.727 110.329 157.939C110.695 158.152 111.123 158.228 111.54 158.156C112.005 158.079 112.442 157.881 112.806 157.583C113.171 157.285 113.452 156.896 113.62 156.456C114.188 155.094 114.47 153.631 114.45 152.156C114.58 150.757 114.385 149.347 113.88 148.036C113.731 147.641 113.451 147.31 113.087 147.097C112.723 146.884 112.297 146.802 111.88 146.866C111.418 146.939 110.983 147.133 110.619 147.428C110.256 147.723 109.977 148.109 109.81 148.546C109.251 149.914 108.969 151.378 108.98 152.856V152.856Z" fill="black"/>
<path d="M127.05 145.146C127.16 142.146 127.22 140.636 127.33 137.636L129.19 137.416C128.88 145.466 128.73 149.496 128.42 157.556L126.58 157.806C126.58 157.076 126.58 156.706 126.65 155.976C126.36 156.665 125.919 157.28 125.36 157.776C124.852 158.216 124.226 158.498 123.56 158.586C122.933 158.69 122.29 158.589 121.725 158.297C121.161 158.005 120.707 157.538 120.43 156.966C119.598 155.256 119.252 153.35 119.43 151.456C119.414 149.466 119.884 147.503 120.8 145.736C121.11 145.095 121.571 144.54 122.145 144.118C122.718 143.696 123.386 143.421 124.09 143.316C124.705 143.217 125.335 143.337 125.87 143.656C126.414 144.012 126.829 144.535 127.05 145.146V145.146ZM121.39 151.256C121.26 152.649 121.445 154.054 121.93 155.366C122.071 155.765 122.35 156.101 122.717 156.312C123.084 156.523 123.514 156.595 123.93 156.516C124.394 156.44 124.83 156.244 125.194 155.947C125.559 155.651 125.84 155.264 126.01 154.826C126.585 153.476 126.878 152.023 126.87 150.556C127.006 149.168 126.818 147.768 126.32 146.466C126.174 146.07 125.895 145.737 125.529 145.525C125.164 145.313 124.736 145.236 124.32 145.306C123.857 145.377 123.421 145.568 123.056 145.861C122.69 146.155 122.409 146.539 122.24 146.976C121.674 148.332 121.385 149.787 121.39 151.256V151.256Z" fill="black"/>
<path d="M55.2001 188.476C54.858 188.156 54.4526 187.91 54.0101 187.756C53.5796 187.624 53.1244 187.593 52.6801 187.666C52.1281 187.737 51.6016 187.941 51.1454 188.259C50.6892 188.578 50.3168 189.002 50.0601 189.496C49.3895 190.848 49.0729 192.348 49.1401 193.856C49.1401 196.856 49.1401 198.366 49.1401 201.376L47.3101 201.656C47.3101 195.596 47.3101 192.566 47.3101 186.506L49.1501 186.236V189.236C49.3921 188.243 49.8765 187.326 50.5601 186.566C51.1585 185.929 51.9551 185.513 52.8201 185.386C53.2394 185.321 53.6672 185.338 54.0801 185.436C54.487 185.541 54.8682 185.728 55.2001 185.986C55.2101 186.916 55.2101 187.476 55.2001 188.476Z" fill="black"/>
<path d="M67 190.476C67 190.956 67 191.196 67 191.676L59.09 192.856V192.936C58.9761 194.225 59.3003 195.514 60.01 196.596C60.3151 196.99 60.7271 197.288 61.197 197.455C61.6668 197.622 62.1746 197.65 62.66 197.536C63.3023 197.424 63.9211 197.204 64.49 196.886C65.2032 196.47 65.8732 195.985 66.49 195.436V197.886C65.8617 198.338 65.1921 198.73 64.49 199.056C63.8996 199.334 63.2737 199.529 62.63 199.636C61.8906 199.791 61.1225 199.733 60.4146 199.469C59.7067 199.205 59.088 198.747 58.63 198.146C57.5527 196.49 57.0502 194.526 57.2 192.556C57.1315 190.459 57.64 188.384 58.67 186.556C59.0591 185.84 59.6079 185.223 60.2738 184.753C60.9397 184.283 61.7049 183.973 62.51 183.846C63.149 183.725 63.8097 183.799 64.4056 184.06C65.0016 184.32 65.505 184.755 65.85 185.306C66.7491 186.873 67.1502 188.676 67 190.476V190.476ZM65.18 190.016C65.2428 188.905 64.9897 187.799 64.45 186.826C64.2264 186.498 63.9101 186.243 63.5414 186.096C63.1727 185.948 62.7684 185.913 62.38 185.996C61.9287 186.07 61.4993 186.243 61.1225 186.502C60.7457 186.762 60.4307 187.101 60.2 187.496C59.5797 188.535 59.2355 189.716 59.2 190.926L65.18 190.016Z" fill="black"/>
<path d="M74.9799 183.996C75.1586 183.425 75.4588 182.9 75.8599 182.456C76.1998 182.107 76.647 181.881 77.1299 181.816C77.5254 181.731 77.9384 181.798 78.2868 182.004C78.6352 182.209 78.8933 182.539 79.0099 182.926C79.4507 184.608 79.6096 186.352 79.4799 188.086C79.4199 191.536 79.3899 193.266 79.3399 196.716L77.6799 196.966C77.7299 193.556 77.7499 191.846 77.8099 188.436C77.8988 187.139 77.8283 185.836 77.5999 184.556C77.5789 184.447 77.5358 184.344 77.4733 184.252C77.4107 184.161 77.3301 184.083 77.2364 184.024C77.1427 183.965 77.0378 183.926 76.9284 183.909C76.8189 183.892 76.7071 183.898 76.5999 183.926C76.3383 183.965 76.0943 184.082 75.8985 184.259C75.7028 184.437 75.5641 184.669 75.4999 184.926C75.2224 186.21 75.1048 187.523 75.1499 188.836L75.0299 197.386L73.3699 197.636C73.4199 194.216 73.4399 192.506 73.4799 189.086C73.5737 187.778 73.4964 186.464 73.2499 185.176C73.1913 184.968 73.0545 184.79 72.8683 184.68C72.682 184.57 72.4605 184.537 72.2499 184.586C72.0034 184.636 71.7771 184.757 71.5993 184.935C71.4214 185.113 71.2999 185.339 71.2499 185.586C70.9886 186.875 70.8779 188.191 70.9199 189.506L70.8199 198.076L69.1699 198.326C69.2299 192.326 69.2699 189.326 69.3399 183.326L70.9999 183.096C70.9999 183.606 70.9999 183.856 70.9999 184.376C71.188 183.878 71.4735 183.422 71.8399 183.036C72.1436 182.725 72.5402 182.521 72.9699 182.456C73.1862 182.411 73.4096 182.413 73.6252 182.461C73.8408 182.509 74.0436 182.603 74.2199 182.736C74.5954 183.069 74.8605 183.509 74.9799 183.996V183.996Z" fill="black"/>
<path d="M86.69 180.476C87.3573 180.331 88.0533 180.396 88.6819 180.663C89.3106 180.929 89.841 181.385 90.2 181.966C91.1043 183.682 91.49 185.624 91.31 187.556C91.3676 189.636 90.9072 191.698 89.97 193.556C89.6144 194.23 89.1049 194.81 88.4828 195.249C87.8607 195.689 87.1437 195.976 86.39 196.086C85.7301 196.238 85.039 196.179 84.4146 195.917C83.7901 195.655 83.2637 195.203 82.91 194.626C82.1166 193.419 81.7433 191.546 81.79 189.006C81.7188 186.927 82.1728 184.863 83.11 183.006C83.4609 182.329 83.9692 181.746 84.5921 181.305C85.215 180.865 85.9344 180.581 86.69 180.476V180.476ZM86.69 182.546C86.213 182.626 85.7655 182.83 85.3918 183.137C85.0181 183.444 84.7313 183.844 84.56 184.296C83.992 185.688 83.7229 187.183 83.77 188.686C83.6513 190.106 83.867 191.534 84.4 192.856C84.5596 193.256 84.8537 193.587 85.2316 193.794C85.6094 194 86.0473 194.068 86.47 193.986C86.9494 193.902 87.3988 193.694 87.7739 193.384C88.149 193.073 88.4371 192.671 88.61 192.216C89.1812 190.832 89.4538 189.343 89.41 187.846C89.5298 186.426 89.314 184.997 88.78 183.676C88.628 183.254 88.3293 182.9 87.9382 182.68C87.5472 182.459 87.0899 182.387 86.65 182.476L86.69 182.546Z" fill="black"/>
<path d="M99.0501 174.846L98.9501 179.026L103.11 178.426L103.06 180.306L98.9001 180.916L98.7001 188.916C98.5995 189.677 98.743 190.451 99.1101 191.126C99.3169 191.332 99.576 191.479 99.8596 191.549C100.143 191.62 100.441 191.612 100.72 191.526L102.72 191.216V193.146L100.49 193.486C99.1301 193.696 98.1701 193.486 97.6301 192.836C97.0901 192.186 96.8401 190.976 96.8801 189.196C96.9601 185.996 96.9901 184.386 97.0701 181.196L94.0701 181.626L94.1201 179.746L97.1201 179.316L97.2201 175.126L99.0501 174.846Z" fill="black"/>
<path d="M115.97 183.246C115.97 183.716 115.97 183.946 115.97 184.416L108.06 185.596V185.676C107.921 186.924 108.217 188.182 108.9 189.236C109.204 189.622 109.613 189.911 110.078 190.071C110.542 190.231 111.043 190.253 111.52 190.136C112.165 190.028 112.787 189.812 113.36 189.496C114.083 189.093 114.763 188.617 115.39 188.076C115.39 189.076 115.39 189.516 115.32 190.466C114.686 190.904 114.017 191.289 113.32 191.616C112.72 191.882 112.088 192.071 111.44 192.176C110.706 192.355 109.937 192.315 109.226 192.061C108.515 191.806 107.894 191.349 107.44 190.746C106.402 189.136 105.944 187.221 106.14 185.316C106.117 183.266 106.668 181.25 107.73 179.496C108.14 178.795 108.701 178.195 109.372 177.738C110.043 177.281 110.808 176.98 111.61 176.856C112.238 176.727 112.891 176.793 113.48 177.045C114.07 177.297 114.569 177.723 114.91 178.266C115.775 179.774 116.146 181.516 115.97 183.246V183.246ZM114.16 182.816C114.256 181.737 114.027 180.653 113.5 179.706C113.278 179.396 112.971 179.155 112.617 179.014C112.263 178.872 111.875 178.835 111.5 178.906C111.049 178.98 110.618 179.15 110.237 179.403C109.856 179.657 109.533 179.988 109.29 180.376C108.647 181.379 108.265 182.527 108.18 183.716L114.16 182.816Z" fill="black"/>
<path d="M135.82 173.376C136.475 173.223 137.162 173.279 137.784 173.535C138.406 173.792 138.933 174.236 139.29 174.806C140.05 175.986 140.37 177.806 140.29 180.246C140.294 182.275 139.788 184.273 138.82 186.056C138.445 186.717 137.924 187.285 137.297 187.714C136.669 188.144 135.952 188.425 135.2 188.536C134.551 188.688 133.871 188.635 133.254 188.382C132.637 188.129 132.115 187.69 131.76 187.126C131 185.959 130.667 184.136 130.76 181.656C130.746 179.625 131.245 177.623 132.21 175.836C132.579 175.174 133.098 174.606 133.724 174.179C134.351 173.752 135.068 173.477 135.82 173.376V173.376ZM135.73 175.376C135.255 175.455 134.807 175.654 134.43 175.953C134.052 176.252 133.756 176.642 133.57 177.086C132.977 178.435 132.674 179.893 132.68 181.366C132.538 182.741 132.726 184.129 133.23 185.416C133.386 185.801 133.67 186.121 134.035 186.321C134.399 186.521 134.821 186.59 135.23 186.516C135.708 186.429 136.157 186.225 136.535 185.921C136.914 185.617 137.211 185.224 137.4 184.776C137.985 183.435 138.288 181.989 138.29 180.526C138.437 179.15 138.256 177.758 137.76 176.466C137.595 176.082 137.303 175.766 136.934 175.57C136.565 175.374 136.141 175.309 135.73 175.386V175.376Z" fill="black"/>
<path d="M153.3 174.126C152.971 173.818 152.579 173.585 152.15 173.446C151.721 173.325 151.27 173.301 150.83 173.376C150.28 173.448 149.753 173.644 149.288 173.949C148.824 174.254 148.435 174.659 148.15 175.136C147.432 176.394 147.056 177.818 147.06 179.266C146.92 182.116 146.85 183.546 146.72 186.396L144.89 186.676C145.15 180.936 145.29 178.056 145.56 172.316L147.4 172.056C147.34 173.176 147.32 173.736 147.26 174.856C147.553 173.896 148.079 173.024 148.79 172.316C149.412 171.701 150.215 171.302 151.08 171.176C151.493 171.1 151.917 171.1 152.33 171.176C152.725 171.269 153.096 171.443 153.42 171.686C153.39 172.686 153.39 173.166 153.3 174.126Z" fill="black"/>
<path d="M156.78 170.696L161.47 170.026C161.2 175.026 161.06 177.476 160.79 182.436L164.41 181.886L164.31 183.696L155.31 185.086L155.41 183.266L159.02 182.716C159.25 178.476 159.36 176.346 159.59 172.106L156.73 172.526L156.78 170.696ZM159.93 164.696L161.77 164.436L161.61 167.436L159.77 167.696C159.84 166.526 159.87 165.926 159.93 164.746V164.696Z" fill="black"/>
<path d="M176.07 181.006C176.048 182.776 175.54 184.506 174.6 186.006C174.192 186.598 173.664 187.097 173.051 187.473C172.438 187.848 171.753 188.091 171.04 188.186C170.524 188.265 170.001 188.288 169.48 188.256C168.94 188.219 168.404 188.132 167.88 187.996C167.88 187.066 167.96 186.606 168.01 185.686C168.554 185.952 169.128 186.15 169.72 186.276C170.193 186.36 170.677 186.36 171.15 186.276C171.595 186.227 172.023 186.08 172.405 185.847C172.787 185.614 173.113 185.299 173.36 184.926C173.926 183.9 174.225 182.748 174.23 181.576V181.476L174.33 179.906C174.056 180.646 173.61 181.311 173.03 181.846C172.51 182.313 171.862 182.612 171.17 182.706C170.573 182.826 169.953 182.743 169.409 182.469C168.865 182.195 168.429 181.747 168.17 181.196C167.4 179.599 167.101 177.816 167.31 176.056C167.356 174.132 167.86 172.246 168.78 170.556C169.094 169.927 169.551 169.38 170.113 168.959C170.676 168.537 171.328 168.252 172.02 168.126C172.631 168.008 173.264 168.107 173.81 168.406C174.336 168.769 174.727 169.297 174.92 169.906C174.92 169.176 174.98 168.806 175.03 168.076L176.86 167.816C176.56 173.116 176.39 175.746 176.07 181.006ZM174.63 175.006C174.788 173.7 174.64 172.375 174.2 171.136C174.066 170.764 173.805 170.452 173.462 170.256C173.119 170.06 172.718 169.993 172.33 170.066C171.865 170.145 171.428 170.338 171.056 170.628C170.684 170.917 170.39 171.295 170.2 171.726C169.597 173.002 169.276 174.394 169.26 175.806C169.097 177.119 169.262 178.452 169.74 179.686C169.892 180.072 170.177 180.391 170.544 180.586C170.911 180.78 171.335 180.837 171.74 180.746C172.185 180.654 172.601 180.453 172.949 180.162C173.298 179.87 173.57 179.497 173.74 179.076C174.301 177.795 174.604 176.415 174.63 175.016V175.006Z" fill="black"/>
<path d="M181.39 167.166L186.08 166.486C185.75 171.386 185.59 173.836 185.26 178.726L188.88 178.176C188.83 178.896 188.8 179.246 188.76 179.966L179.76 181.346C179.76 180.626 179.83 180.276 179.88 179.556L183.49 179.006C183.77 174.816 183.9 172.726 184.18 168.546L181.32 168.956C181.27 168.246 181.29 167.886 181.39 167.166ZM184.6 161.286L186.44 161.026L186.24 163.946L184.41 164.206C184.44 163.036 184.48 162.476 184.55 161.286H184.6Z" fill="black"/>
<path d="M201.14 169.546C200.88 172.986 200.75 174.716 200.5 178.156L198.67 178.436C198.92 174.986 199.05 173.266 199.3 169.816C199.441 168.909 199.327 167.981 198.97 167.136C198.816 166.868 198.577 166.658 198.292 166.539C198.006 166.419 197.689 166.397 197.39 166.476C196.961 166.543 196.552 166.706 196.196 166.954C195.839 167.202 195.543 167.527 195.33 167.906C194.76 168.94 194.444 170.095 194.41 171.276C194.18 174.436 194.07 176.016 193.85 179.166L192.03 179.446C192.42 173.856 192.61 171.066 193.03 165.446L194.86 165.176L194.71 167.276C195.037 166.509 195.533 165.825 196.16 165.276C196.73 164.795 197.423 164.484 198.16 164.376C198.62 164.257 199.107 164.29 199.546 164.47C199.986 164.65 200.356 164.968 200.6 165.376C201.175 166.686 201.362 168.133 201.14 169.546Z" fill="black"/>
<path d="M195.21 57.0759C195.21 57.0759 180.43 72.0759 181.33 97.8559C182.38 127.856 190.8 138.296 199.72 154.146C204.86 163.296 207.83 173.426 207.65 180.236C207.4 189.396 201.04 210.296 222.84 213.596C244.64 216.896 317.3 212.596 335.46 202.366C353.62 192.136 365.85 176.746 365.85 176.746C365.85 176.746 359.9 99.8159 334.14 64.8059C309.73 31.6359 284.23 28.0659 262.35 22.2859C252.07 20.1759 245.46 16.1759 243.69 12.0859C240.76 19.0859 241.54 17.2059 241.69 20.0859C234.69 19.7159 221.15 12.8959 218.12 10.0159C217.81 9.96817 217.492 10.0285 217.221 10.1869C216.95 10.3453 216.741 10.5921 216.63 10.8859C216.11 13.5059 216.02 12.8859 222.48 27.1859C222.48 27.1859 221.32 24.5359 200.41 26.0859C199.97 26.0859 199.7 27.3059 200.07 27.5459C202.39 29.1359 213.52 32.4759 211.39 36.0759C211.39 36.0759 202.22 33.3059 187.94 40.5559C187.865 40.5974 187.804 40.6611 187.766 40.7384C187.727 40.8157 187.714 40.9028 187.727 40.9879C187.74 41.0731 187.779 41.1521 187.839 41.2144C187.898 41.2766 187.976 41.3191 188.06 41.3359C191.9 41.8359 202.69 42.4559 201.18 44.9959C201.18 44.9959 195.09 47.2359 180.53 57.5159C179.6 58.1759 180.82 59.7859 181.21 59.6459C195.29 54.4759 195.21 57.0759 195.21 57.0759Z" fill="#CAA77A"/>
<g style="mix-blend-mode:multiply" opacity="0.23">
<path d="M195.39 56.306C195.63 56.586 195.9 56.9159 195.69 57.2259C193.22 60.9159 189.69 62.906 185.46 74.136C183.88 78.356 202.23 40.3159 252.88 40.3159C324.88 40.3159 325.62 75.1759 333.88 102.586C342.69 131.796 338.8 180.486 337.62 198.956C337.25 204.876 346.26 195.666 350.32 192.396C356.283 187.633 361.769 182.301 366.7 176.476C366.744 176.424 366.777 176.363 366.796 176.298C366.815 176.232 366.82 176.163 366.81 176.096C366.45 171.606 360.09 98.2959 335.13 64.3659C313.57 35.0659 278.67 28.4759 258.84 21.5659C255.843 21.2522 252.956 20.2688 250.39 18.6884C247.825 17.1081 245.648 14.9712 244.02 12.4359C241.94 13.6059 243.32 18.6759 241.46 20.7359C226.02 18.4259 219.97 10.7959 216.98 10.4159C215.92 10.2759 219.41 24.4159 223.09 27.9659C223.055 28.0349 223.007 28.0961 222.948 28.1459C222.889 28.1956 222.82 28.2328 222.746 28.2553C222.672 28.2777 222.595 28.2849 222.518 28.2764C222.441 28.268 222.367 28.244 222.3 28.2059C220.61 27.2059 217.81 25.5059 201.3 26.1059C201.091 26.108 200.888 26.1756 200.719 26.299C200.55 26.4225 200.425 26.5958 200.36 26.7944C200.294 26.9931 200.293 27.2071 200.356 27.4065C200.419 27.6059 200.543 27.7805 200.71 27.9059C203.03 29.6659 211.47 32.0759 211.87 37.2059C209.99 37.1259 199.98 34.6559 187.99 40.3459C187.819 40.4465 187.683 40.5954 187.597 40.7738C187.511 40.9521 187.48 41.1519 187.508 41.3479C187.536 41.5438 187.621 41.7271 187.753 41.8745C187.885 42.0219 188.058 42.1268 188.25 42.1759C192.79 42.9259 205.92 41.9459 201.88 45.7559C201.88 45.7559 193.82 47.636 180.88 58.386C180.3 58.876 180.81 59.906 181.53 59.636C190.3 56.216 194.19 54.926 195.39 56.306Z" fill="#3F2719"/>
</g>
<path d="M191.9 81.4759C195.39 73.2659 204.57 63.4759 212.85 61.4759C222.6 59.1259 224.4 60.9259 233.85 60.4759C235.59 60.3859 240.85 59.0359 241.91 57.0359C242.97 55.0359 242.15 52.1359 242.19 52.1459C243.68 52.7059 248.19 55.3359 250.02 56.0159C257.1 58.6759 258.75 59.0159 265.14 56.5259C286.48 48.1059 304.75 61.8459 311.98 71.4459C315.83 76.5559 325.11 91.0559 325.42 106.756C325.73 123.006 328.79 130.856 310.1 147.706C287.9 167.706 234.17 178.186 204.1 148.616C189.77 134.476 186.15 95.0359 191.9 81.4759Z" fill="#FFDBAF"/>
<path d="M195.7 56.7359C195.7 56.7359 181.55 72.676 180.81 95.856C179.81 128.156 190.81 138.296 199.72 154.146C204.86 163.296 207.83 173.426 207.65 180.236C207.4 189.396 201.04 210.296 222.84 213.596C244.64 216.896 317.3 212.596 335.46 202.366C353.62 192.136 365.85 176.746 365.85 176.746C365.85 176.746 361.85 97.746 333.85 62.686C309.11 31.616 289.14 31.206 253.47 20.096C245.47 17.606 244.47 13.616 243.73 12.456C242.06 14.456 241.45 18.266 242.2 19.986C241.83 20.056 231.08 21.9159 218.12 10.4259C215.31 9.67595 217.5 20.796 222.63 27.986C222.63 27.986 221.29 25.366 200.43 26.386C200.334 26.3883 200.24 26.4216 200.164 26.481C200.088 26.5403 200.033 26.6226 200.007 26.7157C199.982 26.8087 199.986 26.9076 200.021 26.9977C200.056 27.0877 200.119 27.1643 200.2 27.216C202.54 28.7459 213.64 33.506 211.54 37.116C211.54 37.116 202.04 33.336 187.76 40.586C187.679 40.6236 187.612 40.6871 187.57 40.7665C187.528 40.8459 187.513 40.9369 187.528 41.0255C187.542 41.1141 187.586 41.1954 187.651 41.2569C187.717 41.3184 187.801 41.3567 187.89 41.366C191.73 41.866 204.36 42.6259 201.22 45.5959C201.22 45.5959 194.31 47.3459 180.54 58.0659C180.02 58.4759 180.47 59.396 181.08 59.136C193.15 53.996 195.7 56.7359 195.7 56.7359Z" stroke="#2D1F04" stroke-width="2.62" stroke-linecap="round" stroke-linejoin="round"/>
<path d="M247.18 112.686C239.33 109.076 230.39 123.376 230.05 133.476C229.29 154.156 259.83 159.206 276.96 148.876C294.81 138.106 273.27 106.446 259.63 111.466" fill="#9D7B51"/>
<path d="M191.05 89.0259C182.98 102.866 190.31 128.416 195.73 138.326C196.148 139.097 196.813 139.706 197.617 140.056C198.422 140.405 199.321 140.476 200.17 140.256C205.873 138.809 211.319 136.496 216.32 133.396C249.32 112.896 233.01 69.6659 231.11 67.3959C228.5 63.9059 221.86 73.0759 211.48 81.4559C208.33 83.9559 195.26 88.0159 191.05 89.0259Z" fill="#9D7B51"/>
<path d="M265.9 70.1059C266.19 139.466 320.4 137.046 324.11 128.106C326.49 122.396 330.88 101.606 323.06 84.8159C316.87 70.6459 304.22 83.4759 294.39 79.4759C284.06 75.3159 265.84 56.2459 265.9 70.1059Z" fill="#9D7B51"/>
<path opacity="0.83" d="M292.15 87.336H292.29C299.15 86.336 305.69 91.836 306.88 99.716C308.07 107.596 303.48 114.826 296.62 115.866H296.48C289.62 116.866 283.08 111.366 281.89 103.486C280.7 95.606 285.29 88.376 292.15 87.336Z" fill="#B2B2B2"/>
<path opacity="0.83" d="M213.51 88.9259H213.66C221.22 88.9259 227.36 95.9259 227.36 104.646C227.36 113.366 221.22 120.366 213.66 120.366H213.51C205.94 120.366 199.81 113.366 199.81 104.646C199.81 95.9259 205.94 88.9259 213.51 88.9259Z" fill="#B2B2B2"/>
<path d="M240.77 114.316C240.63 111.606 245.96 109.136 252.67 108.806C259.38 108.476 264.93 110.406 265.07 113.126C265.21 115.846 259.87 118.316 253.16 118.636C246.45 118.956 240.9 117.036 240.77 114.316Z" fill="#251707"/>
<path d="M213.58 89.386C216.774 89.3754 219.842 90.6334 222.109 92.8835C224.376 95.1337 225.657 98.1919 225.67 101.386V102.166C225.58 105.311 224.267 108.297 222.01 110.489C219.754 112.682 216.731 113.908 213.585 113.908C210.439 113.908 207.416 112.682 205.16 110.489C202.903 108.297 201.59 105.311 201.5 102.166V101.386C201.5 99.8034 201.813 98.2364 202.421 96.7752C203.029 95.3141 203.92 93.9877 205.043 92.8723C206.166 91.757 207.498 90.8747 208.963 90.2764C210.428 89.6781 211.997 89.3755 213.58 89.386Z" fill="white"/>
<path d="M293.78 84.8559C295.363 84.8441 296.933 85.1457 298.4 85.7434C299.866 86.3411 301.2 87.2232 302.323 88.3387C303.447 89.4542 304.339 90.781 304.948 92.2428C305.557 93.7046 305.87 95.2725 305.87 96.8559V97.6459C305.779 100.791 304.467 103.777 302.21 105.969C299.954 108.162 296.931 109.388 293.785 109.388C290.639 109.388 287.616 108.162 285.36 105.969C283.103 103.777 281.79 100.791 281.7 97.6459V96.8559C281.7 95.2733 282.013 93.7063 282.621 92.2452C283.229 90.784 284.12 89.4576 285.243 88.3422C286.366 87.2269 287.698 86.3446 289.163 85.7463C290.628 85.148 292.197 84.8454 293.78 84.8559Z" fill="white"/>
<path d="M289.53 100.306C289.544 99.7296 289.727 99.1702 290.057 98.6976C290.388 98.2251 290.85 97.8604 291.386 97.6494C291.923 97.4383 292.51 97.3902 293.073 97.511C293.637 97.6319 294.153 97.9163 294.555 98.3287C294.958 98.7411 295.23 99.2632 295.338 99.8296C295.445 100.396 295.383 100.981 295.16 101.513C294.936 102.044 294.561 102.498 294.08 102.817C293.6 103.136 293.037 103.306 292.46 103.306C291.677 103.288 290.931 102.964 290.384 102.403C289.836 101.842 289.53 101.09 289.53 100.306Z" fill="#2D1F04"/>
<path d="M209.33 104.646C209.355 104.073 209.549 103.519 209.886 103.055C210.223 102.591 210.689 102.235 211.226 102.033C211.763 101.831 212.348 101.792 212.907 101.919C213.467 102.046 213.976 102.335 214.373 102.75C214.77 103.164 215.037 103.686 215.14 104.25C215.242 104.815 215.177 105.397 214.952 105.925C214.727 106.453 214.352 106.903 213.873 107.22C213.395 107.536 212.834 107.705 212.26 107.706C211.466 107.688 210.712 107.355 210.162 106.782C209.613 106.208 209.314 105.44 209.33 104.646V104.646Z" fill="#2D1F04"/>
<path d="M293.78 84.8559C295.363 84.8441 296.933 85.1457 298.4 85.7434C299.866 86.3411 301.2 87.2232 302.323 88.3387C303.447 89.4542 304.339 90.781 304.948 92.2428C305.557 93.7046 305.87 95.2725 305.87 96.8559V97.6459C305.779 100.791 304.467 103.777 302.21 105.969C299.954 108.162 296.931 109.388 293.785 109.388C290.639 109.388 287.616 108.162 285.36 105.969C283.103 103.777 281.79 100.791 281.7 97.6459V96.8559C281.7 95.2733 282.013 93.7063 282.621 92.2452C283.229 90.784 284.12 89.4576 285.243 88.3422C286.366 87.2269 287.698 86.3446 289.163 85.7463C290.628 85.148 292.197 84.8454 293.78 84.8559Z" stroke="#2D1F04" stroke-width="2.6" stroke-linecap="round" stroke-linejoin="round"/>
<path d="M213.58 89.386C216.774 89.3754 219.842 90.6334 222.109 92.8835C224.376 95.1337 225.657 98.1919 225.67 101.386V102.166C225.58 105.311 224.267 108.297 222.01 110.489C219.754 112.682 216.731 113.908 213.585 113.908C210.439 113.908 207.416 112.682 205.16 110.489C202.903 108.297 201.59 105.311 201.5 102.166V101.386C201.5 99.8034 201.813 98.2364 202.421 96.7752C203.029 95.3141 203.92 93.9877 205.043 92.8723C206.166 91.757 207.498 90.8747 208.963 90.2764C210.428 89.6781 211.997 89.3755 213.58 89.386Z" stroke="#2D1F04" stroke-width="2.6" stroke-linecap="round" stroke-linejoin="round"/>
<path d="M188.62 91.1359C215.31 88.3359 230.03 65.5159 230.03 65.5159" stroke="#2D1F04" stroke-width="7.6" stroke-linecap="round" stroke-linejoin="round"/>
<path d="M319.29 79.966C286.8 83.426 264.7 61.116 266.86 63.556" stroke="#2D1F04" stroke-width="7.6" stroke-linecap="round" stroke-linejoin="round"/>
<path d="M238.48 121.976C238.48 121.976 252.57 135.096 271.1 118.826" stroke="#251707" stroke-width="3" stroke-miterlimit="10" stroke-linecap="round"/>
<path d="M312.66 102.616C312.4 102.296 311.95 102.556 312.01 102.996C312.448 106.664 312.135 110.383 311.09 113.926C310.38 116.376 308.4 122.476 313.14 123.636C319.73 125.256 321.09 117.966 319.78 113.536C318.07 107.796 314.32 104.656 312.66 102.616Z" fill="#91D6E2"/>
<path d="M185.39 232.006C185.39 232.006 188.61 241.506 175.73 251.696C167.78 257.986 151 266.696 140.59 244.756C129.28 251.576 118.93 242.676 118.93 242.676C118.93 242.676 108.09 241.476 105.26 241.476C87.76 256.666 91.72 283.216 101.09 295.996C131.02 305.716 169.83 306.046 172.31 300.926C171.84 268.146 199.55 236.196 199.55 236.196L185.39 232.006Z" fill="#CAA77A"/>
<path d="M167.02 334.256C194.1 342.476 213.39 351.726 275.89 353.476C340.4 355.296 381.74 346.536 398.73 328.736C405.25 314.286 388.9 237.546 386.86 233.416C388.374 232.88 389.763 232.039 390.94 230.946C391.62 190.076 379.05 161.296 352.28 157.126C331.65 157.916 323.55 169.246 315.02 180.786C289.39 201.076 211.39 193.996 206.26 179.476C206.26 178.476 206.08 176.476 206 175.366C182.06 181.366 180.67 225.596 181.83 229.916C184.28 233.266 193.5 234.736 193.5 234.736C193.5 234.736 196.74 235.806 193.44 240.216C170.39 271.036 164.16 286.956 167.02 334.256Z" fill="#FFDB1F"/>
<path d="M398.88 327.716C402.58 289.316 387.8 238.046 387.28 236.186" stroke="#2D1F04" stroke-width="2.62" stroke-linecap="round" stroke-linejoin="round"/>
<g style="mix-blend-mode:multiply" opacity="0.23">
<path d="M193.76 239.326C193.76 239.326 200.3 253.716 227.53 253.666C240.53 253.666 242.11 253.876 252.88 253.106C262.64 252.406 262.05 257.986 255.37 258.596C241.37 259.876 234.07 257.686 234.07 257.686C234.07 257.686 210.56 253.946 199.55 255.366C188.91 256.726 182.76 260.956 175.28 268.646C178.39 259.776 193.76 239.326 193.76 239.326Z" fill="#3F2719"/>
</g>
<g style="mix-blend-mode:multiply" opacity="0.23">
<path d="M387.61 235.686C387.61 235.686 402.67 280.526 398.86 328.566C394.86 332.826 386.86 338.566 381.76 340.106C384.82 328.696 378.56 279.156 378.56 279.156L387.61 235.686Z" fill="#3F2719"/>
</g>
<path d="M215.76 228.336C223.76 228.766 231.05 229.006 238.12 229.516C243.93 229.926 245.45 233.696 245.07 237.206C244.56 242.036 241.45 245.266 236.07 246.846C235.79 246.936 235.5 246.986 234.92 247.116C240.37 250.296 240.3 256.436 243.71 262.116L231.61 261.656C229.761 258.195 228.115 254.629 226.68 250.976C225.93 249.086 224.87 247.676 221.73 248.126C220.611 252.432 220.139 256.881 220.33 261.326C216.58 261.196 213.16 261.076 209.47 260.966C208.82 249.916 213.54 238.976 215.76 228.336ZM225.26 235.466C224.72 237.616 224.16 239.586 223.48 241.966C225.86 241.966 228.13 241.966 230.42 241.796C231.272 241.782 232.098 241.495 232.776 240.979C233.454 240.463 233.949 239.744 234.19 238.926C234.66 237.286 233.88 235.926 231.85 235.716C229.82 235.506 227.59 235.546 225.26 235.476V235.466Z" fill="#2D1F04"/>
<path d="M277.15 239.476C273.55 239.566 270.3 239.646 266.92 239.746C266.86 237.016 265.37 235.506 262.55 235.366C261.674 235.228 260.778 235.372 259.989 235.776C259.2 236.181 258.56 236.825 258.16 237.616C257.96 239.186 259.01 239.746 260.3 240.116C262.65 240.786 265.08 241.396 267.48 242.116C268.815 242.524 270.118 243.029 271.38 243.626C279.38 247.346 277.33 256.576 270.68 260.736C268.45 262.099 265.967 262.994 263.38 263.366C259.466 263.955 255.47 263.651 251.69 262.476C249.296 261.819 247.233 260.295 245.9 258.201C244.568 256.107 244.061 253.592 244.48 251.146L254.31 250.966C254.42 251.616 254.5 252.216 254.64 252.796C255.41 255.946 258.76 257.606 262.25 256.476C262.981 256.307 263.65 255.937 264.18 255.406C264.711 254.876 265.082 254.207 265.25 253.476C265.361 252.847 265.243 252.199 264.919 251.649C264.594 251.099 264.084 250.683 263.48 250.476C262.39 249.986 261.21 249.646 260.07 249.266C257.7 248.476 255.26 247.866 253.07 246.896C248.86 245.026 247.3 241.896 248.27 238.336C248.889 236.222 250.077 234.319 251.705 232.836C253.333 231.352 255.338 230.346 257.5 229.926C261.926 228.806 266.579 228.962 270.92 230.376C275.49 231.846 277.39 234.686 277.15 239.476Z" fill="#2D1F04"/>
<path d="M320.6 236.666C335.13 298.356 314.82 312.916 282.54 307.666C259.02 303.836 260.54 266.036 260.54 266.036C250.458 276.453 244.462 290.151 243.65 304.626C243.65 304.626 238.94 307.036 230.65 299.196C220.96 315.046 234.18 334.826 242.43 340.426C266.76 356.936 310.62 357.106 349.18 340.106C387.11 323.396 395.84 293.196 393.71 222.476" fill="#CAA77A"/>
<path d="M135.49 204.616C135.49 204.616 137 241.946 140.63 244.756C144.26 247.566 119.54 251.666 118.47 241.096C118.8 227.386 135.49 204.616 135.49 204.616Z" fill="#B6B1AE"/>
<path d="M261.05 266.036C261.05 266.036 259.58 290.536 272.16 302.626C275.48 305.806 245.77 312.826 244.7 302.256C247.78 279.476 261.05 266.036 261.05 266.036Z" fill="#B6B1AE"/>
<path d="M153.01 274.356C147.54 282.126 118.47 294.106 108.45 295.146C104.45 289.976 99.0701 262.316 113.27 249.696C120.12 258.676 141.67 270.236 153.01 274.356Z" fill="#B6B1AE"/>
<path d="M230 299.706C236.47 294.916 242.58 298.376 243.81 297.646C244.28 301.886 243.96 304.126 243.13 306.256C239.11 306.256 235.81 304.476 230 299.706Z" fill="#B6B1AE"/>
<path d="M316.53 179.376C316.53 179.376 301.34 192.376 268.97 193.686C236.6 194.996 209.74 185.546 206.88 180.916C204.02 176.286 199.72 195.206 207.32 198.756C214.57 202.146 237.46 211.556 271.22 207.046" stroke="#2D1F04" stroke-width="2.62" stroke-linecap="round" stroke-linejoin="round"/>
<path d="M207.26 174.926C183.13 179.126 181.47 220.366 181.99 230.776C182.05 231.826 184.86 233.306 184.86 233.306C184.86 233.306 187.86 242.166 174.12 253.066C160.38 263.966 144.12 255.876 141.12 246.296C138.12 236.716 132.86 213.106 135.83 205.836C138.8 198.566 117.83 221.836 118.99 242.676L105.13 240.186C105.13 240.186 79.81 263.826 101.13 296.026C101.13 296.026 125.47 308.166 166.41 302.716" stroke="#2D1F04" stroke-width="2.62" stroke-linecap="round" stroke-linejoin="round"/>
<path d="M166.84 333.326C161.74 311.196 168.84 266.946 193.44 240.186C194.76 210.296 207.26 198.456 207.26 198.456" stroke="#2D1F04" stroke-width="2.62" stroke-linecap="round" stroke-linejoin="round"/>
<path d="M105.26 241.476C105.26 241.476 135.15 272.026 150.84 272.686C166.53 273.346 108.65 299.316 101.09 295.996" stroke="#2D1F04" stroke-width="2.62" stroke-linecap="round" stroke-linejoin="round"/>
<path d="M112.03 249.696C112.03 249.696 96.8401 271.886 108.63 295.526" stroke="#2D1F04" stroke-width="2.62" stroke-linecap="round" stroke-linejoin="round"/>
<path d="M105.11 270.736C107.41 272.056 127.31 282.126 153.52 274.206" stroke="#2D1F04" stroke-width="2.62" stroke-linecap="round" stroke-linejoin="round"/>
<path d="M118.93 241.476C118.93 241.476 118.93 251.986 141.1 246.266" stroke="#2D1F04" stroke-width="2.62" stroke-linecap="round" stroke-linejoin="round"/>
<path d="M321.8 243.396C331.28 287.896 322.91 307.476 294.26 308.086C256.44 308.886 261.26 266.256 261.26 266.256C251.064 276.525 244.991 290.177 244.19 304.626C244.19 304.626 238.99 306.906 230.74 299.066C228.61 303.726 223.74 316.116 235.58 332.826C251.19 354.826 306.85 358.236 341.77 343.826C391.77 323.146 395.77 282.416 394.3 229.826" stroke="#2D1F04" stroke-width="2.62" stroke-linecap="round" stroke-linejoin="round"/>
<path d="M231.62 298.366C231.62 298.366 236.47 294.806 243.76 297.036" stroke="#2D1F04" stroke-width="2.62" stroke-linecap="round" stroke-linejoin="round"/>
<path d="M244.8 305.076C245.13 305.076 257.7 313.776 272.42 303.016" stroke="#2D1F04" stroke-width="2.62" stroke-linecap="round" stroke-linejoin="round"/>
<path d="M354.88 231.226C364.45 229.056 370.24 228.316 394.09 229.226C405.47 226.756 396.22 158.936 352.41 156.936C320.59 161.136 312.41 185.696 312.02 200.136C311.76 209.686 317.71 242.026 317.71 242.026C317.71 242.026 318.62 245.636 323.07 243.096C334.39 236.676 346.6 233.116 354.88 231.226Z" fill="#FFDB1F"/>
<path d="M394.27 229.746C394.27 229.746 397.9 227.976 398.01 226.036C398.58 216.146 398.68 184.576 378.66 167.326C349.85 142.486 320.81 167.596 314.43 184.666C308.69 199.986 316.96 238.556 317.43 241.196C317.9 243.836 321.83 243.396 321.83 243.396" stroke="#2D1F04" stroke-width="2.62" stroke-linecap="round" stroke-linejoin="round"/>
<path d="M328.6 227.956C328.19 228.196 353.92 213.496 398.15 217.236" stroke="#2D1F04" stroke-width="2.62" stroke-linecap="round" stroke-linejoin="round"/>
<path d="M212.01 184.476C211.288 187.046 211.288 189.766 212.01 192.336" stroke="#2D1F04" stroke-width="2.62" stroke-linecap="round" stroke-linejoin="round"/>
<path d="M217.66 187.046C217.66 187.046 216.66 192.046 218.32 196.176" stroke="#2D1F04" stroke-width="2.62" stroke-linecap="round" stroke-linejoin="round"/>
<path d="M264.56 194.476C264.323 195.834 264.515 197.232 265.11 198.476" stroke="#2D1F04" stroke-width="2.62" stroke-linecap="round" stroke-linejoin="round"/>
<path d="M269.63 194.476C269.629 196.4 270.003 198.305 270.73 200.086" stroke="#2D1F04" stroke-width="2.62" stroke-linecap="round" stroke-linejoin="round"/>
<path d="M242.32 192.876C242.22 194.747 242.368 196.624 242.76 198.456" stroke="#2D1F04" stroke-width="2.62" stroke-linecap="round" stroke-linejoin="round"/>
<g style="mix-blend-mode:multiply" opacity="0.23">
<path d="M352.39 156.956C371.39 164.386 376.3 182.956 378.53 189.816C382.17 200.896 388.72 226.866 382.11 267.416C375.5 307.966 355.93 339.756 310.94 343.726C288.48 345.726 241.36 343.446 228.79 304.236C223.58 326.716 245.04 348.816 269.21 350.606C299.16 352.826 302.73 356.506 341.71 343.786C403.65 312.086 391.79 280.906 393.71 229.206C404.97 226.566 395.79 159.396 352.39 156.956Z" fill="#3F2719"/>
</g>
<g style="mix-blend-mode:multiply" opacity="0.23">
<path d="M122.39 291.006C122.39 291.006 152.39 294.216 168.26 291.496C167.18 295.496 166.26 299.496 166.66 302.496C139.43 308.106 103.21 296.836 103.21 296.836L122.39 291.006Z" fill="#3F2719"/>
</g>
<path d="M250.33 116.286L251.89 126.266" stroke="#251707" stroke-width="3" stroke-miterlimit="10" stroke-linecap="round"/>
<path d="M349.04 221.386C349.04 221.386 351.13 222.096 350.65 227.606" stroke="#2D1F04" stroke-width="2.62" stroke-linecap="round" stroke-linejoin="round"/>
<path d="M353.73 220.316C353.73 220.316 355.82 221.016 355.33 226.526" stroke="#2D1F04" stroke-width="2.62" stroke-linecap="round" stroke-linejoin="round"/>
<path d="M372.17 217.206C372.17 217.206 374.26 217.916 373.77 223.416" stroke="#2D1F04" stroke-width="2.62" stroke-linecap="round" stroke-linejoin="round"/>
<g style="mix-blend-mode:multiply" opacity="0.23">
<path d="M362.1 256.396V267.466" stroke="#3F2719" stroke-width="4" stroke-miterlimit="10" stroke-linecap="round"/>
</g>
<g style="mix-blend-mode:multiply" opacity="0.23">
<path d="M369.59 259.696L368.81 270.736" stroke="#3F2719" stroke-width="4" stroke-miterlimit="10" stroke-linecap="round"/>
</g>
<g style="mix-blend-mode:multiply" opacity="0.23">
<path d="M219.79 169.176L221.79 178.176" stroke="#3F2719" stroke-width="4" stroke-miterlimit="10" stroke-linecap="round"/>
</g>
<g style="mix-blend-mode:multiply" opacity="0.23">
<path d="M227.56 171.446L229.6 180.616" stroke="#3F2719" stroke-width="4" stroke-miterlimit="10" stroke-linecap="round"/>
</g>
<g style="mix-blend-mode:multiply" opacity="0.23">
<path d="M235.55 173.626L237.58 182.716" stroke="#3F2719" stroke-width="4" stroke-miterlimit="10" stroke-linecap="round"/>
</g>
</svg>
