<?xml version="1.0" encoding="utf-8"?>
<!-- Generator: Adobe Illustrator 26.0.3, SVG Export Plug-In . SVG Version: 6.00 Build 0)  -->
<!DOCTYPE svg PUBLIC "-//W3C//DTD SVG 1.1//EN" "http://www.w3.org/Graphics/SVG/1.1/DTD/svg11.dtd" [
	<!ENTITY ns_extend "http://ns.adobe.com/Extensibility/1.0/">
	<!ENTITY ns_ai "http://ns.adobe.com/AdobeIllustrator/10.0/">
	<!ENTITY ns_graphs "http://ns.adobe.com/Graphs/1.0/">
	<!ENTITY ns_vars "http://ns.adobe.com/Variables/1.0/">
	<!ENTITY ns_imrep "http://ns.adobe.com/ImageReplacement/1.0/">
	<!ENTITY ns_sfw "http://ns.adobe.com/SaveForWeb/1.0/">
	<!ENTITY ns_custom "http://ns.adobe.com/GenericCustomNamespace/1.0/">
	<!ENTITY ns_adobe_xpath "http://ns.adobe.com/XPath/1.0/">
]>
<svg version="1.1" id="Слой_1" xmlns:x="&ns_extend;" xmlns:i="&ns_ai;" xmlns:graph="&ns_graphs;"
	 xmlns="http://www.w3.org/2000/svg" xmlns:xlink="http://www.w3.org/1999/xlink" x="0px" y="0px" width="251.6px" height="337.2px"
	 viewBox="0 0 251.6 337.2" style="enable-background:new 0 0 251.6 337.2;" xml:space="preserve">
<style type="text/css">
	.st0{fill:#FFFFFF;}
	.st1{fill:#CAA77A;}
	.st2{fill:none;stroke:#251707;stroke-width:2.6;stroke-linecap:round;stroke-linejoin:round;stroke-miterlimit:10;}
	.st3{opacity:0.23;fill:#3F2719;}
	.st4{fill:#FFDB1F;}
	.st5{fill:#B6B1AE;}
	.st6{fill:#FFDBAF;}
	.st7{fill:#9D7B51;}
	.st8{fill:none;stroke:#9D7B51;stroke-width:3.87;stroke-linecap:round;stroke-linejoin:round;stroke-miterlimit:10;}
	.st9{fill:#3F2719;}
	.st10{fill:none;stroke:#2D1F04;stroke-width:2.62;stroke-linecap:round;stroke-linejoin:round;stroke-miterlimit:10;}
	.st11{fill:none;stroke:#2D1F04;stroke-width:2.62;stroke-linejoin:round;stroke-miterlimit:10;}
	.st12{fill:none;stroke:#2D1F04;stroke-width:7.6;stroke-linecap:round;stroke-linejoin:round;stroke-miterlimit:10;}
	.st13{fill:#251707;}
	.st14{fill:none;stroke:#2D1F04;stroke-width:3.05;stroke-linecap:round;stroke-linejoin:round;stroke-miterlimit:10;}
	.st15{fill:#2D1F04;}
	.st16{fill:#FC3701;}
	.st17{fill:none;stroke:#2D1F04;stroke-width:2.3;stroke-linecap:round;stroke-miterlimit:10;}
	.st18{fill:#FF8A8A;}
	.st19{fill:none;stroke:#251707;stroke-width:2;stroke-linecap:round;stroke-linejoin:round;stroke-miterlimit:10;}
	.st20{clip-path:url(#SVGID_00000098219914070527393000000008257347834755873185_);}
</style>
<metadata>
	<sfw  xmlns="&ns_sfw;">
		<slices></slices>
		<sliceSourceBounds  bottomLeftOrigin="true" height="337.1" width="251.6" x="838.5" y="-700"></sliceSourceBounds>
	</sfw>
</metadata>
<path class="st0" d="M251.3,175.8c-0.1-0.3-0.1-0.6-0.2-0.8c-0.9-5.7-4.4-10.7-8.2-15.2c-1.5-2.4-3.2-5.1-5.2-8.1
	c-2.9-5.2-5.5-9.3-8.1-12.5c-0.9-1.2-1.9-2.5-3.1-3.9c-2.3-3.4-4.7-6.8-6.9-10c-5.3-7.7-10.3-14.9-13.8-20.2
	c-0.6-1.3-1.5-2.8-2.4-4.4c-0.6-1.1-1.2-2.1-1.8-3.1c-1.8-8.6-7.6-12.6-13.1-13.6c-0.6-0.9-1.1-1.8-1.7-2.7
	c-3.9-6.5-8.7-13.1-14.4-19.8c-0.2-0.3-0.5-0.6-0.7-0.8l-0.1-0.1c-11.1-14.8-17.9-20.1-24.9-24.9c-0.1-0.1-0.2-0.1-0.3-0.2
	c-5.8-5-11.8-9.6-14.1-10.9c-2.5-1.4-5.5-2.9-9.1-4.5c-5.9-3.1-11.9-5.7-17.9-7.7c-0.6-0.2-1.3-0.4-2-0.4c-1.8-0.6-3.5-1.2-5.2-1.8
	c-3.5-1.8-7.7-3.7-12.1-4.7c-0.7-0.2-1.3-0.3-2-0.3c-0.8-0.2-1.5-0.3-2.4-0.3c-1.4,0-2.8,0.3-4,1c-0.5,0.3-1,0.6-1.5,0.9
	c-1.8-0.5-3.7-1.1-5.6-1.6c-0.9-0.3-1.8-0.5-2.7-0.8c-0.3-0.2-0.7-0.5-1-0.7c-0.4-0.2-0.7-0.5-1.1-0.7c-0.6-0.6-1.5-1.3-2.5-1.8
	c-1.2-0.6-2.7-1-4.1-1h0c-5,0-8.5,4.1-9.5,6.6c-0.1,0.4-0.3,0.7-0.4,1.1c-1.6,0.4-2.9,0.9-4,1.4c-1.1,0.2-2.2,0.4-3.3,0.6
	c-2.6,0.6-5.4,1.6-7.9,2.8c-2.8,1-4.9,3.3-5.7,6.1c-0.2,0.8-0.3,1.7-0.3,2.5c-3.9,2.5-6.5,5.1-6.8,9.2c-0.1,0.8,0,1.6,0.2,2.4
	c-2.5,2-4.5,4.6-4.5,8.4c0,3.2,1.7,6.1,4.3,7.7c-2.3,4.2-4.1,8.7-5.3,13.5l-2.7,1.2C9.8,65.1,7.6,69,8.1,73c0.5,3.5,3,6.4,6.3,7.4
	C15,91,17.9,102.3,23.2,114c0.8,1.9,2.4,4.4,10.7,12.5c1.6,1.7,3.2,3.4,4.9,5c0.5,0.5,1.2,1.1,2.1,2c2.6,2.4,10,9.3,12.4,11.9
	c0.2,0.6,0.5,1.4,1,2.2c-0.7,0.9-1.3,1.8-2,2.8c-1.4,2-2.6,4.2-3.8,6.4c-0.6-0.5-1.2-1-1.8-1.3c-1.3-2.2-3.2-3.8-5.6-4.7
	c-1.9-0.7-3.8-1-5.8-1c-0.3,0-0.6,0-0.8,0c-2.2,0.1-4.5,0.7-6.6,1.7c-4.2,2-7.2,5.4-8.8,9.8c-0.8,2.4-1.1,4.8-1,7.1
	c-0.4,0.4-0.8,0.8-1.2,1.3c0,0,0,0.1-0.1,0.1c-0.8,1.1-1.5,2.3-1.8,3.7c-0.6,2.2-0.5,4.4,0.3,6.4c-0.3,0.3-0.6,0.5-0.9,0.9
	c-1.2,1.3-2.1,2.8-2.6,4.5c-0.4,1.3-0.5,2.7-0.3,4.1c0.1,0.6,0.2,1.2,0.4,1.8c-1.4,2-2.3,4.2-2.7,6.6c-0.3,1.8-0.4,3.5-0.2,5.2
	c-1.8,0.2-3.5,1-5,2.1c-2.2,1.8-3.7,4.3-4,7.2c-0.3,2.8,0.5,5.6,2.4,7.8c1.4,1.7,3.4,2.9,5.5,3.5c-0.6,0.8-1.1,1.7-1.4,2.6
	c-0.5,1.3-0.7,2.7-0.7,4.1c0.1,1.8,0.6,3.5,1.5,4.9c-0.1,0.3-0.3,0.6-0.4,0.9c0,0,0,0,0,0.1c-0.5,1.3-0.7,2.7-0.6,4.1
	c0.1,1.4,0.4,2.8,1,4c0.1,0.3,0.3,0.6,0.5,0.9c-0.8,1.6-1.1,3.3-1,5.1c0.1,1.4,0.4,2.8,1,4c0.6,1.3,1.5,2.4,2.5,3.4c0,0,0,0,0,0
	c1,0.8,2.1,1.5,3.3,1.9c0.3,0.1,0.6,0.2,0.8,0.3c-0.5,0.6-0.9,1.2-1.3,1.9c0,0,0,0,0,0.1c-2.4,4-3,8.5-1.9,13
	c0.9,3.7,2.9,6.8,5.7,9.1c-0.5,1.5-0.7,3.1-0.7,4.8c0,2.1,0.5,4.1,1.4,6.1c0.7,1.6,1.7,3,2.8,4.2c0.2,1.7,0.6,3.3,1.3,4.9
	c0.4,0.8,0.8,1.7,1.4,2.4c0.2,0.7,0.4,1.5,0.7,2.2c1.2,2.5,3.2,4.5,5.9,5.5c0.1,0,0.1,0,0.2,0.1c0.4,2.9,1.5,5.6,3.3,8
	c1.8,2.4,4.1,4.2,6.8,5.4c-0.2,2.7,0.7,5.4,2.8,7.3c1.7,1.6,4,2.5,6.2,2.5c1.3,0,2.6-0.3,3.8-0.8l14.9-7c0.6,0.4,1.2,0.7,1.9,0.9
	c0.3,0.1,0.6,0.2,1,0.3c0.4,0.1,0.8,0.2,1.2,0.2c1.7,0.2,4.2,0.3,8.1,0.3c5.2,0,12.3-0.2,17.1-0.3c2.7-0.1,5.3-0.2,7.8-0.2l2-0.1
	l1.3,0h24.1c1.8,0,4.5-0.5,8-1.6c0.5-0.1,1.1-0.2,1.6-0.3c3.7,2.4,7.8,4.7,12,5.5c2.5,0.5,5.1,0.9,7.6,1.2c2.3,0.3,4.5,0.6,6.3,1
	c2.4,0.5,4.8,0.7,7.2,0.7c5.6,0,11.4-1.3,17.8-3.8c0.8,0,1.6,0.1,2.4,0.1c1.5,0.6,3.4,1,5.9,1c0.7,0,1.4,0,2.3-0.1
	c2.6-0.2,4.8-0.3,6.9-0.6c0.8,0,1.6,0.1,2.4,0.1c3.4,0,8.2-0.4,11.7-1.3h0.1c6.3,0,8.8-5.5,10.2-8.8c0.9-1.9,1.8-4.2,2.6-6.9
	c0.2-0.4,0.4-0.7,0.6-1.1c0.7-1.4,1.2-3.2,1.7-5.9c3-9.8,2.7-11.6,2.6-13.1c-0.2-1.3-0.3-3.9-0.2-8.6c0.3-4,0.6-8.2,0.8-12.6
	c0.3-3.3,0.7-6.6,1-9c0.2-1,0.2-1.7-0.3-11.1c0-1.9,0-3.2,0-4.3c0.2-0.8,0.3-1.6,0.3-2.4c0.1-8.3-0.7-18.8-2.3-31.2
	c-0.4-4.6-0.8-9.2-1.2-13.8c5.4-6.3,9-12.8,10.6-19.4c0.2-1,0.4-2,0.4-3c0.3-0.9,0.4-1.8,0.4-2.8
	C251.6,177.4,251.5,176.6,251.3,175.8z M33,31.6C32.9,31.6,32.9,31.6,33,31.6c0,0,0.2,0,0.3,0C33.2,31.6,33.1,31.6,33,31.6z
	 M52.5,16.4c0.1,0,0.1,0,0.2,0c0.1,0,0.2,0,0.3,0C52.8,16.4,52.6,16.4,52.5,16.4z M10.5,211.7C10.5,211.7,10.5,211.7,10.5,211.7
	c0.1,0,0.1,0,0.2,0H10.5z M16.4,228.2L16.4,228.2c0.1,0,0.1,0,0.1,0C16.4,228.2,16.4,228.2,16.4,228.2z M16.9,241.2
	C16.9,241.2,16.9,241.2,16.9,241.2C16.9,241.2,16.9,241.2,16.9,241.2L16.9,241.2z M27.9,262.3c0.1,0,0.1,0,0.2,0c0,0,0.1,0,0.1,0
	H27.9z M30.2,237.6L30.2,237.6C30.2,237.6,30.3,237.6,30.2,237.6C30.2,237.6,30.2,237.6,30.2,237.6z M30.7,250.6
	C30.6,250.6,30.6,250.6,30.7,250.6C30.6,250.6,30.7,250.6,30.7,250.6C30.7,250.6,30.7,250.6,30.7,250.6z M81.7,13.8
	c0,0-0.1,0-0.1,0.1C81.6,13.8,81.7,13.8,81.7,13.8L81.7,13.8C81.7,13.8,81.7,13.8,81.7,13.8C81.7,13.8,81.7,13.8,81.7,13.8z
	 M184.6,92.4c0.1,0,0.1,0,0.2,0c0,0,0,0,0,0C184.8,92.4,184.7,92.4,184.6,92.4z"/>
<g>
	<g>
		<path class="st1" d="M66.9,149.9c-2.1-1.5-57,112.1,12.8,165.4c14.4,4.2,10.7-1.7,23.4-0.9c2.3,0.1,15.8,1.2,13.6-2.3
			c-3.2-5-8.6,1.7-13.4-1.6c-11.5-7.9-20.7-28.2-22-42.5c-1.2-13,1.1-27.5,7-39.4c3.5-7.1,8.3-18,7.5-26.1
			c-1.5-14.9-11.1-33.4-19.2-45.6C74.3,153.3,70.3,152.2,66.9,149.9z"/>
		<path class="st2" d="M66.9,149.9c-2.1-1.5-57,112.1,12.8,165.4c14.4,4.2,10.7-1.7,23.4-0.9c2.3,0.1,15.8,1.2,13.6-2.3
			c-3.2-5-8.6,1.7-13.4-1.6c-11.5-7.9-20.7-28.2-22-42.5c-1.2-13,1.1-27.5,7-39.4c3.5-7.1,8.3-18,7.5-26.1
			c-1.5-14.9-11.1-33.4-19.2-45.6C74.3,153.3,70.3,152.2,66.9,149.9z"/>
		<path class="st3" d="M66.9,149.9c-2.1-1.5-57,112.1,12.8,165.4c14.4,4.2,10.7-1.7,23.4-0.9c2.3,0.1,15.8,1.2,13.6-2.3
			c-3.2-5-8.6,1.7-13.4-1.6c-11.5-7.9-20.7-28.2-22-42.5c-1.2-13,1.1-27.5,7-39.4c3.5-7.1,8.3-18,7.5-26.1
			c-1.5-14.9-11.1-33.4-19.2-45.6C74.3,153.3,70.3,152.2,66.9,149.9z"/>
		<path class="st4" d="M67.7,145.7c-15.5,8.5-22.3,43.8-20.7,45.9c1,1.3,24.9,7.8,27.3,7.5c5.6-0.8,4-2.9,4.9-7
			c2.5-11.2,3.1-22-1.2-32.7c-1.3-3.2-3.5-8-7.2-8.7C68.8,150.3,80.8,138.5,67.7,145.7z"/>
		<path class="st2" d="M67.7,145.7c-15.5,8.5-22.3,43.8-20.7,45.9c1,1.3,24.9,7.8,27.3,7.5c5.6-0.8,4-2.9,4.9-7
			c2.5-11.2,3.1-22-1.2-32.7c-1.3-3.2-3.5-8-7.2-8.7C68.8,150.3,80.8,138.5,67.7,145.7z"/>
		<path class="st5" d="M187.9,306.7c-7.4,3-14.7,2-21.2,7.5c-1.1,0.9-4.7,4.1-4.2,5.7c0.8,2.7,6.7,2,8.8,2.1
			c8.1,0.2,16.5,1.2,24.6,1.4c1.5,0,9.1,0.9,9.4-1.2c0.6-5.2-10.2-9-12.7-11.7"/>
		<path class="st5" d="M100.9,305.2c-8.3-0.2-17.6,3.5-24.1,8.5c-0.6,0.5-5.7,5.3-5.2,6c1.3,1.9,7.7,0.5,9.6,0.7
			c8.1,0.9,16.8-0.6,25-0.4c1.4,0,6.8,1,7.6-0.6c1.2-2.3-5.3-6.3-6.5-7"/>
		<path class="st1" d="M38.8,37.1c-2.4,0-8.6,12.1-10,14.6c-10.4,18.2-6.6,39.5,1.7,57.8c2.1,4.7,29.8,29.3,29.1,27.7
			c-0.2-0.5,11.5,24.2,15.8,25.3c16.6,4.1,10.3-2.5,26.9-2.5c4.2,0,15.3-4.8,18.7-8.3c2.9-2.9,3.8-6.7,6.2-10
			c3.2-4.5,10.6-9.9,15.8-11.9c5.3-2.1,12-0.8,17.2,0.5c1.3,0.3,5.4,2,6.7,0.7c2.2-2.2,3.2-8.5,2.6-11.2c-1.5-7.3,6.5-0.4,5.1-7.4
			c-1-4.8,11.9-13,9.3-17.2c-31.1-49.6-36.6-47.9-52.4-59.3c-3.9-2.9-12.2-7.8-16.7-10.1c-4.4-2.2-9.2-2.1-13.6-4.3
			c-5.7-2.9-12-6.6-18.1-8.1c-1.6-0.4,0.6,2.3,0.5,2.6c-0.2,0.4-4,0.3-4.5,0.2c-5.1-1-10.4-0.9-15.3-3.1c-0.8-0.4-3.8-3.4-4.8-3.1
			c-2.9,1,1.4,9.1,1.4,9.1s-0.4-0.7-0.7-1c-1.4-1.1-4.6-2-6.4-2.4c-3.9-0.8-5.5,1.7-8.8,2.4c-0.4,0.1-4.3,1.1-4.3,1.2
			c0,0.8,6.2,1.8,6.2,2.6c0,0.7-1.4,0.4-1.7,0.5c-1.8,0.3-12.2,4.6-11.5,6.9c0.3,1,5.8,1,6.9,1.7c0.3,0.2,1,0.2,1,0.2
			s-4.3,0.7-6.4,1.2C31.8,33,26.4,39,31.1,39"/>
		<path class="st1" d="M233.2,248.1c0.8,6.3-1.7,56.8-4.5,62.5c-2.9,5.9-5.3,8.8-5.7,11.1c-0.2,1.4-12.8,2.7-16,1.4
			c0,0-7.4-9.2-9.8-11c-2-1.5-0.5-1.8-5.2-3.8c-2.9-1.2-6.5-1.2-9.2-4c-2.6-2.6-0.5-9.4-3.3-11.3c-2.8-1.8-8.4,0.5-17.3,2.4
			c-8.9,1.9-15.5,1.5-24.1-0.7c-1.5-0.4-1.3,2.5-0.5,5.8c0.8,3.7,2.3,7.9,2.9,8.7c0.4,0.7,4.6,5.5,3.5,6.6
			c-2.2,2.3-18.5,4.5-21.2,4.5c-3.1,0-5.9-1.3-8.8-0.8c-0.7,0.1-2.1,0-2.1,0s1.6,0.7,1.4,0.2c-0.3-0.9-2.2-2.5-2.8-3.3
			c-2.3-3.1-6.1-7.5-8.8-10.1c-2.2-2.2-2.9-4.3-4.4-7.2c-2.1-4.2-3.5-9.4-4.7-14.1c-0.3-1.1,0.4-5-0.6-5.7c-6.4-4.9-7-8.6-10.6-9.2
			c-3.7-0.6-5.4-7.1-6-9.9c-1.4-7-2.7,10-2.7,2.7c0-1.2-4-13-3.2-13.5c1.5-1.1,2.6-0.9,4.3-0.9c6,0,10.9-0.4,16.9,1.2
			c3.9,1.1,7.1,3.6,11.3,4c6.4,0.6,12.8-1,19.2-0.5c6.2,0.5,11.4,1.5,16.6,0.5c1.2-0.2,7.9,6.8,8.6,6.1c0.9-0.9-1.7-13,0.3-13.5
			c3.5-0.9,6.3,2.6,9.6,3.2c8.1,1.6,14.7-9.7,14.3-13.9c-0.4-4.2,14.1-3.9,15.4-7.1c1.4-3.5,4.1,3.9,5.5,0.2
			c1.7-4.6-0.3-11.4-1.3-16.1c-0.6-3-3.3-11-1.8-14.1c2.7-5.3,19.6-13.9,25.3-15.2c5.2-1.2,11.1-2.3,16.4-0.9
			c6.5,1.6-2.4,9.5-0.4,22.8c0.8,5.4,4.1,26.5,3.9,42.6"/>
		<path class="st6" d="M27.4,74.2c2-8.1,7.5-13.9,11.3-16.2c3.8-2.3,8.6-2.9,15.1-7.3c3.6-2.4,1.5-7.3,1.5-7.3
			c1.3,0.4,13.2,4.8,23.9,3.1c26.8-4.2,47.8,2.4,57.8,20.5c2.2,4.1,5.7,13.4,3.3,23.8c-3.4,15.1-3.6,25.4-20,36.7
			c-19.5,13.5-55.9,14.9-79.7-10.3C30.2,106,23.7,89.4,27.4,74.2z"/>
		<path class="st7" d="M66.5,91.6c-6.8-3.4-17.9,10.5-13.6,23.1c5.9,17.2,37.2,21.6,49.2,11.9c7.3-5.9,8.9-11.9,1-22.9
			c-5.2-7.2-19.2-15.9-25-13.6"/>
		<path class="st7" d="M27.4,74.2c-3.7,6.7,0.9,25.7,4.9,30.9c41.2-4.9,26.5-45.5,24.3-47.6c-1.2-1.2-17.1,13.7-19.5,14.1
			C33.7,72.4,28.9,71.5,27.4,74.2z"/>
		<path class="st7" d="M87.5,59.8c-6.5,47.3,43.4,48.8,48.9,47.2c2.1-5.1,8.8-25.8,1.4-41.3c-0.7-1.4-10.7,3.2-12.1,3.5
			C113.9,71.2,88.1,55.2,87.5,59.8z"/>
		<line x1="121.2" y1="199.4" x2="121.2" y2="205.1"/>
		<line class="st8" x1="121.2" y1="199.4" x2="121.2" y2="205.1"/>
		<line x1="206.6" y1="243.7" x2="206.5" y2="249.4"/>
		<line class="st8" x1="206.6" y1="243.7" x2="206.5" y2="249.4"/>
		<line x1="212.7" y1="240.5" x2="212.7" y2="246.1"/>
		<line class="st8" x1="212.7" y1="240.5" x2="212.7" y2="246.1"/>
		<path class="st3" d="M26.5,38.8c4,0,7.5-1.1,11.4-2c1.1-0.3,3.3-1.5,3.3-0.3c0,0.2-0.5,0.2-0.7,0.3c-3.4,2-6.1,4.9-8,8.4
			c-0.7,1.2-2.5,4.5-2,3.7c15.3-27.7,113.5-48.8,133,77.3c0.2,1-14-0.2-13,0.1c2,0.7,3.3,21.2,5.8,22.1c1.1,0.4,11.1-17.5,12-18.1
			c1.4-1,25.4-5.2,18.6-26.8c-11.4-35.9-56-69.9-59.8-72c-14.4-8-43.9-16.9-44.6-17.1c-0.1,0-2.7,1.6-4,1.3
			c-4.8-0.8-10.2-2.6-15.1-4C62.6,11.5,58.2,8,58,8.3c-0.5,1.1-0.9,7.2-0.3,8c0.4,0.6,2.8-0.3,2-0.3c-6.2,0-14.1,2-20.8,3.3
			c-0.2,0-0.7,0.1-0.7,0.3c0,1.9,8.7,0.7,8.7,2c0,1-12.1,4.4-13.7,5.7c-0.5,0.4-2.5,1.9-2,2.3c1.6,1.6,5.6-0.4,7.7,0.7"/>
		<path class="st9" d="M122.6,293.6c0,0.2,0,0.4,0,0.7"/>
		<path class="st3" d="M94.5,281.6c-1.6-1.5-2.2,6.8-2.1,7.5c0.5,6.4,3.3,11.8,7.2,16.9c0.1,0.2-0.8-1.5-0.9-1.3
			c-0.2,0.7-4.4,2.5-5.2,2.6c-2.4,0.5-24.5,8.8-21.4,13.4c0.1,0.1,22.9-0.3,24.8-0.3c12.4,0,22.1,0,34.5,0c1.8,0,10.8-2.6,11.8-4.1
			c1.4-2.1-3.1-9.5-3.8-11.3c-0.4-1-2.2-9.9-2.4-10c-3.9-2.6-12.6-1.6-17-2.7C112.7,290.5,99.9,286.8,94.5,281.6z"/>
		<path class="st3" d="M185.4,290.2c-1-1.1,11.7-10.3,8.5-9.3c-78,25-109.6-10.4-110.4-9.2c-0.3,0.4,4.3,4,4.6,4.4
			c5,5.5,9.8,8.3,16.5,11.7C141,306,186.7,291.6,185.4,290.2z"/>
		<path class="st10" d="M38.8,36.5c-0.1,0.8-38.3,46.5,5.2,87.6c2.9,2.7,14.9,13.8,16.1,15.6c0.6,0.9,0.8,2.8,1.6,3.4
			c0.4,0.3,0.6-1.4,0.8-1.1c1.1,1.7,1.9,3.8,2.5,5.6c0.2,0.7,0.4,2.8,0.6,2.1c0.1-0.2-0.2-1.9,0.6-2c0.4-0.1,4.3,9,4.6,10"/>
		<path class="st10" d="M38.9,36.5c-2.2,1.1-13.7,4.2-13.7,3.8c0-1.5,12-8.2,14.3-8.9c0.3-0.1,0.9-0.1,1-0.4
			c0.2-0.5-0.9-0.5-1.4-0.6c-2.3-0.6-7.7,1.2-9.5-0.2c-0.5-0.4,3.5-2.8,3.8-3c2.5-1.4,5-3.2,7.7-4c1.6-0.5,5,0.7,5-1
			c0-2-9-1.3-9.7-2c-0.1-0.1,0.3-0.1,0.4-0.2c2-1,4.3-1.9,6.5-2.4c4.1-1,11.4-1.9,15.5-0.6"/>
		<path class="st10" d="M59.3,18.1c-1.2-2.3-3.3-6.2-2.2-8.9c0.1-0.1,1-1.1,1.2-1c0.8,0.4,1.4,1.8,2.4,2.4c3.9,2.1,8.3,3.6,12.7,4.6
			c2.6,0.6,5.2,0.8,7.7,1.4c0.6,0.1,1.8,0.2,1.8,0.2s-3.5-3.1-2.2-3.8c0.2-0.1,10.2,3.6,11.1,4c7.1,2.8,14.3,4.4,21.1,7.7"/>
		<path class="st10" d="M69.3,248.8c-0.1,6.9,3.5,13.9,3.5,13.9s1.5-4.5,2.2-3.3c0.8,1.4,4.1,13.7,6.3,13c0.1,0,0-3.3,0.2-3.1
			c0.8,0.4,5.2,6.3,6.7,7.4c5.4,4.1,11.8,7.5,18,10.2c23.1,10.1,57.4,14.1,80.4,2.6"/>
		<path class="st10" d="M92.3,279.8c-2.2,6.7,3,21,8.3,26.1"/>
		<path class="st10" d="M137.2,295.9c0.2,4.7,2.1,14.8,5.9,18.6"/>
		<path class="st10" d="M99.8,305.6c-12.2-0.4-26.1,11-27,12"/>
		<path class="st10" d="M111.7,320.4c5,0,11.2-0.4,16.3-0.5c3-0.1,16.5-0.5,15.7-4.7"/>
		<path class="st10" d="M181,291.9c-1.8,3.5,1,12.9,7.1,14.9"/>
		<path class="st10" d="M229.8,200.3c7.6,71.2-0.1,119.7-7.3,121.6"/>
		<path class="st10" d="M187.4,306.4c-17.2,3-23.8,9-27.9,14.1"/>
		<path class="st10" d="M159.7,320.8c1.8,1.5,61.6,3,63.2,1"/>
		<path class="st10" d="M101.6,20c36.1,12,64.5,43.2,82.8,75.1"/>
		<path class="st10" d="M101.1,306c5.1,3.4,9.3,7.4,12,12.8"/>
		<path class="st10" d="M188.1,306.6c7.7,3.1,14.3,8.8,18,16.1"/>
		<path d="M71.5,320.8c4.8,1.1,44.4-0.9,46.7-0.5"/>
		<path class="st11" d="M71.5,320.8c4.8,1.1,44.4-0.9,46.7-0.5"/>
		<polyline points="73.1,317.2 72.6,317.5 71.6,318.8 71.2,319.9 71.5,320.8 		"/>
		<polyline class="st11" points="73.1,317.2 72.6,317.5 71.6,318.8 71.2,319.9 71.5,320.8 		"/>
		<path class="st10" d="M71.9,320.7c4.7-3.9,25.8-11.7,33.7-10.4"/>
		<path class="st10" d="M161.4,320.6c7.3-3.7,16.2-6.3,25-7.4c3.8-0.5,7.6-0.6,11.3-0.5"/>
		<path class="st12" d="M81.9,52.4c18,23,58.6,15.7,58.6,15.7"/>
		<path class="st12" d="M57.9,53C41.9,74,16.1,70.9,16.1,70.9"/>
		<path class="st13" d="M58.8,91c-0.1-2.6,4.9-4.9,11.2-5.2c6.3-0.3,11.6,1.5,11.7,4.1c0.1,2.6-4.9,4.9-11.2,5.2
			C64.1,95.4,58.9,93.5,58.8,91z"/>
		<path class="st14" d="M115.1,70.9c0.2-0.1,0.4-0.3,0.6-0.4"/>
		<path class="st15" d="M109.3,75.3c-0.3,0-0.6-0.1-0.9-0.1"/>
		<path class="st4" d="M70.1,159.1c1.1-0.7-3,1.3-2.2,4.7c1.6,6.4,1.2,14.2,3,20.8c0.4,1.4,2.5,6.3,2.2,7.5c-0.5,2-3.6,4.5-4.5,6.8
			c-2.8,6.9-5.9,15.6-6.8,22.9c-0.5,3.9,0.6,8.5-0.4,12.4c-0.7,2.9-2.4,9.6,0.4,11.5c1.6,1.1,2.2-0.2,3.8,0.2c2.1,0.5,4.4,4.4,7,5
			c8,2,28.3,8.8,36.2,3.6c1.7-1.1,2.4-6.1,0.4-6.1c-1.8,0-1.3,4.1,0,5.4c0.9,0.9,6.4,0.8,7.7,0.5c6.5-1.3,13.7-2.5,20.4-3
			c3.2-0.3,6.7,1.1,9.9,0c9.6-3.2,19.3-5.7,28.9-9.5c5.5-2.2,9.9-6.6,15.1-9.5c14.5-8.1,26.2-19.1,35.3-32.8
			c4.4-6.6,13-13,14.7-21.3c1.3-6.6-7.7-14.7-11.3-19.5c-9-12-16-25.5-25.1-37.7c-2.4-3.1-6.2-6.9-7.2-10.9
			c-0.6-2.2-10.9-20.6-14.3-18.3c-0.8,0.5,2.9,5,1.8,5.6c-3.9,1.9-7.6,8.9-11.3,12.6c-1.6,1.6-4.4,1.9-6.3,3.4
			c-3.7,2.9-7.7,8.7-12.6,9.9c-2.3,0.6-4.2-1.2-6.5-0.9c-3.7,0.5-13.3,3-16,5.7c-3.5,3.5-9,8.9-11.7,12.9c-1.9,2.9-2.8,6.9-5.4,9.5
			c-7.3,7.3-21.6,3.9-30.7,7.5c-4.5,1.8-10.2-0.6-14.7,0.5C69,158.7,67,161,70.1,159.1z"/>
		<path class="st4" d="M70,160c1.1-0.7-3,1.3-2.2,4.7c1.6,6.4,1.2,14.2,3,20.8c0.4,1.4,2.5,6.3,2.2,7.5c-0.5,2-3.6,4.5-4.5,6.8
			c-2.8,6.9-5.9,15.6-6.8,22.9c-0.5,3.9,0.6,8.5-0.4,12.4c-0.7,2.9-2.4,9.6,0.4,11.5c1.6,1.1,2.6,2,4.1,2.4c2.1,0.5,4,2.2,6.6,2.8
			c8,2,28.3,8.8,36.2,3.6c1.7-1.1,2.4-6.1,0.4-6.1c-1.8,0-1.3,4.1,0,5.4c0.9,0.9,6.4,0.8,7.7,0.5c6.5-1.3,13.7-2.5,20.4-3
			c3.2-0.3,6.7,1.1,9.9,0c9.6-3.2,19.3-5.7,28.9-9.5c5.5-2.2,9.9-6.6,15.1-9.5c14.5-8.1,27.3-17.2,36.4-30.9
			c4.4-6.6,12-14.9,13.6-23.2c1.3-6.6-7.7-14.7-11.3-19.5c-9-12-16-25.5-25.1-37.7c-2.4-3.1-6.2-6.9-7.2-10.9
			c-0.6-2.2-7.5-18.7-14.3-18.3c-0.9,0.1,2,4.4,0.9,5c-3.9,1.9-6.7,9.5-10.4,13.1c-1.6,1.6-4.4,1.9-6.3,3.4
			c-3.7,2.9-7.7,8.7-12.6,9.9c-2.3,0.6-4.2-1.2-6.5-0.9c-3.7,0.5-13.3,3-16,5.7c-3.5,3.5-9,8.9-11.7,12.9c-1.9,2.9-2.8,6.9-5.4,9.5
			c-7.3,7.3-21.6,3.9-30.7,7.5c-4.5,1.8-10.2-0.6-14.7,0.5C69,159.5,66.9,161.9,70,160z"/>
		<path class="st13" d="M68.2,100.8c-4.6,7.9-12,1.5-12.3,1.3c-6.3,17.8,11.1,24.5,19.9,25.9c9.1,1.5,18.8-3.3,24.8-10.8
			c3.3-4.2,1-11.7-3.9-15c-0.3-0.2-5.2,4.2-6.7,4.7C82.8,109.3,70.6,107.6,68.2,100.8z"/>
		<path class="st1" d="M161,195.3c1,1.1-0.1-0.6-2.4,10.3c-3.6,16.9-7.6,43.4-1.9,73.6c2.7,14,9.5,20.6,17,32c2.7,4,7.6,6,12.6,7.1
			c1.7,0.4,8.7,2.3,7.2,3c-8.1,4-16.4,6.7-25.1,5c-4.3-0.9-9.5-1.3-13.9-2.2c-4.7-0.9-10.2-5.1-14-7.8c-4-2.8-6.5-5.1-9.7-8.8
			c-9.8-11.2-11.4-23.9-15.4-37.5c-1.7-5.8-2.9-7.9-3.9-18c-1-10.1-2.7-29.1-2.7-29.1s0.2-16.3,1.5-22.8c1-5.2-2.5-12.8,1.9-15.9
			C120,178.9,147.9,180.1,161,195.3z"/>
		<path class="st3" d="M44.1,76.8c-1.8-7-14.6-6-14.6,3.4c0,11.5,15.9,16.9,15.7,17s15.5-7.9,15.3-17.9c-0.1-7.9-12.1-12-14.7-2.5
			c-0.2,0.7-0.1,2.1-0.5,2.7C44.8,80.1,44.1,76.8,44.1,76.8z"/>
		<path class="st3" d="M110.4,74.3c-1.9-7.4-15-6.3-14.9,3.5c0,12.2,16.3,17.9,16.1,17.9c-0.2,0,15.9-8.3,15.7-18.9
			c-0.1-8.3-12.4-12.7-15.1-2.6c-0.2,0.7-0.1,2.2-0.6,2.8C111.1,77.8,110.4,74.3,110.4,74.3z"/>
		<path class="st10" d="M166.7,128.9c-25.4-18.9-46.1,7.8-52.6,24.1c-2.2,5.5-5.7,20.2-6.4,26.1c-0.4,3.3-0.6,6.2,5.1,5"/>
		<path class="st10" d="M107.9,178.4c3.4-3.7,30.7-12.1,51.8,5.9"/>
		<path class="st10" d="M161.6,195.3c0.7,0.1,2.9,0.8,5.2-1.2c4.2-3.8,7.5-36.3,7.3-43.5"/>
		<path class="st10" d="M155.4,122.5c5.5-2.8,25.5-20.3,28.8-26.9"/>
		<path class="st10" d="M71.2,158.1c-4.4,0.5-3.8,5-2.4,8"/>
		<path class="st10" d="M69.1,166.4c1.3,10.5,1.7,22.1,5.5,32.1"/>
		<path class="st10" d="M72.5,191.7c-3.1,3.9-5.8,11-6.9,14.3c-2.5,7.4-3.6,15.1-4,22.9c-0.1,1.8-0.1,3.6-0.2,5.4
			c-0.1,1,0.2,12.5,1.4,11.9"/>
		<path class="st10" d="M63.2,245.8c3.8,5.4,25.4,13.2,47.8,9.2"/>
		<path class="st10" d="M241.6,177.4c-10,25.8-38.9,57.7-87.1,72.5"/>
		<path class="st10" d="M183.4,91.9c0-0.2,7.6-1.7,8.7,8.1c0.5,4.9,44.5,63.3,49.4,77"/>
		<path class="st10" d="M72,158.1c9.7,2.4,34.1-2.1,42.8-7.4"/>
		<path class="st10" d="M69.1,166.3c4.4,1.2,11.9,1.4,19,0.8c6.5-0.5,12.6-1.7,15.5-3.2"/>
		<path class="st10" d="M191.9,99.3c-2.5,7.4-16.6,19.1-19.9,21.1"/>
		<path class="st16" d="M41.8,76.8c-1.7-6.3-13.7-5.4-13.6,3c0,10.5,14.9,15.4,14.7,15.4c-0.2,0,14.5-7.1,14.3-16.2
			c-0.1-7.1-11.3-10.9-13.8-2.2c-0.2,0.6-0.1,1.9-0.5,2.4C42.5,79.8,41.8,76.8,41.8,76.8z"/>
		<path class="st17" d="M41.8,76.8c-1.7-6.3-13.7-5.4-13.6,3c0,10.5,14.9,15.4,14.7,15.4c-0.2,0,14.5-7.1,14.3-16.2
			c-0.1-7.1-11.3-10.9-13.8-2.2c-0.2,0.6-0.1,1.9-0.5,2.4C42.5,79.8,41.8,76.8,41.8,76.8z"/>
		<path class="st16" d="M107,73.7c-1.9-7.1-15.4-6.1-15.4,3.4c0,11.7,16.8,17.2,16.6,17.2c-0.2,0,16.4-8,16.2-18.1
			c-0.2-8-12.7-12.2-15.6-2.5c-0.2,0.7-0.1,2.1-0.6,2.7C107.7,77,107,73.7,107,73.7z"/>
		<path class="st17" d="M107,73.7c-1.9-7.1-15.4-6.1-15.4,3.4c0,11.7,16.8,17.2,16.6,17.2c-0.2,0,16.4-8,16.2-18.1
			c-0.2-8-12.7-12.2-15.6-2.5c-0.2,0.7-0.1,2.1-0.6,2.7C107.7,77,107,73.7,107,73.7z"/>
		<path class="st18" d="M100.6,118.9c0.2,0.3-2.7-1.5-10.1-2.7c-7.3-1.2-26.9-2-22.5,18.9c1.3,6.2,7.2,11.9,13.1,10.8
			c7.1-1.4,7.7-5.1,6.6-7.7c-1.3-3.3-4.3-9.6,4.4-12.5C98,123.8,100.9,119.7,100.6,118.9z"/>
		<path class="st2" d="M100.6,118.9c0.2,0.3-2.7-1.5-10.1-2.7c-7.3-1.2-26.9-2-22.5,18.9c1.3,6.2,7.2,11.9,13.1,10.8
			c7.1-1.4,7.7-5.1,6.6-7.7c-1.3-3.3-4.3-9.6,4.4-12.5C98,123.8,100.9,119.7,100.6,118.9z"/>
		<path class="st2" d="M93.3,115.8c-5.9-1-23.5-1.3-15.7,17.7"/>
		<path class="st2" d="M111.4,184.3c-8.8,30-4.9,170.3,83.7,136.3"/>
		<path class="st5" d="M176.7,313.7c12.4-1.8,19.8-2.8,26.9-11.1c-0.9,14.1-6.6,16.1-8.7,18"/>
		<path class="st2" d="M176.7,313.7c12.4-1.8,19.8-2.8,26.9-11.1c-0.9,14.1-6.6,16.1-8.7,18"/>
		<path class="st2" d="M161.4,194.9c-23.1,100,11.6,124.4,33.9,125.4"/>
		<path class="st2" d="M186,318.2c8.7,0,16-9.5,17.2-14.8"/>
		<path class="st4" d="M147.2,208.1c0-0.1,0-0.2,0-0.4"/>
		<path class="st2" d="M68,93.8c-3.9,15.2,20.7,19.3,28.6,7.8c6.1,8.4,6,14.1,4,17.8c-1.9,3.6-5.6,5.4-7.3,6"/>
		<line class="st10" x1="83.2" y1="158.9" x2="84" y2="164.2"/>
		<line class="st10" x1="88.5" y1="158.3" x2="89.4" y2="163.5"/>
		<line class="st10" x1="121.5" y1="174.8" x2="121" y2="180.1"/>
		<line class="st10" x1="126.4" y1="173.9" x2="125.9" y2="179.2"/>
		<line x1="129.7" y1="214.7" x2="129.7" y2="220.3"/>
		<line class="st8" x1="129.7" y1="214.7" x2="129.7" y2="220.3"/>
		<line x1="136.5" y1="211.5" x2="136.4" y2="217.1"/>
		<line class="st8" x1="136.5" y1="211.5" x2="136.4" y2="217.1"/>
		<path class="st3" d="M163.4,117.2c31.5,10.7,60.9,83.7,45.6,103.3c-0.7,0.8,14.4-15.2,15-15.8c7.3-6.1,14.6-14.4,16.9-23.7
			c1.5-5.9-5-11.6-7.4-16.4c-3.3-6.5-7.5-14.9-12.1-20.7c-8.2-10.2-15-20.7-22.8-31.2c-2.1-2.8-9.5-20.1-11.2-20.5
			c-0.4-0.1-4.9-0.1-4.9,0.3c0,1.9,1.8,0.5,0.9,3.8C182.9,99,161.7,116.6,163.4,117.2z"/>
		<path class="st13" d="M163,76.5c0.2,0,0.4,0,0.5,0"/>
		<path class="st3" d="M71.6,188.5c5.4,12,19,5.6,25.3,3.9c6.3-1.7,13.5-4.2,11.7,4.8c-0.5,2.5-23.8,13.2-34,1.2
			C73.4,197,70.1,185.3,71.6,188.5z"/>
		<path class="st3" d="M141.9,315.5c-0.7-0.6,6.9,3.2,10.4,3c4.4-0.2,9-3.5,8.3-8.4c-1.4-10.6-30-22.6-14.8-100
			c2.6-13.2,3.8-14.9,7-22.2c3.3-7.3,13.8-18.3,20.8-36.4c-0.1,1.4,5.1-4.8-2.3,27.5c-1,4.4,0,12.3-3.9,15c-1.6,1.1-5.4-0.6-7.3,0.6
			c-0.6,0.4-3.2,19.4-3.3,21.7c-0.5,10.5-4.1,21.7-4,32c0,6.9,1,12.9,1.6,19.3c0.5,6.4,1.1,8.4,2,11.5c3.1,11.3,4,23.2,14.3,29.8
			c2.7,1.7,5.7,5.3,6,4.7c0.7-1.3,15.1-3.2,17.1-4c2.8-1.2,5.8-2.8,8.1-4.9c0.1-0.1,1.5-1.5,1.6-1.5c5.2,4-8.6,18.1-12.5,19.2
			C169.3,329,152.3,324.4,141.9,315.5z"/>
		<path class="st3" d="M228.5,200c-2.6,0.3-9.4,9.5-11.8,13.8c-0.4,0.4-0.4,0.4-0.8,0.9c-13.7,15.5-60.4,35.2-60.4,35.2l-0.7,1.8
			c0,0,32.5-4.4,62.4-25.9c19.6,53.3,1.8,83.7-5.9,87c-4.7,2-9.7,1.5-10.8,3c-3.3,4.2-9.3,5.3-8.4,5.6c6.2,1.6,3.2,3.2,9.6,2.8
			c11.8-0.7,9.9-1.8,21.7-1.8c1.5,0,9-23.2,8.7-25.7c-1-7.8,0.6-24.8,1.7-32.5c0.3-2.4-3.9-60.9-4.3-63.3
			C229.2,200.2,228.9,200,228.5,200z"/>
		<path d="M68.4,112.1c-0.5,0-0.2-0.1-0.6,0.4"/>
		<path class="st19" d="M105.5,124.2c-5.6,6-11.7,6.4-11.7,6.4"/>
		<g>
			<defs>
				<rect id="SVGID_1_" x="37" y="175.1" width="82.4" height="57"/>
			</defs>
			<clipPath id="SVGID_00000015319044794464215000000017072274547466363827_">
				<use xlink:href="#SVGID_1_"  style="overflow:visible;"/>
			</clipPath>
		</g>
		<g>
			<defs>
				<polygon id="SVGID_00000068645504872147476550000007776269028409527952_" points="61.9,179.6 112.5,179.6 107.2,218.3 
					41.6,224.5 				"/>
			</defs>
			<clipPath id="SVGID_00000046330595973185018300000001829865138103422860_">
				<use xlink:href="#SVGID_00000068645504872147476550000007776269028409527952_"  style="overflow:visible;"/>
			</clipPath>
			<g style="clip-path:url(#SVGID_00000046330595973185018300000001829865138103422860_);">
				<g>
					<path class="st15" d="M74.5,188c6.8,0.2,11.4,0,15.4,0c3.3,0,3.7,3.1,2.7,6.1c-1.4,4.1-4.3,7.1-8,8.6c-0.2,0.1-0.4,0.1-0.8,0.3
						c2.3,2.5,0.6,7.8,2.6,12.5c-2.6,0-4.8-0.1-7.3-0.1c-1.2-3-1.6-6-1.6-8.9c0-1.6-0.2-2.7-2.6-2.2c-1.9,3.5-3.5,7.1-3.3,11.1
						c-2.7,0-5.4,0-8.5-0.1C63.5,205,71.7,197.7,74.5,188z M81,193.7c-0.9,1.8-1.8,3.5-3,5.5c1.7-0.1,3.2-0.1,4.7-0.4
						c1.3-0.2,2.5-1.2,3.2-2.6c0.8-1.4,0.6-2.5-0.6-2.6C84,193.4,82.6,193.6,81,193.7z"/>
					<path class="st15" d="M113,194.6c-3,0.2-5.4,0.4-7.8,0.6c0.5-2.4-0.4-3.7-2.1-3.6c-1.1,0-2.1,0.5-3.1,2.2
						c-0.4,1.4,0.1,1.8,0.8,2.1c1.3,0.5,2.8,0.9,4.3,1.5c0.9,0.3,1.7,0.7,2.6,1.2c5.3,3.1,2.3,11.5-3.2,15.2
						c-1.8,1.2-3.8,2.1-5.5,2.4c-2.8,0.6-5.4,0.4-7.7-0.5c-3.1-1.2-4.7-4.9-2.9-9.5c1.9-0.2,3.9-0.3,6-0.5c-0.1,0.6-0.2,1.1-0.2,1.6
						c-0.2,2.7,1.8,4.1,4.4,3c1.2-0.5,2.1-1.4,2.6-2.7c0.4-1.2,0.1-2.2-0.7-2.6c-0.7-0.4-1.4-0.7-2-1c-1.4-0.6-2.8-1.1-3.8-1.8
						c-2-1.5-1.9-4.1-0.5-7.2c1.6-3.5,3.6-6.5,6.4-7.7c2.6-1.2,5.4-1.4,8.5-0.3C112.2,188,113.9,190.4,113,194.6z"/>
				</g>
			</g>
		</g>
	</g>
	<g>
		<path d="M41.9,307.8c-0.3,0.5-0.6,0.9-0.7,1.5c-0.2,0.5-0.2,1.1-0.2,1.6c0,0.5,0.1,1.1,0.3,1.6c0.2,0.5,0.4,1,0.8,1.4
			c0.8,1,1.8,1.7,3,2c0.4,0.1,0.6,0.3,0.9,0.6c0.3,0.4,0.4,0.7,0.3,1.1c-0.1,0.4-0.3,0.7-0.6,1c-0.4,0.3-0.8,0.4-1.2,0.3
			c-2-0.4-3.6-1.4-4.8-3.1c-1.4-1.8-1.9-3.8-1.5-6.1c0.3-2.2,1.4-4,3.2-5.4c1.8-1.4,3.8-1.9,6.1-1.5c2.2,0.3,4,1.4,5.4,3.2
			c1.2,1.7,1.8,3.5,1.6,5.5c-0.1,0.5-0.3,0.8-0.6,1.1c-0.4,0.3-0.7,0.4-1.1,0.3c-0.4-0.1-0.7-0.3-1-0.6c-0.2-0.3-0.3-0.6-0.3-0.9
			c0-0.7,0-1.3-0.2-1.8c-0.2-0.6-0.4-1.1-0.8-1.6c-0.3-0.4-0.7-0.8-1.2-1.1c-0.5-0.3-0.9-0.6-1.5-0.7c-0.5-0.2-1.1-0.2-1.6-0.2
			c-0.6,0-1.1,0.1-1.6,0.3l3.6,4.8c0.3,0.4,0.4,0.7,0.3,1.1c-0.1,0.4-0.3,0.7-0.6,1c-0.4,0.3-0.7,0.4-1.1,0.3
			c-0.4-0.1-0.7-0.3-1-0.6L41.9,307.8z"/>
		<path d="M35.8,278c0.4-0.2,0.8-0.2,1.2,0s0.7,0.4,0.9,0.8c0.2,0.4,0.2,0.8,0,1.2c-0.1,0.4-0.4,0.7-0.8,0.9l-7.6,3.5
			c-0.4,0.2-0.8,0.5-1.1,0.8c-0.3,0.3-0.5,0.7-0.7,1.1c-0.2,0.4-0.2,0.9-0.2,1.3c0,0.5,0.1,0.9,0.3,1.4c0.2,0.4,0.5,0.8,0.8,1.1
			s0.7,0.5,1.1,0.7c0.4,0.2,0.9,0.2,1.3,0.2c0.5,0,0.9-0.1,1.3-0.3l7.6-3.5c0.4-0.2,0.8-0.2,1.2,0c0.4,0.1,0.7,0.4,0.9,0.8
			c0.2,0.4,0.2,0.8,0,1.2c-0.1,0.4-0.4,0.7-0.8,0.9l-7.6,3.5c-0.4,0.2-0.8,0.5-1.1,0.8c-0.3,0.3-0.5,0.7-0.7,1.1
			c-0.2,0.4-0.2,0.9-0.2,1.3s0.1,0.9,0.3,1.3c0.2,0.4,0.5,0.8,0.8,1.1c0.3,0.3,0.7,0.5,1.1,0.7c0.4,0.2,0.9,0.2,1.3,0.2
			c0.5,0,0.9-0.1,1.3-0.3l7.6-3.5c0.4-0.2,0.8-0.2,1.2,0c0.4,0.1,0.7,0.4,0.9,0.8c0.2,0.4,0.2,0.8,0,1.2s-0.4,0.7-0.8,0.9l-12.1,5.5
			c-0.4,0.2-0.8,0.2-1.2,0c-0.4-0.1-0.7-0.4-0.9-0.8c-0.1-0.3-0.2-0.6-0.1-0.9c0.1-0.3,0.2-0.6,0.5-0.8c-1.1-0.7-1.9-1.6-2.4-2.8
			c-0.4-0.9-0.6-1.8-0.6-2.7s0.2-1.9,0.7-2.8c-2-0.6-3.4-1.8-4.2-3.6c-0.4-0.8-0.6-1.6-0.6-2.5c0-0.9,0.1-1.7,0.4-2.5
			c0.3-0.8,0.7-1.5,1.3-2.1c0.6-0.6,1.3-1.2,2.1-1.5L35.8,278z"/>
		<path d="M25,261.7c2.2-0.6,4.3-0.2,6.2,0.9c1.9,1.2,3.2,2.9,3.7,5c0.6,2.2,0.2,4.3-0.9,6.2c-1.2,1.9-2.8,3.2-5,3.7
			c-2.2,0.6-4.3,0.2-6.2-0.9c-1.9-1.2-3.2-2.8-3.7-5c-0.5-2.2-0.2-4.2,0.9-6.2c0.6-1,1.3-1.8,2.1-2.4C22.9,262.5,23.9,262,25,261.7z
			 M22,270.9c0.2,0.7,0.5,1.3,0.9,1.9c0.4,0.5,0.9,1,1.5,1.3s1.2,0.6,1.8,0.7s1.3,0.1,2-0.1c0.7-0.2,1.3-0.5,1.8-0.9
			c0.5-0.4,1-0.9,1.3-1.5c0.3-0.6,0.6-1.2,0.7-1.8c0.1-0.7,0.1-1.4-0.1-2.1c-0.2-0.7-0.5-1.3-0.9-1.8c-0.4-0.5-0.9-1-1.5-1.3
			s-1.2-0.6-1.9-0.7c-0.7-0.1-1.3-0.1-2,0.1c-0.7,0.2-1.3,0.5-1.8,0.9c-0.5,0.4-1,0.9-1.3,1.5c-0.3,0.6-0.6,1.2-0.7,1.9
			C21.8,269.6,21.8,270.3,22,270.9z"/>
		<path d="M21.2,240.7L16,241c-0.2,0-0.4,0-0.6-0.1c-0.2-0.1-0.4-0.2-0.5-0.3c-0.1-0.1-0.3-0.3-0.4-0.5c-0.1-0.2-0.1-0.4-0.1-0.6
			c0-0.2,0-0.4,0.1-0.6c0.1-0.2,0.2-0.4,0.3-0.5c0.1-0.1,0.3-0.3,0.5-0.3c0.2-0.1,0.4-0.1,0.6-0.1l5.2-0.3l-6.7-7.2
			c-0.3-0.3-0.4-0.6-0.4-1c0-0.2,0-0.4,0.1-0.6c0.1-0.2,0.2-0.4,0.3-0.5c0.1-0.1,0.3-0.3,0.5-0.3c0.2-0.1,0.4-0.1,0.6-0.1
			c0.4,0,0.8,0.1,1.1,0.4l5.9,6.3l5.3-6.8c0.3-0.3,0.6-0.5,1.1-0.5c0.2,0,0.4,0,0.6,0.1c0.2,0.1,0.4,0.2,0.5,0.3
			c0.1,0.1,0.3,0.3,0.4,0.5c0.1,0.2,0.1,0.4,0.1,0.6c0,0.4-0.1,0.7-0.3,1l-5.5,7.1l0.6,0.6l4.2-0.2c0.2,0,0.4,0,0.6,0.1
			c0.2,0.1,0.4,0.2,0.5,0.3c0.1,0.1,0.3,0.3,0.4,0.5c0.1,0.2,0.1,0.4,0.1,0.6c0,0.2,0,0.4-0.1,0.6c-0.1,0.2-0.2,0.4-0.3,0.5
			s-0.3,0.3-0.5,0.4c-0.2,0.1-0.4,0.1-0.6,0.1l-4.2,0.2l-0.5,0.6l6.2,6.6c0.3,0.3,0.4,0.6,0.4,1c0,0.2,0,0.4-0.1,0.6
			c-0.1,0.2-0.2,0.4-0.3,0.5c-0.1,0.1-0.3,0.3-0.5,0.3c-0.2,0.1-0.4,0.1-0.6,0.1c-0.5,0-0.8-0.1-1.1-0.4l-5.9-6.3l-5.2,6.8
			c-0.3,0.3-0.6,0.5-1.1,0.5c-0.2,0-0.4,0-0.6-0.1c-0.2-0.1-0.4-0.2-0.5-0.3c-0.1-0.1-0.3-0.3-0.4-0.5c-0.1-0.2-0.1-0.4-0.1-0.6
			c0-0.4,0.1-0.7,0.3-1L21.2,240.7z"/>
		<path d="M29.6,217.2l-20.3-2c-0.4,0-0.8-0.2-1-0.5c-0.3-0.3-0.4-0.7-0.3-1.1c0-0.4,0.2-0.8,0.6-1s0.7-0.4,1.1-0.3l18.7,1.9
			l0.1-0.7c0-0.4,0.2-0.8,0.6-1c0.3-0.3,0.7-0.4,1.1-0.3c0.4,0,0.8,0.2,1,0.6c0.3,0.3,0.4,0.7,0.3,1.1l-0.2,2.2c0,0.4-0.2,0.8-0.6,1
			C30.3,217.1,30,217.2,29.6,217.2z"/>
		<path d="M26.4,193c2.2,0.4,4,1.5,5.3,3.4c1.3,1.9,1.8,3.9,1.4,6.1c-0.4,2.2-1.5,4-3.4,5.3s-3.9,1.8-6.1,1.4
			c-2.2-0.4-4-1.5-5.3-3.4c-1.3-1.9-1.8-3.9-1.4-6.1c0.4-2.2,1.5-4,3.4-5.3c0.9-0.6,1.9-1.1,2.9-1.3C24.2,192.8,25.2,192.8,26.4,193
			z M19.9,200.2c-0.1,0.7-0.1,1.4,0.1,2.1c0.2,0.7,0.4,1.3,0.8,1.8c0.4,0.5,0.9,1,1.4,1.4c0.6,0.4,1.2,0.6,1.9,0.7
			c0.7,0.1,1.4,0.1,2-0.1c0.7-0.2,1.3-0.4,1.8-0.8c0.5-0.4,1-0.8,1.4-1.4c0.4-0.6,0.6-1.2,0.8-1.9c0.1-0.7,0.1-1.4-0.1-2
			c-0.2-0.7-0.4-1.3-0.8-1.8c-0.4-0.5-0.9-1-1.4-1.4c-0.6-0.4-1.2-0.6-1.9-0.7c-0.7-0.1-1.4-0.1-2,0.1s-1.3,0.4-1.8,0.8
			c-0.5,0.4-1,0.8-1.4,1.4C20.3,198.8,20,199.5,19.9,200.2z"/>
		<path d="M36.9,185.2c-0.2,0.6-0.5,1-1.1,1.1l-14.6,2.5c-0.2,0-0.4,0-0.6,0c-0.2-0.1-0.4-0.1-0.5-0.3s-0.3-0.3-0.4-0.4
			c-0.1-0.2-0.2-0.4-0.2-0.6s0-0.4,0-0.6c0.1-0.3,0.2-0.5,0.4-0.7c0.2-0.2,0.4-0.3,0.7-0.4l11.3-1.9l-8.8-7.3
			c-0.4-0.4-0.6-0.9-0.4-1.5c0.1-0.2,0.1-0.4,0.3-0.5c0.1-0.2,0.3-0.3,0.4-0.4c0.2-0.1,0.4-0.2,0.6-0.2c0.2,0,0.4,0,0.6,0
			c0.2,0.1,0.4,0.2,0.6,0.3l11.4,9.5C36.9,184.1,37.1,184.6,36.9,185.2z"/>
		<path d="M39.3,162.7c0.1-0.4,0.4-0.7,0.8-0.9c0.4-0.2,0.8-0.2,1.2,0c0.4,0.1,0.7,0.4,0.9,0.8c0.7,1.9,0.8,3.8,0.1,5.7
			c-0.8,2.1-2.2,3.7-4.2,4.7c-2,1-4.1,1.1-6.3,0.3c-2.1-0.8-3.7-2.2-4.7-4.2s-1.1-4.1-0.3-6.3c0.8-2.1,2.2-3.7,4.2-4.7
			c1-0.5,2-0.8,3.1-0.8s2.1,0.1,3.2,0.5c0.4,0.1,0.7,0.4,0.9,0.8c0.2,0.4,0.2,0.8,0,1.2l-3.9,10.9c0.6,0,1.1,0,1.6-0.2
			c0.5-0.2,1-0.4,1.5-0.7c0.4-0.3,0.8-0.7,1.2-1.1c0.3-0.4,0.6-0.9,0.8-1.4c0.2-0.6,0.3-1.2,0.3-1.8c0-0.6-0.1-1.1-0.3-1.7
			C39.2,163.5,39.2,163.1,39.3,162.7z M34.7,160.4c-0.6,0-1.1,0-1.6,0.2c-0.5,0.2-1,0.4-1.5,0.7c-0.4,0.3-0.8,0.7-1.2,1.1
			c-0.3,0.4-0.6,0.9-0.8,1.4c-0.2,0.5-0.3,1.1-0.3,1.6c0,0.6,0.1,1.1,0.2,1.6c0.2,0.5,0.4,1,0.7,1.5c0.3,0.5,0.7,0.8,1.1,1.2
			L34.7,160.4z"/>
	</g>
</g>
</svg>
