<?xml version="1.0" encoding="utf-8"?>
<!-- Generator: Adobe Illustrator 26.0.3, SVG Export Plug-In . SVG Version: 6.00 Build 0)  -->
<!DOCTYPE svg PUBLIC "-//W3C//DTD SVG 1.1//EN" "http://www.w3.org/Graphics/SVG/1.1/DTD/svg11.dtd" [
	<!ENTITY ns_extend "http://ns.adobe.com/Extensibility/1.0/">
	<!ENTITY ns_ai "http://ns.adobe.com/AdobeIllustrator/10.0/">
	<!ENTITY ns_graphs "http://ns.adobe.com/Graphs/1.0/">
	<!ENTITY ns_vars "http://ns.adobe.com/Variables/1.0/">
	<!ENTITY ns_imrep "http://ns.adobe.com/ImageReplacement/1.0/">
	<!ENTITY ns_sfw "http://ns.adobe.com/SaveForWeb/1.0/">
	<!ENTITY ns_custom "http://ns.adobe.com/GenericCustomNamespace/1.0/">
	<!ENTITY ns_adobe_xpath "http://ns.adobe.com/XPath/1.0/">
]>
<svg version="1.1" id="Слой_1" xmlns:x="&ns_extend;" xmlns:i="&ns_ai;" xmlns:graph="&ns_graphs;"
	 xmlns="http://www.w3.org/2000/svg" xmlns:xlink="http://www.w3.org/1999/xlink" x="0px" y="0px" width="278.9px" height="361.3px"
	 viewBox="0 0 278.9 361.3" style="enable-background:new 0 0 278.9 361.3;" xml:space="preserve">
<style type="text/css">
	.st0{fill:#FFFFFF;}
	.st1{fill:#B6B1AE;}
	.st2{fill:#CAA77A;}
	.st3{fill:#FFDBAF;}
	.st4{fill:#9D7B51;}
	.st5{fill:none;stroke:#9D7B51;stroke-width:3.87;stroke-linecap:round;stroke-linejoin:round;stroke-miterlimit:10;}
	.st6{opacity:0.23;fill:#3F2719;}
	.st7{fill:#3F2719;}
	.st8{fill:none;stroke:#2D1F04;stroke-width:2.62;stroke-linecap:round;stroke-linejoin:round;stroke-miterlimit:10;}
	.st9{fill:none;stroke:#2D1F04;stroke-width:2.62;stroke-linejoin:round;stroke-miterlimit:10;}
	.st10{fill:none;stroke:#2D1F04;stroke-width:7.6;stroke-linecap:round;stroke-linejoin:round;stroke-miterlimit:10;}
	.st11{fill:none;stroke:#2D1F04;stroke-width:3.05;stroke-linecap:round;stroke-linejoin:round;stroke-miterlimit:10;}
	.st12{fill:#251707;}
	.st13{fill:#2D1F04;}
	.st14{fill:#FF6900;}
	.st15{fill:#FFDB1F;}
	.st16{fill:none;stroke:#000000;stroke-linecap:round;stroke-linejoin:round;stroke-miterlimit:10;}
	.st17{opacity:0.51;fill:#FFFFFF;}
	.st18{fill:#D2D2D2;}
	.st19{fill:none;stroke:#3F2719;stroke-width:2.62;stroke-linecap:round;stroke-linejoin:round;stroke-miterlimit:10;}
</style>
<metadata>
	<sfw  xmlns="&ns_sfw;">
		<slices></slices>
		<sliceSourceBounds  bottomLeftOrigin="true" height="361.3" width="284.9" x="813" y="38.3"></sliceSourceBounds>
	</sfw>
</metadata>
<g>
	<path class="st0" d="M278.6,221.9c-0.5-2.5-1.6-4.8-3.1-6.7c0.6-2.4,0.6-4.8,0.1-7.3c-0.1-0.4-0.2-0.9-0.4-1.3
		c0.2-0.3,0.4-0.6,0.6-1c1.4-2.4,1.8-5.2,1.1-7.9c-0.7-2.7-2.4-5-4.8-6.4c-0.5-0.3-1-0.5-1.5-0.7c-0.4-0.5-0.7-1-1.2-1.5
		c0.4-1.6,0.3-3.4-0.2-5c-0.5-1.6-1.3-3-2.4-4.2c0.1-1.9-0.1-3.8-0.8-5.7c-0.8-2.5-2.1-4.6-3.9-6.3c0.3-2.4,0.1-4.9-0.8-7.2
		c-0.2-0.4-0.3-0.8-0.5-1.2c0.2-0.3,0.4-0.7,0.5-1c1-2.4,1.1-5,0.3-7.4c0.5-2.1,0.4-4.4-0.5-6.5c-1.1-2.5-3.1-4.5-5.6-5.5
		c-1.2-0.5-2.5-0.7-3.7-0.7c-1.7-2.1-3.8-3.8-6.4-4.8c0,0-0.1,0-0.1,0c0-0.1,0.1-0.2,0.1-0.4c0.6-1.7,0.8-4,0.7-5.3
		c-0.1-2.5-0.6-4.2-1.6-6.1c-0.3-0.7-0.7-1.3-1.1-1.9c0.2-0.4,0.3-0.8,0.5-1.2c0.8-2.7,0.5-5.5-0.8-7.9c-1.3-2.5-3.5-4.2-6.2-5
		c-1-0.3-2-0.4-3-0.4c-0.3,0-0.5,0-0.8,0c0-2.9-0.7-5.7-2.3-8.3c-1.1-1.8-2.5-3.3-4.2-4.5c-0.1-0.3-0.1-0.6-0.2-0.9
		c-0.3-1-0.7-2-1.2-3c-0.4-0.7-0.7-1.3-1.1-1.9c-0.6-0.8-1.2-1.6-1.9-2.3c-0.3-0.7-0.7-1.4-1.1-2.1c-0.5-0.7-1.1-1.3-1.7-1.9
		c-0.4-0.8-0.8-1.6-1.4-2.4c-1.1-1.4-2.4-2.4-4-3.1c-0.2-1.5-0.9-2.9-1.8-4.2c0.4-1,0.7-2.2,0.8-3.3c0.2-2.7-0.7-5.3-2.5-7.4
		c-1.8-2-4.3-3.3-7-3.4c-0.2,0-0.5,0-0.6,0c-1.1,0-2.1,0.2-3.2,0.5c-0.6-0.9-1.3-1.7-2-2.5c-2.1-2.1-4.7-3.5-7.5-4.1
		c-0.9-2.8-2.6-5.2-4.9-7.1c-0.2-0.2-0.5-0.4-0.7-0.5c0.2-1.3,0.2-2.6,0-3.9c-0.5-2.5-1.9-4.7-3.9-6.2l0.3-8.8
		c0-8.7-7.2-15.9-16-15.9c-0.8,0-1.5,0.1-2.2,0.2c-7.9-6.3-15.2-7.8-20.1-7.8c-9.3,0-17.7,4.8-23,13.2c-4.2,6.5-5.8,14.4-5,22
		c-2-0.4-3.6-0.6-5-0.6c-0.2,0-0.5,0-0.7,0c-0.5-0.2-0.9-0.3-1.4-0.5c0.5-9.6-1.7-18-6.6-24.3C95.7,3.8,88,0,79.8,0
		C72,0,64.5,3.5,59.1,9.5c-8.8,0-16,7.1-16,15.9v1c0,6.9,4.5,12.7,10.7,14.9c0,0,0,0,0,0c-2.9,1-5.1,3.3-5.9,6.2
		c-0.2,0.8-0.3,1.7-0.3,2.5c-3.9,2.5-6.5,5.1-6.8,9.2c-0.1,0.8,0,1.6,0.2,2.4c-2.5,2-4.5,4.6-4.5,8.4c0,3,1.4,5.6,3.6,7.3
		c-2.6,4.8-4.5,10-5.5,15.7h-0.8c-3.7,0-7,2.7-7.5,6.3c-0.6,4.5,2.9,8.3,7.3,8.3h0.1c0.5,12.1,3.9,25.4,10.2,39.8
		c0.4,1.8,1,3.8,2.3,6.3c0,0,0,0,0,0c0,0.6,0.1,1.2,0.1,1.6l0,0.2c0,1.8,0.1,3.7,0.3,5.9c-0.1,1.7-0.1,4.1-0.1,6.7
		c-16.5,7.3-30.7,22.8-38.9,42.8c-3.4,7.5-5.7,15.1-6.7,22c0,0,0,0,0,0.1c-0.3,1.6-0.5,3.3-0.5,5.3c-0.3,5.1,0.3,9.8,1.6,13.8
		c0,0,0,0,0,0c0.8,5.6,3.9,10,8.8,12.5c3.6,2.4,8.2,3.6,13.5,3.6l0.1,0c0.2,0,0.4,0,0.6,0c2.1,0,4.4-0.2,6.8-0.6
		c1.4-0.2,2.9-0.6,4.7-1c0.4-0.1,0.8-0.2,1.2-0.3c0,0.2,0.1,0.3,0.1,0.5c0.2,1.9,0.5,3.7,0.7,5.5c-0.7,3.1-0.1,6.7,1.9,10.8
		c0.3,1.5,0.6,2.7,0.9,3.9c1.7,7.3,3.8,13.8,6.1,18.8c0.9,2.5,1.9,4.3,3.1,5.8c1,1.6,2.2,3,3.4,4.2c1.1,1.3,2.4,2.6,3.9,3.7
		c0.3,2.6,0.9,5.2,1.8,7.7c-5,1.8-9.9,4.5-14,7.7c-0.7,0.5-2.1,1.9-3.4,3.2c-1,0.6-1.8,1.4-2.5,2.3l-1,1.3c-0.4,0.6-0.8,1.2-1.1,1.9
		l-0.4,1c-0.9,2.1-0.9,4.4-0.1,6.5l0.3,0.8c0.2,0.4,0.3,0.9,0.6,1.3c0.4,0.7,0.8,1.3,1.3,1.8c1,1.1,2.3,2,3.8,2.5
		c0.3,0.1,0.6,0.2,0.9,0.3c1.5,0.3,3.7,0.5,9.4,0.5c2.9,0,6.5-0.1,11-0.2c2.7-0.1,5.4-0.1,8.1-0.2l4-0.1l1.6-0.1l3.4-0.1h24.1
		c1.8,0,4.5-0.5,8-1.6c2.7-0.5,8.3-1.7,11.4-5.9c0.1,0.9,0.4,1.8,0.8,2.6c0.6,1.3,1.5,2.5,2.6,3.4c2.3,1.9,4.9,2.2,9.3,2.6
		c1.4,0.3,3,0.4,4.9,0.4c0.4,0,0.8,0,1.2,0c1.5,0.1,3.1,0.2,4.9,0.3c7.1,1.3,18,2.1,24.3,2.1c1.3,0,2.5,0,3.5-0.1l1.8-0.1
		c2-0.1,3.7-0.2,5.3-0.3c3,0.4,6.8,0.6,10.4,0.6c8.3,0,12.4-1.1,14.4-1.9c1.5-0.4,3.6-1.2,5.3-3.3c0.3-0.3,0.5-0.6,0.7-1
		c0.3,0,0.6,0,1,0c3.4,0,6.9-1.2,9.9-3.6c0.3-0.2,0.5-0.4,0.8-0.7c1.9,0.8,3.6,1.4,4.9,1.9c3.1,1.2,5.3,1.7,7.3,1.7
		c3.3,0,6.2-1.4,8-4c0.3-0.4,0.5-0.8,0.8-1.1c7.9-8.6,13-22.4,15.2-40.9c1.1-7.2,1.6-15.1,1.6-23.3c0.2-16-0.6-31-2.2-45.2
		c1,0.3,2,0.5,3,0.5c0.7,0,1.4-0.1,2-0.2c2-0.4,3.9-1.2,5.6-2.3c1.7-1.1,3.2-2.6,4.3-4.4C278.6,230,279.4,226,278.6,221.9z
		 M45.5,70.1C45.5,70.1,45.5,70.1,45.5,70.1C45.5,70.1,45.5,70.1,45.5,70.1C45.5,70.1,45.5,70.1,45.5,70.1z M9.1,238.5
		c0,0.5,0,1.1-0.1,1.6C9,239.5,9,239,9.1,238.5c0-0.7,0-1.3,0.1-2C9.1,237.1,9.1,237.8,9.1,238.5z M9.4,234.6c0,0.1,0,0.1,0,0.1
		C9.4,234.7,9.4,234.6,9.4,234.6c0.1-0.8,0.2-1.6,0.4-2.4C9.7,233,9.6,233.8,9.4,234.6z M24.7,259.1c-0.2,0-0.4,0-0.5,0
		c-0.1,0-0.1,0-0.2,0c-0.2,0-0.4,0-0.6,0c0.2,0,0.5,0,0.7,0c0.3,0,0.7,0,1,0C25,259.1,24.9,259.1,24.7,259.1z M55.2,151.7
		C55.2,151.7,55.2,151.7,55.2,151.7C55.2,151.7,55.2,151.7,55.2,151.7C55.2,151.7,55.2,151.7,55.2,151.7
		C55.2,151.7,55.1,151.7,55.2,151.7C55.1,151.7,55.2,151.7,55.2,151.7z M52.5,60.4c-0.1,0-0.2,0-0.3,0c0,0-0.1,0-0.1,0
		C52.2,60.4,52.3,60.4,52.5,60.4z M47.8,276.6c-0.1,0-0.1,0-0.1,0C47.6,276.6,47.7,276.6,47.8,276.6c0.1,0,0.2,0,0.3,0
		C48,276.6,47.9,276.6,47.8,276.6z M50.1,77.9c-0.3,0.4-0.6,0.8-0.9,1.3C49.5,78.7,49.8,78.3,50.1,77.9c0.4-0.6,0.8-1.2,1.2-1.8
		C50.9,76.7,50.5,77.3,50.1,77.9z M55.6,174.1c-1.4,0.4-2.8,0.9-4.1,1.4C52.8,175,54.2,174.5,55.6,174.1L55.6,174.1z M57,61.5
		c-0.4,0.1-0.9,0.2-1.2,0.2C56.2,61.7,56.6,61.6,57,61.5l1.9-1.3L57,61.5z M45.2,347.9l0.4-1L45.2,347.9L45.2,347.9z M45.8,348.3
		l-0.3,0.6L45.8,348.3L45.8,348.3z M45.9,348.8L45.9,348.8L45.9,348.8L45.9,348.8z M47.1,345.5L47.1,345.5c0.1,0,0.1-0.1,0.2-0.2
		C47.2,345.4,47.1,345.4,47.1,345.5z M53,349.2c-0.1,0-0.2,0-0.4,0c0.2,0,0.4,0,0.6,0C53.2,349.2,53.1,349.2,53,349.2z M55.7,348.7
		L55.7,348.7C55.7,348.7,55.8,348.7,55.7,348.7C55.8,348.7,55.7,348.7,55.7,348.7z M71.9,45.2c0.1,0,0.2,0,0.3,0c-0.2,0-0.4,0-0.5,0
		C71.7,45.2,71.8,45.2,71.9,45.2z M66.2,51.9L66.2,51.9C66.1,51.9,66,52,65.9,52C66,52,66.1,51.9,66.2,51.9z M65.8,313.4
		C65.8,313.4,65.7,313.4,65.8,313.4C65.7,313.4,65.7,313.4,65.8,313.4C65.7,313.4,65.8,313.4,65.8,313.4z M64.8,52
		C64.8,52,64.8,52,64.8,52C64.8,52,64.7,52,64.8,52C64.7,52,64.8,52,64.8,52z M64.5,312.3C64.5,312.3,64.5,312.3,64.5,312.3
		c0.1,0,0.3,0,0.4,0C64.8,312.3,64.7,312.3,64.5,312.3z M66.4,348.6c-0.4,0-0.8,0-1.2,0.1C65.5,348.6,65.9,348.6,66.4,348.6
		c0.3,0,0.6,0,0.8,0C66.9,348.6,66.6,348.6,66.4,348.6z M68.8,12.8C68.8,12.8,68.8,12.8,68.8,12.8C68.8,12.8,68.8,12.8,68.8,12.8
		C68.8,12.8,68.8,12.8,68.8,12.8z M70.6,348.5c0.1,0,0.2,0,0.2,0h0C70.8,348.5,70.7,348.5,70.6,348.5z M72.1,333.3
		c-0.9,0.1-1.9,0.2-2.8,0.3C70.2,333.5,71.2,333.4,72.1,333.3c0.1-0.1,0.2-0.2,0.3-0.3C72.4,333.2,72.2,333.3,72.1,333.3z
		 M77.8,45.8c-0.6,0-1.3,0.1-2,0.2C76.5,45.9,77.1,45.8,77.8,45.8L77.8,45.8z M79.7,9c0,0,0.1,0,0.1,0c0,0,0,0,0,0
		C79.8,9,79.7,9,79.7,9z M106.2,43.9C106.2,43.9,106.2,43.9,106.2,43.9c0.2,0.1,0.5,0.2,0.7,0.2C106.6,44,106.4,43.9,106.2,43.9z
		 M111.5,323.8C111.5,323.8,111.5,323.8,111.5,323.8C111.5,323.7,111.5,323.7,111.5,323.8C111.5,323.7,111.5,323.7,111.5,323.8z
		 M109.5,44.2C109.5,44.2,109.5,44.2,109.5,44.2C109.5,44.2,109.6,44.2,109.5,44.2C109.6,44.2,109.5,44.2,109.5,44.2z M111.4,323.7
		L111.4,323.7c0.1,0.3,0.1,0.6,0.2,0.9C111.6,324.3,111.5,324,111.4,323.7z M112.5,327.7l-0.6-2L112.5,327.7L112.5,327.7z
		 M112.5,324.8c0-0.2,0.1-0.3,0.1-0.5h0C112.6,324.5,112.5,324.7,112.5,324.8z M115.8,338l-2.2-6.7l0,0L115.8,338
		c0.2,0.4,0.4,0.9,0.6,1.3C116.2,338.9,116,338.5,115.8,338z M117.7,344.1c-0.1,0.2-0.2,0.4-0.3,0.6
		C117.5,344.5,117.6,344.3,117.7,344.1c0.1-0.1,0.2-0.1,0.2-0.2C117.9,343.9,117.8,344,117.7,344.1z M122.2,326.9
		c-0.1,0-0.2-0.1-0.4-0.1C122,326.9,122.1,326.9,122.2,326.9c0.8,0.2,1.7,0.4,2.5,0.6C123.9,327.4,123,327.2,122.2,326.9z
		 M142.5,9.6c0.1,0,0.1,0,0.2,0c-0.1,0-0.2,0-0.3,0C142.4,9.6,142.4,9.6,142.5,9.6z M133.6,348.6L133.6,348.6l3.1-1.6L133.6,348.6z
		 M134.2,50c1.8,0.6,3.7,1.3,5.4,2c0,0,0,0,0,0C137.8,51.3,136,50.6,134.2,50z M141,338.9c0.3,0,0.6,0,0.9,0
		C141.7,338.9,141.4,338.9,141,338.9C141,338.9,141,338.9,141,338.9z M142.4,350c-0.3,0-0.7,0-1,0C141.7,350,142.1,350,142.4,350
		C142.4,350,142.4,350,142.4,350z M144.8,54.3C144.8,54.3,144.8,54.3,144.8,54.3c1,0.5,2.1,1,3.1,1.5l0,0
		C146.9,55.3,145.8,54.8,144.8,54.3z M151.2,328.2C151.2,328.2,151.2,328.2,151.2,328.2C151.2,328.2,151.3,328.2,151.2,328.2
		C151.2,328.2,151.2,328.2,151.2,328.2z M150.8,323.4c0-0.2,0-0.4,0-0.6C150.8,322.9,150.8,323.1,150.8,323.4l1.6,1.7c0,0,0,0,0,0
		L150.8,323.4z M150.3,57.1c0,0-0.1-0.1-0.1-0.1c0,0,0,0,0,0C150.2,57,150.3,57.1,150.3,57.1c0.7,0.4,1.5,0.8,2.2,1.2
		c0.6,0.3,1.2,0.6,1.8,0.9c0,0,0,0,0,0c-0.6-0.3-1.2-0.6-1.8-0.9C151.8,57.9,151,57.5,150.3,57.1z M155.7,335.5c0,0,0.1-0.1,0.2-0.1
		C155.8,335.4,155.7,335.5,155.7,335.5c-0.4,0.2-0.9,0.4-1.4,0.5C154.7,335.9,155.2,335.7,155.7,335.5z M160.2,334.9
		C160.2,334.9,160.2,334.9,160.2,334.9c-2,0.4-3.8,0.8-5.5,1.2C156.3,335.6,158.2,335.2,160.2,334.9z M158.6,335.9
		C158.6,335.9,158.6,335.9,158.6,335.9l1.8-0.9L158.6,335.9z M160.8,335.1c-0.1-0.1-0.2-0.1-0.2-0.2l0.2-0.1l-0.2,0.1
		C160.6,334.9,160.7,335,160.8,335.1C160.8,335.1,160.8,335.1,160.8,335.1C160.8,335.1,160.8,335.1,160.8,335.1z M172.7,352.3
		c-0.2,0-0.4,0-0.6,0c0.3,0,0.7,0,1,0C173,352.3,172.8,352.3,172.7,352.3z M193.7,352.3c0,0-0.1,0-0.1,0c0.2,0,0.4,0,0.6,0
		C194.1,352.3,193.9,352.3,193.7,352.3z M198.6,103L198.6,103c0.2,0.3,0.4,0.6,0.5,0.9C198.9,103.6,198.8,103.3,198.6,103z M201,107
		c0.5,0.9,1.1,1.9,1.7,2.9c0.1,0.2,0.3,0.5,0.4,0.7c0,0,0,0,0,0c-0.1-0.2-0.3-0.5-0.4-0.7C202.1,108.9,201.5,107.9,201,107z
		 M205.3,350.8C205.3,350.8,205.3,350.8,205.3,350.8C205.3,350.8,205.3,350.8,205.3,350.8c0.3,0,0.5-0.1,0.7-0.2
		C205.8,350.7,205.6,350.8,205.3,350.8z M206.7,349.5c0,0.1-0.1,0.2-0.1,0.3C206.7,349.7,206.7,349.6,206.7,349.5
		c0-0.2,0.1-0.3,0.1-0.6C206.8,349.1,206.8,349.3,206.7,349.5z M206.2,333.7c0.2,0.8,0.3,1.6,0.5,2.3c0,0,0,0,0,0
		C206.5,335.3,206.4,334.5,206.2,333.7z M206.7,335.9c0.1,0.4,0.2,0.8,0.4,1.3C206.9,336.7,206.8,336.3,206.7,335.9z M206.7,335.4
		c0-0.2,0.1-0.3,0.1-0.4c0,0,0,0,0,0C206.8,335.1,206.7,335.2,206.7,335.4z M207.8,346c0,0.4,0,0.8-0.1,1.1
		C207.8,346.8,207.8,346.4,207.8,346C207.8,346,207.8,345.9,207.8,346C207.8,345.9,207.8,346,207.8,346z M208.8,343.2
		c0.1-0.1,0.1-0.3,0.2-0.5v0C209,342.9,208.9,343.1,208.8,343.2z M206.3,115.8C206.3,115.8,206.3,115.8,206.3,115.8
		c1.3,2.1,2.5,4.3,3.8,6.5C208.8,120.1,207.5,117.9,206.3,115.8z M215,346.2C215,346.2,215,346.2,215,346.2c0,0,0,0,0.1,0
		C215.1,346.2,215,346.2,215,346.2z M237.9,345.5c0,0-0.1,0-0.1,0C237.8,345.5,237.9,345.5,237.9,345.5
		C237.9,345.5,237.9,345.5,237.9,345.5z M254.2,272.3c-0.3-4.3-0.7-8.7-1.2-13C253.5,263.6,253.9,268,254.2,272.3l0.7,3.9
		L254.2,272.3z"/>
	<path class="st0" d="M265.3,276.3C265.3,276.3,265.4,276.3,265.3,276.3c0,0-0.2,0-0.3,0C265.1,276.3,265.2,276.3,265.3,276.3z"/>
</g>
<g>
	<g>
		<path class="st1" d="M160.9,333.9c-7.4,3-14.7,2-21.2,7.5c-1.1,0.9-4.7,4.1-4.2,5.7c0.8,2.7,6.7,2,8.8,2.1
			c8.1,0.2,16.5,1.2,24.6,1.4c1.5,0,9.1,0.9,9.4-1.2c0.6-5.2-10.2-9-12.7-11.7"/>
		<path class="st1" d="M73.9,332.4c-8.3-0.2-17.6,3.5-24.1,8.5c-0.6,0.5-5.7,5.3-5.2,6c1.3,1.9,7.7,0.5,9.6,0.7
			c8.1,0.9,16.8-0.6,25-0.4c1.4,0,6.8,1,7.6-0.6c1.2-2.3-5.3-6.3-6.5-7"/>
		<path class="st1" d="M112.8,247.7c-0.1-0.2-0.3-0.4-0.4-0.6"/>
		<path class="st2" d="M58,65.9c-2.4,0-8.6,12.1-10,14.6c-10.4,18.2-6.6,39.5,1.7,57.8c2.1,4.7,1.2,6.1,3.3,10.5
			c1,2,4.5,6.7,4.5,8.8c0,0.5,0,1.4,0,1.4s-0.7-3.5-1.4-5c-0.2-0.5-1.2-1.4-0.7-1.4c0.3,0,0.6,0.8,0.7,1c2.3,5.8-0.3,13.1,1.2,19.1
			c1,4.2,9,9.2,13.4,10.3c16.6,4.1,33.3-0.2,49.9-0.2c4.2,0,16.1,1.3,19.6-2.1c2.9-2.9,3.8-6.7,6.2-10c3.2-4.5,10.6-9.9,15.8-11.9
			c5.3-2.1,12-0.8,17.2,0.5c1.3,0.3,5.4,2,6.7,0.7c2.2-2.2,3.2-8.5,2.6-11.2c-1.5-7.3-1-18-2.4-25.1c-1-4.8-2.8-9.4-4.5-14.1
			c-7.1-18.3-17-33.3-32.7-44.7c-3.9-2.9-10.5-7.9-15-10.2c-4.4-2.2-9.2-2.1-13.6-4.3c-5.7-2.9-12-6.6-18.1-8.1
			c-1.6-0.4,0.6,2.3,0.5,2.6c-0.2,0.4-4,0.3-4.5,0.2c-5.1-1-10.4-0.9-15.3-3.1C82,41.5,79,38.4,78,38.7c-2.9,1,1.4,9.1,1.4,9.1
			s-0.4-0.7-0.7-1c-1.4-1.1-4.6-2-6.4-2.4c-3.9-0.8-5.5,1.7-8.8,2.4c-0.4,0.1-4.3,1.1-4.3,1.2c0,0.8,6.2,1.8,6.2,2.6
			c0,0.7-1.4,0.4-1.7,0.5c-1.8,0.3-12.2,4.6-11.5,6.9c0.3,1,5.8,1,6.9,1.7c0.3,0.2,1,0.2,1,0.2s-4.3,0.7-6.4,1.2
			c-2.7,0.7-8.1,6.7-3.3,6.7"/>
		<path class="st2" d="M202.2,285.8c-0.9,0.3-4,8.9-4.4,12.2c-0.8,6.5,4.2,15.1,5,21.5c0.8,6.3,1,12.4,3.6,18.2
			c0.9,2,0,8.7-0.6,10.9c-1,4-22.5,2.9-25.8,1.6c0,0-7.4-9.2-9.8-11c-2-1.5-0.5-1.8-5.2-3.8c-2.9-1.2-6.5-1.2-9.2-4
			c-2.6-2.6-4-8.4-6.8-10.3c-2.8-1.8-4.9-0.5-13.8,1.4c-8.9,1.9-15.5,1.5-24.1-0.7c-1.5-0.4-1.3,2.5-0.5,5.8
			c0.8,3.7,2.3,7.9,2.9,8.7c0.4,0.7,4.6,5.5,3.5,6.6c-2.2,2.3-18.5,4.5-21.2,4.5c-3.1,0-5.9-1.3-8.8-0.8c-0.7,0.1-2.1,0-2.1,0
			s1.6,0.7,1.4,0.2c-0.3-0.9-2.2-2.5-2.8-3.3c-2.3-3.1-6.1-7.5-8.8-10.1c-2.2-2.2-2.9-4.3-4.4-7.2c-2.1-4.2-3.5-9.4-4.7-14.1
			c-0.3-1.1-0.5,1-1.2,0c-2.3-3.5,5.2-12.3,0.2-17.3c-2.4-2.4-6.9-4.8-6.9-4.8S51,292,51,284.7c0-1.2-10.3-13.6-1.2-13.1
			c9.1,0.4-4.8,4.2-3,4.2c6,0,10.9-0.4,16.9,1.2c3.9,1.1,7.1,3.6,11.3,4c6.4,0.6,12.8-1,19.2-0.5c6.2,0.5,11.4,1.5,16.6,0.5
			c1.2-0.2,7.9,6.8,8.6,6.1c0.9-0.9-1.7-13,0.3-13.5c3.5-0.9,6.3,2.6,9.6,3.2c8.1,1.6,17.1,2.2,24.6-2.3c3.3-2,6.7-5,8-8.2
			c1.4-3.5,1.2-6.6,2.6-10.3c1.7-4.6-0.3-11.4-1.3-16.1c-0.6-3-3.3-11-1.8-14.1c2.7-5.3,19.6-13.9,25.3-15.2
			c5.2-1.2,11.1-2.3,16.4-0.9c6.5,1.6,7.3,7.1,8.5,11.6c3.8,15.1,3,30.5-4,46.3c-1.8,4.2-2.9,7.6-6.6,10.3c-0.9,0.7-4.9,5.6-5.1,6
			c-0.3,0.7,5,0.4,5.1,0.4c4.2,1.4,0.6,3.3-0.7,7.7"/>
		<path class="st3" d="M46.6,103c2-8.1,7-17.3,14.3-18.7c8.6-1.6,15.7,5.3,24,5c1.5-0.1,4.5-1,5.4-2.3c0.9-1.3,0-3,0-3
			c1.3,0.4,2.6,2.3,4.2,2.7c6.2,1.8,12.6-3.7,18.3-5.4c18.7-5.7,33.4-3.6,43.3,14.5c2.2,4.1,5.7,13.4,3.3,23.8
			c-3.4,15.1-5.2,21.5-21.6,32.8c-19.5,13.5-59.9,20.2-80.1-5.3C48.3,135.1,42.9,118.2,46.6,103z"/>
		<path class="st4" d="M84.3,109.9c-6.8-3.4-12.3,13.8-11.8,18.7c1.9,16.9,26.6,16,38.1,10.3c16.6-8.3-3.7-34.9-15.5-30.2"/>
		<path class="st4" d="M46.6,103c-3.7,6.7,0.5,26.8,3.3,28.9c2.2,1.6,17-9.6,21.3-16.7c1.1-1.9,6.8-14.1,4.7-16.2
			c-1.2-1.2-17.2,1-19.7,1.5C52.9,101.2,48.1,100.3,46.6,103z"/>
		<path class="st4" d="M108.8,99.9c0.8,27.6,41.3,42.3,46,35.4c3-4.4,9.6-25.7,1.7-39.6c-0.8-1.4-10.2,2.1-11.6,2.4
			C133.1,100,108.5,87.9,108.8,99.9z"/>
		<line x1="63.7" y1="286.6" x2="63.6" y2="292.3"/>
		<line class="st5" x1="63.7" y1="286.6" x2="63.6" y2="292.3"/>
		<line x1="69.8" y1="290" x2="69.7" y2="295.6"/>
		<line class="st5" x1="69.8" y1="290" x2="69.7" y2="295.6"/>
		<line x1="75.5" y1="293.7" x2="75.5" y2="299.3"/>
		<line class="st5" x1="75.5" y1="293.7" x2="75.5" y2="299.3"/>
		<line x1="66.4" y1="163.6" x2="66.4" y2="169.2"/>
		<line class="st5" x1="66.4" y1="163.6" x2="66.4" y2="169.2"/>
		<line x1="72" y1="166.5" x2="71.9" y2="172.1"/>
		<line class="st5" x1="72" y1="166.5" x2="71.9" y2="172.1"/>
		<path class="st0" d="M121.5,101.1c0,2.5,0.5,4.2,1.4,5.4c2.6,3.3,8.3,1.5,14,0.5c6.2-1.1,7.6-4.9,8.8-7.2"/>
		<path class="st0" d="M47.5,99.7c-5.3,13.8,16.6,12.3,20.6,1.9"/>
		<path class="st6" d="M45.7,67.6c4,0,7.5-1.1,11.4-2c1.1-0.3,3.3-1.5,3.3-0.3c0,0.2-0.5,0.2-0.7,0.3c-3.4,2-6.1,4.9-8,8.4
			c-0.7,1.2-2.5,4.5-2,3.7C65.1,50,176.4,39.6,170,152c-0.1,1-1.3,2.7-0.3,3c2,0.7,5.2-1.3,7.7-0.3c1.1,0.4,9.2,4.9,10,4.4
			c1.4-1,0.4-6.3,0.7-8c5.7-37.9-38.1-88.7-41.9-90.8c-14.4-8-43.9-16.9-44.6-17.1c-0.1,0-2.7,1.6-4,1.3c-4.8-0.8-10.2-2.6-15.1-4
			c-0.7-0.2-5.2-3.7-5.4-3.3c-0.5,1.1-0.9,7.2-0.3,8c0.4,0.6,2.8-0.3,2-0.3c-6.2,0-14.1,2-20.8,3.3c-0.2,0-0.7,0.1-0.7,0.3
			c0,1.9,8.7,0.7,8.7,2c0,1-12.1,4.4-13.7,5.7c-0.5,0.4-2.5,1.9-2,2.3c1.6,1.6,5.6-0.4,7.7,0.7"/>
		<path class="st6" d="M185.9,290.7c-3.3,1.3-4,6.2-3.5,12.6c1.2,15.4,9.6,39.1,7.7,38.9c-31-2.4-49.9,4.5-49.9,5.7
			c0,1.1,5.4,0.8,6.4,1c6.2,1.6,21.8,2.7,28.1,2.3c11.8-0.7,15.3-1,27.1-1c1.5,0,0.4,0.5,1.7-0.3c4.9-3.3,0.7-18.8,0.1-23.7
			c-1-7.8-5.2-21.9-4.1-29.6c0.3-2.4,4.5-8.8,4-11.2C202.5,280.6,187.3,290.2,185.9,290.7z"/>
		<path class="st7" d="M95.6,320.9c0,0.2,0,0.4,0,0.7"/>
		<path class="st6" d="M68.4,310.1c-2.2,0-3,5.4-3,6.2c0.5,6.4,3.3,11.8,7.2,16.9c0.1,0.2-0.8-1.5-0.9-1.3c-0.2,0.7-4.4,2.5-5.2,2.6
			c-2.4,0.5-24.5,8.8-21.4,13.4c0.1,0.1,22.9-0.3,24.8-0.3c12.4,0,22.1,0,34.5,0c1.8,0,10.8-2.6,11.8-4.1c1.4-2.1-3.1-9.5-3.8-11.3
			c-0.4-1-2.1-10.6-2.3-10.7c-3.9-2.6-16.1-9.8-20.6-10.5C74.3,308.6,77.3,310.1,68.4,310.1z"/>
		<path class="st8" d="M59.5,64.7c-4.6,3-7.3,8-10.3,12.3c-15,21.2-5.4,52,5.3,73.3"/>
		<path class="st8" d="M58.1,65.3c-2.2,1.1-3.7,1.1-5.9,1.8c-1.1,0.3-2,0.7-3.2,1c-1.1,0.2-2.2,0.3-3.2,0.6
			c-0.5,0.1-1.4,0.9-1.4,0.4c0-1.5,12-8.2,14.3-8.9c0.3-0.1,0.9-0.1,1-0.4c0.2-0.5-0.9-0.5-1.4-0.6c-2.3-0.6-7.7,1.2-9.5-0.2
			c-0.5-0.4,3.5-2.8,3.8-3c2.5-1.4,5-3.2,7.7-4c1.6-0.5,5,0.7,5-1c0-2-9-1.3-9.7-2c-0.1-0.1,0.3-0.1,0.4-0.2c2-1,4.3-1.9,6.5-2.4
			c4.1-1,11.4-1.9,15.5-0.6"/>
		<path class="st8" d="M72.8,332.8c-12.2-0.4-26.1,11-27,12"/>
		<path class="st8" d="M84.8,347.6c5,0,11.2-0.4,16.3-0.5c3-0.1,16.5-0.5,15.7-4.7"/>
		<path class="st8" d="M132.7,348.1c1.8,1.5,71,3.6,72.6,1.6"/>
		<path class="st8" d="M74.1,333.2c5.1,3.4,9.3,7.4,12,12.8"/>
		<path d="M44.6,348c4.8,1.1,44.4-0.9,46.7-0.5"/>
		<path class="st9" d="M44.6,348c4.8,1.1,44.4-0.9,46.7-0.5"/>
		<polyline points="46.2,344.4 45.6,344.7 44.7,346 44.2,347.1 44.6,348 		"/>
		<polyline class="st9" points="46.2,344.4 45.6,344.7 44.7,346 44.2,347.1 44.6,348 		"/>
		<path class="st8" d="M45,347.9c4.7-3.9,25.8-11.7,33.7-10.4"/>
		<path class="st8" d="M134.5,347.9c7.3-3.7,16.2-6.3,25-7.4c3.8-0.5,7.6-0.6,11.3-0.5"/>
		<line class="st10" x1="106.4" y1="97.9" x2="159.7" y2="96.9"/>
		<polyline class="st10" points="81.4,98.9 64.2,99.2 35.3,99.7 		"/>
		<path class="st11" d="M119.5,101.6c3.9,11.8,24.6,8.1,25-1.5"/>
		<path class="st11" d="M46.8,103.3c-1.7,8.5,21.6,9.2,21.6-1.5"/>
		<path class="st12" d="M80.3,109.9c-0.1-2.6,4.9-4.9,11.2-5.2c6.3-0.3,11.6,1.5,11.7,4.1c0.1,2.6-4.9,4.9-11.2,5.2
			C85.6,114.3,80.4,112.5,80.3,109.9z"/>
		<path class="st11" d="M134.3,99.7c0.2-0.1,0.4-0.3,0.6-0.4"/>
		<path class="st11" d="M91.7,114.8c0,9.6,5.4-1.7,12.9,2"/>
		<path class="st13" d="M57.6,102.1c0-2.1,1.7-3.8,3.8-3.8c2.1,0,3.8,1.7,3.8,3.8c0,2.1-1.7,3.8-3.8,3.8
			C59.3,105.9,57.6,104.2,57.6,102.1z"/>
		<path class="st13" d="M133.7,100c0-2.1,1.7-3.8,3.8-3.8c2.1,0,3.8,1.7,3.8,3.8c0,2.1-1.7,3.8-3.8,3.8
			C135.4,103.7,133.7,102,133.7,100z"/>
		<path class="st13" d="M124.4,41.9c0-0.1,0.1-0.1,0.2-0.1c0.1,0,0.2,0,0.2,0.1c0,0.1-0.1,0.1-0.2,0.1
			C124.5,42.1,124.4,42,124.4,41.9z"/>
		<path class="st13" d="M128.5,104.1c-0.3,0-0.6-0.1-0.9-0.1"/>
		<path class="st14" d="M110.5,322.9c-0.2-0.6,1.1,3.5,1.1,4.3c0,2.6,2.5,4.5,5,5.3c2.7,0.9,5.6,0.9,8.2,1.8
			c4.2,1.4,11.6,4.1,16.1,3.7c2.4-0.2,5.4-1,7.6-1.8c1.8-0.7,4.3-0.7,6.1-1.5c0.3-0.1,2.4-1.8,4.9-0.4c2.6,1.3,0.3,0.2,0.2,0
			c-1.5-1.4-7.4-5.4-9.2-6.6c-0.1-0.1-0.2-0.2-0.3-0.2c-1-0.1-2.7,0.7-3.7,0.9c-1.9,0.4-4.1,0.1-6.1,0.3c-6.7,0.6-13-0.9-19.3-2.5
			C119,325.5,111.2,325.2,110.5,322.9z"/>
		<path class="st15" d="M167.5,69c2,3.9,5.5,7.8,7.9,11.8c1.9,3.2,2.1,7.3,3.9,10.4c7.5,12.5,18.9,22.7,25.5,35.9
			c12.8,25.7,18.7,61.8,18.7,90.5"/>
		<path class="st15" d="M146,52.8c13.5,13.5,31.9,36.1,36.6,54.9c3.4,13.5,4.7,27.7,4.7,41.6"/>
		<path class="st16" d="M130.6,48.9c5.3,0,11,5.4,15.1,8.3c14.1,10.1,27.2,22.2,33.4,39.1c1.6,4.4,2.8,9.1,3.9,13.6
			c1,4.2,0.8,9.6,3.2,13.3"/>
		<path class="st15" d="M55.6,150.9c-1.2-0.2-2,20.5-0.8,23c2.1,4.3,4.5,6.5,3.6,12.5c-0.7,4.6-1.3,9-2.8,15.5
			c-1.5,6.6-3.6,7.3-3.4,10.1c0.5,7.2-0.2,2.1,2.6,2.1c0.8,0-3.2,0.9,3.7,1.7c7,0.8,8.3,8.7,13.3,3.1c7.4-8.5,18.1-4.6,28.3-6.3
			c6.5-1.1,12.2-1.9,18,1c2.8,1.4,7.7,0.5,10.4,1.8c2.7,1.4,8.2-5.9,10.2-3.3c2,2.7,13.5,0.2,13.9,0.2c0.6,0,1.4,0.4,1.8,0
			c0.6-0.6-0.9-1.6-1.2-2.4c-1.7-4-4.8-8.3-5.5-12.8c-1.3-9.4-3.8-18.2,0.5-26.8c0.8-1.6,2.2-6.2,3.6-7.4
			c6.5-5.7,25.4-10.1,36.2-4.1c1.7,1,36.7,67,37.9,64.7c1.2-2.4-3.2-70.5-4.3-72.8c-26-57.4-31.2-61.3-54.3-81.6
			c-13.5-11.8-29.9-18.5-45-22.3c-1.3-0.3-14.2-4.6-15.3-2.8c-0.2,0.3,0.1,0.7,0.3,0.9c2,2.5,10.8,4.2,13.7,4.9
			c8.3,1.8,18.8,8.6,25.5,13.7c6.2,4.7,10.2,12.4,13,19.1c1.5,3.5,3.8,9.9,5.2,13.7c3.2,8.6,2.8,13.7,1.8,22
			c-0.5,3.9-1.4,8.7-2.1,12.7c-1.7,10-10.3,24.8-18.5,30.7c-4,2.9-8.8,4.5-13.1,7c-2.8,1.7-7.4,3.3-10.7,3.7
			c-11.8,1.5-20.4,0.2-31.3-1.3c-5.1-0.7-11.1-1.1-16.1-3C66.9,164.8,59.6,156.4,55.6,150.9z"/>
		<path class="st15" d="M110.9,322.4c-0.4-0.8,0.5,1.8,0.6,2.7c0.2,0.9-0.3,3.6,0.2,4.4c0.8,1.2-1-3.3-0.1-6.1
			c0.8-2.5,5.9,1.7,12.5,2.2c4,0.3,11.1,1.7,14.4,1.7c4.2,0,9.6,1.2,14.1-0.7c1.6-0.7,4.8,7.8,5.9,6.8c0.3-0.3-4.8-4.5-5.3-5
			c-2-2.5-4.8-5.6-4.8-8.7c0-2,8-6.5,9.5-7.8c10.1-8.3,18.6-11.1,30.8-12.4c2.9-0.3,3.6,0.2,6.4,0.8c6.9,1.4,4.6,5.5,3.7,8.3
			c-0.3,0.8,1.3,5.1,1.5,6.3c0.3,2.4,1.9,4.8,2.8,7c2.2,5.8,2.6,10.7,2.6,16.8c0,2.1-0.2,11.8,0.6,8.7c0.9-3.1,0.1-1.8,0.5-2.1
			c0.7-0.5-0.8-2,0.5-2.4c2.4-0.6-3.6-8.2-1.2-8.8c5.3-1.3-4.1-9.9-3.6-13.2c1.7-12.1-6.5,1.5,2.2-7.7
			c15.8-16.8,22.4-53.5,23.2-59.9c5-37.1-7.6-88.1-9.8-93.6c-0.1-0.3-2.1,36.3-17-4.2c-2-5.4,9.5,35.1,9.4,35.1
			c-0.4,0,2.4,58.6,2.4,58.7c-1,3.4-2,7-3.4,10.2c-2.8,6.6-6.9,11.7-13.6,14.6c-10.2,4.4-22.3-0.3-25.9-2.3
			c-3.6-1.9-5.5-4.2-7.1-5.8c-0.7-0.7-3.1-2.6-3.9-2.6c-0.9,0-15-10.1-23.8-15.3c-6.2-3.6-16.6-11.3-23.8-10.9
			c-15.6,0.8-18.7,0.4-47.1,9c-3.3,1-20.3,2.3-20,7.2c1.6,25.4,7.2,44.4,12.1,52.1c4.8,7.7,9.5,5.5,11,5.3
			C92.1,307.5,111.7,324.1,110.9,322.4z"/>
		<path class="st8" d="M110.3,323.1c0.2,4.7,2.1,14.8,5.9,18.6"/>
		<path class="st8" d="M148.6,321.3c2.6,5.7,6.5,10.7,12.6,12.8"/>
		<path class="st8" d="M159.8,333.9c-17.2,3-23.2,8.8-27.2,13.9"/>
		<path class="st14" d="M179.1,80.9c-0.1-0.3,8.1,11.2,9,12.2c6.8,7.4,13.3,15.3,18.4,23.9c1.9,3.2,3,7.2,4.6,10.5
			c1.8,3.9,4.2,7.4,6,11.3c9.2,19.3,62.8,147.4,20.6,205.5c-1.9,2.6-30.8-14.7-33.6-14c-1.7,0.4-1.9-9.8-1.9-15.7
			c0-2.5,2.9-2.4,4.6-4.1c2.7-2.7,3.4-2.9,6.8-9.5c3.4-6.7,2.5-8.5,4.7-13.5c4.4-10.3,4.4-16,5.7-27.1c0.7-6,1.2-10.2,1.2-16.2
			c0-3.8,0.5-9.2,0.7-17.7c0.3-8.5-0.5-7.3-0.7-16.7c-0.3-9.4-0.9-9.7-2-18.7c-1.1-9-2.3-13.9-4.4-23.6c-0.7-3.2-0.6-6.1-2.5-11.6
			c-1.8-5.5-3.1-11.2-5.9-18.2c-3.1-7.7-6.6-14.9-10.3-22.3c-1.5-3-2.1-7.2-4.1-9.8C190.2,97.8,184,89.3,179.1,80.9z"/>
		<path class="st17" d="M181.2,85.7c86.4,97.5,53.2,289.4,26.4,255.8c-2.2-2.7-1.4-10.4-3.1-15.1c-0.5-1.3-3.6-12.7-2.7-13
			c9.9-3.6,17.7-23.3,21.8-47.5c3.7-22.4,3.8-44,0.9-66.4c-1.3-9.8-1.4-14.8-2.5-19.9c-3.2-14.7-5.4-28.5-11.3-41.9
			c-5.3-12.2-12-30.6-20.7-41.3"/>
		<path class="st16" d="M181.2,85.7c86.4,97.5,53.2,289.4,26.4,255.8c-2.2-2.7-1.4-10.4-3.1-15.1c-0.5-1.3-3.6-12.7-2.7-13
			c9.9-3.6,17.7-23.3,21.8-47.5c3.7-22.4,3.8-44,0.9-66.4c-1.3-9.8-1.4-14.8-2.5-19.9c-3.2-14.7-5.4-28.5-11.3-41.9
			c-5.3-12.2-12-30.6-20.7-41.3"/>
		<path class="st14" d="M163.9,16.3L163.9,16.3c3.9,0,7,3.1,7,6.9v1c0,3.8-3.1,6.9-7,6.9s-7-3.1-7-6.9v-1
			C156.8,19.4,160,16.3,163.9,16.3z"/>
		<path class="st8" d="M163.9,16.3L163.9,16.3c3.9,0,7,3.1,7,6.9v1c0,3.8-3.1,6.9-7,6.9s-7-3.1-7-6.9v-1
			C156.8,19.4,160,16.3,163.9,16.3z"/>
		<path class="st14" d="M58.1,17.6L58.1,17.6c3.9,0,7,3.1,7,6.9v1c0,3.8-3.1,6.9-7,6.9c-3.9,0-7-3.1-7-6.9v-1
			C51,20.7,54.2,17.6,58.1,17.6z"/>
		<path class="st8" d="M58.1,17.6L58.1,17.6c3.9,0,7,3.1,7,6.9v1c0,3.8-3.1,6.9-7,6.9c-3.9,0-7-3.1-7-6.9v-1
			C51,20.7,54.2,17.6,58.1,17.6z"/>
		<path class="st8" d="M159.1,215.1c1.3-2.5,2.3-8.9-3.8-15.5"/>
		<path class="st8" d="M54.4,149.3c11.3,22.6,45.4,27,68.9,22.8c17.4-3.1,50.2-22.5,41.7-73.5c-2.6-15.5-15.6-39-38.2-46.9"/>
		<path class="st8" d="M54.6,151.5c0-0.3,1.4,22.2,1.4,22.2"/>
		<path class="st8" d="M148.9,321.5c0-2.4,2.3-5.1,5.9-7.9c15-11.5,52.8-22.9,44.6-6.3"/>
		<path class="st8" d="M197.7,300c0,6.1,12.5,44.2,8.2,48.5"/>
		<path class="st8" d="M110.6,322.6c7.1,3.6,33.6,6.8,40.5,3.3"/>
		<path class="st8" d="M111.3,329.7c8.5,4.9,25.3,8.3,33.4,8.3"/>
		<path class="st8" d="M108.7,44c28.1,2.7,50.9,15,69.8,35.1c69.4,73.4,94.2,234.1,58.6,265.5c-1.3,1.2-30.2-12.1-31.5-12.4"/>
		<path class="st8" d="M45.5,252.6c-1.6,12.3,7.4,53.9,18.4,60"/>
		<path class="st8" d="M128.4,47.7c-17.5-21.3,5.9-54.8,30.7-30.4"/>
		<path class="st8" d="M95.8,43.7c9.4-35.6-21.5-45.2-33.6-25.6"/>
		<path class="st8" d="M160.8,333.9c7.9,3.9,15.3,8,19.3,16.1"/>
		<path class="st8" d="M78.5,46.9c-1.2-2.3-3.3-6.2-2.2-8.9c0.1-0.1,1-1.1,1.2-1c0.8,0.4,1.4,1.8,2.4,2.4c3.9,2.1,8.3,3.6,12.7,4.6
			c2.6,0.6,5.2,0.8,7.7,1.4c0.6,0.1,1.8,0.2,1.8,0.2s-3.5-3.1-2.2-3.8c0.2-0.1,10.2,3.6,11.1,4c7.1,2.8,15.5,5.5,22.3,8.8"/>
		<path class="st18" d="M129.7,215.4c-1-0.7,2.4-1,3.5-1.4c2.5-0.9,4.8-1.6,7.3-2.4c3.5-1.1,16.2-2.5,17.9,1.9
			c2.1,5.2-0.7,16.9-3,21.3c-0.1,0.3-0.2,0.5-0.3,0.8c-0.9,2-1.9,3.9-2.8,5.8c0,0,0.1,0.5-0.2,0.3c-0.7-0.5-2.7-8.2-3.4-9.5
			c-0.3-0.7-1.2-1.1-1.6-1.7c-0.9-1.3-1.3-3-2.3-4.2c-1.8-2.3-4.5-3.9-6.9-5.6C134.9,218.9,132.8,217.5,129.7,215.4z"/>
		<path class="st2" d="M186.2,158.2c13.4,7.3,19.4,20.1,22.6,33c8.2,32.7,11.6,54.9-9.9,81.3c-17.1,21.1-65.4-35.1-85.2-35.9
			c-30.4-1.2-101.1,36.1-104.2,13.2C4.4,223.3,24,181.5,55.5,173c1.3,4.5,1.9,8.4,2,11.7c0.6,13.5-2.7,25.1-6.8,27.9
			c0.6,0.5,21,6.9,21.4,6.3c1.6-2.2,61.2-23.5,80.1,18c6.7-8.2,9.4-23.6,1.8-25.2c-5.6-14.4-16.2-29.6-2.6-46.3
			C158.9,156.2,175.9,152.6,186.2,158.2z"/>
		<path class="st8" d="M55.7,173.5c-39.1,7.1-69.9,91.9-26.8,84.2c18.1-3.2,69.8-26.7,88.3-20.5"/>
		<path class="st8" d="M50.2,192.3c-0.8,0-7.6,17.2-1.3,21c6.4,3.8,50.8,5.2,117.6,55c33.4,25,44.1-11.7,46.1-19.8
			c6.4-25.8-0.1-76-24.9-90.1"/>
		<path class="st19" d="M128.6,215.4c16.5,2.3,23.3,25.4,23.3,25.4s15.5-29,0.8-29.8C138,210.3,125.7,215,128.6,215.4z"/>
		<path class="st19" d="M129.6,215.6c-15.5-4.1-45.8-6.8-57.4,3.6"/>
		<path class="st8" d="M140.5,211.8c11.5,2.1,9.5,21,11.6,28.1"/>
		<path class="st8" d="M187.6,158.3c-31.6-15.5-55.6,19.2-33.8,52.2"/>
		<path class="st8" d="M55.9,173.4c2.3,4.5,2.7,12.9,1.3,21.5c-1.1,6.6-3.3,13.4-6.6,18.8"/>
		<path class="st8" d="M202.6,313.4c35.3-18.3,46.1-235.7-86-267.3"/>
		<path class="st8" d="M64.6,311.3c1.1,7.9,3.8,16.6,9,21.8"/>
		<path class="st6" d="M146.4,180.3c-1-10.7,17.1-20,26.2-16.5c13.2,5.1,20.5,17.9,25.2,30.6c6.3,16.9,10.5,93.5-118.6,22.2
			c-0.6-0.3-7,1.9-6.5,2.1c42.9,12.8,86.8,44.2,89.3,46.7c3.3,3.2,8.6,5.6,12.6,7.7c6.3,3.4,16.3,4.5,22.5,1.4
			c1.9-1,3.1-3.1,4.4-4.7c6.9-8.4,9.9-17,11.1-28.2c0.3-3.1,1.8-6.2,2-9.3c0.4-5.5-1-10.9-1.6-16.4c-0.6-6.6-0.4-13.7-2.1-20
			c-2.1-8-6.1-19.8-12.1-27.6c-2.7-3.5-5.8-5.8-8.5-8.3c-3.5-3.3-5.2-3-11.8-4.8c-13.7-3.9-27.2,6.9-31.5,18.1"/>
		<path class="st6" d="M51.1,214.5c43.3,19.4-48.1,50.2-40.5,13.6c0.1-0.6-2.1,5.2-2.2,5.7c-1.1,5.3,0.4,13.7,2.7,18.6
			c3.4,7.2,13.6,6.3,20.2,4.8c5.8-1.3,10.8-3,16.2-4.7c12.6-3.9,27.2-8.2,34.7-11.2c7.5-3,15.8-4.6,22.1-5.9
			c1.6-0.3,6.1,0.5,7.2-0.3c0.6-0.5-3.8-3.1-4.1-3.3c-4.6-2.2-9.3-3.1-14.1-4.8c-12.3-4.4-23.9-7.7-36.2-12"/>
		<path class="st6" d="M149.7,321.3c27.6-22,49.4-18.2,49.5-12.9c0,2.6,1.9-10.1-3.1-10c-2.4,0-19.4,1.7-12.9,1
			c7-0.8-7.7,2.8-14,6.3c-3.7,2.1-7.7,3-10.8,6C156.7,313.2,147.6,322.9,149.7,321.3z"/>
		<path class="st6" d="M156.9,75.7c0,6.5,7.5,16.7,9.8,23.1c3.5,9.7,7.4,76.1-48.9,78.1c-3.3,0.1-23.4-2.1-26-4.7
			c-0.5-0.5,17.1,1.3,17.9,1.4c3.2,0.4,27.3-5.6,36.9-12.8c20.4-15.3,24.9-53.3,14.3-74.6"/>
		<path class="st6" d="M159.4,213.9c-0.4-0.9,3,4.5,3.2,7.3c0.1,2.7-0.8,11.8-9.2,20.6c-0.2,0.2,2.6-7.4,2.9-8.1
			C158.1,227.9,162.2,219.8,159.4,213.9z"/>
		<path d="M243.7,311.5c-5.7,0-10.4,4.7-10.4,10.4v0.2c0,5.7,4.6,10.4,10.4,10.4c0.6,0,1.2-0.3,1.8-0.4c1.7-6.6,3.2-13.1,4.4-18.4
			C248.1,312.4,246,311.5,243.7,311.5z"/>
		<path d="M225,240.9l-1.5,22.7c1.4,0.3,2.8,0.4,4.3,0.1c6.4-1.1,10.6-7.1,9.5-13.3l0-0.3C236.2,244.3,230.9,240.5,225,240.9z"/>
		<path d="M207,310.3l-5.5,5.5c0,0,1.6,9.3,4.6,15.4c7.4-0.5,9.9-6.2,9.9-10.5v-0.2C216.1,315.1,212.1,310.9,207,310.3z"/>
		<path d="M130.6,326.4c1,4.6,5,8.2,9.9,8.2c4.9,0,8.9-3.5,9.9-8.2H130.6z"/>
		<path d="M245.5,220.2c-3.7,0.7-6.5,3.8-6.5,7.8c0,4.5,3.6,8.1,8.1,8.1h0.5c0.2,0,0.4-0.1,0.7-0.1L245.5,220.2z"/>
		<path d="M251.2,259.7c-3.7,0.7-6.5,3.8-6.5,7.8c0,4.5,3.6,8.1,8.1,8.1h0.5c0.2,0,0.4-0.1,0.7-0.1L251.2,259.7z"/>
		<path d="M230.3,171.2c-2.5,1-4,3.6-3.4,6.3c0.6,3.1,3.7,5.1,6.8,4.4l0.3-0.1c0.2,0,0.3-0.1,0.4-0.2L230.3,171.2z"/>
		<path d="M218.3,165.7c2.6-0.7,4.4-3.1,4.2-5.8c-0.3-3.1-3-5.5-6.1-5.2l-0.4,0c-0.2,0-0.3,0.1-0.5,0.1L218.3,165.7z"/>
		<path d="M226.2,193.1c-0.5,0-1,0.2-1.5,0.2l1.3,19.2c4.7-0.4,8.7-3.9,9.1-8.7C235.6,198.4,231.6,193.6,226.2,193.1z"/>
		<path class="st8" d="M64.2,311.6c0,0,22.5-8.6,46.3,10.8"/>
		<path class="st6" d="M109.4,44.3c73.2,22.5,90.6,87.5,94,131.7c15.7,34.4,15.7,89-11.1,100.3c-20.8,34-119.1,39.2-131.1,0.5
			c-9.5-36.1,33.2-34.3,43.6-32.1c14.4,3.1,55.2,22.5,66.7,27.1c-3.8-2.3-9.9-5.9-10.3-6.3c-5.1-4.9-11-9.7-16.7-13.9
			c-8.1-5.8-20.1-14.5-30-16.3c-1.7-0.3-3.5-0.5-5.2-0.5c-12.3,0-26,6.5-37.2,9.8c-2.6,0.8-25.9,8.7-26,8.8
			c-0.2,0.5-0.9,2.1-1.2,4.8c0,0,0,0.1,0,0.1c-0.1,0.8,0,1.7,0,2.7c0.1-0.3,0.1-0.6,0.2-1c0.3,3.4,2.3,21.9,4.7,27.1
			c2.6,5.7,4,15.2,6.4,17.8c1,1,4.5,6.2,6,6.4c1,0.1,4.5,0,5.8-0.3c4.7-1.2,14.5-2.7,19-0.8c4.7,1.9,8.9,2.7,13.2,5.5
			c4.2,2.7,8.8,7.2,13.6,8.9c2.1,0.7,6.3,1,8.3,0.9c4.6-0.2,6.2,1.8,10.8,2.3c1.1,0.1,16.3,0,16.6-0.2c0.7-0.5-0.3-7.2,0.2-8.8
			c1.5-5,29.2-18.7,39.7-18.9c4-0.5,9.6-1.2,9.9-1.1c3.7,2.1-0.7,6.3-0.5,8.8c0.1,1,1.7,7,3,6.8c4.8-0.5,13-18.7,15.1-25
			c5-15.2,9.3-45.2,8.9-61.1c-0.5-20.8-2.3-46-7.3-66.5c-5.5-22.4-13.1-36.8-24.7-56.4c-7.6-12.7-15.8-29.7-27.6-39.2
			c-6.9-5.6-20.9-12.1-29-14.9C134.4,50.4,106.7,43.4,109.4,44.3z"/>
		<path class="st6" d="M45,261.1c-0.1,0.6-0.2,1.2,0.2,2.4C45.1,262.6,45.1,261.9,45,261.1z"/>
		<path class="st6" d="M171.6,271.9c1.3,0.8,3.6,2.1,3.6,2.2c0,0,1.2-0.3,1-0.3C175.8,273.7,173,272.5,171.6,271.9z"/>
		<path class="st6" d="M169.5,305.7c1.6-0.7,3.8-1.6,4.8-2.1c0.8-0.4,0.8-0.5,0.7-0.5c-1.1,0.6-2.1,1.3-3.7,1.8
			C169.4,305.5,169.5,305.6,169.5,305.7z"/>
		<path class="st6" d="M175,303c0.7-0.4,1.4-0.9,2.6-1.1c1.1-0.2-1.6,0.4-2.1,0.6C174.2,303.1,174.9,303,175,303z"/>
		<path class="st6" d="M56.5,200.3c0.1,0.1,0.3,0.1,0.4,0.2"/>
		<path class="st6" d="M-5.5,278.5c-0.1-0.1-0.3-0.1-0.4-0.2"/>
		<path class="st6" d="M58.3,155.3c4,3.1,8.3,6,11.9,9.6c1,1-0.4-0.3-0.8,1c-22,68.5,19.3,46.3,19.2,46.5
			c-1.6,4.9-24.3,6.3-27.2,4.8c-5.1-2.5-9.9-2.5-14-6.7c-4.5-4.5-0.7-15.7,3.9-20.1c1.4-2.4,3.1-4.6,4.7-6.7c0,0,0.9-2,1.3-3.1
			c-0.4-3.4-0.8-6.8-0.8-6.9c-0.6-1.8-0.8-3.9-1.1-5.9c-0.5-4.5-1.3-8.9-1.2-13.5c0-0.5-0.3-3.4,0.2-3.5
			C54.6,150.7,57.7,154.9,58.3,155.3z"/>
		<line x1="175.2" y1="193.8" x2="175.1" y2="199.5"/>
		<line class="st5" x1="175.2" y1="193.8" x2="175.1" y2="199.5"/>
		<line x1="181.4" y1="196.7" x2="181.3" y2="202.4"/>
		<line class="st5" x1="181.4" y1="196.7" x2="181.3" y2="202.4"/>
		<line x1="188.1" y1="193" x2="188.1" y2="198.7"/>
		<line class="st5" x1="188.1" y1="193" x2="188.1" y2="198.7"/>
		<line x1="177" y1="322.4" x2="177" y2="328.1"/>
		<line class="st5" x1="177" y1="322.4" x2="177" y2="328.1"/>
		<line x1="182.1" y1="325.9" x2="182.1" y2="331.5"/>
		<line class="st5" x1="182.1" y1="325.9" x2="182.1" y2="331.5"/>
		<line x1="18.8" y1="226.1" x2="18.8" y2="231.7"/>
		<line class="st5" x1="18.8" y1="226.1" x2="18.8" y2="231.7"/>
		<path d="M233.7,281.3L233.7,281.3c5.4,0,9.8,4.4,9.8,9.7v0.5c0,5.4-4.4,9.7-9.8,9.7c-5.4,0-9.8-4.4-9.8-9.7V291
			C223.9,285.6,228.3,281.3,233.7,281.3z"/>
		<g>
			<g>
				<path class="st13" d="M109.2,189.8c3.8,0.1,7.2,0.1,10.5,0.3c2.7,0.1,3.5,1.9,3.4,3.5c-0.2,2.3-1.6,3.8-4.1,4.7
					c-0.1,0-0.3,0.1-0.5,0.1c2.6,1.4,2.6,4.3,4.3,7c-2,0-3.8,0-5.7-0.1c-1-1.7-1.8-3.4-2.5-5c-0.4-0.9-0.9-1.5-2.4-1.3
					c-0.4,2-0.7,4-0.5,6.2c-1.8,0-3.4,0-5.1,0C106,199.8,108.7,195.1,109.2,189.8z M113.8,193c-0.2,1-0.5,2-0.8,3.1
					c1.1-0.1,2.2,0,3.3-0.2c0.9-0.1,1.6-0.7,1.7-1.4c0.2-0.8-0.2-1.4-1.1-1.5C115.9,192.9,114.9,193,113.8,193z"/>
				<path class="st13" d="M138.3,194.3c-1.7,0.1-3.2,0.2-4.8,0.3c-0.1-1.3-0.8-2-2.1-2c-0.9,0-1.6,0.2-2,1.1c-0.1,0.7,0.4,1,1,1.1
					c1.1,0.3,2.3,0.5,3.4,0.9c0.6,0.2,1.3,0.4,1.9,0.7c3.8,1.7,3,6-0.1,8.1c-1,0.7-2.3,1.1-3.4,1.3c-1.9,0.3-3.7,0.2-5.5-0.3
					c-2.4-0.7-3.9-2.7-3.5-5.2c1.5-0.1,3-0.1,4.6-0.2c0.1,0.3,0.1,0.6,0.2,0.9c0.4,1.5,2,2.2,3.6,1.6c0.7-0.3,1.3-0.7,1.4-1.4
					c0.1-0.7-0.3-1.1-0.9-1.4c-0.5-0.2-1.1-0.4-1.6-0.5c-1.1-0.3-2.3-0.6-3.3-1c-2-0.8-2.8-2.3-2.4-4c0.5-1.9,2-3.5,4.2-4.1
					c2.1-0.6,4.2-0.6,6.3,0C137.4,190.7,138.3,192,138.3,194.3z"/>
			</g>
		</g>
	</g>
</g>
<g>
	<path d="M150.3,45.5l0.1-0.2c-0.7,0.2-1.5,0.3-2.2,0.2s-1.5-0.2-2.2-0.6c-1.7-0.7-2.8-2-3.5-3.7c-0.6-1.7-0.6-3.4,0.1-5
		c0.7-1.7,2-2.8,3.7-3.5c1.7-0.6,3.4-0.6,5,0.1c1.6,0.7,2.8,2,3.4,3.7c0.6,1.7,0.6,3.4-0.1,5l-2.2,4.9c-0.1,0.3-0.4,0.5-0.7,0.6
		c-0.3,0.1-0.6,0.1-0.9,0c-0.3-0.1-0.5-0.4-0.7-0.7S150.1,45.8,150.3,45.5z M150.4,35.2c-0.5-0.2-1.1-0.4-1.6-0.4s-1.1,0.1-1.5,0.3
		c-0.5,0.2-0.9,0.5-1.3,0.8c-0.4,0.4-0.7,0.8-0.9,1.3c-0.2,0.5-0.3,1-0.4,1.6c0,0.5,0.1,1.1,0.3,1.5c0.2,0.5,0.5,0.9,0.8,1.3
		c0.4,0.4,0.8,0.7,1.3,1c0.5,0.2,1.1,0.4,1.6,0.4c0.5,0,1.1-0.1,1.6-0.3c0.5-0.2,0.9-0.5,1.3-0.8c0.4-0.4,0.7-0.8,0.9-1.3
		c0.2-0.5,0.3-1,0.4-1.6c0-0.5-0.1-1.1-0.3-1.6c-0.2-0.5-0.5-0.9-0.8-1.3C151.4,35.7,150.9,35.4,150.4,35.2z"/>
	<path d="M173.8,42.1c-1.8-1.2-3.3-0.9-4.5,0.9l-0.3,0.5l2,1.3c0.3,0.2,0.5,0.4,0.5,0.8c0.1,0.3,0,0.6-0.2,0.9
		c-0.2,0.3-0.5,0.5-0.8,0.5c-0.3,0.1-0.6,0-0.9-0.2l-2-1.3l-4.9,7.3c-0.1,0.1-0.2,0.2-0.3,0.3c-0.1,0.1-0.3,0.2-0.4,0.2
		c-0.2,0-0.3,0-0.5,0s-0.3-0.1-0.5-0.2c-0.1-0.1-0.3-0.2-0.3-0.3s-0.1-0.3-0.2-0.4s0-0.3,0-0.5s0.1-0.3,0.2-0.4l4.9-7.3l-0.5-0.3
		c-0.3-0.2-0.5-0.5-0.5-0.8c-0.1-0.3,0-0.6,0.2-0.9s0.5-0.5,0.8-0.5c0.3-0.1,0.6,0,0.9,0.2l0.5,0.3l0.3-0.5c2.1-3.1,4.7-3.7,7.9-1.6
		c0.3,0.2,0.5,0.4,0.5,0.8c0.1,0.3,0,0.6-0.2,0.9c-0.2,0.3-0.5,0.5-0.8,0.5S174,42.2,173.8,42.1z"/>
	<path d="M176.3,59.9c0.3,0.2,0.4,0.5,0.5,0.8c0,0.3-0.1,0.6-0.3,0.9c-0.2,0.3-0.5,0.4-0.8,0.5c-1.6,0.1-3.1-0.4-4.3-1.5
		c-1.4-1.1-2.2-2.6-2.4-4.4c-0.2-1.8,0.3-3.4,1.4-4.8c1.1-1.4,2.6-2.2,4.4-2.4c1.8-0.2,3.4,0.3,4.8,1.4c1.4,1.1,2.2,2.6,2.4,4.4
		c0.1,0.9,0,1.7-0.2,2.6c-0.2,0.8-0.6,1.6-1.2,2.3c-0.2,0.3-0.5,0.4-0.8,0.5c-0.3,0-0.6-0.1-0.9-0.3l-7.2-5.8
		c-0.2,0.4-0.3,0.8-0.3,1.3c0,0.4,0,0.9,0.1,1.3s0.3,0.8,0.5,1.2c0.2,0.4,0.5,0.7,0.9,1c0.4,0.3,0.8,0.6,1.2,0.7
		c0.4,0.1,0.9,0.2,1.4,0.2C175.8,59.7,176,59.8,176.3,59.9z M179.3,57.1c0.2-0.4,0.3-0.8,0.3-1.3c0-0.4,0-0.9-0.1-1.3
		c-0.1-0.4-0.3-0.8-0.5-1.2c-0.2-0.4-0.5-0.7-0.9-1c-0.3-0.3-0.7-0.5-1.1-0.7c-0.4-0.2-0.8-0.2-1.3-0.3c-0.4,0-0.9,0-1.3,0.1
		c-0.4,0.1-0.8,0.3-1.2,0.6L179.3,57.1z"/>
	<path d="M185.9,72.4l0.2-0.2c-0.7-0.1-1.5-0.3-2.1-0.6s-1.3-0.7-1.8-1.3c-1.3-1.3-1.9-2.8-2-4.6s0.6-3.4,1.9-4.7
		c1.3-1.3,2.8-1.9,4.6-2c1.8,0,3.4,0.6,4.7,1.9c1.3,1.3,1.9,2.8,2,4.6c0,1.8-0.6,3.4-1.9,4.7l-3.8,3.8c-0.2,0.2-0.5,0.4-0.9,0.4
		s-0.6-0.1-0.9-0.4c-0.2-0.2-0.4-0.5-0.4-0.9C185.6,72.9,185.7,72.6,185.9,72.4z M189.6,62.8c-0.4-0.4-0.9-0.7-1.4-0.9
		c-0.5-0.2-1-0.3-1.5-0.3c-0.5,0-1,0.1-1.5,0.3c-0.5,0.2-1,0.5-1.3,0.9c-0.4,0.4-0.7,0.9-0.9,1.4c-0.2,0.5-0.3,1-0.3,1.5
		c0,0.5,0.1,1,0.3,1.5c0.2,0.5,0.5,1,0.9,1.4c0.4,0.4,0.9,0.7,1.4,0.9c0.5,0.2,1,0.3,1.6,0.3c0.5,0,1-0.1,1.5-0.3
		c0.5-0.2,1-0.5,1.3-0.9c0.4-0.4,0.7-0.9,0.9-1.4c0.2-0.5,0.3-1,0.3-1.5c0-0.5-0.1-1-0.3-1.6C190.3,63.6,190,63.2,189.6,62.8z"/>
	<path d="M198.4,68.4l0.4,0.4l3.3-2.9c0.3-0.2,0.5-0.3,0.9-0.3c0.3,0,0.6,0.2,0.8,0.4c0.2,0.3,0.3,0.5,0.3,0.9
		c0,0.3-0.2,0.6-0.4,0.8l-3.3,2.9l1,1.1c0.2,0.3,0.3,0.5,0.3,0.9c0,0.3-0.2,0.6-0.4,0.8c-0.3,0.2-0.6,0.3-0.9,0.3
		c-0.3,0-0.6-0.2-0.8-0.4l-1-1.1l-4.4,3.9c-1.2,1-1.2,2.1-0.2,3.3c0.2,0.3,0.3,0.5,0.3,0.9c0,0.3-0.2,0.6-0.4,0.8
		c-0.3,0.2-0.6,0.3-0.9,0.3c-0.3,0-0.6-0.2-0.8-0.4c-2.1-2.4-2-4.6,0.4-6.8l4.4-3.9l-0.4-0.4c-0.2-0.2-0.3-0.5-0.3-0.9
		s0.2-0.6,0.4-0.8c0.3-0.2,0.5-0.3,0.9-0.3C197.9,68,198.2,68.2,198.4,68.4z"/>
	<path d="M200.6,91.7c-0.2-0.3-0.3-0.6-0.3-0.9c0-0.3,0.2-0.6,0.5-0.8c-0.7-0.2-1.3-0.4-1.8-0.8c-0.5-0.4-1-0.8-1.4-1.4
		c-0.5-0.7-0.9-1.4-1.1-2.2c-0.2-0.8-0.3-1.6-0.2-2.3c0.1-0.8,0.3-1.5,0.7-2.2c0.4-0.7,0.9-1.3,1.6-1.8l4.6-3.6
		c0.3-0.2,0.6-0.3,0.9-0.2c0.3,0,0.6,0.2,0.8,0.5c0.2,0.3,0.3,0.6,0.2,0.9c0,0.3-0.2,0.6-0.5,0.8l-4.6,3.6c-0.4,0.3-0.7,0.7-0.9,1.1
		c-0.2,0.4-0.4,0.9-0.4,1.3c-0.1,0.5,0,0.9,0.1,1.4c0.1,0.5,0.3,0.9,0.7,1.3c0.3,0.4,0.7,0.7,1.1,0.9c0.4,0.2,0.9,0.4,1.3,0.4
		c0.5,0.1,0.9,0,1.4-0.1s0.9-0.3,1.3-0.7l4.6-3.6c0.3-0.2,0.6-0.3,0.9-0.2c0.3,0,0.6,0.2,0.8,0.5c0.2,0.3,0.3,0.6,0.2,0.9
		s-0.2,0.6-0.5,0.8l-8.4,6.6c-0.3,0.2-0.6,0.3-0.9,0.2C201.1,92.2,200.8,92,200.6,91.7z"/>
	<path d="M213.5,89.2l-0.2,0.1c0.7,0.2,1.4,0.5,2,1s1.1,1,1.6,1.6c0.2,0.3,0.4,0.6,0.6,0.9c0.2,0.4,0.3,0.7,0.4,1s0.1,0.7,0.1,1
		c0,0.3-0.2,0.5-0.5,0.7c-0.1,0.1-0.3,0.2-0.5,0.2c-0.2,0-0.3,0-0.5,0c-0.2,0-0.3-0.1-0.4-0.2c-0.1-0.1-0.3-0.2-0.4-0.3
		c-0.1-0.1-0.1-0.3-0.2-0.5c-0.1-0.5-0.3-1-0.7-1.5c-0.3-0.5-0.7-0.8-1.2-1.1c-0.5-0.3-1-0.5-1.5-0.6c-0.5-0.1-1-0.1-1.6,0
		s-1,0.3-1.5,0.7l-4.4,3c-0.3,0.2-0.6,0.3-0.9,0.2c-0.3-0.1-0.6-0.2-0.8-0.5c-0.2-0.3-0.3-0.6-0.2-0.9c0.1-0.3,0.2-0.6,0.5-0.8
		l8.8-6.1c0.3-0.2,0.6-0.3,0.9-0.2c0.3,0.1,0.6,0.2,0.8,0.5c0.2,0.3,0.3,0.6,0.2,0.9C213.9,88.7,213.7,89,213.5,89.2z"/>
	<path d="M217,109.6c0.2,0.3,0.2,0.6,0.2,0.9c-0.1,0.3-0.3,0.6-0.6,0.8c-0.3,0.2-0.6,0.2-0.9,0.2c-1.5-0.5-2.7-1.4-3.6-2.8
		c-1-1.5-1.2-3.2-0.8-5s1.4-3.1,2.9-4.1c1.5-1,3.2-1.2,5-0.8c1.8,0.4,3.1,1.4,4.1,2.9c0.9,1.5,1.2,3.2,0.8,5c-0.2,0.9-0.5,1.7-1,2.3
		c-0.5,0.7-1.1,1.3-1.9,1.7c-0.3,0.2-0.6,0.2-0.9,0.2c-0.3-0.1-0.6-0.3-0.8-0.6l-4.9-7.9c-0.3,0.3-0.5,0.7-0.7,1.1
		c-0.2,0.4-0.3,0.8-0.3,1.3s0,0.9,0.1,1.3s0.3,0.8,0.5,1.2c0.3,0.4,0.6,0.8,0.9,1.1s0.8,0.5,1.2,0.6
		C216.6,109.2,216.8,109.4,217,109.6z M220.8,107.9c0.3-0.3,0.5-0.7,0.7-1.1c0.2-0.4,0.3-0.8,0.3-1.3s0-0.9-0.1-1.3
		c-0.1-0.4-0.3-0.8-0.5-1.2c-0.2-0.4-0.5-0.7-0.9-1c-0.3-0.3-0.7-0.5-1.1-0.7c-0.4-0.2-0.8-0.3-1.3-0.3c-0.4,0-0.9,0-1.3,0.1
		L220.8,107.9z"/>
	<path d="M220.9,121.4l9.4-5.1c0.3-0.2,0.6-0.2,0.9-0.1c0.3,0.1,0.6,0.3,0.7,0.6c0.2,0.3,0.2,0.6,0.1,0.9c-0.1,0.3-0.3,0.6-0.6,0.7
		l-9.4,5.1c-0.3,0.2-0.6,0.2-0.9,0.1c-0.3-0.1-0.6-0.3-0.7-0.6s-0.2-0.6-0.1-0.9C220.4,121.8,220.6,121.6,220.9,121.4z M234.7,117
		c-0.4,0.2-0.7,0.2-1.1,0.1c-0.4-0.1-0.7-0.3-0.9-0.7c-0.2-0.4-0.2-0.7-0.1-1.1c0.1-0.4,0.3-0.7,0.7-0.9c0.4-0.2,0.7-0.2,1.1-0.1
		c0.4,0.1,0.7,0.3,0.9,0.7s0.2,0.7,0.1,1.1C235.3,116.5,235,116.8,234.7,117z"/>
	<path d="M233.9,123c1.2,0.6,2.1,1.5,2.7,2.7c0.4,0.7,0.6,1.5,0.6,2.3c0,0.8-0.1,1.6-0.3,2.3c-0.2,0.7-0.6,1.4-1.1,2.1
		c-0.5,0.6-1.2,1.1-1.9,1.5l-5.2,2.6c-0.3,0.2-0.6,0.2-0.9,0.1c-0.3-0.1-0.6-0.3-0.7-0.6c-0.2-0.3-0.2-0.6-0.1-0.9s0.3-0.6,0.6-0.7
		l5.2-2.6c0.4-0.2,0.8-0.5,1.1-0.9c0.3-0.4,0.5-0.8,0.7-1.2c0.1-0.4,0.2-0.9,0.2-1.4c0-0.5-0.1-1-0.4-1.4c-0.2-0.5-0.5-0.8-0.9-1.1
		c-0.4-0.3-0.8-0.5-1.2-0.7c-0.5-0.1-0.9-0.2-1.4-0.2c-0.5,0-0.9,0.2-1.4,0.4l-5.2,2.6c-0.3,0.2-0.6,0.2-0.9,0.1
		c-0.3-0.1-0.6-0.3-0.7-0.6c-0.2-0.3-0.2-0.6-0.1-0.9s0.3-0.6,0.6-0.7l9.5-4.8c0.3-0.2,0.6-0.2,0.9-0.1s0.6,0.3,0.7,0.6
		c0.2,0.3,0.2,0.6,0.1,0.9C234.4,122.7,234.2,122.9,233.9,123z"/>
	<path d="M245.7,145.4c0.6,1.4,0.7,2.9,0.3,4.3l5.4-2.3c0.3-0.1,0.6-0.1,0.9,0c0.3,0.1,0.5,0.3,0.7,0.7c0.1,0.3,0.1,0.6,0,0.9
		c-0.1,0.3-0.3,0.5-0.7,0.7l-10.1,4.3c-1.7,0.7-3.4,0.7-5,0c-1.7-0.7-2.9-1.9-3.6-3.5c-0.7-1.7-0.7-3.3,0-5s1.8-2.9,3.5-3.6
		c1.7-0.7,3.3-0.7,5,0S245,143.8,245.7,145.4z M241.3,151.8c0.5-0.2,1-0.5,1.3-0.9c0.4-0.4,0.7-0.8,0.9-1.3c0.2-0.5,0.3-1,0.3-1.6
		c0-0.5-0.1-1.1-0.3-1.6c-0.2-0.5-0.5-1-0.9-1.4c-0.4-0.4-0.8-0.7-1.3-0.9s-1-0.3-1.5-0.3c-0.5,0-1.1,0.1-1.6,0.3s-1,0.5-1.3,0.9
		s-0.7,0.8-0.9,1.3c-0.2,0.5-0.3,1-0.3,1.5c0,0.5,0.1,1.1,0.3,1.6c0.2,0.5,0.5,1,0.9,1.3c0.4,0.4,0.8,0.7,1.3,0.9s1,0.3,1.5,0.3
		C240.2,152.1,240.7,152,241.3,151.8z"/>
	<path d="M238.2,158.4l9.9-3.9c0.3-0.1,0.6-0.1,0.9,0c0.3,0.1,0.5,0.4,0.6,0.7c0.1,0.3,0.1,0.6,0,0.9s-0.4,0.5-0.7,0.7l-9.9,3.9
		c-0.3,0.1-0.6,0.1-0.9,0c-0.3-0.1-0.5-0.4-0.6-0.7c-0.1-0.3-0.1-0.6,0-0.9S237.8,158.5,238.2,158.4z M252.4,155.7
		c-0.4,0.1-0.7,0.1-1.1,0c-0.4-0.2-0.6-0.4-0.8-0.8c-0.1-0.4-0.1-0.7,0-1.1c0.2-0.4,0.4-0.6,0.8-0.8c0.4-0.1,0.7-0.1,1.1,0
		c0.4,0.2,0.6,0.4,0.8,0.8c0.1,0.4,0.1,0.7,0,1.1C253,155.3,252.8,155.5,252.4,155.7z"/>
	<path d="M245.5,163.5c0-0.8,0.1-1.4,0.3-1.8l0,0c0.4-0.8,0.9-1.3,1.7-1.6c0.6-0.2,1.1-0.2,1.7-0.1c0.6,0.1,1.1,0.4,1.6,0.7
		c0.5,0.4,0.9,0.8,1.3,1.3c0.4,0.5,0.7,1.1,0.9,1.7c0.7,1.8,0.5,3.7-0.5,5.5c-0.1,0.2-0.3,0.4-0.6,0.5c-0.3,0.1-0.6,0.1-0.9,0
		s-0.5-0.4-0.6-0.7c-0.1-0.2-0.1-0.5,0-0.7c0.1-0.2,0.2-0.4,0.3-0.6c0.5-1,0.5-2.1,0.1-3.1c-0.4-1.1-1-1.8-1.9-2.2
		c-0.2-0.1-0.3-0.1-0.5,0s-0.3,0.2-0.3,0.4l0.2,5.8c0,0.8-0.1,1.4-0.3,1.8l0,0c-0.4,0.8-0.9,1.3-1.7,1.6c-0.6,0.2-1.1,0.2-1.7,0.1
		c-0.6-0.1-1.1-0.4-1.6-0.7c-0.5-0.4-0.9-0.8-1.3-1.3c-0.4-0.5-0.7-1.1-0.9-1.7c-0.7-1.8-0.5-3.7,0.5-5.5c0.2-0.2,0.4-0.4,0.6-0.5
		c0.3-0.1,0.6-0.1,0.9,0s0.5,0.4,0.6,0.7c0.1,0.2,0.1,0.5,0,0.7c-0.1,0.2-0.2,0.4-0.2,0.6c-0.5,1-0.5,2.1-0.1,3.2
		c0.4,1,1,1.8,1.9,2.2c0.2,0.1,0.3,0.1,0.5,0c0.2-0.1,0.3-0.2,0.3-0.5L245.5,163.5z"/>
	<path d="M247.7,184.6c-1.3-0.8-2.2-2-2.6-3.5c-0.6-1.7-0.4-3.4,0.4-5c0.8-1.6,2.1-2.7,3.8-3.3c1.7-0.6,3.4-0.4,5,0.4
		c1.6,0.8,2.7,2.1,3.3,3.8c0.6,1.7,0.4,3.4-0.4,5c-0.8,1.6-2.1,2.7-3.8,3.3l-6.2,2c-0.5,0.2-1.1,0.3-1.6,0.2c-0.5,0-1-0.1-1.5-0.3
		c-0.5-0.2-1-0.4-1.4-0.7c-0.4-0.3-0.9-0.6-1.2-1c-0.4-0.4-0.7-0.8-1-1.3c-0.3-0.5-0.5-0.9-0.7-1.4c-0.2-0.6-0.3-1.2-0.3-1.8
		c0-0.6,0-1.2,0.1-1.8s0.3-1.2,0.6-1.8s0.7-1.1,1.1-1.6c0.1-0.2,0.3-0.3,0.6-0.4c0.3-0.1,0.6-0.1,0.9,0.1s0.5,0.4,0.6,0.7
		c0.1,0.2,0.1,0.4,0,0.6s-0.2,0.5-0.5,0.8c-0.3,0.4-0.5,0.7-0.6,0.9c-0.6,1.1-0.7,2.3-0.3,3.5c0.4,1.2,1.1,2.1,2.2,2.6
		c0.8,0.3,1.5,0.4,2.1,0.2L247.7,184.6z M255.2,177.8c-0.2-0.5-0.5-1-0.8-1.4s-0.8-0.7-1.2-1c-0.5-0.2-1-0.4-1.5-0.4
		c-0.5,0-1.1,0-1.6,0.2c-0.5,0.2-1,0.4-1.4,0.8c-0.4,0.4-0.7,0.8-1,1.2s-0.4,1-0.4,1.5c-0.1,0.5,0,1.1,0.2,1.6
		c0.2,0.5,0.4,1,0.8,1.4c0.4,0.4,0.8,0.7,1.3,1s1,0.4,1.5,0.4c0.5,0.1,1.1,0,1.6-0.2c0.5-0.2,1-0.4,1.4-0.8c0.4-0.4,0.7-0.8,1-1.2
		s0.4-1,0.4-1.5C255.5,178.9,255.4,178.4,255.2,177.8z"/>
	<path d="M250.6,199.6c-0.1-0.3-0.1-0.6,0.1-0.9c0.2-0.3,0.4-0.5,0.7-0.6c-0.6-0.4-1-0.9-1.4-1.4c-0.4-0.5-0.6-1.1-0.8-1.8
		c-0.2-0.8-0.3-1.6-0.2-2.4c0.1-0.8,0.4-1.5,0.7-2.2c0.4-0.7,0.9-1.3,1.5-1.8c0.6-0.5,1.3-0.9,2.1-1.1l5.6-1.6
		c0.3-0.1,0.6-0.1,0.9,0.1c0.3,0.2,0.5,0.4,0.6,0.7c0.1,0.3,0.1,0.6-0.1,0.9s-0.4,0.5-0.7,0.6l-5.6,1.6c-0.5,0.1-0.9,0.4-1.3,0.7
		c-0.4,0.3-0.7,0.7-0.9,1.1s-0.4,0.9-0.4,1.3c-0.1,0.5,0,1,0.1,1.5c0.1,0.5,0.4,0.9,0.7,1.3s0.7,0.7,1.1,0.9
		c0.4,0.2,0.9,0.4,1.3,0.4c0.5,0.1,1,0,1.4-0.1l5.6-1.6c0.3-0.1,0.6-0.1,0.9,0.1s0.5,0.4,0.6,0.7c0.1,0.3,0.1,0.6-0.1,0.9
		c-0.2,0.3-0.4,0.5-0.7,0.6l-10.3,2.9c-0.3,0.1-0.6,0.1-0.9-0.1C250.9,200.2,250.7,200,250.6,199.6z"/>
	<path d="M252.7,202.8l10.3-2.7c0.3-0.1,0.6,0,0.9,0.1c0.3,0.2,0.5,0.4,0.6,0.7c0.1,0.3,0,0.6-0.1,0.9c-0.2,0.3-0.4,0.5-0.8,0.6
		l-10.3,2.7c-0.3,0.1-0.6,0-0.9-0.1c-0.3-0.2-0.5-0.4-0.6-0.7c-0.1-0.3,0-0.6,0.1-0.9C252.2,203.1,252.4,202.9,252.7,202.8z
		 M267.2,201.8c-0.4,0.1-0.8,0-1.1-0.2c-0.3-0.2-0.6-0.5-0.7-0.9c-0.1-0.4,0-0.8,0.2-1.1c0.2-0.3,0.5-0.6,0.9-0.7
		c0.4-0.1,0.8,0,1.1,0.2c0.3,0.2,0.6,0.5,0.7,0.9c0.1,0.4,0,0.8-0.2,1.1C267.9,201.5,267.6,201.7,267.2,201.8z"/>
	<path d="M259.4,208.7c0.1-0.8,0.3-1.3,0.5-1.7l0,0c0.4-0.7,1.1-1.2,1.9-1.4c0.6-0.1,1.1-0.1,1.7,0.1c0.5,0.2,1,0.5,1.5,0.9
		c0.4,0.4,0.8,0.9,1.2,1.5c0.3,0.6,0.6,1.2,0.7,1.8c0.4,1.9,0.1,3.7-1.1,5.4c-0.2,0.2-0.4,0.3-0.7,0.4c-0.3,0.1-0.7,0-0.9-0.1
		c-0.3-0.2-0.5-0.4-0.5-0.8c-0.1-0.2,0-0.5,0.1-0.7c0.1-0.2,0.2-0.4,0.3-0.6c0.6-1,0.8-2,0.5-3.1c-0.3-1.1-0.8-1.9-1.6-2.4
		c-0.2-0.1-0.3-0.1-0.5-0.1s-0.3,0.2-0.4,0.4l-0.5,5.8c-0.1,0.8-0.3,1.4-0.5,1.7l0,0c-0.4,0.7-1.1,1.2-1.9,1.4
		c-0.6,0.1-1.1,0.1-1.7-0.1s-1-0.5-1.5-0.9c-0.4-0.4-0.8-0.9-1.2-1.5c-0.3-0.6-0.6-1.2-0.7-1.8c-0.5-1.9-0.1-3.7,1.1-5.4
		c0.2-0.2,0.4-0.4,0.7-0.4c0.3-0.1,0.7,0,0.9,0.1c0.3,0.2,0.5,0.4,0.5,0.8c0.1,0.3,0,0.5-0.1,0.7c-0.1,0.2-0.2,0.4-0.3,0.6
		c-0.6,1-0.8,2-0.5,3.1c0.3,1.1,0.8,1.9,1.6,2.4c0.2,0.1,0.3,0.1,0.5,0.1c0.2-0.1,0.3-0.2,0.4-0.4L259.4,208.7z"/>
	<path d="M261.2,228.9c0.1,0.3,0,0.7-0.2,0.9c-0.2,0.3-0.4,0.4-0.8,0.5c-0.3,0.1-0.6,0-0.9-0.2c-1.3-1-2.1-2.3-2.4-3.9
		c-0.4-1.8,0-3.4,1-4.9c1-1.5,2.4-2.4,4.2-2.8s3.4,0,4.9,1s2.4,2.4,2.8,4.2c0.4,1.8,0,3.4-1,4.9c-0.5,0.8-1.1,1.4-1.8,1.8
		c-0.7,0.5-1.5,0.8-2.4,1c-0.3,0.1-0.7,0-0.9-0.2s-0.4-0.5-0.5-0.8l-1.8-9.1c-0.4,0.2-0.7,0.5-1,0.8c-0.3,0.3-0.5,0.7-0.7,1.1
		c-0.2,0.4-0.3,0.8-0.4,1.2c-0.1,0.4,0,0.9,0,1.3c0.1,0.5,0.3,1,0.5,1.3c0.2,0.4,0.5,0.7,0.9,1C261,228.3,261.1,228.6,261.2,228.9z
		 M265.3,228.6c0.4-0.2,0.7-0.5,1-0.8c0.3-0.3,0.5-0.7,0.7-1.1c0.2-0.4,0.3-0.8,0.4-1.2c0.1-0.4,0-0.9,0-1.3
		c-0.1-0.4-0.2-0.8-0.5-1.2c-0.2-0.4-0.5-0.7-0.8-1c-0.3-0.3-0.7-0.5-1.1-0.7c-0.4-0.2-0.8-0.3-1.3-0.3L265.3,228.6z"/>
</g>
</svg>
