<svg width="278" height="298" viewBox="0 0 278 298" fill="none" xmlns="http://www.w3.org/2000/svg">
<g clip-path="url(#clip0_281_1306)">
<path d="M30.7 52.1998C26.9 52.1998 16.7999 73.0998 14.5999 77.2998C-2.20005 108.8 3.99995 145.6 17.2999 177.1C20.6999 185.2 19.2 187.7 22.7 195.2C24.3 198.7 26.5 205.2 26.5 208.9C26.5 209.7 27.5999 207.4 27.5999 207.4C27.5999 207.4 27.6 210.4 26.4 207.7C26 206.9 25.6999 201.9 26.5999 201.9C26.9999 201.9 28.7 217.9 28.9 218.2C32.6 228.2 29.9 235.6 29.7 241.3C29.5 247 44.2 252.3 51.2 254.2C77.8 261.4 104.7 253.8 131.4 253.8C138.1 253.8 157.3 256 162.9 250.1C167.6 245 169.1 238.5 172.9 232.8C178 225.1 190 215.7 198.2 212.2C206.7 208.5 217.4 210.8 225.8 213C228 213.6 234.4 216.5 236.5 214.2C240 210.5 241.6 199.5 240.7 194.8C238.4 182.2 239.1 163.7 236.9 151.5C235.3 143.1 232.5 135.2 229.6 127.2C218.3 95.4998 202.3 69.7998 177 49.9998C170.7 44.9998 160.1 36.2998 152.8 32.3998C145.8 28.5998 141.6 27.1998 134.6 23.3998C125.4 18.3998 108.9 13.4998 98.9999 10.7998C96.4999 10.0998 102.8 14.9998 102.6 15.4998C102.3 16.1998 96.1999 16.0998 95.2999 15.8998C86.9999 14.0998 78.5999 14.2998 70.6999 10.4998C69.3999 9.89975 65.6 1.29975 61.8 2.89975C58 4.49975 65.3 20.7998 65.3 20.7998C65.3 20.7998 64.5999 19.5998 64.0999 19.1998C61.7999 17.2998 56.7 15.6998 53.7 15.0998C47.5 13.7998 44.8 18.0998 39.5 19.1998C38.8 19.3998 29.4 21.6998 29.4 21.7998C29.4 23.1998 42.5999 24.2998 42.5999 25.7998C42.5999 27.0998 40.4 26.4998 39.9 26.5998C37 27.0998 15.8999 35.9998 17.0999 39.9998C17.5999 41.6998 30.8999 40.2998 32.5999 41.4998C33.0999 41.7998 34.0999 41.8998 34.0999 41.8998C34.0999 41.8998 24.5 47.2998 21.1 48.1998C16.8 49.2998 8.69995 58.4998 12.7 57.1998" fill="#CAA77A"/>
<path d="M215.4 203.6C214.5 203.6 213.7 203.7 212.8 204C199.6 208 182.1 214.3 173.6 226.4C170.9 230.2 166.7 240.3 163 243C161.3 244.2 159.1 244.9 157 245.4C146.5 247.6 138.5 248.7 128.1 250.9C105.7 255.7 86 254.1 63.5 249.2C59.9 248.4 50.6 247.6 46.9 246.9C42.6 246.1 38.8 246 34.5 244.9C29.4 243.5 29.7 242.2 29.7 241.6C29.3 237.3 20.4 249.1 23.2 253C24.4 254.7 26.3 255.8 27.4 257.5C28 258.4 26.5999 259.4 26.2999 259.9C21.3999 266.9 18.3 274.8 15.4 282.6C13.5 287.6 12.3 292.3 11.2 297.2C17.8 297.1 261.2 294.9 275.5 294.4C273.5 271.8 268.5 248.2 258.1 233.3C252 224.6 243.7 213.1 232.8 210.2C227.4 208.6 221.5 203.5 215.4 203.6Z" fill="#FFDB1F"/>
<path d="M12.4 116.2C15.6 102.1 20.9 76.8996 32.6 74.5996C39.3 73.2996 44.5 73.7996 52 71.7996C59.8 69.6996 58.9 71.6996 73.6 71.2996C88.3 70.8996 81.5 60.0996 82.1 59.8996C82.7 59.6996 92.3 60.0996 120.2 72.6996C149.1 85.7996 172.4 72.3996 188.5 103.7C192.1 110.7 197.7 126.8 193.9 144.7C188.4 170.8 185.5 181.8 159.1 201.4C127.7 224.7 62.8 236.2 30.4 192.2C15.2 171.6 6.39997 142.4 12.4 116.2Z" fill="#FFDBAF"/>
<path d="M84 125.3C73 119.4 63.3 152.5 64.2 161C67.2 190.2 91.6 193.9 110 184C136.6 169.7 113.7 115.2 94.7 123.3" fill="#9D7B51"/>
<path d="M6.79994 107.8C3.89994 120.5 13.2999 162.6 17.7999 166.2C21.2999 169 44.4999 164.9 61.3999 143.5C77.4999 123.1 77.2999 79.3 73.8999 75.7C71.9999 73.6 28.8999 73.4 24.9999 74.3C19.3999 75.4 10.6999 90.3 6.79994 107.8Z" fill="#9D7B51"/>
<path d="M113.5 72.4998C99.9 175.3 178.9 183.9 186.5 172C191.4 164.4 209.6 108.2 170.6 69.5998C169.2 68.1998 113.6 72.0998 113.5 72.4998Z" fill="#9D7B51"/>
<path d="M44.3 220.9V230.6" stroke="#9D7B51" stroke-width="3.87" stroke-miterlimit="10" stroke-linecap="round" stroke-linejoin="round"/>
<path d="M53.2 225.9V235.6" stroke="#9D7B51" stroke-width="3.87" stroke-miterlimit="10" stroke-linecap="round" stroke-linejoin="round"/>
<path opacity="0.23" d="M11.1 55.0997C17.6 55.0997 23.1 53.1997 29.4 51.5997C31.2 51.1997 32.4 47.8997 32.4 49.8997C32.4 50.2997 31.9 50.3997 31.5 50.5997C26.1 54.0997 23.9 60.0997 20.8 66.0997C19.7 68.1997 16.9 73.8997 17.6 72.4997C42.3 24.6997 221.3 6.79973 211 200.9C210.9 202.6 208.9 205.6 210.5 206.1C213.7 207.3 218.9 203.9 222.9 205.5C224.7 206.2 237.7 214 239.1 213C241.4 211.3 240.3 202.1 240.2 199.1C236.9 114.3 196.5 63.9997 170.3 42.9997C154.4 30.2997 102.1 13.0997 101 12.7997C100.8 12.6997 100.6 16.5997 98.5 16.1997C90.8 14.7997 77.1 14.2997 70.3 8.19975C69.4 7.39975 61.9 1.89975 61.7 2.39975C60.8 4.29975 60.3 14.7997 61.2 16.2997C61.8 17.3997 65.6 15.6997 64.4 15.6997C54.4 15.6997 41.8 19.1997 31 21.4997C30.6 21.5997 29.9 21.5997 29.9 22.0997C29.9 25.3997 43.9 23.1997 43.9 25.5997C43.9 26.4997 39.9 27.1997 34.7 28.7997C30.6 30.0997 25.8 32.0997 21.8 35.3997C21 36.0997 17.9 38.6997 18.6 39.3997C21.2 42.1997 27.6 38.6997 31 40.5997" fill="#3F2719"/>
<path opacity="0.23" d="M217.7 204.7C209.3 204.5 199.9 206.7 189.3 211.9C188.2 212.4 188.2 215.2 187.2 215.9C185.6 217.1 191.2 215.3 193.1 215.3C196.3 215.3 239.5 236.8 254.1 295C262.6 294.7 273.5 294.3 277 294.2C268.2 244.9 250.9 205.5 217.7 204.7Z" fill="#3F2719"/>
<path d="M33.1 50.1001C25.8 55.3001 21.4 63.9001 16.5 71.3001C-7.60003 108 5.09997 154.5 22.3 191.2C23.8 194.4 26 198.2 26.4 201.8C26.6 203.6 25.7 206.7 26.4 208.3C26.7 209 28.2 206.5 28.3 207.3C28.7 210.7 28.3 214.6 28 217.9C27.9 219.2 26.5 222.6 27.4 221.7C27.7 221.4 28.5 218.5 29.6 219C30.3 219.2 29.6 239.9 29.2 241.7" stroke="#2D1F04" stroke-width="2.62" stroke-miterlimit="10" stroke-linecap="round" stroke-linejoin="round"/>
<path d="M30.9 51.1001C27.3 53.0001 25 53.1001 21.3 54.2001C19.5 54.8001 18 55.5001 16.2 55.9001C14.5 56.3001 12.7 56.4001 11.1 56.9001C10.4 57.1001 8.89996 58.4001 8.89996 57.6001C8.89996 55.0001 28.2 43.5001 31.9 42.2001C32.4 42.0001 33.3 42.1001 33.5 41.5001C33.8 40.7001 32.1 40.7001 31.3 40.5001C27.7 39.5001 13.2 42.8001 16 40.2001C31 25.9001 42.4 29.4001 42.4 26.5001C42.4 23.0001 27.9 24.3001 26.8 23.1001C26.6 22.9001 27.2 22.9001 27.4 22.8001C30.7 21.0001 34.3 19.6001 37.9 18.7001C44.5 17.0001 56.3 15.3001 62.8 17.7001" stroke="#2D1F04" stroke-width="2.62" stroke-miterlimit="10" stroke-linecap="round" stroke-linejoin="round"/>
<path d="M63.6999 19.2999C61.7999 15.1999 58.3999 8.59986 60.1999 3.89986C60.2999 3.59986 61.7999 1.99986 62.0999 2.19986C63.3999 2.89986 71.4999 16.4999 98.7999 16.5999C99.7999 16.5999 101.7 16.8999 101.7 16.8999C101.7 16.8999 96.0999 11.4999 98.1999 10.3999C98.5999 10.1999 114.6 16.5999 116.1 17.2999C127.6 22.0999 139.1 24.9999 150 30.5999" stroke="#2D1F04" stroke-width="2.62" stroke-miterlimit="10" stroke-linecap="round" stroke-linejoin="round"/>
<path d="M131.7 22.6001C211.7 51.1001 243 140.6 240.4 211.2" stroke="#2D1F04" stroke-width="2.62" stroke-miterlimit="10" stroke-linecap="round" stroke-linejoin="round"/>
<path d="M30 242.1C92.4 261.4 155.9 247.7 162.9 243.8" stroke="#2D1F04" stroke-width="2.62" stroke-miterlimit="10" stroke-linecap="round" stroke-linejoin="round"/>
<path d="M30 242.2C30.7 237.8 25.7 245.6 24.7 247.8C23.3 251 26.4 253.9 26.2 255.6C26 257.6 23.2 262 22.4 264.3C18.9999 274.1 13.3 284.8 10.7 296.2" stroke="#2D1F04" stroke-width="2.62" stroke-miterlimit="10" stroke-linecap="round" stroke-linejoin="round"/>
<path d="M251.4 222.6C254.3 226.9 257 231.8 259.6 236.3C266.4 248.7 272.9 273.8 276.5 293.5" stroke="#2D1F04" stroke-width="2.62" stroke-miterlimit="10" stroke-linecap="round" stroke-linejoin="round"/>
<path d="M160.3 271.6C167 278.3 173.1 285.2 176.9 294.8" stroke="#2D1F04" stroke-width="2.62" stroke-miterlimit="10" stroke-linecap="round" stroke-linejoin="round"/>
<path d="M174 288.6C173.2 282.5 172.6 274.7 170 269.2" stroke="#2D1F04" stroke-width="2.62" stroke-miterlimit="10" stroke-linecap="round" stroke-linejoin="round"/>
<path d="M226.4 206.3C186.1 196.3 160.6 243.9 162.8 245.7" stroke="#2D1F04" stroke-width="2.62" stroke-miterlimit="10" stroke-linecap="round" stroke-linejoin="round"/>
<path d="M252.8 224.9C245.2 214.4 239 210.6 226.7 206.4" stroke="#2D1F04" stroke-width="2.62" stroke-miterlimit="10" stroke-linecap="round" stroke-linejoin="round"/>
<path d="M108.9 73.4997L184.4 71.1997" stroke="#2D1F04" stroke-width="10.65" stroke-miterlimit="10" stroke-linecap="round" stroke-linejoin="round"/>
<path d="M73.7 73.2998L5.59998 74.8998" stroke="#2D1F04" stroke-width="10.65" stroke-miterlimit="10" stroke-linecap="round" stroke-linejoin="round"/>
<path d="M76.0999 128.5C75.8999 124.1 80.3999 119.8 90.2999 119.2C100.2 118.7 108.4 121.8 108.6 126.2C108.8 130.6 100.9 134.6 90.9999 135.2C81.0999 135.8 76.2999 132.9 76.0999 128.5Z" fill="#251707"/>
<path d="M135.1 263.8C117.4 270.5 48.5 270 27 254.7" stroke="#2D1F04" stroke-width="2.62" stroke-miterlimit="10" stroke-linecap="round" stroke-linejoin="round"/>
<path d="M39.7 245.5C38.8 248.3 37.9 250.4 37.9 253.5" stroke="#2D1F04" stroke-width="2.62" stroke-miterlimit="10" stroke-linecap="round" stroke-linejoin="round"/>
<path d="M55.5999 249C54.3999 251.5 54.2 254.9 54.2 257.7" stroke="#2D1F04" stroke-width="2.62" stroke-miterlimit="10" stroke-linecap="round" stroke-linejoin="round"/>
<path d="M74.7 251.6L73.7 258.5" stroke="#2D1F04" stroke-width="2.62" stroke-miterlimit="10" stroke-linecap="round" stroke-linejoin="round"/>
<path d="M88.2 253.5V254.7V255.4V256.6V257.3V258.1V258.8" stroke="#2D1F04" stroke-width="2.62" stroke-miterlimit="10" stroke-linecap="round" stroke-linejoin="round"/>
<path d="M80.7 253.9V254.7V255.4V256.2V256.9V257.7" stroke="#2D1F04" stroke-width="2.62" stroke-miterlimit="10" stroke-linecap="round" stroke-linejoin="round"/>
<path d="M133.4 251.6V252.4V253.1V254.7V255.4" stroke="#2D1F04" stroke-width="2.62" stroke-miterlimit="10" stroke-linecap="round" stroke-linejoin="round"/>
<path d="M138.7 251.6V252.8V253.9V254.7" stroke="#2D1F04" stroke-width="2.62" stroke-miterlimit="10" stroke-linecap="round" stroke-linejoin="round"/>
<path d="M144.1 118.1C143.6 118 143.1 118 142.7 117.9Z" fill="#2D1F04"/>
<path d="M80.2 152C84.8 142.8 89.2 140.7 93.8 144.9C95.6 146.6 97.3 149.2 99.1 152.7" stroke="#2D1F04" stroke-width="3.05" stroke-miterlimit="10" stroke-linecap="round" stroke-linejoin="round"/>
<path opacity="0.8258" d="M153.2 80.1997H153.6C171.8 80.1997 186.5 97.0997 186.5 118C186.5 138.9 171.8 155.8 153.6 155.8H153.2C135 155.8 120.3 138.9 120.3 118C120.3 97.0997 135.1 80.1997 153.2 80.1997Z" fill="#B2B2B2"/>
<path d="M153.2 80.3999H153.6C171.2 80.3999 185.4 94.6999 185.4 112.2C185.4 129.8 171.1 144 153.6 144H153.2C135.6 144 121.4 129.7 121.4 112.2C121.4 94.5999 135.7 80.3999 153.2 80.3999Z" fill="white"/>
<path d="M153.2 80.3999H153.6C171.2 80.3999 185.4 94.6999 185.4 112.2C185.4 129.7 171.2 144 153.6 144H153.2C135.6 144 121.4 129.7 121.4 112.2C121.4 94.6999 135.7 80.3999 153.2 80.3999Z" stroke="#2D1F04" stroke-width="2.79" stroke-miterlimit="10" stroke-linecap="round" stroke-linejoin="round"/>
<path d="M152.8 111.4C154.733 111.4 156.3 109.34 156.3 106.8C156.3 104.259 154.733 102.2 152.8 102.2C150.867 102.2 149.3 104.259 149.3 106.8C149.3 109.34 150.867 111.4 152.8 111.4Z" fill="#2D1F04"/>
<path opacity="0.8258" d="M36.2 81.0996H36.5C53.2 81.0996 66.8 97.9996 66.8 118.9C66.8 139.8 53.2 156.7 36.5 156.7H36.2C19.5 156.7 5.89996 139.8 5.89996 118.9C5.89996 98.0996 19.4 81.0996 36.2 81.0996Z" fill="#B2B2B2"/>
<path d="M36.2 81.2998H36.5C52.7 81.2998 65.8 95.5998 65.8 113.1C65.8 130.7 52.7 144.9 36.5 144.9H36.2C20 144.9 6.89996 130.6 6.89996 113.1C6.89996 95.5998 20 81.2998 36.2 81.2998Z" fill="white"/>
<path d="M36.2 81.2998H36.5C52.7 81.2998 65.8 95.5998 65.8 113.1C65.8 130.6 52.7 145 36.5 145H36.2C20 145 6.89996 130.7 6.89996 113.2C6.89996 95.6998 20 81.2998 36.2 81.2998Z" stroke="#2D1F04" stroke-width="2.79" stroke-miterlimit="10" stroke-linecap="round" stroke-linejoin="round"/>
<path d="M35.8 112.3C37.5673 112.3 39 110.24 39 107.7C39 105.159 37.5673 103.1 35.8 103.1C34.0327 103.1 32.6 105.159 32.6 107.7C32.6 110.24 34.0327 112.3 35.8 112.3Z" fill="#2D1F04"/>
<path d="M148.6 56.1001H37.7V96.3001H148.6V56.1001Z" fill="#D6D1C7" stroke="black" stroke-width="1.5" stroke-miterlimit="10"/>
<path d="M148.6 46.1001H37.7V56.2001H148.6V46.1001Z" fill="#004CA3" stroke="black" stroke-width="1.5" stroke-miterlimit="10"/>
<path d="M142.1 53.9003C143.646 53.9003 144.9 52.6467 144.9 51.1003C144.9 49.5539 143.646 48.3003 142.1 48.3003C140.554 48.3003 139.3 49.5539 139.3 51.1003C139.3 52.6467 140.554 53.9003 142.1 53.9003Z" fill="#FF0000"/>
<path d="M139.5 48.3999L145.4 54.2999" stroke="black" stroke-width="0.6603" stroke-miterlimit="10"/>
<path d="M139.1 54.0001L145 48.1001" stroke="black" stroke-width="0.6603" stroke-miterlimit="10"/>
<path d="M70.8999 84.4002C75.3734 84.4002 78.9999 80.7737 78.9999 76.3002C78.9999 71.8267 75.3734 68.2002 70.8999 68.2002C66.4264 68.2002 62.7999 71.8267 62.7999 76.3002C62.7999 80.7737 66.4264 84.4002 70.8999 84.4002Z" fill="#FF0000"/>
<path d="M66.7999 72.2002L75.1999 80.6002" stroke="white" stroke-width="1.5248" stroke-miterlimit="10" stroke-linecap="round"/>
<path d="M66.7999 80.6002L75.1999 72.2002" stroke="white" stroke-width="1.5248" stroke-miterlimit="10" stroke-linecap="round"/>
<path d="M84.0952 80.9888V69.7498H90.8781V70.9571H85.4562V74.7546H90.5269V75.962H85.4562V79.7815H90.9659V80.9888H84.0952ZM93.1556 80.9888V72.5595H94.4068V73.8327H94.4946C94.6482 73.4156 94.9263 73.0772 95.3287 72.8175C95.7312 72.5577 96.1848 72.4278 96.6897 72.4278C96.7848 72.4278 96.9037 72.4297 97.0464 72.4333C97.1891 72.437 97.297 72.4425 97.3702 72.4498V73.7668C97.3263 73.7559 97.2257 73.7394 97.0683 73.7175C96.9147 73.6918 96.7519 73.679 96.5799 73.679C96.1702 73.679 95.8043 73.765 95.4824 73.937C95.1641 74.1053 94.9116 74.3394 94.7251 74.6394C94.5421 74.9357 94.4507 75.2742 94.4507 75.6546V80.9888H93.1556ZM98.9054 80.9888V72.5595H100.157V73.8327H100.244C100.398 73.4156 100.676 73.0772 101.079 72.8175C101.481 72.5577 101.935 72.4278 102.44 72.4278C102.535 72.4278 102.654 72.4297 102.796 72.4333C102.939 72.437 103.047 72.4425 103.12 72.4498V73.7668C103.076 73.7559 102.975 73.7394 102.818 73.7175C102.665 73.6918 102.502 73.679 102.33 73.679C101.92 73.679 101.554 73.765 101.232 73.937C100.914 74.1053 100.661 74.3394 100.475 74.6394C100.292 74.9357 100.2 75.2742 100.2 75.6546V80.9888H98.9054ZM107.823 81.1644C107.062 81.1644 106.394 80.9833 105.82 80.6211C105.249 80.2589 104.803 79.7522 104.481 79.101C104.163 78.4498 104.004 77.6888 104.004 76.8181C104.004 75.94 104.163 75.1735 104.481 74.5187C104.803 73.8638 105.249 73.3553 105.82 72.9931C106.394 72.6309 107.062 72.4498 107.823 72.4498C108.584 72.4498 109.25 72.6309 109.821 72.9931C110.395 73.3553 110.841 73.8638 111.16 74.5187C111.482 75.1735 111.643 75.94 111.643 76.8181C111.643 77.6888 111.482 78.4498 111.16 79.101C110.841 79.7522 110.395 80.2589 109.821 80.6211C109.25 80.9833 108.584 81.1644 107.823 81.1644ZM107.823 80.001C108.401 80.001 108.877 79.8528 109.25 79.5565C109.623 79.2601 109.899 78.8705 110.079 78.3876C110.258 77.9046 110.347 77.3815 110.347 76.8181C110.347 76.2546 110.258 75.7296 110.079 75.2431C109.899 74.7565 109.623 74.3632 109.25 74.0632C108.877 73.7632 108.401 73.6132 107.823 73.6132C107.245 73.6132 106.769 73.7632 106.396 74.0632C106.023 74.3632 105.747 74.7565 105.568 75.2431C105.388 75.7296 105.299 76.2546 105.299 76.8181C105.299 77.3815 105.388 77.9046 105.568 78.3876C105.747 78.8705 106.023 79.2601 106.396 79.5565C106.769 79.8528 107.245 80.001 107.823 80.001ZM113.62 80.9888V72.5595H114.871V73.8327H114.959C115.112 73.4156 115.39 73.0772 115.793 72.8175C116.195 72.5577 116.649 72.4278 117.154 72.4278C117.249 72.4278 117.368 72.4297 117.51 72.4333C117.653 72.437 117.761 72.4425 117.834 72.4498V73.7668C117.79 73.7559 117.69 73.7394 117.532 73.7175C117.379 73.6918 117.216 73.679 117.044 73.679C116.634 73.679 116.268 73.765 115.946 73.937C115.628 74.1053 115.376 74.3394 115.189 74.6394C115.006 74.9357 114.915 75.2742 114.915 75.6546V80.9888H113.62Z" fill="black"/>
<path d="M42.1195 53.1431V48.732H44.7816V49.2059H42.6536V50.6963H44.6438V51.1702H42.6536V52.6692H44.8161V53.1431H42.1195ZM45.6755 53.1431V49.8348H46.1665V50.3345H46.201C46.2613 50.1708 46.3704 50.038 46.5284 49.936C46.6863 49.8341 46.8644 49.7831 47.0625 49.7831C47.0999 49.7831 47.1465 49.7838 47.2025 49.7852C47.2585 49.7867 47.3009 49.7888 47.3296 49.7917V50.3086C47.3124 50.3043 47.2729 50.2979 47.2111 50.2892C47.1508 50.2792 47.0869 50.2742 47.0195 50.2742C46.8586 50.2742 46.715 50.3079 46.5887 50.3754C46.4638 50.4414 46.3647 50.5333 46.2915 50.6511C46.2197 50.7674 46.1838 50.9002 46.1838 51.0495V53.1431H45.6755ZM47.9321 53.1431V49.8348H48.4232V50.3345H48.4577C48.518 50.1708 48.6271 50.038 48.7851 49.936C48.943 49.8341 49.1211 49.7831 49.3192 49.7831C49.3565 49.7831 49.4032 49.7838 49.4592 49.7852C49.5152 49.7867 49.5576 49.7888 49.5863 49.7917V50.3086C49.5691 50.3043 49.5296 50.2979 49.4678 50.2892C49.4075 50.2792 49.3436 50.2742 49.2761 50.2742C49.1153 50.2742 48.9717 50.3079 48.8454 50.3754C48.7204 50.4414 48.6214 50.5333 48.5481 50.6511C48.4763 50.7674 48.4404 50.9002 48.4404 51.0495V53.1431H47.9321ZM51.4321 53.212C51.1335 53.212 50.8714 53.1409 50.646 52.9988C50.422 52.8566 50.2468 52.6577 50.1204 52.4021C49.9955 52.1466 49.9331 51.8479 49.9331 51.5062C49.9331 51.1615 49.9955 50.8607 50.1204 50.6037C50.2468 50.3467 50.422 50.1471 50.646 50.0049C50.8714 49.8628 51.1335 49.7917 51.4321 49.7917C51.7308 49.7917 51.9921 49.8628 52.2161 50.0049C52.4416 50.1471 52.6167 50.3467 52.7417 50.6037C52.868 50.8607 52.9312 51.1615 52.9312 51.5062C52.9312 51.8479 52.868 52.1466 52.7417 52.4021C52.6167 52.6577 52.4416 52.8566 52.2161 52.9988C51.9921 53.1409 51.7308 53.212 51.4321 53.212ZM51.4321 52.7554C51.659 52.7554 51.8457 52.6972 51.9921 52.5809C52.1386 52.4646 52.247 52.3117 52.3173 52.1221C52.3877 51.9326 52.4229 51.7273 52.4229 51.5062C52.4229 51.285 52.3877 51.079 52.3173 50.888C52.247 50.697 52.1386 50.5427 51.9921 50.4249C51.8457 50.3072 51.659 50.2483 51.4321 50.2483C51.2053 50.2483 51.0186 50.3072 50.8721 50.4249C50.7257 50.5427 50.6173 50.697 50.5469 50.888C50.4765 51.079 50.4414 51.285 50.4414 51.5062C50.4414 51.7273 50.4765 51.9326 50.5469 52.1221C50.6173 52.3117 50.7257 52.4646 50.8721 52.5809C51.0186 52.6972 51.2053 52.7554 51.4321 52.7554ZM53.7071 53.1431V49.8348H54.1982V50.3345H54.2326C54.293 50.1708 54.4021 50.038 54.56 49.936C54.718 49.8341 54.896 49.7831 55.0942 49.7831C55.1315 49.7831 55.1782 49.7838 55.2342 49.7852C55.2902 49.7867 55.3325 49.7888 55.3613 49.7917V50.3086C55.344 50.3043 55.3045 50.2979 55.2428 50.2892C55.1825 50.2792 55.1186 50.2742 55.0511 50.2742C54.8903 50.2742 54.7467 50.3079 54.6203 50.3754C54.4954 50.4414 54.3963 50.5333 54.3231 50.6511C54.2513 50.7674 54.2154 50.9002 54.2154 51.0495V53.1431H53.7071Z" fill="white"/>
</g>
<defs>
<clipPath id="clip0_281_1306">
<rect width="278" height="298" fill="white"/>
</clipPath>
</defs>
</svg>
