<svg width="399" height="319" viewBox="0 0 399 319" fill="none" xmlns="http://www.w3.org/2000/svg">
<g clip-path="url(#clip0_281_2124)">
<path d="M394.5 108.5C394.5 166.1 347.8 212.7 290.3 212.7C255.3 212.7 224.3 195.4 205.4 169C193.2 151.9 186.1 131 186.1 108.5C186.1 58.8998 220.7 17.3998 267.1 6.89981C274.5 5.19981 282.3 4.2998 290.3 4.2998C347.8 4.2998 394.5 50.9998 394.5 108.5Z" fill="white"/>
<path opacity="0.23" d="M301.9 57.1999C301.6 59.5999 301 61.8999 300.2 64.0999C300.4 65.6999 300.4 67.2999 300.4 68.7999C300.4 77.1999 296.6 85.0999 290.2 90.4999C287.5 127.4 266.3 151.8 255.5 164.3C248.8 172 238.6 175.5 228.6 173.5C220.9 172 213 170.4 205.4 168.9C193.2 151.8 186.1 130.9 186.1 108.4C186.1 58.7999 220.7 17.2999 267.1 6.7999C272.8 5.6999 277.1 4.8999 283.1 4.3999C283.1 4.6999 282.9 7.8999 282.9 8.1999C292.2 15.8999 294.7 19.5999 295.7 21.1999C295.7 21.1999 295.8 21.2999 295.8 21.3999C297.5 23.8999 302.1 32.0999 300.4 42.3999C301.9 46.9999 302.5 51.8999 301.9 57.1999Z" fill="#3F2719"/>
<path d="M290.2 212.7C347.748 212.7 394.4 166.048 394.4 108.5C394.4 50.9517 347.748 4.2998 290.2 4.2998C232.652 4.2998 186 50.9517 186 108.5C186 166.048 232.652 212.7 290.2 212.7Z" stroke="#2D1F04" stroke-width="8.0658" stroke-miterlimit="10" stroke-linecap="round" stroke-linejoin="round"/>
<path d="M290.2 203.2C342.501 203.2 384.9 160.801 384.9 108.5C384.9 56.1984 342.501 13.7998 290.2 13.7998C237.899 13.7998 195.5 56.1984 195.5 108.5C195.5 160.801 237.899 203.2 290.2 203.2Z" stroke="#2D1F04" stroke-width="2.62" stroke-miterlimit="10" stroke-linecap="round" stroke-linejoin="round"/>
<path d="M290.2 113.7C293.072 113.7 295.4 111.372 295.4 108.5C295.4 105.628 293.072 103.3 290.2 103.3C287.328 103.3 285 105.628 285 108.5C285 111.372 287.328 113.7 290.2 113.7Z" fill="#2D1F04"/>
<path d="M365.4 108.5H290.3L353.2 67.3999C360.9 79.1999 365.4 93.2999 365.4 108.5Z" fill="#FF8A8A"/>
<path d="M283.3 33.4997V23.1997C281.4 24.6997 280.1 25.3997 279.4 25.3997C279.1 25.3997 278.8 25.2997 278.6 24.9997C278.4 24.6997 278.2 24.4997 278.2 24.0997C278.2 23.6997 278.3 23.3997 278.6 23.1997C278.8 22.9997 279.3 22.7997 279.9 22.4997C280.8 22.0997 281.5 21.5997 282.1 21.0997C282.6 20.5997 283.1 20.0997 283.6 19.4997C284 18.8997 284.3 18.4997 284.4 18.3997C284.5 18.2997 284.8 18.1997 285.1 18.1997C285.5 18.1997 285.8 18.3997 286.1 18.6997C286.3 18.9997 286.5 19.3997 286.5 19.9997V32.9997C286.5 34.4997 286 35.2997 284.9 35.2997C284.4 35.2997 284.1 35.0997 283.8 34.7997C283.4 34.5997 283.3 34.0997 283.3 33.4997Z" fill="black"/>
<path d="M294.5 32.3998H300.4C301 32.3998 301.4 32.4998 301.7 32.7998C302 32.9998 302.2 33.3998 302.2 33.7998C302.2 34.1998 302.1 34.4998 301.8 34.6998C301.6 34.9998 301.2 35.0998 300.7 35.0998H292.4C291.8 35.0998 291.4 34.8998 291.1 34.5998C290.8 34.2998 290.6 33.8998 290.6 33.4998C290.6 33.1998 290.7 32.8998 290.9 32.3998C291.1 31.8998 291.3 31.5998 291.6 31.2998C292.6 30.2998 293.5 29.3998 294.3 28.5998C295.1 27.8998 295.7 27.3998 296 27.0998C296.6 26.6998 297.1 26.1998 297.5 25.7998C297.9 25.3998 298.2 24.8998 298.4 24.3998C298.6 23.8998 298.7 23.4998 298.7 22.9998C298.7 22.4998 298.6 22.0998 298.4 21.6998C298.2 21.2998 297.9 20.9998 297.5 20.7998C297.1 20.5998 296.7 20.4998 296.2 20.4998C295.2 20.4998 294.4 20.8998 293.9 21.7998C293.8 21.8998 293.7 22.1998 293.5 22.6998C293.3 23.1998 293.1 23.5998 292.9 23.8998C292.7 24.1998 292.4 24.2998 291.9 24.2998C291.5 24.2998 291.2 24.1998 291 23.8998C290.8 23.6998 290.6 23.2998 290.6 22.8998C290.6 22.3998 290.7 21.7998 291 21.2998C291.3 20.7998 291.6 20.1998 292 19.7998C292.4 19.3998 293.1 18.9998 293.8 18.6998C294.5 18.3998 295.4 18.2998 296.3 18.2998C297.5 18.2998 298.4 18.4998 299.3 18.7998C299.8 18.9998 300.3 19.3998 300.7 19.7998C301.1 20.1998 301.4 20.6998 301.6 21.2998C301.8 21.8998 301.9 22.3998 301.9 22.9998C301.9 23.8998 301.7 24.7998 301.2 25.5998C300.7 26.3998 300.3 26.9998 299.8 27.3998C299.3 27.7998 298.5 28.4998 297.4 29.3998C296.3 30.2998 295.5 31.0998 295.1 31.5998C294.9 31.8998 294.7 32.0998 294.5 32.3998Z" fill="black"/>
<path d="M373.5 106.7C374.2 106.7 374.8 106.5 375.3 106.1C375.8 105.7 376.1 105.1 376.1 104.3C376.1 103.7 375.9 103.2 375.5 102.8C375.1 102.4 374.6 102.2 373.9 102.2C373.4 102.2 373.1 102.3 372.8 102.4C372.5 102.5 372.3 102.7 372.1 102.9C371.9 103.1 371.8 103.4 371.6 103.7C371.4 104 371.3 104.3 371.2 104.6C371.1 104.8 371 104.9 370.8 105C370.6 105.1 370.4 105.1 370.1 105.1C369.8 105.1 369.5 105 369.3 104.7C369 104.5 368.9 104.1 368.9 103.7C368.9 103.3 369 102.9 369.3 102.5C369.5 102.1 369.9 101.7 370.3 101.3C370.8 100.9 371.3 100.6 372 100.4C372.7 100.2 373.4 100 374.3 100C375 100 375.7 100.1 376.3 100.3C376.9 100.5 377.4 100.8 377.9 101.2C378.3 101.6 378.7 102 378.9 102.5C379.1 103 379.2 103.5 379.2 104.1C379.2 104.9 379 105.5 378.7 106C378.4 106.5 377.9 107.1 377.3 107.6C377.9 107.9 378.4 108.3 378.8 108.7C379.2 109.1 379.5 109.6 379.7 110.1C379.9 110.6 380 111.1 380 111.7C380 112.4 379.9 113.1 379.6 113.7C379.3 114.3 378.9 114.9 378.4 115.4C377.9 115.9 377.2 116.3 376.5 116.6C375.8 116.9 374.9 117 374.1 117C373.2 117 372.4 116.8 371.7 116.5C371 116.2 370.4 115.8 369.9 115.3C369.4 114.8 369.1 114.3 368.8 113.8C368.6 113.3 368.4 112.8 368.4 112.5C368.4 112.1 368.5 111.7 368.8 111.4C369.1 111.1 369.4 111 369.9 111C370.1 111 370.3 111.1 370.5 111.2C370.7 111.3 370.8 111.5 370.9 111.6C371.3 112.7 371.7 113.4 372.2 113.9C372.7 114.4 373.3 114.7 374.1 114.7C374.6 114.7 375 114.6 375.5 114.4C376 114.2 376.3 113.8 376.6 113.4C376.9 112.9 377 112.4 377 111.8C377 110.9 376.8 110.2 376.3 109.7C375.8 109.2 375.1 108.9 374.3 108.9C374.1 108.9 373.9 108.9 373.6 108.9C373.3 108.9 373.1 108.9 373 108.9C372.6 108.9 372.3 108.8 372 108.6C371.8 108.4 371.7 108.1 371.7 107.7C371.7 107.3 371.8 107 372.1 106.8C372.4 106.6 372.8 106.5 373.3 106.5H373.5V106.7Z" fill="black"/>
<path d="M287.4 189.6C287.9 189 288.5 188.5 289.1 188.2C289.7 187.9 290.4 187.8 291.1 187.8C291.8 187.8 292.5 187.9 293.1 188.2C293.7 188.5 294.2 188.8 294.7 189.3C295.2 189.8 295.5 190.4 295.8 191.1C296 191.8 296.2 192.5 296.2 193.2C296.2 194.3 296 195.2 295.5 196.1C295 197 294.3 197.6 293.5 198.1C292.6 198.6 291.6 198.8 290.5 198.8C289.2 198.8 288.1 198.5 287.2 197.9C286.3 197.3 285.6 196.4 285.1 195.2C284.6 194 284.4 192.5 284.4 190.8C284.4 189.4 284.5 188.1 284.8 187C285.1 185.9 285.5 184.9 286.1 184.2C286.7 183.5 287.3 182.9 288.1 182.5C288.9 182.1 289.8 181.9 290.8 181.9C291.8 181.9 292.6 182.1 293.4 182.5C294.1 182.9 294.7 183.3 295.1 183.9C295.5 184.5 295.7 185 295.7 185.5C295.7 185.8 295.6 186.1 295.3 186.3C295.1 186.6 294.8 186.7 294.4 186.7C294.1 186.7 293.8 186.6 293.5 186.4C293.2 186.2 293 185.9 292.9 185.6C292.7 185.1 292.4 184.8 292.1 184.5C291.8 184.2 291.3 184.1 290.8 184.1C290.4 184.1 290 184.2 289.6 184.4C289.2 184.6 288.9 184.9 288.6 185.3C287.9 186.1 287.5 187.6 287.4 189.6ZM290.5 196.7C291.3 196.7 291.9 196.4 292.4 195.8C292.9 195.2 293.1 194.4 293.1 193.3C293.1 192.6 293 192 292.7 191.5C292.5 191 292.1 190.6 291.7 190.4C291.3 190.2 290.8 190 290.4 190C289.9 190 289.5 190.1 289.1 190.4C288.7 190.6 288.3 191 288.1 191.5C287.9 192 287.7 192.5 287.7 193.2C287.7 194.2 288 195.1 288.5 195.8C289 196.3 289.7 196.7 290.5 196.7Z" fill="black"/>
<path d="M290.2 108.5C297.3 105.8 306.1 105.4 314.9 105.4C319.3 105.4 323.6 102.7 327.8 103.4C332 104.1 336 107.1 339.5 108.5C335.9 109.9 332 112.9 327.8 113.6C323.6 114.3 319.3 111.6 314.9 111.6C306.1 111.6 297.3 111.3 290.2 108.5Z" fill="#2D1F04"/>
<path d="M360 63.4996C346.3 73.0996 338.8 81.4996 327.2 89.1996C315.5 96.7996 303.5 103.7 290.3 108.6C300 98.3996 311.2 90.1996 322.8 82.4996C334.5 74.9996 345.5 71.6996 359.7 63.0996L360 63.4996Z" fill="#2D1F04"/>
<path d="M282.6 66.9997C282.7 67.5997 271.1 62.3997 265.4 55.5997C270 61.4997 272.3 69.7997 274.3 76.7997C283.2 108.6 270.4 133.1 260.8 150.1C218.3 150.3 171 150.6 171 150.6C163.4 150.6 157.3 156.5 157.3 163.7L155.2 208.7C135.9 205.7 120.4 200.2 110 195.5C98.6 174.1 79 169 60.5 172.6C65.2 108.8 82.5 79.3997 100.2 56.1997C118.7 31.8997 145.9 12.5997 181.7 9.59972C191.9 8.69972 195.9 9.49972 206.3 8.89972C207.6 8.79972 222.1 8.19972 222.4 8.49972C223.8 9.89972 218 12.3997 218 12.3997C218 12.3997 239.1 18.6997 253.5 11.7997C253.8 11.6997 251.7 20.5997 249.2 23.1997C255 23.1997 274.2 33.5997 276.4 35.7997C276.5 35.8997 277.1 36.6997 276.9 36.7997C275.7 37.3997 263.9 34.6997 263.4 34.5997C263.9 34.9997 280.7 44.9997 281.3 51.9997C281.5 54.9997 266.9 48.2997 266.9 48.9997C266.9 49.4997 280.3 55.3997 282.6 66.9997Z" fill="#CAA77A"/>
<path d="M164.5 316.8C157.9 317.5 151.5 318.2 146.9 314.6C143.7 312 104.6 279.1 85.5 263C81.8 259.9 83.9 253.8 88.7 253.6L153.3 250.8L150.8 303.7C150.8 307.7 152.7 311.3 155.6 313.8C158 315.6 161.1 316.8 164.5 316.8Z" fill="#D2D2D2"/>
<path opacity="0.23" d="M282.6 66.9997C282.7 67.6997 271.1 62.3997 265.4 55.5997C270 61.4997 272.3 69.7997 274.3 76.7997C275.4 80.6997 276.1 84.3997 276.6 88.0997C264.6 62.5997 239.4 41.3997 206.9 35.0997C170.6 28.1997 135.2 37.8997 110 78.6997C89.6 111.8 87.9 146.5 91.5 176.4C81.9 171.4 71 170.6 60.4 172.6C65.1 108.8 82.4 79.3997 100.1 56.1997C118.7 31.8997 145.8 12.5997 181.6 9.59972C191.8 8.69972 195.8 9.49972 206.2 8.89972C207.5 8.79972 222 8.19972 222.3 8.49972C223.7 9.89972 217.9 12.3997 217.9 12.3997C217.9 12.3997 239 18.6997 253.4 11.7997C253.7 11.6997 251.6 20.5997 249.1 23.1997C254.9 23.1997 274.1 33.5997 276.3 35.7997C276.4 35.8997 276.9 36.6997 276.8 36.7997C275.6 37.3997 263.8 34.6997 263.3 34.5997C263.9 34.9997 280.7 44.9997 281.3 51.9997C281.5 54.9997 266.9 48.2997 266.9 48.9997C266.9 49.4997 280.3 55.3997 282.6 66.9997Z" fill="#3F2719"/>
<path d="M108.8 109.7C108.6 97.4998 113 72.2998 132 57.5998C141.7 50.9998 168 59.7998 190.1 59.4998C195.3 61.7998 197 60.9998 202.7 60.8998C207.9 60.7998 218 59.0998 224.4 62.1998C217.4 62.5998 219.4 66.9998 221.4 69.6998C226.5 76.2998 243 81.6998 255.7 90.4998C270.2 100.6 267 115.7 264 128.3C253.2 173.2 215 179.6 189.8 179.2C151.5 178.6 109.5 154.6 108.8 109.7Z" fill="#FFDBAF"/>
<path d="M189.7 98.5998C174.2 96.6998 155.3 112.6 158.5 125C161.7 137.4 180.3 145.4 190.5 146.7C227.9 151.6 221.4 116.2 214.9 109.9C213.4 108.5 210.7 105.4 208.5 105.1" fill="#9D7B51"/>
<path d="M178 86.2001C150.3 121.3 108.8 111.7 108.8 109.7C109 82.8001 120.2 67.0001 132 57.6001C147.7 52.1001 168.3 59.2001 190.1 59.5001C192.6 61.3001 189.8 71.2001 178 86.2001Z" fill="#9D7B51"/>
<path d="M226.2 76.5996C214.9 100.8 213 141.5 255 149.8C262.1 137.9 267.5 121.8 266.7 105.2C265.6 100.3 261.2 94.5996 253.2 88.8996C243.5 81.9996 234.6 78.0996 226.2 76.5996Z" fill="#9D7B51"/>
<path d="M284.3 45.7996C285.1 45.8996 284.7 45.8996 285.5 45.5996Z" fill="white"/>
<path d="M43.1 196.7C43.2 196.5 43.3 196.2 43.5 196Z" fill="white"/>
<path d="M252.3 185.2C252.3 185 252.3 185 252.5 185.1Z" fill="#A6A6A6"/>
<path d="M60.5 172.6C65.2 108.8 82.5 79.3997 100.2 56.1997C118.8 31.8997 145.9 12.5997 181.7 9.59972C191.9 8.69972 195.9 9.49972 206.3 8.89972C207.6 8.79972 222.1 8.19972 222.4 8.49972C223.8 9.89972 218 12.4997 218 12.4997C218 12.4997 239.1 18.7997 253.5 11.8997C253.8 11.7997 251.7 20.7997 249.2 23.2997C255 23.2997 274.2 33.6997 276.4 35.8997C276.5 35.9997 277 36.7997 276.9 36.8997C275.7 37.4997 263.4 34.6997 263.4 34.6997C263.4 34.6997 280.8 44.8997 281.3 51.9997C281.5 54.9997 266.9 48.2997 266.9 48.9997C266.9 49.4997 280.3 55.3997 282.7 66.9997C282.8 67.5997 271.2 62.3997 265.5 55.5997C270.1 61.4997 272.4 69.7997 274.4 76.7997C288.6 127.6 247.6 159.7 252.4 172.5" stroke="#2D1F04" stroke-width="2.62" stroke-miterlimit="10" stroke-linecap="round" stroke-linejoin="round"/>
<path d="M214.8 107.7C215.7 104.3 209.7 99.7997 201.4 97.4997C193.1 95.2997 185.6 96.1997 184.7 99.4997C183.8 102.9 189.8 107.4 198.1 109.7C206.4 112 213.9 111.1 214.8 107.7Z" fill="#251707"/>
<path opacity="0.23" d="M164.5 316.8C162.8 317 161.1 317.2 159.5 317.3L85.1 255.2C86 254.3 87.2 253.6 88.8 253.5L153.4 250.7L150.9 303.6C150.9 307.6 152.8 311.2 155.7 313.6C158 315.6 161.1 316.8 164.5 316.8Z" fill="#3F2719"/>
<path d="M155.3 208.5L154.9 216.5L153.3 250.6L148.6 250.8C148.6 250.7 148.5 250.6 148.5 250.6C148.4 250.5 148.4 250.4 148.4 250.3C148.2 249.8 148 249.3 147.7 248.9C147.4 248.2 147.1 247.6 146.7 247C146.3 246.1 145.8 245.3 145.3 244.4C145.1 244 144.8 243.6 144.6 243.2C144.6 243.1 144.5 243 144.4 242.9C144.1 242.4 143.9 242 143.6 241.6C143.3 241.2 143 240.7 142.7 240.3C142.4 239.9 142.1 239.4 141.8 239C140.9 237.7 139.9 236.5 138.9 235.3C138.6 235 138.4 234.7 138.1 234.3C138 234.2 137.9 234.1 137.8 234C137.5 233.7 137.3 233.4 137 233.1C136.9 233 136.9 232.9 136.8 232.9C136.5 232.6 136.2 232.3 136 232.1C135.9 232 135.8 231.9 135.8 231.9C135.5 231.6 135.2 231.3 134.9 231C134.2 230.3 133.5 229.7 132.7 229C132.3 228.7 132 228.4 131.6 228.1C131.2 227.8 130.9 227.5 130.5 227.2C130.5 227.2 130.4 227.2 130.4 227.1C130 226.8 129.7 226.5 129.3 226.3C128.2 225.4 127 224.6 125.8 223.9C125.4 223.6 125 223.4 124.6 223.2C123.8 222.7 123 222.2 122.2 221.8C120.2 220.7 118.1 219.7 116 218.8C115.6 218.6 115.2 218.4 114.7 218.3C114.3 218.1 113.8 218 113.4 217.8C112.1 217.3 110.8 216.9 109.5 216.5C109.1 216.3 108.6 216.2 108.2 216.1C107.8 216 107.3 215.8 106.9 215.7C105.6 215.3 104.3 215 103 214.7C102.2 214.5 101.3 214.3 100.5 214.1C100 214 99.6 213.9 99.1 213.8C98.7 213.7 98.2 213.6 97.8 213.6C96.1 213.3 94.4 213 92.7 212.8C92.3 212.7 91.9 212.7 91.4 212.6C91 212.5 90.6 212.5 90.1 212.4C89.3 212.3 88.4 212.2 87.6 212.1C85.8 211.9 84.1 211.8 82.4 211.7C82.1 211.7 81.8 211.6 81.5 211.6C80.3 211.5 79.1 211.5 77.9 211.4C77.8 211.3 64.2 211.2 64 211.1C51.1 203.8 36.9 203.3 27.3 201.7C12.8 199.3 29.7 187.7 31 186.6C39.1 179.9 49.5 174.8 60.4 172.7C78.8 169.1 98.5 174.2 109.9 195.5C120.6 200.4 135.8 205.5 155.3 208.5Z" fill="#FFDB1F"/>
<g opacity="0.35">
<path d="M141.9 264C132.5 232.6 111.6 220.4 97.2 214.7C67.7 219 43.3 235 36.9 256.5C68.6 261.7 117.3 251.9 129.4 278.8C135 291.2 139.8 299 143.1 298.1C148 296.8 146.1 278.1 141.9 264Z" fill="#CAA77A"/>
<path d="M143 298.4C139.7 299.3 134.8 291.5 129.3 279.1C128.7 277.9 128.1 276.7 127.4 275.6C132.2 274.1 139.1 268.7 141.6 263.2C141.7 263.5 141.8 263.8 141.9 264.2C146 278.3 147.9 297 143 298.4Z" fill="#D2D2D2"/>
<path d="M97.2 214.7C115.2 221.8 133.6 236.2 141.9 264C146.1 278.1 148 296.8 143.1 298.2C139.8 299.1 134.9 291.3 129.4 278.9C117.3 252 68.6 261.8 36.9 256.6" stroke="#2D1F04" stroke-width="2.62" stroke-miterlimit="10" stroke-linecap="round" stroke-linejoin="round"/>
<path d="M127.4 275.3C132.6 274.1 139.4 268.8 141.5 262.6" stroke="#2D1F04" stroke-width="2.62" stroke-miterlimit="10" stroke-linecap="round" stroke-linejoin="round"/>
<path d="M136 270.5C138.4 274.3 142.7 284.199 143.9 297.799" stroke="#2D1F04" stroke-width="2.62" stroke-miterlimit="10" stroke-linecap="round" stroke-linejoin="round"/>
</g>
<g opacity="0.26">
<path d="M130.6 267.1C122.9 234.2 99.8 218.4 85.3 213.9C76.1 229.3 56.4 240.4 51.1 257C78.9 259.3 109.2 260.3 117.2 281.2C122 293.9 126.5 302 129.8 301.2C134.8 300.2 133.9 281.4 130.6 267.1Z" fill="#CAA77A"/>
<path d="M129.7 301.5C126.3 302.2 121.9 294.1 117.1 281.5C116.6 280.2 116 279 115.4 277.9C120.3 276.6 127.5 271.7 130.2 266.3C130.3 266.6 130.4 266.9 130.4 267.3C133.9 281.6 134.7 300.4 129.7 301.5Z" fill="#D2D2D2"/>
<path d="M85.3 213.9C104 221.6 123.4 237.1 130.6 267.1C134 281.4 134.9 300.2 129.9 301.3C126.5 302 122.1 293.9 117.3 281.3C108.3 257.9 71.7 259.4 41.7 256.2" stroke="#2D1F04" stroke-width="2.62" stroke-miterlimit="10" stroke-linecap="round" stroke-linejoin="round"/>
<path d="M115.4 277.6C120.6 276.7 127.7 271.8 130.2 265.7" stroke="#2D1F04" stroke-width="2.62" stroke-miterlimit="10" stroke-linecap="round" stroke-linejoin="round"/>
<path d="M124.3 273.2C126.5 277.1 130.2 287.3 130.7 300.9" stroke="#2D1F04" stroke-width="2.62" stroke-miterlimit="10" stroke-linecap="round" stroke-linejoin="round"/>
</g>
<g opacity="0.15">
<path d="M150.4 209.6C129.4 184 98.4 187 73.6 197.5C76.1 210.3 81.7 222.2 88.8 232.9C110.6 223.2 131 217.2 143.3 228.6C153.6 238.1 161.4 243.6 164.4 241.4C168.9 238.1 159.9 221.2 150.4 209.6Z" fill="#CAA77A"/>
<path d="M164.4 241.7C161.4 243.9 153.5 238.4 143.3 228.9C142.3 228 141.2 227.1 140.1 226.4C144.4 223 149.3 215.3 149.7 209.1C149.9 209.4 150.1 209.6 150.4 209.9C159.9 221.5 168.9 238.4 164.4 241.7Z" fill="#D2D2D2"/>
<path d="M73.5 197.4C96.9 187.4 129.3 183.8 150.4 209.5C159.9 221.2 168.9 238.1 164.4 241.3C161.4 243.5 153.5 238 143.3 228.5C127.2 213.6 97.4 228.4 68.7 242.2" stroke="#2D1F04" stroke-width="2.62" stroke-miterlimit="10" stroke-linecap="round" stroke-linejoin="round"/>
<path d="M140 225.999C144.8 222.899 149.7 215.099 149.5 208.399" stroke="#2D1F04" stroke-width="2.62" stroke-miterlimit="10" stroke-linecap="round" stroke-linejoin="round"/>
<path d="M146.9 218C150.7 220.7 158.8 228.4 165.1 240.7" stroke="#2D1F04" stroke-width="2.62" stroke-miterlimit="10" stroke-linecap="round" stroke-linejoin="round"/>
</g>
<g opacity="0.24">
<path d="M148.9 223.8C130.9 196.9 101.6 195.7 75.2 203.2C76.6 216.2 79.9 229.2 85 241.4C107.8 233.7 128.9 229.5 140.1 242.1C149.4 252.5 156.7 258.8 159.9 256.9C164.6 254 157.3 236.3 148.9 223.8Z" fill="#CAA77A"/>
<path d="M159.9 257.1C156.7 259 149.4 252.8 140.1 242.3C139.2 241.3 138.2 240.3 137.1 239.5C141.7 236.6 147.3 229.3 148.3 223.2C148.5 223.5 148.7 223.8 148.9 224.1C157.3 236.5 164.6 254.2 159.9 257.1Z" fill="#D2D2D2"/>
<path d="M74.9 203.2C100.1 195.9 130.6 196.5 148.9 223.8C157.3 236.3 164.6 254 159.9 256.8C156.7 258.7 149.4 252.5 140.1 242C125.8 226 95.9 237 66.6 247.9" stroke="#2D1F04" stroke-width="2.62" stroke-miterlimit="10" stroke-linecap="round" stroke-linejoin="round"/>
<path d="M137 239.2C142.1 236.5 147.7 229.3 148.1 222.6" stroke="#2D1F04" stroke-width="2.62" stroke-miterlimit="10" stroke-linecap="round" stroke-linejoin="round"/>
<path d="M144.6 231.8C148.2 234.8 155.5 243.2 160.6 256.1" stroke="#2D1F04" stroke-width="2.62" stroke-miterlimit="10" stroke-linecap="round" stroke-linejoin="round"/>
</g>
<g opacity="0.35">
<path d="M149.3 239.2C135.7 208.3 105.4 203.2 76.5 206.2C72 219.7 69 232.4 66.6 248C96.5 242.6 126.5 237.9 137.4 255.6C144.7 267.5 150.8 274.9 154.3 273.6C159.4 271.7 155.3 253 149.3 239.2Z" fill="#CAA77A"/>
<path d="M154.2 273.9C150.7 275.2 144.6 267.8 137.3 255.9C136.6 254.7 135.7 253.6 134.9 252.6C140 250.5 146.8 244.3 148.8 238.5C148.9 238.8 149.1 239.1 149.2 239.4C155.2 253.3 159.3 272 154.2 273.9Z" fill="#D2D2D2"/>
<path d="M76.4 206.3C101.9 203 135 206.9 149.2 239.3C155.2 253.1 159.3 271.8 154.2 273.7C150.7 275 144.6 267.6 137.3 255.7C126.4 238 96.4 242.7 66.5 248.1" stroke="#2D1F04" stroke-width="2.62" stroke-miterlimit="10" stroke-linecap="round" stroke-linejoin="round"/>
<path d="M134.8 252.3C140.2 250.6 147 244.4 148.6 237.9" stroke="#2D1F04" stroke-width="2.62" stroke-miterlimit="10" stroke-linecap="round" stroke-linejoin="round"/>
<path d="M143.6 246.4C146.6 250 152.3 259.6 155.1 273.1" stroke="#2D1F04" stroke-width="2.62" stroke-miterlimit="10" stroke-linecap="round" stroke-linejoin="round"/>
</g>
<path d="M153.4 290C149.9 291.1 144.2 283.3 137.6 271C118.1 234.6 25.8 278.8 5.60001 248.6C-3.09999 235.6 6.00001 218.6 23.5 200.1C22 199 21 197.3 23 194.8C24.3 193.1 25.8 191.5 27.4 189.9C38.7 189 62.3 190.7 78 211.3C102.8 212.3 136.9 218.4 150.5 255.4C155.7 269.5 158.6 288.4 153.4 290Z" fill="#CAA77A"/>
<path d="M153.3 290.3C149.8 291.4 144.1 283.6 137.5 271.3C136.8 270.1 136.1 268.9 135.3 267.9C140.5 266.1 147.7 260.4 150.1 254.7C150.2 255 150.3 255.3 150.5 255.7C155.6 269.7 158.6 288.7 153.3 290.3Z" fill="#D2D2D2"/>
<path opacity="0.23" d="M155.8 286.3C155.4 288.3 154.6 289.7 153.4 290.1C149.9 291.2 144.2 283.4 137.6 271.1C118.1 234.7 25.8 278.9 5.6 248.7C-3.1 235.7 6 218.7 23.4 200.2C21.9 199.1 20.9 197.4 22.9 194.9C24.2 193.2 25.7 191.6 27.3 190C33.2 189.5 42.4 189.8 52.1 193C46.3 196.5 38.7 201.4 37.6 203.3C34.4 203 26 211.8 21.5 222.7C17 233.6 14.3 252.1 31.1 252.3C48 252.5 105.4 240.1 122.7 248.9C136.3 255.8 143.1 274 155.8 286.3Z" fill="#3F2719"/>
<path d="M24.9 191.9C23.4 193.7 19.1 198 23.4 200.1C27.7 202.2 36.4 202.8 42.1 203.8C47.8 204.7 58.2 208.6 64.6 211.2C68.2 211.1 74.8 211.1 78.5 211.3C74 205.5 68.2 199.3 56.5 194.3C44.8 189.4 32.4 189.1 27.2 189.6C26.5 190.4 24.9 191.9 24.9 191.9Z" fill="#FFDB1F"/>
<path opacity="0.23" d="M104.1 186.6C80.5 176.1 49.9 189.1 49.3 191.9C41 191.9 37.2 201.1 39.5 203.4C35.1 202.7 30.9 202.3 27.4 201.7C12.9 199.3 29.8 187.7 31.1 186.6C39.2 179.9 49.6 174.8 60.5 172.7C76.1 169.7 92.5 172.8 104.1 186.6Z" fill="#3F2719"/>
<path d="M64.2 211.1C88 211.1 134.1 210.8 150.5 255.4C155.7 269.5 158.7 288.5 153.4 290.1C149.9 291.2 144.2 283.4 137.6 271.1C118.1 234.7 25.8 278.9 5.60001 248.7C-3.09999 235.7 6.00001 218.7 23.5 200.2" stroke="#2D1F04" stroke-width="2.62" stroke-miterlimit="10" stroke-linecap="round" stroke-linejoin="round"/>
<path d="M115.9 210.2C100.1 153.6 43.5 168.8 22.9 194.8C21.3 196.9 21.2 198.9 23.4 200.1C26 201.6 33.7 202.2 42.7 203.9" stroke="#2D1F04" stroke-width="2.62" stroke-miterlimit="10" stroke-linecap="round" stroke-linejoin="round"/>
<path d="M43.9 191.1L41.6 195.7" stroke="#2D1F04" stroke-width="2.62" stroke-miterlimit="10" stroke-linecap="round" stroke-linejoin="round"/>
<path d="M54.9 194.4L52.5 199" stroke="#2D1F04" stroke-width="2.62" stroke-miterlimit="10" stroke-linecap="round" stroke-linejoin="round"/>
<path d="M27.3 189.9C38.3 188.9 60.9 190.4 77.6 210.8" stroke="#2D1F04" stroke-width="2.62" stroke-miterlimit="10" stroke-linecap="round" stroke-linejoin="round"/>
<path d="M157.1 32.1997L154.8 39.4997" stroke="#9D7B51" stroke-width="3.87" stroke-miterlimit="10" stroke-linecap="round" stroke-linejoin="round"/>
<path d="M33 232.1L35.4 239.4" stroke="#9D7B51" stroke-width="3.87" stroke-miterlimit="10" stroke-linecap="round" stroke-linejoin="round"/>
<path d="M38.4 227L40.7 234.3" stroke="#9D7B51" stroke-width="3.87" stroke-miterlimit="10" stroke-linecap="round" stroke-linejoin="round"/>
<path d="M165.7 33.0996L163.4 40.3996" stroke="#9D7B51" stroke-width="3.87" stroke-miterlimit="10" stroke-linecap="round" stroke-linejoin="round"/>
<path d="M367.6 162.7L361.9 297C361.9 304.3 355.8 310.2 348.2 310.2L193 315.8L164.5 316.8C161.1 316.8 158.1 315.6 155.7 313.7C152.7 311.3 150.9 307.7 150.9 303.6L153.4 250.7L157.5 163.6C157.5 156.4 163.6 150.5 171.2 150.5C171.2 150.5 232.4 150.2 278.1 149.9C323.8 149.6 354.1 149.5 354.1 149.5C361.5 149.5 367.6 155.4 367.6 162.7Z" fill="#D2D2D2"/>
<path opacity="0.32" d="M179.7 158C172.1 158.3 166.9 163.9 166 171.1C161.4 208.4 156.5 250.6 150.8 303.7L153.3 250.8L157.4 163.7C157.4 156.5 163.5 150.6 171.1 150.6C171.1 150.6 232.3 150.3 278 150C323.7 149.7 354 149.6 354 149.6C274.4 153.7 227.6 155.9 179.7 158Z" fill="white"/>
<path opacity="0.23" d="M367.6 162.7L361.9 297C361.9 304.3 355.8 310.2 348.2 310.2L193 315.8L164.5 316.8C161.1 316.8 158 315.7 155.7 313.7C150 308.6 150.9 304.9 151.1 297.7C152.4 304.6 157.9 309.2 164.5 309.4L186.3 308.6L341.5 302.9C349.1 302.9 355.2 297 355.2 289.7C355.2 289.7 359.7 175 360 167.1C360.3 159.2 356.2 152 345.4 149.4C352.4 149.4 358.5 148.7 362 151.9C365.6 155.5 367.6 159.9 367.6 162.7Z" fill="#3F2719"/>
<path d="M145.7 305.7L94.9 263.3" stroke="#2D1F04" stroke-width="2.37" stroke-miterlimit="10" stroke-linecap="round" stroke-linejoin="round"/>
<path d="M353.9 149.5C361.5 149.5 367.6 155.4 367.6 162.7L361.9 297C361.9 304.3 355.8 310.2 348.2 310.2L193 315.8L164.5 316.8C161.1 316.8 158 315.6 155.7 313.7C152.7 311.3 150.9 307.7 150.9 303.7L157.4 163.7C157.4 156.4 163.5 150.6 171.1 150.6C171.1 150.6 232.3 150.3 278 150C323.6 149.7 353.9 149.5 353.9 149.5Z" stroke="#2D1F04" stroke-width="2.37" stroke-miterlimit="10" stroke-linecap="round" stroke-linejoin="round"/>
<path d="M84.1 256.6C83.2 258.6 83.5 261.2 85.5 262.9C104.6 279 143.7 312 146.9 314.5C151.5 318.1 157.9 317.5 164.5 316.7" stroke="#2D1F04" stroke-width="2.37" stroke-miterlimit="10" stroke-linecap="round" stroke-linejoin="round"/>
<path d="M249.4 213.2C254.2 213.3 259 213.4 263.7 213.6C267.6 213.8 269 216.6 269.1 219.4C269.3 223.2 267.6 225.8 264.4 227.2C264.2 227.3 264 227.3 263.7 227.4C267.5 229.8 268 234.5 270.2 238.4C267.4 238.4 265 238.4 262.4 238.4C261.2 235.8 260 233.2 258.9 230.6C258.3 229.2 257.4 228.1 255.5 228.5C255.4 231.8 255.3 235.1 255.3 238.5C253 238.5 250.9 238.5 248.6 238.5C248.7 230.1 249.2 221.8 249.4 213.2ZM256 218.5C255.9 220.2 255.9 221.8 255.8 223.7C257.3 223.6 258.7 223.6 260.2 223.4C261.5 223.2 262.2 222.3 262.2 221C262.3 219.7 261.6 218.7 260.3 218.5C258.9 218.4 257.5 218.5 256 218.5Z" fill="black"/>
<path d="M290 220.4C287.8 220.6 285.8 220.7 283.7 220.9C283.5 218.8 282.4 217.7 280.5 217.6C279.3 217.6 278.3 218 277.8 219.4C277.8 220.6 278.5 221 279.4 221.3C281 221.8 282.6 222.2 284.1 222.7C285 223 285.8 223.4 286.6 223.8C291.7 226.5 290.8 233.7 287 236.8C285.7 237.8 284.2 238.5 282.6 238.8C280.1 239.3 277.6 239.2 275.2 238.5C272 237.5 270 234.4 270.1 230.3C272.2 230.2 274.2 230 276.4 229.9C276.5 230.4 276.6 230.9 276.7 231.3C277.4 233.7 279.6 234.8 281.7 233.9C282.6 233.5 283.3 232.7 283.4 231.6C283.5 230.5 283 229.7 282.1 229.3C281.4 228.9 280.6 228.7 279.9 228.5C278.4 227.9 276.8 227.5 275.3 226.8C272.4 225.4 271.1 223 271.3 220.2C271.6 217 273.5 214.5 276.6 213.6C279.5 212.7 282.5 212.7 285.4 213.7C288.5 214.6 289.9 216.7 290 220.4Z" fill="black"/>
<path d="M165.945 96.2601C170.824 84.2327 166.605 71.1672 156.523 67.0774C146.44 62.9876 134.312 69.4222 129.433 81.4496C124.555 93.477 128.773 106.542 138.856 110.632C148.938 114.722 161.067 108.287 165.945 96.2601Z" fill="#B2B2B2"/>
<path d="M261.307 129.22C266.186 117.192 261.967 104.127 251.885 100.037C241.802 95.9471 229.674 102.382 224.795 114.409C219.916 126.436 224.135 139.502 234.217 143.592C244.3 147.682 256.428 141.247 261.307 129.22Z" fill="#B2B2B2"/>
<path d="M251.8 97.8997C260.3 101 264.6 110.3 261.6 118.7L261.2 119.7C258.1 128.1 248.8 132.4 240.3 129.3C231.8 126.2 227.5 116.9 230.5 108.5L230.9 107.5C234 99.1997 243.4 94.7997 251.8 97.8997Z" fill="white"/>
<path opacity="0.23" d="M261.6 118.7L261.2 119.7C258.1 128.1 248.8 132.4 240.3 129.3C233.9 127 229.8 121.1 229.5 114.7C230.8 119.7 234.5 123.9 239.7 125.8C248.2 128.9 257.5 124.6 260.6 116.2L261 115.2C261.8 113.1 262.1 111 262 109C262.8 112.1 262.8 115.5 261.6 118.7Z" fill="#3F2719"/>
<path d="M251.8 97.8997C260.3 101 264.6 110.3 261.6 118.7L261.2 119.7C258.1 128.1 248.8 132.4 240.3 129.3C231.8 126.2 227.5 116.9 230.5 108.5L230.9 107.5C234 99.1997 243.4 94.7997 251.8 97.8997Z" stroke="#2D1F04" stroke-width="2.6" stroke-miterlimit="10" stroke-linecap="round" stroke-linejoin="round"/>
<path d="M248.7 121.8C250.523 121.8 252 120.322 252 118.5C252 116.677 250.523 115.2 248.7 115.2C246.877 115.2 245.4 116.677 245.4 118.5C245.4 120.322 246.877 121.8 248.7 121.8Z" fill="#2D1F04"/>
<path d="M156.2 66.0999C164.7 69.1999 169 78.4999 166 86.8999L165.6 87.8999C162.5 96.2999 153.2 100.6 144.7 97.4999C136.2 94.3999 131.9 85.0999 134.9 76.6999L135.3 75.6999C138.4 67.2999 147.7 62.9999 156.2 66.0999Z" fill="white"/>
<path opacity="0.23" d="M166 86.8997L165.6 87.8997C162.5 96.2997 153.2 100.6 144.7 97.4997C138.3 95.1997 134.2 89.2997 133.9 82.8997C135.2 87.8997 138.9 92.0997 144.1 93.9997C152.6 97.0997 161.9 92.7997 165 84.3997L165.4 83.3997C166.1 81.3997 166.5 79.2997 166.4 77.1997C167.2 80.2997 167.1 83.5997 166 86.8997Z" fill="#3F2719"/>
<path d="M156.2 66.0999C164.7 69.1999 169 78.4999 166 86.8999L165.6 87.8999C162.5 96.2999 153.2 100.6 144.7 97.4999C136.2 94.3999 131.9 85.0999 134.9 76.6999L135.3 75.6999C138.4 67.2999 147.7 62.9999 156.2 66.0999Z" stroke="#2D1F04" stroke-width="2.6" stroke-miterlimit="10" stroke-linecap="round" stroke-linejoin="round"/>
<path d="M152.3 89.4999C154.123 89.4999 155.6 88.0224 155.6 86.1999C155.6 84.3774 154.123 82.8999 152.3 82.8999C150.477 82.8999 149 84.3774 149 86.1999C149 88.0224 150.477 89.4999 152.3 89.4999Z" fill="#2D1F04"/>
<path d="M110.1 195.4C120.7 200.3 134.9 205.4 154.6 208.5" stroke="#2D1F04" stroke-width="2.62" stroke-miterlimit="10" stroke-linecap="round" stroke-linejoin="round"/>
<path d="M195.5 59.2996C157.1 62.1996 137.2 43.6996 110.4 70.4996" stroke="#2D1F04" stroke-width="8.0658" stroke-miterlimit="10" stroke-linecap="round" stroke-linejoin="round"/>
<path d="M222.3 70.5C234.6 88.9 268.9 80.3 272.5 122.9" stroke="#2D1F04" stroke-width="8.0658" stroke-miterlimit="10" stroke-linecap="round" stroke-linejoin="round"/>
<path d="M189 119.8C181.2 123.2 178.3 131 174.7 127.7C171.1 124.4 172.3 117.1 179.9 114.3C184.6 115.5 187.2 117.8 189 119.8Z" fill="#FF8A8A"/>
<path d="M198.2 107.3C195.3 114.4 194.1 123.3 192.1 122.9C190.1 122.5 188.2 115.7 178.5 114" stroke="#2D1F04" stroke-width="3.2369" stroke-miterlimit="10" stroke-linecap="round" stroke-linejoin="round"/>
<path d="M179.9 114.3C172.3 117.1 171.1 124.4 174.7 127.7C178.3 131 181.1 123.2 189 119.8" stroke="#2D1F04" stroke-width="2.62" stroke-miterlimit="10" stroke-linecap="round" stroke-linejoin="round"/>
<path d="M185.6 116.8C181.6 117.1 178.8 118.5 177 122.1" stroke="#2D1F04" stroke-width="2" stroke-miterlimit="10" stroke-linecap="round" stroke-linejoin="round"/>
<path d="M135.3 267.5C140.8 266.1 148 260.4 150 254" stroke="#2D1F04" stroke-width="2.62" stroke-miterlimit="10" stroke-linecap="round" stroke-linejoin="round"/>
<path d="M144.4 262.2C147.2 266 149.6 269.9 152 274.1" stroke="#2D1F04" stroke-width="2.62" stroke-miterlimit="10" stroke-linecap="round" stroke-linejoin="round"/>
<path d="M130.7 86.7998C131.7 93.7998 137.7 102 149.5 102.3" stroke="#2D1F04" stroke-width="2.79" stroke-miterlimit="10" stroke-linecap="round" stroke-linejoin="round"/>
<path d="M127.4 89.5C127.8 103.7 143.9 113.8 158.1 105" stroke="#2D1F04" stroke-width="2.79" stroke-miterlimit="10" stroke-linecap="round" stroke-linejoin="round"/>
<path d="M231.6 129.8C236.3 136.4 248.7 137.9 256.5 131.5" stroke="#2D1F04" stroke-width="2.79" stroke-miterlimit="10" stroke-linecap="round" stroke-linejoin="round"/>
<path d="M225.6 128.5C227 140.3 243.1 147.3 258.2 135" stroke="#2D1F04" stroke-width="2.79" stroke-miterlimit="10" stroke-linecap="round" stroke-linejoin="round"/>
<path d="M203.4 59.2C212.2 60.3 222.4 47.8 219.9 31.5" stroke="#2D1F04" stroke-width="2.62" stroke-miterlimit="10" stroke-linecap="round" stroke-linejoin="round"/>
<path d="M222.3 60.4998C224 55.8998 225.9 52.2998 230.5 49.7998" stroke="#2D1F04" stroke-width="2.62" stroke-miterlimit="10" stroke-linecap="round" stroke-linejoin="round"/>
<path d="M140.1 37.1001C135.2 45.0001 132.5 59.2001 140.7 59.2001C148.9 59.2001 146.6 45.1001 140.1 37.1001Z" fill="#7FC6E2"/>
<path d="M136.3 46.2001C134.6 52.8001 135.2 59.2001 140.7 59.2001C148.9 59.2001 146.7 45.0001 140.1 37.1001" stroke="#2D1F04" stroke-width="2.62" stroke-miterlimit="10" stroke-linecap="round" stroke-linejoin="round"/>
<path d="M139 56.1001C139.939 56.1001 140.7 54.3092 140.7 52.1001C140.7 49.891 139.939 48.1001 139 48.1001C138.061 48.1001 137.3 49.891 137.3 52.1001C137.3 54.3092 138.061 56.1001 139 56.1001Z" fill="white"/>
<path d="M240.4 39C236.5 45.2 234.4 56.6 240.8 56.6C247.2 56.6 245.6 45.4 240.4 39Z" fill="#7FC6E2"/>
<path d="M237.3 46.3C236 51.5 236.4 56.6 240.8 56.6C247.3 56.6 245.6 45.4 240.4 39" stroke="#2D1F04" stroke-width="2.62" stroke-miterlimit="10" stroke-linecap="round" stroke-linejoin="round"/>
<path d="M239.5 54.0999C240.273 54.0999 240.9 52.712 240.9 50.9999C240.9 49.2878 240.273 47.8999 239.5 47.8999C238.727 47.8999 238.1 49.2878 238.1 50.9999C238.1 52.712 238.727 54.0999 239.5 54.0999Z" fill="white"/>
<path d="M210.2 45.7998C206.6 51.6998 204.5 62.3998 210.6 62.3998C216.7 62.3998 215.1 51.7998 210.2 45.7998Z" fill="#7FC6E2"/>
<path d="M207.4 52.6998C206.1 57.5998 206.6 62.3998 210.7 62.3998C216.8 62.3998 215.2 51.7998 210.3 45.7998" stroke="#2D1F04" stroke-width="2.62" stroke-miterlimit="10" stroke-linecap="round" stroke-linejoin="round"/>
<path d="M209.4 60.0996C210.118 60.0996 210.7 58.7565 210.7 57.0996C210.7 55.4428 210.118 54.0996 209.4 54.0996C208.682 54.0996 208.1 55.4428 208.1 57.0996C208.1 58.7565 208.682 60.0996 209.4 60.0996Z" fill="white"/>
<path d="M189.5 20.3999C184.6 28.2999 181.9 42.4999 190.1 42.4999C198.3 42.4999 196 28.3999 189.5 20.3999Z" fill="#7FC6E2"/>
<path d="M185.7 29.6C184 36.2 184.6 42.6 190.1 42.6C198.3 42.6 196.1 28.4 189.5 20.5" stroke="#2D1F04" stroke-width="2.62" stroke-miterlimit="10" stroke-linecap="round" stroke-linejoin="round"/>
<path d="M188.3 39.5C189.239 39.5 190 37.7091 190 35.5C190 33.2909 189.239 31.5 188.3 31.5C187.361 31.5 186.6 33.2909 186.6 35.5C186.6 37.7091 187.361 39.5 188.3 39.5Z" fill="white"/>
<path d="M251.1 83.7999C253.4 84.9999 256.3 87.3999 259.1 89.3999C262.3 91.5999 265.5 96.7999 268.3 95.1999C270.4 93.8999 270.7 90.6999 268.3 88.2999C265.4 85.3999 259.1 83.3999 251.1 83.7999Z" fill="#7FC6E2"/>
<path d="M251.1 83.7999C253.4 84.9999 256.3 87.3999 259.1 89.3999C262.3 91.5999 265.5 96.7999 268.3 95.1999C270.3 93.9999 270.8 90.9999 268.6 88.5999C265.9 85.5999 259.4 83.3999 251.1 83.7999Z" stroke="#2D1F04" stroke-width="2.62" stroke-miterlimit="10" stroke-linecap="round" stroke-linejoin="round"/>
<path d="M267.233 90.6216C267.577 90.1207 267.007 89.1319 265.96 88.4129C264.913 87.694 263.785 87.5172 263.441 88.018C263.097 88.5188 263.667 89.5076 264.715 90.2266C265.762 90.9456 266.889 91.1224 267.233 90.6216Z" fill="white"/>
</g>
<defs>
<clipPath id="clip0_281_2124">
<rect width="399" height="319" fill="white"/>
</clipPath>
</defs>
</svg>
