<svg width="328" height="351" viewBox="0 0 328 351" fill="none" xmlns="http://www.w3.org/2000/svg">
<g clip-path="url(#clip0_281_2969)">
<path d="M295.8 178.5C297.9 176.5 293.3 172.3 291.7 170.3C276.1 149.6 264.5 139.2 252.9 135.7C248 134.2 243.2 134 238.1 134.7C236.1 135 234.1 135.4 232 136C224.4 138 218.9 142.3 215 147.4C188.8 158.9 145.4 166 111 156.1C111 155.9 111 155.7 111 155.5C110.8 154.1 107.9 158.4 107.3 159.7C106.3 161.7 108.5 163.6 108.4 164.7C108.3 166 106.1 170.9 104.5 176C97 200.2 98.6 220.1 102 222C102.3 228.9 102.8 236.6 103.8 244.6C106.3 263.6 111.9 284.2 126.1 299.3C126.6 299.8 127 300.3 127.5 300.7C125.5 308.3 130.8 324.5 136.5 330C123 329.6 106.9 342 105.8 343C101.1 347.3 102.6 347.6 105.8 347.6C109 347.6 135.1 346.3 148.8 346.1C154.4 346 161.2 345.7 166.8 345.5C170.2 345.4 186.1 345.3 183.6 339.6C180.7 332.8 177.3 323.5 176.9 318.2C185.6 318.7 194.3 318.1 202.1 316.3C204.4 322.9 209.3 328.5 215.8 330.8C196.8 334.1 189.5 340.8 185 346.4C184.4 347.6 199.2 348 215.5 348.7C234.4 349.4 257.4 350.4 265.2 348.6C273 346.8 266.4 335.3 264.9 330.7C259.9 315.3 256.6 299.3 263.8 283.9C266.4 281.4 268.2 278.7 269 275.9C278.5 275.3 289.1 273.4 298.7 269.4C318.6 261 325.3 249 326.2 239.9C327 231.8 313.1 199.4 295.8 178.5ZM271.8 249.5C272.6 246.1 272.9 242.1 272.6 238.7C275.2 240.2 277.1 241.5 276.9 242.6C276.7 244.3 275 246.8 271.8 249.5Z" fill="#CAA77A"/>
<path d="M138 214.599C120.2 232.899 106.9 253.599 89.7 253.399C71 253.199 42.2 221.099 25.5 199.199C23.5 196.599 21.3 194.399 19.3 192.199C15.8 188.199 15.5 183.599 12.7 176.599C11.2 172.899 2.3 158.999 1.5 156.099C-0.999999 147.199 10 150.799 16.3 155.799C28.2 165.099 30.6 175.399 34.3 179.199C39.7 184.699 52 192.199 62.5 196.599C72.7 200.899 75.9 203.299 79.6 205.799C79.6 200.099 81.5 193.399 85.5 183.099C90.3 167.299 99.5 147.699 110.6 141.899L138 214.599Z" fill="#CAA77A"/>
<path d="M110.7 141.8C102.3 143.4 91.7 151.2 85.3 172.3C85.1 172.9 84.4 172.1 83.4 173.2C82.6 174.1 81.3 179.2 82.1 181C85 187.4 100.1 192.4 116.5 195C124.5 183.1 123.2 155 110.7 141.8Z" fill="#FFDB1F"/>
<path d="M19.3 192.3C15.9 188.4 15.1 183.3 12.9 176.9C10.4 169.6 2.40002 158.9 1.60002 156C-0.899981 147.1 10.2 150.6 16.4 155.7C25.8 163.3 32.3 176 34.4 179.1C35.1 184.6 26.8 193 19.3 192.3Z" fill="#B6B1AE"/>
<path d="M34.4 179.1C35.1 184.6 26.7 192.6 19.2 191.9" stroke="#2D1F04" stroke-width="2.7806" stroke-miterlimit="10" stroke-linecap="round" stroke-linejoin="round"/>
<path d="M2.60001 152.3C17.7 161.7 24.3 171.7 31.5 186.2" stroke="#2D1F04" stroke-width="2.7806" stroke-miterlimit="10" stroke-linecap="round" stroke-linejoin="round"/>
<path d="M85.2 172.3C88.8 175.9 93 178.7 97.4 181" stroke="#2D1F04" stroke-width="2.7806" stroke-miterlimit="10" stroke-linecap="round" stroke-linejoin="round"/>
<path d="M88.6 175.3C87.3 176.6 86.7 178.1 86.6 179.1" stroke="#2D1F04" stroke-width="2.7806" stroke-miterlimit="10" stroke-linecap="round" stroke-linejoin="round"/>
<path d="M93.4 178.7C92.9 179.2 92.4 180.5 92.3 181.2" stroke="#2D1F04" stroke-width="2.7806" stroke-miterlimit="10" stroke-linecap="round" stroke-linejoin="round"/>
<path d="M100.6 250.7C96.7 252.6 93.8 253.4 89.7 253.4C71 253.4 44 222.2 25.5 199.2C23.5 196.7 21.3 194.5 19.3 192.2C15.8 188.2 15.2 182.6 12.8 176.5C9.60002 168.6 2.70001 159.7 1.90001 156.8C-0.49999 147.8 11.4 151.7 16.4 155.6C25.8 163 32.4 176.7 34.4 179C39.6 184.8 52.1 191.5 62.6 196.4C77.9 203.5 80.1 205.5 83.8 209.5" stroke="#2D1F04" stroke-width="2.7806" stroke-miterlimit="10" stroke-linecap="round" stroke-linejoin="round"/>
<path d="M79.7 204.2C79.7 200.5 80.4 194.4 85.2 184.6" stroke="#2D1F04" stroke-width="2.7806" stroke-miterlimit="10" stroke-linecap="round" stroke-linejoin="round"/>
<path d="M110.7 141.8C101.4 144 91.5 151.3 85.2 172.3C85 172.8 84.2 172.3 83.3 173.2C82.7 173.9 81.1 179.1 82 181C83.6 184.3 89.1 187.4 95.5 190" stroke="#2D1F04" stroke-width="2.7806" stroke-miterlimit="10" stroke-linecap="round" stroke-linejoin="round"/>
<path opacity="0.23" d="M138 214.6C120.2 232.9 106.9 253.6 89.7 253.4C71 253.2 42.2 221.1 25.5 199.2C23.5 196.6 21.3 194.4 19.3 192.2C15.8 188.2 14.7 183 12.7 176.6C10.8 170.3 2.3 159 1.5 156.1C-0.500002 148.9 6.3 149.6 10.8 152.3C-0.799999 154 13 161.9 16.8 172.3C20.2 181.7 22.9 188.6 24.7 191.2C29.5 198.1 36.8 207 50.7 220.4C63.9 233 77.2 237.9 83.8 239C90.4 240.1 96 236.1 94.5 226.1C93.1 216.1 92.8 195.8 101.5 184.2L120.4 168L138 214.6Z" fill="#3F2719"/>
<path d="M113.4 30.2004C120.1 28.2004 123.3 28.1004 130 28.4004C113 36.1004 104.2 61.3004 103.6 73.7004C103 86.9004 106 100.7 110.1 113.1C110.8 115.2 111.9 117.7 111.8 120C111.8 121.1 110.9 122.9 111.2 124C111.3 124.5 112.6 123.1 112.5 123.6C112.5 125.7 111.8 128 111.3 130C111.1 130.7 109.9 132.7 110.5 132.2C110.7 132.1 111.5 130.4 112.2 130.8C112.6 131 111.2 151.5 111 156.1C141.3 164.2 186.1 166.2 227.3 151.6C235.5 137.5 246 135.4 253 134.8C255.3 95.8004 247 53.3004 196.6 21.1004C189.9 16.8004 182.1 12.3004 175.8 10.4004C177.1 12.4004 177.5 14.7004 177.5 14.7004C167.5 12.8004 156.5 6.40039 153 1.90039C149.8 4.80039 150.1 9.50039 152.5 12.5004C148 9.80039 135.4 8.00039 128 11.2004C133.2 11.5004 136.3 12.6004 137.9 14.8004C130.5 14.4004 125.7 15.3004 119.4 20.5004C123.7 20.4004 128 21.5004 130.7 23.1004C123 23.6004 118.1 25.1004 113.4 30.2004Z" fill="#CAA77A"/>
<path d="M107 65.9005C108.8 57.3005 112.9 47.7005 118.6 46.4005C122.1 45.6005 125.3 47.3005 128.4 49.1005C131.2 50.7005 133.6 50.0005 134.2 48.0005C134.7 46.2005 133.7 45.0005 131.8 43.8005C135.4 44.7005 136.5 46.2005 139.4 47.5005C144.2 49.6005 146.9 50.0005 148.2 49.8005C151.9 49.0005 155.6 45.5005 158.9 44.2005C173.6 38.6005 184.8 41.0005 192.1 60.4005C193.7 64.8005 196.1 74.7005 194 85.7005C190.9 101.7 185.5 110.3 176.4 120.1C162.2 135.3 129.5 140.3 114.5 112.9C107.4 100 103.7 82.0005 107 65.9005Z" fill="#FFDBAF"/>
<path d="M124.9 74.6008C120.1 75.1008 114.7 82.7008 118.8 94.4008C121.7 102.901 126.5 107.801 131.5 111.401C139.8 117.201 148.4 116.001 153.7 108.501C159.4 100.501 159.1 91.0008 156.1 83.9008C152.9 76.3008 143.3 71.9008 136.2 73.2008L124.9 74.6008Z" fill="#9D7B51"/>
<path d="M107 66.0003C106.2 70.6003 105 77.0003 106.1 84.8003C134.5 83.7003 130 51.4003 128.4 49.1003C124.5 46.9003 121.9 45.5003 118.2 46.6003C115.6 47.3003 109.6 51.3003 107 66.0003Z" fill="#9D7B51"/>
<path d="M148.3 49.8008C149.9 82.8008 174.1 88.8008 193.7 86.6008C195.8 76.9008 194.5 67.5008 192.2 61.1008C189.9 54.9008 185.2 44.3008 175.6 42.1008C170.4 40.9008 164 42.0008 158.8 44.2008C154.8 45.9008 151.8 48.4008 148.3 49.8008Z" fill="#9D7B51"/>
<path d="M253.1 134.7C255.6 85.9002 240.7 49.0002 196.7 20.9002C190 16.6002 182.2 12.1002 175.9 10.2002C177.2 12.2002 177.6 14.5002 177.6 14.5002C167.6 12.6002 156.7 6.2002 153.1 1.7002C149.9 4.6002 150.2 9.3002 152.6 12.3002C148.1 9.6002 135.5 7.80019 128.1 11.0002C133.3 11.3002 136.4 12.4002 138 14.6002C130.6 14.2002 125.8 15.1002 119.5 20.3002C123.8 20.2002 128.1 21.3002 130.8 22.8002C122.9 23.6002 118 25.0002 113.3 30.2002C120 28.2002 123.2 28.1002 129.9 28.4002C112.9 36.1002 104.1 61.3002 103.5 73.7002C102.9 86.9002 105.9 100.7 110 113.1C110.7 115.2 111.8 117.7 111.7 120C111.7 121.1 110.8 122.9 111.1 124C111.2 124.5 112.5 123.1 112.4 123.6C112.4 125.7 111.7 128 111.2 130C111 130.8 109.8 132.7 110.4 132.2C110.6 132.1 111.4 130.4 112.1 130.8C112.5 131 111.9 143.5 111 156.1" stroke="#2D1F04" stroke-width="2.7806" stroke-miterlimit="10" stroke-linecap="round" stroke-linejoin="round"/>
<path d="M127.6 78.4004C128.2 85.7004 130.1 92.0004 133.8 97.2004C138.9 99.6004 144.7 98.3004 146.8 90.8004" stroke="#2D1F04" stroke-width="2.7806" stroke-miterlimit="10" stroke-linecap="round" stroke-linejoin="round"/>
<path d="M156.9 68.1002C158 72.4002 163.9 71.8003 169.6 71.8003C176.9 71.8003 184 71.1002 183.1 63.7002C182.5 58.5002 176.3 56.9002 167.4 57.5002C158.5 58.2002 155.5 62.4002 156.9 68.1002Z" fill="white"/>
<path d="M156.6 66.1006C159.4 61.8006 164.8 60.8006 171.7 61.3006C177.6 61.7006 181.3 63.2006 183.2 65.3006C183.2 64.8006 183.2 64.3006 183.1 63.8006C182.5 58.5006 176.3 57.0006 167.4 57.6006C159.5 58.2006 156.3 61.4006 156.6 66.1006Z" fill="#D3E5EA"/>
<path d="M156.9 68.1002C158 72.4002 163.9 71.8003 169.6 71.8003C176.9 71.8003 184 71.1002 183.1 63.7002C182.5 58.5002 176.3 56.9002 167.4 57.5002C158.5 58.2002 155.5 62.4002 156.9 68.1002Z" stroke="#2D1F04" stroke-width="2.7806" stroke-miterlimit="10" stroke-linecap="round" stroke-linejoin="round"/>
<path d="M169.9 65.3001C169.6 62.3001 166.8 60.1001 163.8 60.5001C160.8 60.8001 158.6 63.6001 159 66.6001C159.3 69.6001 162.1 71.8001 165.1 71.4001C168.1 71.0001 170.2 68.3001 169.9 65.3001Z" fill="#2D1F04"/>
<path d="M168.2 65.5002C169.525 65.5002 170.6 64.4257 170.6 63.1002C170.6 61.7747 169.525 60.7002 168.2 60.7002C166.875 60.7002 165.8 61.7747 165.8 63.1002C165.8 64.4257 166.875 65.5002 168.2 65.5002Z" fill="white"/>
<path d="M167.8 68.2004C168.297 68.2004 168.7 67.7974 168.7 67.3004C168.7 66.8033 168.297 66.4004 167.8 66.4004C167.303 66.4004 166.9 66.8033 166.9 67.3004C166.9 67.7974 167.303 68.2004 167.8 68.2004Z" fill="white"/>
<path d="M148.3 49.8004C165.7 39.0004 181.2 39.1004 200.5 59.2004" stroke="#2D1F04" stroke-width="7.6" stroke-miterlimit="10" stroke-linecap="round" stroke-linejoin="round"/>
<path opacity="0.23" d="M253.1 134.7C251.1 135 249.1 135.4 247 136C236.2 138.9 229.7 146.3 225.8 154.2C230 132.7 231.5 110.9 226.4 89.3004C221 66.3004 203.2 43.0004 180 34.2004C178.6 33.7004 174.9 29.8004 170.1 28.2004C172 30.1004 171.5 31.6004 169.4 31.3004C166.3 30.8004 161.8 24.8004 152.9 23.9004C157.3 27.4004 156.2 30.3004 154.3 30.4004C152.6 30.5004 146.7 26.1004 140.3 26.0004C144.6 27.2004 146.3 31.2004 144.8 31.5004C142.6 31.9004 141.5 29.0004 137.3 28.6004C137.8 32.1004 136 35.8004 132 37.5004C129.3 38.6004 125.1 37.7004 123.8 36.5004C120.4 40.0004 116.9 42.6004 112.7 45.7004C117 38.4004 122.7 31.9004 130 28.6004C123.3 28.3004 120.1 28.3004 113.4 30.4004C118.1 25.2004 123 23.8004 130.9 23.0004C128.2 21.4004 123.9 20.4004 119.6 20.5004C125.9 15.3004 130.7 14.3004 138.1 14.8004C136.5 12.6004 133.4 11.5004 128.2 11.2004C135.6 8.00039 148.2 9.90039 152.7 12.5004C150.3 9.60039 150 4.80039 153.2 1.90039C156.7 6.40039 167.7 12.8004 177.7 14.7004C177.7 14.7004 177.3 12.4004 176 10.4004C182.3 12.4004 190.1 16.9004 196.8 21.1004C240.7 49.0004 255.6 86.0004 253.1 134.7Z" fill="#3F2719"/>
<path d="M188.7 134.3V140.5" stroke="#9D7B51" stroke-width="4.1072" stroke-miterlimit="10" stroke-linecap="round" stroke-linejoin="round"/>
<path d="M194.2 138.6V144.9" stroke="#9D7B51" stroke-width="4.1072" stroke-miterlimit="10" stroke-linecap="round" stroke-linejoin="round"/>
<path d="M236.7 349.2C234 349.1 231.2 349 228.4 348.9C227.1 348.9 225.8 348.8 224.5 348.8C221.5 348.7 218.5 348.6 215.6 348.5C215.2 348.5 214.7 348.5 214.3 348.4C214 348.4 213.7 348.4 213.4 348.4C211.8 348.3 210.3 348.3 208.8 348.2C208.5 348.2 208.1 348.2 207.8 348.2C205.1 348.1 202.4 348 200 347.9C199.6 347.9 199.3 347.9 198.9 347.9C198.5 347.9 198.1 347.9 197.7 347.8C197.2 347.8 196.7 347.7 196.3 347.7C195.8 347.7 195.4 347.6 194.9 347.6C194.4 347.6 193.9 347.5 193.4 347.5C192.9 347.5 192.4 347.4 191.9 347.4C191 347.3 190.1 347.3 189.3 347.2C188.9 347.2 188.6 347.1 188.2 347.1H188.1C187.8 347.1 187.5 347 187.3 347C187.1 347 186.9 346.9 186.8 346.9C186.7 346.9 186.6 346.9 186.6 346.9C186.2 346.8 185.9 346.8 185.7 346.7C185.6 346.7 185.6 346.6 185.5 346.6C185.4 346.6 185.4 346.5 185.3 346.5L185.2 346.4C185.2 346.3 185.2 346.3 185.2 346.2C185.8 345.4 186.5 344.6 187.3 343.8C187.6 343.5 187.8 343.2 188.1 343C188.4 342.7 188.7 342.4 189 342.2C189.3 341.9 189.6 341.7 189.9 341.4C192 339.6 194.7 337.7 198.1 336.1C198.7 335.8 199.3 335.5 200 335.2C200.1 335.2 200.1 335.1 200.2 335.1C200.5 335 200.8 334.8 201.2 334.7C201.6 334.5 202.1 334.3 202.6 334.2C203 334 203.4 333.9 203.9 333.8C204.2 333.7 204.5 333.6 204.9 333.5C205.3 333.4 205.6 333.3 206 333.2C206.2 333.1 206.5 333.1 206.7 333C207 332.9 207.3 332.8 207.6 332.7C207.9 332.6 208.2 332.5 208.5 332.5C209.5 332.2 210.6 332 211.7 331.7C212.3 331.6 212.8 331.5 213.4 331.3C214.3 331.1 215.1 331 216.1 330.8C224.2 333.9 232.7 339.9 236.7 349.2Z" fill="#B6B1AE"/>
<path d="M151.2 346.001C150.5 346.001 149.7 346.001 149 346.101C135.3 346.301 109.2 347.701 106 347.701C104.7 347.701 103.6 347.601 103.2 347.301C102.7 346.901 103 346.101 104.6 344.401C104.7 344.301 104.8 344.201 104.9 344.101C105 344.001 105.1 343.901 105.2 343.801C105.4 343.601 105.7 343.301 105.9 343.101C107 342.101 123.2 329.601 136.6 330.101C142.3 333.701 148.1 339.201 151.2 346.001Z" fill="#B6B1AE"/>
<path d="M293.7 179.4C281.7 180.6 257.6 198.4 252.1 216.2C252.1 216.3 251.9 216.3 251.9 216.4C253.4 222.2 255.8 227.4 260.9 231.7C264.1 234.4 269.1 236.7 272.7 238.7C272.8 241.9 272.5 246.2 271.9 249.4C268.5 252.2 263.5 255.2 256.7 257.8C255.2 258.3 253.7 258.5 252.1 258.3C252 258.3 251.9 258.3 251.7 258.3C251.6 258.3 251.4 258.3 251.3 258.3C248.6 258 245.8 257.1 242.8 256.4C242.2 256.3 241.6 256.1 240.9 256C240.6 256 240.4 255.9 240.1 255.9C239.8 255.8 239.4 255.8 239.1 255.8H239C238.8 255.8 238.6 255.8 238.4 255.8C238.2 255.8 238 255.8 237.8 255.8C234.4 255.6 230.8 256.2 226.8 258.5C220.2 262.3 217.5 270.3 217.2 272.9C217 275.1 222.5 269.7 234.3 272.9C235 273.1 235.7 273.3 236.5 273.6C238 274.1 239.6 274.7 241.3 275.5C241.7 275.7 242.1 275.9 242.6 276.1C243 276.3 243.5 276.6 243.9 276.8C244.2 277 244.5 277.1 244.8 277.3C245.1 277.4 245.4 277.6 245.7 277.7C245.8 277.8 246 277.8 246.1 277.9C246.7 278.1 247.2 278.3 247.8 278.4C248 278.5 248.3 278.5 248.5 278.5C249.3 278.6 250 278.7 250.8 278.7C255.4 278.6 260.4 276.5 268.9 275.9H269C265.1 290.1 235.5 300.2 216.6 303.4C199.8 306.2 173 307.1 152.4 303.4C131.4 299.6 119.6 293.4 115.2 288.6C100.6 273 103 240.7 102.2 222.3C98.9 220.3 97.5 200.4 104.7 176.3C106.2 171.2 108.4 166.2 108.6 165C108.7 163.9 106.6 162.1 107.5 160C108.2 158.5 111.6 153.5 111.1 156.4C146 166.4 188.7 158.7 215.1 147.7C219 142.6 224.5 138.3 232.1 136.3C234.2 135.7 236.2 135.3 238.2 135C255.5 132.5 269.6 141.1 291.8 170.5C293.6 172.6 299.9 178.2 293.7 179.4Z" fill="#FFDB1F"/>
<path d="M122.6 190.7C128.2 191.2 133.2 191.4 138.1 191.9C142.1 192.3 143.1 195.2 142.8 197.9C142.4 201.6 140.2 204 136.5 205.2C136.3 205.3 136.1 205.3 135.7 205.4C139.4 207.9 139.3 212.7 141.6 217.1C138.6 216.9 136 216.7 133.2 216.6C131.9 213.8 130.8 211 129.9 208.3C129.4 206.8 128.7 205.7 126.5 206C125.8 209.2 125.3 212.5 125.4 216.1C122.8 215.9 120.4 215.8 117.9 215.7C117.5 207.2 120.9 198.9 122.6 190.7ZM129.1 196.4C128.7 198 128.3 199.6 127.8 201.4C129.5 201.4 131 201.5 132.6 201.4C134 201.3 134.9 200.4 135.2 199.2C135.5 197.9 135 196.9 133.6 196.7C132.2 196.4 130.7 196.4 129.1 196.4ZM160.9 193.1C157.9 191.9 154.8 191.8 151.6 192.6C148.2 193.4 145.9 195.9 145.1 198.9C144.4 201.7 145.4 204.1 148.3 205.6C149.8 206.4 151.5 206.9 153.1 207.5C153.9 207.8 154.7 208.1 155.5 208.5C156.4 209 156.9 209.8 156.7 210.9C156.5 212.1 155.7 212.8 154.6 213.2C152.2 214 149.9 212.7 149.4 210.2C149.3 209.7 149.3 209.3 149.2 208.8C146.8 208.8 144.6 208.8 142.4 208.8C141.8 212.9 143.9 216.3 147.3 217.6C149.9 218.6 152.6 218.9 155.4 218.5C157.1 218.3 159 217.6 160.5 216.6C165.2 213.5 166.7 206.4 161.2 203.4C160.3 202.9 159.4 202.5 158.5 202.2C156.8 201.6 155.2 201.1 153.5 200.5C152.6 200.2 151.9 199.8 152 198.5C152.7 197.1 153.8 196.7 155.1 196.8C157.1 197 158.1 198.1 158.1 200.2C160.4 200.2 162.7 200.2 165.2 200.1C165.3 196.5 164 194.3 160.9 193.1Z" fill="#2D1F04"/>
<path opacity="0.23" d="M183.9 341.5C183.8 341.6 183.8 341.7 183.7 341.9C183.6 342.1 183.4 342.4 183.1 342.6C182.9 342.8 182.6 343 182.3 343.2C182.1 343.3 182 343.4 181.8 343.5C181.3 343.7 180.8 343.9 180.2 344.1C178.9 344.5 177.5 344.8 176 345C175.8 345 175.5 345.1 175.3 345.1C175.1 345.1 174.8 345.2 174.6 345.2C174.4 345.2 174.1 345.3 173.9 345.3C172.2 345.5 170.6 345.5 169.3 345.6C169.1 345.6 169 345.6 168.8 345.6C168.7 345.6 168.6 345.6 168.5 345.6C168.4 345.6 168.2 345.6 168.1 345.6C167.7 345.6 167.4 345.6 167.2 345.6C166.9 345.6 166.6 345.6 166.3 345.6C166 345.6 165.7 345.6 165.4 345.6C164.6 345.6 163.7 345.7 162.9 345.7C162.2 345.7 161.6 345.8 160.9 345.8C160.4 345.8 159.9 345.8 159.5 345.9C158.4 345.9 157.3 346 156.2 346C154.6 346.1 153 346.1 151.5 346.1C150.8 346.1 150 346.1 149.3 346.2C135.6 346.4 109.5 347.8 106.3 347.8C106.1 347.8 105.9 347.8 105.7 347.8C105.6 347.8 105.4 347.8 105.3 347.8C105.2 347.8 105.2 347.8 105.1 347.8C105 347.8 105 347.8 104.9 347.8C104.7 347.8 104.5 347.8 104.4 347.7C104.3 347.7 104.3 347.7 104.2 347.7C104.1 347.7 104 347.7 104 347.6C104 347.6 104 347.6 103.9 347.6H103.8C103.7 347.6 103.7 347.6 103.7 347.5C103.6 347.5 103.6 347.4 103.6 347.4L103.5 347.3C103.4 347.2 103.4 347 103.4 346.8V346.7C103.4 346.6 103.5 346.5 103.5 346.4C103.5 346.4 103.5 346.4 103.5 346.3C103.5 346.3 103.5 346.2 103.6 346.2C103.6 346.1 103.7 346.1 103.7 346C103.8 345.9 103.8 345.8 103.9 345.7L104 345.6C104.1 345.5 104.3 345.3 104.4 345.1C104.5 345 104.6 344.9 104.6 344.8C104.7 344.7 104.8 344.6 104.9 344.5C105 344.4 105.1 344.3 105.2 344.2C105.3 344.1 105.4 344 105.5 343.9C105.7 343.7 106 343.4 106.2 343.2C106.2 343.2 106.2 343.2 106.3 343.1C106.3 343.1 106.3 343.1 106.4 343L106.5 342.9L106.6 342.8C106.8 342.6 107.1 342.4 107.5 342.1L107.6 342L107.7 341.9C109.9 340.3 114.2 337.3 119.4 334.7C119.5 334.6 119.7 334.6 119.8 334.5C120.8 334 121.9 333.5 122.9 333.1C123.1 333 123.2 333 123.4 332.9C123.5 332.9 123.5 332.9 123.5 332.8C124.1 332.6 124.7 332.3 125.4 332.1C126.3 331.8 127.2 331.5 128.1 331.2C128.4 331.1 128.7 331 128.9 331C129.7 330.8 130.5 330.6 131.4 330.4C131.5 330.4 131.5 330.4 131.6 330.4C131.6 330.4 131.6 330.4 131.7 330.4C131.9 330.4 132.1 330.3 132.4 330.3C132.5 330.3 132.6 330.3 132.7 330.3C132.8 330.3 132.8 330.3 132.9 330.3C133 330.3 133 330.3 133.1 330.3C133.3 330.3 133.5 330.2 133.7 330.2C133.8 330.2 133.9 330.2 134 330.2C134.3 330.2 134.7 330.1 135 330.1C135.4 330.1 135.8 330.1 136.1 330.1C136.3 330.1 136.6 330.1 136.8 330.1C136.7 330 136.5 329.8 136.3 329.6C135.7 329 135.1 328.2 134.5 327.4C129.7 320.4 125.8 307.3 127.8 300.7C138.8 310.5 158 316.8 177.1 317.9V318C177.4 322.2 179.6 328.9 182 334.9C182.4 336.1 182.9 337.2 183.3 338.2C183.5 338.6 183.7 339.1 183.8 339.5C184.1 340.3 184.1 341 183.9 341.5Z" fill="#3F2719"/>
<path opacity="0.23" d="M268.3 346.4C268.1 346.7 267.9 346.9 267.7 347.1C267.1 347.7 266.3 348.1 265.3 348.3C260.3 349.5 249.1 349.5 236.7 349.1C236.5 349.1 236.4 349.1 236.2 349.1C235.1 349.1 233.9 349 232.7 349C230.4 348.9 228.1 348.8 225.8 348.8C225.2 348.8 224.7 348.8 224.1 348.7C223.5 348.7 222.9 348.7 222.2 348.6C221.4 348.6 220.6 348.5 219.8 348.5C218.4 348.4 217 348.4 215.6 348.3C214.5 348.3 213.5 348.2 212.5 348.2C212.1 348.2 211.6 348.2 211.2 348.1H211.1C210.9 348.1 210.7 348.1 210.5 348.1C210 348.1 209.5 348.1 209.1 348C207.6 347.9 206.2 347.9 204.8 347.8C204.5 347.8 204.2 347.8 203.9 347.8C203.8 347.8 203.7 347.8 203.6 347.8C203.4 347.8 203.2 347.8 202.9 347.8C202.2 347.8 201.6 347.7 201 347.7C200.7 347.7 200.4 347.7 200.2 347.7C199.9 347.7 199.5 347.7 199.2 347.7C198.1 347.7 197.1 347.6 196.2 347.6C196 347.6 195.8 347.6 195.6 347.6C195.4 347.6 195.3 347.6 195.1 347.6C195 347.6 186.8 346.8 186.7 346.8C199.3 341.8 221.2 340.4 231.6 341H231.7C236.3 341.3 240 341.7 242 341.8C249 342.1 251.6 340.5 248.6 330.5C245.8 321.1 240.5 307.9 240.7 296.7C248 294.1 256.9 290.8 264.3 283.4C256.3 298.7 260.6 316.1 265.2 330.3C266.2 334.2 270.7 342.4 268.3 346.4Z" fill="#3F2719"/>
<path opacity="0.23" d="M215.1 311.7C218.2 309.7 224.4 305.8 226.3 303.2C189.3 319.6 154.3 312.1 133.8 305C152.7 315.6 168.2 318.2 182.8 318.2C197.4 318.1 206.9 315 215.1 311.7Z" fill="#3F2719"/>
<path opacity="0.23" d="M102.9 229.1C115.3 228.2 138.2 225.4 138.7 225.5C139.2 225.6 145.6 227.1 159.1 229.1C179.8 232.2 186.3 232.6 192.3 229.7C196.6 227.7 202.7 218.5 208.7 203.7C200.2 216.5 192.7 224.2 188.1 224.4C171.1 225.1 141.9 222.2 138.6 221.7C136.2 221.4 111 223.4 102.4 220.4" fill="#3F2719"/>
<path opacity="0.23" d="M269 275.6C268.5 276.7 267.9 278.1 267.5 279.2C264.1 288 240.5 300 205.3 304.7C181.6 307.9 162.7 306.6 144.1 300.8C193.9 309.3 233.2 294.4 236.8 290.8C238.7 288.9 239.7 282.3 240.4 274.8C242.2 275.7 244.1 276.6 245.6 277.4C251.5 280.5 260.2 275.6 269 275.6Z" fill="#3F2719"/>
<path opacity="0.23" d="M271.7 249.5C265.8 254.3 258.3 257.1 256.5 257.8C252 259.5 247 257.1 241.2 256.1C241.7 251.8 241.8 247.2 241.5 243.1C240.9 235.5 239.5 224 235.1 219.2C230.7 214.4 224.9 207.6 221.6 203.3C233 206 237.4 209.3 241.9 212.2C243.3 215.8 245.9 221.4 251.8 216.5C253.3 222.3 255.7 227.4 260.8 231.7C261.4 232.2 271.9 238.2 272.6 238.7C272.7 243.7 272.2 246 271.7 249.5Z" fill="#3F2719"/>
<path opacity="0.23" d="M293.9 179.4C291 180.8 287 181.3 284.5 182.8C280.2 185.1 279 173.8 265.8 158.5C253 143.8 233 134.4 221.5 141.3C224.5 139 228.1 137.2 232.3 136.1C239.1 134.3 245.3 133.8 251.4 135.3C263.5 138.2 275.6 148.6 292 170.4C293.7 172.6 299.6 176.7 293.9 179.4Z" fill="#3F2719"/>
<path opacity="0.23" d="M326.2 239.8C325.4 247.6 320.3 257.7 306 265.7C305.9 265.8 305.9 265.8 305.8 265.8C305.3 266.1 304.7 266.4 304.2 266.7C304.1 266.7 304.1 266.8 304 266.8C303 267.3 301.9 267.9 300.8 268.4C300.2 268.7 299.6 268.9 299 269.2C289.4 273.2 278.6 275 269.1 275.7C261.3 276.2 256.5 278.1 252.2 278.4C251.8 278.4 251.3 278.5 250.9 278.5C248.8 278.5 246.7 278 244.4 276.7C237.7 273 232.3 271.9 228.1 271.8C227.6 271.8 227 271.8 226.6 271.8C222.1 271.9 219.3 273.3 218.2 273.4C217.9 273.4 217.8 273.2 217.9 272.9C217.9 272.7 217.9 272.5 218 272.3C227.8 264.7 240.6 269.4 246.5 271.5C253.1 273.9 254.2 270 260 269.5C265.8 269 281.5 269.5 296.8 263.3C312.1 257.1 316.2 242.5 316 237C315.8 231.4 303.8 211 299.7 208C298.1 198.6 293.5 190.2 287.1 183.3C289.3 182 291.8 180.8 294.4 179.6C294.4 179.6 294.5 179.6 294.5 179.5C295.2 179.3 295.7 179.1 296 178.8C313.2 199.5 327 231.9 326.2 239.8Z" fill="#3F2719"/>
<path opacity="0.23" d="M105.8 144.101C108.1 145.601 108.5 148.601 108.3 151.301C108.1 154.001 104.9 157.001 105.2 160.901C105.6 164.801 96.6 180.801 101.5 188.701C102.8 182.701 104.9 174.901 106.5 170.701C108.1 166.501 108.8 165.801 108.6 164.601C108.4 163.401 107.1 162.201 107.3 160.901C107.5 159.601 109 156.501 110.9 155.101C111.5 151.801 112 145.301 112.2 141.101C108.7 142.201 107.6 142.901 105.8 144.101Z" fill="#3F2719"/>
<path d="M284.8 247.601L284.7 253.801" stroke="#9D7B51" stroke-width="4.1072" stroke-miterlimit="10" stroke-linecap="round" stroke-linejoin="round"/>
<path d="M278.4 252.501L278.3 258.701" stroke="#9D7B51" stroke-width="4.1072" stroke-miterlimit="10" stroke-linecap="round" stroke-linejoin="round"/>
<path d="M111.1 156.1C111.6 153.3 108.1 158.3 107.5 159.7C106.5 161.7 108.7 163.6 108.6 164.7C108.5 166 106.3 170.9 104.7 176C97.2 200.2 98.8 220.1 102.2 222C103.2 242.8 100.3 270.8 115.2 288.3C125.7 300.7 182.6 308.9 216.6 303.1C235.6 299.9 265.4 289.9 269.1 275.6" stroke="#2D1F04" stroke-width="2.7806" stroke-miterlimit="10" stroke-linecap="round" stroke-linejoin="round"/>
<path d="M215.1 311.7C189.7 324.4 143.8 317.8 126.3 299.3C124.2 297.1 120.6 292.9 120.2 292.3" stroke="#2D1F04" stroke-width="2.7806" stroke-miterlimit="10" stroke-linecap="round" stroke-linejoin="round"/>
<path d="M111.1 156.1C145.7 166 188.9 159.1 215.1 147.4" stroke="#2D1F04" stroke-width="2.7806" stroke-miterlimit="10" stroke-linecap="round" stroke-linejoin="round"/>
<path d="M195.8 163.8C174.7 171.9 124.2 174 109.4 164.3" stroke="#2D1F04" stroke-width="2.7806" stroke-miterlimit="10" stroke-linecap="round" stroke-linejoin="round"/>
<path d="M118.1 158.4C117.5 160.2 116.9 161.5 116.9 163.5" stroke="#2D1F04" stroke-width="2.7806" stroke-miterlimit="10" stroke-linecap="round" stroke-linejoin="round"/>
<path d="M129.1 160.601C128.3 162.201 128.1 164.401 128.1 166.201" stroke="#2D1F04" stroke-width="2.7806" stroke-miterlimit="10" stroke-linecap="round" stroke-linejoin="round"/>
<path d="M141.5 161.8V166.7" stroke="#2D1F04" stroke-width="2.7806" stroke-miterlimit="10" stroke-linecap="round" stroke-linejoin="round"/>
<path d="M152.6 161.7V162.4V162.9V163.6V164.1V164.6V165.1" stroke="#2D1F04" stroke-width="2.7806" stroke-miterlimit="10" stroke-linecap="round" stroke-linejoin="round"/>
<path d="M146.3 162.3V162.8V163.3V163.8V164.2V164.7" stroke="#2D1F04" stroke-width="2.7806" stroke-miterlimit="10" stroke-linecap="round" stroke-linejoin="round"/>
<path d="M183.8 157.9V158.4V158.9V159.8V160.3" stroke="#2D1F04" stroke-width="2.7806" stroke-miterlimit="10" stroke-linecap="round" stroke-linejoin="round"/>
<path d="M189.4 156.8V157.6V158.3V158.8" stroke="#2D1F04" stroke-width="2.7806" stroke-miterlimit="10" stroke-linecap="round" stroke-linejoin="round"/>
<path d="M187.4 346.2C195.5 342.1 205.3 339.2 215 338C219.2 337.5 223.4 337.3 227.4 337.5" stroke="#2D1F04" stroke-width="2.7806" stroke-miterlimit="10" stroke-linecap="round" stroke-linejoin="round"/>
<path d="M105.2 346.301C110.4 342.001 133.8 333.301 142.5 334.801" stroke="#2D1F04" stroke-width="2.7806" stroke-miterlimit="10" stroke-linecap="round" stroke-linejoin="round"/>
<path d="M216 330.601C224.5 334.001 232.7 340.401 236.7 348.501" stroke="#2D1F04" stroke-width="2.7806" stroke-miterlimit="10" stroke-linecap="round" stroke-linejoin="round"/>
<path d="M136.8 330C142.5 333.8 147.7 338.3 150.7 344.2" stroke="#2D1F04" stroke-width="2.7806" stroke-miterlimit="10" stroke-linecap="round" stroke-linejoin="round"/>
<path d="M250.7 278.4C248.5 278.4 246.3 278 243.8 276.6C225.5 266.6 217 275.4 217.2 272.7C217.5 270 220.1 262.1 226.8 258.3C237 252.4 245.1 257.8 252.1 258.3C248.5 262.9 245 269.8 250.7 278.4Z" fill="#B6B1AE"/>
<path d="M251.7 216.001C253.2 222.001 255.6 227.301 260.8 231.701C266.2 236.201 277.2 239.901 276.9 242.601C276.4 246.201 269.8 252.901 256.6 257.801C248.6 260.801 239.2 251.201 226.8 258.301C220.2 262.101 217.5 270.101 217.2 272.701C216.9 275.401 225.5 266.501 243.8 276.601C251.4 280.801 256.2 276.501 268.8 275.601C278.3 275.001 289.1 273.201 298.7 269.101C318.5 260.701 325.3 248.701 326.2 239.601C327 231.701 313.3 199.501 295.9 178.601" stroke="#2D1F04" stroke-width="2.7806" stroke-miterlimit="10" stroke-linecap="round" stroke-linejoin="round"/>
<path d="M252.1 216.2C246.1 220.8 244.6 217.3 241.9 211.8" stroke="#2D1F04" stroke-width="2.7806" stroke-miterlimit="10" stroke-linecap="round" stroke-linejoin="round"/>
<path d="M220.7 203C224.3 203.8 229.9 205.8 234.2 207.8C238 209.5 240.7 211.3 242.1 212.2" stroke="#2D1F04" stroke-width="2.7806" stroke-miterlimit="10" stroke-linecap="round" stroke-linejoin="round"/>
<path d="M234.2 207.8C231.8 204.7 229 200.5 225.7 198.3" stroke="#2D1F04" stroke-width="2.7806" stroke-miterlimit="10" stroke-linecap="round" stroke-linejoin="round"/>
<path d="M256.6 206.8C269.6 188.7 285 181.5 293.7 179.4C299.8 178.2 293.5 172.6 291.7 170.3C269.5 140.9 255.4 132.3 238.1 134.7C236.1 135 234.1 135.4 232 136C221.2 138.9 214.7 146.3 210.8 154.2C208.5 158.8 207.2 163.6 206.4 167.7" stroke="#2D1F04" stroke-width="2.7806" stroke-miterlimit="10" stroke-linecap="round" stroke-linejoin="round"/>
<path d="M242.9 211.6C247.1 198.3 258.8 182.8 274.9 177" stroke="#2D1F04" stroke-width="2.7806" stroke-miterlimit="10" stroke-linecap="round" stroke-linejoin="round"/>
<path d="M247.4 203.101C248.7 204.301 249.9 205.001 251.5 205.801" stroke="#2D1F04" stroke-width="2.7806" stroke-miterlimit="10" stroke-linecap="round" stroke-linejoin="round"/>
<path d="M253.3 194.7L256.6 197.3" stroke="#2D1F04" stroke-width="2.7806" stroke-miterlimit="10" stroke-linecap="round" stroke-linejoin="round"/>
<path d="M259.5 187.601L262.2 190.801" stroke="#2D1F04" stroke-width="2.7806" stroke-miterlimit="10" stroke-linecap="round" stroke-linejoin="round"/>
<path d="M202.4 316.101C204.7 322.801 209.4 328.301 216 330.601C197 333.901 189.7 340.601 185.2 346.201C184.6 347.401 199.4 347.801 215.7 348.501C234.6 349.201 257.6 350.201 265.4 348.401C273.2 346.601 266.6 335.101 265.1 330.501C260 314.901 256.6 299.201 264.2 283.601" stroke="#2D1F04" stroke-width="2.7806" stroke-miterlimit="10" stroke-linecap="round" stroke-linejoin="round"/>
<path d="M127.7 300.801C125.5 308.301 131 324.401 136.7 330.001C123.2 329.601 107.1 342.001 106 343.001C101.3 347.301 102.8 347.601 106 347.601C109.2 347.601 135.3 346.301 149 346.001C154.6 345.901 161.4 345.601 167 345.401C170.4 345.301 186.3 345.201 183.8 339.401C180.9 332.601 177.4 323.201 177 317.901" stroke="#2D1F04" stroke-width="2.7806" stroke-miterlimit="10" stroke-linecap="round" stroke-linejoin="round"/>
<path d="M217.2 272.699C223.9 263.299 235.8 261.799 243.8 263.899" stroke="#2D1F04" stroke-width="2.7806" stroke-miterlimit="10" stroke-linecap="round" stroke-linejoin="round"/>
<path d="M252.1 258.3C248.5 262.9 245 269.8 250.7 278.4" stroke="#2D1F04" stroke-width="2.7806" stroke-miterlimit="10" stroke-linecap="round" stroke-linejoin="round"/>
<path d="M133.8 97.2002C133 98.0002 131.9 98.9002 130.1 98.8002" stroke="#2D1F04" stroke-width="2.7806" stroke-miterlimit="10" stroke-linecap="round" stroke-linejoin="round"/>
<path d="M105.8 70.5004C106.3 75.1004 109.8 75.4004 114.5 75.7004C120 76.0004 125.7 73.1004 125.7 68.5004C125.6 63.2004 120.8 61.4004 113.8 62.1004C108 62.6004 105.2 65.3004 105.8 70.5004Z" fill="white"/>
<path d="M105.7 69.8009C107.6 65.6009 111 65.0009 116.3 65.6009C121.3 66.1009 123.6 67.3009 125.5 69.9009C126.7 63.4009 120.8 61.7009 113.8 62.1009C108.5 62.3009 105.6 64.9009 105.7 69.8009Z" fill="#D3E5EA"/>
<path d="M115.7 69.9002C115.7 67.3002 113.6 65.2002 111 65.2002C108.4 65.2002 106.3 67.3002 106.3 69.9002C106.3 72.5002 108.4 74.6002 111 74.6002C113.6 74.6002 115.7 72.5002 115.7 69.9002Z" fill="#2D1F04"/>
<path d="M105.8 70.5C106.5 75 109.9 75.4 114.5 75.7C120.1 76.1 125.6 73.1 125.7 68.5C125.7 63.2 120.8 61.5 113.8 62.1C108.1 62.5 104.9 64.7 105.8 70.5Z" stroke="#2D1F04" stroke-width="2.62" stroke-miterlimit="10" stroke-linecap="round" stroke-linejoin="round"/>
<path d="M114.5 69.9002C115.66 69.9002 116.6 68.96 116.6 67.8002C116.6 66.6404 115.66 65.7002 114.5 65.7002C113.34 65.7002 112.4 66.6404 112.4 67.8002C112.4 68.96 113.34 69.9002 114.5 69.9002Z" fill="white"/>
<path d="M113.7 72.1C114.142 72.1 114.5 71.7418 114.5 71.3C114.5 70.8582 114.142 70.5 113.7 70.5C113.258 70.5 112.9 70.8582 112.9 71.3C112.9 71.7418 113.258 72.1 113.7 72.1Z" fill="white"/>
<path d="M119 76.4003C118.6 73.7003 122.2 70.8003 127 69.9003C131.8 69.0003 136.1 70.5003 136.5 73.2003C136.9 75.9003 133.3 78.8003 128.5 79.7003C123.7 80.6003 119.5 79.1003 119 76.4003Z" fill="#251707"/>
<path d="M130.1 49.8001C121 44.3001 113.1 45.2001 102.4 59.1001" stroke="#2D1F04" stroke-width="7.6" stroke-miterlimit="10" stroke-linecap="round" stroke-linejoin="round"/>
<path d="M272.6 238.601C272.9 242.201 272.6 245.801 271.8 249.501" stroke="#2D1F04" stroke-width="2.7806" stroke-miterlimit="10" stroke-linecap="round" stroke-linejoin="round"/>
</g>
<defs>
<clipPath id="clip0_281_2969">
<rect width="328" height="351" fill="white"/>
</clipPath>
</defs>
</svg>
