<svg width="407" height="291" viewBox="0 0 407 291" fill="none" xmlns="http://www.w3.org/2000/svg">
<g clip-path="url(#clip0_281_2426)">
<path d="M302.7 167.3C317.2 180.2 346.3 195.7 369.9 223.6C358.7 248 315.9 246.8 310.5 252.3C302.7 260.4 302.7 274.8 298.3 289.4C259.1 289.4 115.3 289.4 104.8 289.4C102.8 285.2 101.1 279.5 102.1 269.8C102.2 269.1 102.3 268.3 102.4 267.5C104.4 254.6 108.7 240.7 117.2 224.4C117.4 224 117.6 223.7 117.8 223.3C117.9 223.1 118 222.9 118.1 222.7C118.5 222.1 118.8 221.4 119.1 220.7C119.2 220.4 119.4 220.2 119.6 219.9C119.7 219.8 119.7 219.7 119.8 219.5C119.9 219.4 119.9 219.2 120 219.1C120.1 219 120.2 218.8 120.2 218.7C120.3 218.6 120.4 218.4 120.4 218.3C120.3 217.8 120.1 217.3 120 216.9C120 216.7 119.9 216.6 119.9 216.4C119.8 215.7 119.7 214.9 119.6 214.1C119.5 213.1 119.5 212 119.6 210.9C120.1 197.2 128.4 178.8 128.6 177.8C128.8 176.7 126.8 174.7 127.9 172.6C128.5 171.6 130.9 168.5 131.7 168.4C131.8 168.5 131.8 168.7 131.7 169.1C131.8 169.1 131.8 169.1 131.9 169.2C132.9 169.6 133.9 169.9 135 170.3C134.8 171 134.7 171.6 134.5 172.1C134.7 171.6 134.8 171 135 170.3C135.8 170.6 136.7 170.9 137.6 171.2C138 171.3 138.4 171.5 138.9 171.6C139.3 171.7 139.7 171.8 140.1 172C146.2 173.9 153.7 175.8 162.5 177.3C162.7 177.3 163 177.4 163.2 177.4C163.6 177.5 164 177.5 164.4 177.6C170.1 178.6 174.7 179.2 179.7 179.5C179.8 179.5 179.9 179.5 180 179.5C183 179.7 186.2 179.9 190 180C208.5 180.6 222 178.1 224.9 177.5C225.3 177.4 225.7 177.3 226.1 177.2C235.6 174.2 242.8 171.2 249.7 167.7C253.6 165.8 258.1 162.7 262.3 160.5C262.5 160.4 262.7 160.3 262.8 160.2C269.6 156.6 276.9 155.9 282 156.6C295.5 159.1 302.7 167.3 302.7 167.3Z" fill="#CAA77A"/>
<path d="M91.2 199.2C80.6 205.4 59.3 219.6 46.2 238.5C51.3 253 57.3 260.8 66.7 264.4C82.4 270.4 102.5 263.1 109.1 255.6C130.9 230.8 138.6 220.5 130.9 206.6C123.2 192.6 102.3 189.9 91.2 199.2Z" fill="#CAA77A"/>
<path d="M136.7 163.4C136 166.3 135.1 169.8 134.5 172C133.7 172 130.8 174.7 130.1 175.6C128.7 177.4 130.4 179.8 130 180.8C129.7 181.7 124.6 204.3 121 216.8C113.2 212.8 95.5 203.9 92 199.9C91.7 199.6 91.5 199.4 91.3 199.1C90.5 198.2 89.7 193.4 93.3 191.3C93.8 190.2 94.3 189 94.9 187.7C105.6 164.7 121.1 158.3 136.7 163.4Z" fill="#FFDB1F"/>
<path opacity="0.23" d="M136.7 163.4C136 166.3 135.1 169.8 134.5 172C133.7 172 130.9 174.7 130.1 175.6C128.7 177.4 130.4 179.8 130 180.8C129.7 181.7 124.6 204.3 121 216.8C117.8 215.1 112.8 212.6 107.8 209.9C110.5 210.7 113.5 210.7 114.1 208.7C114.9 206.1 115.1 203.3 113.3 202.5C115.8 202.4 118.7 191.6 120.5 186.2C122.2 181.2 127.9 165.7 135 162.9C135.6 163.1 136.2 163.2 136.7 163.4Z" fill="#3F2719"/>
<path d="M286.1 167.4C279.5 169.1 273.5 171.1 265.2 173.1C252.2 176.2 240.1 180.3 227 181.5C224.1 181.8 210.6 180.7 192.1 179.9C180.1 179.4 171.6 178.4 161.3 176.8C148.3 174.8 141.2 172 132.1 168.9C132.3 168.3 135.8 161.4 135.5 161.4C136.1 159.2 136.9 155.7 137.5 152.8C138.1 150 138.5 147.5 138.3 147.3C137.5 147.3 136.8 147.9 136.4 148.7C135.1 144.4 138.7 141.8 138.9 139.6C138.9 139.1 137.6 139.5 136.5 141C136.8 137.7 138.2 137 138.3 135.8C138.4 133.4 137.4 130.7 136.8 128.4C129.7 102.4 116.6 52.1002 158 26.8002C156.3 23.1002 151.2 24.0002 151.2 23.9002C152.1 19.2002 160.7 15.7002 170.8 18.9002C171.2 18.5002 168.2 14.0002 173 9.7002C172.9 13.6002 175.6 17.9002 176.8 16.1002C181.1 6.3002 188.7 1.9002 198.3 2.0002C194.9 4.0002 192.5 9.2002 193 14.4002C193 14.4002 197.2 8.6002 200.9 7.8002C196.6 13.2002 199 16.9002 200.8 17.7002C202.2 18.4002 209.1 16.3002 209.5 13.2002C211.2 14.2002 210.1 17.8002 224.8 26.1002C286.8 61.5002 293.7 128.3 286.1 167.4Z" fill="#CAA77A"/>
<path d="M194.7 255.5C194.6 255.3 194.4 255 194.3 254.8Z" fill="#B6B1AE"/>
<path d="M133 66.6002C136.4 57.7002 139.8 52.3002 155.5 45.4002C164.4 41.5002 194.3 41.7002 189.5 32.7002C199.4 35.2002 205.5 45.0002 214.2 46.1002C223.3 47.2002 242.9 55.1002 255.3 78.1002C257.8 82.7002 266.5 121.2 235.2 137C211.3 149.1 159.9 152.8 140.8 121.5C131.8 106.9 127.9 83.3002 133 66.6002Z" fill="#FFDBAF"/>
<path d="M179.7 70.4003C172.5 65.7003 164.3 84.1003 163 89.5003C159.7 103.4 163.6 111.2 171.5 114.7C179.4 118.2 190.1 118.1 198.7 113.9C220.6 103.4 203.1 67.1003 189.1 70.8003" fill="#9D7B51"/>
<path d="M131.9 96.9004C145.5 97.4004 179.4 86.0004 167.6 43.4004C158.3 43.5004 149.4 45.6004 137.9 53.6004C129.2 67.8004 129.5 84.0004 131.9 96.9004Z" fill="#9D7B51"/>
<path d="M210.5 48.6001C189.6 109.7 255.8 113 255.8 113C255.8 113 264 90.2001 252.4 70.9001C245.3 59.2001 228.7 49.5001 210.5 48.6001Z" fill="#9D7B51"/>
<path d="M156 151.9L155.5 158.2" stroke="#9D7B51" stroke-width="3.87" stroke-miterlimit="10" stroke-linecap="round" stroke-linejoin="round"/>
<path d="M149.3 154.601L148.8 161.001" stroke="#9D7B51" stroke-width="3.87" stroke-miterlimit="10" stroke-linecap="round" stroke-linejoin="round"/>
<path opacity="0.23" d="M152.5 22.5C152.4 22.5 152.2 22.6 152.2 22.6C152.1 22.6 152.1 22.7 152.1 22.8" fill="#3F2719"/>
<path d="M174.2 70.1001C174.4 67.5001 179.3 65.7001 185.3 66.1001C191.2 66.5001 195.9 68.9001 195.7 71.5001C195.5 74.1001 190.6 75.9001 184.6 75.5001C178.6 75.1001 174 72.7001 174.2 70.1001Z" fill="#251707"/>
<path d="M131.8 168.3C134.5 161.8 138.7 147.8 138.3 147.5C137.5 147.5 136.8 148.1 136.4 149C135.1 144.7 138.7 142.1 138.9 139.9C138.9 139.4 137.6 139.8 136.5 141.3C136.8 138 138.2 137.3 138.3 136.1C138.4 133.7 137.4 131 136.8 128.7C129.6 102.7 116.6 52.4 158 27.1C156.3 23.4 151.2 24.3 151.2 24.2C152.1 19.5 160.7 16 170.8 19.2C171.2 18.8 168.2 14.3 173 10C172.9 13.9 175.6 18.2 176.8 16.4C181.1 6.6 188.7 2.20001 198.3 2.30001C194.9 4.30001 192.5 9.5 193 14.7C193 14.8 197.2 8.9 200.9 8.1C196.3 12.8 198.8 17.1 200.6 18C202 18.7 209.1 16.7 209.5 13.6C211.2 14.6 210.1 18.2 224.8 26.5C287.2 61.6 293.9 128.4 286.2 167.5" stroke="#2D1F04" stroke-width="2.62" stroke-miterlimit="10" stroke-linecap="round" stroke-linejoin="round"/>
<path d="M183.7 75C182.7 79.3 182.8 85.2 184.3 91.5C184.3 98.4 171.1 104.3 167.4 94" stroke="#2D1F04" stroke-width="2.62" stroke-miterlimit="10" stroke-linecap="round" stroke-linejoin="round"/>
<path opacity="0.23" d="M169.9 246.2C169.7 246.1 169.6 246 169.4 245.9Z" fill="#3F2719"/>
<path opacity="0.23" d="M286.1 167.4C280.2 169 270.7 171.7 265.2 173.1C272.3 143.7 273.6 97.8 256.3 67.5C244.1 46.1 226.1 35.2 209.7 30.5C208.3 30.1 206.1 27.3 204 27.2C204.1 28.3 203.2 29 202.1 28.8C200.6 28.5 197.6 27.2 198.7 24.5C195.7 24.3 194.2 27.7 192.5 27.5C190.8 27.4 188.9 23.2 185.1 22.9C186.6 26.2 183.3 28 181.1 28.4C178.4 28.9 177.1 27.4 178 25.9C175.3 25.7 174 28 168.2 29.5C159.2 31.8 146.9 36.8 137.3 48C143.2 37.8 151.4 31 157.9 27.1C156.2 23.4 151.1 24.3 151.1 24.2C152 19.5 160.6 16 170.7 19.2C171.1 18.8 168.1 14.3 172.9 10C172.8 13.9 175.5 18.2 176.7 16.4C181 6.6 188.6 2.20001 198.2 2.30001C194.8 4.30001 192.4 9.5 192.9 14.7C192.9 14.7 197.1 8.9 200.8 8.1C196.5 13.3 198.9 17.2 200.6 18C202 18.7 208.9 16.6 209.3 13.5C211 14.5 209.9 18.1 224.6 26.4C286.8 61.5 293.7 128.3 286.1 167.4Z" fill="#3F2719"/>
<path d="M171.8 44.3003C143.2 45.3003 127.1 67.4003 127.1 67.4003" stroke="#2D1F04" stroke-width="7.6" stroke-miterlimit="10" stroke-linecap="round" stroke-linejoin="round"/>
<path d="M208.9 45.1001C247.5 53.2001 257.5 77.1001 257.5 77.1001" stroke="#2D1F04" stroke-width="7.6" stroke-miterlimit="10" stroke-linecap="round" stroke-linejoin="round"/>
<path d="M135.6 75.1001C136.9 80.2001 142.8 77.1001 149 76.7001C156 76.3001 163 78.7001 161.9 70.7001C161.1 64.8001 154.8 62.9001 145.8 63.4001C136.8 63.9001 133.9 68.6001 135.6 75.1001Z" fill="white"/>
<path d="M135.3 73.8001C137.5 68.1001 142.8 66.8001 149.7 67.4001C157 68.1001 160.5 70.6001 161.8 74.2001C162 73.1001 162.1 72.0001 161.9 70.7001C161.1 64.8001 154.8 62.9001 145.8 63.4001C137.4 64.0001 134.3 68.1001 135.3 73.8001Z" fill="#D3E5EA"/>
<path d="M155.3 71.6001C155 68.3001 152.2 65.9001 148.9 66.2001C145.6 66.5001 143.2 69.3001 143.5 72.6001C143.8 75.9001 146.6 78.3001 149.9 78.0001C153.1 77.7001 155.6 74.8001 155.3 71.6001Z" fill="#2D1F04"/>
<path d="M135.6 75.1001C136.9 80.2001 142.8 77.3001 149 76.7001C156.1 76.0001 163 78.8001 161.9 70.7001C161.1 64.8001 154.8 62.9001 145.8 63.4001C136.8 63.9001 133.9 68.6001 135.6 75.1001Z" stroke="#2D1F04" stroke-width="2.62" stroke-miterlimit="10" stroke-linecap="round" stroke-linejoin="round"/>
<path d="M145.3 71.4002C146.736 71.4002 147.9 70.2361 147.9 68.8002C147.9 67.3643 146.736 66.2002 145.3 66.2002C143.864 66.2002 142.7 67.3643 142.7 68.8002C142.7 70.2361 143.864 71.4002 145.3 71.4002Z" fill="white"/>
<path d="M242.1 77.1004C240.9 82.3004 234.9 79.2004 228.8 78.9004C221.8 78.6004 214.8 81.1004 215.8 73.1004C216.5 67.2004 222.8 65.2004 231.8 65.6004C240.7 66.1004 243.7 70.7004 242.1 77.1004Z" fill="white"/>
<path d="M242.3 75.9005C240 70.3005 234.7 69.0005 227.8 69.8005C220.5 70.6005 217 73.2005 215.8 76.7005C215.6 75.6005 215.5 74.5005 215.7 73.2005C216.4 67.3005 222.7 65.3005 231.7 65.7005C240.1 66.1005 243.2 70.1005 242.3 75.9005Z" fill="#D3E5EA"/>
<path d="M223.9 73.9003C224.1 70.6003 226.9 68.2003 230.2 68.4003C233.5 68.6003 235.9 71.4003 235.7 74.7003C235.5 78.0003 232.7 80.4003 229.4 80.2003C226.2 79.9003 223.7 77.1003 223.9 73.9003Z" fill="#2D1F04"/>
<path d="M242.1 77.1004C240.9 82.2004 234.9 79.4004 228.8 78.9004C221.7 78.3004 214.8 81.2004 215.8 73.1004C216.5 67.2004 222.8 65.2004 231.8 65.6004C240.7 66.1004 243.7 70.7004 242.1 77.1004Z" stroke="#2D1F04" stroke-width="2.62" stroke-miterlimit="10" stroke-linecap="round" stroke-linejoin="round"/>
<path d="M225.6 74.0003C227.036 74.0003 228.2 72.8362 228.2 71.4003C228.2 69.9643 227.036 68.8003 225.6 68.8003C224.164 68.8003 223 69.9643 223 71.4003C223 72.8362 224.164 74.0003 225.6 74.0003Z" fill="white"/>
<path d="M282 156.6C282 156.5 282 156.5 282 156.6C276.9 155.9 269.6 156.6 262.8 160.2C262.6 160.3 262.4 160.4 262.3 160.5C258.2 162.8 253.6 165.8 249.7 167.7C242.8 171.1 235.6 174.2 226.1 177.2C225.7 177.3 225.3 177.4 224.9 177.5C222.1 178.1 208.6 180.6 190 180C186.2 179.9 183 179.7 180 179.5C179.9 179.5 179.8 179.5 179.7 179.5C174.6 179.1 170.1 178.6 164.4 177.6C164 177.5 163.6 177.5 163.2 177.4C163 177.4 162.7 177.3 162.5 177.3C153.8 175.8 146.2 173.9 140.1 172C139.7 171.9 139.3 171.8 138.9 171.6C138.5 171.5 138 171.3 137.6 171.2C136.7 170.9 135.9 170.6 135 170.3C134.8 171 134.7 171.6 134.5 172.1C134.7 171.6 134.8 171 135 170.3C133.9 169.9 132.9 169.6 131.9 169.2C131.8 169.2 131.8 169.2 131.7 169.1C131.8 168.7 131.8 168.5 131.7 168.4C130.9 168.5 128.5 171.6 127.9 172.6C126.7 174.6 128.8 176.7 128.6 177.8C128.4 178.8 120.2 197.2 119.6 210.9C119.6 212 119.6 213.1 119.6 214.1C119.6 214.9 119.7 215.7 119.9 216.4C119.9 216.6 120 216.7 120 216.9C120.1 217.4 120.2 217.9 120.4 218.3C120.3 218.4 120.2 218.6 120.2 218.7C120.1 218.8 120 219 120 219.1C119.9 219.2 119.9 219.4 119.8 219.5C119.7 219.6 119.7 219.7 119.6 219.9C119.5 220.2 119.3 220.5 119.1 220.7C118.7 221.4 118.4 222 118.1 222.7C118 222.9 117.9 223.1 117.8 223.3C117.6 223.7 117.4 224 117.2 224.4C108.8 240.7 104.4 254.6 102.4 267.5C102.3 268.3 102.2 269 102.1 269.8C101.1 279.5 102.9 285.3 104.8 289.4C115.3 289.4 259.2 289.4 298.3 289.4C300.5 282 302.9 271.5 310.7 263.4C313.1 261 319.2 263.2 330.3 260.6C334.8 259.5 325.1 244.7 319.9 230.2C314 213.8 317.1 199.4 324.1 181.2C313 170.4 295.5 159.1 282 156.6Z" fill="#FFDB1F"/>
<path d="M142 210C149.7 210.8 156.9 211.4 164.1 212.2C170 212.9 172.1 216.9 171.2 220.5C169.9 225.5 165.1 228.5 158.6 229.6C158.3 229.7 157.9 229.7 157.2 229.8C162 233.6 159.7 239.8 164.7 245.9C159.4 245.2 154.7 244.6 149.8 243.9C147.5 240.1 146.7 236.4 146.6 232.8C146.6 230.8 146.1 229.3 142.6 229.5C139.6 233.5 136.9 237.7 136.6 242.3C132.4 241.8 128.9 241.5 125.4 241.2C128.8 229.1 139.7 222.5 142 210ZM151.1 217.3C150.1 219.4 148.9 221.2 147.2 223.5C149.6 223.7 152 223.9 154.5 223.9C156.7 223.9 158.5 222.9 159.4 221.3C160.4 219.7 159.8 218.3 157.8 217.9C155.7 217.6 153.4 217.6 151.1 217.3Z" fill="#2D1F04"/>
<path d="M203.4 225.4C200 225.3 196.8 225.1 193.4 225C193.7 222 192.1 220.2 189.3 219.9C187.5 219.7 185.9 220.1 184.7 222.1C184.3 223.8 185.3 224.5 186.6 225C188.9 225.9 191.3 226.8 193.6 227.7C194.9 228.2 196.1 228.9 197.2 229.6C204.3 234.2 201 243.5 195.3 247.3C193.4 248.6 191 249.3 188.4 249.4C184.2 249.6 179.4 248.9 174.5 247.2C168.1 245 164.2 240.2 166.6 234.9C170.3 235.2 174 235.5 177.8 235.8C177.8 236.5 177.8 237.1 177.8 237.7C178.2 241 182.2 243.1 185.9 242.2C187.6 241.8 188.8 240.9 189.2 239.4C189.6 238 189 236.8 187.7 236.1C186.6 235.5 185.5 235 184.3 234.5C181.9 233.5 179.4 232.6 177.3 231.4C173.2 229 172.6 225.7 174.3 222C176.2 217.9 179 214.6 183.5 213.5C187.7 212.5 192.2 212.7 196.8 214.6C201.7 216.5 204.3 220.1 203.4 225.4Z" fill="#2D1F04"/>
<path opacity="0.23" d="M111.7 236.5C115.6 232.5 120.1 230.2 122.3 229C127.1 226.5 132.8 226.7 137.8 227.8C151.4 230.8 175.6 240.6 189.5 243.5C214.8 248.9 237.8 241.2 235.4 237.2C233.4 233.8 194.4 240.4 180.4 234.3C168 228.9 148 226.5 135 223.3C131.9 222.5 121.8 219.1 119.5 214.1C119.4 216.2 119.8 216.9 120.4 218.1C119.1 220.5 116.4 224.9 111.7 236.5Z" fill="#3F2719"/>
<path d="M131.9 169.2C132.1 168.5 132 168.3 131.7 168.3C130.9 168.4 128.5 171.5 127.9 172.5C126.8 174.5 128.8 176.6 128.6 177.7C128.4 178.9 116.3 205.7 120.5 218.7" stroke="#2D1F04" stroke-width="2.62" stroke-miterlimit="10" stroke-linecap="round" stroke-linejoin="round"/>
<path d="M129.2 177.1C135.1 181.7 146.9 184.8 159.4 187.3C176.5 190.6 201 193 228.3 188.4" stroke="#2D1F04" stroke-width="2.62" stroke-miterlimit="10" stroke-linecap="round" stroke-linejoin="round"/>
<path d="M138.5 171.9C137.8 173.7 137 175 136.9 177" stroke="#2D1F04" stroke-width="2.62" stroke-miterlimit="10" stroke-linecap="round" stroke-linejoin="round"/>
<path d="M149.5 175C148.5 176.6 148.2 178.8 148.1 180.6" stroke="#2D1F04" stroke-width="2.62" stroke-miterlimit="10" stroke-linecap="round" stroke-linejoin="round"/>
<path d="M203.9 181V181.5V182L203.8 183L203.7 183.4" stroke="#2D1F04" stroke-width="2.62" stroke-miterlimit="10" stroke-linecap="round" stroke-linejoin="round"/>
<path d="M207.6 181.3V182L207.5 182.7V183.2" stroke="#2D1F04" stroke-width="2.62" stroke-miterlimit="10" stroke-linecap="round" stroke-linejoin="round"/>
<path d="M97 203.8C94.7 202.3 92.8 201 91.9 199.9C91.6 199.6 91.4 199.4 91.2 199.1C90.4 198.2 89.6 193.6 93.2 191.3C93.7 190.2 94.2 189 94.8 187.7C104.5 166.8 118.1 159.6 132.2 162.2" stroke="#2D1F04" stroke-width="2.62" stroke-miterlimit="10" stroke-linecap="round" stroke-linejoin="round"/>
<path d="M93.2 191.4C97.9 194.6 106.7 199.8 115.9 203.7" stroke="#2D1F04" stroke-width="2.62" stroke-miterlimit="10" stroke-linecap="round" stroke-linejoin="round"/>
<path d="M100.2 195.8C99 196.4 98.1 198.5 97.9 199.6" stroke="#2D1F04" stroke-width="2.62" stroke-miterlimit="10" stroke-linecap="round" stroke-linejoin="round"/>
<path d="M106.6 199.3C105.8 199.9 105.2 201.6 105.1 202.3" stroke="#2D1F04" stroke-width="2.62" stroke-miterlimit="10" stroke-linecap="round" stroke-linejoin="round"/>
<path d="M104.7 289.4C102.6 284.9 100.6 278.3 102.3 267.5C104.5 252.9 109.8 237.1 120.5 217.9" stroke="#2D1F04" stroke-width="2.7806" stroke-miterlimit="10" stroke-linecap="round" stroke-linejoin="round"/>
<path d="M131.9 169.1C142.2 172.9 159.4 177.9 181.8 179.7C200.3 181.2 217.7 179.8 225 177.6C235.1 174.5 242.5 171.3 249.7 167.8C253.8 165.8 258.5 162.6 262.8 160.3C269.6 156.7 286.7 149.6 318 175.6" stroke="#2D1F04" stroke-width="2.62" stroke-miterlimit="10" stroke-linecap="round" stroke-linejoin="round"/>
<path d="M258.5 92.9003C258.2 100.3 247.7 106 235 105.4C222.3 104.8 212.4 98.4003 212.7 90.9003C213 83.5003 223.5 77.8003 236.2 78.4003C248.9 79.0003 258.9 85.5003 258.5 92.9003Z" fill="url(#paint0_radial_281_2426)"/>
<path d="M159.6 91.5004C158.5 98.2004 149.8 102.4 140.1 100.8C130.4 99.2004 123.4 92.5004 124.5 85.8004C125.6 79.1004 134.3 74.9004 144 76.5004C153.7 78.1004 160.7 84.8004 159.6 91.5004Z" fill="url(#paint1_radial_281_2426)"/>
<path opacity="0.23" d="M330.3 260.7C319.2 263.3 313.1 261.1 310.7 263.5C302.9 271.6 301 280.6 298.3 289.5H275.5C284.3 262.9 291.7 239.1 290.2 222.9C295.2 233.4 307 236.4 315.4 236.3C316.3 239.4 317.3 242.6 318.4 245.6C323.6 260 334.7 259.6 330.3 260.7Z" fill="#3F2719"/>
<path d="M324.1 239C325.7 241.6 327.7 244.2 330.3 246.9" stroke="#2D1F04" stroke-width="2.62" stroke-miterlimit="10" stroke-linecap="round" stroke-linejoin="round"/>
<path d="M324.1 250.6C315.4 241.3 310 228.7 306.5 214" stroke="#2D1F04" stroke-width="2.62" stroke-miterlimit="10" stroke-linecap="round" stroke-linejoin="round"/>
<path opacity="0.23" d="M247.6 185.8C246.9 181.6 245 180.2 239.9 179.4C232.6 178.2 223.2 179 214.2 179C219.8 178.4 223.5 177.7 224.9 177.4C225.3 177.3 225.7 177.2 226.1 177.1C235.6 174.1 242.8 171.1 249.7 167.6C253 165.9 256.8 163.5 260.5 161.4C253 167.2 249 172.4 247.6 185.8Z" fill="#3F2719"/>
<path d="M44.1 232.4C55.1 268 94.1 278.8 95.9 225.3C96.6 205.9 90.1 190.6 82.1 174.5C65 139.9 57.8 132.4 44.4 105.9C39 108.2 30.6 113.7 24.3 118.3C32 150.7 32 159 34.2 181C37.3 211.4 39.8 218.7 44.1 232.4Z" fill="#CAA77A"/>
<path d="M44.4 105.8C41 110.6 34.8 116.4 27 117.8C26.1 118 25.2 118.1 24.4 118.2C0.700012 91.3001 -1.39999 69.3001 4.20001 66.8001C7.30001 65.4001 14.1 78.9001 25.1 87.3001C34.7 94.8001 42 100.5 44.4 105.8Z" fill="#B6B1AE"/>
<path d="M368.5 232.8C347.9 272 303 272.1 304.4 218.5C304.9 199.1 315.7 185.5 322.9 174.9C340.6 148.5 345.5 111.3 358.9 90.2002C364.2 92.9002 369.6 96.7002 377.6 104.7C376.5 122.3 377.4 147.2 377.8 165.8C378.4 196.4 376.9 216.8 368.5 232.8Z" fill="#CAA77A"/>
<path d="M358.8 90.2002C361.7 95.4002 367.2 101.7 374.9 104C375.8 104.2 376.6 104.5 377.5 104.7C403.8 80.4002 408.2 58.8002 402.9 55.6002C400 53.9002 391.8 66.6002 380 73.9002C369.7 80.3002 361.8 85.2002 358.8 90.2002Z" fill="#B6B1AE"/>
<path d="M95.5 231.1C95.7 229.2 95.8 227.3 95.9 225.2C96.6 205.8 90.3 190.9 82.1 174.4C66.3 142.7 57.8 132.3 44.4 105.8" stroke="#2D1F04" stroke-width="2.62" stroke-miterlimit="10" stroke-linecap="round" stroke-linejoin="round"/>
<path d="M44.4 105.8C41 110.6 34.8 116.4 27 117.8C26.1 118 25.2 118.1 24.4 118.2C0.700012 91.3001 -1.39999 69.3001 4.20001 66.8001C7.30001 65.4001 14.1 78.9001 25.1 87.3001C34.7 94.8001 42 100.5 44.4 105.8Z" stroke="#2D1F04" stroke-width="2.62" stroke-miterlimit="10" stroke-linecap="round" stroke-linejoin="round"/>
<path d="M377.5 104.7C376.4 122.3 377.3 147.2 377.7 165.8C378.4 196.4 376.9 216.8 368.5 232.8C347.9 272 303 272.1 304.4 218.5C304.9 199.1 315.7 185.5 322.9 174.9C340.6 148.5 345.5 111.3 358.9 90.2002" stroke="#2D1F04" stroke-width="2.62" stroke-miterlimit="10" stroke-linecap="round" stroke-linejoin="round"/>
<path d="M358.8 90.2002C361.7 95.4002 367.2 101.7 374.9 104C375.8 104.2 376.6 104.5 377.5 104.7C403.8 80.4002 408.2 58.8002 402.9 55.6002C400 53.9002 391.8 66.6002 380 73.9002C369.7 80.3002 361.8 85.2002 358.8 90.2002Z" stroke="#2D1F04" stroke-width="2.62" stroke-miterlimit="10" stroke-linecap="round" stroke-linejoin="round"/>
<path d="M184.3 91.6001C186.2 100.2 200.1 102.6 202.6 92.2001" stroke="#2D1F04" stroke-width="2.62" stroke-miterlimit="10" stroke-linecap="round" stroke-linejoin="round"/>
<path d="M24.4 118.3C32.6 151.1 32.2 161.8 34.3 181C37.6 210.6 40.1 220.7 44.1 232.4C48.1 244.1 53.6 257 61.7 261.9C76.1 270.6 92.1 265.7 102.8 260.2" stroke="#2D1F04" stroke-width="2.62" stroke-miterlimit="10" stroke-linecap="round" stroke-linejoin="round"/>
<path d="M333.6 260.6C319.7 263.1 314.1 260.5 310.7 263.5C307.3 266.5 301.1 276.2 298.3 289.5" stroke="#2D1F04" stroke-width="2.62" stroke-miterlimit="10" stroke-linecap="round" stroke-linejoin="round"/>
<path d="M404.4 57.7002C401.4 66.9002 381.6 89.1002 367.7 100.5" stroke="#2D1F04" stroke-width="2.62" stroke-miterlimit="10" stroke-linecap="round" stroke-linejoin="round"/>
<path d="M2.60001 68.3003C3.60001 78.5003 16.3 99.4003 34.2 115.1" stroke="#2D1F04" stroke-width="2.62" stroke-miterlimit="10" stroke-linecap="round" stroke-linejoin="round"/>
<path opacity="0.23" d="M120.4 218.3C120.3 218.5 120.2 218.6 120.2 218.8C120.1 218.9 120 219.1 120 219.2C119.9 219.3 119.9 219.5 119.8 219.6C119.7 219.7 119.7 219.8 119.6 220C119.5 220.3 119.3 220.6 119.1 220.8C118.7 221.5 118.4 222.1 118.1 222.8C118 223 117.9 223.2 117.8 223.4C117.6 223.8 117.4 224.1 117.2 224.5C110.4 237.6 106.3 249.2 103.9 260C94.9 265.6 79.4 269.3 66.9 264.5C57.6 260.9 51.6 253.1 46.4 238.6C46.4 238.6 46.4 238.6 46.4 238.5C45.6 236.6 44.8 234.6 44.2 232.5C40 218.8 37.4 211.5 34.4 181.1C32.2 159.1 32.2 150.8 24.5 118.4C0.800016 91.5001 -1.29998 69.5001 4.30002 67.0001C5.60002 66.4001 7.60002 68.5001 10.3 71.8001C0.200016 80.1001 25.5 109.7 30.2 117.3C35.8 126.2 33.9 155.7 48.1 187.9C59.3 213.4 57.6 225.8 63.8 245.5C68.2 259.4 77.9 264.1 85.8 262.5C97.9 260 100.5 250.4 103.1 243.5C107.5 231.8 117 217.3 112 212.4C115.1 214 117.9 215.5 120.2 216.6C120.2 216.8 120.3 216.9 120.3 217.1C120.1 217.3 120.2 217.8 120.4 218.3Z" fill="#3F2719"/>
<path opacity="0.23" d="M377.5 104.7C376.3 122.3 377.3 147.2 377.7 165.8C378.4 196.4 376.9 216.8 368.5 232.8C352 264.2 319.9 270.5 308.5 244.2C325.8 262.2 342.7 236.2 347.7 217.3C353.1 196.9 360.2 184.8 365 160.5C369.8 136.2 366.4 109.3 370.4 102.1C372.4 98.5 375.7 95.3 386 85.2C395 76.4 401.3 64.2 399.8 56.5C401.1 55.5 402.1 55.1 402.8 55.5C408.2 58.8 403.8 80.4 377.5 104.7Z" fill="#3F2719"/>
</g>
<defs>
<radialGradient id="paint0_radial_281_2426" cx="0" cy="0" r="1" gradientUnits="userSpaceOnUse" gradientTransform="translate(235.663 91.9564) rotate(2.8203) scale(22.0038 12.8216)">
<stop stop-color="#FF8A8A" stop-opacity="0.5"/>
<stop offset="1" stop-color="#FF8A8A" stop-opacity="0"/>
</radialGradient>
<radialGradient id="paint1_radial_281_2426" cx="0" cy="0" r="1" gradientUnits="userSpaceOnUse" gradientTransform="translate(142.048 88.7224) rotate(9.56527) scale(17.0767 11.6935)">
<stop stop-color="#FF8A8A" stop-opacity="0.5"/>
<stop offset="1" stop-color="#FF8A8A" stop-opacity="0"/>
</radialGradient>
<clipPath id="clip0_281_2426">
<rect width="407" height="291" fill="white"/>
</clipPath>
</defs>
</svg>
