<svg width="213" height="337" viewBox="0 0 213 337" fill="none" xmlns="http://www.w3.org/2000/svg">
<g clip-path="url(#clip0_281_1037)">
<path d="M138 317.3C130.1 320.5 122.4 319.4 115.6 325.2C114.4 326.2 110.7 329.5 111.2 331.2C112.1 334.1 118.3 333.3 120.6 333.4C129.2 333.6 138.1 334.7 146.7 334.9C148.3 334.9 156.4 335.8 156.6 333.7C157.2 328.2 145.8 324.1 143.1 321.3" fill="#B6B1AE"/>
<path d="M45.7 315.7C36.9 315.5 27 319.4 20.2 324.8C19.5 325.3 14.1 330.4 14.7 331.2C16.1 333.2 22.8 331.7 24.8 331.9C33.4 332.8 42.6 331.2 51.4 331.4C52.9 331.4 58.6 332.5 59.5 330.7C60.8 328.2 53.9 324 52.6 323.3" fill="#B6B1AE"/>
<path d="M35.3 295.3C34.3 292.9 28.9 296.8 26.9 298C25.9 298.6 19.4 298.7 19.8 299.8C21.8 306.4 27.3 313.4 33 316.4C33.5 316.7 44.2 317.3 44.3 316.7C44.5 315.7 41.3 312 40.8 311.1C37.9 306.6 37.2 300.2 35.3 295.3Z" fill="#B6B1AE"/>
<path d="M86.9 225.9C86.8 225.7 86.6 225.5 86.5 225.2Z" fill="#B6B1AE"/>
<path d="M81.8 190.8C80.2 198.3 80.9 195.3 81.2 203.1C81.4 208.1 84.5 234.8 83.7 238.8C82.9 242.8 77.7 244.8 79.6 252.1C81.3 258.7 98.2 268.3 103.9 271.1C111.9 275 129.6 261.2 138.5 261.3C145 261.4 156.3 263.2 162 260.9C165.8 259.4 166.6 264.5 170.7 264.9C176.8 265.5 185.5 264.7 191.6 265.3C195.4 265.7 206.1 266.6 208.9 263.2C210.8 260.8 209.8 253 209.6 250.3C209.2 244.4 210.1 238.2 210.7 232.4C211.9 220.1 209 208 209.1 195.6C209.1 192.1 210.8 182.9 208.3 180.2C205.8 177.3 191.8 179 187.8 178.8C168.6 178 151.6 178.7 132.4 178.5C120.1 178.4 106 177.5 93.8 178C88.9 178.2 82.6 173.3 82.9 180.4" fill="#B6B1AE"/>
<path d="M28.7 32.8999C26.2 32.8999 19.5 45.6999 18.1 48.3999C7 67.7999 11.1 90.3999 19.9 109.7C22.2 114.7 21.1 116.2 23.4 120.8C24.5 122.9 28.2 127.9 28.2 130.2C28.2 130.7 28.2 131.7 28.2 131.7C28.2 131.7 27.5 128 26.7 126.4C26.4 125.9 25.4 124.9 25.9 124.9C26.2 124.9 26.6 125.7 26.7 125.9C29.1 132 26.4 139.8 28 146.2C29.1 150.6 37.5 155.9 42.2 157.1C59.8 161.5 77.5 156.8 95.1 156.8C99.5 156.8 112.2 158.2 115.9 154.5C119 151.4 120 147.4 122.5 143.9C125.9 139.2 133.8 133.4 139.2 131.2C144.8 128.9 151.9 130.3 157.4 131.7C158.8 132.1 163.1 133.9 164.5 132.5C166.8 130.2 167.9 123.5 167.3 120.6C165.8 112.9 166.3 101.5 164.8 93.9999C163.8 88.8999 161.9 83.9999 160 79.0999C152.5 59.5999 142 43.7999 125.3 31.5999C121.1 28.5999 114.1 23.1999 109.3 20.7999C104.7 18.4999 99.5 18.5999 94.9 16.1999C88.8 13.1999 82.2 9.19989 75.6 7.59989C74 7.19989 76.3 10.0999 76.1 10.3999C75.9 10.7999 71.8 10.7999 71.3 10.6999C65.8 9.59989 60.3 9.69989 55.1 7.39989C54.2 6.99989 51.1 3.79989 50 4.09989C46.9 5.09989 51.5 13.6999 51.5 13.6999C51.5 13.6999 51.1 12.9999 50.7 12.6999C49.2 11.4999 45.8 10.5999 43.9 10.1999C39.8 9.39989 38 11.9999 34.5 12.6999C34 12.7999 29.9 13.8999 29.9 13.9999C29.9 14.8999 36.5 15.8999 36.5 16.7999C36.5 17.5999 35.1 17.2999 34.7 17.2999C32.8 17.5999 21.7 22.1999 22.5 24.5999C22.9 25.6999 28.7 25.6999 29.8 26.3999C30.1 26.5999 30.8 26.6999 30.8 26.6999C30.8 26.6999 26.2 27.3999 24 27.9999C21.2 28.6999 15.4 35.0999 20.5 35.0999" fill="#CAA77A"/>
<path d="M181.8 266.3C180.8 266.6 177.5 275.7 177.1 279.2C176.2 286.1 179.2 294.5 180.1 301.3C180.9 308 185.1 316.5 187.8 322.7C188.8 324.8 188.7 329.5 188.1 331.8C187 336.1 161.6 336 158.2 334.6C158.2 334.6 150.3 324.8 147.8 322.9C145.6 321.3 147.2 321 142.3 318.9C139.2 317.6 135.4 317.6 132.6 314.7C129.9 312 128.4 305.8 125.4 303.8C122.5 301.8 120.2 303.3 110.7 305.3C101.2 307.3 94.3 306.9 85.1 304.6C83.5 304.2 83.8 307.3 84.6 310.8C85.5 314.7 87.1 319.1 87.7 320C88.2 320.7 92.6 325.8 91.4 327C89 329.4 71.8 331.8 68.9 331.8C65.7 331.8 62.7 330.4 59.5 331C58.8 331.1 57.3 331 57.3 331C57.3 331 59 331.7 58.8 331.2C58.5 330.2 56.5 328.6 55.8 327.7C53.3 324.4 49.3 319.8 46.5 316.9C44.1 314.5 43.4 312.3 41.9 309.3C39.7 304.8 38.2 299.3 36.9 294.4C36.6 293.3 36.3 295.4 35.7 294.4C33.2 290.7 24.1 304.4 18.8 299.1C16.3 296.6 12.7 291.2 12.1 288.2C10.6 280.8 10.1 272.1 10.1 264.3C10.1 263 9.6 256.7 10.3 256.1C11.9 254.9 15.1 255.6 17 255.6C23.3 255.6 28.6 255.1 34.9 256.8C39.1 257.9 42.5 260.6 46.8 261C53.6 261.7 60.4 259.9 67.2 260.5C73.7 261 79.3 262.1 84.9 261C86.2 260.7 93.2 268.3 94.1 267.4C95.1 266.4 92.3 253.6 94.4 253.1C98.1 252.2 101.1 255.8 104.6 256.5C113.2 258.2 122.8 258.8 130.7 254C134.2 251.9 137.8 248.7 139.2 245.3C140.7 241.5 140.5 238.3 141.9 234.4C143.7 229.5 141.5 222.3 140.5 217.3C139.9 214.1 137 205.6 138.6 202.3C141.4 196.7 159.4 187.6 165.5 186.1C171 184.8 177.3 183.7 182.9 185.1C189.8 186.8 190.7 192.6 191.9 197.4C195.9 213.4 195.1 229.8 187.6 246.5C185.6 250.9 184.5 254.5 180.6 257.4C179.7 258.1 175.4 263.3 175.2 263.7C174.8 264.4 180.5 264.1 180.7 264.2C185.2 265.7 181.3 267.7 179.9 272.3" fill="#CAA77A"/>
<path d="M28.1 149.3C27.9 146.7 22 153.9 23.8 156.3C24.6 157.3 25.9 158 26.5 159C26.9 159.5 26 160.2 25.8 160.5C22.6 164.8 20.5 169.6 18.6 174.4C16.5 179.6 15.2 184.2 14.4 189.8C13.9 193.3 16.7 196.9 15.9 200C13.8 208.4 8.1 208.5 5.7 225.1C4.8 230.9 2.2 237.8 2.2 243.8C2.2 244.8 1.7 248.8 2.7 249.5C15.8 259.1 35 260.2 52.7 260.2C56.3 260.2 59.7 263.1 63.2 262.2C68.4 260.9 73.6 261.3 78.8 260C79.5 259.8 83.1 260.7 83.1 260C83.1 259.8 79.1 255.1 78.8 254C76.9 246.4 80 243.7 83.8 238.1C85.2 236 83.4 228.7 83.1 226.4C81.4 216.3 82.5 207.8 81 197.6C80.7 195.8 79.8 185.4 82 184.8C84.1 184.3 81.6 179.3 83.7 178.7C91.9 176.6 101.1 178.9 109.6 177.4C111 177.2 121.8 176 123.1 177.3C124.2 178.4 125.3 182.3 126 184C127.5 187.6 128.7 191.6 130.4 195.1C132 198.3 130.3 208.4 136.7 203.9C168.8 181.8 191.1 193.7 191.1 193.3C191 176.6 187.6 155.7 178.7 143.9C174.7 138.6 169.2 131.5 162 129.7C157.9 128.7 153.4 124.7 148.8 126C140.1 128.5 128.5 132.3 123 139.8C121.2 142.2 118.5 148.3 116 150C114.9 150.7 113.4 151.2 112 151.4C105.1 152.8 98 152.5 91.1 153.9C76.3 156.9 64.6 155.6 49.8 152.7C47.4 152.2 41.7 152.9 39.4 152.5C36.5 152 34.1 152 31.2 151.3C27.9 150.5 28.1 149.6 28.1 149.3Z" fill="#FFDB1F"/>
<path d="M16.7 72.1997C18.8 63.5997 24.1 53.7997 31.9 52.3997C41 50.6997 48.5 57.9997 57.3 57.6997C58.9 57.5997 62.1 56.6997 63.1 55.1997C64 53.8997 63.1 51.9997 63.1 51.9997C64.5 52.3997 65.9 54.3997 67.6 54.8997C74.2 56.7997 81 50.9997 87 49.1997C106.9 43.1997 122.4 45.2997 133 64.4997C135.4 68.7997 139 78.6997 136.6 89.6997C133 105.8 131.1 112.5 113.7 124.5C93 138.8 50.1 145.9 28.7 118.9C18.5 106.3 12.7 88.3997 16.7 72.1997Z" fill="#FFDBAF"/>
<path d="M56.7 79.5996C49.5 75.9996 43.6 94.1996 44.2 99.4996C46.2 117.5 72.5 116.5 84.6 110.4C102.2 101.6 80.7 73.2996 68.1 78.2996" fill="#9D7B51"/>
<path d="M16.7 72.3C12.8 79.4 17.2 100.8 20.2 103C22.5 104.7 38.3 92.8 42.8 85.2C44 83.2 50.1 70.3 47.8 68C46.5 66.7 29.5 69.1 26.9 69.6C23.3 70.4 18.3 69.3 16.7 72.3Z" fill="#9D7B51"/>
<path d="M82.7 68.9997C83.6 98.2997 126.5 113.9 131.6 106.6C134.8 101.9 141.2 79.9997 132.8 65.1997C132 63.7997 122.6 66.8997 121.1 67.0997C108.5 69.0997 82.3 56.1997 82.7 68.9997Z" fill="#9D7B51"/>
<path d="M34.8 267.1L34.7 273.1" stroke="#9D7B51" stroke-width="4.1072" stroke-miterlimit="10" stroke-linecap="round" stroke-linejoin="round"/>
<path d="M41.3 270.7L41.2 276.6" stroke="#9D7B51" stroke-width="4.1072" stroke-miterlimit="10" stroke-linecap="round" stroke-linejoin="round"/>
<path d="M47.4 274.6V280.6" stroke="#9D7B51" stroke-width="4.1072" stroke-miterlimit="10" stroke-linecap="round" stroke-linejoin="round"/>
<path d="M164.2 204.7V210.7" stroke="#9D7B51" stroke-width="4.1072" stroke-miterlimit="10" stroke-linecap="round" stroke-linejoin="round"/>
<path d="M171.3 206.8L171.2 212.8" stroke="#9D7B51" stroke-width="4.1072" stroke-miterlimit="10" stroke-linecap="round" stroke-linejoin="round"/>
<path d="M37.7 136.6V142.5" stroke="#9D7B51" stroke-width="4.1072" stroke-miterlimit="10" stroke-linecap="round" stroke-linejoin="round"/>
<path d="M43.6 139.6V145.6" stroke="#9D7B51" stroke-width="4.1072" stroke-miterlimit="10" stroke-linecap="round" stroke-linejoin="round"/>
<path d="M96.1 70.1997C96.1 72.8997 96.6 74.6997 97.5 75.8997C100.2 79.3997 106.3 77.4997 112.4 76.3997C119 75.2997 120.5 71.1997 121.7 68.6997" fill="white"/>
<path d="M17.6 68.6997C12 83.2997 35.2 81.7997 39.5 70.6997Z" fill="white"/>
<path opacity="0.23" d="M15.7 34.7C20 34.7 23.6 33.5 27.8 32.6C29 32.3 31.4 31.1 31.4 32.2C31.4 32.5 30.9 32.4 30.7 32.6C27.1 34.7 24.2 37.8 22.2 41.5C21.5 42.8 19.6 46.3 20.1 45.4C36.3 16 154.5 5.00001 147.6 124.3C147.5 125.4 146.2 127.2 147.2 127.5C149.3 128.2 152.7 126.2 155.4 127.1C156.6 127.5 165.2 132.3 166.1 131.7C167.6 130.7 166.5 125 166.8 123.2C172.8 83 126.4 29.1 122.4 26.9C107.1 18.4 75.8 8.90001 75.1 8.80001C75 8.80001 72.2 10.5 70.8 10.2C65.7 9.30001 59.9 7.40001 54.8 5.90001C54 5.70001 49.3 2.00001 49.1 2.30001C48.5 3.50001 48.2 9.90001 48.7 10.8C49.1 11.5 51.6 10.4 50.8 10.4C44.2 10.4 35.9 12.5 28.8 14C28.5 14.1 28.1 14.1 28.1 14.4C28.1 16.4 37.3 15.1 37.3 16.5C37.3 17.5 24.5 21.1 22.7 22.5C22.2 22.9 20.1 24.5 20.6 25C22.3 26.7 26.5 24.6 28.8 25.7" fill="#3F2719"/>
<path opacity="0.23" d="M164.5 271.5C152.7 276 171.7 326.5 168.9 326.2C136 323.6 115.9 331 115.9 332.2C115.9 333.3 121.6 333 122.7 333.3C129.3 335 145.8 336.2 152.6 335.8C165.1 335 168.9 334.7 181.4 334.7C183 334.7 184.8 334.8 186.1 333.9C191.3 330.4 181.3 313.9 180.7 308.7C179.7 300.4 177.8 285.9 178.9 277.8C179.3 275.2 183.6 268.4 183.1 265.9C182.1 260.8 166 270.9 164.5 271.5Z" fill="#3F2719"/>
<path opacity="0.23" d="M134.1 132.5C133.4 132.8 132.6 133.1 132 133.6C130.9 134.3 134.6 133.2 135.9 133.2C138.9 133.2 194.1 158.7 175.9 236.6C170.3 260.7 146.6 270.8 130.1 271.1C115.2 271.4 101.1 266.3 95.1 262.4C94.9 262.3 95.2 268 95.4 268.1C96.8 268.6 109.6 275.8 123.2 277.3C127.4 277.8 131.3 276.5 135.5 276.8C146.9 277.6 150 276.8 160.8 273.5C164.7 272.3 168.8 267.9 172.1 265.9C178.8 261.8 184.1 255.8 187.7 246.6C189.7 241.3 192 236.1 192.8 230.9C194.8 218 194.6 206.3 191.5 194C189.9 187.8 194.3 199.1 193 190.5C186.5 148.1 171.3 115.5 134.1 132.5Z" fill="#3F2719"/>
<path opacity="0.23" d="M38.9 290.7C37.2 289.1 36.6 297.9 36.6 298.7C37.1 305.5 40.1 311.3 44.2 316.7C44.4 316.9 43.4 315.1 43.3 315.3C43 316.1 38.6 317.9 37.8 318.1C35.3 318.6 11.8 327.4 15 332.3C15.1 332.4 39.3 331.9 41.3 331.9C54.5 331.9 64.7 331.9 77.9 331.9C79.8 331.9 89.4 329.1 90.5 327.5C92 325.3 87.2 317.4 86.5 315.5C86.1 314.5 84.2 305 84 304.9C79.8 302.1 70.6 303.2 65.9 302C58.2 300.1 44.6 296.2 38.9 290.7Z" fill="#3F2719"/>
<path opacity="0.23" d="M11.8 254.9C13.1 258.4 12.7 263.9 13.8 266.2C15.6 269.9 15.2 264.8 18.3 267.6C19.9 269.1 20.1 280.9 23.3 279.9C26.9 278.8 37.3 290 38.9 289.5C39.4 289.3 37.6 292.3 38.2 292C38.9 291.6 37 291.9 37.2 292.7C37.4 294.4 36.4 298 36.9 299.7C37.3 301.5 44.2 315.6 43.7 315.7C36.9 317.4 31.3 315.2 29.4 313.2C18.3 302.1 9.69999 283.6 11.2 266.5C11.3 264.4 11.1 253 11.8 254.9Z" fill="#3F2719"/>
<path opacity="0.23" d="M9.50001 213.3C8.10001 216.3 14.1 206.2 16.1 204.9C20.4 202.2 26.9 202.1 31.7 202.1C44.1 202.1 54.3 213.8 67.6 213.8C71 213.8 80.9 211.9 77.9 206C76.3 202.7 68.5 203.5 65.5 203.5C52.8 203.5 41.3 202 28.9 199.9C25.9 199.4 18.8 199.4 16.3 194.9C15.7 193.7 13.5 203.3 13 204.1C10 208.5 11.9 208.1 9.50001 213.3Z" fill="#3F2719"/>
<path opacity="0.23" d="M135.4 299.8C134.4 298.6 147.8 288.9 144.4 290C61.6 316.5 28.1 279 27.2 280.2C26.9 280.6 31.8 284.5 32.1 284.9C37.4 290.7 42.5 293.7 49.6 297.3C88.3 316.5 136.7 301.3 135.4 299.8Z" fill="#3F2719"/>
<path d="M30.3 31.5996C25.5 34.7996 22.6 40.0996 19.4 44.6996C3.50001 67.1996 11.9 95.7996 23.2 118.4C24.2 120.4 25.6 122.7 25.9 124.9C26.1 126 25.4 127.9 25.9 128.9C26.1 129.3 27.1 127.8 27.2 128.3C27.5 130.4 27.2 132.8 27 134.8C26.9 135.6 26 137.7 26.6 137.1C26.8 136.9 27.3 135.2 28.1 135.4C28.5 135.5 28.1 146.7 27.9 147.8" stroke="#2D1F04" stroke-width="2.7806" stroke-miterlimit="10" stroke-linecap="round" stroke-linejoin="round"/>
<path d="M28.8 32.2997C26.4 33.4997 24.9 33.4997 22.5 34.1997C21.3 34.4997 20.3 34.9997 19.1 35.2997C18 35.4997 16.8 35.5997 15.7 35.8997C15.2 35.9997 14.2 36.7997 14.2 36.2997C14.2 34.6997 26.9 27.5997 29.4 26.7997C29.8 26.6997 30.3 26.6997 30.5 26.3997C30.7 25.8997 29.5 25.8997 29 25.7997C26.6 25.1997 20.9 27.0997 18.9 25.5997C18.4 25.1997 22.7 22.5997 22.9 22.3997C25.5 20.8997 28.2 18.9997 31.1 18.1997C32.8 17.6997 36.4 18.8997 36.4 17.0997C36.4 14.9997 26.8 15.6997 26.1 14.9997C26 14.8997 26.4 14.8997 26.5 14.7997C28.7 13.6997 31.1 12.7997 33.4 12.2997C37.8 11.2997 45.5 10.1997 49.8 11.6997" stroke="#2D1F04" stroke-width="2.7806" stroke-miterlimit="10" stroke-linecap="round" stroke-linejoin="round"/>
<path d="M50.5 12.6998C49.3 10.1998 47 6.09978 48.2 3.19978C48.3 2.99978 49.2 1.99978 49.5 2.09978C50.4 2.49978 51 4.09978 52 4.59978C56.2 6.79978 60.8 8.39978 65.5 9.39978C68.2 9.99978 71 10.2998 73.7 10.8998C74.3 10.9998 75.6 11.0998 75.6 11.0998C75.6 11.0998 71.9 7.79978 73.3 7.09978C73.5 6.99978 84.1 10.8998 85.1 11.2998C92.7 14.1998 100.3 15.9998 107.5 19.4998" stroke="#2D1F04" stroke-width="2.7806" stroke-miterlimit="10" stroke-linecap="round" stroke-linejoin="round"/>
<path d="M12.1 255.9C11.9 263.3 15.8 270.6 15.8 270.6C15.8 270.6 17.4 265.8 18.2 267.1C19.1 268.6 22.6 281.6 24.9 280.9C25 280.9 24.9 277.4 25.1 277.6C25.9 278 30.6 284.3 32.2 285.5C37.9 289.8 44.7 293.4 51.3 296.3C75.8 307 112.2 311.3 136.6 299.1" stroke="#2D1F04" stroke-width="2.7806" stroke-miterlimit="10" stroke-linecap="round" stroke-linejoin="round"/>
<path d="M36.6 288.7C34.3 295.8 39.8 310.9 45.4 316.4" stroke="#2D1F04" stroke-width="2.7806" stroke-miterlimit="10" stroke-linecap="round" stroke-linejoin="round"/>
<path d="M84.3 305.8C84.5 310.8 86.5 321.5 90.6 325.5" stroke="#2D1F04" stroke-width="2.7806" stroke-miterlimit="10" stroke-linecap="round" stroke-linejoin="round"/>
<path d="M44.5 316.2C31.6 315.8 16.8 327.9 15.8 329" stroke="#2D1F04" stroke-width="2.7806" stroke-miterlimit="10" stroke-linecap="round" stroke-linejoin="round"/>
<path d="M57.2 331.9C62.6 331.9 69.1 331.5 74.5 331.3C77.7 331.2 92 330.7 91.2 326.4" stroke="#2D1F04" stroke-width="2.7806" stroke-miterlimit="10" stroke-linecap="round" stroke-linejoin="round"/>
<path d="M124.9 303.9C127.6 310 131.8 315.3 138.3 317.5" stroke="#2D1F04" stroke-width="2.7806" stroke-miterlimit="10" stroke-linecap="round" stroke-linejoin="round"/>
<path d="M182.1 266.3C174.6 281.4 179.7 301.9 184.6 316.9C186 321.3 192.5 332.1 184.9 334.1" stroke="#2D1F04" stroke-width="2.7806" stroke-miterlimit="10" stroke-linecap="round" stroke-linejoin="round"/>
<path d="M137.5 317C119.3 320.2 112.2 326.6 107.9 332" stroke="#2D1F04" stroke-width="2.7806" stroke-miterlimit="10" stroke-linecap="round" stroke-linejoin="round"/>
<path d="M108.1 332.3C110 333.9 183.5 336.2 185.2 334" stroke="#2D1F04" stroke-width="2.7806" stroke-miterlimit="10" stroke-linecap="round" stroke-linejoin="round"/>
<path d="M85.8 238.4C83.5 247.9 98.6 256.7 106.7 258C130.1 261.7 144.8 250.4 141.3 224.2C140.5 218.4 139.6 208.9 136.5 203.8" stroke="#2D1F04" stroke-width="2.7806" stroke-miterlimit="10" stroke-linecap="round" stroke-linejoin="round"/>
<path d="M85.3 236.8C74.4 249.6 78.3 257.2 91.1 265.2" stroke="#2D1F04" stroke-width="2.7806" stroke-miterlimit="10" stroke-linecap="round" stroke-linejoin="round"/>
<path d="M88.5 263.6C93.9 267.8 148.8 298.1 182.9 255.6C196.2 239 195.8 219.2 191.1 193.5" stroke="#2D1F04" stroke-width="2.7806" stroke-miterlimit="10" stroke-linecap="round" stroke-linejoin="round"/>
<path d="M95.4 14.6997C148.2 32.1997 167.4 88.1997 167.4 125.5" stroke="#2D1F04" stroke-width="2.7806" stroke-miterlimit="10" stroke-linecap="round" stroke-linejoin="round"/>
<path d="M11.4 255.7C11.4 275.3 9.80001 288.8 21.9 305.6C24.9 309.8 31.3 317.2 37.2 317.2" stroke="#2D1F04" stroke-width="2.7806" stroke-miterlimit="10" stroke-linecap="round" stroke-linejoin="round"/>
<path d="M18.9 298.9C26.3 300.1 29.9 296.1 36 293.1" stroke="#2D1F04" stroke-width="2.7806" stroke-miterlimit="10" stroke-linecap="round" stroke-linejoin="round"/>
<path d="M26.7 298.2C26.7 303.6 37 314.6 43 314.6" stroke="#2D1F04" stroke-width="2.7806" stroke-miterlimit="10" stroke-linecap="round" stroke-linejoin="round"/>
<path d="M94.2 253.5C92.2 258.4 93.9 261.8 93.9 266.2" stroke="#2D1F04" stroke-width="2.7806" stroke-miterlimit="10" stroke-linecap="round" stroke-linejoin="round"/>
<path d="M80 245.4C80 253.1 86.8 257.8 92.7 260.7" stroke="#2D1F04" stroke-width="2.7806" stroke-miterlimit="10" stroke-linecap="round" stroke-linejoin="round"/>
<path d="M45.9 316.6C51.3 320.2 55.8 324.4 58.6 330.2" stroke="#2D1F04" stroke-width="2.7806" stroke-miterlimit="10" stroke-linecap="round" stroke-linejoin="round"/>
<path d="M138.2 317.2C146.3 320.5 153.4 326.5 157.3 334.3" stroke="#2D1F04" stroke-width="2.7806" stroke-miterlimit="10" stroke-linecap="round" stroke-linejoin="round"/>
<path d="M14.5 332.3C19.6 333.5 61.7 331.3 64.1 331.7Z" fill="black"/>
<path d="M14.5 332.3C19.6 333.5 61.7 331.3 64.1 331.7" stroke="#2D1F04" stroke-width="2.7806" stroke-miterlimit="10" stroke-linejoin="round"/>
<path d="M16.2 328.5L15.6 328.8L14.6 330.2L14.2 331.3L14.5 332.3" fill="black"/>
<path d="M16.2 328.5L15.6 328.8L14.6 330.2L14.2 331.3L14.5 332.3" stroke="#2D1F04" stroke-width="2.7806" stroke-miterlimit="10" stroke-linejoin="round"/>
<path d="M14.9 332.2C19.9 328.1 42.3 319.7 50.7 321.2" stroke="#2D1F04" stroke-width="2.7806" stroke-miterlimit="10" stroke-linecap="round" stroke-linejoin="round"/>
<path d="M109.9 332.1C117.6 328.2 127.1 325.4 136.4 324.3C140.5 323.8 144.5 323.6 148.3 323.8" stroke="#2D1F04" stroke-width="2.7806" stroke-miterlimit="10" stroke-linecap="round" stroke-linejoin="round"/>
<path d="M28.3 149.6C69.5 161.4 111.4 153 116 150.7" stroke="#2D1F04" stroke-width="2.7806" stroke-miterlimit="10" stroke-linecap="round" stroke-linejoin="round"/>
<path d="M28.3 149.7C28.8 147 25.4 151.8 24.8 153.2C23.9 155.2 25.9 157 25.8 158C25.7 159.2 23.8 162 23.3 163.3C19.6 173.3 10.7 186.1 16.2 196.9" stroke="#2D1F04" stroke-width="2.7806" stroke-miterlimit="10" stroke-linecap="round" stroke-linejoin="round"/>
<path d="M2.60001 250.9C20.2 261.3 58.8 263.6 84.2 260.6" stroke="#2D1F04" stroke-width="2.7806" stroke-miterlimit="10" stroke-linecap="round" stroke-linejoin="round"/>
<path d="M1.9 250.4C1.75834e-06 238.4 4.5 223.1 8.9 212C10.7 207.4 14.1 202.9 15.6 198.2" stroke="#2D1F04" stroke-width="2.7806" stroke-miterlimit="10" stroke-linecap="round" stroke-linejoin="round"/>
<path d="M167.2 124.3C167.4 125.4 167.1 127 167 128.5" stroke="#2D1F04" stroke-width="2.7806" stroke-miterlimit="10" stroke-linecap="round" stroke-linejoin="round"/>
<path d="M188.9 193C194.6 194.9 192 187.3 191.6 184.4" stroke="#2D1F04" stroke-width="2.7806" stroke-miterlimit="10" stroke-linecap="round" stroke-linejoin="round"/>
<path d="M174.4 137.6C176.3 140.3 178.1 143.2 179.8 146C185.4 155.5 190.8 177.9 192.3 189.7" stroke="#2D1F04" stroke-width="2.7806" stroke-miterlimit="10" stroke-linecap="round" stroke-linejoin="round"/>
<path d="M136.7 204.1C129.5 205.1 129.9 201.5 130.2 195.6" stroke="#2D1F04" stroke-width="2.7806" stroke-miterlimit="10" stroke-linecap="round" stroke-linejoin="round"/>
<path d="M114.3 167.7C119.2 172.2 124.8 178.6 127 185.1C128.1 188.4 128.8 193 130.3 196.1" stroke="#2D1F04" stroke-width="2.7806" stroke-miterlimit="10" stroke-linecap="round" stroke-linejoin="round"/>
<path d="M123.3 178.2C122.8 174.4 122.3 169.6 120.7 166.3" stroke="#2D1F04" stroke-width="2.7806" stroke-miterlimit="10" stroke-linecap="round" stroke-linejoin="round"/>
<path d="M157.9 127.6C131.3 121.5 114.5 150.7 115.9 151.8" stroke="#2D1F04" stroke-width="2.7806" stroke-miterlimit="10" stroke-linecap="round" stroke-linejoin="round"/>
<path d="M175.3 139C170.3 132.6 166.2 130.2 158.1 127.7" stroke="#2D1F04" stroke-width="2.7806" stroke-miterlimit="10" stroke-linecap="round" stroke-linejoin="round"/>
<path d="M167.4 126.1C167.6 127.5 167.4 128.8 167.6 130.2" stroke="#2D1F04" stroke-width="2.7806" stroke-miterlimit="10" stroke-linecap="round" stroke-linejoin="round"/>
<path d="M80.1 66.7998L136.6 65.7998" stroke="#2D1F04" stroke-width="8.0658" stroke-miterlimit="10" stroke-linecap="round" stroke-linejoin="round"/>
<path d="M53.5 67.8999L35.3 68.1999L4.60001 68.6999" stroke="#2D1F04" stroke-width="8.0658" stroke-miterlimit="10" stroke-linecap="round" stroke-linejoin="round"/>
<path d="M94 70.6996C98.2 83.2996 120.1 79.2996 120.5 69.0996" stroke="#2D1F04" stroke-width="3.2369" stroke-miterlimit="10" stroke-linecap="round" stroke-linejoin="round"/>
<path d="M16.9 72.6C15.1 81.6 39.9 82.3 39.9 71" stroke="#2D1F04" stroke-width="3.2369" stroke-miterlimit="10" stroke-linecap="round" stroke-linejoin="round"/>
<path d="M52.4 79.6C52.3 76.9 57.6 74.4 64.3 74.1C71 73.8 76.6 75.7 76.7 78.4C76.8 81.1 71.5 83.6 64.8 83.9C58.1 84.3 52.5 82.3 52.4 79.6Z" fill="#251707"/>
<path d="M109.7 68.6997C109.9 68.4997 110.2 68.3997 110.4 68.1997" stroke="#2D1F04" stroke-width="3.2369" stroke-miterlimit="10" stroke-linecap="round" stroke-linejoin="round"/>
<path d="M64.6 84.7998C64.6 94.8998 70.3 82.9998 78.3 86.9998" stroke="#2D1F04" stroke-width="3.2369" stroke-miterlimit="10" stroke-linecap="round" stroke-linejoin="round"/>
<path d="M131.2 195.9C141 186.8 158.1 179.3 174.3 182.1" stroke="#2D1F04" stroke-width="2.7806" stroke-miterlimit="10" stroke-linecap="round" stroke-linejoin="round"/>
<path d="M97.6 162.9C85.9 167 40.5 166.7 26.2 157.3" stroke="#2D1F04" stroke-width="2.7806" stroke-miterlimit="10" stroke-linecap="round" stroke-linejoin="round"/>
<path d="M34.7 151.7C34.1 153.4 33.5 154.7 33.5 156.6" stroke="#2D1F04" stroke-width="2.7806" stroke-miterlimit="10" stroke-linecap="round" stroke-linejoin="round"/>
<path d="M45.2 153.8C44.4 155.4 44.3 157.4 44.3 159.2" stroke="#2D1F04" stroke-width="2.7806" stroke-miterlimit="10" stroke-linecap="round" stroke-linejoin="round"/>
<path d="M57.8 155.4L57.1 159.6" stroke="#2D1F04" stroke-width="2.7806" stroke-miterlimit="10" stroke-linecap="round" stroke-linejoin="round"/>
<path d="M66.6 156.6V157.3V157.8V158.5V158.9V159.4V159.9" stroke="#2D1F04" stroke-width="2.7806" stroke-miterlimit="10" stroke-linecap="round" stroke-linejoin="round"/>
<path d="M139 190.9C139.5 192.5 140.2 193.6 141.1 195.1" stroke="#2D1F04" stroke-width="2.7806" stroke-miterlimit="10" stroke-linecap="round" stroke-linejoin="round"/>
<path d="M147.8 186.7L149.5 190.4" stroke="#2D1F04" stroke-width="2.7806" stroke-miterlimit="10" stroke-linecap="round" stroke-linejoin="round"/>
<path d="M156.5 183.7L157.2 187.6" stroke="#2D1F04" stroke-width="2.7806" stroke-miterlimit="10" stroke-linecap="round" stroke-linejoin="round"/>
<path d="M61.7 156.8V157.3V157.8V158.2V158.7V159.2" stroke="#2D1F04" stroke-width="2.7806" stroke-miterlimit="10" stroke-linecap="round" stroke-linejoin="round"/>
<path d="M96.5 155.4V155.9V156.4V157.3V157.8" stroke="#2D1F04" stroke-width="2.7806" stroke-miterlimit="10" stroke-linecap="round" stroke-linejoin="round"/>
<path d="M100 155.4V156.1V156.8V157.3" stroke="#2D1F04" stroke-width="2.7806" stroke-miterlimit="10" stroke-linecap="round" stroke-linejoin="round"/>
<path d="M28.3 71.2998C28.3 69.0998 30.1 67.2998 32.3 67.2998C34.5 67.2998 36.3 69.0998 36.3 71.2998C36.3 73.4998 34.5 75.2998 32.3 75.2998C30.1 75.2998 28.3 73.4998 28.3 71.2998Z" fill="#2D1F04"/>
<path d="M109.1 69C109.1 66.8 110.9 65 113.1 65C115.3 65 117.1 66.8 117.1 69C117.1 71.2 115.3 73 113.1 73C110.9 73 109.1 71.2 109.1 69Z" fill="#2D1F04"/>
<path d="M82.7 240L81.5 184.5C81.5 180.6 85.2 177.5 89.7 177.5C89.7 177.5 105.1 177.9 123.3 178.2" stroke="#2D1F04" stroke-width="2.5153" stroke-miterlimit="10" stroke-linecap="round" stroke-linejoin="round"/>
<path d="M191.8 177.9C198.1 177.8 201.7 177.7 201.7 177.7C206.2 177.7 209.9 180.8 209.9 184.7L211 257.4C211 261.3 207.3 264.4 202.8 264.4L174.3 264.5" stroke="#2D1F04" stroke-width="2.5153" stroke-miterlimit="10" stroke-linecap="round" stroke-linejoin="round"/>
<path d="M103.6 73.3998C103.3 73.3998 103 73.2998 102.7 73.2998Z" fill="#2D1F04"/>
<path d="M33.8 188.8C41 189 47.1 189.1 52.9 189.4C57.6 189.7 58.6 193.1 57.6 196.3C56.2 200.7 52.6 203.7 47.6 205.1C47.3 205.2 47.1 205.2 46.5 205.3C50.3 208.2 48.7 213.9 51.6 219.1C47.9 218.9 44.6 218.6 41.1 218.4C39.4 215.1 38.6 211.8 38.3 208.7C38.1 207 37.6 205.7 34.7 206.2C32.6 209.9 31 213.7 31.2 218C27.9 217.9 24.8 217.8 21.5 217.8C22.1 206.9 30.8 199.1 33.8 188.8ZM41.4 195C40.5 196.9 39.5 198.7 38.2 200.8C40.3 200.7 42.2 200.8 44.2 200.6C46 200.4 47.4 199.4 48.2 198C49 196.5 48.6 195.3 47 195.1C45.3 194.9 43.4 195 41.4 195Z" fill="#2D1F04"/>
<path d="M84.4 198C81.2 198.2 78.3 198.3 75.4 198.5C75.8 195.9 74.7 194.6 72.4 194.5C70.9 194.4 69.5 194.9 68.4 196.7C68 198.2 68.7 198.7 69.7 199C71.6 199.6 73.5 200.2 75.4 200.8C76.5 201.2 77.5 201.6 78.5 202.2C84.8 205.6 81.4 214.4 75.3 218.4C73.3 219.7 70.9 220.5 68.8 220.8C65.3 221.3 61.9 221 58.6 219.8C54.3 218.3 51.8 214.2 53.7 209.3C56.5 209.3 59.2 209.3 62.2 209.2C62.2 209.8 62.1 210.4 62.1 210.9C62.2 213.9 65 215.4 68.2 214.4C69.6 213.9 70.8 213 71.3 211.6C71.7 210.3 71.3 209.3 70.3 208.8C69.4 208.3 68.5 208 67.6 207.7C65.7 207 63.8 206.4 62.1 205.5C59 203.7 58.6 200.9 60.1 197.6C61.8 193.9 64.7 190.9 68.6 189.8C72.3 188.7 76 188.7 79.8 190C83.7 190.9 85.4 193.4 84.4 198Z" fill="#2D1F04"/>
</g>
<defs>
<clipPath id="clip0_281_1037">
<rect width="213" height="337" fill="white"/>
</clipPath>
</defs>
</svg>
