<?xml version="1.0" encoding="utf-8"?>
<!-- Generator: Adobe Illustrator 26.0.3, SVG Export Plug-In . SVG Version: 6.00 Build 0)  -->
<!DOCTYPE svg PUBLIC "-//W3C//DTD SVG 1.1//EN" "http://www.w3.org/Graphics/SVG/1.1/DTD/svg11.dtd" [
	<!ENTITY ns_extend "http://ns.adobe.com/Extensibility/1.0/">
	<!ENTITY ns_ai "http://ns.adobe.com/AdobeIllustrator/10.0/">
	<!ENTITY ns_graphs "http://ns.adobe.com/Graphs/1.0/">
	<!ENTITY ns_vars "http://ns.adobe.com/Variables/1.0/">
	<!ENTITY ns_imrep "http://ns.adobe.com/ImageReplacement/1.0/">
	<!ENTITY ns_sfw "http://ns.adobe.com/SaveForWeb/1.0/">
	<!ENTITY ns_custom "http://ns.adobe.com/GenericCustomNamespace/1.0/">
	<!ENTITY ns_adobe_xpath "http://ns.adobe.com/XPath/1.0/">
]>
<svg version="1.1" id="Слой_1" xmlns:x="&ns_extend;" xmlns:i="&ns_ai;" xmlns:graph="&ns_graphs;"
	 xmlns="http://www.w3.org/2000/svg" xmlns:xlink="http://www.w3.org/1999/xlink" x="0px" y="0px" width="373.5px" height="329.1px"
	 viewBox="0 0 373.5 329.1" style="enable-background:new 0 0 373.5 329.1;" xml:space="preserve">
<style type="text/css">
	.st0{fill:#FFFFFF;}
	.st1{fill:#FFDB1F;}
	.st2{fill:#CAA77A;}
	.st3{fill:#D2D2D2;}
	.st4{fill:#FFDBAF;}
	.st5{fill:#9D7B51;}
	.st6{fill:#2D1F04;}
	.st7{fill:#A6A6A6;}
	.st8{fill:none;stroke:#2D1F04;stroke-width:2.62;stroke-linecap:round;stroke-linejoin:round;stroke-miterlimit:10;}
	.st9{fill:none;stroke:#2D1F04;stroke-width:7.6;stroke-linecap:round;stroke-linejoin:round;stroke-miterlimit:10;}
	.st10{fill:none;stroke:#2D1F04;stroke-width:3.05;stroke-linecap:round;stroke-linejoin:round;stroke-miterlimit:10;}
	.st11{fill:#251707;}
	.st12{fill:none;stroke:#2D1F04;stroke-width:2.37;stroke-linecap:round;stroke-linejoin:round;stroke-miterlimit:10;}
	.st13{fill:none;stroke:#9D7B51;stroke-width:3.87;stroke-linecap:round;stroke-linejoin:round;stroke-miterlimit:10;}
	.st14{opacity:0.23;fill:#3F2719;}
</style>
<metadata>
	<sfw  xmlns="&ns_sfw;">
		<slices></slices>
		<sliceSourceBounds  bottomLeftOrigin="true" height="329.1" width="373.5" x="822.1" y="-706.8"></sliceSourceBounds>
	</sfw>
</metadata>
<path class="st0" d="M373.5,165.6c0-0.1,0-0.3,0-0.4c0-2.9-0.6-5.8-1.7-8.5c-1-3.2-3.3-7.3-8.5-10.1c-3.7-2.4-8-3.6-12.4-3.6
	c0,0,0,0-0.1,0l-9.1,0.1c-1.4,0-2.9-0.1-3.9-0.3c-2.6-0.4-5.5-0.6-8.8-0.6c-3.6,0-7.1,0.2-10.5,0.4l-0.8,0.1c-0.7,0-1.5,0.1-2.3,0.1
	c-1.6,0-3.2-0.1-4.9-0.1c-1.8-0.1-3.7-0.2-5.7-0.2c-2,0-3.8,0.1-5.5,0.3c-1.4,0.2-2.8,0.4-4.1,0.6l-1,0c0.2-0.3,0.4-0.6,0.6-0.9
	c1-1.7,1.8-3.6,2.1-5.6c0.4-2.2,0.3-4.4-0.2-6.5c-0.5-2.1-1.5-4.1-2.8-5.8c-1.3-1.7-2.8-3-4.5-4.1c-1.2-0.7-2.5-1.3-3.9-1.7
	c0-1.7-0.3-3.4-0.9-5.1c-1.2-3.6-3.3-6.5-6.3-8.6c0.8-3.6,0.5-7.2-0.9-10.6c-1.5-3.5-3.9-6.2-7.1-8.1c0.5-3.7-0.1-7.3-2-10.6
	c-1.3-2.4-3.1-4.4-5.3-5.9c0-0.8-0.1-1.6-0.2-2.4c-0.3-1.4-0.9-2.7-1.7-3.8c-0.8-1.2-1.8-2.1-3-2.9c-0.4-0.2-0.7-0.4-1.1-0.6
	c0-0.4-0.1-0.9-0.2-1.3c-0.3-1.4-0.8-2.7-1.7-3.8c-0.8-1.2-1.8-2.1-3-2.9c-1.2-0.7-2.4-1.2-3.8-1.5c-0.6-0.1-1.2-0.2-1.8-0.2
	c-0.7,0-1.5,0.1-2.2,0.2c0,0-0.1,0-0.1,0c0.1-0.6,0.1-1.3,0.1-1.9c0,0,0,0,0-0.1c0-4.7-1.7-8.8-5-12.1c-2.6-2.6-5.8-4.3-9.4-4.8
	c-0.4-1.4-0.9-2.8-1.7-4.2c-1.1-1.8-2.5-3.4-4.2-4.6c-1.4-1-2.9-1.8-4.5-2.3c-1-1.4-2.2-2.6-3.6-3.6c-0.8-0.6-1.5-1-2.4-1.4
	c-0.5-0.6-1.1-1.1-1.7-1.5c-1.3-1-2.8-1.6-4.3-1.9c-0.8-0.9-1.8-1.6-2.8-2.2c-0.3-0.1-0.5-0.3-0.8-0.4c-0.4-0.2-1.7-0.8-6.3-3.2
	c-0.5-0.4-1.1-0.8-1.8-1.2c-0.7-0.4-1.5-0.7-2.3-0.9c-3.6-1.9-6.8-3.5-6.8-3.5c-1.3-0.7-2.7-1-4.1-1c-2.4,0-4.9,1-6.6,2.9L156,24.2
	c-2.3-0.5-4.5-0.9-6.7-1.2c-0.5-0.1-0.9-0.2-1.4-0.3c-1.4-0.2-3-0.3-4.8-0.5c-5.3-0.7-10.6-1.1-14.9-1.1c-0.5,0-1,0-1.5,0
	c-0.6,0-2.1,0-3.8,0c-4,0-10.1,0-14.7,0.2c-3.2-0.1-5.5-0.2-6.9-0.2c-1.8,0-4.9,0-7.6,2.7c-1,1-1.8,2.2-2.3,3.5c0,0-0.1,0-0.1,0
	c-1,0-2-0.1-3.1-0.1c-2.6,0-5.2,0.1-7.6,0.2l-0.2,0c-2.9-0.4-5.4-1-7.4-2c-1.2-0.6-2.5-0.9-3.9-0.9c-2.6,0-5.2,1.2-6.9,3.2
	c-1,1.2-1.7,2.5-1.9,4c-0.6,1.3-1,2.7-1,4.2c0,0.8,0.1,1.8,0.5,2.9c-2.1,1-3.7,2.3-4.9,3.3c-0.9,0.4-1.7,0.9-2.6,1.3
	c-2.1,0.9-4.2,2.2-5.2,2.8c-5.4,3.1-6.7,4.3-7.3,4.9c-0.6,0.6-3.1,3.3-3.2,7.2c-3.9,0.1-7.4,2.8-8.4,6.8c-1,3.9,0.7,7.9,4.1,9.9
	c0.1,0.9,0.4,1.8,0.8,2.6c-0.4,0.8-0.6,1.6-0.8,2.6c-0.1,0.7-0.2,1.6-0.1,2.6c-0.1,0.3-0.3,0.5-0.4,0.8C31.3,84.8,31,86,31,87.2
	c-0.2,1-0.2,2,0,3c0,1.2,0.3,2.4,1,3.7c1.2,2.4,3.4,4.2,6.1,4.8c-0.3,1.9-0.4,3.8-0.4,5.7c-1.6,8.9-1.8,18-0.7,26.9c0,0,0,0,0,0
	c0.2,1.3,0.4,2.6,0.6,3.9c0.3,2.6,0.7,5.1,1.2,7.5c0.4,1.8,1.1,3.3,1.8,4.6c1.7,5.3,3.9,10.7,6.6,16.4c0.8,2.6,1.8,5.8,3.6,9.3
	c1.5,3.1,3.5,5.6,5.2,7.9c0.8,1.1,1.6,2.2,2.3,3.2c0.5,1,1,1.9,1.4,2.7c0,0.2,0.1,0.4,0.1,0.6c-8.8,2.7-17.3,7-24.7,12.7
	c-1.9,1.3-3.7,2.7-5.4,4.4c-1.2,1.2-2.1,2.2-2.9,3.2c-1,1.1-2,2.3-2.9,3.4c-2.5,3.2-3.3,6.4-3.1,9.2c-3.6,4-6.7,7.8-9.2,11.4
	c0,0,0,0,0,0c-1.5,1.6-2.4,3.2-3,4.6c-1.4,2.4-2.7,4.7-3.7,6.9c-0.2,0.5-0.5,0.9-0.7,1.4c-0.9,0.8-1.7,1.8-2.3,2.9
	c-3.1,5.2-1.9,11.8-0.3,16.8c0.7,4,2.2,7.7,4.5,11.2c1.7,2.5,3.8,4.8,6.3,6.7c2.3,2.4,4.8,4.5,7.4,6.2c2.7,1.7,6.1,2.6,10.4,2.6
	c2.9,0,5.8-0.4,8.2-0.7c0.4-0.1,0.9-0.1,1.3-0.2c0.9,0,1.9,0.1,2.8,0.1c0.6,0.1,1.4,0.3,2.1,0.4c2.2,0.5,4.7,1,7.5,1
	c1,0,1.9-0.1,2.9-0.2c5-0.7,10.3-1.4,15.3-2c5.1-0.6,10.4-1.2,15.5-2c0.9-0.1,1.8-0.2,2.8-0.4c4.7,4.9,11.2,9.7,17.1,13.9
	c1.8,1.3,3.6,2.6,5,3.7c1.4,1.1,3,2.2,4.6,3.5c3.4,2.6,7.4,5.5,10.1,7.8c1.8,1.5,3.9,3,6.3,4.2c5.6,4.1,7.8,5.1,9.8,5.6
	c2.7,0.7,7,1.1,9.4,1.4c0.9,0.2,1.9,0.4,2.8,0.4c2.8,1,6.2,1.5,10.5,1.5c0.5,0,0.9,0,1.4,0c0.2,0,0.4,0,0.5,0c0.7,0,1.3,0,1.9-0.1
	c3.6-0.2,7.3-0.6,10.8-1c0.8-0.1,1.5-0.2,2.3-0.2l1,0c0.8,0,1.6-0.1,2.4-0.2l3.3-0.1c1.6,0.5,3.1,0.8,4.5,0.8c1.6,0,3.2-0.3,4.6-1
	c3.3,0,6.6-0.1,10-0.2c0.9,0.1,1.6,0.2,2.2,0.4c1.1,0.2,2.1,0.3,3.3,0.3c1.4,0,2.7-0.2,3.7-0.3c0.5-0.1,1.1-0.1,1.4-0.1
	c4,0,7.7-0.6,10.9-1.1l0.6-0.1c3.5-0.2,7.1-0.4,11.2-0.6l1.9-0.1c1,0,2.1,0,3.1,0c3.9,0,8.5-0.1,13.1-0.6l2.2-0.1
	c0.5,0,1.1,0.1,1.7,0.1c1.2,0.1,2.5,0.2,4,0.2c1.2,0,2.2-0.1,3.3-0.2c2.6-0.4,5.4-0.5,8.4-0.7c1.5-0.1,3-0.1,4.6-0.3l27.7-1
	c2.2,0.1,4.5,0.2,6.9,0.2c5.9,0,12.2-0.4,18.6-1.1l9.4-0.3c11.8-0.1,21.7-9.2,22.4-20.7c0.3-1.3,0.4-2.5,0.4-3.6
	c0-1.5,0-2.9-0.1-4.2l0.7-17.1c0.4-4.2,0.5-8.4,0.5-12.7l0.6-13.9c0.1-0.5,0.1-0.9,0.2-1.3c0.9-5.5,0.8-10.7,0.5-15.8l1.6-37
	c0.2-2.6,0.4-4.7,0.6-6.7l0.1-1.1c0.3-3.9,0.9-11.2,0.4-18.2L373.5,165.6z M39.9,88.7C39.9,88.7,39.9,88.7,39.9,88.7
	C39.9,88.7,39.9,88.7,39.9,88.7C39.9,88.7,39.9,88.7,39.9,88.7z M40.2,90c0,0-0.1,0-0.1,0c0.1,0,0.2,0,0.3,0
	C40.3,90,40.3,90,40.2,90z M44.5,74.1C44.5,74.1,44.5,74.1,44.5,74.1c0.1,0,0.2,0,0.2,0C44.6,74,44.6,74,44.5,74.1z M46.3,58.7
	C46.3,58.7,46.3,58.7,46.3,58.7C46.3,58.7,46.4,58.7,46.3,58.7C46.4,58.7,46.4,58.7,46.3,58.7z M49.2,60.1
	C49.2,60.1,49.2,60.1,49.2,60.1C49.2,60.1,49.3,60.1,49.2,60.1C49.3,60.1,49.3,60.1,49.2,60.1z M53.2,71.6c0,0-0.1,0-0.1,0
	C53.2,71.6,53.2,71.6,53.2,71.6C53.2,71.6,53.2,71.6,53.2,71.6z M54.9,59.2C54.9,59.2,54.9,59.2,54.9,59.2
	C54.9,59.2,54.9,59.2,54.9,59.2C54.9,59.2,54.9,59.2,54.9,59.2z M57.7,78.9l-0.1-0.9L57.7,78.9L57.7,78.9z M17.3,239.3
	c0.2-0.4,0.5-0.8,0.9-1.2C17.8,238.4,17.5,238.8,17.3,239.3z M30.4,282c-0.1,0-0.2,0-0.3,0c0.2,0,0.4,0,0.5,0
	C30.5,282,30.5,282,30.4,282z M38.7,281.2c0.3,0,0.6-0.1,0.9-0.1h0C39.3,281.2,39,281.2,38.7,281.2z M52.2,282.7c-0.2,0-0.5,0-0.7,0
	c0.3,0,0.6,0,0.9,0C52.4,282.6,52.3,282.7,52.2,282.7z M69,33.6C69,33.6,69,33.6,69,33.6C69,33.6,69,33.6,69,33.6
	C69,33.6,69,33.6,69,33.6z M69,35.9L69,35.9c-0.1-0.1-0.2-0.1-0.3-0.1C68.8,35.8,68.9,35.8,69,35.9z M68.5,35.7c0,0,0.1,0,0.1,0
	C68.6,35.7,68.5,35.7,68.5,35.7C68.5,35.7,68.5,35.7,68.5,35.7z M69.1,36.3c-0.2,0-0.4-0.1-0.5-0.1C68.7,36.2,68.9,36.3,69.1,36.3
	c0.1,0.5,0.3,1.1,0.6,1.7C69.4,37.4,69.2,36.8,69.1,36.3z M87.6,36.3c0.2,0,0.4,0,0.6,0c0.1,0,0.1,0,0.2,0
	C88.1,36.3,87.9,36.3,87.6,36.3z M101.4,30.2c0,0,0.1,0,0.1,0C101.4,30.2,101.4,30.2,101.4,30.2C101.3,30.2,101.3,30.2,101.4,30.2z
	 M100.1,30.2c-0.1,0.1-0.1,0.1-0.1,0.2C100,30.3,100,30.3,100.1,30.2C100.1,30.2,100.1,30.2,100.1,30.2L100.1,30.2z M103.1,200.4
	c-0.7-0.5-1.4-0.9-2.1-1.3C101.7,199.5,102.4,199.9,103.1,200.4c0.4,0.2,0.7,0.4,1,0.6C103.8,200.7,103.5,200.5,103.1,200.4z
	 M107.5,201.8c-0.4-0.2-0.7-0.4-1.1-0.6C106.8,201.4,107.1,201.6,107.5,201.8c0.1,0.1,0.3,0.2,0.4,0.3
	C107.8,202,107.6,201.9,107.5,201.8z M115.7,208.4c0.7,0.2,1.3,0.2,2,0.3C117,208.6,116.4,208.5,115.7,208.4z M121.8,207.8
	C121.8,207.8,121.8,207.8,121.8,207.8c0.4,0,0.9,0,1.4,0C122.7,207.8,122.3,207.8,121.8,207.8z M127,30.1c0.4,0,0.9,0,1.3,0
	c0.1,0,0.1,0,0.2,0C128,30.1,127.5,30.1,127,30.1z M144.2,265.5c-0.2-0.5-0.5-1-0.7-1.4C143.7,264.5,143.9,265,144.2,265.5
	c0.7,1,1.4,2,2,3.1c0.6,1,1.3,2.1,1.9,3.2c0,0,0,0,0,0c-0.6-1.1-1.2-2.2-1.9-3.2S144.8,266.5,144.2,265.5z M148.6,272.7l-1-0.5v0
	L148.6,272.7L148.6,272.7z M150.6,201.4C150.6,201.4,150.6,201.4,150.6,201.4c0.2,0,0.4-0.1,0.6-0.1
	C150.9,201.3,150.8,201.4,150.6,201.4z M152.1,201.1C152.1,201.1,152.2,201.1,152.1,201.1c0.1,0,0.2,0,0.2,0
	C152.3,201.1,152.2,201.1,152.1,201.1z M154.6,318.7C154.6,318.7,154.6,318.7,154.6,318.7C154.6,318.7,154.6,318.7,154.6,318.7
	C154.6,318.7,154.6,318.7,154.6,318.7z M152.1,32.6c2.3,0.5,4.6,1,6.9,1.7C156.7,33.6,154.4,33.1,152.1,32.6z M164.4,320.1
	c-0.4,0-0.7,0-1.1,0C163.7,320.1,164.1,320.1,164.4,320.1C164.5,320.1,164.4,320.1,164.4,320.1z M166.4,320.1c-0.2,0-0.3,0-0.5,0
	c0.3,0,0.5,0,0.8,0C166.5,320.1,166.5,320.1,166.4,320.1z M183.5,318.6c-0.2,0.1-0.4,0.1-0.5,0.1
	C183.2,318.7,183.4,318.6,183.5,318.6l6.1-0.2L183.5,318.6z M190.5,13.1c0.1,0,0.1,0,0.2,0c0,0,0.1,0,0.1,0
	C190.7,13.1,190.6,13.1,190.5,13.1z M192.7,319.2C192.7,319.2,192.7,319.2,192.7,319.2C192.7,319.2,192.8,319.2,192.7,319.2
	C192.8,319.2,192.7,319.2,192.7,319.2z M201,18.9c-0.1-0.2-0.1-0.4-0.3-0.5C200.9,18.6,201,18.7,201,18.9c0.1,0.2,0.1,0.4,0.1,0.6
	C201.1,19.3,201.1,19.1,201,18.9z M205.2,21.1c0.1,0,0.2,0,0.3,0c0,0,0,0,0,0C205.4,21.1,205.3,21.1,205.2,21.1z M205.6,40.9
	C205.6,40.9,205.6,40.9,205.6,40.9c0.1,0,0.2,0,0.3,0C205.8,40.9,205.7,40.9,205.6,40.9z M212.8,32.6c0.2-0.1,0.4-0.2,0.6-0.3
	C213.2,32.4,213,32.5,212.8,32.6c-0.2,0.1-0.4,0.3-0.5,0.4C212.5,32.8,212.6,32.7,212.8,32.6z M212.8,318.7c-0.2,0-0.3,0-0.5,0
	C212.5,318.7,212.7,318.7,212.8,318.7C212.8,318.7,212.8,318.7,212.8,318.7z M211.6,152.6c0.8-0.1,1.6-0.1,2.4-0.1
	C213.2,152.5,212.4,152.5,211.6,152.6z M214.6,29C214.7,29,214.7,29,214.6,29c0.1,0,0.2,0,0.2,0C214.8,29,214.7,29,214.6,29z
	 M227.8,43.7C227.8,43.7,227.8,43.7,227.8,43.7C227.8,43.7,227.8,43.7,227.8,43.7C227.8,43.7,227.8,43.7,227.8,43.7z M227.3,57
	c-0.1,0-0.3,0-0.4,0c0,0-0.1,0-0.1,0C227,57,227.2,57,227.3,57z M225.2,65.9c-0.1,0.2-0.1,0.5-0.2,0.7c-0.2-0.3-0.5-0.6-0.7-0.9
	C224.6,65.8,224.9,65.9,225.2,65.9z M220.2,75.4c-0.2-0.4-0.5-0.7-0.7-1.1C219.8,74.7,220,75,220.2,75.4c0.7,0.8,1.4,1.7,2,2.5
	C221.6,77.1,220.9,76.2,220.2,75.4z M228.4,317.2c-1.7,0.3-3.4,0.5-5.2,0.7C225,317.7,226.7,317.4,228.4,317.2
	c2-0.1,3.9-0.2,5.8-0.3C232.4,317,230.4,317.1,228.4,317.2z M235.4,70.2c-0.1,0-0.2,0-0.3,0C235.2,70.2,235.3,70.2,235.4,70.2
	C235.4,70.2,235.4,70.2,235.4,70.2z M245.6,316.4c-0.1,0-0.3,0-0.4,0c0.2,0,0.4,0,0.6,0C245.7,316.4,245.6,316.4,245.6,316.4z
	 M246.3,59.5C246.3,59.5,246.3,59.5,246.3,59.5c0.1,0,0.2,0,0.3,0C246.5,59.5,246.4,59.5,246.3,59.5z M265.2,126.7
	C265.2,126.7,265.2,126.6,265.2,126.7C265.2,126.6,265.2,126.7,265.2,126.7C265.2,126.7,265.2,126.7,265.2,126.7z M266.5,316.1
	c-0.1,0-0.1,0-0.2,0C266.4,316.1,266.5,316.1,266.5,316.1C266.5,316.1,266.5,316.1,266.5,316.1z M280.9,141.2c0,0-0.1,0-0.1,0
	c0.1,0,0.2,0,0.3,0C280.9,141.2,280.9,141.2,280.9,141.2z M304.7,151.5C304.7,151.5,304.7,151.5,304.7,151.5c0.1,0,0.3,0,0.4,0
	C304.9,151.5,304.8,151.5,304.7,151.5z M317.3,314.1c-0.1,0-0.2,0-0.3,0c0.3,0,0.6,0,0.9,0C317.7,314.1,317.5,314.1,317.3,314.1z
	 M328.3,151.3c0.2,0,0.5,0,0.7,0c0.1,0,0.2,0,0.4,0C329,151.3,328.7,151.3,328.3,151.3z M350.8,152L350.8,152c0.4,0,0.7,0,1.1,0
	C351.5,152,351.2,152,350.8,152z"/>
<g>
	<g>
		<g>
			<path class="st1" d="M147,271.2c1.3-4.5-9.5-13.9-13.2-17.1c-13.1-11.3-29.8-17.6-46.5-21.2c-3.6-0.8-9.3,3.4-15.9,11.1
				c-6.5,7.7-11.1-1.5-19.3-2.6c-5-0.7-18.2-10.9-20.3-15.1c-1.3-2.5-3.3-4.8-2-7.8c1.5-3.9,2.7-5.4,5.4-8.2
				c4.6-4.6,8.6-5.5,14.4-8.4c10.1-5.1,27-11.9,38.7-7.6c6.2,2.3,12.6,3.8,18,7.8c1.5,1.1,4.3,5.8,6.1,5.8c8.6,0,18-0.9,26.4-2.3
				c2.8-0.5,6.2-1.4,8.7-2.6c1.1-0.5,2.1-0.9,3.2-1.5c0.4-0.2,0.7-1.3,0.9-0.9c0.6,1.9-0.2,13.1-0.6,15.7c-0.5,3-0.1,11.2-0.6,14.2
				c-1.2,8.3-0.9,13.7-0.9,22.1c0,5.3-1.5,6.7-1.5,11.9c0,1.7-0.3,3-0.6,4.6C147.4,269.5,146.8,271.9,147,271.2z"/>
			<path class="st2" d="M246,152.6c10.6-0.9,9.4,0.3,10.2-3.6c1.3-6.6-6.6-21.2-8.9-27.5c-3.5-9.3-12-20.9-16.7-29.7
				c-3.1-5.8-8.5-12.8-12.1-18.3c-2.4-3.7-6.9-7.2-9.9-10.4c-3.8-4.1-10-6.9-16.8-12.1c-6.7-5.3-34.3-17.1-41-18.9
				c-6.7-1.9-22.9-1.8-30.9-1.8c-8.1,0-15.5-0.8-18.8-0.3c-5.2,0.9,3.3,2.6,0.3,4.4c-2.5,1.5-4.7,1.9-7.3,1.6
				c-6.6-0.9-13.9,0-20.6,0c-0.7,0-6.3-0.3-6.3-0.6c0-0.9,1.9,0.5,2.5,1.3c0.8,1,3.7,7.5,2.6,7.9c-0.7,0.2-5.7,1-7.9,1.3
				c-3.7,0.6-5.7,4.4-8.9,5.1c-1.6,0.3-6.8,3.4-7.6,5.1c-0.1,0.2-0.5,0.5-0.3,0.6c0.2,0.2,0.6,0.1,1,0c0.8-0.2,13.8-1.9,10.5-0.3
				c-5.4,2.6-7,5.6-10.1,7.9c-1.9,1.4-6.6,5.1-7.9,6.9c-0.2,0.2,0.1,2.6,0.3,2.6c0.8,0.3,11.1-4.9,12.4-5.4c0.4-0.2-2,2-1.7,2.5
				c0.4,0.7,2-0.7,1.7-0.6c-2.5,1.3-7.1,4.9-8.6,7.3c-1.2,2-5.2,7.4-5.9,9c-0.7,1.6,2.4-0.2,3.1-0.2c1.4,0,9.6-6.1,11.1-7.3
				c0.7-0.5,3.2-3.7,4.4-2.9c0.2,0.1-1.6,2.8-1.6,2.9c-0.6,1.1-0.9,2.4-1.6,3.5c-1.8,3.1-3.2,5.8-5.4,8.6
				c-5.6,7.4-2.6,17.2-3.8,25.6c-1.1,7.5-0.2,16.1,1.3,23.5c0.4,1.8,2.4,4.2,3.2,5.7c4.5,8.3,3.9,14,8.1,22.4
				c2.6,5.1,7,8.9,9.2,14.3c0.7,1.9,1.5,8.1,3,9.6c2.9,2.9,19.1,2.6,23.5,4.1c4.1,1.4,9.3,2.5,13,4.8c1.9,1.2,4.4,5,6.3,5.4
				c9,1.8,33.2-0.2,39-7.9c2.2-2.9,0.7-7.7,0.3-10.8c-0.7-5.3,0.9-10.1,1.6-15.2c0.7-4.9-0.1-9.4,2.2-13.9c1.2-2.4,2.9-4.2,5.9-4.8
				c8.8-1.8,19.5-3.2,28.4-2.5c5.9,0.5,12.2,0.6,18.1,0.6c2.2,0,5.1-0.5,7.3,0c2.5,0.6,6.3-0.9,8.7-0.1c3.8,1.3,5.9,1.5,9.6,1.1
				c3.1-0.4,6.3,0.8,9.2,0.3c0.6-0.1,11.8-1.5,12.1-1.4C255.7,151.8,235.4,153.6,246,152.6z"/>
			<path class="st2" d="M134.3,255c-2.4,0.3-3.5,2.1-5.1,3.4c-0.9,0.7-2.1,0.7-2.9,1.6c-2,2.2-4,6.2-4.8,9.1
				c-0.2,0.7-1.2,6.5-1.3,6.6c-1.1,0.8-4.2-0.3-5.6-0.1c-6.6,0.9-13.9-0.7-20.6-0.8c-8.9-0.1-17.4,4.3-26.3,4.1
				c-5.3-0.2-11,1.1-16.3,1.4c-3.8,0.2-7.5-1-11.2-1.5c-2.9-0.4-11.4-0.7-14.3-1.1c-9.3-1.3-13.3-7.2-15.5-16.9
				c-0.4-1.6-1.2-3.1-1.2-4.7c0.1-4,2.3-9.6,4.7-12.7c1.4-1.8,1.5-4.3,3.3-6.1c2.1-2.2,4.5-4.4,6.4-6.8c1.6-2.1,5.4-7.8,8.5-7.6
				c2.5,0.2,19.1-3.1,38.5,9.3c6.5,4.2,1.7-0.2,6.3-0.3c3.1-0.1,6.3,0.6,9.5,0.5c1.8-0.1,3.4-0.4,5.3-0.2c3.5,0.5,7.2,1.7,10.6,2.7
				c8.6,2.4,16.3,4.2,23.3,10.2c1.1,0.9,11.5,8.2,8.6,11.1c-1,1-3.7,1.1-4.9,1.7"/>
			<path class="st3" d="M354.1,152.9c12,0,9.3,26.4,8.7,34c-0.5,6.6-1.2,13.3-2,19.8c-0.4,3,0.4,6.1,0,9c-1.5,10.3,1.2,19.8-0.5,30
				c-1.7,10.1-0.1,21.4-1.8,31.6c-1,6.3-0.3,12.8-0.3,19.2c0,2.8-2.4,8.2-4.6,10.5c-5.9,5.9-7.6,3.6-14.8,4.6
				c-10.4,1.5-22.5,2.2-33.1,1.2c-3.8-0.4-7.8-0.9-11.6-0.6c-2.7,0.2-5.5,1.1-8.1,1.5c-6,0.9-12.3,0.6-18.3,1.5
				c-3.3,0.5-6.9-0.5-10.3-0.1c-6.9,0.9-14.4,0.6-21.3,0.6c-6.6,0-12.4,1.9-19,1.9c-2.2,0-4.5,0.7-6.7,0.3c-5.3-1.1-11-1-16.3-2
				c-1-0.2,0.7,4.1-4.6,2.1c-5.3-2.1-5.8,0.1-8,0.1c-4.5,0-7.2-0.1-11.8,0.6c-2.2,0.3-3,1.3-7.3,0.4c-4.3-0.9-4-1.9-7.1-1.3
				c-3.7,0.7-4.2-1.1-8.6-2c-5.8-1.2-12-3.8-16.3-7.4c-4.2-3.5-10.6-8.1-15-11.5c-6.6-5-18.5-12.8-23.4-19.3
				c-1.1-1.5,4.9-1.3,3.2-1.3c-0.3,0-0.7,0-0.9-0.3c-0.3-0.5,1.2-0.3,1.7-0.3c1.7,0,3.3,0.6,4.9,0.6c4.3,0,8.8-0.3,13.1,0.3
				c1.1,0.2,4.3,1,5.2,0c1.8-1.8,1.2-6.7,2-9.3c1.4-4.2,5.2-5.9,7.3-9.3c0.7-1.1,5.7-2.3,7.5-1.6c4.8,2.1,6.3,7.3,8.8,11.4
				c1.1,1.8,1.7,3.7,2.6,5.5c0.1,0.2,0.1,0.7,0.3,0.6c1.5-0.5,0.9-5.8,1.2-7c1.2-6.2-0.2-12.9,0.9-19.2c1.3-7.7,2.9-16.8,1.7-24.7
				c-0.6-4.4-2.3-10.4-1.5-14.8c1-4.9,2.5-9.8,3.2-14.8c0.5-3.4-1.5-7.5-1-11c1.1-7.4-1.9-16.1,1.6-23c5.4-10.8,18.5-9.1,28.5-8.4
				c5.1,0.3,12.1,2.6,17.1,1.9c4.2-0.6,10.2-1.1,14.4-0.6c5.9,0.7,10.7-0.1,16.7-0.1c18.9,0,36.7,2.1,55.8,0.5
				c4.3-0.4,8.5-1.3,12.8-1.7c5.9-0.7,12.1,0.4,18,0c5.9-0.4,12.4-0.8,18.3,0c8,1.1,24.9-1.5,26.9,8.5c0.5,2.6,0.7,5-0.7,7.8"/>
			<path class="st4" d="M207.8,151.6c7.5-1.7,10-49.3-16.2-71.2c-2.9-2.4-19-19.6-50.8-5.7c-5.2,2.3-14.7,10.1-20.2,11.5
				c-5.4,1.4-9.9,2.7-17,0.9c3.8,4.9,3.3,6.3,1.9,7.5c-6.4,5.3-27.2,1.4-39.9,10.3c-14.5,10.1-11.1,31.8-8,44.3
				c10.8,44.9,49.5,46.1,62.2,47.4c6.1,0.6,29.4-3,31.1-5.3c1.3-1.7,1.1-10.2,0.8-12.2c-1-6.3,2.3-24.2,9.6-26
				c5.1-1.3,11.1-0.6,16.4-0.6c6.7,0,13.4-0.5,20.1-1.2C199.9,151,197.1,154,207.8,151.6z"/>
			<path class="st5" d="M131.9,119.5c15.5-1.9,34.4,14,31.2,26.4c-3.2,12.4-21.8,20.4-32,21.7c-37.4,4.9-30.9-30.5-24.4-36.8
				c1.5-1.4,4.2-4.5,6.4-4.8"/>
			<path class="st5" d="M142.7,101c17.2,41.3,70.1,31.7,70.1,29.6c-0.3-26.9-13.3-44.3-19.8-50.9c-0.9-1-12.1,6-14.1,6.3
				c-3.3,0.4-6.8,1.7-10,2.5c-6.2,1.7-12.1,2.2-18,4.5c-2,0.8-7.7,2.3-8.7,4.4C141.6,98.3,142.3,100.1,142.7,101z"/>
			<path class="st5" d="M102.7,112.7c-0.5,0-0.9,0.7-1,1.3c-0.2,1.9,6.9,48.4-35.2,56.8c-0.3,0.1-15.4-21.6-11.7-44.6
				c1-6.4,13.7-3.8,19.8-5.8c4.1-1.3,7.3-3.5,11.8-4.1c3.9-0.5,7.1-2.2,10.9-2.7C98.9,113.3,103.3,112.6,102.7,112.7z"/>
			<path class="st6" d="M191.2,83.9c-0.1-0.7,0.3,1,0.3,1.5c0.1,1.3-0.2,2.2-0.6,3.4c-1,3.5-2.6,6.7-5.2,9.1
				c-4.1,3.8-16.6,8.1-21.2,5.3c-1.6-1-6.2-4.1-5.9-6.4c0.2-1.3,4.6-2.8,5.8-3.4c3-1.6,6.9-1.7,10.2-2.6c3.5-1,6.8-2.8,10.3-3.9
				C186.6,86.6,191.4,85.7,191.2,83.9z"/>
			<path class="st0" d="M191.2,84.6c0.2,1.5,1,3.2,0.8,4.8c-1.4,9.8-13.9,14.9-22.7,14.4c-2.4-0.1-10.1-6-8.9-8.3
				c0.9-1.7,12-3.2,13.4-3.6c3-0.8,6-0.8,9.1-1.3c4.7-0.8,6.9-9.9,11.2-10.4"/>
			<path class="st0" d="M89.5,117.4c1.9-1.4,1.9,7.1,0.5,8.8c-3.8,4.6-23.3,14.1-26.9,4.4c-0.3-0.9-1.5-2.6-0.7-3.6
				c3-3.7,8.2-2.8,12.4-4.4c3.4-1.2,6.9-2.3,10.4-3.6C87.4,118.4,87.4,119,89.5,117.4z"/>
			<path class="st0" d="M37.2,66.7c-0.8,0.1-0.4,0.1-1.2-0.2"/>
			<path class="st0" d="M1.7,208.4c1-0.1,0.5-0.3,1,1.1"/>
			<path class="st0" d="M50.2,217.8c0.1-0.2,0.2-0.5,0.4-0.7"/>
			<path class="st7" d="M259.4,206.3c0-0.2,0-0.2,0.2-0.1"/>
			<path class="st8" d="M56.5,76.4c-4.6,5.9-7.3,14.3-9.3,21.2c-14.2,50.8,26.8,82.9,22,95.7"/>
			<path class="st8" d="M56.1,76.5c-2.4,2.4-17.3,12.1-17.2,11.4c2.3-11.6,15.8-17.5,15.8-18c0-0.7-14.5,3.2-14.4,3
				c0.9-7,17.9-17.3,17.9-17.3s-12.3,2.8-13.5,2.2c-0.2-0.1,0.3-0.9,0.5-1c2.2-2.2,21.4-12.7,27.2-12.6"/>
			<path class="st8" d="M72.1,43.7c-2.5-2.5-4.4-11.1-4.1-11c14.4,6.9,35.5,0.6,35.5,0.6s-5.8-2.6-4.4-4c0.2-0.2,14.7,0.3,16.1,0.4
				c10.4,0.6,20.4-0.4,30.6,1"/>
			<path class="st8" d="M139.4,30.4c28.9,0.6,63.3,22.3,81.8,46.6c17.7,23.2,29.8,52.9,34.7,74.1"/>
			<line class="st9" x1="140.1" y1="98.1" x2="215.8" y2="74.5"/>
			<polyline class="st9" points="106.7,109.5 83.6,116.8 40.2,130.8 			"/>
			<path class="st10" d="M159.2,97.9c9.9,14.9,36.3,1.3,33.1-12.2"/>
			<path class="st10" d="M61.8,129.5c1,12.5,32.7,4.1,28.6-10.8"/>
			<path class="st11" d="M106.7,128.6c-0.9-3.4,5.1-7.9,13.4-10.2c8.3-2.2,15.8-1.3,16.7,2c0.9,3.4-5.1,7.9-13.4,10.2
				C115.1,132.9,107.6,132,106.7,128.6z"/>
			<path class="st10" d="M168.3,89.8c0.2-0.3,0.4-0.6,0.7-0.8"/>
			<path class="st6" d="M75.9,123.6c-0.8-2.9,0.8-5.9,3.6-6.8c2.8-0.8,5.8,0.8,6.6,3.7c0.8,2.9-0.8,5.9-3.6,6.8
				C79.6,128.1,76.7,126.5,75.9,123.6z"/>
			<path class="st6" d="M177.7,90c-0.8-2.9,0.8-5.9,3.6-6.8c2.8-0.8,5.8,0.8,6.6,3.7c0.8,2.9-0.8,5.9-3.6,6.8
				C181.5,94.5,178.5,92.9,177.7,90z"/>
			<path class="st6" d="M129.9,6.4c0-0.1,0.1-0.2,0.2-0.2c0.1,0,0.3,0,0.3,0c0,0.1-0.1,0.2-0.2,0.2C130.1,6.5,130,6.4,129.9,6.4z"/>
			<path class="st10" d="M135.5,143.8c0-5.7-8.9-7.7-13.2-7.7"/>
			<path class="st8" d="M147.6,271.8c-17.9-33.5-52.5-39.6-76.3-39.6"/>
			<path class="st8" d="M147.1,291.7c-13.1-39.2-114.3,8.3-134.4-21.9c-8.7-13-0.5-29,17-47.4"/>
			<path class="st8" d="M134.8,255.9c-6,0-13.8,11.9-13.8,17.2"/>
			<path class="st8" d="M126,263c12.5,4.2,17.6,12.8,21.5,19.9"/>
			<path class="st8" d="M123,231.3c-15.8-56.6-72.4-41.4-93-15.4c-4.2,5.4,4.5,6.9,4.5,6.9"/>
			<path class="st8" d="M150.4,199.7c-6.5,3.2-14,5.2-20.9,6.2c-9.7,1.4-18.1,0.9-20.6-1.2"/>
			<path class="st8" d="M150.4,211.5c-10.2,5.5-21.1,6-21.1,6"/>
			<path class="st8" d="M138.4,204.5"/>
			<line class="st8" x1="134.1" y1="206.4" x2="135.7" y2="211.4"/>
			<line class="st8" x1="128.5" y1="207.5" x2="130.1" y2="212.4"/>
			<line class="st8" x1="51" y1="212.2" x2="48.7" y2="216.8"/>
			<line class="st8" x1="61.9" y1="215.5" x2="59.6" y2="220.1"/>
			<path class="st8" d="M34.8,211.4c11-1,27.6-1.1,40,12.3"/>
			<line class="st12" x1="141.6" y1="307.3" x2="102.1" y2="275.5"/>
			<line x1="164.4" y1="53.1" x2="166.7" y2="60.4"/>
			<line class="st13" x1="164.4" y1="53.1" x2="166.7" y2="60.4"/>
			<line x1="36" y1="236.1" x2="38.3" y2="243.4"/>
			<line class="st13" x1="36" y1="236.1" x2="38.3" y2="243.4"/>
			<line x1="155.8" y1="54" x2="158.1" y2="61.3"/>
			<line class="st13" x1="155.8" y1="54" x2="158.1" y2="61.3"/>
			<path class="st14" d="M75.7,231.5c-0.5-0.2-0.8-0.5-1.1-0.9c-0.4-0.5,1.2,0.2,1.9,0.4c0.3,0.1,0.5,0.3,0.7,0.4
				c1.8,0.5,4.7,0.3,6.7,0.4c35,0.7,23.4-26.6,23.4-26.8c0.1-0.2,0.5-0.1,0.7,0c2.3,0.6,4.4,2,6.7,2.6c4.1,1,7.5-1.1,11.8-1.1
				c6.3,0,10.5-1.4,16.3-3.7c0.9-0.4,7.8-2.7,8.7-2.4c0.8,0.3-0.4,15-0.4,16.9c0,7.2-1.9,14.6-2.4,21.9c-0.4,5.9,0.5,12-0.4,17.8
				c-0.4,3.1-0.7,6.5-0.7,9.7c0,0.2,0.2,0.6,0,0.7c-0.6,0.3-1-0.9-1.1-1.1c-1.4-2.8-4.8-2.5-6.4-5.2c-3.2-5.4-5.2-8.3-12.6-12.1
				c-7.4-3.8-19.5-12.1-30.1-14.3C90.2,233.2,82.5,234.1,75.7,231.5z"/>
			<path class="st12" d="M349.8,151.2c7.6,0,13.7,5.9,13.7,13.2l-5.7,134.3c0,7.3-6.1,13.2-13.7,13.2l-155.2,5.7l-28.5,1
				c-3.4,0-6.5-1.2-8.8-3.1c-3-2.4-4.8-6-4.8-10l6.5-140c0-7.3,6.1-13.1,13.7-13.1c0,0,61.2-0.3,106.9-0.6
				C319.5,151.3,349.8,151.2,349.8,151.2z"/>
			<path class="st12" d="M156.1,317.7c-2.6,0-10.4-0.7-13.3-1.5c-5.3-1.3-51.5-39.8-51.5-39.8"/>
			<path class="st14" d="M52.7,82.6c0,1-0.8,1.9-1.1,2.8c-0.5,1.5,1.2-3,2.1-4.4c1.7-2.7,4.1-5.6,6.6-7.7c7.4-6,38.4-41.1,107-15.8
				c72.9,26.9,64.4,92.3,66.1,95.4c0.4,0.8,3.2-1.2,3.8-1.1c1.2,0.1,18.2,0.3,18.2,0.2c2.5-2-2.9-8.5-3.7-10.6
				c-4.5-11.8-4.4-22.9-11.1-33.6c-4.8-7.6-9.5-16.7-14.7-24.2c-12.6-18.2-30.2-32-50.3-42c-6.7-3.3-9.8-5.1-16.8-7.6
				c-8.5-3.1-23.5-5.2-32.7-4.9c-3.3,0.1-22.8-0.2-24.7,0.8c-2.5,1.3,3.6,3.3,2.9,4.5c-0.1,0.1-16.2,0.9-18.5,1.5
				c-3.4,0.7-9.1,1-12.5,0c-0.5-0.1-4.8-3.1-5.1-2.6c-1.3,2,3.8,9,2.8,11.2c-0.2,0.4-20.3,8.3-23.3,10.6c-0.5,0.4-2.3,2.6-1.7,3.4
				c1.6,2,10.2-1,12.6-1.2c0.5-0.1,1.6,0.2,1.6,0.2s-5.5,1.4-7.8,3c-4.8,3.2-8.6,6.6-12,11.3c-0.4,0.6,0.8,0.3,1.5,1.2
				c1.3,1.6,10-4,11.1-2.2c1.1,1.8,1,0.1,0.1,0.6c-1.2,0.7-9,6.7-10.2,7.3c-6.7,3.7,1.2,1.6-2.8,8c-0.1,0.1-1.5,2.3-1.1,2.4
				C42.4,89.5,52.8,73.1,52.7,82.6z"/>
			<path class="st14" d="M109.8,277.9c-9-7.8,7.8,11.9,10.2,14c3.1,2.5,6.9,2.5,9.4,5.5c3.5,4.3,8.8,7.8,13,11.8
				c3.4,3.1,8.4,7.4,13.3,9.1c7.4,2.7,23.7-0.9,31.8-0.9c45.9,0.2,81.2-5.2,124.6-5.1c28.6,0,46.3-0.3,44.5-12.1
				c-0.1-0.7-4.8,6.8-12,7.1c-34.2,1.1-139.7,6-182.6,7.5c-7,0.3-12.1-3.8-12.9-4.2c-2.9-1.6-0.1-15.3-0.9-21.2
				c-1.8-12.6-14.7-27.5-27.9-28c-33.3-1.2-79.7,18.3-100.3,6.9c-5.6-3.1-9-8.8-9.3-18.3c-6.7,0.4-0.9,21,13.1,30
				c3.3,2.1,11,0.7,15,0.3c4.5-0.4,9.5,2.1,14,1.4c10.3-1.5,20.6-2.5,30.8-3.9c6.8-1,13.5-1.1,20.2-2.1
				C106.6,275.2,111,278.9,109.8,277.9z"/>
			<path class="st2" d="M118.2,67.7c-0.1-0.3-0.3-0.5-0.4-0.8"/>
		</g>
		<g>
			<path d="M188.4,13.1c0.1-0.2,0.2-0.3,0.4-0.5s0.3-0.2,0.5-0.3c0.2-0.1,0.4-0.1,0.6-0.1c0.2,0,0.4,0.1,0.6,0.2
				c0.2,0.1,0.3,0.2,0.5,0.4c0.1,0.2,0.2,0.3,0.3,0.5c0.1,0.2,0.1,0.4,0.1,0.6c0,0.2-0.1,0.4-0.2,0.6l-1.6,2.9
				c-0.2,0.4-0.4,0.9-0.4,1.3s0,0.9,0.1,1.3c0.1,0.4,0.3,0.8,0.6,1.2c0.3,0.4,0.6,0.7,1.1,0.9c0.4,0.2,0.9,0.4,1.3,0.4
				c0.5,0,0.9,0,1.3-0.1c0.4-0.1,0.8-0.3,1.2-0.6c0.4-0.3,0.6-0.6,0.9-1.1l1.6-3c0.1-0.2,0.2-0.3,0.4-0.5c0.2-0.1,0.3-0.2,0.5-0.3
				c0.2-0.1,0.4-0.1,0.6-0.1c0.2,0,0.4,0.1,0.6,0.2c0.2,0.1,0.3,0.2,0.5,0.4c0.1,0.2,0.2,0.3,0.3,0.5c0.1,0.2,0.1,0.4,0.1,0.6
				c0,0.2-0.1,0.4-0.2,0.6L193.6,31c-0.1,0.2-0.2,0.3-0.4,0.5s-0.3,0.2-0.5,0.3c-0.2,0.1-0.4,0.1-0.6,0.1c-0.2,0-0.4-0.1-0.6-0.2
				c-0.2-0.1-0.3-0.2-0.5-0.4c-0.1-0.2-0.2-0.3-0.3-0.5s-0.1-0.4-0.1-0.6c0-0.2,0.1-0.4,0.2-0.6l2.1-3.9c-1.2,0.1-2.4-0.1-3.5-0.8
				c-0.8-0.4-1.5-1-2-1.6c-0.5-0.7-0.9-1.4-1.2-2.2c-0.2-0.8-0.3-1.6-0.3-2.5c0.1-0.9,0.3-1.7,0.7-2.5L188.4,13.1z"/>
			<path d="M214,45.3c-0.3,0.3-0.6,0.6-1,0.6c-0.4,0.1-0.8,0-1.1-0.3c-0.3-0.3-0.6-0.6-0.6-1c-0.1-0.4,0-0.8,0.3-1.1l4.9-6.7
				c0.3-0.4,0.5-0.8,0.6-1.2c0.1-0.4,0.1-0.9,0.1-1.3c-0.1-0.4-0.2-0.9-0.4-1.3c-0.2-0.4-0.5-0.7-0.9-1c-0.4-0.3-0.8-0.5-1.3-0.6
				c-0.4-0.1-0.9-0.1-1.3-0.1c-0.4,0.1-0.9,0.2-1.3,0.4s-0.7,0.5-1,0.9l-4.9,6.7c-0.3,0.3-0.6,0.6-1,0.6s-0.8,0-1.1-0.3
				c-0.3-0.3-0.6-0.6-0.6-1c-0.1-0.4,0-0.8,0.3-1.1l4.9-6.7c0.3-0.4,0.5-0.8,0.6-1.3s0.1-0.9,0-1.3c-0.1-0.4-0.2-0.9-0.4-1.3
				c-0.2-0.4-0.5-0.7-0.9-1c-0.4-0.3-0.8-0.5-1.2-0.6c-0.4-0.1-0.9-0.1-1.3-0.1s-0.9,0.2-1.3,0.5s-0.7,0.5-1,0.9l-4.9,6.7
				c-0.3,0.3-0.6,0.6-1,0.6c-0.4,0.1-0.8,0-1.1-0.3c-0.3-0.3-0.6-0.6-0.6-1s0-0.8,0.3-1.1l7.9-10.8c0.2-0.3,0.6-0.5,1-0.6
				c0.4-0.1,0.8,0,1.1,0.3c0.3,0.2,0.5,0.5,0.6,0.8c0.1,0.3,0.1,0.6,0,0.9c1.3,0.1,2.4,0.5,3.5,1.3c0.8,0.6,1.4,1.3,1.9,2.1
				c0.5,0.8,0.7,1.7,0.8,2.7c2-0.5,3.8-0.1,5.4,1.1c0.7,0.5,1.3,1.2,1.7,1.9c0.4,0.8,0.7,1.5,0.8,2.4c0.1,0.8,0.1,1.7-0.1,2.5
				c-0.2,0.8-0.5,1.6-1.1,2.3L214,45.3z"/>
			<path d="M231.7,53.8c-1.6,1.6-3.6,2.4-5.8,2.4c-2.3,0-4.2-0.8-5.8-2.4c-1.6-1.6-2.4-3.5-2.4-5.8c0-2.3,0.8-4.2,2.4-5.8
				c1.6-1.6,3.5-2.4,5.8-2.4c2.3,0,4.2,0.8,5.8,2.4c1.6,1.6,2.4,3.5,2.4,5.8c0,1.1-0.2,2.2-0.6,3.1C233.1,52.1,232.5,53,231.7,53.8z
				 M229.5,44.3c-0.5-0.5-1.1-0.9-1.7-1.1s-1.3-0.4-1.9-0.4s-1.3,0.1-1.9,0.4s-1.2,0.6-1.7,1.1c-0.5,0.5-0.9,1.1-1.1,1.7
				c-0.3,0.6-0.4,1.3-0.4,1.9c0,0.7,0.1,1.3,0.4,1.9c0.2,0.6,0.6,1.2,1.1,1.7c0.5,0.5,1.1,0.9,1.7,1.1c0.6,0.3,1.3,0.4,1.9,0.4
				s1.3-0.1,1.9-0.4c0.6-0.2,1.2-0.6,1.7-1.1c0.5-0.5,0.9-1.1,1.1-1.7c0.2-0.6,0.4-1.3,0.4-1.9c0-0.7-0.1-1.3-0.4-1.9
				C230.4,45.4,230,44.8,229.5,44.3z"/>
			<path d="M239.1,65.7l-4.2,3c-0.2,0.1-0.3,0.2-0.5,0.2c-0.2,0-0.4,0-0.6,0c-0.2,0-0.4-0.1-0.6-0.2c-0.2-0.1-0.3-0.2-0.4-0.4
				c-0.1-0.2-0.2-0.4-0.2-0.6c0-0.2,0-0.4,0-0.6s0.1-0.4,0.2-0.6c0.1-0.2,0.2-0.3,0.4-0.4l10.9-7.7c0.2-0.1,0.3-0.2,0.5-0.2
				c0.2,0,0.4,0,0.6,0c0.2,0,0.4,0.1,0.6,0.2s0.3,0.2,0.4,0.4c0.1,0.2,0.2,0.4,0.2,0.5c0,0.2,0,0.4,0,0.6s-0.1,0.4-0.2,0.6
				c-0.1,0.2-0.2,0.3-0.4,0.4l-4.2,3l4.3,6.1l4.2-3c0.2-0.1,0.3-0.2,0.5-0.2c0.2,0,0.4,0,0.6,0s0.4,0.1,0.5,0.2
				c0.2,0.1,0.3,0.2,0.4,0.4s0.2,0.4,0.2,0.6c0,0.2,0,0.4,0,0.6c0,0.2-0.1,0.4-0.2,0.5c-0.1,0.2-0.2,0.3-0.4,0.4L241,77.3
				c-0.2,0.1-0.3,0.2-0.5,0.2c-0.2,0-0.4,0-0.6,0c-0.2,0-0.4-0.1-0.5-0.2c-0.2-0.1-0.3-0.2-0.4-0.4c-0.1-0.2-0.2-0.4-0.2-0.6
				s0-0.4,0-0.6s0.1-0.4,0.2-0.5c0.1-0.2,0.2-0.3,0.4-0.4l4.2-3L239.1,65.7z"/>
			<path d="M248.5,90.5l0.3-0.1c-0.9-0.4-1.6-0.8-2.3-1.4c-0.7-0.6-1.3-1.3-1.8-2.2c-1.1-2-1.3-4.1-0.7-6.2c0.6-2.2,1.9-3.8,3.9-4.9
				c2-1.1,4.1-1.3,6.2-0.7c2.2,0.6,3.8,1.9,4.9,3.9c1.1,2,1.3,4,0.7,6.2c-0.6,2.2-1.9,3.8-3.9,4.9l-5.8,3.3
				c-0.4,0.2-0.8,0.2-1.2,0.1s-0.7-0.4-0.9-0.7c-0.2-0.4-0.3-0.8-0.1-1.2S248.2,90.7,248.5,90.5z M256.3,80.2
				c-0.4-0.6-0.8-1.2-1.3-1.6c-0.5-0.4-1.1-0.7-1.8-0.9c-0.6-0.2-1.3-0.2-2-0.2s-1.3,0.3-1.9,0.6c-0.6,0.3-1.1,0.8-1.5,1.3
				c-0.4,0.5-0.7,1.1-0.9,1.7c-0.2,0.6-0.2,1.3-0.2,2c0.1,0.7,0.3,1.3,0.6,2c0.3,0.6,0.8,1.1,1.3,1.6c0.5,0.4,1.1,0.7,1.8,0.9
				c0.6,0.2,1.3,0.2,2,0.2c0.7-0.1,1.3-0.3,1.9-0.6c0.6-0.3,1.1-0.8,1.5-1.3c0.4-0.5,0.7-1.1,0.9-1.8s0.2-1.3,0.2-2
				C256.9,81.5,256.7,80.8,256.3,80.2z"/>
			<path d="M256.4,107c-1.7-0.9-2.9-2.2-3.7-4c-0.9-2.1-0.9-4.2-0.1-6.3c0.8-2.1,2.3-3.6,4.4-4.5c2.1-0.9,4.2-0.9,6.3-0.1
				c2.1,0.8,3.6,2.3,4.5,4.4c0.9,2.1,0.9,4.2,0.1,6.3c-0.8,2.1-2.3,3.6-4.4,4.5l-7.5,3.2c-0.6,0.3-1.3,0.4-2,0.5
				c-0.7,0-1.3,0-1.9-0.1c-0.6-0.1-1.2-0.4-1.8-0.7c-0.6-0.3-1.1-0.7-1.6-1.1s-1-0.9-1.4-1.5s-0.7-1.1-1-1.7
				c-0.3-0.7-0.5-1.5-0.6-2.2c-0.1-0.8-0.1-1.5,0-2.3s0.3-1.5,0.6-2.3c0.3-0.7,0.7-1.4,1.2-2.1c0.1-0.2,0.4-0.4,0.7-0.5
				c0.4-0.2,0.8-0.2,1.2,0c0.4,0.2,0.7,0.4,0.8,0.8c0.1,0.3,0.1,0.5,0.1,0.7c0,0.2-0.2,0.6-0.5,1.1c-0.3,0.5-0.5,0.9-0.6,1.2
				c-0.6,1.5-0.6,2.9,0.1,4.4c0.6,1.5,1.7,2.5,3.1,3c1,0.3,1.9,0.3,2.6,0L256.4,107z M265,97.7c-0.3-0.7-0.7-1.2-1.2-1.7
				c-0.5-0.5-1.1-0.8-1.7-1.1c-0.6-0.2-1.3-0.4-1.9-0.4c-0.7,0-1.3,0.1-2,0.4s-1.2,0.7-1.7,1.2s-0.8,1-1.1,1.6
				c-0.2,0.6-0.4,1.2-0.4,1.9c0,0.7,0.1,1.4,0.4,2c0.3,0.7,0.7,1.2,1.2,1.7c0.5,0.5,1.1,0.8,1.7,1.1s1.3,0.4,1.9,0.4
				c0.7,0,1.3-0.1,2-0.4s1.2-0.7,1.7-1.2s0.8-1,1.1-1.7c0.2-0.6,0.4-1.3,0.4-1.9S265.2,98.4,265,97.7z"/>
			<path d="M269.5,125.3c-2.2,0.7-4.3,0.6-6.3-0.5c-2-1-3.4-2.6-4.1-4.8c-0.7-2.2-0.6-4.2,0.5-6.3c1-2,2.6-3.4,4.8-4.1
				c2.2-0.7,4.2-0.6,6.3,0.5c2,1,3.4,2.6,4.1,4.8c0.7,2.1,0.5,4.2-0.5,6.3c-0.5,1-1.2,1.9-2,2.5C271.5,124.5,270.6,125,269.5,125.3z
				 M271.8,116c-0.2-0.7-0.6-1.3-1-1.8c-0.5-0.5-1-0.9-1.6-1.2c-0.6-0.3-1.2-0.5-1.9-0.5s-1.3,0-2,0.2c-0.7,0.2-1.3,0.6-1.8,1
				s-0.9,1-1.2,1.5c-0.3,0.6-0.5,1.2-0.5,1.9c-0.1,0.7,0,1.4,0.2,2c0.2,0.7,0.6,1.3,1,1.8c0.5,0.5,1,0.9,1.6,1.2
				c0.6,0.3,1.2,0.5,1.9,0.5c0.7,0.1,1.3,0,2-0.2s1.3-0.6,1.8-1c0.5-0.4,0.9-1,1.2-1.6c0.3-0.6,0.5-1.2,0.5-1.9
				S272.1,116.6,271.8,116z"/>
			<path d="M266.4,138.2c-0.6,0.1-1.1,0.1-1.6-0.2c-0.5-0.3-0.8-0.7-0.9-1.3s-0.1-1.1,0.2-1.6s0.7-0.8,1.3-0.9
				c0.6-0.1,1.1-0.1,1.6,0.2c0.5,0.3,0.8,0.7,0.9,1.3c0.1,0.6,0.1,1.1-0.2,1.6S267,138,266.4,138.2z M278.8,128.8
				c-0.2,0.1-0.4,0.1-0.6,0s-0.4-0.1-0.6-0.2c-0.2-0.1-0.3-0.2-0.4-0.4c-0.1-0.2-0.2-0.3-0.3-0.6c-0.1-0.4-0.1-0.8,0.2-1.2
				s0.5-0.6,1-0.7c0.9-0.2,1.9-0.3,2.8-0.1c0.9,0.2,1.8,0.5,2.6,0.9c0.8,0.5,1.5,1.1,2,1.8c0.6,0.7,1,1.6,1.2,2.5
				c0.2,0.9,0.3,1.9,0.1,2.8c-0.2,0.9-0.5,1.8-0.9,2.6c-0.5,0.8-1.1,1.5-1.8,2c-0.7,0.6-1.6,1-2.5,1.2c-1.9,0.5-3.7,0.2-5.4-0.8
				l-2.6-1.7c-0.9-0.6-1.9-0.7-2.8-0.5c-0.4,0.1-0.8,0.1-1.2-0.2c-0.3-0.2-0.6-0.5-0.7-1c-0.1-0.4-0.1-0.8,0.2-1.2
				c0.2-0.4,0.5-0.6,1-0.7c1.7-0.4,3.4-0.1,5.1,0.9l2.6,1.7c1,0.6,2,0.7,3.1,0.4c0.5-0.1,1-0.4,1.4-0.7c0.4-0.3,0.8-0.7,1-1.2
				c0.3-0.4,0.4-0.9,0.5-1.5c0.1-0.5,0.1-1.1-0.1-1.6c-0.1-0.5-0.4-1-0.7-1.4c-0.3-0.4-0.7-0.8-1.1-1c-0.4-0.3-0.9-0.4-1.4-0.5
				C279.9,128.6,279.3,128.7,278.8,128.8z"/>
		</g>
	</g>
	<g>
		<g>
			<path d="M242.1,196.3c4.8,0.1,9.6,0.2,14.3,0.4c3.9,0.2,5.3,3,5.4,5.8c0.2,3.8-1.5,6.4-4.7,7.8c-0.2,0.1-0.4,0.1-0.7,0.2
				c3.8,2.4,4.3,7.1,6.5,11c-2.8,0-5.2,0-7.8,0c-1.2-2.6-2.4-5.2-3.5-7.8c-0.6-1.4-1.5-2.5-3.4-2.1c-0.1,3.3-0.2,6.6-0.2,10
				c-2.3,0-4.4,0-6.7,0C241.3,213.3,241.9,205,242.1,196.3z M248.7,201.6c-0.1,1.7-0.1,3.3-0.2,5.2c1.5-0.1,2.9-0.1,4.4-0.3
				c1.3-0.2,2-1.1,2-2.4c0.1-1.3-0.6-2.3-1.9-2.5C251.6,201.5,250.2,201.6,248.7,201.6z"/>
			<path d="M282.7,203.5c-2.2,0.2-4.2,0.3-6.3,0.5c-0.2-2.1-1.3-3.2-3.2-3.3c-1.2,0-2.2,0.4-2.7,1.8c0,1.2,0.7,1.6,1.6,1.9
				c1.6,0.5,3.2,0.9,4.7,1.4c0.9,0.3,1.7,0.7,2.5,1.1c5.1,2.7,4.2,9.9,0.4,13c-1.3,1-2.8,1.7-4.4,2c-2.5,0.5-5,0.4-7.4-0.3
				c-3.2-1-5.2-4.1-5.1-8.2c2.1-0.1,4.1-0.3,6.3-0.4c0.1,0.5,0.2,1,0.3,1.4c0.7,2.4,2.9,3.5,5,2.6c0.9-0.4,1.6-1.2,1.7-2.3
				c0.1-1.1-0.4-1.9-1.3-2.3c-0.7-0.4-1.5-0.6-2.2-0.8c-1.5-0.6-3.1-1-4.6-1.7c-2.9-1.4-4.2-3.8-4-6.6c0.3-3.2,2.2-5.7,5.3-6.6
				c2.9-0.9,5.9-0.9,8.8,0.1C281.2,197.8,282.6,199.8,282.7,203.5z"/>
		</g>
	</g>
</g>
</svg>
