<?xml version="1.0" encoding="utf-8"?>
<!-- Generator: Adobe Illustrator 26.0.3, SVG Export Plug-In . SVG Version: 6.00 Build 0)  -->
<!DOCTYPE svg PUBLIC "-//W3C//DTD SVG 1.1//EN" "http://www.w3.org/Graphics/SVG/1.1/DTD/svg11.dtd" [
	<!ENTITY ns_extend "http://ns.adobe.com/Extensibility/1.0/">
	<!ENTITY ns_ai "http://ns.adobe.com/AdobeIllustrator/10.0/">
	<!ENTITY ns_graphs "http://ns.adobe.com/Graphs/1.0/">
	<!ENTITY ns_vars "http://ns.adobe.com/Variables/1.0/">
	<!ENTITY ns_imrep "http://ns.adobe.com/ImageReplacement/1.0/">
	<!ENTITY ns_sfw "http://ns.adobe.com/SaveForWeb/1.0/">
	<!ENTITY ns_custom "http://ns.adobe.com/GenericCustomNamespace/1.0/">
	<!ENTITY ns_adobe_xpath "http://ns.adobe.com/XPath/1.0/">
]>
<svg version="1.1" id="Слой_1" xmlns:x="&ns_extend;" xmlns:i="&ns_ai;" xmlns:graph="&ns_graphs;"
	 xmlns="http://www.w3.org/2000/svg" xmlns:xlink="http://www.w3.org/1999/xlink" x="0px" y="0px" width="357.6px" height="340.8px"
	 viewBox="0 0 357.6 340.8" style="enable-background:new 0 0 357.6 340.8;" xml:space="preserve">
<style type="text/css">
	.st0{fill:#FFFFFF;}
	.st1{fill:#C9A67A;}
	.st2{opacity:0.23;fill:#3F2719;}
	.st3{fill:#B5B0AD;}
	.st4{fill:none;stroke:#2D1F04;stroke-width:2.7806;stroke-linecap:round;stroke-linejoin:round;stroke-miterlimit:10;}
	.st5{fill:none;stroke:#2D1F04;stroke-width:2.62;stroke-linecap:round;stroke-linejoin:round;stroke-miterlimit:10;}
	.st6{fill:#FFDA1F;}
	.st7{fill:#FFDAAE;}
	.st8{fill:#9C7B51;}
	.st9{fill:none;stroke:#9C7B51;stroke-width:3.87;stroke-linecap:round;stroke-linejoin:round;stroke-miterlimit:10;}
	.st10{fill:#251707;}
	.st11{fill:none;stroke:#2D1F04;stroke-width:7.6;stroke-linecap:round;stroke-linejoin:round;stroke-miterlimit:10;}
	.st12{fill:#D2E4E9;}
	.st13{fill:#2D1F04;}
	.st14{fill:url(#SVGID_1_);}
	.st15{fill:url(#SVGID_00000046301353986077770650000013599571153342797207_);}
	.st16{fill:#FF9902;}
	.st17{fill:none;stroke:#2D1F04;stroke-width:6;stroke-linecap:round;stroke-linejoin:round;stroke-miterlimit:10;}
	.st18{fill:none;stroke:#9C7B51;stroke-width:4.1072;stroke-linecap:round;stroke-linejoin:round;stroke-miterlimit:10;}
	.st19{opacity:0.23;fill:#2D1F04;}
</style>
<metadata>
	<sfw  xmlns="&ns_sfw;">
		<slices></slices>
		<sliceSourceBounds  bottomLeftOrigin="true" height="340.8" width="357.6" x="-111.4" y="316.8"></sliceSourceBounds>
	</sfw>
</metadata>
<g>
	<path class="st0" d="M66.9,340.8c-17.9,0-34.6-6.9-47.3-19.5C7,308.6,0,291.8,0,273.9c0-17.8,6.9-34.6,19.5-47.2
		c8.3-8.3,18.4-14.2,29.5-17.2c-16.5-22.6-25.4-54.1-28.3-65.7c-2.2-6.1-3.4-12.6-3.3-18.8c0.2-12.7,4.9-19.5,9.2-24.3
		c0-1.4-0.3-3.4-1-5.9c-0.8-2.9-1.7-5.1-2.5-7.1c-1.9-4.7-4.4-11.2-0.1-18.1c2.2-3.5,5.8-5.7,10-6.1c0.5-0.1,1-0.1,1.5-0.1
		c9.3,0,18.8,9,21.4,11.8c2.9,3,5.9,7.4,7.9,12.7c0.6,0,1.2,0,1.8,0c6.6,0,11.8,1.7,15.5,5.1c6.1,5.7,8.5,14.6,8.4,21.7
		c2,5.7,2.5,12.8,1.1,18.8c0.1,1.2,0.2,2.4,0.2,3.6c14.3-11.2,32-17.5,50.6-17.5c10.6,0,21,2,30.7,5.9c-2-7.4-4.7-17.1-6.2-28.1
		c-3-4.2-4.2-9.1-3.5-13.9c0.3-1.9,0.9-3.8,1.9-5.5c-1.8-2-3-4.4-3.4-7.1c-0.6-3.6,0.3-7.3,2.5-10.3c0.5-0.6,2.7-3.6,6.7-7.3
		c3.3-8.1,8.2-15.2,14.5-21.1c-0.2-1.2-0.1-2.5,0.1-3.7c0.9-4.6,3.9-8.6,8.4-11.3c3.1-1.9,6.8-3,10.8-3.3c0.9-1.5,2.2-3,3.6-4.3
		c2.1-1.9,4.8-2.9,7.6-2.9c0.7,0,1.4,0.1,2,0.2c5.5-4.6,12.4-7,20.4-7c0,0,0.1,0,0.1,0c5.1,0,9.6,3.5,10.9,8.4
		c0.1,0.3,0.2,0.6,0.2,1c0.2,0.2,0.4,0.5,0.6,0.8c1.3,0.2,2.6,0.7,3.8,1.3c3,1.7,4.4,4,5,5.1c1.2,2,5.8,4.7,8.4,6.2
		c27.3,15.3,46,38,55.6,67.3c5.3,16,7.5,34.1,6.5,51.6c0.2,0.1,0.4,0.2,0.7,0.3c27.9,14.9,30.9,40.4,26.6,79.4c0,0.3,0,0.7,0,1
		c0,3.2-0.1,9.2-4.1,13.6c-0.1,1.2-0.3,2.3-0.5,3.4c-3.9,23.2-13.1,49.7-20.1,58c-3.6,4.3-8.1,7.5-14.5,10.3
		c-2.9,5.5-6.5,10.5-11,14.9c-11.6,11.6-26.9,17.9-43.3,17.9L66.9,340.8C66.9,340.8,66.9,340.8,66.9,340.8z"/>
	<g>
		<g>
			<path class="st1" d="M79.9,221.1c-28-10.8-43.9-61.5-48.7-81.7c4.5-1.7,23.6-5.7,27.6-3.1c7.5,4.9,16.5,25.4,25.6,25.7
				c13.9,0.5,19.5-12,30.9-14.2c5.9,3.1,11.3,5.5,20.5,9.9c-6.2,19.4-9.1,31-18.3,42.6C105.7,215.4,92.5,225.9,79.9,221.1z"/>
			<path class="st2" d="M31.2,139.4c4.9,20.2,20.7,70.9,48.7,81.7c6.4,2.5,13,0.9,19.5-3.2c0.7-4.7,1-9.4,1-14
				c-19.5,12.9-36.5-9.5-43.1-23.8c-6.8-14.5-12.1-28.8-14.7-43.4C37.7,137.5,33.1,138.7,31.2,139.4z"/>
			<g>
				<path class="st3" d="M54.5,100.2c0.3-7.2-3.6-13.7-6.9-17.5c-5.2-6.1-13.2-10.5-15.1-7.4c-2,3.2,2.2,8.6,3.9,16
					c0.9,3.9,2.1,9.4,0.8,14.1c-4.5,4.7-8.4,8.9-8.5,19.3c-0.2,10.5,4.1,21,9.7,26.1c2.1,1.9,4.5,3.5,7.5,4.5
					c7.8,2.6,18.2,1.8,23.7-1.2c5.8-3.1,9.1-9.2,9.7-15.6c0.2-2,0.1-4.1-0.3-6.2c1.6-4.8,1.2-12.1-1.1-16.2
					c0.7-3.6-0.2-11.3-4.5-15.3C70.1,97.8,62,98.5,54.5,100.2c-2.6,0.6-5.1,1.3-7.3,2"/>
				<path class="st2" d="M28.6,124.6c-0.2,10.5,4.1,21,9.7,26.1c2.1,1.9,4.5,3.5,7.5,4.5c7.8,2.6,18.2,1.8,23.7-1.2
					c1.9-1,3.6-2.4,5-4c-2.5-6-17.8,0.6-23.7,0.3c-7-0.3-12-9.3-14.5-17.3c-2.4-8-0.9-20.1,2.7-23.6c3.6-3.5,3.9-8.5,2-15.3
					c-3.2-11.3-8.9-16-7.8-19.6c-1.6,1.1-1.2,3.1-1.1,3.7c0.5,3.2,3.1,7.5,4.3,13c0.9,3.9,2.1,9.4,0.8,14.1
					C32.7,110,28.8,114.2,28.6,124.6z"/>
				<g>
					<path class="st2" d="M77.8,116.1c-2.5-5-10.5-4.8-13.5-5.6c-3-0.8-5.9-0.3-8.5,1.3c-2.2,1.3-3.8,2.3-5.9,4.3
						C56.1,114.2,67.8,111.9,77.8,116.1z"/>
					<path class="st2" d="M79.5,132.4c-2.4-5.7-10.6-5-13.7-5.6c-3.1-0.6-6-0.3-8.4,1.6c-2,1.6-3.7,3.2-5.5,5.5
						C60.9,130,69.3,128.6,79.5,132.4z"/>
				</g>
				<g>
					<path class="st4" d="M54.5,100.2c0.3-7.2-3.4-13.9-6.9-17.5c-5.2-5.4-13.2-10.5-15.1-7.4c-2,3.2,1.2,6.5,3.9,16
						c1.1,3.8,2.1,9.4,0.8,14.1c-4.5,4.7-8.4,8.9-8.5,19.3c-0.2,10.5,4.1,21,9.7,26.1c2.1,1.9,4.5,3.5,7.5,4.5
						c7.8,2.6,18.2,1.8,23.7-1.2c5.8-3.1,9.1-9.2,9.7-15.6c0.2-2,0.1-4.1-0.3-6.2c1.6-4.8,1.2-12.1-1.1-16.2
						c0.7-3.6-0.2-11.3-4.5-15.3C70.1,97.8,62,98.5,54.5,100.2c-2.6,0.6-5.1,1.3-7.3,2"/>
				</g>
				<path class="st4" d="M77.8,116.1c-8-3.4-19.7-2.6-27.1-0.2"/>
				<path class="st4" d="M78.9,132.3c-7.3-4.1-20.1-1.9-26.3,1.6"/>
			</g>
			<path class="st5" d="M72.2,152.3c4,5.2,8.1,9.5,12.3,9.7c1.4,0,2.7,0,3.9-0.2"/>
			<path class="st5" d="M99,218.1c-6.4,3.9-12.8,5.3-19.1,2.9c-28-10.8-43.9-61.5-48.7-81.7"/>
		</g>
		<path class="st1" d="M330.1,157.6c8.6,12.2,11.9,24.3,12.1,41.4c0.3,16.2-0.8,28-5.5,32.9c-6.9,7.1-6.9,19.9-10.8,32.8
			c-34.6,0-161.8,0-171.1,0c-1.7-3.7-3.3-8.8-2.4-17.4c0.1-0.6,0.1-1.3,0.2-2c1.8-11.4,5.6-23.7,13.1-38.1c0.2-0.3,0.3-0.7,0.5-1
			c0.1-0.2,0.2-0.3,0.3-0.5c0.3-0.6,0.6-1.1,0.9-1.7c0.1-0.2,0.3-0.5,0.4-0.7c0.1-0.1,0.1-0.2,0.2-0.3c0.1-0.1,0.1-0.2,0.2-0.4
			s0.1-0.2,0.2-0.4c0.1-0.1,0.1-0.3,0.2-0.4c-0.1-0.4-0.2-0.9-0.3-1.3c0-0.1-0.1-0.3-0.1-0.4c-0.1-0.7-0.2-1.4-0.2-2.1
			c-0.1-0.9-0.1-1.9,0-2.8c0.5-12.1,7.8-28.3,7.9-29.2c0.2-1-1.6-2.8-0.6-4.6c0.5-0.9,2.7-3.6,3.4-3.7c0.1,0.1,0.1,0.3,0,0.7
			c0.1,0,0.1,0,0.1,0c0.9,0.3,1.8,0.6,2.7,1c-0.2,0.6-0.3,1.1-0.4,1.6c0.2-0.5,0.3-1,0.4-1.6c0.7,0.3,1.5,0.5,2.3,0.8
			c0.4,0.1,0.8,0.2,1.1,0.4c0.3,0.1,0.7,0.2,1.1,0.3c5.4,1.7,12.1,3.4,19.8,4.7c0.2,0,0.4,0.1,0.7,0.1c0.3,0.1,0.7,0.1,1,0.2
			c5.1,0.9,9.1,1.4,13.6,1.7c0.1,0,0.2,0,0.3,0c2.7,0.2,5.5,0.3,8.9,0.4c16.4,0.5,28.3-1.7,30.8-2.2c0.4-0.1,0.7-0.2,1.1-0.2
			c8.4-2.6,14.8-5.3,20.9-8.4c3.4-1.7,7.5-4.4,11.1-6.4c0.2-0.1,0.3-0.2,0.5-0.3c6-3.2,12.4-3.8,16.9-3.2
			C323.4,149.4,327,153.2,330.1,157.6z"/>
		<path class="st1" d="M142.8,184.9c-9.4,5.5-28.2,18.1-39.8,34.7c4.5,12.8,9.8,19.7,18.1,22.9c13.8,5.3,31.6-1.2,37.5-7.8
			c19.2-21.9,26.1-31,19.3-43.3C171.1,179,152.6,176.7,142.8,184.9z"/>
		<g>
			<path class="st6" d="M183,153.2c-0.6,2.6-1.4,5.6-2,7.6c-0.7,0-3.2,2.4-3.9,3.2c-1.3,1.6,0.2,3.7-0.1,4.6
				c-0.3,0.8-4.7,20.8-8,31.9c-6.9-3.5-22.6-11.4-25.7-14.9c-0.2-0.3-0.5-0.5-0.6-0.7c-0.7-0.8-1.4-5.1,1.7-6.9c0.4-1,0.9-2,1.4-3.2
				C155.5,154.4,169.2,148.7,183,153.2L183,153.2z"/>
		</g>
		<g>
			<path class="st2" d="M183,153.2c-0.6,2.6-1.4,5.6-2,7.6c-0.7,0-3.2,2.4-3.9,3.2c-1.3,1.6,0.2,3.7-0.1,4.6
				c-0.3,0.8-4.7,20.8-8,31.9c-2.9-1.5-7.3-3.7-11.7-6.1c2.4,0.7,5,0.7,5.6-1.1c0.7-2.3,0.9-4.8-0.7-5.5c2.2-0.1,4.7-9.6,6.4-14.5
				c1.5-4.4,6.5-18.2,12.9-20.6C182.1,152.9,182.5,153.1,183,153.2L183,153.2z"/>
		</g>
		<path class="st1" d="M315.1,156.8c-5.8,1.5-11.1,3.3-18.5,5.1c-11.5,2.7-22.2,6.4-33.8,7.4c-2.6,0.2-14.5-0.7-30.9-1.4
			c-10.6-0.5-18.1-1.3-27.3-2.7c-11.5-1.8-17.8-4.2-25.8-7c0.2-0.5,3.2-6.7,3-6.7c0.5-2,1.2-5,1.7-7.6c0.5-2.5,0.9-4.7,0.7-4.8
			c-0.7,0-1.3,0.6-1.7,1.3c-1.2-3.8,2.1-6.1,2.2-8.1c0-0.4-1.2-0.1-2.1,1.3c0.3-2.9,1.5-3.6,1.6-4.6c0.1-2.1-0.8-4.5-1.3-6.5
			c-6.3-23-17.9-67.5,18.8-89.8c-1.5-3.3-6-2.5-6-2.5c0.8-4.2,8.4-7.3,17.3-4.5c0.4-0.4-2.3-4.3,1.9-8.2c-0.1,3.4,2.3,7.2,3.4,5.7
			c3.8-8.6,10.5-12.5,19-12.5c-3,1.7-5.1,6.4-4.7,11c0,0,3.7-5.1,7-5.8c-3.8,4.7-1.7,8.1-0.1,8.8c1.2,0.6,7.3-1.2,7.7-3.9
			c1.5,0.8,0.5,4.1,13.5,11.4C315.8,63.1,321.8,122.2,315.1,156.8z"/>
		<path class="st3" d="M234.3,234.7c-0.1-0.2-0.2-0.4-0.4-0.6"/>
		<path class="st7" d="M179.7,67.6c3-7.8,6-12.6,19.9-18.7c7.9-3.5,34.3-3.3,30.1-11.2c8.7,2.2,14.2,10.9,21.8,11.8
			c8,1,25.4,8,36.3,28.3c2.2,4.1,9.9,38.1-17.7,52.1c-21.1,10.7-66.6,14-83.5-13.7C178.7,103.2,175.2,82.4,179.7,67.6z"/>
		<path class="st8" d="M221,71c-6.3-4.2-13.8,12-14.8,16.9c-1.6,8.4,0.8,16.9,7.8,20c7,3.1,16.4,3,24.1-0.7
			c19.4-9.3,3.6-39.1-8.8-35.9"/>
		<path class="st8" d="M178.8,94.4c12,0.5,42-9.7,31.6-47.3c-8.2,0.1-16.1,2-26.3,9C176.4,68.7,176.6,83,178.8,94.4z"/>
		<path class="st8" d="M248.3,51.7c-18.5,54,40.1,57,40.1,57s7.2-20.1-3-37.2C279.1,61,264.3,52.5,248.3,51.7z"/>
		<g>
			<line class="st9" x1="200.1" y1="143" x2="199.6" y2="148.6"/>
			<line class="st9" x1="194.2" y1="145.5" x2="193.7" y2="151.1"/>
		</g>
		<path class="st2" d="M197,28.6c-0.1,0-0.2,0.1-0.3,0.1c0,0-0.1,0.1-0.1,0.2"/>
		<path class="st10" d="M215.5,71.1c0.1-2.4,4.7-4.3,10.3-4.1c5.6,0.2,10,2.3,9.9,4.8s-4.7,4.3-10.3,4.1
			C219.8,75.6,215.4,73.5,215.5,71.1z"/>
		<path class="st5" d="M178.6,157.6c2.4-5.8,6.1-18.1,5.7-18.4c-0.7,0-1.3,0.6-1.7,1.3c-1.2-3.8,2.1-6.1,2.2-8.1
			c0-0.4-1.2-0.1-2.1,1.3c0.3-2.9,1.5-3.6,1.6-4.6c0.1-2.1-0.8-4.5-1.3-6.5c-6.3-23-17.9-67.5,18.8-89.8c-1.5-3.2-6-2.5-6-2.5
			c0.8-4.2,8.4-7.3,17.3-4.5c0.4-0.4-2.3-4.3,1.9-8.2c-0.1,3.4,2.3,7.2,3.4,5.7c3.8-8.6,10.5-12.5,19-12.5c-3,1.7-5.1,6.4-4.7,11
			c0,0.1,3.7-5.1,7-5.8c-4.1,4.1-1.8,8-0.3,8.7c1.2,0.6,7.5-1.2,7.9-3.9c1.5,0.8,0.5,4.1,13.5,11.4c55.2,31,61.1,90.1,54.3,124.6"/>
		<path class="st5" d="M224.6,75.1c-0.9,3.8-0.8,9,0.6,14.6"/>
		<path class="st2" d="M212.4,226.5c-0.2-0.1-0.3-0.2-0.5-0.3"/>
		<path class="st2" d="M315.1,156.8c-5.2,1.4-13.6,3.8-18.5,5.1c6.3-26,7.4-66.6-7.9-93.4c-10.8-18.9-26.7-28.5-41.2-32.8
			c-1.2-0.4-3.1-2.8-5-3c0.1,0.9-0.7,1.6-1.7,1.4c-1.3-0.3-4-1.4-3-3.8c-2.7-0.2-4,2.8-5.5,2.7c-1.5-0.1-3.1-3.8-6.5-4.1
			c1.3,2.9-1.6,4.5-3.6,4.9c-2.4,0.4-3.6-0.9-2.7-2.2c-2.4-0.2-3.5,1.9-8.7,3.2c-7.9,2-18.9,6.5-27.4,16.4c5.2-9,12.4-15,18.2-18.5
			c-1.5-3.3-6-2.5-6-2.5c0.8-4.2,8.4-7.3,17.3-4.5c0.4-0.4-2.3-4.3,1.9-8.2c-0.1,3.4,2.3,7.2,3.4,5.7c3.8-8.6,10.5-12.5,19-12.5
			c-3,1.7-5.1,6.4-4.7,11c0,0,3.7-5.1,7-5.8c-3.8,4.6-1.7,8.1-0.1,8.8c1.2,0.6,7.3-1.2,7.7-3.9c1.5,0.8,0.5,4.1,13.5,11.4
			C315.8,63.1,321.9,122.2,315.1,156.8z"/>
		<path class="st11" d="M214,47.9c-25.2,0.9-39.6,20.4-39.6,20.4"/>
		<path class="st11" d="M246.9,48.6c34.1,7.1,42.9,28.3,42.9,28.3"/>
		<g>
			<g>
				<path class="st0" d="M251.6,73.2c0.8,4.6,6.2,1.4,11.7,1.6c6.2,0.2,12.2,3.6,11.8-3.5c-0.3-5.3-5.7-7.4-13.7-7.6
					C253.4,63.5,250.6,67.4,251.6,73.2z"/>
				<path class="st12" d="M251.4,72.1c2.4-4.8,7.2-5.6,13.2-4.5c6.4,1.1,9.3,3.7,10.1,6.8c0.3-0.9,0.4-1.9,0.3-3.1
					c-0.3-5.3-5.7-7.4-13.7-7.6C254,63.5,251,66.9,251.4,72.1z"/>
				<path class="st13" d="M269.2,71.5c0-2.9-2.3-5.2-5.2-5.2c-2.9,0-5.2,2.3-5.2,5.2c0,2.9,1.6,3.2,4.5,3.2
					C266.1,74.8,269.2,74.4,269.2,71.5z"/>
				<path class="st5" d="M251.6,73.2c0.8,4.6,6.2,1.6,11.7,1.6c6.3-0.1,12.2,3.7,11.8-3.5c-0.3-5.3-5.7-7.4-13.7-7.6
					C253.4,63.5,250.6,67.4,251.6,73.2z"/>
			</g>
			<circle class="st0" cx="260.6" cy="68.4" r="2.3"/>
		</g>
		<g>
			<path class="st0" d="M204.7,73.5c-0.7,4.4-5.9,1.4-11.1,1.5c-5.9,0.2-11.6,3.5-11.3-3.3c0.2-5,5.4-7.1,13-7.3
				C202.9,64.4,205.6,68,204.7,73.5z"/>
			<path class="st12" d="M204.8,72.5c-2.3-4.6-6.8-5.3-12.6-4.3c-6.1,1.1-8.8,3.5-9.6,6.5c-0.3-0.9-0.4-1.9-0.3-2.9
				c0.2-5,5.4-7.1,13-7.3C202.4,64.4,205.2,67.6,204.8,72.5z"/>
			<path class="st13" d="M189.2,71.9c0-2.8,2.2-5,5-5c2.8,0,5,2.2,5,5c0,2.8-2.2,3.3-5,3.3C191.5,75.1,189.2,74.6,189.2,71.9z"/>
			<path class="st5" d="M204.7,73.5c-0.7,4.3-5.9,1.6-11.1,1.5c-6-0.1-11.6,3.6-11.3-3.3c0.2-5,5.4-7.1,13-7.3
				C202.9,64.4,205.6,68,204.7,73.5z"/>
			<circle class="st0" cx="190.5" cy="69.7" r="2.2"/>
		</g>
		<path class="st6" d="M311.5,147.2c-4.5-0.6-11,0-17,3.2c-0.2,0.1-0.3,0.2-0.5,0.3c-3.7,2-7.8,4.5-11.1,6.4
			c-6.1,3.6-12.7,6.6-22,8.6c-2.5,0.6-14.4,2.8-30.8,2.2c-3.3-0.1-6.2-0.2-8.9-0.4c-0.1,0-0.2,0-0.3,0c-4.5-0.3-8.5-0.8-13.6-1.7
			c-0.3-0.1-0.7-0.1-1-0.2c-0.2,0-0.4-0.1-0.6-0.1c-7.7-1.3-14.4-3-19.8-4.7c-0.4-0.1-0.7-0.2-1.1-0.3c-0.4-0.1-0.8-0.2-1.1-0.4
			c-0.8-0.3-1.5-0.5-2.3-0.8c-0.2,0.6-0.3,1.1-0.4,1.6c0.1-0.5,0.3-1,0.4-1.6c-0.9-0.3-1.8-0.6-2.7-1c-0.1,0-0.1,0-0.1,0
			c0.1-0.4,0.1-0.6,0-0.7c-0.7,0.1-2.9,2.8-3.4,3.7c-1,1.8,0.8,3.6,0.6,4.6c-0.2,0.9-7.5,17.2-7.9,29.2c0,1,0,1.9,0,2.8
			c0.1,0.7,0.1,1.4,0.2,2.1c0,0.2,0.1,0.3,0.1,0.5c0.1,0.4,0.2,0.9,0.3,1.3c-0.1,0.1-0.2,0.3-0.2,0.4c-0.1,0.1-0.1,0.2-0.2,0.4
			c-0.1,0.1-0.1,0.2-0.2,0.4c-0.1,0.1-0.1,0.2-0.2,0.3c-0.1,0.2-0.3,0.5-0.4,0.7c-0.3,0.6-0.6,1.2-0.9,1.7c-0.1,0.2-0.2,0.3-0.3,0.5
			c-0.2,0.3-0.3,0.7-0.5,1c-7.5,14.4-11.3,26.7-13.1,38.1c-0.1,0.7-0.2,1.4-0.2,2c-0.9,8.6,0.7,13.7,2.4,17.4
			c9.3,0,120.7,33.1,155.4,33.1c7.3-16.9,23.1-38.6,26.7-56.1c0.6-2.9,2.4-17.2,4-35.9c1.3-15.3-0.2-31.9-8.6-45.1
			C327.5,153.3,323.4,149.4,311.5,147.2z"/>
		<g>
			<g>
				<path class="st13" d="M187.7,194.5c6.8,0.7,13.2,1.2,19.5,1.9c5.2,0.6,7.1,4.2,6.3,7.4c-1.2,4.4-5.4,7.1-11.2,8
					c-0.3,0-0.6,0.1-1.2,0.1c4.2,3.3,2.2,8.8,6.6,14.2c-4.7-0.6-8.9-1.2-13.2-1.7c-2-3.4-2.7-6.6-2.8-9.8c0-1.7-0.5-3.1-3.6-2.9
					c-2.6,3.6-5,7.3-5.3,11.3c-3.7-0.4-6.8-0.7-9.9-1C176,211.3,185.7,205.5,187.7,194.5z M195.8,200.9c-0.9,1.8-2,3.5-3.5,5.5
					c2.2,0.1,4.2,0.4,6.4,0.4c1.9,0,3.6-0.9,4.4-2.3c0.9-1.4,0.3-2.6-1.5-3C199.8,201.2,197.8,201.1,195.8,200.9z"/>
				<path class="st13" d="M242,208c-3-0.1-5.8-0.2-8.9-0.4c0.3-2.6-1.1-4.2-3.6-4.5c-1.6-0.2-3,0.2-4,1.9c-0.3,1.5,0.5,2.1,1.6,2.5
					c2.1,0.8,4.2,1.6,6.2,2.4c1.1,0.5,2.2,1.1,3.2,1.7c6.3,4.1,3.3,12.3-1.7,15.7c-1.7,1.1-3.8,1.7-6.1,1.9c-3.7,0.2-8-0.5-12.3-1.9
					c-5.6-1.9-9.1-6.2-7-10.9c3.3,0.3,6.5,0.5,9.9,0.8c0,0.6,0,1.2,0,1.7c0.3,2.9,3.9,4.7,7.2,4c1.5-0.3,2.6-1.1,3-2.5
					c0.3-1.3-0.2-2.3-1.3-2.9c-0.9-0.5-2-0.9-3-1.4c-2.1-0.9-4.3-1.7-6.2-2.8c-3.6-2.1-4.1-5.1-2.7-8.3c1.6-3.6,4.2-6.6,8.1-7.5
					c3.7-0.9,7.7-0.7,11.8,1C240.5,200.2,242.8,203.3,242,208z"/>
			</g>
		</g>
		<path class="st2" d="M160.9,217.9c3.5-3.5,7.4-5.6,9.4-6.6c4.2-2.2,9.3-2.1,13.7-1.1c12,2.7,33.5,11.3,45.7,13.9
			c22.4,4.8,42.7-2.1,40.6-5.6c-1.7-3-36.2,2.9-48.6-2.6c-11-4.8-28.6-6.9-40.1-9.7c-2.8-0.7-11.7-3.7-13.7-8.2
			c-0.1,1.9,0.3,2.4,0.8,3.5C167.5,203.7,165.1,207.6,160.9,217.9z"/>
		<path class="st5" d="M178.8,158.3c0.1-0.6,0.1-0.8-0.2-0.8c-0.7,0.1-2.8,2.8-3.4,3.7c-1,1.8,0.8,3.6,0.6,4.6
			c-0.2,1.1-10.9,24.8-7.2,36.2"/>
		<path class="st5" d="M176.3,165.3c5.2,4.1,15.6,6.8,26.7,9c15.1,2.9,36.8,5.1,60.9,1"/>
		<path class="st5" d="M184.7,160.7c-0.7,1.6-1.3,2.8-1.5,4.5"/>
		<path class="st5" d="M194.4,163.4c-0.9,1.4-1.1,3.3-1.3,5"/>
		<polyline class="st5" points="242.5,168.8 242.4,169.2 242.4,169.6 242.3,170.5 242.3,170.9 		"/>
		<polyline class="st5" points="245.7,169 245.7,169.7 245.6,170.3 245.6,170.8 		"/>
		<path class="st5" d="M147.9,189c-2.1-1.3-3.7-2.5-4.5-3.4c-0.2-0.3-0.5-0.5-0.6-0.7c-0.7-0.8-1.4-4.9,1.7-6.9c0.4-1,0.9-2,1.4-3.2
			c8.6-18.5,20.6-24.9,33.1-22.6"/>
		<path class="st5" d="M144.6,178c4.2,2.8,11.9,7.4,20,10.9"/>
		<path class="st5" d="M150.8,181.8c-1,0.5-1.9,2.4-2,3.4"/>
		<path class="st5" d="M156.4,185c-0.7,0.5-1.2,2-1.3,2.6"/>
		<path class="st4" d="M154.8,264.7c-1.9-4-3.6-9.8-2.2-19.4c2-12.9,6.6-26.9,16.1-43.8"/>
		<path class="st5" d="M178.8,158.2c9.1,3.4,24.3,7.8,44.1,9.3c16.4,1.3,29.5-0.1,38.2-1.9c2.9-0.6,5.5-1.3,8-2.1"/>
		
			<radialGradient id="SVGID_1_" cx="196.0291" cy="802.2748" r="19.4551" gradientTransform="matrix(0.9988 4.920416e-02 -2.866979e-02 0.582 97.7268 -386.5125)" gradientUnits="userSpaceOnUse">
			<stop  offset="0" style="stop-color:#FF8989;stop-opacity:0.5"/>
			<stop  offset="1" style="stop-color:#FF8989;stop-opacity:0"/>
		</radialGradient>
		<path class="st14" d="M290.8,90.9c-0.3,6.6-9.6,11.5-20.7,11.1c-11.2-0.5-20-6.2-19.7-12.8c0.3-6.6,9.6-11.5,20.7-11.1
			C282.2,78.6,291,84.3,290.8,90.9z"/>
		
			<radialGradient id="SVGID_00000075148695314883960000000003807838541065263494_" cx="-354.8318" cy="1250.5162" r="17.7439" gradientTransform="matrix(0.8391 0.1414 -9.553622e-02 0.5748 604.9587 -581.4297)" gradientUnits="userSpaceOnUse">
			<stop  offset="0" style="stop-color:#FF8989;stop-opacity:0.5"/>
			<stop  offset="1" style="stop-color:#FF8989;stop-opacity:0"/>
		</radialGradient>
		<path style="fill:url(#SVGID_00000075148695314883960000000003807838541065263494_);" d="M203.3,89.7c-1,5.9-8.7,9.6-17.2,8.3
			c-8.6-1.4-14.7-7.3-13.8-13.2s8.7-9.6,17.2-8.3C198,77.8,204.2,83.7,203.3,89.7z"/>
		<g>
			<path class="st0" d="M310.4,278.9c0,26.6-21.6,48.2-48.2,48.2l-195.6,0.1c-29.8,0-53.9-24.1-53.9-53.8
				c0-29.7,24.1-53.8,53.8-53.8c2.8,0,5.5,0.2,8.3,0.7c-1.8-6-2.7-12.4-2.7-19c0-38.2,30.9-69.2,69.1-69.2c29.9,0,55.4,19,65,45.6
				c0.7-0.1,1.4-0.1,2.1-0.1c23.1,0,41.9,18.7,41.9,41.8c0,4.7-0.8,9.2-2.2,13.4c4.5-1.4,9.2-2.1,14.1-2.1
				C288.8,230.7,310.4,252.3,310.4,278.9z"/>
			<g>
				<path class="st13" d="M126.2,255.3c-1.1-1.4-2.5-4.3-2.5-6.7c0-5.3,0-21.2,0-21.2c0-2.9-0.3-5.4-1-7.5c-0.7-2.1-1.7-3.9-3.1-5.4
					c-1.4-1.4-3.3-2.5-5.6-3.3c-2.3-0.8-5.1-1.1-8.4-1.1c-1.8,0-3.5,0.2-5.3,0.5c-1.7,0.3-3.3,0.7-4.8,1.2c-1.5,0.5-2.8,1-3.9,1.6
					c-1.1,0.6-1.9,1.1-2.4,1.6c-0.5,0.4-0.7,1.1-0.9,1.6c-0.1,0.5-0.2,1.2-0.2,2c0,0.5,0,1,0.1,1.4c0.1,0.4,0.2,0.8,0.3,1
					c0.2,0.3,0.3,0.5,0.5,0.6c0.2,0.1,0.4,0.2,0.7,0.2c0.4,0,1-0.2,1.9-0.7c0.8-0.5,1.9-1,3.1-1.6c1.2-0.6,2.7-1.1,4.3-1.6
					c1.6-0.5,3.5-0.7,5.6-0.7c1.9,0,3.6,0.2,4.9,0.7c1.3,0.5,2.4,1.1,3.2,2c0.8,0.9,1.4,2,1.8,3.4c0.4,1.4,0.6,2.9,0.6,4.7
					c0,0,0,3.2,0,4.6c-2.1-0.4-6.7-1-12.4-1c-12.6,0-18.2,6.5-18.2,15.7c0,9.6,7.6,14,14.3,14c10,0,13.8-4.4,17.4-8.3
					c1,3.3,2,5.1,3.6,7c0.3,0.3,0.5,0.5,0.9,0.5c0.3,0,0.7-0.1,1.2-0.3c0.8-0.3,1.5-0.8,2.2-1.3c0.7-0.6,1.2-1.1,1.5-1.4
					c0.3-0.4,0.5-0.7,0.6-1.1C126.5,256,126.4,255.6,126.2,255.3z M115.3,246.4c-2.5,5-7.6,7.8-13.7,7.8c-5.9,0-8.1-3.7-8.1-7.3
					c0-5.9,3.8-9.3,10.4-9.3c5,0,9,0.5,11.3,1.1C115.3,240.8,115.3,246.4,115.3,246.4z M195.7,212.9c0,0.2,0,0.5-0.1,0.9
					c-0.1,0.3-0.2,0.8-0.4,1.3l-13,43.6c-0.1,0.4-0.3,0.7-0.5,0.9c-0.2,0.2-0.5,0.4-0.9,0.6s-0.9,0.2-1.6,0.3c-0.7,0.1-2,0.1-3,0.1
					c-1.1,0-1.9,0-2.7-0.1c-0.7-0.1-1.3-0.2-1.7-0.3c-0.4-0.1-0.7-0.3-0.9-0.6c-0.2-0.2-0.4-0.5-0.5-0.9l-8.4-33.3l-0.1-0.5
					l-0.1,0.5l-7.5,33.3c-0.1,0.4-0.3,0.7-0.5,0.9c-0.2,0.2-0.6,0.4-1,0.6c-0.4,0.1-1,0.2-1.7,0.3c-0.7,0.1-1.6,0.1-2.6,0.1
					c-1.1,0-2.3,0-3-0.1c-0.7-0.1-1.2-0.2-1.6-0.3s-0.7-0.3-0.9-0.6c-0.2-0.2-0.4-0.5-0.5-0.9l-13.1-43.6c-0.2-0.5-0.3-0.9-0.4-1.3
					c-0.1-0.3-0.1-0.6-0.1-0.9c0-0.3,0.1-0.6,0.2-0.7c0.1-0.2,0.4-0.3,0.7-0.5c0.3-0.1,0.8-0.2,1.3-0.2c0.5,0,1.2-0.1,2-0.1
					c1,0,1.7,0,2.3,0.1c0.6,0.1,1,0.1,1.3,0.3s0.5,0.3,0.7,0.5c0.1,0.2,0.3,0.5,0.4,0.8l10.6,37.1l0.1,0.5l0.1-0.5l8.3-37.1
					c0.1-0.3,0.2-0.6,0.3-0.8c0.2-0.2,0.4-0.4,0.7-0.5s0.7-0.2,1.2-0.3c0.5-0.1,2.1-0.1,2.9-0.1c0.8,0,2.3,0,2.8,0.1
					c0.5,0.1,0.9,0.1,1.2,0.3c0.3,0.1,0.5,0.3,0.7,0.5s0.2,0.4,0.3,0.7l9.3,36.8l0.1,0.5l0.1-0.5l10.5-36.7c0.1-0.3,0.2-0.6,0.3-0.8
					c0.2-0.2,0.4-0.4,0.7-0.5c0.3-0.1,0.8-0.2,1.3-0.3c0.6-0.1,1.3-0.1,2.2-0.1c0.8,0,1.5,0,2,0c0.5,0,0.9,0.1,1.2,0.3
					c0.3,0.1,0.5,0.3,0.6,0.5C195.7,212.4,195.7,212.6,195.7,212.9z M216,261.7c-1.7,0-4.6-0.2-6.1-0.4c-1.5-0.3-2.9-0.6-4-1
					c-1.2-0.4-2.2-0.8-3.1-1.2c-0.9-0.4-1.5-0.8-1.9-1.2c-0.4-0.4-0.8-0.9-0.9-1.6c-0.2-0.7-0.3-1.5-0.3-2.6c0-0.7,0-1.2,0.1-1.7
					c0.1-0.5,0.2-0.9,0.3-1.2c0.1-0.4,0.3-0.6,0.6-0.8c0.3-0.2,0.6-0.2,0.9-0.2c0.5,0,1.1,0.2,1.9,0.8c0.7,0.5,1.6,1,2.7,1.5
					c1,0.5,2.3,1,3.7,1.5c1.4,0.4,4.4,0.7,6.3,0.7c1.8,0,4-0.2,5.1-0.5c1.1-0.3,2.1-0.7,2.9-1.3c0.8-0.5,1.4-1.3,1.8-2.1
					c0.4-0.9,0.6-1.9,0.6-3.1c0-1.2-0.3-2.2-0.9-3c-0.6-0.8-1.5-1.6-2.5-2.2c-1-0.6-3.5-1.7-6.2-2.4c-1.7-0.4-3.1-0.9-4.4-1.4
					c-1.5-0.6-2.9-1.2-4.3-2c-1.4-0.7-2.7-1.7-3.8-2.7c-1.1-1.1-2-2.4-2.7-3.9c-0.7-1.5-1-3.3-1-5.4c0-1.9,0.4-3.7,1.1-5.4
					c0.7-1.7,1.8-3.2,3.2-4.5c1.4-1.3,3.2-2.3,5.4-3.1c2.4-0.9,5.3-1.4,7.9-1.4c2.5,0,4.8,0.3,6,0.5c1.2,0.2,2.4,0.5,3.4,0.8
					c1,0.3,1.9,0.7,2.6,1c0.7,0.4,1.3,0.7,1.6,1c0.4,0.3,0.7,0.6,0.8,0.8c0.1,0.2,0.2,0.5,0.3,0.8c0.1,0.3,0.1,0.6,0.2,1
					c0.1,0.4,0.1,0.9,0.1,1.4c0,0.6,0,1.1-0.1,1.6c-0.1,0.5-0.2,0.9-0.3,1.2c-0.2,0.4-0.3,0.6-0.6,0.8c-0.2,0.2-0.5,0.3-0.8,0.3
					c-0.4,0-0.9-0.2-1.6-0.6c-0.6-0.4-1.3-0.8-2.2-1.2c-0.9-0.4-2-0.8-3.2-1.2c-1.3-0.4-3.6-0.7-5.6-0.7c-1.5,0-3.9,0.3-4.8,0.6
					c-1,0.3-1.9,0.7-2.5,1.3c-0.6,0.5-1.1,1.2-1.5,2c-0.3,0.8-0.5,1.6-0.5,2.5c0,1.2,0.3,2.3,0.9,3.1c0.6,0.9,1.5,1.6,2.5,2.3
					c1.1,0.7,2.3,1.3,3.6,1.8c1.4,0.5,4.9,1.7,6.9,2.3c1.6,0.5,3.1,1.1,4.5,1.8c1.4,0.7,2.7,1.6,3.9,2.7c1.1,1.1,2,2.3,2.7,3.8
					c0.7,1.5,1,3.3,1,5.3c0,2.4-0.4,4.6-1.3,6.5c-0.9,1.9-2.2,3.5-3.8,4.8c-1.6,1.3-3.6,2.3-5.9,2.9
					C222.3,261.3,218.4,261.7,216,261.7z"/>
				<path class="st16" d="M78.3,275.4c-0.8,0.8,29.9,32.8,82.3,32.8c40.5,0,68.7-20.1,66.6-23.1c-2-2.8-24.2,12.6-66.6,12.6
					C110,297.8,79.7,274,78.3,275.4z"/>
				<path class="st16" d="M241.5,274.1c-1.3-1.4-6.5-2.4-14.8-1.6c-8.8,0.9-14.9,5-14.5,5.8c0.4,0.8,6.7-0.5,12.4-0.6
					c4.8-0.1,9.3,0.2,10.2,1.3c1,1.3,0.9,4.4-0.5,10.4c-1.7,7.2-4.5,11.6-3.8,12.1c0.7,0.5,5.8-4,9.2-12.3
					C242.3,282.2,242.6,275.4,241.5,274.1z"/>
			</g>
			<g>
				<path class="st2" d="M72.2,201.3c0-24.3,18.7-70.1,71.4-69.1c-77.8,16.5-41.4,88.1-67.4,88.1c-2.1-3.1-3-6.4-3.5-10.5
					C72.4,207,72.2,204.1,72.2,201.3z"/>
				<path class="st2" d="M309.1,290.2c-8.1,28.5-32.3,36.9-46.9,36.9l-195.6,0.1c-29.8,0-53.9-24.1-53.9-53.8
					c0-19.5,10.4-36.6,25.9-46c-8.5,9.5-13.7,22.1-13.6,35.8C25,293,49.1,317,78.9,317c0,0,136.8,0.3,182.4-0.1
					C282.5,316.8,298.4,309.4,309.1,290.2z"/>
			</g>
			<path class="st17" d="M310.4,278.9c0,26.6-21.6,48.2-48.2,48.2l-195.6,0.1c-29.8,0-53.9-24.1-53.9-53.8
				c0-29.7,24.1-53.8,53.8-53.8c2.8,0,5.5,0.2,8.3,0.7c-1.8-6-2.7-12.4-2.7-19c0-38.2,30.9-69.2,69.1-69.2c29.9,0,55.4,19,65,45.6
				c0.7-0.1,1.4-0.1,2.1-0.1c23.1,0,41.9,18.7,41.9,41.8c0,4.7-0.8,9.2-2.2,13.4c4.5-1.4,9.2-2.1,14.1-2.1
				C288.8,230.7,310.4,252.3,310.4,278.9z"/>
		</g>
		<g>
			<path class="st1" d="M340,237.1c-4,23.6-13,47.1-17.6,52.6c-4.6,5.5-12.1,8.8-29.5,13.4c-20.6,5.5-46.6,7.3-54.6,9.4
				c-5.1,1.4-9.9,3-21.2,4.6c-10.8,1.5-20.7,0.2-22.7-2.9c-1.4-2.4,8.8-7.6,15.9-11.2c9.6-4.8,17-6.3,31.3-13
				c11.3-5.4,35.7-17.7,38.9-21.4c2.8-3.1,1.4-29,1.3-33.6c-0.2-5.1,0.2-10.4,0.9-14.9c0.1,0,27.7-17.5,58.4,1.8
				C341.1,227.2,340.7,232.5,340,237.1z"/>
			<path class="st6" d="M341.6,228.6c-0.6,0-1.3-0.1-2.1-0.5c-29.3-12-45.8-5.8-57.6-1.8c-0.1,0.1-0.3,0.1-0.4,0.1
				c-6.9,2.1-6.1-4.5-4.3-10.4c-0.4-1.7-1.2-4.9-2.8-8.8c0.4-4.1,1.2-9.2,0.3-13.2l7.3-36.8c9.4-6.9,25.6-14.5,41.8-5.8
				c19.2,10.3,25.3,26,20.7,68.3C344.2,222.4,345.1,228.5,341.6,228.6z"/>
			<path class="st2" d="M341.6,228.6c-0.6,0-1.3-0.1-2.1-0.5c-3.9-1.6-7.5-2.9-11-3.8c1.2-4.8,2.1-9.7,2.8-14.6
				c2.1-15,4.6-52.5-16.7-61.4c3,0.6,6,1.7,9.1,3.3c19.2,10.3,25.3,26,20.7,68.3C344.2,222.4,345.1,228.5,341.6,228.6z"/>
			<path class="st4" d="M281.9,226.4c-7.8-0.8-6.5-4.5-4.6-10.6"/>
			<path class="st4" d="M274.4,207.3c1.7,4,2.5,7.3,2.8,9"/>
			<path class="st4" d="M274.4,207.3c0.4-4.1,1.2-9.2,0.3-13.2"/>
			<path class="st5" d="M280.5,158.4c9.4-5.7,27-15.6,43.3-6.9c19.2,10.3,25.3,26,20.7,68.3c-0.3,3.1,0.9,10.9-5,8.3
				c-12.5-5.4-28.2-9.2-45.3-5.5"/>
			<path class="st4" d="M278.2,216.3c12.6-7,32.5-10.4,48.8-3.4"/>
			<path class="st4" d="M287.7,213.1c0.1,1.8,0.5,3.2,1.1,4.9"/>
			<line class="st4" x1="298" y1="210.9" x2="298.8" y2="215.3"/>
			<line class="st4" x1="307.9" y1="210" x2="307.6" y2="214.3"/>
			<g>
				<line class="st18" x1="322.4" y1="248" x2="320.4" y2="254.1"/>
				<line class="st18" x1="314.5" y1="250.8" x2="312.5" y2="256.9"/>
			</g>
		</g>
		<path d="M295.1,167.8c5.3,0,10.4,0.2,15.4,1c4.1,0.6,5.8,3.6,6.3,6.2c0.7,3.7-0.7,5.9-4,6.7c-0.2,0-0.4,0.1-0.7,0.1
			c4.3,2.8,5.3,7.6,8,11.9c-2.9-0.7-5.4-1.2-8.2-1.6c-1.5-2.6-3-5.3-4.5-7.9c-0.8-1.4-1.9-2.5-3.8-2.3c0.3,3,0.5,6.1,0.8,9.3
			c-2.5-0.2-4.8-0.4-7.2-0.5C296.5,183,295.8,175.5,295.1,167.8z M302.8,172.7c0.1,1.6,0.3,3,0.4,4.7c1.6,0,3.1,0.1,4.6,0.1
			c1.3,0,1.9-0.8,1.9-2c-0.1-1.2-0.9-2.2-2.3-2.5C305.9,172.7,304.4,172.8,302.8,172.7z M333,173.2c-3-1.8-6-2.6-8.9-2.3
			c-3.1,0.2-4.9,2.3-4.8,5.3c0.1,2.7,1.8,5.3,4.9,7.4c1.6,1.1,3.3,1.9,4.9,2.9c0.8,0.5,1.6,1,2.3,1.5c0.9,0.7,1.5,1.7,1.5,2.7
			c0,1.1-0.6,1.7-1.5,1.8c-2,0.2-4.3-1.5-5.3-4.1c-0.2-0.5-0.3-1-0.5-1.5c-2.2-0.4-4.3-0.8-6.4-1.1c0.4,4,2.8,7.4,6.1,9.3
			c2.6,1.4,5.1,2.3,7.5,2.7c1.5,0.2,3,0.1,4.2-0.4c3.5-1.7,3.6-8.9-1.9-13.5c-0.9-0.7-1.7-1.4-2.7-1.9c-1.6-1-3.3-1.9-5-2.8
			c-0.9-0.5-1.7-1.1-1.9-2.3c0.3-1.3,1.3-1.5,2.5-1.1c1.9,0.5,3.1,2,3.6,4.2c2.1,0.5,4.1,1,6.3,1.6
			C337.6,177.6,336.1,175.1,333,173.2z"/>
		<path class="st3" d="M228.3,295.8c-7,2.5-13,4.8-18,7.2c-7.1,3.5-17.3,8.8-15.9,11.2c1.9,3.2,11.8,4.4,22.7,2.9
			c10-1.4,16.3-3.2,21.2-4.6C237.3,305.8,233.8,299.6,228.3,295.8z"/>
		<path class="st2" d="M340.9,228.5c-0.2,3-0.5,5.9-0.9,8.6c-4,23.6-13,47.1-17.6,52.6c-4.6,5.5-12.1,8.8-29.5,13.5
			c-20.6,5.5-46.6,7.2-54.6,9.4c-5.1,1.4-9.9,3-21.2,4.6c-10.8,1.5-20.7,0.2-22.7-2.9c-0.6-1.1,1.1-2.8,3.9-4.6
			c4,6.7,36.1-2.5,43.9-4.6c8.2-2.2,37.6-6.3,50.2-9.2c12.6-2.9,20.8-9.2,25-16.3c4.2-7.2,10-27.7,11.9-37.9
			c1.8-9.5,1.9-15.7,0.4-17c3.1,0.9,6.4,2.1,9.9,3.5C340,228.3,340.5,228.5,340.9,228.5z"/>
		<path class="st5" d="M340.9,228.5c-0.2,3-0.5,5.9-0.9,8.6c-4,23.6-13,47.1-17.6,52.6c-4.6,5.5-12.1,8.8-29.5,13.4
			c-20.6,5.5-46.6,7.3-54.6,9.4c-5.1,1.4-9.9,3-21.2,4.6c-10.8,1.5-20.7,0.2-22.7-2.9c-1.4-2.4,10.6-8.6,17.7-12
			c7.3-3.4,15.2-5.4,29.5-12.2c11.3-5.4,35.7-17.7,38.9-21.4c2.8-3.1,1.4-29,1.3-33.6c-0.1-2.9,0-5.8,0.2-8.5"/>
		<path class="st5" d="M228.3,295.8c4.8,3.3,8.8,9.4,9.9,16.7"/>
		<path class="st5" d="M194.4,314.1c11.9-0.6,32.2-5.3,41-10.1"/>
		<g>
			<path class="st0" d="M211.9,92c1.6,3.4,7.1,8,9.5,8.4c5.7,1,12.9-2.8,16.9-7.8c1-1.3,1.6-4.7,1-5.6
				C235.1,89.5,219.8,93.2,211.9,92z"/>
			<path class="st19" d="M231.7,89.8c1-0.3,2.7,0.9,2.9,2.2c0.2,1.3-1.2,3.6-4.1,6.6c3.4-1.9,6.6-4.2,7.7-6c1-1.7,1.4-4.5,1-5.6
				C237.6,88,234.6,89,231.7,89.8z"/>
			<path class="st4" d="M211.9,92c1.6,3.4,7.1,7.9,9.5,8.4c5.4,1,13.7-3.2,16.9-7.8c0.9-1.4,1.6-4.7,1-5.6
				C235.1,89.5,219.8,93.2,211.9,92z"/>
		</g>
	</g>
</g>
</svg>
