<?xml version="1.0" encoding="utf-8"?>
<!-- Generator: Adobe Illustrator 26.0.3, SVG Export Plug-In . SVG Version: 6.00 Build 0)  -->
<!DOCTYPE svg PUBLIC "-//W3C//DTD SVG 1.1//EN" "http://www.w3.org/Graphics/SVG/1.1/DTD/svg11.dtd" [
	<!ENTITY ns_extend "http://ns.adobe.com/Extensibility/1.0/">
	<!ENTITY ns_ai "http://ns.adobe.com/AdobeIllustrator/10.0/">
	<!ENTITY ns_graphs "http://ns.adobe.com/Graphs/1.0/">
	<!ENTITY ns_vars "http://ns.adobe.com/Variables/1.0/">
	<!ENTITY ns_imrep "http://ns.adobe.com/ImageReplacement/1.0/">
	<!ENTITY ns_sfw "http://ns.adobe.com/SaveForWeb/1.0/">
	<!ENTITY ns_custom "http://ns.adobe.com/GenericCustomNamespace/1.0/">
	<!ENTITY ns_adobe_xpath "http://ns.adobe.com/XPath/1.0/">
]>
<svg version="1.1" id="Слой_1" xmlns:x="&ns_extend;" xmlns:i="&ns_ai;" xmlns:graph="&ns_graphs;"
	 xmlns="http://www.w3.org/2000/svg" xmlns:xlink="http://www.w3.org/1999/xlink" x="0px" y="0px" width="328.4px" height="381.9px"
	 viewBox="0 0 328.4 381.9" style="enable-background:new 0 0 328.4 381.9;" xml:space="preserve">
<style type="text/css">
	.st0{fill:none;}
	.st1{fill:#FFFFFF;}
	.st2{fill:#FAFAFA;}
	.st3{fill:#4285F4;}
	.st4{fill:#EA4335;}
	.st5{fill:#FBBC05;}
	.st6{fill:#34A853;}
	.st7{fill:none;stroke:#777777;stroke-width:0.5386;stroke-miterlimit:10;}
	.st8{fill:#E5E5E5;}
	.st9{fill:none;stroke:#727272;stroke-width:0.2693;stroke-miterlimit:10;}
	.st10{fill:#FFDB1F;}
	.st11{fill:none;stroke:#2D1F04;stroke-width:2.8223;stroke-linecap:round;stroke-linejoin:round;stroke-miterlimit:10;}
	.st12{fill:#CAA77A;}
	.st13{fill:#FFDBAF;}
	.st14{fill:#9D7B51;}
	.st15{fill:none;stroke:#9D7B51;stroke-width:4.1689;stroke-linecap:round;stroke-linejoin:round;stroke-miterlimit:10;}
	.st16{opacity:0.23;fill:#3F2719;}
	.st17{fill:#3F2719;}
	.st18{fill:none;stroke:#2D1F04;stroke-width:8.187;stroke-linecap:round;stroke-linejoin:round;stroke-miterlimit:10;}
	.st19{fill:none;stroke:#2D1F04;stroke-width:3.2856;stroke-linecap:round;stroke-linejoin:round;stroke-miterlimit:10;}
	.st20{fill:#251707;}
	.st21{fill:#2D1F04;}
	.st22{fill:#E7E7E7;}
	.st23{fill:#D2D2D2;}
	.st24{fill:#222222;}
	.st25{fill:none;stroke:#D2D2D2;stroke-width:1.6266;stroke-linecap:round;stroke-linejoin:round;stroke-miterlimit:10;}
	.st26{fill:#F0F0F0;}
	.st27{fill:#281D07;}
	.st28{fill:none;stroke:#2D1F04;stroke-width:2.8008;stroke-linecap:round;stroke-linejoin:round;stroke-miterlimit:10;}
	.st29{fill:none;stroke:#9D7B51;stroke-width:4.0719;stroke-linecap:round;stroke-linejoin:round;stroke-miterlimit:10;}
</style>
<metadata>
	<sfw  xmlns="&ns_sfw;">
		<slices></slices>
		<sliceSourceBounds  bottomLeftOrigin="true" height="381.9" width="335.2" x="730.6" y="-823.8"></sliceSourceBounds>
	</sfw>
</metadata>
<path id="SVGID_x5F_1_x5F_" class="st0" d="M185.1,8.7c0,0,80.6,27.2,86.7,117.3"/>
<text><textPath  xlink:href="#SVGID_x5F_1_x5F_" startOffset="61.035%">
<tspan  style="stroke:#FFFFFF;stroke-width:20;stroke-miterlimit:10; font-family:'Comfortaa-Bold'; font-size:37px;">JFGI</tspan></textPath>
</text>
<path class="st1" d="M8.9,313.5l192,67.2c2.2,0.8,4.8,1.2,7.5,1.2c4.9,0,9.8-1.3,13.4-3.6l96-61.3c3.7-2.4,6-6.4,6.4-11.1
	c0,0,0-0.1,0-0.1c1.6-3.2,1.5-6,1-7.9c-0.2-0.6-0.4-1.2-0.6-1.7l3.9-144.4c0-0.1,0-0.1,0-0.2c0-0.7,0-1.4-0.1-2.1
	c-1-10-9.1-18.4-19-19.7l-44.2-4.1c1.5-75.7-79.8-107.6-81.7-108.3c-0.5-0.2-1-0.3-1.6-0.4c-8.9-4.2-18.3-7.7-25.3-9.4
	c-0.8-0.2-1.6-0.3-2.4-0.3c-1-0.3-1.9-0.4-2.9-0.4c-1.4,0-2.8,0.3-4.1,1c-1,0.5-1.9,1.2-2.7,2C141.2,9,137.8,8,134.5,7
	c-1.4-0.4-2.8-0.9-4.3-1.3c-0.6-0.4-1.4-0.9-2-1.4c-0.6-0.4-1.2-0.8-1.7-1.2c-0.7-0.7-1.7-1.5-2.9-2.1c-1.3-0.6-2.7-1-4.1-1
	c-2.6,0-4.5,1-5.8,2c-2.6,1.5-5,4.3-5.3,8.6c-3,0.3-5.4,1.4-7.2,2.3c-1.7,0.3-3.4,0.6-4.9,1c-3.5,0.8-7.2,2.1-10.5,3.8
	c-4.1,1.4-5.5,4.8-5.9,6.2c-0.4,1.5-0.4,3.1-0.1,4.6c-0.5,0.3-2,1.2-3.3,2.2c-2.4,1.7-6.1,4.3-6.4,9.1c-0.1,1.6,0.2,3.2,0.9,4.6
	c-4.2,2.9-7,6-7,10.5c0,4.3,2.9,7.9,6.9,8.9c-0.1,0.2-0.2,0.5-0.3,0.7c-1.5,3.1-2.8,6.4-3.9,9.8c-1.7,4.4-3,9.2-3.9,14.4h-3.4
	c-5.3,0-9.6,4.3-9.6,9.6c0,5.3,4.3,9.6,9.6,9.6h1.5c-0.7,23.6,4.7,46.7,9.2,65.8c2.3,9.7,4.2,18.1,5,24.8l-0.6,8.2
	c-1.4,1.2-2.5,2.6-3.2,3.6c-4.5,4.7-5.9,8.2-6.2,10.6c-1.2,0.6-2.4,1.2-2.9,1.5c-8,3.7-34.9,17.7-44.1,42.7
	c-0.1,0.3-0.2,0.6-0.3,0.9c-2.9,7.3-4.6,15.3-5,23.8l-4.5,1.9c-0.9,0.4-1.7,0.8-2.5,1.3c-3.8,2.4-5.9,6-5.7,10
	C0.1,304.6,0.9,310.7,8.9,313.5z M319.3,150.2c0,0.4,0.1,0.8,0.1,1.2C319.4,151,319.3,150.6,319.3,150.2c0-0.5-0.1-0.9-0.2-1.3
	C319.2,149.3,319.3,149.8,319.3,150.2z M294.6,110.6C294.6,110.6,294.6,110.6,294.6,110.6C294.6,110.6,294.6,110.6,294.6,110.6
	C294.6,110.6,294.6,110.6,294.6,110.6z M294.1,110.7L294.1,110.7l-8.3,2.1L294.1,110.7z M274.1,98.6c-0.1,0-0.1,0-0.2,0
	c0,0-0.1,0-0.1,0C273.9,98.6,274,98.6,274.1,98.6z M263.9,133c-0.2-1.1-0.5-2.1-0.7-3.2c1.4-0.3,2.8-0.5,4.1-0.8
	c-1.3,0.2-2.7,0.5-4.1,0.8C263.5,130.9,263.7,131.9,263.9,133z M208.6,372.9c-0.1,0-0.1,0-0.2,0c-0.1,0-0.1,0-0.2,0
	C208.3,372.9,208.4,372.9,208.6,372.9z M153.9,16.2C153.9,16.2,153.9,16.2,153.9,16.2C153.9,16.2,153.9,16.2,153.9,16.2
	C153.9,16.2,153.9,16.2,153.9,16.2z M151.2,15.8C151.2,15.8,151.2,15.8,151.2,15.8C151.2,15.8,151.1,15.8,151.2,15.8
	C151.1,15.8,151.2,15.8,151.2,15.8z M119.6,9C119.6,9,119.6,9,119.6,9C119.6,9,119.5,9,119.6,9C119.5,9,119.5,9,119.6,9z M118.6,9.6
	C118.6,9.6,118.6,9.6,118.6,9.6C118.6,9.6,118.6,9.6,118.6,9.6C118.5,9.6,118.6,9.6,118.6,9.6z M110.3,19.5c0.2,0,0.3,0,0.5,0
	c-0.3,0-0.5,0-0.8,0C110.1,19.5,110.2,19.5,110.3,19.5z M108.6,19.6c-0.6,0.1-1.2,0.3-1.8,0.5C107.4,19.9,108,19.8,108.6,19.6z
	 M96.4,30.3c0.1,0,0.3,0,0.4,0c0.1,0,0.1,0,0.2,0C96.9,30.3,96.7,30.3,96.4,30.3z M100.3,29.2C100.3,29.2,100.3,29.2,100.3,29.2
	c0,0-0.1,0-0.1,0C100.2,29.2,100.3,29.2,100.3,29.2z M98.4,22.6c0.4-0.1,0.8-0.2,1.3-0.3C99.2,22.4,98.8,22.5,98.4,22.6
	c-0.8,0.2-1.6,0.4-2.4,0.6C96.8,23,97.6,22.8,98.4,22.6z M84.3,194.3c0.4,2.1,0.6,3.8,0.8,5.2C85,198.1,84.7,196.4,84.3,194.3
	L84.3,194.3z M84.2,206.5c0.1-0.2,0.3-0.5,0.4-0.7C84.5,206,84.4,206.3,84.2,206.5C84.2,206.5,84.2,206.5,84.2,206.5z M83.9,212.5
	c0.2,0,0.5,0,0.7,0c-0.3,0-0.7-0.1-1,0C83.7,212.5,83.8,212.5,83.9,212.5z M83.5,41.8c-0.1,0-0.1,0-0.2,0c0,0-0.1,0-0.1,0
	C83.3,41.8,83.4,41.8,83.5,41.8z M82.8,212.3C82.8,212.3,82.8,212.3,82.8,212.3C82.8,212.3,82.8,212.3,82.8,212.3
	C82.8,212.3,82.8,212.3,82.8,212.3z M81.3,41.3c0,0.1,0.1,0.1,0.1,0.2C81.4,41.4,81.4,41.4,81.3,41.3c0-0.1,0-0.2,0-0.2
	C81.3,41.2,81.3,41.2,81.3,41.3z M73.2,55C73.2,55,73.2,55,73.2,55C73.2,55,73.2,55,73.2,55C73.2,55,73.2,55,73.2,55z M75,54.2
	c1.4-0.4,3-0.5,4.5-0.8C77.9,53.7,76.4,53.8,75,54.2z"/>
<g>
	<g>
		<path class="st2" d="M282,275.5C229,265,176.2,253.9,123.4,243c-3.4-34.5-5.7-69-7.8-103.6c56,7.2,112,14.9,168.1,21.8
			C283.4,199.3,282.2,237.4,282,275.5z"/>
		<g>
			<g>
				<path id="path4487_00000061447160652242833900000015523410491416408971_" class="st3" d="M170.6,180.4c0.1-4.7,4.1-8,8.6-7.5
					c2.5,0.3,4.2,1.6,5.5,3.1c-0.7,0.6-1,0.9-1.6,1.5c-0.9-1.1-2.2-2-4-2.2c-3.3-0.4-6,2-6.1,5.4c-0.1,3.5,2.4,6.6,5.6,7.1
					c2.1,0.3,3.3-0.4,4.1-1.1c0.7-0.6,1.1-1.5,1.3-2.8c-2.1-0.3-3.2-0.4-5.3-0.8c0-0.9,0-1.4,0.1-2.4c3,0.4,4.5,0.6,7.4,1
					c0.1,0.4,0.1,0.9,0.1,1.5c-0.1,1.8-0.6,3.9-2.1,5.3c-1.5,1.4-3.3,2-5.7,1.6C174.2,189.6,170.5,185.1,170.6,180.4L170.6,180.4z"
					/>
				<path id="path4489_00000018234026756488483830000011786414401640494214_" class="st4" d="M192.5,180.9c-2.8-0.4-5.3,1.6-5.4,4.9
					c-0.1,3.3,2.1,6,4.9,6.4c2.8,0.4,5.2-1.7,5.4-4.9C197.6,184,195.4,181.3,192.5,180.9z M192.1,190c-1.5-0.2-2.8-1.8-2.7-3.9
					c0.1-2,1.5-3.2,3.1-3c1.5,0.2,2.8,1.8,2.7,3.8C195.1,189,193.6,190.3,192.1,190z"/>
				<path id="path4491_00000030472150824576442520000004703346754940683684_" class="st5" d="M203.7,182.5c-2.8-0.4-5.2,1.7-5.4,5
					c-0.2,3.3,2,6.1,4.8,6.5c2.8,0.4,5.2-1.7,5.4-5C208.7,185.6,206.5,182.9,203.7,182.5z M203.2,191.7c-1.5-0.2-2.8-1.9-2.7-3.9
					c0.1-2.1,1.5-3.3,3.1-3.1c1.5,0.2,2.8,1.8,2.7,3.9C206.1,190.7,204.7,191.9,203.2,191.7z"/>
				<path id="path4493_00000078037450524638340800000017022365373672876471_" class="st3" d="M217.3,184.7c0,0.4,0,0.6-0.1,0.9
					c0,0,0,0-0.1,0c-0.5-0.8-1.4-1.5-2.6-1.7c-2.5-0.3-5,1.8-5.2,5.1c-0.2,3.2,2,6.1,4.5,6.5c1.2,0.2,2.2-0.3,2.7-0.9c0,0,0,0,0.1,0
					c0,0.3,0,0.5-0.1,0.9c-0.1,2.2-1.2,3.3-2.9,3c-1.4-0.2-2.1-1.5-2.4-2.5c-0.8,0.3-1.2,0.4-2,0.6c0.5,1.6,1.8,3.8,4.3,4.2
					c2.6,0.4,4.9-1,5.2-5.4c0.3-4.2,0.4-6.4,0.6-10.5C218.6,184.9,218.1,184.8,217.3,184.7z M214.2,193.3c-1.5-0.2-2.7-1.9-2.6-3.9
					c0.1-2,1.5-3.3,3-3.1c1.5,0.2,2.6,1.9,2.5,3.9C217,192.2,215.7,193.5,214.2,193.3z"/>
				<path id="path4495_00000084496530116188727930000000856240903380612783_" class="st6" d="M221.3,179.1c0.9,0.1,1.3,0.2,2.2,0.3
					c-0.4,6.7-0.6,10.2-1,17.2c-0.9-0.1-1.3-0.2-2.2-0.3C220.7,189.3,220.9,185.8,221.3,179.1z"/>
				<path id="path4497_00000157310190985401738140000006268401213643226272_" class="st4" d="M228.7,195.5c-1.1-0.2-1.9-0.9-2.4-2.2
					c2.8-0.9,4.2-1.4,7-2.3c-0.1-0.3-0.1-0.4-0.2-0.7c-0.3-1.4-1.5-4-4.1-4.4c-2.6-0.4-4.9,1.7-5.2,5.2c-0.2,3.3,1.8,6.3,4.7,6.7
					c2.3,0.4,3.8-1.1,4.4-2c-0.7-0.7-1-1-1.7-1.6C230.7,195.1,229.9,195.7,228.7,195.5L228.7,195.5z M229,188.2
					c0.9,0.1,1.6,0.7,1.8,1.5c-1.9,0.6-2.8,0.9-4.7,1.5C226.2,189,227.9,188.1,229,188.2z"/>
			</g>
			<path class="st7" d="M243.6,224.7c-28.6-5.3-57.1-10.7-85.7-16c-2.6-0.5-4.8-3.1-4.9-5.8c0-0.3,0-0.5,0-0.8
				c0-2.7,2.2-4.6,4.9-4.1c28.8,4.9,57.5,9.8,86.3,14.6c2.7,0.4,4.7,3.4,4.6,6.5c0,0.3,0,0.5,0,0.9
				C248.6,223,246.3,225.1,243.6,224.7z"/>
			<g>
				<g>
					<path class="st8" d="M210.1,235.6c-8.2-1.7-12.2-2.5-20.3-4.2c-1.9-0.4-3.5-2.5-3.4-4.7c0-0.2,0-0.4,0-0.6
						c0.1-2.2,1.7-3.7,3.7-3.3c8.2,1.6,12.2,2.4,20.4,4.1c2,0.4,3.5,2.6,3.3,4.9c0,0.3,0,0.4,0,0.6C213.7,234.5,212,236,210.1,235.6
						z"/>
					<path class="st9" d="M210.1,235.6c-8.2-1.7-12.2-2.5-20.3-4.2c-1.9-0.4-3.5-2.5-3.4-4.7c0-0.2,0-0.4,0-0.6
						c0.1-2.2,1.7-3.7,3.7-3.3c8.2,1.6,12.2,2.4,20.4,4.1c2,0.4,3.5,2.6,3.3,4.9c0,0.3,0,0.4,0,0.6C213.7,234.5,212,236,210.1,235.6
						z"/>
				</g>
				<g>
					<path d="M195.8,226.3c-0.1,1.5-0.1,2.2-0.2,3.6c-0.2,0-0.3-0.1-0.6-0.1c0-1.2,0.1-1.8,0.1-3.1c-0.7-0.1-1-0.2-1.6-0.3
						c0,1.2-0.1,1.8-0.1,3.1c-0.2,0-0.3-0.1-0.6-0.1c0.1-1.4,0.1-2.2,0.1-3.6C194.1,226,194.7,226.1,195.8,226.3z"/>
					<path d="M196.9,230.1c-0.2-0.2-0.3-0.4-0.4-0.6c-0.1-0.2-0.1-0.5-0.1-0.8c0-0.3,0.1-0.5,0.2-0.7c0.1-0.2,0.3-0.3,0.5-0.4
						c0.2-0.1,0.4-0.1,0.7,0c0.2,0.1,0.5,0.2,0.7,0.3c0.2,0.2,0.3,0.4,0.4,0.6c0.1,0.2,0.1,0.5,0.1,0.8c0,0.3-0.1,0.5-0.2,0.7
						c-0.1,0.2-0.3,0.3-0.5,0.4c-0.2,0.1-0.4,0.1-0.7,0C197.3,230.3,197.1,230.2,196.9,230.1z M198.1,229.7c0.1-0.1,0.2-0.3,0.2-0.6
						c0-0.3,0-0.5-0.2-0.7c-0.1-0.2-0.3-0.3-0.5-0.3s-0.4,0-0.5,0.1c-0.1,0.1-0.2,0.3-0.2,0.6c0,0.3,0,0.5,0.2,0.7
						c0.1,0.2,0.3,0.3,0.5,0.3C197.8,229.9,198,229.8,198.1,229.7z"/>
					<path d="M199.5,228c0.2,0,0.3,0.1,0.6,0.1c0,0.7-0.1,1.1-0.1,1.8c0.6-0.6,0.8-0.9,1.4-1.6c0.2,0,0.3,0.1,0.5,0.1
						c-0.1,1.1-0.1,1.7-0.1,2.8c-0.2,0-0.3-0.1-0.6-0.1c0-0.7,0.1-1.1,0.1-1.8c-0.6,0.6-0.8,0.9-1.4,1.6c-0.2,0-0.3-0.1-0.5-0.1
						C199.4,229.6,199.5,229.1,199.5,228z"/>
					<path d="M203,231.3c-0.2-0.2-0.3-0.4-0.4-0.6c-0.1-0.2-0.1-0.5-0.1-0.8c0-0.3,0.1-0.5,0.2-0.7c0.1-0.2,0.3-0.3,0.5-0.4
						c0.2-0.1,0.4-0.1,0.7,0c0.2,0,0.4,0.1,0.6,0.3c0.2,0.1,0.3,0.3,0.4,0.6c-0.2,0.1-0.3,0.1-0.4,0.2c-0.1-0.1-0.1-0.3-0.2-0.3
						s-0.2-0.1-0.3-0.2c-0.2,0-0.4,0-0.5,0.1c-0.1,0.1-0.2,0.3-0.2,0.6c0,0.3,0,0.5,0.2,0.7c0.1,0.2,0.3,0.3,0.5,0.3
						c0.1,0,0.2,0,0.3,0c0.1,0,0.2-0.1,0.3-0.2c0.2,0.2,0.3,0.2,0.4,0.4c-0.1,0.2-0.2,0.3-0.4,0.4s-0.4,0.1-0.6,0
						C203.4,231.6,203.2,231.5,203,231.3z"/>
					<path d="M206.2,231c-0.2,0-0.3-0.1-0.4-0.1c0,0.4,0,0.7-0.1,1.1c-0.2,0-0.3-0.1-0.6-0.1c0.1-1.1,0.1-1.7,0.1-2.8
						c0.2,0,0.3,0.1,0.6,0.1c0,0.5,0,0.7-0.1,1.1c0.2,0,0.3,0.1,0.5,0.1c0.3-0.4,0.5-0.6,0.8-1c0.2,0,0.4,0.1,0.6,0.1
						c-0.4,0.5-0.6,0.7-0.9,1.2c0.3,0.7,0.5,1,0.9,1.6c-0.3-0.1-0.4-0.1-0.7-0.1C206.7,231.8,206.5,231.5,206.2,231z"/>
				</g>
			</g>
		</g>
	</g>
</g>
<g>
	<path class="st10" d="M77.1,225.3c-0.9-0.8-2.8-2-3-3.4c-0.3-2.4,6.3-9.3,8.7-9.9c4.6-1.2,11.1,4.8,15.7,6.5
		c1.2,0.5,4.8-0.1,5.5,0.9c2.5,3.3,1.9,16.8,2.4,21.4c0.2,1.6,2.2,17.1,1.9,17.4c-1.2,1.6-17.5,6.9-19.3,6.3
		c-1.9-0.7-4.1-3.4-5.9-4.5c-4.5-2.6-11.4-2.3-16.4-3.2c-4.7-0.8-10.4-3.5-15-0.5c-3.8,2.4-7.4,2.7-11.4,4.7
		c-4.1,2.1-8.3,7.9-10.6,11.8c-1.3,2.2-3.9,22-6.3,21.5c-1.1-0.2-0.4-6-0.3-6.7c1.1-6.4,1.4-14.3,3.6-20.4
		c6.1-16.7,23.6-30.3,39.4-37.6c1.6-0.7,8.4-4.1,9.1-5.6c1-1.9-2.6-3.2,1.3-4.3"/>
	<path class="st11" d="M37.7,289.2c9.7,6.1,18.5,9.2,29.9,10.4"/>
	<path class="st11" d="M35.6,290.6c12.7,8.1,28.5,13.6,43.5,8"/>
	<path class="st12" d="M92.2,49.8c-3.4,0-12.1,17.2-14.1,20.7c-14.7,26-6.1,72.7,3.9,112.5c7.3,29.4,0.1,18.7,2.2,27.3
		c1.5,6,21.6,10.3,27.7,11.9c23.3,5.9,44.9-6.2,68.3-6.2c5.8,0,22.7,1.8,27.5-3.1c4.1-4.2,5.4-9.6,8.7-14.3
		c4.5-6.4,14.9-14.1,22.2-17c7.5-3,16.8-1.2,24.2,0.7c1.9,0.5,7.5,2.9,9.4,1c3-3.1,4.5-12.1,3.7-16c-2.1-10.4-13.6,21.2-15.6,11.1
		c-1.4-6.9,3.5-44.7,1-51.3c-9.9-26.1-19.1-63-41.2-79.3c-5.6-4.1-14.8-11.3-21.2-14.5c-6.1-3.1-10.3-3.5-16.4-6.6
		c-8.1-4.1-19.6-8.9-28.2-11c-2.2-0.6,0.9,3.3,0.7,3.7c-0.3,0.6-5.6,0.5-6.4,0.3c-7.2-1.5-14.6-1.3-21.5-4.4
		c-1.1-0.5-7.2-6.8-8.5-6.3c-4.1,1.4,3.8,14.8,3.8,14.8s-0.6-1-1-1.4c-2-1.6-6.5-2.9-9.1-3.4c-5.5-1.1-7.8,2.5-12.4,3.4
		c-0.6,0.1-6,1.6-6,1.7c0,1.2,8.7,2.5,8.7,3.7c0,1.1-1.9,0.6-2.4,0.7c-2.6,0.4-19.9,8.9-18.9,12.1c0.5,1.4,11-0.8,12.5,0.1
		c0.4,0.2,1.3,0.3,1.3,0.3s-6.1,0.9-9.1,1.7c-3.7,0.9-11.4,9.5-4.7,9.5"/>
	<path class="st13" d="M76.2,102.5C79,90.9,86.1,77.9,96.3,76c12-2.3,22.1,7.5,33.7,7.1c2.2-0.1,6.4-1.4,7.7-3.3
		c1.2-1.8,0-4.3,0-4.3c1.8,0.5,3.7,3.2,5.9,3.9c8.7,2.6,17.8-5.2,25.7-7.6c26.4-8.1,46.9-5.2,61,20.6c3.2,5.8,8,19,4.7,33.8
		c-4.8,21.6-7.3,30.6-30.4,46.7c-27.4,19.2-84.3,28.7-112.6-7.6C78.7,148.2,71,124.2,76.2,102.5z"/>
	<path class="st14" d="M129.3,112.4c-9.6-4.8-17.3,19.6-16.6,26.7c2.6,24.1,37.4,22.8,53.6,14.7c23.3-11.8-5.2-49.8-21.8-43"/>
	<path class="st14" d="M76.8,100.4c-5.2,9.6-2.4,37.4,4.7,46c0.6-0.2,39-9.9,36-49.5c-0.2-2.4-24.2,1.4-27.7,2.1
		C85.1,100,78.9,96.5,76.8,100.4z"/>
	<path class="st14" d="M163.8,98.2c-2.5,44.1,60.8,64.1,67.5,54.3c4.3-6.3,10-39.6-1.2-59.5c-1.1-1.9-13.5,2.2-15.5,2.6
		C198,98.3,164.2,90.1,163.8,98.2z"/>
	<line x1="104.1" y1="188.9" x2="104.1" y2="196.9"/>
	<line class="st15" x1="104.1" y1="188.9" x2="104.1" y2="196.9"/>
	<line x1="111.9" y1="193" x2="111.9" y2="201"/>
	<line class="st15" x1="111.9" y1="193" x2="111.9" y2="201"/>
	<path class="st1" d="M181.6,99.8c0,3.6,0.7,6.1,1.9,7.7c3.6,4.7,11.7,2.1,19.8,0.7c8.8-1.5,10.7-7,12.3-10.3"/>
	<path class="st1" d="M82.9,97.8c-7.4,19.6,23.4,17.5,29,2.6"/>
	<path class="st16" d="M75,52.2c5.7,0,10.5-1.6,16-2.9c1.5-0.4,4.7-2.1,4.7-0.5c0,0.4-0.6,0.3-0.9,0.5c-4.7,2.9-8.6,7-11.3,11.9
		c-0.9,1.7-3.5,6.4-2.8,5.2c21.6-39.4,178.2-54.2,169.2,105.9c-0.1,1.4-1.8,3.8-0.5,4.3c2.8,1,7.3-1.8,10.8-0.5
		c1.6,0.6,12.9,7,14.1,6.2c2-1.4-9-7.6-8.7-10c8-53.9-30.7-110.3-48.9-126c-23.3-20-62.1-28.9-63-29.1c-0.2,0-3.8,2.2-5.7,1.9
		c-6.8-1.1-14.4-3.8-21.2-5.7c-1-0.3-7.3-5.2-7.5-4.8c-0.8,1.6-1.2,10.2-0.5,11.5c0.5,0.9,3.9-0.5,2.8-0.5c-8.7,0-19.8,2.9-29.2,4.8
		c-0.3,0.1-0.9,0.1-0.9,0.5c0,2.7,12.3,0.9,12.3,2.9c0,1.4-17,6.2-19.3,8.1c-0.7,0.6-3.5,2.7-2.8,3.3c2.3,2.3,7.9-0.6,10.8,1"/>
	<path class="st17" d="M335.2,232.2"/>
	<path class="st11" d="M335.2,232.2"/>
	<path class="st11" d="M94.3,48C87.9,52.4,82,60.9,78.8,67.7c-25.4,54.2,12.6,121.7,4.5,143"/>
	<path class="st11" d="M92.4,48.9c-3.1,1.6-5.2,1.6-8.4,2.5c-1.6,0.5-2.9,1.1-4.5,1.4c-1.5,0.3-3,0.4-4.5,0.8c-0.7,0.2-2,1.3-2,0.6
		c0-2.1,16.9-11.6,20.1-12.7c0.5-0.2,1.2-0.1,1.4-0.6c0.2-0.7-1.3-0.7-2-0.8c-3.2-0.8-10.8,1.7-13.4-0.3c-0.7-0.5,5-4.1,5.3-4.2
		c3.5-2,7-4.5,10.9-5.6c2.3-0.7,7,1,7-1.4c0-2.9-12.7-1.8-13.7-2.8c-0.1-0.1,0.4-0.2,0.6-0.3c2.9-1.5,6.1-2.6,9.2-3.4
		c5.8-1.4,16.1-2.8,21.8-0.8"/>
	<path class="st11" d="M121.1,22.6c-1.6-3.3-4.6-8.8-3.1-12.7c0.1-0.2,1.4-1.6,1.7-1.4c1.1,0.6,1.9,2.6,3.3,3.4
		c5.5,3,11.7,5.1,17.9,6.5c3.6,0.8,7.3,1.2,10.9,2c0.8,0.2,2.5,0.3,2.5,0.3s-4.9-4.4-3.1-5.4c0.3-0.2,14.3,5.1,15.6,5.6
		c10,3.9,20.2,6.3,29.7,11"/>
	<path class="st11" d="M180.6,25.4c70,23.5,87.1,110.2,87.1,160.3"/>
	<path class="st11" d="M275.8,172.4c0.2,1.5-0.2,3.6-0.3,5.6"/>
	<path class="st11" d="M276.1,174.9c0.3,1.9-0.1,3.7,0.2,5.5"/>
	<line class="st18" x1="237.9" y1="94.6" x2="60.3" y2="97.8"/>
	<path class="st19" d="M178.7,100.5c5.5,16.8,34.6,11.5,35.2-2.2"/>
	<path class="st19" d="M81.9,102.9c-2.4,12.1,30.4,13.1,30.4-2.2"/>
	<path class="st20" d="M123.6,112.5c-0.2-3.6,6.9-7,15.8-7.4c8.9-0.4,16.3,2.2,16.4,5.8c0.2,3.6-6.9,7-15.8,7.4
		C131.1,118.7,123.8,116.1,123.6,112.5z"/>
	<path class="st19" d="M199.6,97.8c0.3-0.2,0.6-0.4,0.9-0.6"/>
	<path class="st19" d="M139.7,119.4c0,13.6,7.6-2.4,18.1,2.9"/>
	<path class="st21" d="M98.4,100.2c0-3,2.4-5.4,5.3-5.4c2.9,0,5.3,2.4,5.3,5.4c0,3-2.4,5.4-5.3,5.4
		C100.8,105.6,98.4,103.2,98.4,100.2z"/>
	<path class="st21" d="M198.7,98.2c0-3,2.4-5.4,5.3-5.4c2.9,0,5.3,2.4,5.3,5.4c0,3-2.4,5.4-5.3,5.4
		C201.1,103.6,198.7,101.2,198.7,98.2z"/>
	<path class="st21" d="M191.4,104.1c-0.4,0-0.8-0.1-1.3-0.1"/>
	<path class="st22" d="M122,256.9l190,41.9c3.9,0.8,4.4,7.8,1,10l-96,61.3c-3.4,2.2-9.2,2.8-13,1.5L12,304.5
		c-3.8-1.3-3.9-3.7-0.2-5.2l86.4-36.6C102,261.1,118,256.1,122,256.9z"/>
	<path class="st11" d="M122,256.9l190,41.9c3.9,0.8,4.4,7.8,1,10l-96,61.3c-3.4,2.2-9.2,2.8-13,1.5L12,304.5
		c-3.8-1.3-3.9-3.7-0.2-5.2l86.4-36.6C102,261.1,118,256.1,122,256.9z"/>
	<path class="st23" d="M124.8,256.4l190,41.9c3.9,0.8,0.1,5.2-3.2,7.3l-98.1,61.7c-3.4,2.2-9.6,0.5-13.4-0.8L16.3,302.7
		c-3.8-1.3-5.6-1.2-1.9-2.7l80.5-35.1l6.2-2.7C104.8,260.6,120.9,255.6,124.8,256.4z"/>
	<path class="st23" d="M107,112.6l201.2,25.5c6.2,0.8,11.2,6.5,11.2,12.8l-4.1,153L107,258.2L96.5,122.5
		C96.1,116.3,100.8,111.8,107,112.6z"/>
	<path class="st11" d="M107,112.6l201.2,25.5c6.2,0.8,11.2,6.5,11.2,12.8l-4.1,153L107,258.2L96.5,122.5
		C96.1,116.3,100.8,111.8,107,112.6z"/>
	<path class="st24" d="M108.1,112.3l196.8,25.5c6.1,0.8,11,6.5,11,12.8l-4.5,151.8l-202.7-46.2L97.8,122.2
		C97.4,115.9,102,111.5,108.1,112.3z"/>
	<path class="st11" d="M108.1,112.3l196.8,25.5c6.1,0.8,11,6.5,11,12.8l-4.5,151.8l-202.7-46.2L97.8,122.2
		C97.4,115.9,102,111.5,108.1,112.3z"/>
	<polygon class="st2" points="101.2,123.6 304.1,151.6 304.2,291.5 125.7,254.2 109.5,250.8 	"/>
	<polygon class="st11" points="101.2,123.6 304.1,151.6 304.2,291.5 125.7,254.2 109.5,250.8 	"/>
	<polygon class="st24" points="105.9,264.4 293.4,306.8 243.9,336.6 59.3,283.7 	"/>
	<line class="st25" x1="66.2" y1="279.7" x2="262.8" y2="333.1"/>
	<line class="st25" x1="78" y1="274.5" x2="272.5" y2="327.5"/>
	<line class="st25" x1="87" y1="269.3" x2="280.7" y2="319.6"/>
	<polyline class="st25" points="98,265.8 280.1,309.7 288.8,311.8 292.3,312.7 	"/>
	<line class="st25" x1="227.4" y1="336.7" x2="281.1" y2="301.9"/>
	<line class="st25" x1="213" y1="332.7" x2="264.6" y2="298.5"/>
	<line class="st25" x1="197.2" y1="327.7" x2="250.2" y2="293.6"/>
	<line class="st25" x1="184.3" y1="322.6" x2="236" y2="290.7"/>
	<line class="st25" x1="182" y1="311.1" x2="221.4" y2="286.5"/>
	<polyline class="st25" points="168.5,307 192.5,292.4 206.4,283.9 	"/>
	<line class="st25" x1="155" y1="303.6" x2="189.4" y2="281.3"/>
	<line class="st25" x1="139" y1="299.4" x2="174.2" y2="277.4"/>
	<path class="st25" d="M123.6,295.4c0,0,36.6-21.3,37.1-20.7"/>
	<polyline class="st25" points="88.9,302 94.4,298.9 146.9,271.5 	"/>
	<line class="st25" x1="72.8" y1="300.4" x2="134.6" y2="267.6"/>
	<line class="st25" x1="52.8" y1="297.9" x2="121.9" y2="264.9"/>
	<path class="st11" d="M83.7,211.9c-3.3-0.9-5.6,4.2-7.8,7.3c-3,4.3,1.8,4.2-3.5,7.3c-17.8,10.5-51.3,24.4-50.6,67.8"/>
	<path class="st11" d="M84,211.6c9.1,6.1,10.9,6.9,22.1,8.3"/>
	<path class="st11" d="M75.3,224.6c7.5,5.9,13.8,8.2,23.4,10.2"/>
	<path class="st26" d="M116.6,303.2l64.8,18.6c1.3,0.4,1.4,1.2,0.2,1.8l-33.5,17.2c-1.2,0.6-3.2,0.8-4.5,0.3l-65.4-22
		c-1.3-0.4-1.3-1.2-0.1-1.7l33.8-14C113.2,302.9,115.3,302.8,116.6,303.2z"/>
	<path class="st2" d="M237.9,163.8c-0.5-0.6-0.2-1.7-0.7-2.3c-0.3-0.4-0.7-0.8-1.1-1.2c-3-2.7-1.3,4.9,1.7,4c1.3-0.4,3.3-3.8,6.1-3
		C244.8,161.6,238.7,164.9,237.9,163.8z"/>
	<path class="st2" d="M161,178.1c0.5-0.6,0.2-1.7,0.7-2.3c0.3-0.4,0.7-0.8,1.1-1.2c3-2.7,1.3,4.9-1.7,4c-1.3-0.4-3.3-3.8-6.1-3
		C154,175.9,160.2,179.2,161,178.1z"/>
	<path class="st2" d="M180.4,153.4c0.5-0.5,0.5-1.6,1-2.2c0.3-0.4,0.7-0.7,1.1-1c2.8-2.1,0,5-2.1,3.6c-0.9-0.6-1.8-4.2-4.1-3.9
		C175.4,150.2,179.5,154.4,180.4,153.4z"/>
	<path class="st27" d="M178.4,215.2L178.4,215.2c-0.2,0-0.3,0.1-0.3,0.3c0,0.2,0.1,0.3,0.3,0.3c0.2,0,0.3-0.1,0.3-0.3
		C178.7,215.3,178.6,215.2,178.4,215.2z"/>
	<path class="st12" d="M26.2,291.4c-2.6-10.5,7.9-28,20.9-32.4c3.5-1.2,9-3.8,12.7-3c0.6,0.1,10.1,0.5,10.1,0.1c0-0.2,3.1,1.6,3,1.6
		c-5-1.3-16.6,3.7-20.2,6.6c-5.3,4.2-7.8,13-11.5,18.5c-1,1.5,0.6,2.5,1.6,2.2C43.1,284.8,26.2,291.8,26.2,291.4z"/>
	<path class="st23" d="M42,282.8c-0.5-5.8,4.7-11.8,8.8-15.7c2.9-2.7,18.4-13.1,22.1-10.7c4.7,3,10.5,5.1,15.2,8.6
		c3.5,2.7,7.9,5.1,9.2,9.6c2,7.1,5,15,8.4,21.5c0.4,0.7,2.6,5.8,1,6c-1.7,0.2-4.5-3.8-5.6-4.7c-2.8-2.6-15.1-15.1-19.4-12.5
		c-5.3,3.2-12.3,8.3-18.7,8.9c-3.2,0.3-18.1-5.9-20.2-8.5C42.2,284.7,42.1,283.9,42,282.8z"/>
	<path class="st11" d="M25.6,293.1c-1-3.6,0.4-11,1.6-14.3c6.1-16.3,24-25.2,40.6-23.2c5.5,0.7,10.9,2.6,15.6,5.8
		c9.1,6.2,23.4,27.1,23.2,39.9c0,0.5,0.6,1.3-2.9-1.6c-4.7-3.9-14-11.9-16.6-13.7c-5.8-4.1-15.1,7.2-22.5,7.2
		c-7.4,0-18.1-2.9-23.6-7.2"/>
	<path class="st11" d="M40.6,287c8.4-23.6,16.7-26.1,31.7-30.3"/>
	<path class="st11" d="M53.9,264.8c2.8-0.8,36.1,21.7,52.1,36.9"/>
	<path class="st11" d="M47.1,274.2c8.3,6.9,17.7,12.4,28.2,14.2"/>
	<path class="st16" d="M35.5,290.4c-1.2,0.8,14,9.4,18.1,10.4c11.9,3,21.9-5.1,33.3-2c2.2,0.6,20.1,6.3,21.3,4.4
		c0.8-1.2-5.5-3.9-6.3-4.7c-4.3-4.2-11-11.5-17.1-13.4c-7-2.2-12.6,7.9-19.6,8c-3.6,0.1-7.3,0.3-10.8-0.6c-4.5-1.1-8.4-5.2-13-5.7
		C39.8,286.7,37.1,289.3,35.5,290.4z"/>
	<path class="st16" d="M104.1,225.6c-1.4,8.1,1.5,30.6-14.1,40.2c1.9,0.3,4.5-2.1,6.1-3c3.5-2,8.3-2.1,11.4-4.5
		c0.2-0.1,0.4-0.3,0.4-0.6c0.6-4.5-2-12.2-2.5-16.8c-0.3-3-1.3-6.6-0.9-9.6C104.7,229.4,104.4,223.8,104.1,225.6z"/>
	<line class="st28" x1="88" y1="215.5" x2="84.2" y2="222.5"/>
	<line class="st28" x1="92.9" y1="218" x2="89.1" y2="224.9"/>
	<line class="st29" x1="100.6" y1="56.2" x2="100.7" y2="63.6"/>
	<line class="st29" x1="107.1" y1="58.7" x2="107.1" y2="66"/>
	<line class="st29" x1="93" y1="197.8" x2="93.1" y2="205.2"/>
</g>
<rect x="254.3" y="72.1" class="st1" width="11.3" height="20.5"/>
<g>
	<path d="M251.1,44.4c-0.6,0.4-1,0.9-1.3,1.5c-0.3,0.6-0.5,1.2-0.6,1.8c-0.1,0.6-0.1,1.3,0.1,1.9c0.2,0.7,0.4,1.3,0.9,1.8
		c0.4,0.6,0.9,1,1.5,1.3c0.6,0.3,1.2,0.5,1.8,0.6c0.6,0.1,1.3,0,1.9-0.1c0.6-0.2,1.3-0.4,1.8-0.9l14.5-10.9c0.4-0.3,0.9-0.4,1.4-0.4
		c0.5,0.1,0.9,0.3,1.3,0.7s0.4,0.9,0.4,1.4c-0.1,0.5-0.3,0.9-0.7,1.3l-14.5,10.9c-1,0.7-2,1.2-3.2,1.5c-1.1,0.3-2.3,0.3-3.4,0.2
		c-1.1-0.2-2.2-0.5-3.2-1.1s-1.9-1.4-2.6-2.3c-0.7-1-1.2-2-1.5-3.2s-0.3-2.3-0.2-3.4c0.2-1.1,0.5-2.2,1.1-3.2c0.6-1,1.3-1.9,2.3-2.6
		c0.4-0.3,0.9-0.4,1.4-0.4c0.5,0.1,0.9,0.3,1.3,0.7s0.4,0.9,0.4,1.4C251.8,43.6,251.5,44.1,251.1,44.4z"/>
	<path d="M255,61.2l22.2-11.7c0.2-0.1,0.5-0.2,0.7-0.2c0.3,0,0.5,0,0.7,0.1c0.2,0.1,0.4,0.2,0.6,0.3c0.2,0.2,0.4,0.4,0.5,0.6
		l7.8,14.8c0.2,0.5,0.3,1,0.1,1.5c-0.2,0.5-0.5,0.9-0.9,1.1s-1,0.3-1.5,0.1s-0.9-0.5-1.1-0.9l-6.9-13.1l-7.7,4l4.9,9.4
		c0.2,0.5,0.3,1,0.1,1.5c-0.2,0.5-0.5,0.9-0.9,1.1c-0.5,0.2-1,0.3-1.5,0.1c-0.5-0.2-0.9-0.5-1.1-0.9l-4.9-9.4l-9.4,4.9
		c-0.5,0.2-1,0.3-1.5,0.1c-0.5-0.2-0.9-0.5-1.1-0.9c-0.2-0.5-0.3-1-0.1-1.5C254.2,61.8,254.5,61.4,255,61.2z"/>
	<path d="M275,103.3c-0.5,0.1-1,0.1-1.5-0.2c-2.8-1.9-4.7-4.5-5.7-7.7c-1.2-3.8-0.8-7.5,1-11s4.7-5.9,8.5-7c3.8-1.2,7.5-0.8,11,1.1
		c3.5,1.9,5.9,4.7,7.1,8.5c1,3.3,0.8,6.6-0.5,9.9c-0.2,0.4-0.6,0.7-1.1,0.9c-0.3,0.1-0.5,0.1-0.8,0.1c-0.2,0-0.5-0.1-0.7-0.2
		c-0.2-0.1-0.4-0.3-0.6-0.5s-0.3-0.4-0.4-0.7c-0.1-0.5-0.1-0.9,0.1-1.4c0.4-1.1,0.7-2.2,0.7-3.4c0-1.2-0.1-2.3-0.5-3.5
		c-0.9-2.8-2.6-4.9-5.2-6.3c-2.6-1.4-5.3-1.6-8.1-0.8c-2.8,0.9-4.9,2.6-6.3,5.2c-1.4,2.6-1.6,5.3-0.8,8.1c0.6,2.1,1.8,3.8,3.4,5.1
		l5.4-1.6l-1.5-4.8c-0.2-0.5-0.1-1,0.1-1.5c0.2-0.5,0.6-0.8,1.1-0.9c0.3-0.1,0.5-0.1,0.8-0.1s0.5,0.1,0.7,0.2
		c0.2,0.1,0.4,0.3,0.6,0.5s0.3,0.4,0.4,0.7l2,6.6c0.1,0.2,0.1,0.5,0.1,0.7c0,0.2-0.1,0.5-0.2,0.7c-0.1,0.2-0.3,0.4-0.5,0.6
		c-0.2,0.2-0.4,0.3-0.7,0.4L275,103.3z"/>
	<path d="M273.3,111.5c-0.5,0.1-1,0-1.4-0.3c-0.4-0.3-0.7-0.7-0.8-1.2c-0.1-0.5,0-1,0.3-1.4c0.3-0.4,0.7-0.7,1.2-0.8l24.7-4.3
		c0.5-0.1,1,0,1.4,0.3c0.4,0.3,0.7,0.7,0.8,1.2s0,1-0.3,1.4c-0.3,0.4-0.7,0.7-1.2,0.8L273.3,111.5z"/>
</g>
<g id="g4567" transform="matrix(1.1125946,0,0,1.1125946,-0.40053406,-0.52291946)">
	<path id="path2" class="st4" d="M172.4,183.7c-0.1,6.1-4.5,10-9.6,9.3c-5.2-0.8-9.3-5.9-9.2-12c0.1-6.2,4.5-10,9.6-9.3
		C168.4,172.4,172.5,177.5,172.4,183.7z M168.3,183.1c0.1-3.8-2.3-6.8-5.2-7.2c-2.8-0.4-5.4,1.9-5.4,5.7c-0.1,3.8,2.3,6.8,5.2,7.2
		C165.7,189.2,168.2,186.9,168.3,183.1z"/>
	<path id="path4" class="st5" d="M192.7,186.6c-0.1,6.1-4.5,10-9.6,9.3s-9.3-5.9-9.2-12c0.1-6.2,4.5-10,9.6-9.3
		C188.7,175.4,192.8,180.5,192.7,186.6z M188.6,186c0.1-3.8-2.3-6.8-5.2-7.2c-2.8-0.4-5.4,1.9-5.4,5.7c-0.1,3.8,2.3,6.8,5.2,7.2
		C186,192.1,188.5,189.8,188.6,186z"/>
	<path id="path6" class="st3" d="M212.4,179.4l-0.4,19.1c-0.2,7.9-4.3,10.5-9.2,9.8c-4.5-0.7-7.2-4.5-8.2-7.5l3.6-1.2
		c0.6,1.8,2.1,4.1,4.6,4.5c3.1,0.4,5.1-1.4,5.1-5.5l0-1.5l-0.1,0c-1,1.2-2.8,2-5,1.7c-4.7-0.7-8.9-6-8.8-11.9
		c0.1-6,4.5-10.1,9.2-9.4c2.2,0.3,4,1.7,4.9,3.1l0.1,0l0-1.7L212.4,179.4L212.4,179.4z M208.5,189c0.1-3.8-2.1-6.8-4.9-7.2
		c-2.8-0.4-5.3,2-5.4,5.7c-0.1,3.7,2.2,6.8,5.1,7.2C206.2,195.1,208.5,192.7,208.5,189z"/>
	<path id="path8" class="st6" d="M219.1,169.2l-0.7,31.2l-4-0.6l0.7-31.2L219.1,169.2z"/>
	<path id="path10" class="st4" d="M234.2,196.2l3.1,2.9c-1.1,1.6-3.6,4.2-7.9,3.6c-5.3-0.8-9.2-6-9.1-12c0.1-6.3,4.2-10.1,9.1-9.4
		c4.9,0.7,7.2,5.5,7.9,8l0.4,1.3l-12.7,4.1c0.9,2.3,2.4,3.6,4.5,3.9C231.6,198.8,233.1,197.8,234.2,196.2L234.2,196.2z M224.4,190.9
		l8.5-2.7c-0.4-1.4-1.8-2.5-3.4-2.8C227.4,185.1,224.4,186.8,224.4,190.9z"/>
	<path id="path12" class="st3" d="M138.4,176l0.1-4.5l13.4,2c0.1,0.8,0.2,1.7,0.1,2.8c-0.1,3.4-1,7.5-3.7,10.1
		c-2.6,2.7-5.9,3.8-10.3,3.2c-8-1.2-14.6-9.6-14.4-18.7s7.1-15.6,15.1-14.4c4.4,0.6,7.6,3.1,9.9,6l-2.9,2.8
		c-1.7-2.1-3.9-3.8-7.1-4.3c-5.9-0.9-10.6,3.8-10.7,10.5c-0.1,6.7,4.3,12.7,10.2,13.6c3.8,0.6,6-0.9,7.4-2.2
		c1.2-1.1,1.9-2.8,2.3-5.3L138.4,176z"/>
</g>
</svg>
