<?xml version="1.0" encoding="utf-8"?>
<!-- Generator: Adobe Illustrator 26.0.3, SVG Export Plug-In . SVG Version: 6.00 Build 0)  -->
<!DOCTYPE svg PUBLIC "-//W3C//DTD SVG 1.1//EN" "http://www.w3.org/Graphics/SVG/1.1/DTD/svg11.dtd" [
	<!ENTITY ns_extend "http://ns.adobe.com/Extensibility/1.0/">
	<!ENTITY ns_ai "http://ns.adobe.com/AdobeIllustrator/10.0/">
	<!ENTITY ns_graphs "http://ns.adobe.com/Graphs/1.0/">
	<!ENTITY ns_vars "http://ns.adobe.com/Variables/1.0/">
	<!ENTITY ns_imrep "http://ns.adobe.com/ImageReplacement/1.0/">
	<!ENTITY ns_sfw "http://ns.adobe.com/SaveForWeb/1.0/">
	<!ENTITY ns_custom "http://ns.adobe.com/GenericCustomNamespace/1.0/">
	<!ENTITY ns_adobe_xpath "http://ns.adobe.com/XPath/1.0/">
]>
<svg version="1.1" id="Слой_1" xmlns:x="&ns_extend;" xmlns:i="&ns_ai;" xmlns:graph="&ns_graphs;"
	 xmlns="http://www.w3.org/2000/svg" xmlns:xlink="http://www.w3.org/1999/xlink" x="0px" y="0px" width="253.9px" height="351.7px"
	 viewBox="0 0 253.9 351.7" style="enable-background:new 0 0 253.9 351.7;" xml:space="preserve">
<style type="text/css">
	.st0{fill:#FFFFFF;}
	.st1{fill:#B6B1AE;}
	.st2{fill:#CAA77A;}
	.st3{fill:#FFDB1F;}
	.st4{fill:#FFDBAF;}
	.st5{fill:#9D7B51;}
	.st6{fill:none;stroke:#9D7B51;stroke-width:4.1072;stroke-linecap:round;stroke-linejoin:round;stroke-miterlimit:10;}
	.st7{opacity:0.23;fill:#3F2719;}
	.st8{fill:#3F2719;}
	.st9{fill:none;stroke:#2D1F04;stroke-width:2.7806;stroke-linecap:round;stroke-linejoin:round;stroke-miterlimit:10;}
	.st10{fill:none;stroke:#2D1F04;stroke-width:2.7806;stroke-linejoin:round;stroke-miterlimit:10;}
	.st11{fill:none;stroke:#2D1F04;stroke-width:8.0658;stroke-linecap:round;stroke-linejoin:round;stroke-miterlimit:10;}
	.st12{fill:none;stroke:#2D1F04;stroke-width:3.2369;stroke-linecap:round;stroke-linejoin:round;stroke-miterlimit:10;}
	.st13{fill:#251707;}
	.st14{fill:#2D1F04;}
	.st15{fill:none;stroke:#2D1F04;stroke-width:2.5153;stroke-linecap:round;stroke-linejoin:round;stroke-miterlimit:10;}
	.st16{clip-path:url(#SVGID_00000098905109734902203980000003653316020065225116_);}
</style>
<metadata>
	<sfw  xmlns="&ns_sfw;">
		<slices></slices>
		<sliceSourceBounds  bottomLeftOrigin="true" height="351.7" width="253.9" x="838.8" y="-730.5"></sliceSourceBounds>
	</sfw>
</metadata>
<path class="st0" d="M253.9,264.1l-0.4-23.8l0-0.3c0.7-6.9,0.2-13.5-0.3-19.2l-0.4-29.3c0-2-0.4-4-1.2-5.9c-0.6-1.8-1.5-3.3-2.6-4.6
	c-1.2-1.3-2.7-2.4-4.5-3.1c-2.7-1.5-5.7-2.3-8.9-2.3c-0.1,0-0.2,0-0.3,0c0,0-1.3,0-3.6,0.1c0-0.2-0.1-0.4-0.1-0.5
	c-2.4-12.5-6.4-22.4-11.7-29.5c-0.3-0.4-0.6-0.8-0.9-1.2c-1.3-2-2.3-3.7-3.4-5.1c-0.5-0.7-1.1-1.3-1.7-1.8c-1.1-1.2-2.2-2.3-3.4-3.3
	c0-0.5,0-1-0.1-1.5c0,0,0,0,0-0.1c0-0.4,0-0.9,0-1.4l0-0.2c0.1-1.6,0.1-3.1-0.1-4.4c0,0,0,0,0,0c0.4-6.2-0.2-12.9-1.7-19.9
	c-0.2-3-0.6-5.4-1-7.4c-1.2-5.8-3.2-11.1-5.2-16.2l-0.1-0.2c-7.6-19.7-17.4-34.3-31-46.1c-7.3-8.9-9.7-10.2-10.6-10.7
	c-3.4-1.9-7.7-3.9-12.8-6.1c-0.5-0.3-1.1-0.5-1.6-0.8c-0.4-0.2-0.7-0.5-1.1-0.7c-1.1-0.5-2.3-1.1-3.8-1.7c-3.2-1.4-6.2-2.6-9.3-3.6
	c-0.7-0.2-1.4-0.4-2-0.4c-1.9-0.6-3.8-1.3-5.6-1.9c-3.7-1.9-8.1-3.9-12.8-5c-0.7-0.2-1.3-0.3-2-0.3c-0.8-0.2-1.6-0.3-2.5-0.3
	c-1.4,0-2.8,0.3-4,1c-0.6,0.3-1.2,0.7-1.7,1.1c-2-0.5-4.1-1.2-6.2-1.8c-1-0.3-2-0.6-2.9-0.9c-0.4-0.2-0.8-0.6-1.2-0.8
	c-0.4-0.3-0.8-0.5-1.2-0.8c-0.6-0.6-1.5-1.3-2.6-1.8c-1.2-0.6-2.7-1-4.1-1c0,0,0,0,0,0c0,0,0,0,0,0c-5,0-8.5,4.1-9.6,6.7
	c-0.2,0.5-0.3,0.9-0.5,1.4c-1.8,0.4-3.3,1-4.5,1.5c-1.2,0.2-2.4,0.4-3.5,0.7c-2.8,0.7-5.6,1.7-8.3,2.9c-2.8,1-4.9,3.3-5.7,6.1
	c-0.3,0.9-0.4,1.9-0.3,2.8c-3.7,2.3-6.3,4.7-7,8.2c-1.2-0.6-2.5-0.9-3.8-0.9c-0.3,0-0.5,0-0.8,0c-2.8,0.2-5.4,1.8-6.9,4.2l-4.9,7.8
	l-2.3-0.4c-0.8-0.1-1.5-0.2-2.3-0.2c-1.2,0-2.4,0.2-3.6,0.5c-1.8,0.5-3.5,1.3-5,2.3c-1.5,1.1-2.8,2.4-3.8,4
	c-1.1,1.7-1.8,3.5-2.1,5.5c-0.2,1.4-0.2,2.9-0.1,4.3c-0.6,1.3-1.1,2.7-1.3,4.1c-0.1,0.8-0.2,1.5-0.2,2.3c-0.2,0.6-0.4,1.2-0.5,1.9
	c-0.4,2.2,0,4.5,1.1,6.4c-1,2.1-1.5,4.3-1.5,6.7c0,3.3,1,6.4,2.8,9.1c-1.5,2.9-2,6.1-1.6,9.4c0.5,3.2,1.8,6,3.8,8.4
	c-0.4,1.1-0.7,2.3-0.8,3.6c-0.2,2,0.1,3.9,0.7,5.8c0.5,1.4,1.1,2.7,1.9,3.8c0,1.4,0.3,2.8,0.8,4.2c0.3,0.7,0.6,1.5,0.9,2.1
	c0.1,0.6,0.2,1.3,0.4,1.9c0.8,2.3,2.3,4.2,4.3,5.4c0.1,1.8,0.5,3.5,1.2,5.2c0,0-0.1,0.1-0.1,0.1c-0.8,1-1.5,2-1.9,3.2c0,0,0,0,0,0.1
	c-0.5,1.3-0.7,2.8-0.6,4.2c0.1,1.5,0.5,2.9,1.2,4.2l0,0.4c0.1,2.2,0.7,4.3,1.7,6.2c0.7,1.3,1.5,2.5,2.5,3.5
	c-0.3,0.8-0.6,1.6-0.8,2.4c-0.6,2.5-0.6,5,0,7.4c-2,1.7-3.5,3.8-4.4,6.4c-1.4,3.7-1.4,7.5-0.1,11.1c-0.6-0.1-1.2-0.2-1.9-0.2
	c-1.6,0-3.1,0.3-4.5,1c-2.5,1.2-4.5,3.3-5.4,6c-0.3,0.9-0.5,1.9-0.6,2.8c-0.5,0.8-1,1.6-1.3,2.5c-1,2.6-0.8,5.5,0.4,8
	c0.4,0.9,0.9,1.6,1.5,2.3c-0.7,1.2-1.2,2.6-1.5,4c-0.6,2.8-0.5,5.5,0.2,8.1c-0.5,0.6-1,1.1-1.4,1.8c-1,1.5-1.6,3.2-1.9,5l-0.7,4.7
	c-0.2,1.4-0.1,2.8,0.2,4.1c0.3,1.2,0.8,2.3,1.5,3.3c-0.9,0.9-1.5,1.9-2,3c-0.6,1.3-0.9,2.6-0.9,4L0,252.3c0,1.6,0.2,3.3,0.8,4.8
	c-0.1,0.2-0.2,0.4-0.2,0.6c-0.4,1.3-0.6,2.7-0.5,4.1c0,0,0,0,0,0.1c0.1,1.4,0.5,2.6,1.1,3.8c0,0,0,0.1,0.1,0.1
	c0.1,0.1,0.1,0.3,0.2,0.4c-0.1,0.2-0.1,0.3-0.2,0.5c-0.4,1.3-0.6,2.7-0.5,4.1c0.1,1.4,0.5,2.7,1.1,3.9c0.3,0.5,0.6,1,0.9,1.4
	c-0.5,2.2-0.6,4.4-0.2,6.7c0.6,3.3,2.2,6.2,4.5,8.4c-0.2,0.4-0.3,0.7-0.5,1.1c-0.8,2.2-0.8,4.5,0,6.7c0.4,1.3,1.1,2.4,1.9,3.4
	c-0.1,1.3,0.1,2.6,0.5,3.8c0.7,2,2,3.8,3.7,5.1c1.4,1,2.9,1.6,4.6,1.8c-0.6,0.9-1.1,2-1.4,3.1c-0.4,1.3-0.5,2.7-0.3,4.1
	c0.2,1.4,0.7,2.7,1.4,3.9c0.9,1.4,2,2.6,3.4,3.5c0.1,1.6,0.6,3.2,1.4,4.6c0.7,1.2,1.7,2.2,2.8,3.1c0.4,0.3,0.8,0.5,1.2,0.7
	c1,2.2,2.9,4,5.2,4.8l10.1,3.5c0.2,0.3,0.4,0.6,0.7,0.8c1,1,2.2,1.8,3.6,2.3c0.4,0.1,0.7,0.2,1.1,0.3c1.2,0.3,2.9,0.5,6.6,0.5
	c0.4,0.1,0.8,0.1,1.2,0.1c0.1,0,0.1,0,0.2,0l3.6-0.1c2.7,0,5.9-0.1,9.7-0.2l32.2-0.6h11.8c0.8,0,1.6-0.1,2.5-0.2l23.3-0.4
	c2,1.1,4.4,1.4,8.3,1.7c1.5,0.3,3.2,0.5,5.2,0.5c0.4,0,0.9,0,1.3,0c1.6,0.1,3.3,0.2,5.2,0.3c7.5,1.3,19,2.2,25.8,2.2
	c1.4,0,2.6,0,3.7-0.1l1.9-0.1c2.5-0.2,4.6-0.3,6.5-0.4c2.1,0.2,4.5,0.2,7.1,0.2c2.8,0,8-0.1,12.9-0.8l0.2,0l0.5,0
	c1.6,0,5.3,0,8.7-2.3c0.8-0.5,1.6-1.2,2.2-1.9c2.2-1.8,3.1-3.9,3.5-5.5c0,0,0-0.1,0-0.1c0.6-1.8,0.8-3.8,0.7-6c0-2.6-0.2-6-1.5-8.9
	c-0.3-0.7-0.7-1.5-1-2.3c-0.6-1.4-1.3-2.9-1.9-4.3l-1.5-38.1c1.9,0.2,4.5,0.4,7.2,0.4c5.4,0,13-0.6,17.2-6c0.9-1.1,1.6-2.4,2.1-3.9
	c1.3-2.3,1.9-4.8,1.9-7.4C253.9,264.2,253.9,264.2,253.9,264.1z M23,50c0.1,0,0.1,0,0.2,0c0.1,0,0.1,0,0.2,0C23.2,50,23.1,50,23,50z
	 M10.4,246.5C10.4,246.5,10.4,246.5,10.4,246.5c-0.2,0-0.3,0-0.5,0.1C10.1,246.5,10.2,246.5,10.4,246.5z M9.1,261.1L9.1,261.1
	c0,0.2,0.1,0.3,0.1,0.5C9.1,261.4,9.1,261.3,9.1,261.1z M10.2,255.4c0.2,0.2,0.4,0.4,0.6,0.5C10.5,255.8,10.3,255.6,10.2,255.4
	c-0.2-0.2-0.3-0.4-0.5-0.6C9.8,255,10,255.2,10.2,255.4z M10.5,262.3c0,0-0.1,0-0.1,0c-0.1,0-0.3,0-0.4-0.1
	C10.1,262.3,10.3,262.3,10.5,262.3z M11,271.2c-0.1,0-0.3,0-0.4-0.1c-0.2-0.1-0.3-0.1-0.4-0.2c-0.1-0.1-0.2-0.2-0.3-0.4
	c0.1,0.2,0.2,0.3,0.3,0.4c0.1,0.1,0.3,0.2,0.4,0.2C10.8,271.2,11,271.2,11,271.2C11.1,271.2,11.1,271.2,11,271.2z M11.7,249.1
	l-0.1,3.4L11.7,249.1l3.1,0.1L11.7,249.1z M13.1,256.7C13.1,256.7,13.1,256.7,13.1,256.7c0.3,0,0.6,0,0.9-0.1
	C13.8,256.6,13.5,256.7,13.1,256.7z M15.1,276.8c-0.2,0.2-0.3,0.4-0.4,0.5s-0.2,0.4-0.3,0.6c-0.1,0.2-0.2,0.4-0.2,0.6
	c0.1-0.2,0.1-0.4,0.2-0.6c0.1-0.2,0.2-0.4,0.3-0.6S15,277,15.1,276.8c0.2-0.2,0.3-0.3,0.5-0.5C15.5,276.5,15.3,276.7,15.1,276.8z
	 M16.3,297.1c-0.1,0-0.1,0-0.2,0C16.1,297.1,16.2,297.1,16.3,297.1C16.3,297.1,16.3,297.1,16.3,297.1z M17,273c0.1,0,0.2,0,0.3,0
	c0.1,0,0.1,0,0.2,0C17.3,273,17.2,273,17,273z M16.8,255.4c-0.1-0.1-0.3-0.2-0.4-0.3C16.5,255.2,16.7,255.3,16.8,255.4l1.4,0.8
	L16.8,255.4z M18.2,286.8C18.2,286.8,18.2,286.8,18.2,286.8c0.2,0,0.3,0,0.5,0C18.5,286.8,18.4,286.8,18.2,286.8z M19.6,286.7
	c-0.2,0-0.5,0.1-0.7,0.1C19.1,286.8,19.4,286.7,19.6,286.7c0.5-0.1,0.9-0.2,1.3-0.4C20.5,286.5,20,286.6,19.6,286.7z M22,274.2
	c-0.1,0-0.2,0-0.3,0c0,0,0.1,0,0.1,0C21.8,274.2,21.9,274.2,22,274.2L22,274.2z M21.7,249.3C21.7,249.3,21.7,249.3,21.7,249.3
	l-4.4-0.1l0,2.5l0-2.5L21.7,249.3c0.2,0,0.3,0,0.5-0.1C22,249.3,21.9,249.3,21.7,249.3z M30.6,53.7C30.6,53.7,30.6,53.7,30.6,53.7
	C30.6,53.7,30.6,53.7,30.6,53.7C30.6,53.7,30.6,53.7,30.6,53.7z M25.9,320.2C25.9,320.2,25.9,320.2,25.9,320.2c0.1,0,0.2,0,0.3,0
	C26.1,320.2,26,320.2,25.9,320.2z M28,198.8l-2,5.6L28,198.8c0.1-0.2,0.1-0.3,0.1-0.5C28.1,198.4,28.1,198.6,28,198.8z M30.7,328.3
	c-0.1,0-0.2,0-0.3,0c0.2,0,0.3,0,0.5,0C30.9,328.3,30.8,328.3,30.7,328.3z M32.8,111.1c0.1,0,0.3-0.1,0.4-0.1c0,0,0,0,0.1,0
	C33.1,111,33,111.1,32.8,111.1z M50.8,137c0,0,0-0.1,0-0.1C50.8,136.9,50.9,137,50.8,137C50.8,137,50.8,137,50.8,137z M59.9,135.8
	C59.9,135.8,59.9,135.8,59.9,135.8c0,0-0.1,0-0.1-0.1C59.9,135.8,59.9,135.8,59.9,135.8z M55.8,32.9c-0.1,0-0.2,0-0.3,0
	c0,0-0.1,0-0.1,0C55.5,33,55.6,32.9,55.8,32.9z M58.1,339.5l-3.7,0.1L58.1,339.5c0.7,0,1.5,0,2.2,0
	C59.5,339.5,58.8,339.5,58.1,339.5z M60.3,144C60.3,144,60.3,144,60.3,144C60.3,144,60.3,144,60.3,144C60.3,144,60.3,144,60.3,144z
	 M61.5,155.6c0,0,0.1,0,0.1,0c0,0,0,0,0.1,0C61.6,155.6,61.6,155.6,61.5,155.6z M61.7,154.7L61.7,154.7c0-0.1,0-0.1,0-0.3
	C61.8,154.5,61.7,154.6,61.7,154.7z M61.9,155.8c0,0,0.1,0,0.1,0c0,0,0,0,0,0C62,155.7,62,155.7,61.9,155.8z M68.8,24.1
	C68.8,24,68.8,24,68.8,24.1c0.1,0,0.1,0,0.1,0C68.8,24,68.8,24,68.8,24.1z M76.2,16.8c0.1,0,0.1,0,0.2,0c0.1,0,0.2,0,0.4,0
	C76.5,16.8,76.3,16.8,76.2,16.8z M83.3,9C83.3,9,83.3,9,83.3,9C83.4,9,83.4,9,83.3,9C83.4,9,83.4,9,83.3,9z M107.2,14.1
	C107.2,14.1,107.2,14.1,107.2,14.1C107.2,14.1,107.2,14.1,107.2,14.1C107.2,14.1,107.2,14.1,107.2,14.1z M109.3,14.4
	C109.3,14.4,109.3,14.4,109.3,14.4C109.3,14.4,109.3,14.4,109.3,14.4C109.3,14.4,109.3,14.4,109.3,14.4z M145.1,338.1
	C145.1,338,145.1,338,145.1,338.1C145.1,338,145.1,338,145.1,338.1c0,0.1,0.1,0.2,0.1,0.3C145.1,338.2,145.1,338.2,145.1,338.1z
	 M151.2,340.3c-0.4,0-0.7,0-1.1,0C150.5,340.3,150.9,340.3,151.2,340.3C151.3,340.3,151.2,340.3,151.2,340.3z M170.5,324
	c-0.4-0.1-0.7-0.3-1.1-0.4C169.8,323.8,170.1,323.9,170.5,324C170.5,324,170.5,324,170.5,324z M183.4,342.7c-0.2,0-0.5,0-0.7,0
	c0.4,0,0.7,0,1,0C183.7,342.7,183.5,342.7,183.4,342.7z M202.7,342.4c0,0-0.1,0-0.1,0c0.1,0,0.3,0,0.4,0
	C202.9,342.4,202.8,342.4,202.7,342.4z M216.3,341.6c-0.1,0-0.2,0-0.3,0c0.1,0,0.3,0,0.4,0C216.4,341.6,216.4,341.6,216.3,341.6z
	 M232.7,272.5c-0.2,0-0.3,0-0.4,0c0.3,0,0.6,0,0.9,0C233,272.5,232.8,272.5,232.7,272.5z"/>
<g>
	<g>
		<path class="st1" d="M170.9,323.3c-7.9,3.2-15.6,2.1-22.4,7.9c-1.2,1-4.9,4.3-4.4,6c0.9,2.9,7.1,2.1,9.4,2.2
			c8.6,0.2,17.5,1.3,26.1,1.5c1.6,0,9.7,0.9,9.9-1.2c0.6-5.5-10.8-9.6-13.5-12.4"/>
		<path class="st1" d="M78.6,321.7c-8.8-0.2-18.7,3.7-25.5,9.1c-0.7,0.5-6.1,5.6-5.5,6.4c1.4,2,8.1,0.5,10.1,0.7
			c8.6,0.9,17.8-0.7,26.6-0.5c1.5,0,7.2,1.1,8.1-0.7c1.3-2.5-5.6-6.7-6.9-7.4"/>
		<path class="st1" d="M68.2,301.3c-1-2.4-6.4,1.5-8.4,2.7c-1,0.6-7.5,0.7-7.1,1.8c2,6.6,7.5,13.6,13.2,16.6
			c0.5,0.3,11.2,0.9,11.3,0.3c0.2-1-3-4.7-3.5-5.6C70.8,312.6,70.2,306.2,68.2,301.3z"/>
		<path class="st1" d="M119.9,231.9c-0.1-0.2-0.3-0.4-0.4-0.7"/>
		<path class="st1" d="M114.7,196.8c-1.6,7.5-0.9,4.5-0.6,12.3c0.2,5,3.3,31.7,2.5,35.7c-0.8,4-6,6-4.1,13.3
			c1.7,6.6,18.6,16.2,24.3,19c8,3.9,25.7-9.9,34.6-9.8c6.5,0.1,17.8,1.9,23.5-0.4c3.8-1.5,4.6,3.6,8.7,4c6.1,0.6,14.8-0.2,20.9,0.4
			c3.8,0.4,14.5,1.3,17.3-2.1c1.9-2.4,0.9-10.2,0.7-12.9c-0.4-5.9,0.5-12.1,1.1-17.9c1.2-12.3-1.7-24.4-1.6-36.8
			c0-3.5,1.7-12.7-0.8-15.4c-2.5-2.9-16.5-1.2-20.5-1.4c-19.2-0.8-36.2-0.1-55.4-0.3c-12.3-0.1-26.4-1-38.6-0.5
			c-4.9,0.2-11.2-4.7-10.9,2.4"/>
		<path class="st2" d="M61.7,38.9c-2.5,0-9.2,12.8-10.6,15.5c-11.1,19.4-7,42,1.8,61.3c2.3,5,1.2,6.5,3.5,11.1
			c1.1,2.1,4.8,7.1,4.8,9.4c0,0.5,0,1.5,0,1.5s-0.7-3.7-1.5-5.3c-0.3-0.5-1.3-1.5-0.8-1.5c0.3,0,0.7,0.8,0.8,1
			c2.4,6.1-0.3,13.9,1.3,20.3c1.1,4.4,9.5,9.7,14.2,10.9c17.6,4.4,35.3-0.3,52.9-0.3c4.4,0,17.1,1.4,20.8-2.3
			c3.1-3.1,4.1-7.1,6.6-10.6c3.4-4.7,11.3-10.5,16.7-12.7c5.6-2.3,12.7-0.9,18.2,0.5c1.4,0.4,5.7,2.2,7.1,0.8
			c2.3-2.3,3.4-9,2.8-11.9c-1.5-7.7-1-19.1-2.5-26.6c-1-5.1-2.9-10-4.8-14.9c-7.5-19.5-18-35.3-34.7-47.5c-4.2-3-11.2-8.4-16-10.8
			c-4.6-2.3-9.8-2.2-14.4-4.6c-6.1-3-12.7-7-19.3-8.6c-1.6-0.4,0.7,2.5,0.5,2.8c-0.2,0.4-4.3,0.4-4.8,0.3c-5.5-1.1-11-1-16.2-3.3
			c-0.9-0.4-4-3.6-5.1-3.3c-3.1,1,1.5,9.6,1.5,9.6s-0.4-0.7-0.8-1c-1.5-1.2-4.9-2.1-6.8-2.5c-4.1-0.8-5.9,1.8-9.4,2.5
			c-0.5,0.1-4.6,1.2-4.6,1.3c0,0.9,6.6,1.9,6.6,2.8c0,0.8-1.4,0.5-1.8,0.5c-1.9,0.3-13,4.9-12.2,7.3c0.4,1.1,6.2,1.1,7.3,1.8
			c0.3,0.2,1,0.3,1,0.3s-4.6,0.7-6.8,1.3c-2.8,0.7-8.6,7.1-3.5,7.1"/>
		<path class="st2" d="M214.7,272.3c-1,0.3-4.3,9.4-4.7,12.9c-0.9,6.9,2.1,15.3,3,22.1c0.8,6.7,5,15.2,7.7,21.4
			c1,2.1,0.9,6.8,0.3,9.1c-1.1,4.3-26.5,4.2-29.9,2.8c0,0-7.9-9.8-10.4-11.7c-2.2-1.6-0.6-1.9-5.5-4c-3.1-1.3-6.9-1.3-9.7-4.2
			c-2.7-2.7-4.2-8.9-7.2-10.9c-2.9-2-5.2-0.5-14.7,1.5c-9.5,2-16.4,1.6-25.6-0.7c-1.6-0.4-1.3,2.7-0.5,6.2c0.9,3.9,2.5,8.3,3.1,9.2
			c0.5,0.7,4.9,5.8,3.7,7c-2.4,2.4-19.6,4.8-22.5,4.8c-3.2,0-6.2-1.4-9.4-0.8c-0.7,0.1-2.2,0-2.2,0s1.7,0.7,1.5,0.2
			c-0.3-1-2.3-2.6-3-3.5c-2.5-3.3-6.5-7.9-9.3-10.8c-2.4-2.4-3.1-4.6-4.6-7.6c-2.2-4.5-3.7-10-5-14.9c-0.3-1.1-0.6,1-1.2,0
			c-2.5-3.7-11.6,10-16.9,4.7c-2.5-2.5-6.1-7.9-6.7-10.9c-1.5-7.4-2-16.1-2-23.9c0-1.3-0.5-7.6,0.2-8.2c1.6-1.2,4.8-0.5,6.7-0.5
			c6.3,0,11.6-0.5,17.9,1.2c4.2,1.1,7.6,3.8,11.9,4.2c6.8,0.7,13.6-1.1,20.4-0.5c6.5,0.5,12.1,1.6,17.7,0.5c1.3-0.3,8.3,7.3,9.2,6.4
			c1-1-1.8-13.8,0.3-14.3c3.7-0.9,6.7,2.7,10.2,3.4c8.6,1.7,18.2,2.3,26.1-2.5c3.5-2.1,7.1-5.3,8.5-8.7c1.5-3.8,1.3-7,2.7-10.9
			c1.8-4.9-0.4-12.1-1.4-17.1c-0.6-3.2-3.5-11.7-1.9-15c2.8-5.6,20.8-14.7,26.9-16.2c5.5-1.3,11.8-2.4,17.4-1
			c6.9,1.7,7.8,7.5,9,12.3c4,16,3.2,32.4-4.3,49.1c-2,4.4-3.1,8-7,10.9c-0.9,0.7-5.2,5.9-5.4,6.3c-0.4,0.7,5.3,0.4,5.5,0.5
			c4.5,1.5,0.6,3.5-0.8,8.1"/>
		<path class="st3" d="M61.1,155.3c-0.2-2.6-6.1,4.6-4.3,7c0.8,1,2.1,1.7,2.7,2.7c0.4,0.5-0.5,1.2-0.7,1.5
			c-3.2,4.3-5.3,9.1-7.2,13.9c-2.1,5.2-3.4,9.8-4.2,15.4c-0.5,3.5,2.3,7.1,1.5,10.2c-2.1,8.4-7.8,8.5-10.2,25.1
			c-0.9,5.8-3.5,12.7-3.5,18.7c0,1-0.5,5,0.5,5.7c13.1,9.6,32.3,10.7,50,10.7c3.6,0,7,2.9,10.5,2c5.2-1.3,10.4-0.9,15.6-2.2
			c0.7-0.2,4.3,0.7,4.3,0c0-0.2-4-4.9-4.3-6c-1.9-7.6,1.2-10.3,5-15.9c1.4-2.1-0.4-9.4-0.7-11.7c-1.7-10.1-0.6-18.6-2.1-28.8
			c-0.3-1.8-1.2-12.2,1-12.8c2.1-0.5-0.4-5.5,1.7-6.1c8.2-2.1,17.4,0.2,25.9-1.3c1.4-0.2,12.2-1.4,13.5-0.1c1.1,1.1,2.2,5,2.9,6.7
			c1.5,3.6,2.7,7.6,4.4,11.1c1.6,3.2-0.1,13.3,6.3,8.8c32.1-22.1,54.4-10.2,54.4-10.6c-0.1-16.7-3.5-37.6-12.4-49.4
			c-4-5.3-9.5-12.4-16.7-14.2c-4.1-1-8.6-5-13.2-3.7c-8.7,2.5-20.3,6.3-25.8,13.8c-1.8,2.4-4.5,8.5-7,10.2c-1.1,0.7-2.6,1.2-4,1.4
			c-6.9,1.4-14,1.1-20.9,2.5c-14.8,3-26.5,1.7-41.3-1.2c-2.4-0.5-8.1,0.2-10.4-0.2c-2.9-0.5-5.3-0.5-8.2-1.2
			C60.9,156.5,61.1,155.6,61.1,155.3z"/>
		<path class="st4" d="M49.6,78.2c2.1-8.6,7.4-18.4,15.2-19.8c9.1-1.7,16.6,5.6,25.4,5.3c1.6-0.1,4.8-1,5.8-2.5c0.9-1.3,0-3.2,0-3.2
			c1.4,0.4,2.8,2.4,4.5,2.9c6.6,1.9,13.4-3.9,19.4-5.7c19.9-6,35.4-3.9,46,15.3c2.4,4.3,6,14.2,3.6,25.2
			c-3.6,16.1-5.5,22.8-22.9,34.8c-20.7,14.3-63.6,21.4-85-5.6C51.4,112.3,45.6,94.4,49.6,78.2z"/>
		<path class="st5" d="M89.7,85.6c-7.2-3.6-13.1,14.6-12.5,19.9c2,18,28.3,17,40.4,10.9c17.6-8.8-3.9-37.1-16.5-32.1"/>
		<path class="st5" d="M49.6,78.3c-3.9,7.1,0.5,28.5,3.5,30.7c2.3,1.7,18.1-10.2,22.6-17.8c1.2-2,7.3-14.9,5-17.2
			c-1.3-1.3-18.3,1.1-20.9,1.6C56.3,76.4,51.2,75.3,49.6,78.3z"/>
		<path class="st5" d="M115.7,75c0.9,29.3,43.8,44.9,48.9,37.6c3.2-4.7,9.6-26.6,1.2-41.4c-0.8-1.4-10.2,1.7-11.7,1.9
			C141.5,75.1,115.3,62.2,115.7,75z"/>
		<line x1="67.7" y1="273.1" x2="67.7" y2="279.1"/>
		<line class="st6" x1="67.7" y1="273.1" x2="67.7" y2="279.1"/>
		<line x1="74.2" y1="276.7" x2="74.2" y2="282.6"/>
		<line class="st6" x1="74.2" y1="276.7" x2="74.2" y2="282.6"/>
		<line x1="80.3" y1="280.6" x2="80.3" y2="286.6"/>
		<line class="st6" x1="80.3" y1="280.6" x2="80.3" y2="286.6"/>
		<line x1="197.2" y1="210.7" x2="197.2" y2="216.7"/>
		<line class="st6" x1="197.2" y1="210.7" x2="197.2" y2="216.7"/>
		<line x1="204.2" y1="212.8" x2="204.2" y2="218.8"/>
		<line class="st6" x1="204.2" y1="212.8" x2="204.2" y2="218.8"/>
		<line x1="70.7" y1="142.6" x2="70.6" y2="148.5"/>
		<line class="st6" x1="70.7" y1="142.6" x2="70.6" y2="148.5"/>
		<line x1="76.5" y1="145.6" x2="76.5" y2="151.6"/>
		<line class="st6" x1="76.5" y1="145.6" x2="76.5" y2="151.6"/>
		<path class="st0" d="M129.1,76.2c0,2.7,0.5,4.5,1.4,5.7c2.7,3.5,8.8,1.6,14.9,0.5c6.6-1.1,8.1-5.2,9.3-7.7"/>
		<path class="st0" d="M50.6,74.7c-5.6,14.6,17.6,13.1,21.9,2"/>
		<path class="st7" d="M48.7,40.7c4.3,0,7.9-1.2,12.1-2.1c1.2-0.3,3.6-1.5,3.6-0.4c0,0.3-0.5,0.2-0.7,0.4c-3.6,2.1-6.5,5.2-8.5,8.9
			c-0.7,1.3-2.6,4.8-2.1,3.9C69.2,22,187.4,11,180.6,130.3c-0.1,1.1-1.4,2.9-0.4,3.2c2.1,0.7,5.5-1.3,8.2-0.4
			c1.2,0.4,9.8,5.2,10.7,4.6c1.5-1,0.4-6.7,0.7-8.5c6-40.2-40.4-94.1-44.4-96.3c-15.3-8.5-46.6-18-47.3-18.1c-0.1,0-2.9,1.7-4.3,1.4
			c-5.1-0.9-10.9-2.8-16-4.3C87,11.7,82.3,8,82.1,8.3c-0.6,1.2-0.9,7.6-0.4,8.5c0.4,0.7,2.9-0.4,2.1-0.4c-6.6,0-14.9,2.1-22,3.6
			c-0.3,0.1-0.7,0.1-0.7,0.4c0,2,9.2,0.7,9.2,2.1c0,1-12.8,4.6-14.6,6c-0.5,0.4-2.6,2-2.1,2.5c1.7,1.7,5.9-0.4,8.2,0.7"/>
		<path class="st7" d="M197.5,277.5c-11.8,4.5,7.2,55,4.4,54.7c-32.9-2.6-53,4.8-53,6c0,1.1,5.7,0.8,6.8,1.1
			c6.6,1.7,23.1,2.9,29.9,2.5c12.5-0.8,16.3-1.1,28.8-1.1c1.6,0,3.4,0.1,4.7-0.8c5.2-3.5-4.8-20-5.4-25.2c-1-8.3-2.9-22.8-1.8-30.9
			c0.4-2.6,4.7-9.4,4.2-11.9C215.1,266.8,199,276.9,197.5,277.5z"/>
		<path class="st7" d="M167.1,138.5c-0.7,0.3-1.5,0.6-2.1,1.1c-1.1,0.7,2.6-0.4,3.9-0.4c3,0,58.2,25.5,40,103.4
			c-5.6,24.1-29.3,34.2-45.8,34.5c-14.9,0.3-29-4.8-35-8.7c-0.2-0.1,0.1,5.6,0.3,5.7c1.4,0.5,14.2,7.7,27.8,9.2
			c4.2,0.5,8.1-0.8,12.3-0.5c11.4,0.8,14.5,0,25.3-3.3c3.9-1.2,8-5.6,11.3-7.6c6.7-4.1,12-10.1,15.6-19.3c2-5.3,4.3-10.5,5.1-15.7
			c2-12.9,1.8-24.6-1.3-36.9c-1.6-6.2,2.8,5.1,1.5-3.5C219.5,154.1,204.2,121.5,167.1,138.5z"/>
		<path class="st8" d="M101.7,309.5c0,0.2,0,0.5,0,0.7"/>
		<path class="st7" d="M71.8,296.7c-1.7-1.6-2.3,7.2-2.3,8c0.5,6.8,3.5,12.6,7.6,18c0.2,0.2-0.8-1.6-0.9-1.4
			c-0.3,0.8-4.7,2.6-5.5,2.8c-2.5,0.5-26,9.3-22.8,14.2c0.1,0.1,24.3-0.4,26.3-0.4c13.2,0,23.4,0,36.6,0c1.9,0,11.5-2.8,12.6-4.4
			c1.5-2.2-3.3-10.1-4-12c-0.4-1-2.3-10.5-2.5-10.6c-4.2-2.8-13.4-1.7-18.1-2.9C91.2,306.1,77.5,302.2,71.8,296.7z"/>
		<path class="st7" d="M44.8,260.9c1.3,3.5,0.9,9,2,11.3c1.8,3.7,1.4-1.4,4.5,1.4c1.6,1.5,1.8,13.3,5,12.3c3.6-1.1,14,10.1,15.6,9.6
			c0.5-0.2-1.3,2.8-0.7,2.5c0.7-0.4-1.2-0.1-1,0.7c0.2,1.7-0.8,5.3-0.3,7c0.4,1.8,7.3,15.9,6.8,16c-6.8,1.7-12.4-0.5-14.3-2.5
			c-11.1-11.1-19.7-29.6-18.2-46.7C44.3,270.4,44.1,259,44.8,260.9z"/>
		<path class="st7" d="M42.5,219.3c-1.4,3,4.6-7.1,6.6-8.4c4.3-2.7,10.8-2.8,15.6-2.8c12.4,0,22.6,11.7,35.9,11.7
			c3.4,0,13.3-1.9,10.3-7.8c-1.6-3.3-9.4-2.5-12.4-2.5c-12.7,0-24.2-1.5-36.6-3.6c-3-0.5-10.1-0.5-12.6-5c-0.6-1.2-2.8,8.4-3.3,9.2
			C43,214.5,44.9,214.1,42.5,219.3z"/>
		<path class="st7" d="M168.4,305.8c-1-1.2,12.4-10.9,9-9.8c-82.8,26.5-116.3-11-117.2-9.8c-0.3,0.4,4.6,4.3,4.9,4.7
			c5.3,5.8,10.4,8.8,17.5,12.4C121.2,322.5,169.7,307.3,168.4,305.8z"/>
		<path class="st9" d="M63.3,37.6c-4.8,3.2-7.7,8.5-10.9,13.1c-15.9,22.5-7.5,51.1,3.8,73.7c1,2,2.4,4.3,2.7,6.5c0.2,1.1-0.5,3,0,4
			c0.2,0.4,1.2-1.1,1.3-0.6c0.3,2.1,0,4.5-0.2,6.5c-0.1,0.8-1,2.9-0.4,2.3c0.2-0.2,0.7-1.9,1.5-1.7c0.4,0.1,0,11.3-0.2,12.4"/>
		<path class="st9" d="M61.8,38.3c-2.4,1.2-3.9,1.2-6.3,1.9c-1.2,0.3-2.2,0.8-3.4,1.1c-1.1,0.2-2.3,0.3-3.4,0.6
			c-0.5,0.1-1.5,0.9-1.5,0.4c0-1.6,12.7-8.7,15.2-9.5c0.4-0.1,0.9-0.1,1.1-0.4c0.2-0.5-1-0.5-1.5-0.6c-2.4-0.6-8.1,1.3-10.1-0.2
			c-0.5-0.4,3.8-3,4-3.2c2.6-1.5,5.3-3.4,8.2-4.2c1.7-0.5,5.3,0.7,5.3-1.1c0-2.1-9.6-1.4-10.3-2.1c-0.1-0.1,0.3-0.1,0.4-0.2
			c2.2-1.1,4.6-2,6.9-2.5c4.4-1,12.1-2.1,16.4-0.6"/>
		<path class="st9" d="M83.5,18.7c-1.2-2.5-3.5-6.6-2.3-9.5c0.1-0.2,1-1.2,1.3-1.1c0.9,0.4,1.5,2,2.5,2.5c4.2,2.2,8.8,3.8,13.5,4.8
			c2.7,0.6,5.5,0.9,8.2,1.5c0.6,0.1,1.9,0.2,1.9,0.2s-3.7-3.3-2.3-4c0.2-0.1,10.8,3.8,11.8,4.2c7.6,2.9,15.2,4.7,22.4,8.2"/>
		<path class="st9" d="M45.1,261.9c-0.2,7.4,3.7,14.7,3.7,14.7s1.6-4.8,2.4-3.5c0.9,1.5,4.4,14.5,6.7,13.8c0.1,0,0-3.5,0.2-3.3
			c0.8,0.4,5.5,6.7,7.1,7.9c5.7,4.3,12.5,7.9,19.1,10.8c24.5,10.7,60.9,15,85.3,2.8"/>
		<path class="st9" d="M69.6,294.7c-2.3,7.1,3.2,22.2,8.8,27.7"/>
		<path class="st9" d="M117.2,311.8c0.2,5,2.2,15.7,6.3,19.7"/>
		<path class="st9" d="M77.5,322.2c-12.9-0.4-27.7,11.7-28.7,12.8"/>
		<path class="st9" d="M90.1,337.9c5.4,0,11.9-0.4,17.3-0.6c3.2-0.1,17.5-0.6,16.7-4.9"/>
		<path class="st9" d="M157.9,309.9c2.7,6.1,6.9,11.4,13.4,13.6"/>
		<path class="st9" d="M215.1,272.3c-7.5,15.1-2.4,35.6,2.5,50.6c1.4,4.4,7.9,15.2,0.3,17.2"/>
		<path class="st9" d="M170.5,323c-18.2,3.2-25.3,9.6-29.6,15"/>
		<path class="st9" d="M141,338.3c1.9,1.6,75.4,3.9,77.1,1.7"/>
		<path class="st9" d="M118.7,244.4c-2.3,9.5,12.8,18.3,20.9,19.6c23.4,3.7,38.1-7.6,34.6-33.8c-0.8-5.8-1.7-15.3-4.8-20.4"/>
		<path class="st9" d="M118.2,242.8c-10.9,12.8-7,20.4,5.8,28.4"/>
		<path class="st9" d="M121.5,269.6c5.4,4.2,60.3,34.5,94.4-8c13.3-16.6,12.9-36.4,8.2-62.1"/>
		<path class="st9" d="M128.3,20.7c52.8,17.5,72,73.5,72,110.8"/>
		<path class="st9" d="M44.3,261.7c0,19.6-1.6,33.1,10.5,49.9c3,4.2,9.4,11.6,15.3,11.6"/>
		<path class="st9" d="M51.9,304.9c7.4,1.2,11-2.8,17.1-5.8"/>
		<path class="st9" d="M59.6,304.2c0,5.4,10.3,16.4,16.3,16.4"/>
		<path class="st9" d="M127.2,259.5c-2,4.9-0.3,8.3-0.3,12.7"/>
		<path class="st9" d="M113,251.4c0,7.7,6.8,12.4,12.7,15.3"/>
		<path class="st9" d="M78.8,322.6c5.4,3.6,9.9,7.8,12.7,13.6"/>
		<path class="st9" d="M171.1,323.2c8.1,3.3,15.2,9.3,19.1,17.1"/>
		<path d="M47.5,338.3c5.1,1.2,47.2-1,49.6-0.6"/>
		<path class="st10" d="M47.5,338.3c5.1,1.2,47.2-1,49.6-0.6"/>
		<polyline points="49.2,334.5 48.6,334.8 47.6,336.2 47.1,337.3 47.5,338.3 		"/>
		<polyline class="st10" points="49.2,334.5 48.6,334.8 47.6,336.2 47.1,337.3 47.5,338.3 		"/>
		<path class="st9" d="M47.9,338.2c5-4.1,27.4-12.5,35.8-11"/>
		<path class="st9" d="M142.9,338.1c7.7-3.9,17.2-6.7,26.5-7.8c4.1-0.5,8.1-0.7,11.9-0.5"/>
		<path class="st9" d="M61.2,155.6c41.2,11.8,83.1,3.4,87.7,1.1"/>
		<path class="st9" d="M61.2,155.7c0.5-2.7-2.9,2.1-3.5,3.5c-0.9,2,1.1,3.8,1,4.8c-0.1,1.2-2,4-2.5,5.3c-3.7,10-12.6,22.8-7.1,33.6"
			/>
		<path class="st9" d="M35.5,256.9c17.6,10.4,56.2,12.7,81.6,9.7"/>
		<path class="st9" d="M34.8,256.4c-1.9-12,2.6-27.3,7-38.4c1.8-4.6,5.2-9.1,6.7-13.8"/>
		<path class="st9" d="M200.2,130.3c0.2,1.1-0.1,2.7-0.2,4.2"/>
		<path class="st9" d="M221.9,199c5.7,1.9,3.1-5.7,2.7-8.6"/>
		<path class="st9" d="M207.3,143.6c1.9,2.7,3.7,5.6,5.4,8.4c5.6,9.5,11,31.9,12.5,43.7"/>
		<path class="st9" d="M169.7,210.1c-7.2,1-6.8-2.6-6.5-8.5"/>
		<path class="st9" d="M147.2,173.7c4.9,4.5,10.5,10.9,12.7,17.4c1.1,3.3,1.8,7.9,3.3,11"/>
		<path class="st9" d="M156.3,184.2c-0.5-3.8-1-8.6-2.6-11.9"/>
		<path class="st9" d="M190.8,133.6c-26.6-6.1-43.4,23.1-42,24.2"/>
		<path class="st9" d="M208.3,145c-5-6.4-9.1-8.8-17.2-11.3"/>
		<path class="st9" d="M200.4,132.1c0.2,1.4,0,2.7,0.2,4.1"/>
		<line class="st11" x1="113.1" y1="72.8" x2="169.6" y2="71.8"/>
		<polyline class="st11" points="86.5,73.9 68.2,74.2 37.6,74.7 		"/>
		<path class="st12" d="M126.9,76.7c4.2,12.6,26.1,8.6,26.5-1.6"/>
		<path class="st12" d="M49.8,78.6c-1.8,9,23,9.7,23-1.6"/>
		<path class="st13" d="M85.3,85.6c-0.1-2.7,5.2-5.2,11.9-5.5c6.7-0.3,12.3,1.6,12.4,4.3c0.1,2.7-5.2,5.2-11.9,5.5
			C91,90.3,85.5,88.3,85.3,85.6z"/>
		<path class="st12" d="M142.7,74.7c0.2-0.2,0.5-0.3,0.7-0.5"/>
		<path class="st12" d="M97.5,90.8c0,10.1,5.7-1.8,13.7,2.2"/>
		<path class="st9" d="M164.2,201.9c9.8-9.1,26.9-16.6,43.1-13.8"/>
		<path class="st9" d="M130.6,168.9c-11.7,4.1-57.1,3.8-71.4-5.6"/>
		<path class="st9" d="M67.6,157.7c-0.6,1.7-1.2,3-1.2,4.9"/>
		<path class="st9" d="M78.1,159.8c-0.8,1.6-0.9,3.6-0.9,5.4"/>
		<line class="st9" x1="90.7" y1="161.4" x2="90" y2="165.6"/>
		<polyline class="st9" points="99.6,162.6 99.6,163.3 99.6,163.8 99.6,164.5 99.6,164.9 99.6,165.4 99.6,165.9 		"/>
		<path class="st9" d="M171.9,196.9c0.5,1.6,1.2,2.7,2.1,4.2"/>
		<line class="st9" x1="180.8" y1="192.7" x2="182.4" y2="196.4"/>
		<line class="st9" x1="189.4" y1="189.7" x2="190.1" y2="193.6"/>
		<polyline class="st9" points="94.7,162.8 94.7,163.3 94.7,163.8 94.7,164.2 94.7,164.7 94.7,165.2 		"/>
		<polyline class="st9" points="129.5,161.4 129.5,161.9 129.5,162.4 129.5,163.3 129.5,163.8 		"/>
		<polyline class="st9" points="133,161.4 133,162.1 133,162.8 133,163.3 		"/>
		<path class="st14" d="M61.3,77.3c0-2.2,1.8-4,4-4c2.2,0,4,1.8,4,4c0,2.2-1.8,4-4,4C63.1,81.3,61.3,79.5,61.3,77.3z"/>
		<path class="st14" d="M142,75c0-2.2,1.8-4,4-4c2.2,0,4,1.8,4,4c0,2.2-1.8,4-4,4C143.8,79,142,77.2,142,75z"/>
		<path class="st15" d="M115.6,246l-1.2-55.5c0-3.9,3.7-7,8.2-7c0,0,15.4,0.4,33.6,0.7"/>
		<path class="st15" d="M224.7,183.9c6.3-0.1,9.9-0.2,9.9-0.2c4.5,0,8.2,3.1,8.2,7l1.1,72.7c0,3.9-3.7,7-8.2,7l-28.5,0.1"/>
		<path class="st14" d="M136.5,79.4c-0.3,0-0.6-0.1-0.9-0.1"/>
		<g>
			<defs>
				<rect id="SVGID_1_" x="28.2" y="185.5" width="87.4" height="60.5"/>
			</defs>
			<clipPath id="SVGID_00000111178464984304173930000009086548900591875473_">
				<use xlink:href="#SVGID_1_"  style="overflow:visible;"/>
			</clipPath>
			<g style="clip-path:url(#SVGID_00000111178464984304173930000009086548900591875473_);">
				<g>
					<path class="st14" d="M66.8,194.8c7.2,0.2,13.3,0.3,19.1,0.6c4.7,0.3,5.7,3.7,4.7,6.9c-1.4,4.4-5,7.4-10,8.8
						c-0.3,0.1-0.5,0.1-1.1,0.2c3.8,2.9,2.2,8.6,5.1,13.8c-3.7-0.2-7-0.5-10.5-0.7c-1.7-3.3-2.5-6.6-2.8-9.7c-0.2-1.7-0.7-3-3.6-2.5
						c-2.1,3.7-3.7,7.5-3.5,11.8c-3.3-0.1-6.4-0.2-9.7-0.2C55.1,212.9,63.8,205.1,66.8,194.8z M74.4,201c-0.9,1.9-1.9,3.7-3.2,5.8
						c2.1-0.1,4,0,6-0.2c1.8-0.2,3.2-1.2,4-2.6c0.8-1.5,0.4-2.7-1.2-2.9C78.2,200.9,76.3,201,74.4,201z"/>
					<path class="st14" d="M117.4,204c-3.2,0.2-6.1,0.3-9,0.5c0.4-2.6-0.7-3.9-3-4c-1.5-0.1-2.9,0.4-4,2.2c-0.4,1.5,0.3,2,1.3,2.3
						c1.9,0.6,3.8,1.2,5.7,1.8c1.1,0.4,2.1,0.8,3.1,1.4c6.3,3.4,2.9,12.2-3.2,16.2c-2,1.3-4.4,2.1-6.5,2.4c-3.5,0.5-6.9,0.2-10.2-1
						c-4.3-1.5-6.8-5.6-4.9-10.5c2.8,0,5.5,0,8.5-0.1c0,0.6-0.1,1.2-0.1,1.7c0.1,3,2.9,4.5,6.1,3.5c1.4-0.5,2.6-1.4,3.1-2.8
						c0.4-1.3,0-2.3-1-2.8c-0.9-0.5-1.8-0.8-2.7-1.1c-1.9-0.7-3.8-1.3-5.5-2.2c-3.1-1.8-3.5-4.6-2-7.9c1.7-3.7,4.6-6.7,8.5-7.8
						c3.7-1.1,7.4-1.1,11.2,0.2C116.6,196.9,118.3,199.4,117.4,204z"/>
				</g>
			</g>
		</g>
	</g>
	<g>
		<path d="M37.8,317.5l-7,9.4c-0.1,0.2-0.3,0.3-0.4,0.4c-0.1,0.1-0.3,0.1-0.5,0.2c-0.2,0-0.3,0-0.5,0c-0.2,0-0.3-0.1-0.5-0.2
			c-0.1-0.1-0.3-0.2-0.3-0.4c-0.1-0.2-0.2-0.5-0.2-0.7s0.1-0.5,0.3-0.8l5.4-7.3l-9,1.3c-0.3,0-0.5,0-0.7-0.1
			c-0.2-0.1-0.4-0.3-0.6-0.6c-0.1-0.2-0.2-0.3-0.2-0.5c0-0.2,0-0.3,0-0.5s0.1-0.3,0.2-0.5c0.1-0.1,0.2-0.3,0.4-0.3
			c0.2-0.1,0.3-0.2,0.6-0.2l18.4-2.6c0.3,0,0.5,0,0.8,0.1c0.3,0.1,0.4,0.3,0.6,0.5c0.2,0.3,0.2,0.6,0.2,1c-0.1,0.3-0.3,0.6-0.6,0.8
			c-0.2,0.1-0.4,0.2-0.6,0.2L37.8,317.5z"/>
		<path d="M28.2,296.4l-6.3,4.8l8.2-0.1c0.2,0,0.4,0.1,0.6,0.2c0.2,0.1,0.3,0.4,0.4,0.6c0.1,0.2,0.1,0.3,0.1,0.5s-0.1,0.3-0.1,0.5
			c-0.1,0.1-0.2,0.3-0.3,0.4c-0.1,0.1-0.3,0.2-0.4,0.3c-0.1,0-0.3,0.1-0.5,0.1l-11.9,0.1c-0.3,0-0.5-0.1-0.7-0.2
			c-0.2-0.2-0.4-0.4-0.5-0.6c-0.1-0.3-0.1-0.5,0-0.8c0.1-0.3,0.2-0.5,0.4-0.6l6.4-4.9l-8.1,0.1c-0.2,0-0.5-0.1-0.7-0.2
			s-0.4-0.4-0.5-0.6c-0.1-0.3-0.1-0.6,0-0.8c0.1-0.2,0.2-0.4,0.4-0.6l9.5-7.2c0.1-0.1,0.3-0.2,0.4-0.3c0.2-0.1,0.3-0.1,0.5-0.1
			s0.3,0.1,0.5,0.1c0.2,0.1,0.3,0.2,0.4,0.3c0.1,0.1,0.2,0.3,0.3,0.5c0.1,0.3,0.1,0.6,0.1,0.8c-0.1,0.2-0.2,0.4-0.4,0.5l-6.5,5
			l8-0.1c0.7,0,1.1,0.3,1.3,0.9C28.9,295.5,28.7,296,28.2,296.4z"/>
		<path d="M19.7,275.4c-0.1-0.4,0-0.7,0.2-1c0.2-0.3,0.5-0.5,0.8-0.5c0.4-0.1,0.7,0,1,0.2c1.3,1,2.2,2.4,2.5,4.2
			c0.4,1.9,0,3.6-1.1,5.2c-1.1,1.6-2.6,2.6-4.5,2.9s-3.6,0-5.2-1.1c-1.6-1.1-2.6-2.6-2.9-4.5c-0.4-1.9,0-3.6,1.1-5.2
			c0.5-0.8,1.2-1.4,1.9-1.9c0.7-0.5,1.6-0.8,2.5-1c0.4-0.1,0.7,0,1,0.2c0.3,0.2,0.5,0.5,0.5,0.8l1.9,9.7c0.4-0.2,0.8-0.5,1.1-0.8
			c0.3-0.3,0.6-0.7,0.8-1.1c0.2-0.4,0.3-0.9,0.4-1.3c0.1-0.5,0-0.9,0-1.4c-0.1-0.5-0.3-1-0.5-1.4c-0.2-0.4-0.6-0.8-1-1.1
			C19.9,275.9,19.8,275.7,19.7,275.4z M15.3,275.6c-0.4,0.2-0.8,0.5-1.1,0.9c-0.3,0.3-0.6,0.7-0.8,1.1c-0.2,0.4-0.3,0.9-0.4,1.3
			c-0.1,0.5,0,0.9,0,1.4s0.2,0.9,0.5,1.3s0.5,0.8,0.8,1.1s0.7,0.6,1.1,0.8c0.4,0.2,0.9,0.3,1.3,0.4L15.3,275.6z"/>
		<path d="M16.9,267.7l4.4-0.3c0.2,0,0.3,0,0.5,0.1s0.3,0.1,0.4,0.2c0.1,0.1,0.2,0.2,0.3,0.4c0.1,0.2,0.1,0.3,0.1,0.5
			c0,0.2,0,0.4-0.1,0.5s-0.1,0.3-0.2,0.4c-0.1,0.1-0.2,0.2-0.4,0.3c-0.2,0.1-0.3,0.1-0.5,0.1l-11.3,0.9c-0.2,0-0.3,0-0.5-0.1
			s-0.3-0.1-0.4-0.2s-0.2-0.2-0.3-0.4c-0.1-0.2-0.1-0.3-0.1-0.5c0-0.2,0-0.3,0.1-0.5c0.1-0.2,0.1-0.3,0.2-0.4
			c0.1-0.1,0.2-0.2,0.4-0.3c0.2-0.1,0.3-0.1,0.5-0.1l4.4-0.3l-0.5-6.4l-4.4,0.3c-0.2,0-0.3,0-0.5-0.1s-0.3-0.1-0.4-0.2
			c-0.1-0.1-0.2-0.2-0.3-0.4c-0.1-0.2-0.1-0.3-0.1-0.5s0-0.4,0.1-0.5c0.1-0.2,0.1-0.3,0.2-0.4c0.1-0.1,0.2-0.2,0.4-0.3
			c0.2-0.1,0.3-0.1,0.5-0.1l11.3-0.9c0.2,0,0.3,0,0.5,0.1s0.3,0.1,0.4,0.2c0.1,0.1,0.2,0.2,0.3,0.4c0.1,0.2,0.1,0.3,0.1,0.5
			s0,0.4-0.1,0.5s-0.1,0.3-0.2,0.4c-0.1,0.1-0.2,0.2-0.4,0.3c-0.2,0.1-0.3,0.1-0.5,0.1l-4.4,0.3L16.9,267.7z"/>
		<path d="M8.1,247.4c0-0.2,0-0.4,0.1-0.5c0.1-0.2,0.2-0.3,0.3-0.4s0.3-0.2,0.4-0.3s0.3-0.1,0.5-0.1l11.3,0.2c0.2,0,0.3,0,0.5,0.1
			c0.2,0.1,0.3,0.2,0.4,0.3c0.1,0.1,0.2,0.3,0.3,0.4s0.1,0.3,0.1,0.5c0,0.2,0,0.3-0.1,0.5c-0.1,0.2-0.2,0.3-0.3,0.4
			c-0.1,0.1-0.3,0.2-0.4,0.3c-0.2,0.1-0.3,0.1-0.5,0.1l-4.4-0.1l0,2.5c0,0.6,0.3,1.1,0.8,1.4l4,2.2c0.5,0.3,0.8,0.7,0.8,1.2
			c0,0.2,0,0.4-0.1,0.5c-0.1,0.2-0.2,0.3-0.3,0.4c-0.1,0.1-0.3,0.2-0.4,0.3c-0.2,0.1-0.3,0.1-0.5,0.1c-0.3,0-0.5-0.1-0.7-0.2l-4-2.2
			c-0.1-0.1-0.3-0.2-0.4-0.3c-0.3,0.3-0.5,0.5-0.8,0.7s-0.5,0.4-0.8,0.5c-0.3,0.1-0.6,0.2-0.9,0.3c-0.3,0.1-0.6,0.1-1,0.1
			c-0.6,0-1.1-0.1-1.6-0.4c-0.5-0.2-0.9-0.5-1.3-0.9c-0.4-0.4-0.7-0.8-0.9-1.3c-0.2-0.5-0.3-1-0.3-1.6L8.1,247.4z M13.7,248.8
			l-3.1,0l0,3.4c0,0.2,0,0.4,0.1,0.6c0.1,0.2,0.2,0.4,0.3,0.5c0.1,0.1,0.3,0.2,0.5,0.3c0.2,0.1,0.4,0.1,0.6,0.1c0.2,0,0.4,0,0.6-0.1
			s0.4-0.2,0.5-0.3c0.1-0.1,0.3-0.3,0.3-0.5c0.1-0.2,0.1-0.4,0.1-0.6L13.7,248.8z"/>
		<path d="M9.8,230.1c0.1-0.6,0.3-1.1,0.6-1.5c0.3-0.5,0.6-0.9,1.1-1.2c0.4-0.3,0.9-0.5,1.4-0.7s1.1-0.2,1.6-0.1
			c0.9,0.1,1.6,0.5,2.2,1c0.3-0.2,0.6-0.4,0.8-0.6c0.3-0.2,0.6-0.3,0.8-0.4c0.3-0.1,0.6-0.2,0.9-0.2s0.6,0,1,0
			c0.6,0.1,1.1,0.3,1.5,0.6c0.5,0.3,0.9,0.6,1.2,1.1c0.3,0.4,0.5,0.9,0.7,1.4c0.1,0.5,0.2,1.1,0.1,1.6l-0.8,5.6
			c0,0.2-0.1,0.3-0.2,0.5c-0.1,0.1-0.2,0.3-0.3,0.4s-0.3,0.2-0.5,0.2c-0.2,0-0.3,0.1-0.5,0l-11.2-1.7c-0.2,0-0.3-0.1-0.5-0.2
			c-0.1-0.1-0.3-0.2-0.4-0.3s-0.2-0.3-0.2-0.4c0-0.2,0-0.3,0-0.5L9.8,230.1z M15.4,231c0-0.2,0-0.4,0-0.6c0-0.2-0.1-0.4-0.2-0.5
			c-0.1-0.2-0.3-0.3-0.4-0.4c-0.2-0.1-0.4-0.2-0.6-0.2c-0.2,0-0.4,0-0.6,0c-0.2,0.1-0.4,0.1-0.5,0.3c-0.2,0.1-0.3,0.3-0.4,0.4
			c-0.1,0.2-0.2,0.4-0.2,0.6l-0.5,3.4l3,0.5L15.4,231z M21.2,230.9c0-0.2,0-0.4,0-0.6c0-0.2-0.1-0.4-0.3-0.5s-0.3-0.3-0.4-0.4
			c-0.2-0.1-0.4-0.2-0.6-0.2c-0.2,0-0.4,0-0.6,0c-0.2,0.1-0.4,0.1-0.5,0.3c-0.2,0.1-0.3,0.3-0.4,0.4s-0.2,0.4-0.2,0.6l-0.6,4.3
			l3,0.5L21.2,230.9z"/>
		<path d="M23.2,214.5c0.1-0.4,0.3-0.6,0.6-0.8c0.3-0.2,0.6-0.2,1-0.1c0.4,0.1,0.6,0.3,0.8,0.6c0.8,1.5,1,3.1,0.6,4.8
			c-0.4,1.9-1.5,3.3-3.1,4.3s-3.4,1.3-5.3,0.9s-3.3-1.5-4.3-3.1s-1.3-3.4-0.9-5.3c0.4-1.7,1.3-3.1,2.7-4c0.3-0.2,0.7-0.3,1.1-0.2
			c0.4,0.1,0.6,0.3,0.8,0.6c0.2,0.3,0.2,0.6,0.2,1c-0.1,0.3-0.2,0.6-0.5,0.8c-0.4,0.3-0.8,0.7-1.1,1.1c-0.3,0.4-0.5,0.9-0.6,1.4
			c-0.1,0.6-0.2,1.2-0.1,1.7s0.3,1.1,0.6,1.6c0.3,0.5,0.7,0.9,1.1,1.2s1,0.6,1.6,0.7c0.6,0.1,1.2,0.2,1.7,0c0.6-0.1,1.1-0.3,1.6-0.6
			c0.5-0.3,0.9-0.7,1.2-1.1c0.3-0.5,0.6-1,0.7-1.6c0.1-0.5,0.2-1,0.1-1.5c-0.1-0.5-0.2-1-0.5-1.5C23.1,215.1,23.1,214.8,23.2,214.5z
			"/>
		<path d="M13.8,201.6c0.4,0.1,0.7,0.4,0.9,0.8c0.2,0.4,0.2,0.8,0.1,1.2s-0.4,0.7-0.8,0.9s-0.8,0.2-1.2,0.1
			c-0.4-0.1-0.7-0.4-0.9-0.8c-0.2-0.4-0.2-0.8-0.1-1.2c0.1-0.4,0.4-0.7,0.8-0.9C13,201.5,13.4,201.5,13.8,201.6z M15.7,196.3
			c0.4,0.1,0.7,0.4,0.9,0.8c0.2,0.4,0.2,0.8,0.1,1.2s-0.4,0.7-0.8,0.9c-0.4,0.2-0.8,0.2-1.2,0.1s-0.7-0.4-0.9-0.8
			c-0.2-0.4-0.2-0.8-0.1-1.2c0.1-0.4,0.4-0.7,0.8-0.9S15.3,196.2,15.7,196.3z M27.6,201.4c0.1-0.4,0.3-0.6,0.7-0.8
			c0.3-0.1,0.6-0.2,1,0c0.3,0.1,0.6,0.3,0.8,0.7c0.6,1.6,0.7,3.2,0.1,4.9c-0.6,1.8-1.8,3.1-3.6,4c-1.7,0.8-3.5,0.9-5.3,0.3
			s-3.1-1.8-4-3.6c-0.8-1.7-0.9-3.5-0.3-5.3c0.6-1.8,1.8-3.1,3.6-4c0.9-0.4,1.7-0.6,2.6-0.7c0.9,0,1.8,0.1,2.7,0.4
			c0.4,0.1,0.6,0.3,0.7,0.7c0.1,0.3,0.2,0.7,0,1l-3.3,9.3c0.5,0,0.9,0,1.4-0.2c0.4-0.1,0.9-0.3,1.2-0.6s0.7-0.6,1-0.9
			s0.5-0.8,0.7-1.2c0.2-0.5,0.3-1,0.3-1.5c0-0.5-0.1-1-0.3-1.4C27.5,202,27.5,201.7,27.6,201.4z M23.7,199.4c-0.5,0-0.9,0-1.4,0.2
			s-0.9,0.3-1.2,0.6c-0.4,0.3-0.7,0.6-1,0.9c-0.3,0.4-0.5,0.8-0.7,1.2s-0.2,0.9-0.3,1.4c0,0.5,0.1,0.9,0.2,1.4
			c0.1,0.4,0.3,0.9,0.6,1.2s0.6,0.7,1,1L23.7,199.4z"/>
		<path d="M38.3,184.9c-0.6,1.6-1.6,2.7-3,3.5l5.8,2.2c0.3,0.1,0.6,0.4,0.7,0.7s0.1,0.7,0,1c-0.1,0.3-0.4,0.6-0.7,0.7s-0.6,0.1-1,0
			l-10.9-4.2c-1.8-0.7-3.1-1.9-3.9-3.7c-0.8-1.8-0.8-3.5-0.1-5.3c0.7-1.8,1.9-3.1,3.7-3.9c0.9-0.4,1.8-0.6,2.6-0.6
			c0.9,0,1.8,0.1,2.7,0.5c1.8,0.7,3.1,1.9,3.9,3.7c0.4,0.9,0.6,1.8,0.6,2.7S38.7,184,38.3,184.9z M30.3,186.5
			c0.6,0.2,1.1,0.3,1.7,0.3s1.1-0.1,1.6-0.4s1-0.5,1.4-0.9c0.4-0.4,0.7-0.9,0.9-1.5c0.2-0.6,0.3-1.1,0.3-1.7c0-0.6-0.2-1.1-0.4-1.6
			c-0.2-0.5-0.5-1-1-1.4c-0.4-0.4-0.9-0.7-1.4-0.9s-1.1-0.3-1.7-0.3c-0.6,0-1.1,0.1-1.6,0.4c-0.5,0.2-1,0.5-1.4,1
			c-0.4,0.4-0.7,0.9-0.9,1.5c-0.2,0.6-0.3,1.1-0.3,1.7c0,0.6,0.2,1.1,0.4,1.6s0.5,1,1,1.4C29.2,185.9,29.7,186.2,30.3,186.5z"/>
		<path d="M43.7,164l-0.2-0.1c0.3,0.7,0.5,1.5,0.6,2.2c0.1,0.8,0,1.6-0.2,2.4c-0.5,1.9-1.6,3.3-3.2,4.3c-1.7,1-3.4,1.2-5.3,0.7
			c-1.9-0.5-3.3-1.6-4.2-3.2c-1-1.7-1.2-3.4-0.7-5.3c0.5-1.8,1.6-3.3,3.2-4.3c1.7-1,3.4-1.2,5.3-0.7l5.5,1.4
			c0.3,0.1,0.6,0.3,0.8,0.6s0.2,0.6,0.1,1c-0.1,0.4-0.3,0.6-0.6,0.8S44,164.1,43.7,164z M32.9,165.7c-0.2,0.6-0.2,1.2-0.1,1.7
			s0.3,1.1,0.6,1.6c0.3,0.5,0.7,0.9,1.1,1.2s1,0.6,1.5,0.8c0.6,0.2,1.2,0.2,1.7,0.1c0.6-0.1,1.1-0.3,1.6-0.5s0.9-0.6,1.3-1.1
			c0.4-0.5,0.6-1,0.8-1.6c0.2-0.6,0.2-1.2,0.1-1.7c-0.1-0.6-0.3-1.1-0.6-1.6c-0.3-0.5-0.7-0.9-1.1-1.3c-0.5-0.4-1-0.6-1.5-0.8
			c-0.6-0.2-1.1-0.2-1.7-0.1c-0.6,0.1-1.1,0.3-1.6,0.6c-0.5,0.3-0.9,0.6-1.3,1.1S33,165.1,32.9,165.7z"/>
		<path d="M31.6,153c0.7,0.6,1.5,1,2.4,1.1c-1-1.2-1.6-2.6-1.6-4.3c-0.1-1.9,0.6-3.6,1.9-5c0.7-0.7,1.4-1.2,2.2-1.6
			c0.8-0.4,1.7-0.6,2.7-0.6c1.9-0.1,3.6,0.6,5,1.9c1.4,1.3,2.1,3,2.2,4.9c0.1,1.9-0.6,3.6-1.9,5c-1.3,1.4-2.9,2.1-4.9,2.2l-4.7,0.1
			c-1,0-1.9-0.1-2.7-0.5c-0.9-0.3-1.6-0.8-2.3-1.4c-0.7-0.6-1.2-1.3-1.6-2.2c-0.4-0.8-0.6-1.7-0.6-2.7l0-0.5c0-1.3-0.3-2.5-0.9-3.6
			c-0.1-0.2-0.1-0.4-0.2-0.6c0-0.2,0-0.4,0.1-0.5c0.1-0.2,0.2-0.3,0.3-0.4c0.1-0.1,0.2-0.2,0.4-0.3c0.2-0.1,0.3-0.1,0.5-0.1
			c0.3,0,0.5,0.1,0.7,0.2c0.2,0.2,0.4,0.4,0.6,0.7c0.2,0.3,0.3,0.6,0.5,1c0.1,0.4,0.2,0.8,0.3,1.2s0.2,0.8,0.2,1.2
			c0,0.4,0.1,0.8,0.1,1.1l0,0.5C30.2,151.2,30.7,152.2,31.6,153z M39.1,145.3c-0.6,0-1.2,0.1-1.7,0.4c-0.5,0.2-1,0.6-1.4,1
			c-0.4,0.4-0.7,0.9-0.9,1.4c-0.2,0.5-0.3,1.1-0.3,1.7c0,0.6,0.2,1.2,0.4,1.7s0.6,1,1,1.4c0.4,0.4,0.9,0.7,1.4,0.9s1.1,0.3,1.7,0.3
			s1.2-0.1,1.7-0.4c0.5-0.2,1-0.6,1.4-1s0.7-0.9,0.9-1.4c0.2-0.5,0.3-1.1,0.3-1.7c0-0.6-0.2-1.2-0.4-1.7s-0.6-1-1-1.4
			c-0.4-0.4-0.9-0.7-1.4-0.9C40.3,145.4,39.7,145.3,39.1,145.3z"/>
		<path d="M32.6,126.1c1.8-0.8,3.6-0.8,5.3-0.1c1.8,0.7,3.1,2,3.8,3.7c0.8,1.8,0.8,3.5,0.1,5.3c-0.7,1.8-1.9,3.1-3.7,3.8
			c-1.8,0.8-3.5,0.8-5.3,0.1c-1.8-0.7-3.1-1.9-3.8-3.7c-0.8-1.7-0.8-3.5-0.1-5.3c0.4-0.9,0.8-1.7,1.5-2.3S31.7,126.5,32.6,126.1z
			 M31.4,134.2c0.2,0.6,0.6,1,1,1.4c0.4,0.4,0.9,0.7,1.4,0.9c0.5,0.2,1.1,0.3,1.6,0.3c0.6,0,1.1-0.1,1.7-0.4c0.5-0.2,1-0.6,1.4-1
			c0.4-0.4,0.7-0.9,0.9-1.4c0.2-0.5,0.3-1.1,0.3-1.6c0-0.6-0.1-1.1-0.4-1.7c-0.2-0.6-0.6-1-1-1.4c-0.4-0.4-0.9-0.7-1.4-0.9
			c-0.5-0.2-1.1-0.3-1.6-0.3c-0.6,0-1.1,0.1-1.7,0.4c-0.5,0.2-1,0.6-1.4,1c-0.4,0.4-0.7,0.9-0.9,1.4c-0.2,0.5-0.3,1.1-0.3,1.6
			C31,133.1,31.1,133.7,31.4,134.2z"/>
		<path d="M29.4,103.6c0.3-0.1,0.7-0.1,1,0s0.5,0.4,0.7,0.7c0.1,0.3,0.1,0.7,0,1c-0.2,0.3-0.4,0.5-0.7,0.7l-6.7,2.4
			c-0.4,0.1-0.7,0.3-1,0.6c-0.3,0.3-0.5,0.6-0.7,0.9s-0.3,0.7-0.3,1.1c0,0.4,0,0.8,0.2,1.2c0.1,0.4,0.3,0.7,0.6,1
			c0.3,0.3,0.6,0.5,0.9,0.7c0.3,0.2,0.7,0.3,1.1,0.3c0.4,0,0.8,0,1.2-0.2l6.7-2.4c0.3-0.1,0.7-0.1,1,0c0.3,0.2,0.5,0.4,0.7,0.7
			c0.1,0.3,0.1,0.7,0,1c-0.2,0.3-0.4,0.5-0.7,0.7l-6.7,2.4c-0.4,0.1-0.7,0.3-1,0.6s-0.5,0.6-0.7,0.9s-0.3,0.7-0.3,1.1
			c0,0.4,0,0.8,0.2,1.2c0.1,0.4,0.3,0.7,0.6,1s0.6,0.5,0.9,0.7c0.3,0.2,0.7,0.3,1.1,0.3c0.4,0,0.8,0,1.2-0.2l6.7-2.4
			c0.3-0.1,0.7-0.1,1,0c0.3,0.2,0.5,0.4,0.7,0.7c0.1,0.3,0.1,0.7,0,1c-0.2,0.3-0.4,0.5-0.7,0.7l-10.7,3.8c-0.3,0.1-0.7,0.1-1-0.1
			c-0.3-0.2-0.5-0.4-0.7-0.7c-0.1-0.3-0.1-0.5,0-0.8c0.1-0.3,0.2-0.5,0.4-0.6c-0.9-0.6-1.5-1.5-1.8-2.6c-0.3-0.8-0.4-1.6-0.3-2.4
			c0.1-0.8,0.3-1.6,0.8-2.3c-1.6-0.6-2.7-1.8-3.3-3.3c-0.3-0.7-0.4-1.4-0.3-2.2c0.1-0.7,0.2-1.4,0.5-2.1c0.3-0.6,0.7-1.2,1.3-1.7
			c0.5-0.5,1.2-0.9,1.9-1.1L29.4,103.6z"/>
		<path d="M27.5,90.8l-0.2,0c0.6,0.5,1.1,1.1,1.4,1.8s0.6,1.4,0.8,2.2c0.3,1.9-0.1,3.6-1.3,5.2c-1.1,1.6-2.7,2.5-4.6,2.8
			c-1.9,0.3-3.6-0.1-5.2-1.3c-1.6-1.1-2.5-2.7-2.8-4.6c-0.3-1.9,0.1-3.6,1.3-5.2c1.1-1.6,2.7-2.5,4.6-2.8l5.6-0.9
			c0.4-0.1,0.7,0,1,0.2c0.3,0.2,0.5,0.5,0.5,0.8c0.1,0.4,0,0.7-0.2,1C28.2,90.5,27.9,90.7,27.5,90.8z M18.3,96.6
			c0.1,0.6,0.3,1.2,0.6,1.6c0.3,0.5,0.7,0.9,1.1,1.2s1,0.6,1.5,0.7c0.6,0.1,1.1,0.2,1.7,0.1s1.1-0.3,1.6-0.6s0.9-0.7,1.2-1.1
			c0.3-0.4,0.6-0.9,0.7-1.5c0.1-0.6,0.2-1.1,0.1-1.7c-0.1-0.6-0.3-1.1-0.6-1.6c-0.3-0.5-0.7-0.9-1.1-1.2c-0.5-0.3-1-0.6-1.5-0.7
			c-0.6-0.1-1.1-0.2-1.7-0.1s-1.1,0.3-1.6,0.6c-0.5,0.3-0.9,0.7-1.2,1.1s-0.6,1-0.7,1.5S18.2,96,18.3,96.6z"/>
		<path d="M24.3,76.1c0-0.4,0.1-0.7,0.4-0.9c0.2-0.2,0.5-0.4,0.9-0.4c0.4,0,0.7,0.1,0.9,0.4c1.1,1.3,1.7,2.8,1.7,4.5
			c0,1.9-0.6,3.6-2,4.9c-1.3,1.4-3,2.1-4.9,2.1c-1.9,0-3.6-0.6-4.9-2s-2.1-3-2.1-4.9c0-1.9,0.6-3.6,2-4.9c0.7-0.7,1.4-1.2,2.2-1.6
			c0.8-0.3,1.7-0.5,2.7-0.5c0.4,0,0.7,0.1,0.9,0.4c0.2,0.3,0.4,0.6,0.4,0.9l0.1,9.8c0.5-0.1,0.9-0.4,1.2-0.6c0.4-0.3,0.7-0.6,1-1
			c0.3-0.4,0.5-0.8,0.6-1.2s0.2-0.9,0.2-1.4c0-0.5-0.1-1-0.3-1.5c-0.2-0.5-0.4-0.9-0.8-1.3C24.4,76.7,24.3,76.4,24.3,76.1z M20,75.6
			c-0.5,0.1-0.9,0.4-1.2,0.6c-0.4,0.3-0.7,0.6-1,1c-0.3,0.4-0.5,0.8-0.6,1.2c-0.1,0.4-0.2,0.9-0.2,1.4c0,0.5,0.1,0.9,0.2,1.4
			s0.4,0.9,0.6,1.2c0.3,0.4,0.6,0.7,1,1s0.8,0.5,1.3,0.6L20,75.6z"/>
		<path d="M29.6,51.8c0.4,0.1,0.6,0.2,0.9,0.5c0.2,0.3,0.3,0.6,0.2,1c-0.1,0.4-0.2,0.6-0.5,0.9c-0.3,0.2-0.6,0.3-1,0.2l-7-1
			c-0.4-0.1-0.8,0-1.2,0.1c-0.4,0.1-0.7,0.3-1,0.5c-0.3,0.2-0.6,0.5-0.8,0.8c-0.2,0.3-0.3,0.7-0.4,1.1c-0.1,0.4,0,0.8,0.1,1.2
			c0.1,0.4,0.3,0.7,0.5,1s0.5,0.6,0.8,0.8c0.3,0.2,0.7,0.3,1.1,0.4l7,1c0.4,0.1,0.6,0.2,0.9,0.5s0.3,0.6,0.2,1
			c-0.1,0.4-0.2,0.6-0.5,0.9s-0.6,0.3-1,0.2l-7-1c-0.4-0.1-0.8,0-1.2,0.1c-0.4,0.1-0.7,0.3-1,0.5c-0.3,0.2-0.6,0.5-0.8,0.8
			c-0.2,0.3-0.3,0.7-0.4,1.1c-0.1,0.4,0,0.8,0.1,1.2c0.1,0.4,0.3,0.7,0.5,1c0.2,0.3,0.5,0.6,0.8,0.8c0.3,0.2,0.7,0.3,1.1,0.4l7,1
			c0.4,0.1,0.6,0.2,0.9,0.5c0.2,0.3,0.3,0.6,0.2,1c-0.1,0.4-0.2,0.6-0.5,0.9c-0.3,0.2-0.6,0.3-1,0.2l-11.2-1.6
			c-0.4-0.1-0.6-0.2-0.8-0.5c-0.2-0.3-0.3-0.6-0.2-1c0-0.3,0.2-0.5,0.4-0.7c0.2-0.2,0.4-0.3,0.7-0.4c-0.5-1-0.6-2-0.4-3.1
			c0.1-0.8,0.4-1.6,0.8-2.2c0.4-0.7,1-1.2,1.7-1.7c-1.1-1.3-1.6-2.8-1.3-4.5c0.1-0.7,0.4-1.4,0.7-2.1c0.4-0.6,0.9-1.1,1.4-1.6
			c0.6-0.4,1.2-0.7,1.9-0.9c0.7-0.2,1.4-0.2,2.2-0.1L29.6,51.8z"/>
	</g>
</g>
</svg>
