<?xml version="1.0" encoding="utf-8"?>
<!-- Generator: Adobe Illustrator 26.0.3, SVG Export Plug-In . SVG Version: 6.00 Build 0)  -->
<!DOCTYPE svg PUBLIC "-//W3C//DTD SVG 1.1//EN" "http://www.w3.org/Graphics/SVG/1.1/DTD/svg11.dtd" [
	<!ENTITY ns_extend "http://ns.adobe.com/Extensibility/1.0/">
	<!ENTITY ns_ai "http://ns.adobe.com/AdobeIllustrator/10.0/">
	<!ENTITY ns_graphs "http://ns.adobe.com/Graphs/1.0/">
	<!ENTITY ns_vars "http://ns.adobe.com/Variables/1.0/">
	<!ENTITY ns_imrep "http://ns.adobe.com/ImageReplacement/1.0/">
	<!ENTITY ns_sfw "http://ns.adobe.com/SaveForWeb/1.0/">
	<!ENTITY ns_custom "http://ns.adobe.com/GenericCustomNamespace/1.0/">
	<!ENTITY ns_adobe_xpath "http://ns.adobe.com/XPath/1.0/">
]>
<svg version="1.1" id="Слой_1" xmlns:x="&ns_extend;" xmlns:i="&ns_ai;" xmlns:graph="&ns_graphs;"
	 xmlns="http://www.w3.org/2000/svg" xmlns:xlink="http://www.w3.org/1999/xlink" x="0px" y="0px" width="295px" height="313px"
	 viewBox="0 0 295 313" style="enable-background:new 0 0 295 313;" xml:space="preserve">
<style type="text/css">
	.st0{fill:#FFFFFF;}
	.st1{fill:#CAA77A;}
	.st2{fill:#FFDB1F;}
	.st3{fill:#FFDBAF;}
	.st4{fill:#9D7B51;}
	.st5{fill:none;stroke:#9D7B51;stroke-width:3.87;stroke-linecap:round;stroke-linejoin:round;stroke-miterlimit:10;}
	.st6{opacity:0.23;fill:#3F2719;}
	.st7{fill:none;stroke:#2D1F04;stroke-width:2.62;stroke-linecap:round;stroke-linejoin:round;stroke-miterlimit:10;}
	.st8{fill:none;stroke:#2D1F04;stroke-width:10.65;stroke-linecap:round;stroke-linejoin:round;stroke-miterlimit:10;}
	.st9{fill:#251707;}
	.st10{fill:#2D1F04;}
	.st11{fill:none;stroke:#2D1F04;stroke-width:3.05;stroke-linecap:round;stroke-linejoin:round;stroke-miterlimit:10;}
	.st12{opacity:0.8258;fill:#B2B2B2;}
	.st13{fill:none;stroke:#2D1F04;stroke-width:2.79;stroke-linecap:round;stroke-linejoin:round;stroke-miterlimit:10;}
	.st14{fill:#D6D1C7;stroke:#000000;stroke-width:1.5;stroke-miterlimit:10;}
	.st15{fill:#004CA3;stroke:#000000;stroke-width:1.5;stroke-miterlimit:10;}
	.st16{fill:#FF0000;}
	
		.st17{clip-path:url(#SVGID_00000065072011895348773470000015485774399356573578_);fill:#004CA3;stroke:#000000;stroke-width:0.6603;stroke-miterlimit:10;}
	.st18{clip-path:url(#SVGID_00000097468618038157546400000009746693397966541220_);}
	.st19{fill:#004CA3;stroke:#FFFFFF;stroke-width:1.5248;stroke-linecap:round;stroke-miterlimit:10;}
	.st20{font-family:'Montserrat-Medium';}
	.st21{font-size:15.4536px;}
	.st22{font-size:6.0652px;}
</style>
<metadata>
	<sfw  xmlns="&ns_sfw;">
		<slices></slices>
		<sliceSourceBounds  bottomLeftOrigin="true" height="313" width="295" x="813.6" y="-696.6"></sliceSourceBounds>
	</sfw>
</metadata>
<path class="st0" d="M290.8,280c-3.4-19.3-8.9-34.4-16.3-45.2c-0.5-0.7-1-1.4-1.5-2.1c-1.9-3.3-3.6-6-5.1-8.3
	c-0.6-0.8-1.2-1.5-2-2.1c-2.4-2.9-4.8-5.3-7.3-7.3c0-1.8,0.1-3.6,0.1-5.4c0.3-2.7,0.5-6.4-0.1-9.6c-0.1-0.3-0.1-0.6-0.2-0.9
	c-0.3-6.4-0.8-12.9-1.6-19.2l0-0.6c-0.4-7.8-0.8-15.9-2-22.5c-1.7-9-4.7-17.3-7.6-25.4L247,131c-10.3-28.8-23.9-51.4-41.7-69.1
	c-3.5-3.8-7.2-7.4-11-10.9c-3.2-3-6.3-5.8-9.4-8.3c-2.5-2-5.6-4-9.6-6.3c-3.7-2.4-7.5-4.6-11.4-6.7c-0.3-0.2-0.6-0.4-0.9-0.5
	c-1.2-0.6-2.4-1.2-3.9-1.9c-3.2-1.6-6.6-3.1-10.1-4.5c-0.4-0.2-0.9-0.5-1.3-0.7c-9.6-5.1-25.2-9.9-34-12.4c-3.5-1.3-4.8-1.8-6.6-1.8
	c-1.5,0-3,0.4-4.3,1.1c-1.5,0.8-2.8,2-3.7,3.5c-0.7-0.1-1.4-0.2-2.1-0.3c-5.9-1-9.8-2.4-11.6-4.1c-0.7-0.7-2.2-1.8-3.2-2.5
	c-1.2-1.4-3.3-3.4-6.2-4.5c-0.2-0.1-0.4-0.2-0.6-0.3C74.1,0.4,72.6,0,71.1,0c0,0,0,0,0,0c0,0,0,0,0,0c-4.1,0-6.6,2.6-7.5,3.5
	c-1.8,1.8-2.5,3.2-2.8,4.1c-0.6,1.6-0.9,3.3-1,5.1c-4,0.2-7.1,1.6-9.4,2.8c-2,0.4-3.9,0.8-5.6,1.2c-4,1-8.1,2.6-11.9,4.5
	c-4,1.5-5.4,4.7-5.8,6.1c-0.6,2-0.4,4.1,0.4,6c-4.4,2.6-6.6,4.7-7.9,6.5c-0.3,0.2-0.5,0.5-0.8,0.7c-3.6,3.4-3.7,7.7-2.5,10.5
	c0.2,0.5,0.5,1.1,0.9,1.8c-5.6,4-8.3,7.2-8.3,11.7c0,3,1.5,5.7,3.7,7.4H8.9c-4.9,0-8.9,4-8.9,8.9c0,4.9,4,8.9,8.9,8.9h0.7
	C-1.6,118.3,2,153.8,20.2,195.5c0.5,2.8,1.2,5.9,3.3,10.4c0.8,1.7,1.9,4.7,2.5,7.2c0,0.4,0.1,0.7,0.1,1.1c0,1.2,0.2,2.3,0.5,3.3
	c0.3,1.3,0.8,2.6,1.6,3.6c0,0.1,0,0.3,0,0.4c-0.1,0.7-0.1,1.4-0.2,2c-0.1,0.2-0.2,0.6-0.2,0.8c-0.6,2.1-1.7,6,1.1,9.7
	c0.2,0.2,0.4,0.5,0.6,0.7l-0.2,8.1c-1.8,1.9-3.2,4.2-4.1,5.9c-3.8,7.2-2.6,12.2-1.1,15l-5,13.9l-0.4,1c-2.8,6.7-6,14.3-7.8,22.3
	c-0.5,2.3-0.1,4.5,0.9,6.4c0.3,0.8,0.8,1.5,1.3,2.2c1.7,2.1,4.3,3.3,7,3.3c0.1,0,0.1,0,0.2,0c1.9,0,25.9-0.3,56.2-0.6
	c56.9-0.5,142.3-1.4,184-1.9c0.8,0.2,1.7,0.4,2.6,0.4c0.1,0,0.2,0,0.3,0c6.5-0.2,14.4-0.5,19.3-0.7c0.9,0,1.6,0,2-0.1
	c0.2,0,0.4,0,0.6,0l1,0c2.6-0.1,5-1.3,6.7-3.3c1.6-2,2.3-4.7,1.9-7.2C293.6,292.7,292.3,286.2,290.8,280z M18.1,64.8
	C18.1,64.8,18.1,64.8,18.1,64.8c-0.1,0-0.1,0-0.1,0C18,64.8,18.1,64.8,18.1,64.8z M15.9,98.7c0.7-2.4,1.5-4.7,2.5-7
	C17.5,94,16.7,96.3,15.9,98.7z M21.1,64.2c-0.1,0-0.2,0-0.2,0C20.9,64.1,21.1,64.2,21.1,64.2C21.1,64.1,21.1,64.2,21.1,64.2z
	 M24.9,47C24.9,47,24.9,47,24.9,47C24.9,47,24.9,47,24.9,47c0.5-0.5,1-0.9,1.5-1.3C25.9,46.1,25.4,46.6,24.9,47z M26.3,48.1
	C26.3,48.1,26.2,48.1,26.3,48.1C26.3,48.1,26.3,48.1,26.3,48.1C26.4,48.1,26.3,48.1,26.3,48.1z M32.7,67.1c-1.1,1.6-2.1,3.2-3.2,4.8
	C30.5,70.3,31.6,68.7,32.7,67.1c0.3-0.5,0.5-1,0.8-1.6C33.2,66.1,32.9,66.6,32.7,67.1z M35.3,266.7c-0.4,0.6-0.8,1.2-1.2,1.8
	C34.5,267.9,34.9,267.3,35.3,266.7c0.1-0.1,0.2-0.3,0.4-0.5C35.5,266.4,35.4,266.6,35.3,266.7z M35,211.8L35,211.8
	c0.1,0.3,0.1,0.6,0.2,0.9C35.1,212.4,35,212.1,35,211.8z M35.5,215.9C35.6,215.9,35.6,215.9,35.5,215.9
	C35.6,215.9,35.6,215.9,35.5,215.9C35.6,215.9,35.6,215.9,35.5,215.9z M36.2,228.7C36.1,228.7,36.1,228.7,36.2,228.7
	C36.2,228.7,36.2,228.7,36.2,228.7C36.2,228.7,36.2,228.7,36.2,228.7z M36.2,215.6C36.2,215.6,36.2,215.6,36.2,215.6
	C36.2,215.6,36.2,215.6,36.2,215.6C36.2,215.6,36.2,215.6,36.2,215.6z M37,224.8C37,224.8,37,224.8,37,224.8
	C37,224.8,37,224.8,37,224.8c0.1-0.6,0.1-1.1,0.2-1.7C37.1,223.7,37.1,224.3,37,224.8z M38.1,247.6
	C38.1,247.6,38.1,247.6,38.1,247.6c0.1,0,0.1,0,0.2,0C38.2,247.6,38.1,247.6,38.1,247.6z M38.6,247.8c-0.1-0.1-0.1-0.2-0.2-0.2
	C38.4,247.6,38.5,247.7,38.6,247.8c0.1-1.2,0.2-2.4,0.4-3.7C38.8,245.4,38.6,246.6,38.6,247.8z M28.9,55.5c-0.3,0.1-0.6,0.3-0.9,0.5
	C28.3,55.8,28.6,55.7,28.9,55.5l10.5-7.6L28.9,55.5z M48.9,33.5c0,0,0.1,0,0.1,0c0,0,0,0,0,0C49,33.5,49,33.5,48.9,33.5z M53.3,24.2
	c-2.4,0.4-4.6,0.8-6.4,1.3C48.7,25,50.9,24.5,53.3,24.2c0.3-0.2,0.6-0.3,0.9-0.5C53.9,23.8,53.6,24,53.3,24.2z M60.4,21.7
	c0,0,0.1,0,0.1,0c0,0,0,0,0,0C60.5,21.7,60.4,21.7,60.4,21.7z M71,9C71,9,71,9,71,9c0.1,0,0.1,0,0.1,0C71.1,9,71,9,71,9z M79.3,15.1
	c-0.1-0.1-0.4-0.4-0.8-0.7C78.9,14.7,79.1,15,79.3,15.1c1,0.9,2.1,1.7,3.4,2.4C81.4,16.8,80.3,16,79.3,15.1z M84.6,18.4
	c1.3,0.6,2.8,1.1,4.2,1.5C87.4,19.5,85.9,19,84.6,18.4z M107.2,17.2C107.2,17.2,107.2,17.2,107.2,17.2
	C107.2,17.2,107.2,17.2,107.2,17.2C107.2,17.2,107.2,17.2,107.2,17.2z M183.6,53.5c1.5,1.3,3,2.7,4.6,4.2
	C186.6,56.3,185.1,54.9,183.6,53.5z M238.5,134.1c-2.2-6.1-4.5-11.9-7.1-17.6C234,122.1,236.3,128,238.5,134.1c0.7,2,1.4,4,2.1,6
	C239.9,138.1,239.2,136.1,238.5,134.1z M247.7,180.7c-0.1-2-0.2-4-0.3-6C247.5,176.7,247.6,178.7,247.7,180.7
	c0.2,1.6,0.4,3.3,0.6,4.9C248.1,183.9,247.9,182.3,247.7,180.7z M249.4,219.5c-0.3-0.2-0.5-0.4-0.8-0.6v0
	C248.9,219.1,249.2,219.3,249.4,219.5c0.5,0.3,1,0.7,1.5,1C250.4,220.2,249.9,219.8,249.4,219.5z"/>
<g>
	<g>
		<path class="st1" d="M38.7,58.2c-3.8,0-13.9,20.9-16.1,25.1c-16.8,31.5-10.6,68.3,2.7,99.8c3.4,8.1,1.9,10.6,5.4,18.1
			c1.6,3.5,3.8,10,3.8,13.7c0,0.8,1.1-1.5,1.1-1.5s0,3-1.2,0.3c-0.4-0.8-0.7-5.8,0.2-5.8c0.4,0,2.1,16,2.3,16.3
			c3.7,10,1,17.4,0.8,23.1c-0.2,5.7,14.5,11,21.5,12.9c26.6,7.2,53.5-0.4,80.2-0.4c6.7,0,25.9,2.2,31.5-3.7
			c4.7-5.1,6.2-11.6,10-17.3c5.1-7.7,17.1-17.1,25.3-20.6c8.5-3.7,19.2-1.4,27.6,0.8c2.2,0.6,8.6,3.5,10.7,1.2
			c3.5-3.7,5.1-14.7,4.2-19.4c-2.3-12.6-1.6-31.1-3.8-43.3c-1.6-8.4-4.4-16.3-7.3-24.3c-11.3-31.7-27.3-57.4-52.6-77.2
			c-6.3-5-16.9-13.7-24.2-17.6c-7-3.8-11.2-5.2-18.2-9c-9.2-5-25.7-9.9-35.6-12.6c-2.5-0.7,3.8,4.2,3.6,4.7
			c-0.3,0.7-6.4,0.6-7.3,0.4c-8.3-1.8-16.7-1.6-24.6-5.4c-1.3-0.6-5.1-9.2-8.9-7.6c-3.8,1.6,3.5,17.9,3.5,17.9s-0.7-1.2-1.2-1.6
			c-2.3-1.9-7.4-3.5-10.4-4.1c-6.2-1.3-8.9,3-14.2,4.1c-0.7,0.2-10.1,2.5-10.1,2.6c0,1.4,13.2,2.5,13.2,4c0,1.3-2.2,0.7-2.7,0.8
			c-2.9,0.5-24,9.4-22.8,13.4c0.5,1.7,13.8,0.3,15.5,1.5c0.5,0.3,1.5,0.4,1.5,0.4s-9.6,5.4-13,6.3c-4.3,1.1-12.4,10.3-8.4,9"/>
		<path class="st2" d="M223.4,209.6c-0.9,0-1.7,0.1-2.6,0.4c-13.2,4-30.7,10.3-39.2,22.4c-2.7,3.8-6.9,13.9-10.6,16.6
			c-1.7,1.2-3.9,1.9-6,2.4c-10.5,2.2-18.5,3.3-28.9,5.5c-22.4,4.8-42.1,3.2-64.6-1.7c-3.6-0.8-12.9-1.6-16.6-2.3
			c-4.3-0.8-8.1-0.9-12.4-2c-5.1-1.4-4.8-2.7-4.8-3.3c-0.4-4.3-9.3,7.5-6.5,11.4c1.2,1.7,3.1,2.8,4.2,4.5c0.6,0.9-0.8,1.9-1.1,2.4
			c-4.9,7-8,14.9-10.9,22.7c-1.9,5-3.1,9.7-4.2,14.6c6.6-0.1,250-2.3,264.3-2.8c-2-22.6-7-46.2-17.4-61.1
			c-6.1-8.7-14.4-20.2-25.3-23.1C235.4,214.6,229.5,209.5,223.4,209.6z"/>
		<path class="st3" d="M20.4,122.2c3.2-14.1,8.5-39.3,20.2-41.6c6.7-1.3,11.9-0.8,19.4-2.8c7.8-2.1,6.9-0.1,21.6-0.5
			c14.7-0.4,7.9-11.2,8.5-11.4c0.6-0.2,10.2,0.2,38.1,12.8c28.9,13.1,52.2-0.3,68.3,31c3.6,7,9.2,23.1,5.4,41
			c-5.5,26.1-8.4,37.1-34.8,56.7c-31.4,23.3-96.3,34.8-128.7-9.2C23.2,177.6,14.4,148.4,20.4,122.2z"/>
		<path class="st4" d="M92,131.3C81,125.4,71.3,158.5,72.2,167c3,29.2,27.4,32.9,45.8,23c26.6-14.3,3.7-68.8-15.3-60.7"/>
		<path class="st4" d="M14.8,113.8c-2.9,12.7,6.5,54.8,11,58.4c3.5,2.8,26.7-1.3,43.6-22.7c16.1-20.4,15.9-64.2,12.5-67.8
			c-1.9-2.1-45-2.3-48.9-1.4C27.4,81.4,18.7,96.3,14.8,113.8z"/>
		<path class="st4" d="M121.5,78.5c-13.6,102.8,65.4,111.4,73,99.5c4.9-7.6,23.1-63.8-15.9-102.4C177.2,74.2,121.6,78.1,121.5,78.5z
			"/>
		<line x1="52.3" y1="226.9" x2="52.3" y2="236.6"/>
		<line class="st5" x1="52.3" y1="226.9" x2="52.3" y2="236.6"/>
		<line x1="61.2" y1="231.9" x2="61.2" y2="241.6"/>
		<line class="st5" x1="61.2" y1="231.9" x2="61.2" y2="241.6"/>
		<path class="st6" d="M19.1,61.1c6.5,0,12-1.9,18.3-3.5c1.8-0.4,3-3.7,3-1.7c0,0.4-0.5,0.5-0.9,0.7c-5.4,3.5-7.6,9.5-10.7,15.5
			c-1.1,2.1-3.9,7.8-3.2,6.4c24.7-47.8,203.7-65.7,193.4,128.4c-0.1,1.7-2.1,4.7-0.5,5.2c3.2,1.2,8.4-2.2,12.4-0.6
			c1.8,0.7,14.8,8.5,16.2,7.5c2.3-1.7,1.2-10.9,1.1-13.9C244.9,120.3,204.5,70,178.3,49c-15.9-12.7-68.2-29.9-69.3-30.2
			c-0.2-0.1-0.4,3.8-2.5,3.4c-7.7-1.4-21.4-1.9-28.2-8c-0.9-0.8-8.4-6.3-8.6-5.8c-0.9,1.9-1.4,12.4-0.5,13.9
			c0.6,1.1,4.4-0.6,3.2-0.6c-10,0-22.6,3.5-33.4,5.8c-0.4,0.1-1.1,0.1-1.1,0.6c0,3.3,14,1.1,14,3.5c0,0.9-4,1.6-9.2,3.2
			c-4.1,1.3-8.9,3.3-12.9,6.6c-0.8,0.7-3.9,3.3-3.2,4c2.6,2.8,9-0.7,12.4,1.2"/>
		<path class="st6" d="M225.7,210.7c-8.4-0.2-17.8,2-28.4,7.2c-1.1,0.5-1.1,3.3-2.1,4c-1.6,1.2,4-0.6,5.9-0.6
			c3.2,0,46.4,21.5,61,79.7c8.5-0.3,19.4-0.7,22.9-0.8C276.2,250.9,258.9,211.5,225.7,210.7z"/>
		<path class="st7" d="M41.1,56.1c-7.3,5.2-11.7,13.8-16.6,21.2C0.4,114,13.1,160.5,30.3,197.2c1.5,3.2,3.7,7,4.1,10.6
			c0.2,1.8-0.7,4.9,0,6.5c0.3,0.7,1.8-1.8,1.9-1c0.4,3.4,0,7.3-0.3,10.6c-0.1,1.3-1.5,4.7-0.6,3.8c0.3-0.3,1.1-3.2,2.2-2.7
			c0.7,0.2,0,20.9-0.4,22.7"/>
		<path class="st7" d="M38.9,57.1c-3.6,1.9-5.9,2-9.6,3.1c-1.8,0.6-3.3,1.3-5.1,1.7c-1.7,0.4-3.5,0.5-5.1,1
			c-0.7,0.2-2.2,1.5-2.2,0.7c0-2.6,19.3-14.1,23-15.4c0.5-0.2,1.4-0.1,1.6-0.7c0.3-0.8-1.4-0.8-2.2-1c-3.6-1-18.1,2.3-15.3-0.3
			C39,31.9,50.4,35.4,50.4,32.5c0-3.5-14.5-2.2-15.6-3.4c-0.2-0.2,0.4-0.2,0.6-0.3c3.3-1.8,6.9-3.2,10.5-4.1
			c6.6-1.7,18.4-3.4,24.9-1"/>
		<path class="st7" d="M71.7,25.3c-1.9-4.1-5.3-10.7-3.5-15.4c0.1-0.3,1.6-1.9,1.9-1.7c1.3,0.7,9.4,14.3,36.7,14.4
			c1,0,2.9,0.3,2.9,0.3s-5.6-5.4-3.5-6.5c0.4-0.2,16.4,6.2,17.9,6.9c11.5,4.8,23,7.7,33.9,13.3"/>
		<path class="st7" d="M139.7,28.6c80,28.5,111.3,118,108.7,188.6"/>
		<path class="st7" d="M38,248.1c62.4,19.3,125.9,5.6,132.9,1.7"/>
		<path class="st7" d="M38,248.2c0.7-4.4-4.3,3.4-5.3,5.6c-1.4,3.2,1.7,6.1,1.5,7.8c-0.2,2-3,6.4-3.8,8.7
			c-3.4,9.8-9.1,20.5-11.7,31.9"/>
		<path class="st7" d="M259.4,228.6c2.9,4.3,5.6,9.2,8.2,13.7c6.8,12.4,13.3,37.5,16.9,57.2"/>
		<path class="st7" d="M168.3,277.6c6.7,6.7,12.8,13.6,16.6,23.2"/>
		<path class="st7" d="M182,294.6c-0.8-6.1-1.4-13.9-4-19.4"/>
		<path class="st7" d="M234.4,212.3c-40.3-10-65.8,37.6-63.6,39.4"/>
		<path class="st7" d="M260.8,230.9c-7.6-10.5-13.8-14.3-26.1-18.5"/>
		<line class="st8" x1="116.9" y1="79.5" x2="192.4" y2="77.2"/>
		<line class="st8" x1="81.7" y1="79.3" x2="13.6" y2="80.9"/>
		<path class="st9" d="M84.1,134.5c-0.2-4.4,4.3-8.7,14.2-9.3c9.9-0.5,18.1,2.6,18.3,7c0.2,4.4-7.7,8.4-17.6,9
			C89.1,141.8,84.3,138.9,84.1,134.5z"/>
		<path class="st7" d="M143.1,269.8c-17.7,6.7-86.6,6.2-108.1-9.1"/>
		<path class="st7" d="M47.7,251.5c-0.9,2.8-1.8,4.9-1.8,8"/>
		<path class="st7" d="M63.6,255c-1.2,2.5-1.4,5.9-1.4,8.7"/>
		<line class="st7" x1="82.7" y1="257.6" x2="81.7" y2="264.5"/>
		<polyline class="st7" points="96.2,259.5 96.2,260.7 96.2,261.4 96.2,262.6 96.2,263.3 96.2,264.1 96.2,264.8 		"/>
		<polyline class="st7" points="88.7,259.9 88.7,260.7 88.7,261.4 88.7,262.2 88.7,262.9 88.7,263.7 		"/>
		<polyline class="st7" points="141.4,257.6 141.4,258.4 141.4,259.1 141.4,260.7 141.4,261.4 		"/>
		<polyline class="st7" points="146.7,257.6 146.7,258.8 146.7,259.9 146.7,260.7 		"/>
		<path class="st10" d="M152.1,124.1c-0.5-0.1-1-0.1-1.4-0.2"/>
		<path class="st11" d="M88.2,158c4.6-9.2,9-11.3,13.6-7.1c1.8,1.7,3.5,4.3,5.3,7.8"/>
		<path class="st12" d="M161.2,86.2h0.4c18.2,0,32.9,16.9,32.9,37.8c0,20.9-14.7,37.8-32.9,37.8h-0.4c-18.2,0-32.9-16.9-32.9-37.8
			C128.3,103.1,143.1,86.2,161.2,86.2z"/>
		<path class="st0" d="M161.2,86.4h0.4c17.6,0,31.8,14.3,31.8,31.8c0,17.6-14.3,31.8-31.8,31.8h-0.4c-17.6,0-31.8-14.3-31.8-31.8
			C129.4,100.6,143.7,86.4,161.2,86.4z"/>
		<path class="st13" d="M161.2,86.4h0.4c17.6,0,31.8,14.3,31.8,31.8S179.2,150,161.6,150h-0.4c-17.6,0-31.8-14.3-31.8-31.8
			S143.7,86.4,161.2,86.4z"/>
		<ellipse class="st10" cx="160.8" cy="112.8" rx="3.5" ry="4.6"/>
		<path class="st12" d="M44.2,87.1h0.3c16.7,0,30.3,16.9,30.3,37.8c0,20.9-13.6,37.8-30.3,37.8h-0.3c-16.7,0-30.3-16.9-30.3-37.8
			C13.9,104.1,27.4,87.1,44.2,87.1z"/>
		<path class="st0" d="M44.2,87.3h0.3c16.2,0,29.3,14.3,29.3,31.8c0,17.6-13.1,31.8-29.3,31.8h-0.3c-16.2,0-29.3-14.3-29.3-31.8
			C14.9,101.6,28,87.3,44.2,87.3z"/>
		<path class="st13" d="M44.2,87.3h0.3c16.2,0,29.3,14.3,29.3,31.8S60.7,151,44.5,151h-0.3c-16.2,0-29.3-14.3-29.3-31.8
			S28,87.3,44.2,87.3z"/>
		<ellipse class="st10" cx="43.8" cy="113.7" rx="3.2" ry="4.6"/>
	</g>
	<g>
		<rect x="45.7" y="62.1" class="st14" width="110.9" height="40.2"/>
		<rect x="45.7" y="52.1" class="st15" width="110.9" height="10.1"/>
		<g>
			<circle class="st16" cx="150.1" cy="57.1" r="2.8"/>
			<g>
				<defs>
					<circle id="SVGID_1_" cx="150.1" cy="57.1" r="2.8"/>
				</defs>
				<clipPath id="SVGID_00000062878227709483676980000003103867582532996510_">
					<use xlink:href="#SVGID_1_"  style="overflow:visible;"/>
				</clipPath>
				
					<line style="clip-path:url(#SVGID_00000062878227709483676980000003103867582532996510_);fill:#004CA3;stroke:#000000;stroke-width:0.6603;stroke-miterlimit:10;" x1="147.5" y1="54.4" x2="153.4" y2="60.3"/>
				
					<line style="clip-path:url(#SVGID_00000062878227709483676980000003103867582532996510_);fill:#004CA3;stroke:#000000;stroke-width:0.6603;stroke-miterlimit:10;" x1="147.1" y1="60" x2="153" y2="54.1"/>
			</g>
		</g>
		<g>
			<circle class="st16" cx="78.9" cy="82.3" r="8.1"/>
			<g>
				<defs>
					<circle id="SVGID_00000111172255099415028640000014345074381156722573_" cx="78.9" cy="82.3" r="8.1"/>
				</defs>
				<clipPath id="SVGID_00000019636429474249460600000007382992244262623660_">
					<use xlink:href="#SVGID_00000111172255099415028640000014345074381156722573_"  style="overflow:visible;"/>
				</clipPath>
				<g style="clip-path:url(#SVGID_00000019636429474249460600000007382992244262623660_);">
					<line class="st19" x1="74.8" y1="78.2" x2="83.2" y2="86.6"/>
					<line class="st19" x1="74.8" y1="86.6" x2="83.2" y2="78.2"/>
				</g>
			</g>
		</g>
		<text transform="matrix(1 0 0 1 90.7343 87.4425)" class="st20 st21">Error</text>
		<text transform="matrix(1 0 0 1 49.5854 59.2081)" class="st0 st20 st22">Error</text>
	</g>
</g>
</svg>
