<?xml version="1.0" encoding="utf-8"?>
<!-- Generator: Adobe Illustrator 26.0.3, SVG Export Plug-In . SVG Version: 6.00 Build 0)  -->
<!DOCTYPE svg PUBLIC "-//W3C//DTD SVG 1.1//EN" "http://www.w3.org/Graphics/SVG/1.1/DTD/svg11.dtd" [
	<!ENTITY ns_extend "http://ns.adobe.com/Extensibility/1.0/">
	<!ENTITY ns_ai "http://ns.adobe.com/AdobeIllustrator/10.0/">
	<!ENTITY ns_graphs "http://ns.adobe.com/Graphs/1.0/">
	<!ENTITY ns_vars "http://ns.adobe.com/Variables/1.0/">
	<!ENTITY ns_imrep "http://ns.adobe.com/ImageReplacement/1.0/">
	<!ENTITY ns_sfw "http://ns.adobe.com/SaveForWeb/1.0/">
	<!ENTITY ns_custom "http://ns.adobe.com/GenericCustomNamespace/1.0/">
	<!ENTITY ns_adobe_xpath "http://ns.adobe.com/XPath/1.0/">
]>
<svg version="1.1" id="Слой_1" xmlns:x="&ns_extend;" xmlns:i="&ns_ai;" xmlns:graph="&ns_graphs;"
	 xmlns="http://www.w3.org/2000/svg" xmlns:xlink="http://www.w3.org/1999/xlink" x="0px" y="0px" width="342.4px" height="391.4px"
	 viewBox="0 0 342.4 391.4" style="enable-background:new 0 0 342.4 391.4;" xml:space="preserve">
<style type="text/css">
	.st0{fill:#FFFFFF;}
	.st1{fill:#FFDB1F;}
	.st2{fill:none;stroke:#2D1F04;stroke-width:2.62;stroke-linecap:round;stroke-linejoin:round;stroke-miterlimit:10;}
	.st3{fill:#9D7B51;}
	.st4{fill:#CAA77A;}
	.st5{fill:#FFDBAF;}
	.st6{fill:none;stroke:#9D7B51;stroke-width:3.87;stroke-linecap:round;stroke-linejoin:round;stroke-miterlimit:10;}
	.st7{opacity:0.23;fill:#3F2719;}
	.st8{fill:none;stroke:#2D1F04;stroke-width:7.6;stroke-linecap:round;stroke-linejoin:round;stroke-miterlimit:10;}
	.st9{fill:#251707;}
	.st10{fill:#2D1F04;}
	.st11{fill:#689BD4;}
	.st12{fill:none;stroke:#2D1F04;stroke-width:3.05;stroke-linecap:round;stroke-linejoin:round;stroke-miterlimit:10;}
	.st13{fill:none;stroke:#2D1F04;stroke-width:2.6;stroke-linecap:round;stroke-linejoin:round;stroke-miterlimit:10;}
	.st14{fill:#D2D2D2;}
</style>
<metadata>
	<sfw  xmlns="&ns_sfw;">
		<slices></slices>
		<sliceSourceBounds  bottomLeftOrigin="true" height="391.4" width="342.4" x="780.4" y="-735.8"></sliceSourceBounds>
	</sfw>
</metadata>
<path class="st0" d="M341.9,285.9c0,0,0-0.1,0-0.1c0.4-1.3,0.5-2.7,0.4-4.1c-0.2-1.5-0.7-3-1.5-4.3c0.1-0.2,0.1-0.3,0.2-0.5
	c0.4-1.4,0.5-2.7,0.4-4.1c-0.2-1.4-0.6-2.7-1.2-3.9c-0.1-0.1-0.2-0.3-0.2-0.4c0.5-1.5,0.7-3,0.6-4.6c-0.1-1.4-0.5-2.7-1.2-3.9
	c0,0,0,0,0-0.1c-0.4-0.8-0.9-1.5-1.5-2.1c0.5-2.4,0.5-4.9-0.1-7.4c-1.1-4.3-3.7-7.8-7.5-10c-1-0.6-2.1-1.1-3.2-1.5
	c0.6-1,1.1-2.1,1.4-3.3c1.3-4.2,0.9-8.5-1.1-12.4c-1.5-3-3.8-5.2-6.6-6.8c0-1-0.1-2-0.3-3c-0.4-2-1.1-3.9-2.3-5.5
	c-0.9-1.3-1.9-2.4-3.1-3.3c-0.4-1.5-1.1-2.8-2-4.1c-0.5-0.7-1-1.3-1.6-1.9c-0.3-0.6-0.6-1.2-1-1.8c-0.5-0.7-1-1.3-1.6-1.9
	c-0.2-0.5-0.4-1-0.7-1.4c-1-1.7-2.4-3.1-4.1-4c0.1-1.9-0.4-3.8-1.4-5.5c-0.6-1-1.3-1.9-2.1-2.6c0-1.2-0.1-2.4-0.5-3.5
	c-0.4-1.3-1.1-2.5-2-3.6c0.1-1.4-0.1-2.7-0.5-4c-0.7-2.1-2-3.9-3.7-5.1c-0.5-0.4-1.1-0.7-1.7-1c0.3-0.3,0.6-0.6,0.9-0.9
	c0.8-1,1.5-2.2,1.8-3.5c0,0,0,0,0,0c0.4-1.3,0.5-2.7,0.3-4.1c-0.1-1-0.4-2-0.8-2.9c0.4-1.4,0.7-2.9,0.7-4.5c0-2.3-0.4-4.6-1.4-6.6
	c1.3-2,2.1-4.2,2.4-6.6c0.3-2.6,0.1-5-0.7-7.4c0.3-0.3,0.6-0.6,0.8-1c1.1-1.5,1.9-3.1,2.4-4.9l1.2-4.9c0.3-1.4,0.4-2.8,0.2-4.1
	c-0.2-1.4-0.7-2.7-1.4-3.9c-0.7-1.1-1.5-2-2.6-2.8c-0.1-0.1-0.2-0.1-0.2-0.2c0.6-1.8,0.6-3.8,0-5.7c-1-2.8-3.2-5-6.1-5.8l-30.1-8.4
	c-0.4-0.6-0.6-1-0.7-1.5c-0.1-0.4-0.1-0.8-0.1-1.4c0-1.7,0.3-3.8,0.6-6.1l0.1-0.5c0.8-5.4,1.9-12.8-2.2-19.6
	c-3.1-5.2-8.1-6.8-11.1-7.7c-0.6-0.2-1.3-0.4-1.7-0.6c-0.8-1-1.5-2.7-2.2-4.6c-1.4-3.6-3.3-8.6-8-12.7c-2.8-2.4-6-4-9.9-5
	c-1.1-0.3-2.3-0.5-3.6-0.7c-0.5-0.1-1.1-0.2-1.6-0.2c-0.7-0.1-1.5-0.2-2.2-0.3l-0.7-0.1c-2.1-0.3-4.1-0.5-5.4-1.1
	c-1.7-0.8-3.3-2.7-5.2-5c-2.9-3.6-6.6-8-12.7-10.5c-2.2-0.9-4.6-1.3-7.2-1.3c-2.7,0-5.2,0.5-7.3,0.9c-1,0.2-1.9,0.4-2.7,0.5
	c-0.1-0.2-0.3-0.4-0.4-0.5c-0.9-1.1-2.1-2.5-3.5-3.7c-0.5-0.4-0.9-0.8-1.4-1.1c-1.1-0.8-2.3-1.4-3.6-1.9c-0.7-0.3-1.4-0.5-2.2-0.6
	c-1.5-0.3-2.9-0.5-4.4-0.5c-0.9,0-1.8,0.1-2.6,0.2c-4.3,0.5-7.9,2.3-10.7,3.8c-1.5,0.8-3,1.5-4.2,1.9c-0.4-0.2-0.8-0.5-1.2-0.8
	c-1.7-1.1-4-2.7-6.9-3.4c-0.6-0.1-1.3-0.3-1.9-0.3c-1-0.1-2-0.2-3-0.2c-13.5,0-22.2,9-29.2,16.2c-0.4,0.4-0.8,0.8-1.2,1.2
	c-0.2,0-0.5,0-0.7,0c-0.5,0-1.1,0-1.6,0c-2.2,0-7.9,0-12.6,4.7c-3.4,3.4-4.9,7.5-6.1,10.7c-0.4,1-0.8,2.3-1.3,3.1
	c-1.6,0.3-4,0.8-6.5,2.3c-1.6,1-2.9,2.2-4.1,3.8c-3.3,4.4-4.2,9.2-4.8,13.1c-0.3,1.9-0.7,3.8-1.2,4.9c-0.2,0.1-0.3,0.1-0.5,0.2
	l-0.3,0.1c-1.1,0.4-2.3,0.8-3.6,1.6c-3.7,2.1-6.2,5.6-7.4,10.2c-0.5,2.1-0.8,4.2-0.7,6.4c0,0.6,0.1,1.3,0.1,1.9
	c0.1,0.6,0.1,1.2,0.2,1.8c0.2,1,0.4,1.9,0.7,3.1c0.2,0.7,0.4,1.3,0.5,2c0.6,2.4,1,3.9,0.9,5.2c0,0,0,0.1-0.1,0.2
	c-0.4,0.7-1.2,1.7-2.1,2.7L47.9,97c-0.3,0.4-0.6,0.7-0.9,1.1c-2.3,2.9-5.1,7-6,12.8c-0.2,1.1-0.2,2.2-0.2,3.2c0,5.6,2.1,10.4,6.2,14
	c1.8,1.5,3.5,2.5,5,3.4c0.1,0.1,0.2,0.1,0.4,0.2c0,0.3,0.1,0.6,0.1,1c0,0.4,0.1,0.9,0.1,1.4c0,0.2,0,0.4,0,0.7v0.6
	c0,0.2,0,0.4,0,0.6c0,0.6,0,0.9-0.1,1.1c-0.2,0.6-0.4,1.2-0.7,1.7c-0.1,0.2-0.2,0.4-0.3,0.6l-0.1,0.1c-1.1,2.5-2.7,5.8-2.6,10.6
	c0,1.1,0.1,2.2,0.3,3.3c1.4,9.1,7.7,14.7,13,18.6c0.2,0.2,0.5,0.4,0.8,0.5c0.7,0.5,1.5,1,2.2,1.5c0.5,0.3,1,0.6,1.4,1l0.7,0.5
	c1.3,0.9,2.6,1.7,3.8,2.6c0.6,0.4,1.1,0.8,1.5,1.2c0.3,0.2,0.6,0.5,0.9,0.7c1.5,1.3,2.1,2,2.2,2.8c-20.4,15.2-35.3,33.4-44.2,54.3
	c-3.5,8.2-4.9,20.8-3.4,31.9c1.1,8.6,3.8,15.8,7.8,21.3c-2.4,2-4.6,4.5-6.4,7.7c-0.3,0.4-0.6,0.9-0.8,1.4l-0.1,0.2
	c-1.9,2.7-3.4,5.1-4,7.7c-0.1,0.5-0.5,2.1-0.4,6.4c-0.3,3.8,0.1,7.6,1,11.3c0.2,0.8,0.4,1.5,0.6,2.3c0.5,2,1,3.8,1.7,5.4
	c0.1,0.2,0.2,0.4,0.3,0.6c-3.8,2.7-7.2,5.4-8.9,6.8c-0.5,0.4-1.1,0.9-1.6,1.3c-3.3,2.1-5.6,3.8-7.5,5.5l-0.3,0.2
	c-2.6,2.3-5.4,5-7,8.2c-2.4,3.4-2.9,6.7-1.4,10c1.3,2.7,3.8,4.6,6.6,5.1c0.9,0.3,1.8,0.4,2.7,0.4c0.8,0,1.5-0.1,2-0.2
	c0,0,0.1,0,0.1,0c7.9,0.1,15.1,0.8,21.3,1.4c6.3,1.4,12.8,2.7,17.7,2.7c1.7,0,3.2-0.2,4.6-0.5c0.8,0.1,1.6,0.1,2.3,0.1
	c2.2,0.3,4.7,0.5,7.3,0.5c5.2,0,17.5-0.6,24-5.9c3.8-2.2,5.4-5,6.2-7.4c0.1,0,0.1,0,0.2,0l20.2,2c0.2,0,0.5,0.1,0.7,0.2
	c2,0.6,4,1.1,6,1.4c-0.7,0.9-1.6,2-2.4,3.1c-2,2.2-3.7,4.2-5,5.8c-0.7,0.9-1.2,1.5-1.6,2c-4,5.4-1.6,10.4,0.4,12.4
	c1.7,1.7,4.1,2.7,6.6,2.7h0.2c0.8,0.2,1.6,0.3,2.4,0.3c2,0,3.6-0.6,4.9-1.4c4-0.9,8.1-3.1,12.7-5.6c0.9-0.5,2-1.1,2.4-1.3l0.3-0.1
	l0.1,0c0.9-0.3,1.7-0.6,2.6-0.9c4.9-1,11.8-2.6,18.5-4.8c0.5-0.1,1.1-0.2,1.8-0.3c0.1,0,0.2,0,0.3,0c0.1,0,0.2,0,0.3,0
	c2.8,0.8,5.8,1.2,9,1.2c3.2,0,6.1-0.4,8.9-0.7l0.1,0c1.8,0.2,3.7,0.4,5.7,0.6c4.6,0.5,9.8,1,15.1,1.5l0.6,0.1
	c2.9,0.7,5.9,1.5,8.9,2.1c1.4,0.3,2.8,0.4,4.4,0.4c1.6,0,3.2-0.1,4.5-0.3c0.5,0,0.9-0.1,1.4-0.1c1,0,2,0.1,2.9,0.1
	c2.9,0.5,5.9,0.8,9,0.8c6.7,0,13.9-1.2,20.8-3.5c4.2-1.1,8-2.5,11.2-4.2l0.2-0.1c4.9-2.6,8.7-6,11.1-10.1c0-0.1,0.1-0.1,0.1-0.2
	l26.2,2c0.2,0,0.5,0,0.7,0c4.1,0,7.8-2.8,8.7-6.9l0.4-1.5h0.1c1.7,0,3.3-0.4,4.8-1.2c2-1.1,3.6-2.8,4.6-5c0.6-1.3,0.9-2.6,0.9-4
	c1-1,1.8-2.1,2.3-3.4c0.9-2,1.1-4.2,0.7-6.3c-0.1-0.5-0.2-1-0.4-1.4c2.7-2,4.6-4.7,5.7-8c0.8-2.4,1-4.9,0.7-7.3
	c0.5-0.5,1-1.1,1.4-1.7c0.8-1.2,1.2-2.5,1.5-3.8c0.2-1.4,0.2-2.8-0.1-4.1c-0.1-0.3-0.1-0.5-0.2-0.8c0.2-0.2,0.3-0.4,0.5-0.7
	c0.8-1.2,1.3-2.4,1.5-3.8c0.2-1.2,0.2-2.5,0-3.7c0.5-1.2,0.8-2.4,0.8-3.7c0.1-1.8-0.3-3.5-1.1-5c0.9-1.5,1.4-3.2,1.5-4.9
	C342.5,288.3,342.3,287.1,341.9,285.9z M121,382.1C121,382.1,121,382.1,121,382.1L121,382.1C121,382.1,121,382.1,121,382.1z
	 M123.6,382.4C123.6,382.4,123.5,382.4,123.6,382.4L123.6,382.4C123.6,382.4,123.6,382.4,123.6,382.4z M160.2,9c0,0,0.1,0,0.2,0
	s0.1,0,0.2,0H160.2z M220,373.2c-0.1,0-0.1,0-0.2,0h0.4C220.2,373.2,220.1,373.2,220,373.2z M297.1,218.1L297.1,218.1
	c0,0,0.1,0,0.2,0C297.2,218,297.2,218.1,297.1,218.1z M310.4,237.6C310.4,237.6,310.4,237.6,310.4,237.6L310.4,237.6
	C310.5,237.6,310.5,237.6,310.4,237.6z M311.7,249.7C311.8,249.7,311.8,249.7,311.7,249.7c0.1,0,0.2,0,0.2,0
	C311.9,249.7,311.8,249.7,311.7,249.7z M315.5,237.4C315.5,237.4,315.5,237.4,315.5,237.4L315.5,237.4
	C315.6,237.4,315.6,237.4,315.5,237.4z M320.6,342c0,0-0.1,0-0.1,0c0.1,0,0.2,0,0.3,0C320.8,342,320.7,342,320.6,342z M321.7,247
	c0,0,0.1,0,0.2,0c0,0,0.1,0,0.1,0H321.7z M331.7,300.5L331.7,300.5C331.6,300.5,331.7,300.4,331.7,300.5
	C331.7,300.4,331.7,300.5,331.7,300.5z"/>
<g>
	<g>
		<path class="st1" d="M81.9,188.2c9.2-18.5-22.3-20.4-24.9-37.1c-0.9-5.8,1.9-8.1,3.2-12.7c0.7-2.4,0.2-8.8-0.2-11.2
			c-1.1-5.3-12.6-4.3-11-15.9c1.2-8.2,8.6-11.2,9.5-17.3c1-7-3.8-12.1-2-19.5c1.7-6.7,7-4.2,10-8.3c4-5.3,2.3-13.2,6.3-18.5
			c2.8-3.7,6.7-1.8,9.3-4.4c3.8-3.8,3.9-10.7,7.8-14.6c4.1-4.1,10.4-0.2,13.7-3.4c7.5-7.5,15.2-17.1,27.3-15.9
			c3.8,0.4,6.9,5.3,11.5,4.6c6.9-1.1,12-7.2,19.5-5.6c5,1.1,6.4,7.6,10.7,8.1c5.3,0.6,10.9-2.8,16.1-0.7
			c7.8,3.1,10.1,12.1,17.6,15.4c6.6,2.9,15.1,0.8,21.2,6.1c5.6,4.8,5.1,12.2,10,17.1c3,3,8.8,2.3,11.2,6.3
			c4.1,6.9-1.1,16.9,0.5,24.6c1.1,5.6,5.6,7.9,7.1,13.2c1.4,5-3.2,7.9-2.4,12.7c0.9,5.2,6.5,6.4,7.6,11c1.3,5.8-2.9,10.9-3.4,16.3
			c-0.3,3.3,0.9,6.1-0.2,9.5c-2,5.9-9.1,8.8-12,14.4"/>
		<path class="st2" d="M81.9,188.2c9.2-18.5-22.3-20.4-24.9-37.1c-0.9-5.8,1.9-8.1,3.2-12.7c0.7-2.4,0.2-8.8-0.2-11.2
			c-1.1-5.3-12.6-4.3-11-15.9c1.2-8.2,8.6-11.2,9.5-17.3c1-7-3.8-12.1-2-19.5c1.7-6.7,7-4.2,10-8.3c4-5.3,2.3-13.2,6.3-18.5
			c2.8-3.7,6.7-1.8,9.3-4.4c3.8-3.8,3.9-10.7,7.8-14.6c4.1-4.1,10.4-0.2,13.7-3.4c7.5-7.5,15.2-17.1,27.3-15.9
			c3.8,0.4,6.9,5.3,11.5,4.6c6.9-1.1,12-7.2,19.5-5.6c5,1.1,6.4,7.6,10.7,8.1c5.3,0.6,10.9-2.8,16.1-0.7
			c7.8,3.1,10.1,12.1,17.6,15.4c6.6,2.9,15.1,0.8,21.2,6.1c5.6,4.8,5.1,12.2,10,17.1c3,3,8.8,2.3,11.2,6.3
			c4.1,6.9-1.1,16.9,0.5,24.6c1.1,5.6,5.6,7.9,7.1,13.2c1.4,5-3.2,7.9-2.4,12.7c0.9,5.2,6.5,6.4,7.6,11c1.3,5.8-2.9,10.9-3.4,16.3
			c-0.3,3.3,0.9,6.1-0.2,9.5c-2,5.9-9.1,8.8-12,14.4"/>
		<path class="st3" d="M85.1,269.3c-2.5,4.9-9.7,14.5-14.6,17.2c-1.1,0.6-7.6,3.9-7.4,5.3c0.1,0.8,10.7,1.6,12,2
			c6.8,2.2,11.1,5.3,16.8,9.3"/>
		<path class="st4" d="M221.5,178.5c1.7,5.2,7.8,7.6,11.2,11.6c7.6,9.2,15.4,17.8,22.7,27.3c2.9,3.7,6.9,12.8,11.2,14.9"/>
		<path class="st4" d="M122.3,50.4c-4.6,0-5.8-4.7-9.2-5.5c-0.4-0.1-1,0-1.1,0.4c-0.7,1.6,1.8,12.5,3,12.5c0.1,0-2.2-4.4-2.6-4.5
			c-1.8-0.4-5.1,0.5-7,0.2c-4.9-0.7-6.8,1.5-11.5,2.4c-0.4,0.1-5.1,0.7-5.2,0.7c-0.4,0.8,1.7,0.7,2.6,0.7c1.3,0.1,7.6,0.3,8.1,2.2
			c0.3,1.1-3.7,1.7-4.4,1.8c-1.8,0.4-15.8,5.8-14.8,7.7c0.2,0.4,9.7,0.4,11.4,0.4c0.4,0,1.1,0,1.1,0s-2.8,0.6-4.1,1.1
			c-2.9,1.2-5.2,1.9-7.4,4.1c-0.9,0.9-1.4,2.1-2.2,3c-0.2,0.2-0.9,0.2-0.7,0.4c0.9,0.9,12.9-3.3,14-2.2c0.6,0.6-1.7,0.8-2.2,1.5
			c-0.7,0.9-1.4,1.7-2.2,2.6c-2.8,2.8-5,5.9-7,9.2c-5.8,9.7-8.1,16.3-10,27.3c-0.4,2.7-1.3,6.4-0.7,9.2c1.3,6.4,1.3,12.6,3.3,18.8
			c1.3,3.8,4.2,13.7,6.1,17.3c4.4,8.9,9.3,13.1,7.2,23.3c-2,10-6.1,20.2-7.7,30.3c-1.5,9.2,1.8,18.7,0.7,28
			c-1.1,10.2-3.8,20.2-7.4,29.9c-1.8,4.9-5.2,5.7-7.4,10c-0.4,0.9-2.6,3.7-1.5,4.8c0.4,0.4,2.3,0.1,1.8-0.4c0,0-7.9,2.8-8.9,3
			c-8.5,1.7-16.6,3.2-20.7,11.4c-0.6,1.2-3.4,4.7-3.8,6.5c-0.4,1.9-0.3,13.1,2.5,20c0.6,1.5,9.5,6.3,9.5,6.4
			c-0.1,0.5-4.8,0.8-4.6,1.5c0.8,5,8.9,8.7,11.7,12.1c2.3,2.9,1.9,14.3,2.6,14.8c5.3,3.2,26.3,2,29.9-2.8c1.3-1.8,4.4-12.4,5.1-13
			c0.4-0.4-0.6,3.1-0.2,3.4c1.7,0.8,5.7-0.8,7.6-0.4c3.9,0.8,9.7,0.9,13.4,1.5c1.9,0.3,1.2-0.3,3.2,0c8.6,1.4,11.2,2.7,19.8,4.2
			c0.9,0.1,12.3-0.1,13.1-0.9c1.2-1.2,5.7-10.3,7-10.7c0.3-0.1,1.4,0,1.1,0.7c-1.2,3.5,5.9,16.6,8.5,19.2c1.1,1.1,4.5,2.5,5.9,3
			c8.8,2.9,17.4-1.1,26.2,0c7.5,0.9,14.8,3.3,22.1,4.8c4,0.8,8.5-0.8,12.5,0c13.1,2.6,30.2-1.9,41-10c4.3-3.2,13.1-20.7-1.4-33.9
			c87.7-26.4-7.7-131.1-27.8-170.5c-3.4-6.7-4.7-13.3-5.9-20.3c-1-6.2-3.8-13.4-6.3-19.2c-5.2-12-12.8-22.2-21-32.5
			C202.3,79.1,196,74,189.3,69c-9.5-7.2-21.3-11.6-33-14.7c-3.9-1-7.7-1.9-11.5-2.7c-1.3-0.3-2.7-0.6-4-0.8
			c-4.6-0.9-0.6,2.8-1.5,3.7c-0.9,0.9-4.1-2.2-6.9-2.5c-2.8-0.3-1.9-0.4-9.4-2.4"/>
		<path class="st5" d="M78.4,112.8c2.3-9.4,6.5-13.1,14.9-14.7c9.9-1.8,13-16.8,22.5-17.2c1.8-0.1,5.9-1,6.8-2.6
			c2.7-5.1-3.5-7.3-0.4-6.7c3.1,0.6,22.9,7.5,29.6,8.2c19.4,2.1,37.5,5.9,49,26.7c2.6,4.7,8.8,20.2,6.1,32.2
			c-3.9,17.5-6,24.8-24.9,37.8C159.5,192,99.6,187.4,85.8,162C86.2,142.2,74.1,130.3,78.4,112.8z"/>
		<path class="st3" d="M132.4,137c-7.8-3.9-16.8,11.6-17.1,22.6c-0.8,22.5,29.8,27.9,46.9,16.7c17.9-11.7-3.7-46.1-17.3-40.6"/>
		<path class="st3" d="M78.3,108.5c-7.4,16.1,2.1,48.5,8.5,54.8c7.5-2.4,13.6-5.5,18.4-9.2c30.9-23.5,11.4-68.4,9.3-70.5
			c-1.4-1.4-26.8,14.3-29.6,14.8C80.9,99.1,79.8,105.2,78.3,108.5z"/>
		<path class="st3" d="M154.8,82.7c-14.1,67.9,41.4,82.2,46.9,74.2c3.5-5.1,10.4-28.9,1.3-45c-0.9-1.6-13.4-19.5-15.1-19.2
			C174.3,94.9,157.6,69.1,154.8,82.7z"/>
		<path class="st3" d="M271.9,64.8c-0.3-0.3-0.5-0.7-0.8-1"/>
		<line x1="99.7" y1="189.5" x2="99.6" y2="196"/>
		<line class="st6" x1="99.7" y1="189.5" x2="99.6" y2="196"/>
		<line x1="106.1" y1="192.8" x2="106" y2="199.3"/>
		<line class="st6" x1="106.1" y1="192.8" x2="106" y2="199.3"/>
		<path class="st7" d="M75.8,78.8c4.7,0,8.6-1.3,13.1-2.3c1.3-0.3,3.9-1.7,3.9-0.4c0,0.3-0.5,0.2-0.8,0.4c-3.9,2.3-7,5.6-9.3,9.7
			c-0.8,1.4-2.8,5.2-2.3,4.2c17.7-31.9,146.1-43.9,138.7,85.8c-0.1,1.2-1.5,3.1-0.4,3.5c2.3,0.8,5.4-11.7,8.3-10.6
			c1.3,0.5,10.1-15.6,11.1-16.3c1.7-1.1-0.5,2.3-0.6,0.4c-2.2-34.4-20.5-60.8-45.8-82.8c-20.9-18.2-50.6-19.5-51.4-19.7
			c-0.1,0-3.1,1.8-4.6,1.5c-5.6-0.9-11.8-3-17.4-4.6c-0.9-0.2-6-4.2-6.2-3.9c-0.6,1.3-1,8.3-0.4,9.3c0.4,0.7,3.2-0.4,2.3-0.4
			c-7.2,0-16.2,2.3-23.9,3.9c-0.3,0.1-0.8,0.1-0.8,0.4c0,2.2,10,0.8,10,2.3c0,1.1-13.9,5-15.8,6.6c-0.6,0.5-2.8,2.2-2.3,2.7
			c1.9,1.9,6.4-0.5,8.9,0.8"/>
		<path class="st2" d="M91.7,75.5c-5.3,3.5-9,8.8-11.9,14.2c-10.7,19.5-11,36.5-3.3,63.1c1.7,6,4.7,11.6,7.4,17
			c1.1,2.2,2.6,4.6,3,7.1c0.2,1.2-0.5,3.3,0,4.3c0.2,0.5,1.3-1.2,1.4-0.7c0.3,2.3,0,4.9-0.2,7.1c-0.1,0.8-1.1,3.1-0.5,2.5
			c0.2-0.2,0.8-2.1,1.6-1.8c0.5,0.2,0,12.3-0.2,13.5"/>
		<path class="st2" d="M90.1,76.2c-2.6,1.3-4.2,1.3-6.9,2.1c-1.3,0.4-2.3,0.9-3.7,1.1c-1.2,0.3-2.5,0.4-3.7,0.7
			c-0.5,0.2-1.6,1-1.6,0.5c0-1.7,13.8-9.4,16.5-10.3c0.4-0.1,1-0.1,1.1-0.5c0.2-0.6-1-0.5-1.6-0.7c-2.6-0.7-8.8,1.4-11-0.2
			c-0.6-0.4,4.1-3.3,4.3-3.4c2.9-1.6,5.7-3.7,8.9-4.6c1.9-0.5,5.7,0.8,5.7-1.1c0-2.3-10.4-1.5-11.2-2.3c-0.1-0.1,0.3-0.2,0.5-0.2
			c2.4-1.2,5-2.1,7.5-2.7c4.7-1.1,13.2-2.2,17.8-0.7"/>
		<path class="st2" d="M113.6,54.9c-1.4-2.7-3.8-7.2-2.5-10.3c0.1-0.2,1.1-1.3,1.4-1.1c0.9,0.5,1.6,2.1,2.7,2.7
			c4.5,2.4,9.6,4.1,14.6,5.3c3,0.7,6,0.9,8.9,1.6c0.7,0.1,2.1,0.2,2.1,0.2s-4-3.6-2.5-4.3c0.3-0.1,28,5.8,40.4,13"/>
		<path class="st8" d="M149.9,79.4c45.6,4.5,57.8,39.4,57.8,39.4"/>
		<path class="st8" d="M116.7,82.8c-40.3,4.3-47.9,50-47.9,50"/>
		<path class="st9" d="M126.9,137.6c-0.1-3,5.6-5.6,12.9-6c7.3-0.4,13.3,1.7,13.5,4.7c0.1,3-5.6,5.6-12.9,6
			C133,142.7,127,140.6,126.9,137.6z"/>
		<path class="st10" d="M169.2,38.6c0-0.1,0.1-0.1,0.2-0.1c0.1,0,0.2,0.1,0.2,0.1c0,0.1-0.1,0.1-0.2,0.1
			C169.3,38.8,169.2,38.7,169.2,38.6z"/>
		<path class="st10" d="M171.2,120.9c-0.3,0-0.7-0.1-1-0.1"/>
		<path class="st2" d="M188.2,66.6c-1.6-4.1,3-13.9,5.7-16.4"/>
		<path class="st2" d="M206.8,82.7c-1.6-4.1,0.9-15.8,9.1-19.7"/>
		<path class="st11" d="M222.7,103.3c4.6,0.4,7-1.3,11.4-4.6"/>
		<path class="st2" d="M222.7,103.3c4.6,0.4,7-1.3,11.4-4.6"/>
		<path class="st11" d="M232.1,123.5c2.3,0.2,5.9,0.1,8.9-1.1"/>
		<path class="st2" d="M232.1,123.5c2.3,0.2,5.9,0.1,8.9-1.1"/>
		<path class="st2" d="M169.8,57.7c-5.6-3.5-4.3-16.8,0.3-23.4"/>
		<path class="st2" d="M140.4,48.7c-5-6-10.8-8.1-8.6-26"/>
		<path class="st11" d="M78.6,91.2c-2.9-0.3-9.3-0.6-13.9-3.2"/>
		<path class="st2" d="M78.6,91.2c-2.9-0.3-9.3-0.6-13.9-3.2"/>
		<path class="st11" d="M70.9,137c-0.2,2.2-1.9,5-6.7,6.2"/>
		<path class="st2" d="M70.9,137c-0.2,2.2-1.9,5-6.7,6.2"/>
		<path class="st11" d="M74.9,149.4c-1.1,1.7-1,5.3-6.8,7.5"/>
		<path class="st2" d="M74.9,149.4c-1.1,1.7-1,5.3-6.8,7.5"/>
		<path class="st2" d="M120.7,29.5c-0.2,7.6,0.9,16.2,10.2,22"/>
		<path class="st2" d="M180,50.4c-1.4,4-3.2,9.9,2,13.2"/>
		<path class="st2" d="M213.9,92c-0.7-13.8,7.8-19.8,14.6-23.1"/>
		<path class="st11" d="M237.7,142.2c0-0.2,4.1,2,7.5,1.2"/>
		<path class="st2" d="M237.7,142.2c0-0.2,4.1,2,7.5,1.2"/>
		<path class="st12" d="M139.5,142.6c-1,15.1,12.8,5.5,13.7,21.2"/>
		<path class="st3" d="M157.5,49.8c-0.3-0.3-0.5-0.7-0.8-1"/>
		<path class="st0" d="M101.5,112.1L101.5,112.1c6.7,0,12.1,5.4,12.1,12v0.8c0,6.6-5.4,12-12.1,12c-6.7,0-12.1-5.4-12.1-12v-0.8
			C89.4,117.4,94.8,112.1,101.5,112.1z"/>
		<path class="st13" d="M101.5,112.1L101.5,112.1c6.7,0,12.1,5.4,12.1,12v0.8c0,6.6-5.4,12-12.1,12c-6.7,0-12.1-5.4-12.1-12v-0.8
			C89.4,117.4,94.8,112.1,101.5,112.1z"/>
		<path class="st0" d="M178.5,114.2L178.5,114.2c6.7,0,12.1,5.4,12.1,12v0.8c0,6.6-5.4,12-12.1,12s-12.1-5.4-12.1-12v-0.8
			C166.4,119.5,171.8,114.2,178.5,114.2z"/>
		<path class="st13" d="M178.5,114.2L178.5,114.2c6.7,0,12.1,5.4,12.1,12v0.8c0,6.6-5.4,12-12.1,12s-12.1-5.4-12.1-12v-0.8
			C166.4,119.5,171.8,114.2,178.5,114.2z"/>
		<path class="st10" d="M98.9,124.3c0-1.7,1.3-3.1,2.9-3.1c1.6,0,2.9,1.4,2.9,3.1c0,1.7-1.3,3.1-2.9,3.1
			C100.2,127.3,98.9,125.9,98.9,124.3z"/>
		<path class="st0" d="M122.8,18.7c0-1.7,1.3-3.1,2.9-3.1c1.6,0,2.9,1.4,2.9,3.1c0,1.7-1.3,3.1-2.9,3.1
			C124.1,21.8,122.8,20.4,122.8,18.7z"/>
		<path class="st0" d="M155.5,18.5c0-1.7,1.3-3.1,2.9-3.1c1.6,0,2.9,1.4,2.9,3.1c0,1.7-1.3,3.1-2.9,3.1
			C156.8,21.6,155.5,20.2,155.5,18.5z"/>
		<path class="st0" d="M185.4,25.3c0-1.7,1.3-3.1,2.9-3.1c1.6,0,2.9,1.4,2.9,3.1c0,1.7-1.3,3.1-2.9,3.1
			C186.7,28.3,185.4,26.9,185.4,25.3z"/>
		<path class="st0" d="M218,43.9c0-1.7,1.3-3.1,2.9-3.1c1.6,0,2.9,1.4,2.9,3.1c0,1.7-1.3,3.1-2.9,3.1C219.4,47,218,45.6,218,43.9z"
			/>
		<path class="st0" d="M237.3,67.5c0-1.7,1.3-3.1,2.9-3.1c1.6,0,2.9,1.4,2.9,3.1c0,1.7-1.3,3.1-2.9,3.1
			C238.6,70.6,237.3,69.2,237.3,67.5z"/>
		<path class="st0" d="M244.7,98.7c0-1.7,1.3-3.1,2.9-3.1c1.6,0,2.9,1.4,2.9,3.1c0,1.7-1.3,3.1-2.9,3.1
			C246,101.7,244.7,100.4,244.7,98.7z"/>
		<path class="st0" d="M250.7,125.3c0-1.7,1.3-3.1,2.9-3.1c1.6,0,2.9,1.4,2.9,3.1c0,1.7-1.3,3.1-2.9,3.1
			C252,128.4,250.7,127,250.7,125.3z"/>
		<path class="st0" d="M91.8,37.2c0-1.7,1.3-3.1,2.9-3.1c1.6,0,2.9,1.4,2.9,3.1c0,1.7-1.3,3.1-2.9,3.1
			C93.1,40.3,91.8,38.9,91.8,37.2z"/>
		<path class="st0" d="M74.6,54.4c0-1.7,1.3-3.1,2.9-3.1c1.6,0,2.9,1.4,2.9,3.1c0,1.7-1.3,3.1-2.9,3.1
			C75.9,57.5,74.6,56.1,74.6,54.4z"/>
		<path class="st0" d="M62.6,79.8c0-1.7,1.3-3.1,2.9-3.1c1.6,0,2.9,1.4,2.9,3.1c0,1.7-1.3,3.1-2.9,3.1
			C63.9,82.9,62.6,81.5,62.6,79.8z"/>
		<path class="st0" d="M54.8,113.2c0-1.7,1.3-3.1,2.9-3.1c1.6,0,2.9,1.4,2.9,3.1c0,1.7-1.3,3.1-2.9,3.1
			C56.1,116.3,54.8,114.9,54.8,113.2z"/>
		<path class="st0" d="M62.5,150.6c0-1.7,1.3-3.1,2.9-3.1c1.6,0,2.9,1.4,2.9,3.1c0,1.7-1.3,3.1-2.9,3.1
			C63.8,153.6,62.5,152.2,62.5,150.6z"/>
		<path class="st10" d="M175.8,125.9c0-1.7,1.3-3.1,2.9-3.1c1.6,0,2.9,1.4,2.9,3.1c0,1.7-1.3,3.1-2.9,3.1
			C177.2,128.9,175.8,127.5,175.8,125.9z"/>
		<path class="st10" d="M186.5,250.4c0-1.7,1.3-3.1,2.9-3.1c1.6,0,2.9,1.4,2.9,3.1c0,1.7-1.3,3.1-2.9,3.1
			C187.9,253.5,186.5,252.1,186.5,250.4z"/>
		<path class="st10" d="M114.8,243.9c0-1.7,1.3-3.1,2.9-3.1c1.6,0,2.9,1.4,2.9,3.1c0,1.7-1.3,3.1-2.9,3.1
			C116.1,246.9,114.8,245.6,114.8,243.9z"/>
		<path class="st14" d="M39.2,336.1c-4.9,4.9-18.5,11.2-24.6,16.6c-1.7,1.5-6,5.2-5.8,7.8c0.1,0.8,0.7,0.5,1.1,0.4
			c4.8-0.5,12-1,16.8-0.2c4.7,0.8,24.4,6.4,27.5,3.4c1.4-1.3,0.9-3.5,0.6-5.1c-1.3-8.6-6.8-14.2-12.6-20.3
			C41.3,337.8,40,335.3,39.2,336.1z"/>
		<path class="st14" d="M151.3,347.2l-24,24.9c0,0-4.7,9.4-4.7,9.4c0.1,0.1,2.1-1.2,2.1-1.2c4.3-2.8,12.8-6.6,18-7.7
			c6.3-1.3,13.4-3,19.4-5c0.4-0.1,2.6-0.1,2.4-0.9C162.7,360,151.3,347.2,151.3,347.2z"/>
		<path class="st14" d="M185,317.6c-0.3,0.4,0.8-0.4,1.2-0.6c1.8-0.8,3.7-0.6,5.6-0.6c3.3,0,14.3,2.8,15.3,6.8
			c0.3,1.3-8.1,12.6-9.4,14.4c-2.8,3.8-0.5,13.2-3.2,15.9c-0.1,0.1-5.5-5.4-5.9-5.9c-4.3-5.7-7.5-11.4-6.2-19.1
			c0.4-2.5,0.1-5.2,0.6-7.7C183.1,319.8,185.8,316.5,185,317.6z"/>
		<path class="st11" d="M236.1,143.7c-36.9,73.2-89.1,75.7-88.5,76.5c1.3,1.7,51.2-3,89.5-64.5C239.4,151.9,238.9,138,236.1,143.7z"
			/>
		<path class="st4" d="M50.1,290.7c-17.5-7.6-16.7-38.8-11.5-51c14-32.8,41.9-54.6,73.4-69.7c15.9-7.6,37.4-11.7,37.4-11.3
			c0,0.6-6.1,3.7-6.9,4.2c-4.8,2.4-11.8,7.2-12.9,12.9c-0.7,3.3,2.1,8,1.2,12c-1.5,6.2-8.3,8.8-11.8,13.4c-3.1,4.1-5.8,9-8.1,13.6
			C98.6,239.1,74.6,301.4,50.1,290.7z"/>
		<path class="st14" d="M113.4,171.1c-1.4,1.1,3.8,3.1,5.2,4.7c2.1,2.4,3.5,7.2,4.6,10.3c0.9,2.6,1.3,5.5,1.8,8.1
			c0.1,0.5-0.5,3.1,0.2,3c1.6-0.3,2.2-1.9,3.4-2.8c8.7-6.5-1-18.1,5-24c1.6-1.6,14.7-9.1,14.7-9.5c0-1.3-7.4,0.1-8.1,0.4
			C131.4,164.7,120.8,165.4,113.4,171.1z"/>
		<path class="st0" d="M84.2,269c1.6,0-2.8,6.8-4,8.8c-3.5,5.9-9.3,8-13.9,12.5c-0.2,0.2-1.6,1-1.6,1.4c0.2,1.3,9,0.6,10.3,1.1
			c6.9,2.5,14,7.1,18.3,13c3,4.1,2.1,8.7,2.4,13.3c0.1,2.1,3.1,5.6,3.8,7.9c0.6,1.7-1.1,3.3-0.7,4.9c1.6,6.6,10.2,18.2,16.4,21.3
			c3.3,1.7,25.1,3.8,25.7,3.3c8.4-6.2,16-13.2,24.3-19.4c1.5-1.1,16-7.8,16.2-8.1c2.8-4.8,0.3-11.8,7.9-15c4-1.7,10.9,0.2,15.3,0
			c13.1-0.7,23.8-9,31.1-19.3c2.9-4.2,6.7-7,6.4-12.7c-0.2-4.7-2-9.8-1.3-14.5c0.1-0.6,0.3-0.7-0.3-1c-1.8-0.6-3.8,2.7-4.9,3.8
			c-1.6,1.6-4.5,2.3-6.6,3.1c-9.6,3.7-20.9,7.6-31.2,8.1c-2.8,0.1-5.7,2.5-8.6,2.6c-5.5,0.3-12,0.5-17.3-1.4c-3-1.1-1.5-4.6-3.8-5.3
			c-9.8-3.2-21.2-4.3-31.5-5.8c-6.1-0.9-12.7-1.5-18.7,0c-3.9,0.9-8.6,1.7-12.2,3.7c-0.2,0.1-1.3,0.8-1.5,0.7
			c-0.9-0.8-1.7-1.2-3.2-1.6c-3.8-1-9.3-1.5-12.7-3.5c-1.4-0.8-3.1-0.9-4.6-1.1c-0.5-0.1-1.7-0.2-1.3-0.4
			C83,269.1,83.6,269,84.2,269z"/>
		<path class="st2" d="M112.6,170.8c0,2,12.3,8.3,12.3,26"/>
		<path class="st4" d="M148.2,160.7c-4.7,2.4-24.3,15.8-26.6,20.5"/>
		<path class="st2" d="M148.2,160.7c-4.7,2.4-24.3,15.8-26.6,20.5"/>
		<path class="st4" d="M131.3,181.5c-0.4-0.2-7.2,6.4-7.2,6.4"/>
		<path class="st2" d="M131.3,181.5c-0.4-0.2-7.2,6.4-7.2,6.4"/>
		<path class="st2" d="M51.5,291.1c-17.5-7.6-16.7-38.8-11.5-51c14-32.8,41.9-54.6,73.4-69.7c15.9-7.6,37.4-11.7,37.4-11.3
			c0,0.6-6.1,3.7-6.9,4.2c-4.8,2.4-11.8,7.2-12.9,12.9c-0.6,3.3,2.1,8,1.2,12c-1.5,6.2-8.3,8.8-11.8,13.4c-3.1,4.1-5.8,9-8.1,13.6
			C100.1,239.5,76.1,301.7,51.5,291.1z"/>
		<path class="st2" d="M54.4,292.1c-16.9,0-26.7,17.5-20.8,32.4c1.5,3.7,2.8,7.2,6.6,9.1"/>
		<path class="st2" d="M60.3,329.3c-22-0.3-54.4,31.4-52.2,31.4c32.1,0,57.3,8.6,73.3,0.6c6.6-3.3,8.9-13.7,5.3-20.8"/>
		<path class="st2" d="M88.6,351c5.5,0,23.9,0.2,29.1,2.9"/>
		<path class="st2" d="M181.7,328c-10,5-18,9.9-27,16.7c-10.8,8.1-35.3,36.1-34.9,36.5c1.1,1.1,28.3-13.2,49.1-14.5
			c15.2-0.9,82.7,12.6,99.7-3.1c17-15.7,6.7-32.8-3.8-36.5c-28.3-10.1-57-3.3-57.2-2.8"/>
		<path class="st2" d="M237.7,151.5C240,174.7,360.9,298,269,327.4"/>
		<path class="st2" d="M219.5,228.3c15.7,15.7,31.9,44.9,16.4,66.7c-6.3,8.9-14.2,17.3-25.2,19.5c-9,1.8-17.8-4.9-25.8,3.1
			c-6.1,6.1-1.4,19.7,2.2,25.8c1.1,1.8,7.5,9.4,7.5,9.4s3.6-24.6,12.6-28.3"/>
		<path class="st2" d="M118.6,204.1c2.5,3.7,11,12.9,24.8,16.6"/>
		<path class="st2" d="M120.3,201.9c2.5,3.7,11.2,15.3,25,18.9"/>
		<path class="st2" d="M147.1,221.3c-0.2,0-0.4,0-0.6,0"/>
		<path class="st2" d="M146.2,221.9c-5.5-2.3-20.4,13.9-14,16.7c4.3,1.8,10.8-9.6,11.9-13.4c0.2-0.8,1.1-3.3,2.5-2.5
			c1.4,0.7,1.3,3,1.3,4.2c0,5-0.6,10.9,3.2,14.6c2.5,2.5,6.1-2,5.7-4.5C156,231.2,151.6,224.1,146.2,221.9z"/>
		<path class="st2" d="M147.5,221.5c-3.8,6.1-7.7,31.4-5.3,38.6"/>
		<path class="st2" d="M146.9,222.8c-4.9,9.7,3.5,30.7,10.6,37.8"/>
		<path class="st2" d="M164.3,281.3c37.5,7.4,73.4-11.8,76.6-15"/>
		<path class="st2" d="M84.3,269.3c2.3,1.8,18.4,5.4,22.5,5.4"/>
		<path class="st2" d="M169.5,280.4c0,1.5,0.4-1.6,0-2.2c-0.7-1.1-2.6-1.9-3.8-2.2c-5.1-1.5-53.2-13.2-62.9,3.8
			c-12.4,21.6-6.4,58.6,7.6,70.3c7.5,6.2,21.1,6.5,30.3,6.5"/>
		<path class="st2" d="M163.4,281.5c-15.3,10.2-14.6,42.5-2,57.7"/>
		<path class="st2" d="M161.4,274.7c-46.3-3.8-57.1,78.2-35.3,80.9"/>
		<path class="st2" d="M159.3,287.7c25.7,4.8,48.1,1.8,61.3-2.1"/>
		<path class="st2" d="M81.2,275.3c-0.1-0.5,7.9,3,13.7,3.8"/>
		<path class="st2" d="M64.2,290.7c14.4,2,25.5,7.9,31.3,16"/>
		<path class="st2" d="M186,316.9c6.5-2.2,17.9,0.3,21.2,6.9"/>
		<path class="st2" d="M196.2,316.6c-12.5,4.2-7.3,26.6-3.3,34.5"/>
		<path class="st2" d="M39.9,336.5c6.4,6.1,14.8,15.6,13.8,26.8"/>
		<path class="st2" d="M10.6,359.4c8.2-6.8,24.9-15.7,36-14.7"/>
		<path class="st2" d="M12.8,358.3c13.2,1.2,26.5-5.2,39.7-4"/>
		<path class="st2" d="M152.6,347.3c3.1,5.6,5.1,14.5,13.4,19.9"/>
		<path class="st2" d="M124,377.9c10.1-8.4,20.2-15.7,32.6-20.6"/>
		<path class="st7" d="M221.4,177.7c102.2,90.7,66.6,132.8,50.2,138.9c-19.1,7.2-23.2,2.9-32.1,4.4c-2.4,0.4-7.2,0.7-7.2,0.7
			s12.9-1.7,16.1,2.7c14.5,20.6-12.6,31.8-28.7,10.9c-3.7-4.8-9.4-12.5-14-9.5c-8.3,5.4-7.9,25.7-11.8,25.8
			c-4,0.1-10.8-15.1-12.1-25c-14.1,5.1-30.7,17.9-50.7,40.5c-0.4,0.5-10.2,12.1-8.9,13c3.2,2.1,13.7-4.9,16.7-6.2
			c12.5-5.3,26.1-10.8,39.3-8.2c4,0.8,22,2.3,26.3,3.4c16.5,4.1,64.3,6.5,69.4-13.7c1.9-7.6,7.2-12.3-5.8-27.3
			c-1.2-1.4,0.7,0.5,0.7-1.4c0-0.8,16.3-7,18.1-8.5c11.2-9.6,13-19.5,15.7-33.2c6.2-30.8-32.7-82.7-50.2-104.6
			c-6.2-7.8-8.6-15.2-13-23.9c-0.2-0.5-3.3-1.7-3.8-1.7C231.8,155,223.5,178.2,221.4,177.7z"/>
		<path class="st7" d="M38.1,300.4c0.4-1.1-1.4,1.9-1.9,2.9c-1.1,2.3-1,5.7-0.2,8.1c2.2,6.5,10.4,10.4,16.7,11.8
			c14.2,3.1,32.2-15.3,42.1-11.8c3.1,1.1,3.6,13.6,4.7,16.9c6.4,19.2,33.7,21.4,44.8,18.1c10.8-3.2,36.7-16.9,37.5-17.9
			c3.2-4-0.4-10.6,5.9-11.1c25.3-1.8,66.4-9.1,32.1-86.4c-1.7-3.8,19.9,24.8,20.4,31c1.5,20.6,3.7,30.6-12.6,44.2
			c-3.2,2.6-7.8,7-12.3,7.5c-10,1.1-10.6,0.9-31.1,3.7c-5.1,0.7-1.4,7.9-2.7,11.6c-0.2,0.6-9,3.6-10.4,4.7
			c-2.5,2.1-28.9,22.6-29.6,22.7c-12.1,1.3-43.6-8.1-52.3-3.4c-4.9,2.7,0.2,5.5-7,8.3c-12.9,5-40.5,0.9-53.9-0.3
			c-2.8-0.3-13.5-0.2-14.9-2.7c-2.1-3.9,23.1-23.3,28.6-24.1c0.4-0.1-3,0.5-3,0c0.3-3.1-1.5-3.6-3.5-6
			C28.8,319.9,34.9,308,38.1,300.4z"/>
		<path class="st7" d="M166.7,281.2c2.1,0.8-3.4,3.1-4.2,5.1c-1.7,3.9-1.6,10-1.3,14.2c0.7,9.3,6.1,18.8,12.9,24.9
			c0.5,0.5,3.7,3.5,3.4,4.1c-0.9,2.2-13.4,9.4-15.9,8.5C144,332,148.4,274.4,166.7,281.2z"/>
		<path class="st7" d="M84.4,270c5.7-0.4,10.1,3.4,15.9,5.1c2.5,0.7,8.2,1,5.6,0.8c-3.9-0.4-10.1,16.4-10.4,19
			c-0.3,2.9,1.8,8.8-1,8.5c-1.5-0.1-19.9-11.2-25.6-12.8c-0.7-0.2-1.7-0.2-2.1-0.7c-1.3-1.5,6.3-6.1,7.1-6.9
			C77.8,279.1,79.2,270.4,84.4,270z"/>
		<path class="st7" d="M157.6,274.1c-39,4.8-39.9,69.3-40.7,68.4c-0.2-0.3-0.6-6.9-1.1-11.4c-1.8-17.1,9.4-44.5,35.7-55.1"/>
		<path class="st7" d="M112.1,213.8c-32.4,78-66,67.7-73.9,44.6c-1.4-0.1,1.2,13.5,1.3,15c1.5,13.7,25.5,40.4,54.8-20.7"/>
		<path class="st7" d="M147.5,161.6c-2.3-1-4,3-5.4,4.8c-2.5,3.1-4.8,7.6-4.1,12c0.6,3.4,3.1,9.4,1.1,12.7c-2.8,4.7-8.5,8.3-12.3,12
			c-5.6,5.6-9.4,13.5-12.3,20.7c-0.8,1.9-2.7,8.6-4.9,15.9c-2.5,8.3-5.5,17.4-7.8,21.6c-1.7,3.1-4.4,8.8-7.7,10.4
			c-1.3,0.6-8.1-3.3-7.7-4.3c2-5.4,6.3-9.5,8.4-14.8c3.2-8.1,6.1-15.6,10-23.4c3.5-7.1,7-13.6,11.1-20.4c1.2-2.1,1.6-4.7,3.2-6.6
			c2.7-3.4,12.8-9.5,13.6-12.7c1.3-5.2-4-11.2-2-16.1c1.9-4.8,6.7-7,11.1-8.9C142.8,164.2,148.5,162.1,147.5,161.6z"/>
		<path class="st7" d="M236.7,145.8c0.7-40.5-13.7-104.2-81.3-110.1C47.2,26.1,75.8,157.9,78.8,162.3c1.7,2.5,3.6,5,5.3,7.5
			c0.3,0.5,1.1,1.3,1.1,1.3s-0.6-1-0.8-1.6c-1.4-2.9-2.9-5.5-4.2-8.4c-2.9-6.3-2.9-13.7-4.7-20.3c-2.2-7.9-4.8-17.6-4.2-25.8
			c0.4-6,4.3-13.1,6.2-18.7c1.3-3.8,9-14.1,10.5-17.8c1.2-3.1-2.9-0.6-0.3-2.4c0.4-0.3,4.5-1.7,4.1-2.3C91,72.6,81.2,76.4,79.6,77
			c-0.4,0.1-1,0.7-1.2,0.3c-1.3-2,9.8-6.5,11.5-7c0.6-0.2,1.6-0.2,1.6-0.8c-0.2-1.6-8.6-0.5-8.7-1.7c-0.1-2.9,7-7,8.9-8.1
			c1.2-0.6,2.7-0.9,3.9-1.2c0.5-0.1,1.8-0.1,1.5-0.5c-0.4-0.6-6.9-0.8-6.7-1.6c0.1-0.7,4.9-1.4,5.4-1.5c4.4-1,9.3-1.8,13.7-1
			c0.6,0.1,4.3,1.5,4.6,0.9c0.6-1.3-4.4-9.9-1.8-11c0,0,5,3.4,5.5,3.6c6,3,12.3,6.7,19.2,6.9c0.6,0,1.1-0.2,1.7-0.2
			c4.2-0.2,0.5-1,0.6-4.4c0-0.2-0.4-0.5-0.2-0.6c0.6-0.2,10.7,3,12,3.5c5.4,2.2,11.1,4.8,17.8,5.2c1.1,0.1,3,0.6,9,4
			c6.1,3.4,5.4,2.7,11.1,6.7c5.7,3.9,7.9,4.2,12.9,10.1c2.4,2.8,6.8,8.4,9.2,10.5c6.1,5.5,8.9,12.6,11.8,20.8c1.1,3,2.4,3.5,3.7,6.1
			c0.7,1.4,2.7,2.7,3.7,3.8c2.3,2.5,4.4,7.8,4.8,11.1c0.2,1.6-0.6,3.1-0.6,4.7C234.3,139.4,237.1,145.1,236.7,145.8z"/>
		<path class="st2" d="M237.6,153.3c-7.2,13.6-38.1,61.7-92.2,67.4"/>
		<path class="st2" d="M236.5,144.6c-7.2,13.6-34.7,62.2-80.6,74.2"/>
		<path class="st2" d="M162.1,55c4.8,1.6,9.3,3.5,13.6,5.6c46.5,22.9,60.9,72.9,62,90.6"/>
		<path class="st7" d="M210.4,255.6c-4.4,0.6-5.7,12.1-29.5,7.9c-14.1-2.5-16.9-7-25.5-8.7c-10.4-2.1-14.9-0.5-25.4,0.8
			c-19.5,2.5-21.6-7-22.8-1.1c-1.2,5.8,35.5-0.8,44,2.5c13.6,5.3,26.4,14.8,43.2,13.2C203.8,269.4,219,254.4,210.4,255.6z"/>
		<g>
			<path class="st10" d="M159.7,295.8c3,0.1,5.9,0.1,8.8,0.2c2.4,0.1,3.3,1.6,3.4,3.1c0.2,2-0.7,3.5-2.7,4.2c-0.1,0-0.2,0.1-0.4,0.1
				c2.4,1.3,2.8,3.8,4.2,6c-1.7,0-3.2,0-4.8,0c-0.7-1.4-1.5-2.8-2.3-4.2c-0.4-0.8-1-1.4-2.1-1.1c0,1.8,0,3.5,0,5.4
				c-1.5,0-2.8,0-4.1,0C159.7,305,159.7,300.5,159.7,295.8z M163.9,298.7c0,0.9,0,1.8,0,2.8c0.9-0.1,1.8,0,2.7-0.2
				c0.8-0.1,1.2-0.6,1.2-1.3c0-0.7-0.4-1.2-1.2-1.3C165.7,298.6,164.8,298.7,163.9,298.7z"/>
			<path class="st10" d="M184.7,299.7c-1.3,0.1-2.6,0.2-3.9,0.3c-0.2-1.1-0.9-1.8-2-1.8c-0.7,0-1.3,0.2-1.6,1c0,0.7,0.5,0.9,1,1
				c1,0.3,2,0.5,3,0.8c0.5,0.2,1.1,0.4,1.6,0.6c3.3,1.5,3,5.3,0.7,7c-0.8,0.6-1.7,0.9-2.7,1.1c-1.5,0.3-3.1,0.2-4.6-0.2
				c-2-0.5-3.3-2.2-3.3-4.4c1.3-0.1,2.5-0.1,3.8-0.2c0.1,0.3,0.2,0.5,0.2,0.8c0.5,1.3,1.9,1.9,3.1,1.4c0.6-0.2,1-0.6,1-1.3
				c0-0.6-0.3-1-0.9-1.2c-0.4-0.2-0.9-0.3-1.4-0.5c-1-0.3-2-0.5-2.9-0.9c-1.8-0.7-2.7-2-2.7-3.6c0.1-1.7,1.2-3.1,3.1-3.6
				c1.8-0.5,3.6-0.5,5.4,0C183.7,296.6,184.6,297.7,184.7,299.7z"/>
		</g>
	</g>
	<g>
		<path d="M289.1,118.6c-0.1,0.6-0.4,1.1-0.8,1.6s-0.8,0.8-1.3,1.1c-0.5,0.3-1,0.5-1.6,0.6c-0.6,0.1-1.1,0.1-1.7-0.1
			c-0.9-0.2-1.7-0.7-2.2-1.3c-0.3,0.2-0.6,0.4-1,0.5c-0.3,0.1-0.6,0.3-0.9,0.3c-0.3,0.1-0.6,0.1-0.9,0.1c-0.3,0-0.7-0.1-1-0.1
			c-0.6-0.1-1.1-0.4-1.6-0.7s-0.8-0.8-1.1-1.2s-0.5-1-0.6-1.6c-0.1-0.6-0.1-1.2,0.1-1.7l1.5-5.8c0-0.2,0.1-0.4,0.2-0.5
			c0.1-0.1,0.2-0.3,0.4-0.3c0.2-0.1,0.3-0.1,0.5-0.2c0.2,0,0.4,0,0.5,0l11.7,2.9c0.2,0,0.3,0.1,0.5,0.2c0.1,0.1,0.3,0.2,0.4,0.4
			c0.1,0.2,0.2,0.3,0.2,0.5c0,0.2,0,0.4,0,0.5L289.1,118.6z M277.2,116.6c-0.1,0.2-0.1,0.4,0,0.6c0,0.2,0.1,0.4,0.2,0.6
			c0.1,0.2,0.2,0.3,0.4,0.5s0.4,0.2,0.6,0.3s0.4,0.1,0.7,0c0.2,0,0.4-0.1,0.6-0.2c0.2-0.1,0.3-0.2,0.5-0.4c0.1-0.2,0.2-0.4,0.3-0.6
			l1.1-4.5l-3.2-0.8L277.2,116.6z M283.2,117.1c-0.1,0.2-0.1,0.4,0,0.6c0,0.2,0.1,0.4,0.2,0.6c0.1,0.2,0.2,0.3,0.4,0.5
			c0.2,0.1,0.4,0.2,0.6,0.3c0.2,0.1,0.4,0.1,0.6,0c0.2,0,0.4-0.1,0.6-0.2c0.2-0.1,0.3-0.2,0.5-0.4c0.1-0.2,0.2-0.4,0.3-0.6l0.9-3.5
			l-3.2-0.8L283.2,117.1z"/>
		<path d="M278,139.1c-2-0.3-3.7-1.2-4.9-2.9c-1.2-1.6-1.7-3.5-1.4-5.5c0.3-2,1.2-3.6,2.9-4.9c1.6-1.2,3.4-1.7,5.5-1.4
			c2,0.3,3.6,1.2,4.9,2.9c1.2,1.6,1.7,3.4,1.4,5.5c-0.3,2-1.2,3.6-2.9,4.9c-0.8,0.6-1.7,1-2.6,1.3C280,139.1,279,139.2,278,139.1z
			 M283.6,132.4c0.1-0.6,0-1.3-0.1-1.9c-0.2-0.6-0.4-1.1-0.8-1.6s-0.8-0.9-1.3-1.2c-0.5-0.3-1.1-0.5-1.7-0.6s-1.2,0-1.8,0.1
			c-0.6,0.2-1.1,0.4-1.6,0.8c-0.5,0.4-0.9,0.8-1.2,1.3c-0.3,0.5-0.5,1.1-0.6,1.8c-0.1,0.6,0,1.2,0.1,1.8c0.2,0.6,0.4,1.1,0.8,1.6
			c0.4,0.5,0.8,0.9,1.3,1.2c0.5,0.3,1.1,0.5,1.7,0.6c0.6,0.1,1.2,0,1.8-0.1s1.1-0.4,1.6-0.8c0.5-0.4,0.9-0.8,1.2-1.3
			C283.3,133.6,283.5,133,283.6,132.4z"/>
		<path d="M274.4,144.4c-0.3,0.2-0.5,0.4-0.6,0.6c-0.4,0.5-0.5,1.1-0.6,1.9c0,0.7,0.2,1.4,0.5,1.9s0.8,0.8,1.2,0.8
			c0.5,0,1-0.2,1.4-0.7s0.6-1.1,0.6-1.9c0-0.4,0.1-0.7,0.4-1c0.3-0.3,0.6-0.4,1-0.4c0.4,0,0.7,0.1,1,0.4c0.3,0.3,0.4,0.6,0.4,1
			c0,0.8,0.1,1.4,0.4,1.9c0.2,0.5,0.5,0.7,0.8,0.8c0.4,0,0.8-0.2,1.1-0.7c0.3-0.5,0.5-1.1,0.5-1.9c0-0.7-0.1-1.4-0.5-1.9
			c-0.1-0.2-0.3-0.4-0.6-0.6c-0.1-0.1-0.2-0.1-0.2-0.2c-0.3-0.3-0.4-0.6-0.4-1s0.1-0.7,0.4-1c0.3-0.3,0.6-0.4,1-0.4
			c0.3,0,0.5,0.1,0.7,0.2c0.4,0.3,0.8,0.6,1.1,1c0.8,1.1,1.2,2.3,1.2,3.8c0,1.5-0.4,2.7-1.3,3.8s-1.8,1.6-3.1,1.5
			c-1.3,0-2.1-0.5-2.7-1.5c-0.8,0.9-2,1.4-3.3,1.4c-1.2,0-2.3-0.6-3.1-1.6c-0.9-1.1-1.3-2.3-1.3-3.8c0-1.5,0.5-2.7,1.3-3.7
			c0.3-0.4,0.6-0.7,1-0.9c0.2-0.2,0.5-0.3,0.8-0.2c0.4,0,0.7,0.1,1,0.4s0.4,0.6,0.4,1C274.9,143.7,274.7,144.1,274.4,144.4z"/>
		<path d="M279.5,157.6l0.5,4.1c0.1,0.6,0,1.2-0.2,1.7c-0.2,0.6-0.4,1-0.8,1.5c-0.3,0.4-0.8,0.8-1.3,1.1c-0.5,0.3-1.1,0.5-1.6,0.5
			c-0.6,0.1-1.2,0-1.7-0.2s-1-0.4-1.5-0.8c-0.4-0.3-0.8-0.8-1.1-1.3c-0.3-0.5-0.5-1.1-0.5-1.6l-0.6-5.5c0-0.2,0-0.4,0-0.5
			c0.1-0.2,0.1-0.3,0.2-0.5s0.2-0.3,0.4-0.3c0.2-0.1,0.3-0.1,0.5-0.2l12-1.3c0.2,0,0.4,0,0.5,0.1c0.2,0.1,0.3,0.1,0.5,0.2
			c0.1,0.1,0.2,0.2,0.3,0.4c0.1,0.2,0.1,0.3,0.2,0.5c0,0.2,0,0.4,0,0.5c-0.1,0.2-0.1,0.3-0.2,0.5s-0.2,0.3-0.4,0.3s-0.3,0.1-0.5,0.2
			L279.5,157.6z M274,162.4c0,0.2,0.1,0.4,0.2,0.6c0.1,0.2,0.2,0.4,0.4,0.5c0.2,0.1,0.3,0.2,0.6,0.3s0.4,0.1,0.6,0.1
			c0.2,0,0.4-0.1,0.6-0.2s0.3-0.2,0.5-0.4c0.1-0.2,0.2-0.4,0.3-0.6c0.1-0.2,0.1-0.4,0.1-0.6l-0.5-4.1l-3.2,0.4L274,162.4z"/>
		<path d="M275.8,178.9l6.8-5.1l-8.7,0c-0.2,0-0.4-0.1-0.7-0.2c-0.2-0.2-0.4-0.4-0.5-0.7c-0.1-0.2-0.1-0.4-0.1-0.5
			c0-0.2,0.1-0.3,0.1-0.5c0.1-0.2,0.2-0.3,0.3-0.4c0.1-0.1,0.3-0.2,0.5-0.3c0.1,0,0.3-0.1,0.5-0.1l12.6,0c0.3,0,0.5,0.1,0.8,0.3
			s0.4,0.4,0.5,0.7s0.1,0.6,0,0.9s-0.2,0.5-0.5,0.6l-6.9,5.1l8.6,0c0.2,0,0.5,0.1,0.7,0.2c0.2,0.2,0.4,0.4,0.5,0.7
			c0.1,0.3,0.1,0.6,0,0.9c-0.1,0.3-0.2,0.5-0.5,0.6l-10.1,7.6c-0.2,0.1-0.3,0.2-0.5,0.3c-0.2,0.1-0.4,0.1-0.5,0.1s-0.4-0.1-0.5-0.1
			c-0.2-0.1-0.3-0.2-0.4-0.3c-0.1-0.1-0.2-0.3-0.3-0.5c-0.1-0.3-0.1-0.6-0.1-0.8c0.1-0.2,0.2-0.4,0.4-0.6l7-5.2l-8.5,0
			c-0.7,0-1.2-0.3-1.4-0.9C275.1,179.9,275.2,179.4,275.8,178.9z"/>
		<path d="M286.7,204.4c-0.2-0.3-0.2-0.7-0.1-1c0.1-0.4,0.3-0.6,0.6-0.8c-0.7-0.3-1.3-0.7-1.9-1.1c-0.5-0.5-1-1.1-1.4-1.7
			c-0.5-0.8-0.8-1.7-0.9-2.6c-0.1-0.9,0-1.8,0.2-2.6c0.2-0.9,0.6-1.6,1.2-2.4c0.5-0.7,1.2-1.3,2-1.8l5.6-3.3c0.3-0.2,0.7-0.2,1-0.1
			s0.6,0.3,0.8,0.6c0.2,0.3,0.2,0.7,0.1,1s-0.3,0.6-0.6,0.8l-5.6,3.3c-0.5,0.3-0.9,0.6-1.2,1.1c-0.3,0.4-0.6,0.9-0.7,1.4
			c-0.1,0.5-0.2,1-0.1,1.6c0.1,0.5,0.2,1.1,0.5,1.6c0.3,0.5,0.6,0.9,1.1,1.2c0.4,0.3,0.9,0.6,1.4,0.7s1,0.2,1.6,0.1
			c0.5-0.1,1.1-0.2,1.5-0.5l5.6-3.3c0.3-0.2,0.7-0.2,1-0.1c0.4,0.1,0.6,0.3,0.8,0.6c0.2,0.3,0.2,0.7,0.1,1s-0.3,0.6-0.6,0.8l-10.4,6
			c-0.3,0.2-0.7,0.2-1,0.1S286.9,204.7,286.7,204.4z"/>
		<path d="M302,224.4c-0.3,0.2-0.7,0.3-1,0.2s-0.7-0.3-0.9-0.6c-0.2-0.3-0.3-0.7-0.2-1c0.1-0.4,0.3-0.7,0.6-0.9l6.2-4.2
			c0.3-0.2,0.6-0.5,0.9-0.9c0.2-0.3,0.4-0.7,0.4-1.1s0.1-0.8,0-1.2c-0.1-0.4-0.2-0.8-0.5-1.2c-0.2-0.4-0.5-0.6-0.9-0.9
			s-0.7-0.4-1.1-0.4c-0.4-0.1-0.8-0.1-1.2,0c-0.4,0.1-0.8,0.2-1.1,0.5l-6.2,4.2c-0.3,0.2-0.7,0.3-1,0.2s-0.7-0.3-0.9-0.6
			c-0.2-0.3-0.3-0.7-0.2-1c0.1-0.4,0.3-0.7,0.6-0.9l6.2-4.2c0.4-0.2,0.6-0.5,0.9-0.9c0.2-0.4,0.4-0.7,0.4-1.1c0.1-0.4,0.1-0.8,0-1.2
			c-0.1-0.4-0.2-0.8-0.5-1.1s-0.5-0.6-0.9-0.9c-0.3-0.2-0.7-0.4-1.1-0.4c-0.4-0.1-0.8-0.1-1.2,0c-0.4,0.1-0.8,0.2-1.1,0.5l-6.2,4.2
			c-0.3,0.2-0.7,0.3-1,0.2s-0.7-0.3-0.9-0.6c-0.2-0.3-0.3-0.7-0.2-1c0.1-0.4,0.3-0.7,0.6-0.9l9.9-6.7c0.3-0.2,0.7-0.3,1-0.2
			c0.4,0.1,0.7,0.3,0.9,0.6c0.2,0.3,0.3,0.5,0.2,0.8c0,0.3-0.1,0.6-0.3,0.8c1,0.4,1.9,1.1,2.6,2.1c0.5,0.7,0.8,1.5,1,2.3
			c0.1,0.8,0.1,1.7-0.2,2.6c1.8,0.2,3.3,1.1,4.3,2.5c0.4,0.7,0.7,1.4,0.9,2.1s0.1,1.5,0,2.3c-0.1,0.7-0.4,1.4-0.8,2.1
			c-0.4,0.7-1,1.2-1.6,1.7L302,224.4z"/>
		<path d="M310.7,234.8c0.2,0.4,0.2,0.7,0.1,1.1c-0.1,0.3-0.3,0.6-0.7,0.8c-0.3,0.2-0.7,0.2-1.1,0.1c-1.7-0.7-3-1.8-3.8-3.5
			c-0.9-1.8-1.1-3.7-0.5-5.6s1.8-3.4,3.6-4.3c1.8-0.9,3.7-1.1,5.6-0.5c1.9,0.6,3.4,1.8,4.3,3.6c0.9,1.8,1.1,3.7,0.5,5.6
			c-0.3,1-0.8,1.8-1.4,2.5s-1.4,1.3-2.3,1.8c-0.4,0.2-0.7,0.2-1.1,0.1c-0.4-0.1-0.6-0.3-0.8-0.7l-4.8-9.3c-0.4,0.4-0.6,0.8-0.9,1.2
			c-0.2,0.4-0.4,0.9-0.4,1.4c-0.1,0.5-0.1,1,0,1.5c0.1,0.5,0.2,1,0.5,1.4c0.3,0.5,0.6,0.9,1,1.3s0.8,0.6,1.3,0.8
			C310.3,234.2,310.5,234.5,310.7,234.8z M315,233.2c0.4-0.4,0.6-0.8,0.9-1.2s0.4-0.9,0.4-1.4c0.1-0.5,0.1-1,0-1.5s-0.2-1-0.5-1.4
			s-0.5-0.8-0.9-1.2s-0.8-0.6-1.2-0.8s-0.9-0.4-1.4-0.4c-0.5-0.1-1-0.1-1.5,0L315,233.2z"/>
		<path d="M316.2,258.9c-1.4-1-2.3-2.4-2.7-4.1c-0.5-2-0.2-3.8,0.8-5.6c1-1.8,2.5-2.9,4.5-3.4c2-0.5,3.8-0.2,5.6,0.8
			c1.8,1,2.9,2.5,3.4,4.5c0.5,2,0.2,3.8-0.8,5.6c-1,1.8-2.5,2.9-4.5,3.4l-7.1,1.8c-0.6,0.2-1.2,0.2-1.8,0.2c-0.6,0-1.2-0.2-1.7-0.4
			c-0.5-0.2-1.1-0.5-1.5-0.9c-0.5-0.4-0.9-0.8-1.3-1.2s-0.7-1-1-1.5s-0.5-1.1-0.6-1.7c-0.2-0.7-0.3-1.4-0.3-2.1
			c0-0.7,0.1-1.4,0.3-2.1c0.2-0.7,0.5-1.3,0.8-1.9c0.4-0.6,0.8-1.2,1.4-1.7c0.2-0.2,0.4-0.3,0.7-0.4c0.4-0.1,0.7-0.1,1,0.1
			c0.3,0.2,0.5,0.5,0.6,0.9c0.1,0.3,0.1,0.5,0,0.7c-0.1,0.2-0.3,0.5-0.6,0.9s-0.6,0.7-0.7,1c-0.7,1.2-0.9,2.5-0.6,3.9
			c0.4,1.4,1.1,2.4,2.3,3.1c0.9,0.4,1.6,0.5,2.3,0.3L316.2,258.9z M325.1,251.8c-0.2-0.6-0.4-1.2-0.8-1.7c-0.4-0.5-0.8-0.9-1.3-1.2
			c-0.5-0.3-1.1-0.5-1.7-0.6c-0.6-0.1-1.2-0.1-1.8,0.1c-0.6,0.2-1.2,0.4-1.6,0.8c-0.5,0.4-0.9,0.8-1.2,1.3c-0.3,0.5-0.5,1.1-0.6,1.7
			c-0.1,0.6-0.1,1.2,0.1,1.9c0.2,0.6,0.4,1.2,0.8,1.7c0.4,0.5,0.8,0.9,1.3,1.2c0.5,0.3,1.1,0.5,1.7,0.6c0.6,0.1,1.2,0.1,1.8-0.1
			c0.6-0.2,1.2-0.4,1.6-0.8c0.5-0.4,0.9-0.8,1.2-1.3c0.3-0.5,0.5-1.1,0.6-1.7C325.3,253.1,325.3,252.5,325.1,251.8z"/>
		<path d="M325.3,271.5l4.6-0.5c0.2,0,0.4,0,0.5,0c0.2,0.1,0.3,0.1,0.5,0.2c0.1,0.1,0.3,0.2,0.3,0.4c0.1,0.2,0.1,0.3,0.2,0.5
			c0,0.2,0,0.4,0,0.5c-0.1,0.2-0.1,0.3-0.2,0.5c-0.1,0.1-0.2,0.2-0.4,0.3c-0.2,0.1-0.3,0.1-0.5,0.2l-4.6,0.5l6.4,6.1
			c0.3,0.2,0.4,0.5,0.4,0.9c0,0.2,0,0.4,0,0.5s-0.1,0.3-0.2,0.5c-0.1,0.1-0.2,0.2-0.4,0.3c-0.2,0.1-0.3,0.1-0.5,0.2
			c-0.4,0-0.7-0.1-1-0.3l-5.6-5.3l-4.4,6.4c-0.2,0.3-0.5,0.5-0.9,0.5c-0.2,0-0.4,0-0.5-0.1s-0.3-0.1-0.5-0.2s-0.3-0.2-0.3-0.4
			c-0.1-0.2-0.1-0.3-0.2-0.5c0-0.3,0-0.7,0.2-0.9l4.6-6.7l-0.5-0.5l-3.7,0.4c-0.2,0-0.4,0-0.5-0.1c-0.2-0.1-0.3-0.1-0.5-0.2
			s-0.3-0.2-0.3-0.4c-0.1-0.2-0.1-0.3-0.2-0.5c0-0.2,0-0.4,0-0.5c0.1-0.2,0.1-0.3,0.2-0.5c0.1-0.1,0.2-0.3,0.4-0.3
			c0.2-0.1,0.3-0.1,0.5-0.2l3.7-0.4l0.4-0.6l-5.9-5.6c-0.2-0.2-0.4-0.5-0.4-0.9c0-0.2,0-0.4,0-0.5c0.1-0.2,0.1-0.3,0.2-0.5
			c0.1-0.1,0.2-0.2,0.4-0.3c0.2-0.1,0.3-0.1,0.5-0.2c0.4,0,0.8,0.1,1,0.3l5.7,5.3l4.3-6.4c0.2-0.3,0.5-0.5,0.9-0.5
			c0.2,0,0.4,0,0.5,0c0.2,0.1,0.3,0.1,0.5,0.2c0.1,0.1,0.3,0.2,0.3,0.4c0.1,0.2,0.1,0.3,0.2,0.5c0,0.4,0,0.7-0.2,1L325.3,271.5z"/>
		<path d="M318.9,290.7l11.6-4.3c0.2-0.1,0.4-0.1,0.6-0.1c0.2,0,0.4,0,0.5,0.1c0.2,0.1,0.3,0.2,0.4,0.3c0.1,0.1,0.2,0.3,0.3,0.4
			c0.1,0.2,0.1,0.4,0.1,0.5c0,0.3-0.1,0.5-0.3,0.8c-0.2,0.2-0.4,0.4-0.7,0.5l-9,3.4l8.7,4c0.3,0.1,0.5,0.3,0.6,0.5
			c0.2,0.2,0.2,0.5,0.2,0.8c0,0.2,0,0.4-0.1,0.5c-0.1,0.2-0.2,0.3-0.3,0.4c-0.1,0.1-0.3,0.2-0.5,0.3c-0.2,0.1-0.3,0.1-0.5,0.1
			c-0.2,0-0.4-0.1-0.6-0.2l-17.9-8.2c-0.3-0.1-0.5-0.3-0.6-0.5s-0.2-0.5-0.2-0.8c0-0.4,0.2-0.7,0.4-1s0.6-0.4,1-0.4
			c0.2,0,0.4,0.1,0.6,0.2L318.9,290.7z"/>
		<path d="M322.6,303.6l-4.6-0.8c-0.2,0-0.3-0.1-0.5-0.2c-0.2-0.1-0.3-0.2-0.4-0.4c-0.1-0.1-0.2-0.3-0.2-0.5c0-0.2,0-0.4,0-0.5
			c0-0.2,0.1-0.4,0.2-0.5s0.2-0.3,0.4-0.4c0.1-0.1,0.3-0.2,0.5-0.2s0.4,0,0.5,0l11.8,2c0.2,0,0.3,0.1,0.5,0.2
			c0.2,0.1,0.3,0.2,0.4,0.4c0.1,0.1,0.2,0.3,0.2,0.5c0,0.2,0,0.4,0,0.6c0,0.2-0.1,0.3-0.2,0.5c-0.1,0.2-0.2,0.3-0.4,0.4
			c-0.1,0.1-0.3,0.2-0.5,0.2s-0.4,0-0.5,0l-4.6-0.8l-1.1,6.7l4.6,0.8c0.2,0,0.3,0.1,0.5,0.2c0.2,0.1,0.3,0.2,0.4,0.4
			s0.2,0.3,0.2,0.5c0,0.2,0,0.4,0,0.5c0,0.2-0.1,0.4-0.2,0.5c-0.1,0.2-0.2,0.3-0.4,0.4c-0.1,0.1-0.3,0.2-0.5,0.2c-0.2,0-0.4,0-0.5,0
			l-11.8-2c-0.2,0-0.3-0.1-0.5-0.2s-0.3-0.2-0.4-0.4c-0.1-0.1-0.2-0.3-0.2-0.5s0-0.4,0-0.6c0-0.2,0.1-0.4,0.2-0.5
			c0.1-0.2,0.2-0.3,0.4-0.4s0.3-0.2,0.5-0.2c0.2,0,0.4,0,0.5,0l4.6,0.8L322.6,303.6z"/>
		<path d="M317.3,329.7c-2-0.6-3.4-1.8-4.3-3.6c-0.9-1.8-1.1-3.7-0.5-5.6c0.6-1.9,1.8-3.4,3.6-4.3s3.7-1.1,5.6-0.5s3.4,1.8,4.3,3.6
			s1.1,3.7,0.5,5.6c-0.6,1.9-1.8,3.4-3.6,4.3c-0.9,0.5-1.8,0.7-2.8,0.8C319.3,330.1,318.3,330,317.3,329.7z M324,324
			c0.2-0.6,0.3-1.2,0.2-1.8c-0.1-0.6-0.2-1.2-0.5-1.7c-0.3-0.5-0.6-1-1.1-1.4c-0.5-0.4-1-0.7-1.6-0.9c-0.6-0.2-1.2-0.3-1.8-0.2
			c-0.6,0.1-1.2,0.2-1.7,0.5c-0.5,0.3-1,0.6-1.4,1.1c-0.4,0.5-0.7,1-0.9,1.6c-0.2,0.6-0.3,1.2-0.2,1.8c0.1,0.6,0.2,1.2,0.5,1.7
			s0.6,1,1.1,1.4c0.5,0.4,1,0.7,1.6,0.9c0.6,0.2,1.2,0.3,1.8,0.2c0.6-0.1,1.2-0.2,1.7-0.5c0.5-0.3,1-0.6,1.4-1.1
			C323.5,325.2,323.8,324.6,324,324z"/>
		<path d="M307.4,336.8l8.4,0.8l-6.5-5.9c-0.2-0.2-0.3-0.4-0.3-0.6c-0.1-0.3,0-0.5,0.1-0.8c0.1-0.2,0.2-0.3,0.3-0.5
			c0.1-0.1,0.3-0.2,0.4-0.3c0.2-0.1,0.3-0.1,0.5-0.1c0.2,0,0.4,0,0.5,0.1c0.1,0.1,0.3,0.2,0.4,0.3l9.4,8.5c0.2,0.2,0.3,0.4,0.4,0.7
			s0,0.6-0.1,0.8c-0.1,0.3-0.3,0.5-0.6,0.6s-0.5,0.2-0.8,0.2l-8.6-0.8l6.4,5.8c0.2,0.2,0.3,0.4,0.4,0.7c0.1,0.3,0,0.6-0.1,0.9
			c-0.1,0.3-0.3,0.6-0.6,0.7s-0.5,0.2-0.8,0.1l-12.6-1.1c-0.2,0-0.4,0-0.5-0.1c-0.2-0.1-0.3-0.2-0.4-0.3c-0.1-0.1-0.2-0.3-0.3-0.4
			c-0.1-0.2-0.1-0.3-0.1-0.5c0-0.2,0-0.4,0.1-0.5c0.1-0.3,0.3-0.5,0.5-0.7c0.2-0.1,0.4-0.2,0.7-0.2l8.7,0.8l-6.3-5.7
			c-0.5-0.5-0.7-1-0.4-1.6C306.2,337,306.7,336.7,307.4,336.8z"/>
	</g>
</g>
</svg>
